G04*
G04 #@! TF.GenerationSoftware,Altium Limited,Altium Designer,20.1.12 (249)*
G04*
G04 Layer_Color=32768*
%FSLAX25Y25*%
%MOIN*%
G70*
G04*
G04 #@! TF.SameCoordinates,7D01FC5B-E23C-4C92-B969-1582809840FB*
G04*
G04*
G04 #@! TF.FilePolarity,Positive*
G04*
G01*
G75*
%ADD11C,0.00787*%
%ADD38C,0.00394*%
%ADD39C,0.00197*%
D11*
X450050Y220122D02*
G03*
X450391Y219531I341J-197D01*
G01*
X453781D02*
G03*
X454121Y220122I0J394D01*
G01*
X453781Y279532D02*
G03*
X454121Y280122I0J394D01*
G01*
X454008Y281500D02*
G03*
X453667Y280909I0J-394D01*
G01*
X450505D02*
G03*
X450164Y281500I-341J197D01*
G01*
X450050Y280122D02*
G03*
X450391Y279532I341J-197D01*
G01*
X468639Y283469D02*
G03*
X468298Y282878I0J-394D01*
G01*
X472370D02*
G03*
X472029Y283469I-341J197D01*
G01*
X447165Y221500D02*
Y281500D01*
Y221500D02*
X450846D01*
X450050Y220122D02*
X450846Y221500D01*
X450391Y219531D02*
X453781D01*
X453326Y221500D02*
X454122Y220122D01*
X453326Y221500D02*
X478661D01*
Y281500D01*
X447165D02*
X478661D01*
X453667Y280909D02*
X454122Y280122D01*
X450050D02*
X450505Y280909D01*
X450391Y279532D02*
X453781D01*
X471574Y281500D02*
X472370Y282878D01*
X468298D02*
X469094Y281500D01*
X468639Y283469D02*
X472029D01*
D38*
X323631Y234000D02*
X327569D01*
X325600Y232031D02*
Y235968D01*
X458976Y251500D02*
X466850D01*
X462913Y247563D02*
Y255437D01*
X420032Y184600D02*
X423969D01*
X422000Y182631D02*
Y186569D01*
X143800Y143931D02*
Y147869D01*
X141831Y145900D02*
X145769D01*
X210933Y143931D02*
Y147869D01*
X208965Y145900D02*
X212902D01*
X278067Y143931D02*
Y147869D01*
X276098Y145900D02*
X280035D01*
X345200Y143931D02*
Y147869D01*
X343231Y145900D02*
X347168D01*
D39*
X317332Y229079D02*
Y238921D01*
X333868Y229079D02*
Y238921D01*
X317332D02*
X333868D01*
X317332Y229079D02*
X333868D01*
X425346Y179285D02*
Y189915D01*
X418654Y179285D02*
Y189915D01*
X425346D01*
X418654Y179285D02*
X425346D01*
X257500Y269032D02*
Y272969D01*
X255532Y271000D02*
X259469D01*
X216161Y254465D02*
X298839D01*
X216161D02*
Y283402D01*
X298839D01*
Y254465D02*
Y283402D01*
X156005Y129758D02*
Y162042D01*
X131595Y129758D02*
X156005D01*
X131595D02*
Y162042D01*
X156005D01*
X223138Y129758D02*
Y162042D01*
X198729Y129758D02*
X223138D01*
X198729D02*
Y162042D01*
X223138D01*
X290271Y129758D02*
Y162042D01*
X265862Y129758D02*
X290271D01*
X265862D02*
Y162042D01*
X290271D01*
X357405Y129758D02*
Y162042D01*
X332995Y129758D02*
X357405D01*
X332995D02*
Y162042D01*
X357405D01*
M02*
