G04*
G04 #@! TF.GenerationSoftware,Altium Limited,Altium Designer,20.1.12 (249)*
G04*
G04 Layer_Color=16711935*
%FSLAX25Y25*%
%MOIN*%
G70*
G04*
G04 #@! TF.SameCoordinates,7D01FC5B-E23C-4C92-B969-1582809840FB*
G04*
G04*
G04 #@! TF.FilePolarity,Negative*
G04*
G01*
G75*
%ADD23C,0.06102*%
%ADD24R,0.06102X0.06102*%
G04:AMPARAMS|DCode=25|XSize=94.49mil|YSize=181.1mil|CornerRadius=47.24mil|HoleSize=0mil|Usage=FLASHONLY|Rotation=180.000|XOffset=0mil|YOffset=0mil|HoleType=Round|Shape=RoundedRectangle|*
%AMROUNDEDRECTD25*
21,1,0.09449,0.08661,0,0,180.0*
21,1,0.00000,0.18110,0,0,180.0*
1,1,0.09449,0.00000,0.04331*
1,1,0.09449,0.00000,0.04331*
1,1,0.09449,0.00000,-0.04331*
1,1,0.09449,0.00000,-0.04331*
%
%ADD25ROUNDEDRECTD25*%
%ADD26C,0.08280*%
%ADD27R,0.06706X0.06706*%
%ADD28C,0.06706*%
%ADD29C,0.05118*%
%ADD30R,0.05118X0.05118*%
%ADD31C,0.05800*%
D23*
X444157Y176459D02*
D03*
X454000D02*
D03*
D24*
X463843D02*
D03*
D25*
X436677Y148900D02*
D03*
X471323D02*
D03*
D26*
X463700Y271500D02*
D03*
Y251500D02*
D03*
Y231500D02*
D03*
D27*
X134942Y133105D02*
D03*
X202075D02*
D03*
X269208D02*
D03*
X336342D02*
D03*
D28*
X152658D02*
D03*
Y158695D02*
D03*
X134942D02*
D03*
X219792Y133105D02*
D03*
Y158695D02*
D03*
X202075D02*
D03*
X286925Y133105D02*
D03*
Y158695D02*
D03*
X269208D02*
D03*
X354058Y133105D02*
D03*
Y158695D02*
D03*
X336342D02*
D03*
D29*
X290200Y230100D02*
D03*
X280200D02*
D03*
X270200D02*
D03*
X260200D02*
D03*
X250200D02*
D03*
X240200D02*
D03*
X230200D02*
D03*
X220200D02*
D03*
Y200100D02*
D03*
X230200D02*
D03*
X240200D02*
D03*
X250200D02*
D03*
X260200D02*
D03*
X270200D02*
D03*
X280200D02*
D03*
D30*
X290200D02*
D03*
D31*
X228300Y250800D02*
D03*
X415000Y181844D02*
D03*
X302400Y269300D02*
D03*
M02*
