M48
;Layer_Color=9474304
;FILE_FORMAT=2:5
INCH,LZ
;TYPE=PLATED
T1F00S00C0.02800
T2F00S00C0.03150
T3F00S00C0.03898
T4F00S00C0.03937
T5F00S00C0.05118
%
T01
X0415Y0181844
X03024Y02693
X02283Y02508
T02
X02202Y02001
X02302
X02402
X02502
X02602
X02702
X02802
X02902
Y02301
X02802
X02702
X02602
X02502
X02402
X02302
X02202
T03
X0134942Y0133105
X0152658
X0202075
X0219792
X0269208
X0286925
X0336342
X0354058
Y0158695
X0336342
X0286925
X0269208
X0219792
X0202075
X0152658
X0134942
T04
X0444157Y0176459
X0454
X0463843
T05
X04637Y02315
Y02515
Y02715
M30
