G04*
G04 #@! TF.GenerationSoftware,Altium Limited,Altium Designer,21.0.8 (223)*
G04*
G04 Layer_Physical_Order=1*
G04 Layer_Color=255*
%FSLAX25Y25*%
%MOIN*%
G70*
G04*
G04 #@! TF.SameCoordinates,B575C2FC-ACDB-4AF1-BD63-2252A0B86CB9*
G04*
G04*
G04 #@! TF.FilePolarity,Positive*
G04*
G01*
G75*
%ADD10C,0.01000*%
%ADD18R,0.05709X0.04134*%
%ADD19R,0.04724X0.04331*%
%ADD20R,0.05118X0.03543*%
%ADD21R,0.03937X0.03543*%
%ADD22R,0.03543X0.05118*%
%ADD23R,0.12402X0.07008*%
%ADD24R,0.03543X0.03937*%
%ADD25R,0.02284X0.04646*%
%ADD26R,0.02362X0.06102*%
%ADD27R,0.06717X0.04545*%
%ADD28R,0.02362X0.05118*%
%ADD29R,0.07874X0.07087*%
%ADD30R,0.33858X0.42126*%
%ADD31R,0.13386X0.03937*%
%ADD58C,0.03000*%
%ADD59C,0.07000*%
%ADD60C,0.01500*%
%ADD61C,0.02000*%
%ADD62R,0.32700X0.06400*%
%ADD63R,0.87800X0.44200*%
%ADD64C,0.08661*%
%ADD65C,0.07874*%
%ADD66O,0.05906X0.11811*%
%ADD67O,0.11811X0.05906*%
%ADD68O,0.08661X0.05906*%
%ADD69O,0.05512X0.10236*%
%ADD70O,0.07874X0.05906*%
%ADD71C,0.09449*%
%ADD72C,0.03000*%
%ADD73C,0.07000*%
%ADD74C,0.04000*%
G36*
X374800Y379000D02*
X374466Y378639D01*
X308400D01*
Y369500D01*
X259600D01*
X258091Y371009D01*
X258298Y371509D01*
X258832D01*
Y373780D01*
Y376052D01*
X257741D01*
Y372066D01*
X257241Y371859D01*
X255400Y373700D01*
X233200D01*
X221858Y385042D01*
X222048Y385505D01*
X264600Y385800D01*
Y399000D01*
X266900Y401300D01*
X374800D01*
X374800Y379000D01*
D02*
G37*
G36*
X236519Y357900D02*
X236399Y357400D01*
X221033D01*
X220881Y357837D01*
X220881D01*
Y365365D01*
X221307Y365627D01*
X236519Y357900D01*
D02*
G37*
G36*
X186023Y383550D02*
Y381368D01*
X203452D01*
Y377432D01*
X186023D01*
Y357837D01*
X189048D01*
X189200Y357400D01*
X189200D01*
Y353100D01*
X178174Y342074D01*
X169628D01*
X154751Y356951D01*
X154338Y357227D01*
X153850Y357325D01*
X150675D01*
X149475Y358525D01*
Y376700D01*
X149378Y377188D01*
X149101Y377601D01*
X147600Y379102D01*
Y380300D01*
X146500D01*
X143000Y383800D01*
X143500Y384300D01*
Y395800D01*
X145589Y397889D01*
X145842Y398058D01*
X146011Y398311D01*
X149397Y401697D01*
X150296D01*
X186023Y383550D01*
D02*
G37*
G36*
X367800Y233100D02*
X336055D01*
X335703Y233455D01*
X335708Y233975D01*
X336158Y234193D01*
X336288Y234094D01*
X337080Y233766D01*
X337930Y233654D01*
X338780Y233766D01*
X339572Y234094D01*
X340252Y234616D01*
X340774Y235296D01*
X341102Y236088D01*
X341214Y236938D01*
Y237332D01*
X337930D01*
Y239300D01*
X335962D01*
Y244635D01*
X335813Y244708D01*
X336335Y298202D01*
X336342Y298256D01*
Y298930D01*
X336400Y304900D01*
Y308200D01*
X331800D01*
Y326000D01*
X367800D01*
Y233100D01*
D02*
G37*
G36*
X373966Y369300D02*
X308900D01*
Y378138D01*
X373966D01*
Y369300D01*
D02*
G37*
%LPC*%
G36*
X263759Y383131D02*
X262668D01*
Y382828D01*
X263759D01*
Y383131D01*
D02*
G37*
G36*
X258732D02*
X257641D01*
Y382828D01*
X258732D01*
Y383131D01*
D02*
G37*
G36*
X252377Y381869D02*
X247153D01*
Y381368D01*
X252377D01*
Y381869D01*
D02*
G37*
G36*
X243216D02*
X237991D01*
Y381368D01*
X243216D01*
Y381869D01*
D02*
G37*
G36*
X263759Y378891D02*
X262668D01*
Y378588D01*
X263759D01*
Y378891D01*
D02*
G37*
G36*
X258732D02*
X257641D01*
Y378588D01*
X258732D01*
Y378891D01*
D02*
G37*
G36*
X274659Y378819D02*
X272768D01*
Y378015D01*
X274659D01*
Y378819D01*
D02*
G37*
G36*
X268831D02*
X266941D01*
Y378015D01*
X268831D01*
Y378819D01*
D02*
G37*
G36*
X252377Y377432D02*
X247153D01*
Y376932D01*
X252377D01*
Y377432D01*
D02*
G37*
G36*
X243216D02*
X237991D01*
Y376932D01*
X243216D01*
Y377432D01*
D02*
G37*
G36*
X263859Y376052D02*
X262769D01*
Y375749D01*
X263859D01*
Y376052D01*
D02*
G37*
G36*
X274659Y374078D02*
X272768D01*
Y373274D01*
X274659D01*
Y374078D01*
D02*
G37*
G36*
X268831D02*
X266941D01*
Y373274D01*
X268831D01*
Y374078D01*
D02*
G37*
G36*
X263859Y371812D02*
X262769D01*
Y371509D01*
X263859D01*
Y371812D01*
D02*
G37*
G36*
X337782Y319354D02*
Y316367D01*
X339098D01*
Y316760D01*
X338986Y317610D01*
X338658Y318402D01*
X338136Y319082D01*
X337782Y319354D01*
D02*
G37*
G36*
X333845Y319354D02*
X333492Y319082D01*
X332970Y318402D01*
X332642Y317610D01*
X332530Y316760D01*
Y316367D01*
X333845D01*
Y319354D01*
D02*
G37*
G36*
Y312430D02*
X332530D01*
Y312036D01*
X332642Y311186D01*
X332970Y310394D01*
X333492Y309714D01*
X333845Y309442D01*
Y312430D01*
D02*
G37*
G36*
X339098D02*
X337782D01*
Y309442D01*
X338136Y309714D01*
X338658Y310394D01*
X338986Y311186D01*
X339098Y312036D01*
Y312430D01*
D02*
G37*
G36*
X344475Y320044D02*
X343625Y319932D01*
X342833Y319604D01*
X342153Y319082D01*
X341631Y318402D01*
X341303Y317610D01*
X341191Y316760D01*
Y312036D01*
X341303Y311186D01*
X341631Y310394D01*
X342153Y309714D01*
X342833Y309192D01*
X343625Y308864D01*
X344475Y308752D01*
X345325Y308864D01*
X346117Y309192D01*
X346797Y309714D01*
X347319Y310394D01*
X347647Y311186D01*
X347759Y312036D01*
Y316760D01*
X347647Y317610D01*
X347319Y318402D01*
X346797Y319082D01*
X346117Y319604D01*
X345325Y319932D01*
X344475Y320044D01*
D02*
G37*
G36*
X350381Y306264D02*
X349531Y306152D01*
X348739Y305824D01*
X348059Y305302D01*
X347537Y304622D01*
X347209Y303830D01*
X347097Y302980D01*
Y298256D01*
X347209Y297406D01*
X347537Y296614D01*
X348059Y295934D01*
X348739Y295412D01*
X349531Y295084D01*
X350381Y294972D01*
X351231Y295084D01*
X352023Y295412D01*
X352703Y295934D01*
X353225Y296614D01*
X353553Y297406D01*
X353665Y298256D01*
Y302980D01*
X353553Y303830D01*
X353225Y304622D01*
X352703Y305302D01*
X352023Y305824D01*
X351231Y306152D01*
X350381Y306264D01*
D02*
G37*
G36*
X341719D02*
X340869Y306152D01*
X340077Y305824D01*
X339397Y305302D01*
X338875Y304622D01*
X338547Y303830D01*
X338435Y302980D01*
Y298256D01*
X338547Y297406D01*
X338875Y296614D01*
X339397Y295934D01*
X340077Y295412D01*
X340869Y295084D01*
X341719Y294972D01*
X342569Y295084D01*
X343361Y295412D01*
X344041Y295934D01*
X344563Y296614D01*
X344891Y297406D01*
X345003Y298256D01*
Y302980D01*
X344891Y303830D01*
X344563Y304622D01*
X344041Y305302D01*
X343361Y305824D01*
X342569Y306152D01*
X341719Y306264D01*
D02*
G37*
G36*
X352891Y267893D02*
X351400Y267696D01*
X350012Y267121D01*
X348819Y266206D01*
X347904Y265014D01*
X347329Y263625D01*
X347133Y262135D01*
X347329Y260644D01*
X347904Y259256D01*
X348819Y258063D01*
X350012Y257148D01*
X351400Y256573D01*
X352891Y256377D01*
X354381Y256573D01*
X355770Y257148D01*
X356962Y258063D01*
X357877Y259256D01*
X358452Y260644D01*
X358648Y262135D01*
X358452Y263625D01*
X357877Y265014D01*
X356962Y266206D01*
X355770Y267121D01*
X354381Y267696D01*
X352891Y267893D01*
D02*
G37*
G36*
X339898Y244256D02*
Y241268D01*
X341214D01*
Y241662D01*
X341102Y242512D01*
X340774Y243304D01*
X340252Y243984D01*
X339898Y244256D01*
D02*
G37*
G36*
X346591Y244946D02*
X345741Y244834D01*
X344949Y244506D01*
X344269Y243984D01*
X343747Y243304D01*
X343419Y242512D01*
X343307Y241662D01*
Y236938D01*
X343419Y236088D01*
X343747Y235296D01*
X344269Y234616D01*
X344949Y234094D01*
X345741Y233766D01*
X346591Y233654D01*
X347441Y233766D01*
X348233Y234094D01*
X348914Y234616D01*
X349435Y235296D01*
X349763Y236088D01*
X349875Y236938D01*
Y241662D01*
X349763Y242512D01*
X349435Y243304D01*
X348914Y243984D01*
X348233Y244506D01*
X347441Y244834D01*
X346591Y244946D01*
D02*
G37*
G36*
X359022Y377639D02*
D01*
Y373923D01*
X359014Y374123D01*
X359005Y374307D01*
X358997Y374482D01*
X358980Y374640D01*
X358963Y374790D01*
X358947Y374923D01*
X358939Y375048D01*
X358922Y375156D01*
X358905Y375248D01*
X358889Y375331D01*
X358872Y375398D01*
X358863Y375456D01*
X358855Y375489D01*
X358847Y375514D01*
Y375523D01*
X358780Y375764D01*
X358697Y375989D01*
X358622Y376181D01*
X358547Y376347D01*
X358505Y376414D01*
X358480Y376481D01*
X358447Y376539D01*
X358422Y376581D01*
X358397Y376614D01*
X358389Y376639D01*
X358372Y376656D01*
Y376664D01*
X358256Y376831D01*
X358122Y376980D01*
X357997Y377105D01*
X357872Y377205D01*
X357764Y377289D01*
X357681Y377339D01*
X357647Y377364D01*
X357622Y377380D01*
X357606Y377389D01*
X357597D01*
X357414Y377472D01*
X357231Y377530D01*
X357048Y377580D01*
X356881Y377605D01*
X356731Y377622D01*
X356673Y377630D01*
X356614Y377639D01*
X356515D01*
X356364Y377630D01*
X356215Y377622D01*
X356073Y377597D01*
X355940Y377572D01*
X355823Y377539D01*
X355707Y377497D01*
X355598Y377455D01*
X355507Y377414D01*
X355415Y377372D01*
X355340Y377330D01*
X355273Y377297D01*
X355223Y377255D01*
X355182Y377230D01*
X355148Y377205D01*
X355132Y377197D01*
X355123Y377189D01*
X355023Y377097D01*
X354932Y377006D01*
X354765Y376797D01*
X354615Y376589D01*
X354499Y376381D01*
X354449Y376281D01*
X354407Y376197D01*
X354374Y376114D01*
X354340Y376047D01*
X354324Y375989D01*
X354307Y375939D01*
X354290Y375914D01*
Y375906D01*
X354240Y375748D01*
X354199Y375573D01*
X354132Y375215D01*
X354082Y374848D01*
X354065Y374673D01*
X354049Y374498D01*
X354041Y374340D01*
X354032Y374190D01*
X354024Y374057D01*
Y373940D01*
X354015Y373848D01*
Y373715D01*
X354024Y373324D01*
X354049Y372957D01*
X354082Y372624D01*
X354132Y372316D01*
X354190Y372032D01*
X354257Y371774D01*
X354324Y371549D01*
X354399Y371341D01*
X354465Y371166D01*
X354532Y371008D01*
X354599Y370883D01*
X354657Y370775D01*
X354707Y370691D01*
X354740Y370633D01*
X354765Y370600D01*
X354773Y370591D01*
X354899Y370450D01*
X355032Y370333D01*
X355173Y370225D01*
X355315Y370133D01*
X355457Y370058D01*
X355607Y369992D01*
X355748Y369942D01*
X355881Y369900D01*
X356015Y369867D01*
X356131Y369842D01*
X356240Y369825D01*
X356331Y369817D01*
X356406Y369808D01*
X356465Y369800D01*
X354015D01*
X359022D01*
Y377639D01*
D02*
G37*
G36*
X337830Y377613D02*
X336456Y377613D01*
X334607Y372266D01*
X334557Y372116D01*
X334507Y371983D01*
X334465Y371849D01*
X334423Y371733D01*
X334390Y371616D01*
X334357Y371516D01*
X334323Y371424D01*
X334298Y371341D01*
X334273Y371274D01*
X334257Y371208D01*
X334240Y371158D01*
X334223Y371108D01*
X334215Y371075D01*
X334207Y371049D01*
X334198Y371041D01*
Y371033D01*
X334173Y371108D01*
X334148Y371191D01*
X334090Y371366D01*
X334032Y371558D01*
X333974Y371741D01*
X333915Y371907D01*
X333890Y371983D01*
X333874Y372041D01*
X333857Y372091D01*
X333840Y372132D01*
X333832Y372157D01*
Y372166D01*
X332008Y377613D01*
X330483D01*
Y369925D01*
X336837D01*
X334598D01*
X336847Y376364D01*
Y369925D01*
X337830Y369925D01*
Y377613D01*
D02*
G37*
G36*
X364944Y377639D02*
X359855D01*
X362529D01*
X362329Y377630D01*
X362137Y377613D01*
X361962Y377589D01*
X361796Y377547D01*
X361637Y377505D01*
X361496Y377455D01*
X361363Y377405D01*
X361246Y377355D01*
X361138Y377297D01*
X361046Y377247D01*
X360963Y377197D01*
X360896Y377155D01*
X360846Y377114D01*
X360813Y377089D01*
X360788Y377072D01*
X360779Y377064D01*
X360663Y376956D01*
X360563Y376831D01*
X360471Y376706D01*
X360388Y376564D01*
X360321Y376431D01*
X360255Y376297D01*
X360205Y376156D01*
X360163Y376031D01*
X360121Y375906D01*
X360096Y375789D01*
X360071Y375681D01*
X360055Y375589D01*
X360046Y375514D01*
X360038Y375464D01*
X360030Y375431D01*
Y375414D01*
X360996Y375314D01*
X361004Y375448D01*
X361013Y375573D01*
X361063Y375789D01*
X361129Y375989D01*
X361163Y376073D01*
X361204Y376148D01*
X361238Y376214D01*
X361279Y376272D01*
X361313Y376322D01*
X361338Y376364D01*
X361371Y376397D01*
X361387Y376422D01*
X361396Y376431D01*
X361404Y376439D01*
X361488Y376514D01*
X361571Y376581D01*
X361662Y376631D01*
X361754Y376681D01*
X361937Y376756D01*
X362112Y376805D01*
X362262Y376831D01*
X362329Y376847D01*
X362387D01*
X362437Y376855D01*
X362620D01*
X362737Y376839D01*
X362945Y376797D01*
X363120Y376731D01*
X363278Y376664D01*
X363395Y376589D01*
X363445Y376556D01*
X363487Y376522D01*
X363520Y376497D01*
X363545Y376481D01*
X363553Y376472D01*
X363562Y376464D01*
X363637Y376389D01*
X363695Y376314D01*
X363753Y376239D01*
X363795Y376156D01*
X363870Y375997D01*
X363920Y375848D01*
X363945Y375723D01*
X363962Y375664D01*
Y375614D01*
X363970Y375581D01*
Y375548D01*
Y375531D01*
Y375523D01*
X363962Y375423D01*
X363953Y375323D01*
X363903Y375123D01*
X363828Y374931D01*
X363745Y374756D01*
X363662Y374606D01*
X363628Y374548D01*
X363587Y374490D01*
X363562Y374448D01*
X363537Y374415D01*
X363528Y374398D01*
X363520Y374390D01*
X363428Y374273D01*
X363320Y374148D01*
X363195Y374015D01*
X363062Y373882D01*
X362787Y373607D01*
X362504Y373349D01*
X362370Y373224D01*
X362237Y373115D01*
X362121Y373015D01*
X362021Y372932D01*
X361937Y372857D01*
X361879Y372807D01*
X361837Y372765D01*
X361821Y372757D01*
X361671Y372632D01*
X361538Y372516D01*
X361404Y372407D01*
X361288Y372299D01*
X361171Y372199D01*
X361071Y372099D01*
X360979Y372016D01*
X360896Y371933D01*
X360821Y371858D01*
X360763Y371791D01*
X360704Y371733D01*
X360663Y371691D01*
X360621Y371649D01*
X360596Y371624D01*
X360588Y371608D01*
X360579Y371599D01*
X360430Y371416D01*
X360305Y371233D01*
X360196Y371058D01*
X360113Y370900D01*
X360046Y370766D01*
X360021Y370708D01*
X359996Y370666D01*
X359980Y370625D01*
X359971Y370600D01*
X359963Y370583D01*
Y370575D01*
X359922Y370458D01*
X359896Y370341D01*
X359872Y370233D01*
X359863Y370133D01*
X359855Y370050D01*
Y369925D01*
X364944D01*
Y377639D01*
D02*
G37*
G36*
X352999D02*
X347910D01*
D01*
X350584D01*
X350384Y377630D01*
X350192Y377613D01*
X350017Y377589D01*
X349851Y377547D01*
X349692Y377505D01*
X349551Y377455D01*
X349417Y377405D01*
X349301Y377355D01*
X349192Y377297D01*
X349101Y377247D01*
X349018Y377197D01*
X348951Y377155D01*
X348901Y377114D01*
X348868Y377089D01*
X348843Y377072D01*
X348834Y377064D01*
X348718Y376956D01*
X348618Y376831D01*
X348526Y376706D01*
X348443Y376564D01*
X348376Y376431D01*
X348309Y376297D01*
X348259Y376156D01*
X348218Y376031D01*
X348176Y375906D01*
X348151Y375789D01*
X348126Y375681D01*
X348110Y375589D01*
X348101Y375514D01*
X348093Y375464D01*
X348084Y375431D01*
Y375414D01*
X349051Y375314D01*
X349059Y375448D01*
X349067Y375573D01*
X349117Y375789D01*
X349184Y375989D01*
X349217Y376073D01*
X349259Y376148D01*
X349292Y376214D01*
X349334Y376272D01*
X349367Y376322D01*
X349392Y376364D01*
X349426Y376397D01*
X349442Y376422D01*
X349451Y376431D01*
X349459Y376439D01*
X349542Y376514D01*
X349626Y376581D01*
X349717Y376631D01*
X349809Y376681D01*
X349992Y376756D01*
X350167Y376805D01*
X350317Y376831D01*
X350384Y376847D01*
X350442D01*
X350492Y376855D01*
X350675D01*
X350792Y376839D01*
X351000Y376797D01*
X351175Y376731D01*
X351333Y376664D01*
X351450Y376589D01*
X351500Y376556D01*
X351541Y376522D01*
X351575Y376497D01*
X351600Y376481D01*
X351608Y376472D01*
X351616Y376464D01*
X351691Y376389D01*
X351750Y376314D01*
X351808Y376239D01*
X351850Y376156D01*
X351925Y375997D01*
X351975Y375848D01*
X352000Y375723D01*
X352016Y375664D01*
Y375614D01*
X352025Y375581D01*
Y375548D01*
Y375531D01*
Y375523D01*
X352016Y375423D01*
X352008Y375323D01*
X351958Y375123D01*
X351883Y374931D01*
X351800Y374756D01*
X351716Y374606D01*
X351683Y374548D01*
X351641Y374490D01*
X351616Y374448D01*
X351591Y374415D01*
X351583Y374398D01*
X351575Y374390D01*
X351483Y374273D01*
X351375Y374148D01*
X351250Y374015D01*
X351117Y373882D01*
X350842Y373607D01*
X350558Y373349D01*
X350425Y373224D01*
X350292Y373115D01*
X350175Y373015D01*
X350075Y372932D01*
X349992Y372857D01*
X349934Y372807D01*
X349892Y372765D01*
X349875Y372757D01*
X349726Y372632D01*
X349592Y372516D01*
X349459Y372407D01*
X349342Y372299D01*
X349226Y372199D01*
X349126Y372099D01*
X349034Y372016D01*
X348951Y371933D01*
X348876Y371858D01*
X348818Y371791D01*
X348759Y371733D01*
X348718Y371691D01*
X348676Y371649D01*
X348651Y371624D01*
X348643Y371608D01*
X348634Y371599D01*
X348484Y371416D01*
X348359Y371233D01*
X348251Y371058D01*
X348168Y370900D01*
X348101Y370766D01*
X348076Y370708D01*
X348051Y370666D01*
X348035Y370625D01*
X348026Y370600D01*
X348018Y370583D01*
Y370575D01*
X347976Y370458D01*
X347951Y370341D01*
X347926Y370233D01*
X347918Y370133D01*
X347910Y370050D01*
Y369925D01*
X352999D01*
Y377639D01*
D02*
G37*
G36*
X344228Y377613D02*
X339421D01*
Y369925D01*
X344228D01*
Y377613D01*
D02*
G37*
G36*
X326618Y377613D02*
Y369925D01*
D01*
D01*
Y377613D01*
D02*
G37*
G36*
D02*
X319571D01*
D01*
X322536Y373174D01*
Y369925D01*
X323553D01*
Y373174D01*
X326618Y377613D01*
D02*
G37*
G36*
X318971D02*
X313165D01*
Y369925D01*
X318971D01*
Y372274D01*
X318954Y372391D01*
X318913Y372616D01*
X318846Y372815D01*
X318780Y372982D01*
X318746Y373057D01*
X318713Y373124D01*
X318680Y373182D01*
X318646Y373232D01*
X318621Y373265D01*
X318605Y373290D01*
X318596Y373307D01*
X318588Y373315D01*
X318438Y373490D01*
X318263Y373632D01*
X318088Y373757D01*
X317913Y373848D01*
X317763Y373923D01*
X317697Y373948D01*
X317638Y373973D01*
X317588Y373990D01*
X317555Y374007D01*
X317530Y374015D01*
X317522D01*
X317713Y374123D01*
X317872Y374240D01*
X318013Y374357D01*
X318122Y374465D01*
X318213Y374565D01*
X318271Y374640D01*
X318296Y374673D01*
X318313Y374698D01*
X318321Y374706D01*
Y374715D01*
X318413Y374881D01*
X318480Y375040D01*
X318530Y375198D01*
X318563Y375339D01*
X318580Y375464D01*
X318596Y375556D01*
Y375589D01*
Y375614D01*
Y375631D01*
Y375639D01*
X318580Y375839D01*
X318546Y376023D01*
X318496Y376197D01*
X318446Y376347D01*
X318388Y376472D01*
X318363Y376531D01*
X318338Y376572D01*
X318313Y376606D01*
X318305Y376631D01*
X318288Y376647D01*
Y376656D01*
X318163Y376822D01*
X318030Y376972D01*
X317897Y377097D01*
X317763Y377197D01*
X317638Y377272D01*
X317547Y377330D01*
X317505Y377347D01*
X317480Y377364D01*
X317463Y377372D01*
X317455D01*
X317238Y377455D01*
X317014Y377514D01*
X316772Y377555D01*
X316556Y377580D01*
X316447Y377597D01*
X316355Y377605D01*
X316264D01*
X316189Y377613D01*
X318971D01*
D02*
G37*
G36*
X370967Y377639D02*
X365961D01*
X368460D01*
X368310Y377630D01*
X368160Y377622D01*
X368018Y377597D01*
X367885Y377572D01*
X367768Y377539D01*
X367652Y377497D01*
X367543Y377455D01*
X367452Y377414D01*
X367360Y377372D01*
X367285Y377330D01*
X367218Y377297D01*
X367169Y377255D01*
X367127Y377230D01*
X367094Y377205D01*
X367077Y377197D01*
X367069Y377189D01*
X366969Y377097D01*
X366877Y377006D01*
X366710Y376797D01*
X366561Y376589D01*
X366444Y376381D01*
X366394Y376281D01*
X366352Y376197D01*
X366319Y376114D01*
X366286Y376047D01*
X366269Y375989D01*
X366252Y375939D01*
X366236Y375914D01*
Y375906D01*
X366186Y375748D01*
X366144Y375573D01*
X366077Y375215D01*
X366027Y374848D01*
X366011Y374673D01*
X365994Y374498D01*
X365986Y374340D01*
X365977Y374190D01*
X365969Y374057D01*
Y373940D01*
X365961Y373848D01*
Y373715D01*
X365969Y373324D01*
X365994Y372957D01*
X366027Y372624D01*
X366077Y372316D01*
X366136Y372032D01*
X366202Y371774D01*
X366269Y371549D01*
X366344Y371341D01*
X366410Y371166D01*
X366477Y371008D01*
X366544Y370883D01*
X366602Y370775D01*
X366652Y370691D01*
X366685Y370633D01*
X366710Y370600D01*
X366719Y370591D01*
X366844Y370450D01*
X366977Y370333D01*
X367119Y370225D01*
X367260Y370133D01*
X367402Y370058D01*
X367552Y369992D01*
X367693Y369942D01*
X367827Y369900D01*
X367960Y369867D01*
X368076Y369842D01*
X368185Y369825D01*
X368276Y369817D01*
X368351Y369808D01*
X368410Y369800D01*
X368460D01*
X368618Y369808D01*
X368760Y369817D01*
X368901Y369842D01*
X369035Y369867D01*
X369159Y369908D01*
X369268Y369942D01*
X369376Y369983D01*
X369468Y370025D01*
X369559Y370067D01*
X369634Y370108D01*
X369701Y370150D01*
X369751Y370183D01*
X369793Y370208D01*
X369826Y370233D01*
X369843Y370241D01*
X369851Y370250D01*
X369951Y370341D01*
X370051Y370433D01*
X370217Y370641D01*
X370359Y370850D01*
X370476Y371058D01*
X370526Y371158D01*
X370567Y371249D01*
X370601Y371324D01*
X370634Y371399D01*
X370659Y371449D01*
X370667Y371499D01*
X370684Y371524D01*
Y371533D01*
X370734Y371691D01*
X370775Y371866D01*
X370850Y372224D01*
X370900Y372591D01*
X370917Y372765D01*
X370934Y372940D01*
X370942Y373099D01*
X370950Y373249D01*
X370959Y373374D01*
X370967Y373490D01*
Y369800D01*
D01*
Y377639D01*
D02*
G37*
%LPD*%
G36*
X356631Y376847D02*
X356739Y376831D01*
X356856Y376797D01*
X356956Y376756D01*
X357148Y376656D01*
X357306Y376547D01*
X357372Y376489D01*
X357431Y376431D01*
X357481Y376372D01*
X357531Y376331D01*
X357564Y376289D01*
X357589Y376256D01*
X357597Y376239D01*
X357606Y376231D01*
X357689Y376097D01*
X357756Y375948D01*
X357814Y375764D01*
X357864Y375573D01*
X357906Y375373D01*
X357947Y375165D01*
X357997Y374740D01*
X358022Y374540D01*
X358031Y374348D01*
X358039Y374173D01*
X358047Y374023D01*
X358055Y373890D01*
Y373840D01*
Y373798D01*
Y373765D01*
Y373740D01*
Y373723D01*
Y373715D01*
X358047Y373374D01*
X358039Y373065D01*
X358014Y372782D01*
X357989Y372524D01*
X357956Y372291D01*
X357914Y372091D01*
X357872Y371907D01*
X357831Y371749D01*
X357789Y371616D01*
X357747Y371499D01*
X357714Y371399D01*
X357672Y371324D01*
X357647Y371266D01*
X357622Y371233D01*
X357614Y371208D01*
X357606Y371199D01*
X357522Y371091D01*
X357431Y370991D01*
X357339Y370908D01*
X357247Y370841D01*
X357156Y370775D01*
X357064Y370725D01*
X356981Y370683D01*
X356898Y370650D01*
X356748Y370608D01*
X356681Y370591D01*
X356623Y370583D01*
X356581D01*
X356540Y370575D01*
X356515D01*
X356398Y370583D01*
X356281Y370600D01*
X356173Y370633D01*
X356073Y370675D01*
X355881Y370766D01*
X355723Y370883D01*
X355598Y371000D01*
X355548Y371049D01*
X355507Y371091D01*
X355465Y371133D01*
X355440Y371166D01*
X355432Y371183D01*
X355423Y371191D01*
X355348Y371324D01*
X355282Y371483D01*
X355215Y371658D01*
X355165Y371849D01*
X355123Y372057D01*
X355090Y372266D01*
X355040Y372691D01*
X355015Y372890D01*
X355007Y373082D01*
X354998Y373257D01*
X354990Y373407D01*
X354982Y373532D01*
Y373590D01*
Y373632D01*
Y373665D01*
Y373690D01*
Y373707D01*
Y373715D01*
X354990Y374057D01*
X355007Y374365D01*
X355023Y374656D01*
X355057Y374915D01*
X355090Y375148D01*
X355132Y375364D01*
X355182Y375548D01*
X355223Y375714D01*
X355265Y375864D01*
X355315Y375981D01*
X355357Y376081D01*
X355390Y376164D01*
X355423Y376231D01*
X355448Y376272D01*
X355457Y376297D01*
X355465Y376306D01*
X355540Y376406D01*
X355623Y376489D01*
X355707Y376564D01*
X355790Y376622D01*
X355881Y376681D01*
X355965Y376722D01*
X356131Y376789D01*
X356281Y376831D01*
X356348Y376839D01*
X356398Y376847D01*
X356448Y376855D01*
X356506D01*
X356631Y376847D01*
D02*
G37*
G36*
X359022Y369800D02*
X356515D01*
X356673Y369808D01*
X356814Y369817D01*
X356956Y369842D01*
X357089Y369867D01*
X357214Y369908D01*
X357323Y369942D01*
X357431Y369983D01*
X357522Y370025D01*
X357614Y370067D01*
X357689Y370108D01*
X357756Y370150D01*
X357806Y370183D01*
X357847Y370208D01*
X357881Y370233D01*
X357897Y370241D01*
X357906Y370250D01*
X358005Y370341D01*
X358105Y370433D01*
X358272Y370641D01*
X358414Y370850D01*
X358530Y371058D01*
X358580Y371158D01*
X358622Y371249D01*
X358655Y371324D01*
X358689Y371399D01*
X358714Y371449D01*
X358722Y371499D01*
X358739Y371524D01*
Y371533D01*
X358789Y371691D01*
X358830Y371866D01*
X358905Y372224D01*
X358955Y372591D01*
X358972Y372765D01*
X358988Y372940D01*
X358997Y373099D01*
X359005Y373249D01*
X359014Y373374D01*
X359022Y373490D01*
Y369800D01*
D02*
G37*
G36*
X333682Y369925D02*
X331466D01*
Y376472D01*
X333682Y369925D01*
D02*
G37*
G36*
X364944Y370833D02*
X361154D01*
X361288Y371016D01*
X361354Y371099D01*
X361421Y371175D01*
X361479Y371241D01*
X361521Y371291D01*
X361554Y371324D01*
X361562Y371333D01*
X361612Y371383D01*
X361679Y371449D01*
X361754Y371516D01*
X361837Y371591D01*
X362012Y371758D01*
X362195Y371916D01*
X362370Y372066D01*
X362445Y372132D01*
X362520Y372191D01*
X362570Y372241D01*
X362620Y372274D01*
X362645Y372299D01*
X362654Y372307D01*
X362837Y372466D01*
X363012Y372616D01*
X363170Y372749D01*
X363312Y372882D01*
X363445Y372999D01*
X363562Y373115D01*
X363670Y373215D01*
X363770Y373307D01*
X363853Y373382D01*
X363920Y373457D01*
X363978Y373515D01*
X364028Y373565D01*
X364061Y373607D01*
X364095Y373632D01*
X364103Y373649D01*
X364111Y373657D01*
X364270Y373840D01*
X364395Y374007D01*
X364503Y374165D01*
X364595Y374307D01*
X364661Y374423D01*
X364711Y374515D01*
X364728Y374548D01*
X364736Y374573D01*
X364744Y374581D01*
Y374590D01*
X364811Y374756D01*
X364853Y374923D01*
X364886Y375073D01*
X364911Y375215D01*
X364928Y375331D01*
X364936Y375423D01*
Y375456D01*
Y375481D01*
Y375489D01*
Y375498D01*
X364928Y375664D01*
X364911Y375823D01*
X364878Y375973D01*
X364836Y376122D01*
X364786Y376256D01*
X364728Y376381D01*
X364669Y376497D01*
X364611Y376597D01*
X364553Y376697D01*
X364495Y376781D01*
X364436Y376855D01*
X364386Y376914D01*
X364345Y376956D01*
X364311Y376997D01*
X364295Y377014D01*
X364286Y377022D01*
X364161Y377130D01*
X364028Y377222D01*
X363886Y377305D01*
X363737Y377380D01*
X363595Y377439D01*
X363445Y377489D01*
X363303Y377530D01*
X363162Y377564D01*
X363037Y377589D01*
X362912Y377605D01*
X362804Y377622D01*
X362712Y377630D01*
X362637Y377639D01*
X364944D01*
Y370833D01*
D02*
G37*
G36*
X352999D02*
X349209D01*
X349342Y371016D01*
X349409Y371099D01*
X349476Y371175D01*
X349534Y371241D01*
X349576Y371291D01*
X349609Y371324D01*
X349617Y371333D01*
X349667Y371383D01*
X349734Y371449D01*
X349809Y371516D01*
X349892Y371591D01*
X350067Y371758D01*
X350250Y371916D01*
X350425Y372066D01*
X350500Y372132D01*
X350575Y372191D01*
X350625Y372241D01*
X350675Y372274D01*
X350700Y372299D01*
X350709Y372307D01*
X350892Y372466D01*
X351067Y372616D01*
X351225Y372749D01*
X351366Y372882D01*
X351500Y372999D01*
X351616Y373115D01*
X351725Y373215D01*
X351825Y373307D01*
X351908Y373382D01*
X351975Y373457D01*
X352033Y373515D01*
X352083Y373565D01*
X352116Y373607D01*
X352150Y373632D01*
X352158Y373649D01*
X352166Y373657D01*
X352325Y373840D01*
X352449Y374007D01*
X352558Y374165D01*
X352649Y374307D01*
X352716Y374423D01*
X352766Y374515D01*
X352783Y374548D01*
X352791Y374573D01*
X352799Y374581D01*
Y374590D01*
X352866Y374756D01*
X352908Y374923D01*
X352941Y375073D01*
X352966Y375215D01*
X352983Y375331D01*
X352991Y375423D01*
Y375456D01*
Y375481D01*
Y375489D01*
Y375498D01*
X352983Y375664D01*
X352966Y375823D01*
X352933Y375973D01*
X352891Y376122D01*
X352841Y376256D01*
X352783Y376381D01*
X352724Y376497D01*
X352666Y376597D01*
X352608Y376697D01*
X352549Y376781D01*
X352491Y376855D01*
X352441Y376914D01*
X352399Y376956D01*
X352366Y376997D01*
X352349Y377014D01*
X352341Y377022D01*
X352216Y377130D01*
X352083Y377222D01*
X351941Y377305D01*
X351791Y377380D01*
X351650Y377439D01*
X351500Y377489D01*
X351358Y377530D01*
X351217Y377564D01*
X351092Y377589D01*
X350967Y377605D01*
X350858Y377622D01*
X350767Y377630D01*
X350692Y377639D01*
X352999D01*
Y370833D01*
D02*
G37*
G36*
X344228D02*
X340438D01*
Y377613D01*
X344228D01*
Y370833D01*
D02*
G37*
G36*
X323944Y375348D02*
X323769Y375073D01*
X323603Y374815D01*
X323461Y374590D01*
X323394Y374482D01*
X323336Y374390D01*
X323286Y374307D01*
X323236Y374223D01*
X323203Y374157D01*
X323169Y374107D01*
X323136Y374057D01*
X323119Y374023D01*
X323111Y374007D01*
X323103Y373998D01*
X322970Y374240D01*
X322828Y374473D01*
X322695Y374690D01*
X322578Y374881D01*
X322520Y374973D01*
X322470Y375048D01*
X322428Y375123D01*
X322395Y375181D01*
X322361Y375223D01*
X322337Y375265D01*
X322328Y375281D01*
X322320Y375290D01*
X320804Y377613D01*
X325435D01*
X323944Y375348D01*
D02*
G37*
G36*
X316006Y376697D02*
X316131D01*
X316247Y376689D01*
X316355Y376681D01*
X316447Y376672D01*
X316539Y376664D01*
X316614Y376656D01*
X316672Y376639D01*
X316730Y376631D01*
X316780Y376622D01*
X316814Y376614D01*
X316847Y376606D01*
X316864D01*
X316880Y376597D01*
X317005Y376547D01*
X317105Y376489D01*
X317197Y376422D01*
X317272Y376356D01*
X317330Y376297D01*
X317372Y376247D01*
X317397Y376214D01*
X317405Y376197D01*
X317472Y376089D01*
X317513Y375973D01*
X317547Y375856D01*
X317572Y375748D01*
X317588Y375656D01*
X317597Y375589D01*
Y375539D01*
Y375531D01*
Y375523D01*
X317588Y375373D01*
X317563Y375248D01*
X317530Y375131D01*
X317497Y375031D01*
X317463Y374956D01*
X317430Y374898D01*
X317405Y374865D01*
X317397Y374848D01*
X317314Y374756D01*
X317222Y374673D01*
X317122Y374606D01*
X317030Y374556D01*
X316947Y374515D01*
X316880Y374490D01*
X316830Y374473D01*
X316822Y374465D01*
X316814D01*
X316755Y374448D01*
X316689Y374440D01*
X316539Y374415D01*
X316372Y374398D01*
X316214Y374390D01*
X316072D01*
X316006Y374381D01*
X314181D01*
Y376706D01*
X315864D01*
X316006Y376697D01*
D02*
G37*
G36*
X316214Y373465D02*
X316439Y373457D01*
X316539Y373440D01*
X316630Y373432D01*
X316714Y373424D01*
X316797Y373407D01*
X316864Y373399D01*
X316922Y373382D01*
X316964Y373374D01*
X317005Y373365D01*
X317039Y373357D01*
X317064Y373349D01*
X317072Y373340D01*
X317080D01*
X317222Y373282D01*
X317338Y373215D01*
X317447Y373149D01*
X317538Y373074D01*
X317605Y373007D01*
X317655Y372949D01*
X317688Y372915D01*
X317697Y372899D01*
X317772Y372774D01*
X317830Y372649D01*
X317863Y372524D01*
X317897Y372407D01*
X317913Y372299D01*
X317922Y372224D01*
Y372191D01*
Y372166D01*
Y372157D01*
Y372149D01*
X317913Y372016D01*
X317897Y371891D01*
X317872Y371782D01*
X317847Y371691D01*
X317813Y371608D01*
X317788Y371549D01*
X317772Y371516D01*
X317763Y371499D01*
X317705Y371399D01*
X317638Y371316D01*
X317572Y371241D01*
X317513Y371183D01*
X317455Y371133D01*
X317413Y371099D01*
X317380Y371083D01*
X317372Y371075D01*
X317280Y371024D01*
X317180Y370983D01*
X317089Y370941D01*
X316997Y370916D01*
X316914Y370891D01*
X316847Y370875D01*
X316805Y370866D01*
X316789D01*
X316705Y370858D01*
X316597Y370850D01*
X316480Y370841D01*
X316372D01*
X316264Y370833D01*
X314181D01*
Y373474D01*
X315956D01*
X316214Y373465D01*
D02*
G37*
G36*
X318971Y369925D02*
X316089D01*
X316355Y369933D01*
X316597Y369942D01*
X316805Y369967D01*
X316905Y369975D01*
X316989Y369992D01*
X317064Y370000D01*
X317130Y370008D01*
X317189Y370025D01*
X317238Y370033D01*
X317280Y370042D01*
X317305D01*
X317322Y370050D01*
X317330D01*
X317513Y370100D01*
X317680Y370158D01*
X317822Y370225D01*
X317938Y370283D01*
X318038Y370341D01*
X318113Y370383D01*
X318155Y370416D01*
X318172Y370425D01*
X318296Y370533D01*
X318405Y370650D01*
X318505Y370766D01*
X318580Y370883D01*
X318646Y370983D01*
X318696Y371066D01*
X318713Y371099D01*
X318730Y371125D01*
X318738Y371133D01*
Y371141D01*
X318813Y371316D01*
X318871Y371499D01*
X318913Y371666D01*
X318946Y371824D01*
X318963Y371957D01*
Y372007D01*
X318971Y372057D01*
Y369925D01*
D02*
G37*
G36*
X370967Y373923D02*
X370959Y374123D01*
X370950Y374307D01*
X370942Y374482D01*
X370925Y374640D01*
X370909Y374790D01*
X370892Y374923D01*
X370884Y375048D01*
X370867Y375156D01*
X370850Y375248D01*
X370834Y375331D01*
X370817Y375398D01*
X370809Y375456D01*
X370800Y375489D01*
X370792Y375514D01*
Y375523D01*
X370725Y375764D01*
X370642Y375989D01*
X370567Y376181D01*
X370492Y376347D01*
X370451Y376414D01*
X370426Y376481D01*
X370392Y376539D01*
X370367Y376581D01*
X370342Y376614D01*
X370334Y376639D01*
X370317Y376656D01*
Y376664D01*
X370201Y376831D01*
X370067Y376980D01*
X369942Y377105D01*
X369817Y377205D01*
X369709Y377289D01*
X369626Y377339D01*
X369593Y377364D01*
X369568Y377380D01*
X369551Y377389D01*
X369543D01*
X369359Y377472D01*
X369176Y377530D01*
X368993Y377580D01*
X368826Y377605D01*
X368676Y377622D01*
X368618Y377630D01*
X368560Y377639D01*
X370967D01*
Y373923D01*
D02*
G37*
G36*
X368576Y376847D02*
X368685Y376831D01*
X368801Y376797D01*
X368901Y376756D01*
X369093Y376656D01*
X369251Y376547D01*
X369318Y376489D01*
X369376Y376431D01*
X369426Y376372D01*
X369476Y376331D01*
X369509Y376289D01*
X369534Y376256D01*
X369543Y376239D01*
X369551Y376231D01*
X369634Y376097D01*
X369701Y375948D01*
X369759Y375764D01*
X369809Y375573D01*
X369851Y375373D01*
X369893Y375165D01*
X369942Y374740D01*
X369967Y374540D01*
X369976Y374348D01*
X369984Y374173D01*
X369992Y374023D01*
X370001Y373890D01*
Y373840D01*
Y373798D01*
Y373765D01*
Y373740D01*
Y373723D01*
Y373715D01*
X369992Y373374D01*
X369984Y373065D01*
X369959Y372782D01*
X369934Y372524D01*
X369901Y372291D01*
X369859Y372091D01*
X369817Y371907D01*
X369776Y371749D01*
X369734Y371616D01*
X369692Y371499D01*
X369659Y371399D01*
X369618Y371324D01*
X369593Y371266D01*
X369568Y371233D01*
X369559Y371208D01*
X369551Y371199D01*
X369468Y371091D01*
X369376Y370991D01*
X369284Y370908D01*
X369193Y370841D01*
X369101Y370775D01*
X369009Y370725D01*
X368926Y370683D01*
X368843Y370650D01*
X368693Y370608D01*
X368626Y370591D01*
X368568Y370583D01*
X368526D01*
X368485Y370575D01*
X368460D01*
X368343Y370583D01*
X368227Y370600D01*
X368118Y370633D01*
X368018Y370675D01*
X367827Y370766D01*
X367668Y370883D01*
X367543Y371000D01*
X367493Y371049D01*
X367452Y371091D01*
X367410Y371133D01*
X367385Y371166D01*
X367377Y371183D01*
X367369Y371191D01*
X367294Y371324D01*
X367227Y371483D01*
X367160Y371658D01*
X367110Y371849D01*
X367069Y372057D01*
X367035Y372266D01*
X366985Y372691D01*
X366960Y372890D01*
X366952Y373082D01*
X366944Y373257D01*
X366935Y373407D01*
X366927Y373532D01*
Y373590D01*
Y373632D01*
Y373665D01*
Y373690D01*
Y373707D01*
Y373715D01*
X366935Y374057D01*
X366952Y374365D01*
X366969Y374656D01*
X367002Y374915D01*
X367035Y375148D01*
X367077Y375364D01*
X367127Y375548D01*
X367169Y375714D01*
X367210Y375864D01*
X367260Y375981D01*
X367302Y376081D01*
X367335Y376164D01*
X367369Y376231D01*
X367393Y376272D01*
X367402Y376297D01*
X367410Y376306D01*
X367485Y376406D01*
X367568Y376489D01*
X367652Y376564D01*
X367735Y376622D01*
X367827Y376681D01*
X367910Y376722D01*
X368076Y376789D01*
X368227Y376831D01*
X368293Y376839D01*
X368343Y376847D01*
X368393Y376855D01*
X368451D01*
X368576Y376847D01*
D02*
G37*
D10*
X219000Y325600D02*
X235840Y342440D01*
X300200D01*
X202337Y272683D02*
X202720Y272300D01*
X201309Y275423D02*
X202337Y274395D01*
Y272683D02*
Y274395D01*
X199974Y275423D02*
X201309D01*
X201931Y276923D02*
X203805Y275048D01*
X200595Y276923D02*
X201931D01*
X198177Y277220D02*
Y284323D01*
X209083Y274853D02*
X221447D01*
X202900Y281035D02*
X209083Y274853D01*
X202900Y281035D02*
Y304713D01*
X198177Y277220D02*
X199974Y275423D01*
X205352Y275048D02*
X205700Y274700D01*
X199677Y277841D02*
X200595Y276923D01*
X203805Y275048D02*
X205352D01*
X93900Y288600D02*
X196021D01*
X199677Y284944D01*
Y277841D02*
Y284944D01*
X195400Y287100D02*
X198177Y284323D01*
X85400Y297100D02*
X93900Y288600D01*
X237932Y244411D02*
X241832Y248312D01*
X224180Y255562D02*
X231508Y248233D01*
Y248215D02*
X235312Y244411D01*
X237932D01*
X231508Y248215D02*
Y248233D01*
X223375Y256459D02*
X224180Y255654D01*
Y255562D02*
Y255654D01*
X223375Y256459D02*
Y257000D01*
X48519Y344919D02*
X49200Y345600D01*
Y347470D01*
X48036Y344919D02*
X48519D01*
X47450Y344333D02*
X48036Y344919D01*
X47450Y342313D02*
Y344333D01*
X45985Y340849D02*
X45985D01*
X47450Y342313D01*
X26883Y336650D02*
X41787D01*
X40500Y297100D02*
X85400D01*
X41787Y336650D02*
X45985Y340849D01*
X24347Y313253D02*
Y334114D01*
X26883Y336650D01*
X24347Y313253D02*
X40500Y297100D01*
X93279Y287100D02*
X195400D01*
X84779Y295600D02*
X93279Y287100D01*
X230008Y247593D02*
Y247612D01*
Y247593D02*
X234251Y243351D01*
X220900Y253800D02*
X223820D01*
X230008Y247612D01*
X234251Y235894D02*
X241832Y228312D01*
X234251Y235894D02*
Y243351D01*
X218900Y255300D02*
X219400D01*
X220900Y253800D01*
X44200Y345600D02*
X44881Y344919D01*
X44200Y345600D02*
Y347470D01*
X45364Y344919D02*
X45950Y344333D01*
Y342935D02*
Y344333D01*
X44881Y344919D02*
X45364D01*
X39879Y295600D02*
X84779D01*
X24364Y338200D02*
X41215D01*
X45950Y342935D01*
X22847Y336683D02*
X24364Y338200D01*
X22847Y312631D02*
X39879Y295600D01*
X22847Y312631D02*
Y336683D01*
X202900Y304713D02*
X205894Y307706D01*
X51886Y394800D02*
X53286Y396200D01*
X44800Y394800D02*
X51886D01*
X53286Y396200D02*
X59900D01*
X64000Y392100D01*
Y380600D02*
Y392100D01*
Y380600D02*
X65900Y378700D01*
X99900Y357100D02*
Y364021D01*
X85221Y378700D02*
X99900Y364021D01*
X65900Y378700D02*
X85221D01*
X104153Y352847D02*
X123553D01*
X99900Y357100D02*
X104153Y352847D01*
X123553D02*
X128909Y347492D01*
X103721Y351100D02*
X112622D01*
X116922Y346800D01*
X98400Y356421D02*
X103721Y351100D01*
X116922Y346800D02*
X118300D01*
X137609Y347492D02*
X138300Y346800D01*
X128909Y347492D02*
X137609D01*
X96759Y355941D02*
Y362338D01*
X105900Y346800D02*
X108300D01*
X98400Y356421D02*
Y363400D01*
X96759Y355941D02*
X105900Y346800D01*
X85700Y368730D02*
X90367D01*
X96759Y362338D01*
X84600Y377200D02*
X98400Y363400D01*
X152500Y343700D02*
Y347200D01*
X147300Y352400D02*
X152500Y347200D01*
X130900Y352400D02*
X147300D01*
X147700Y347200D02*
X148900D01*
X138322Y342753D02*
X145847D01*
X159050Y329550D01*
X144000Y350900D02*
X147700Y347200D01*
X132900Y329300D02*
X136200Y332600D01*
X148917Y332383D02*
X149300Y332000D01*
X147932Y332383D02*
X148917D01*
X147714Y332600D02*
X147932Y332383D01*
X136200Y332600D02*
X147714D01*
X159050Y322025D02*
Y329550D01*
X130279Y350900D02*
X144000D01*
X118300Y356800D02*
X124379D01*
X130279Y350900D01*
X125200Y358100D02*
X130900Y352400D01*
X125200Y358100D02*
Y359900D01*
X173678Y304218D02*
X174761Y303135D01*
X166561Y304218D02*
X173678D01*
X118249Y336800D02*
X118300D01*
X115462Y339587D02*
X118249Y336800D01*
X115462Y339587D02*
Y339638D01*
X113800Y341300D02*
X115462Y339638D01*
X94100Y331457D02*
X98921Y336279D01*
X107779D02*
X108300Y336800D01*
X98921Y336279D02*
X107779D01*
X209300Y283500D02*
X233400D01*
X237849Y287949D01*
X240894D02*
X241832Y288888D01*
X237849Y287949D02*
X240894D01*
X206300Y286500D02*
Y300900D01*
X209500Y304100D01*
X206300Y286500D02*
X209300Y283500D01*
X200272Y348550D02*
X200400D01*
X200203D02*
X200272D01*
X198932Y349822D02*
X200203Y348550D01*
X198932Y349822D02*
Y350019D01*
X197250Y351700D02*
X198932Y350019D01*
X189600Y351700D02*
X197250D01*
X188100Y350200D02*
X189600Y351700D01*
X188100Y348000D02*
Y350200D01*
X193645Y343200D02*
X194000Y342845D01*
X186300Y343200D02*
X193645D01*
X199000Y347279D02*
X200272Y348550D01*
X199000Y342845D02*
Y347279D01*
X194000Y342845D02*
Y348550D01*
X227412Y268888D02*
X241832D01*
X221447Y274853D02*
X227412Y268888D01*
X159050Y322025D02*
X162775Y318300D01*
X185000D02*
X189822Y313478D01*
X162775Y318300D02*
X185000D01*
X189822Y313478D02*
X197528D01*
X101200Y342800D02*
X138275D01*
X138322Y342753D01*
X200303Y316350D02*
X200400D01*
X198932Y314978D02*
X200303Y316350D01*
X198932Y314881D02*
Y314978D01*
X197528Y313478D02*
X198932Y314881D01*
X200400Y316350D02*
Y319491D01*
X199814Y320077D02*
X200400Y319491D01*
X199642Y320077D02*
X199814D01*
X199000Y320719D02*
X199642Y320077D01*
X199000Y320719D02*
Y321900D01*
X209000D02*
Y324914D01*
X209586Y325500D01*
X218900D01*
X219000Y325600D01*
Y321900D02*
Y325600D01*
X300200Y342440D02*
X306219D01*
X307400Y341259D01*
Y348250D02*
X307500Y348350D01*
X307400Y341259D02*
Y348250D01*
X118300Y366800D02*
X118351D01*
X121138Y364013D01*
Y363962D02*
Y364013D01*
Y363962D02*
X125200Y359900D01*
X132900Y313900D02*
Y329300D01*
X126100Y307100D02*
X132900Y313900D01*
X120300Y307100D02*
X126100D01*
X81100Y302800D02*
X125000D01*
X79959Y303941D02*
X81100Y302800D01*
X125000D02*
X138900Y316700D01*
X88514Y304886D02*
Y307219D01*
Y304886D02*
X89100Y304300D01*
X117655D02*
X118241Y304886D01*
X89100Y304300D02*
X117655D01*
X118241Y304886D02*
Y305828D01*
X138300Y326800D02*
X138900Y326200D01*
Y316700D02*
Y326200D01*
X128300Y325441D02*
Y326800D01*
X126034Y323175D02*
X128300Y325441D01*
X124675Y323175D02*
X126034D01*
X121500Y320000D02*
X124675Y323175D01*
X79959Y303941D02*
Y307900D01*
X119513Y307100D02*
X120300D01*
X118241Y305828D02*
X119513Y307100D01*
X87833Y307900D02*
X88514Y307219D01*
X83896Y307900D02*
X87833D01*
X77227Y312100D02*
X90685D01*
X76642Y308520D02*
Y311514D01*
X77227Y312100D01*
X90685D02*
X95285Y316700D01*
X90064Y313600D02*
X94664Y318200D01*
X72085Y307900D02*
Y313014D01*
X72671Y313600D01*
X90064D01*
X68148Y313348D02*
X69900Y315100D01*
X89443D01*
X94043Y319700D01*
X66400Y316600D02*
X88821D01*
X64211Y314411D02*
X66400Y316600D01*
X88821D02*
X94100Y321879D01*
X60274Y314053D02*
X64321Y318100D01*
X88200D01*
X92600Y322500D01*
X56337Y312237D02*
X63800Y319700D01*
X71200D01*
X74675Y323175D01*
X76034D01*
X105800Y320000D02*
X121500D01*
X95285Y316700D02*
X102500D01*
X105800Y320000D01*
X76022Y307900D02*
X76642Y308520D01*
X113000Y321500D02*
X118300Y326800D01*
X105121Y321500D02*
X113000D01*
X101821Y318200D02*
X105121Y321500D01*
X94664Y318200D02*
X101821D01*
X101200Y319700D02*
X108300Y326800D01*
X94043Y319700D02*
X101200D01*
X68148Y307900D02*
Y313348D01*
X94100Y321879D02*
Y331457D01*
X92600Y322500D02*
Y332079D01*
X101821Y341300D02*
X113800D01*
X92600Y332079D02*
X101821Y341300D01*
X88300Y329900D02*
X101200Y342800D01*
X64211Y307900D02*
Y314411D01*
X60274Y307900D02*
Y314053D01*
X78300Y325441D02*
Y326800D01*
X76034Y323175D02*
X78300Y325441D01*
X56337Y307900D02*
Y312237D01*
X52400Y307900D02*
X52831Y308331D01*
Y311331D01*
X64675Y323175D01*
X66034D01*
X68300Y325441D01*
Y326800D01*
X71900Y377200D02*
X84600D01*
X70700Y368730D02*
Y376000D01*
X71900Y377200D01*
D18*
X174761Y303135D02*
D03*
Y295852D02*
D03*
X146900Y295868D02*
D03*
Y303151D02*
D03*
D19*
X166561Y304218D02*
D03*
Y295950D02*
D03*
X139000Y304234D02*
D03*
Y295966D02*
D03*
D20*
X300200Y334960D02*
D03*
Y342440D02*
D03*
X31400Y354340D02*
D03*
Y346860D02*
D03*
X178800Y328870D02*
D03*
Y336350D02*
D03*
X93200Y343660D02*
D03*
Y351140D02*
D03*
X62600Y361460D02*
D03*
Y368940D02*
D03*
X62500Y354340D02*
D03*
Y346860D02*
D03*
X120300Y307100D02*
D03*
Y299620D02*
D03*
X260800Y373780D02*
D03*
X260700Y380860D02*
D03*
X8100Y364720D02*
D03*
Y372200D02*
D03*
X260700Y388340D02*
D03*
X260800Y366300D02*
D03*
D21*
X194000Y354850D02*
D03*
Y348550D02*
D03*
Y316250D02*
D03*
Y309950D02*
D03*
X307500Y354650D02*
D03*
Y348350D02*
D03*
X224000Y309950D02*
D03*
Y316250D02*
D03*
X200400Y354850D02*
D03*
Y348550D02*
D03*
X170800Y330650D02*
D03*
Y324350D02*
D03*
X213900Y309950D02*
D03*
Y316250D02*
D03*
X307400Y341259D02*
D03*
Y334960D02*
D03*
X200400Y309950D02*
D03*
Y316250D02*
D03*
D22*
X16460Y362700D02*
D03*
X23940D02*
D03*
Y371800D02*
D03*
X16460D02*
D03*
D23*
X330900Y358095D02*
D03*
Y337505D02*
D03*
D24*
X163286Y335500D02*
D03*
X169585D02*
D03*
D25*
X194000Y321900D02*
D03*
X199000D02*
D03*
X204000D02*
D03*
X209000D02*
D03*
X214000D02*
D03*
X219000D02*
D03*
X224000D02*
D03*
Y342845D02*
D03*
X219000D02*
D03*
X214000D02*
D03*
X209000D02*
D03*
X204000D02*
D03*
X199000D02*
D03*
X194000D02*
D03*
D26*
X85700Y368730D02*
D03*
X75700D02*
D03*
X70700D02*
D03*
X75700Y347470D02*
D03*
X80700D02*
D03*
X70700D02*
D03*
X80700Y368730D02*
D03*
X85700Y347470D02*
D03*
X49200D02*
D03*
X44200D02*
D03*
X39200Y368730D02*
D03*
X44200D02*
D03*
X54200D02*
D03*
X39200Y347470D02*
D03*
X49200Y368730D02*
D03*
X54200Y347470D02*
D03*
D27*
X270800Y366000D02*
D03*
Y376046D02*
D03*
D28*
X83896Y307900D02*
D03*
X79959D02*
D03*
X68148D02*
D03*
X64211D02*
D03*
X60274D02*
D03*
X56337D02*
D03*
X40589D02*
D03*
X44526D02*
D03*
X48463D02*
D03*
X52400D02*
D03*
X72085D02*
D03*
X76022D02*
D03*
X87833D02*
D03*
X36652D02*
D03*
X91770D02*
D03*
D29*
X27597Y297073D02*
D03*
X100825D02*
D03*
D30*
X203452Y379400D02*
D03*
D31*
X245184D02*
D03*
Y369400D02*
D03*
Y389400D02*
D03*
D58*
X275000Y361800D02*
X324498D01*
X327603Y358695D02*
X335400D01*
X324498Y361800D02*
X327603Y358695D01*
X272659Y364141D02*
X275000Y361800D01*
X261887Y366000D02*
X271886D01*
X307500Y354650D02*
Y361100D01*
X272659Y364141D02*
Y365228D01*
X271886Y366000D02*
X272659Y365228D01*
X13000Y399500D02*
X144400D01*
X8300Y394800D02*
X13000Y399500D01*
X8300Y386800D02*
Y388561D01*
Y394800D01*
X213900Y309950D02*
X224000D01*
X245184Y369400D02*
X255300D01*
X258400Y366300D01*
X260800D01*
X261587D02*
X261887Y366000D01*
X260800Y366300D02*
X261587D01*
X255160Y388340D02*
X260404D01*
X254100Y389400D02*
X255160Y388340D01*
X245184Y389400D02*
X254100D01*
X260404Y388340D02*
X260700D01*
X260133Y388612D02*
X260404Y388340D01*
X260133Y388612D02*
Y392467D01*
X255200Y397400D02*
X260133Y392467D01*
D59*
X333593Y337509D02*
X335814Y335288D01*
X332800Y337509D02*
X333593D01*
X335814Y314398D02*
Y335288D01*
D60*
X242454Y368181D02*
Y368791D01*
Y366060D02*
Y368181D01*
Y352954D02*
Y354850D01*
X200400Y354850D02*
X242454D01*
X281089Y288089D02*
Y300618D01*
X218600Y260800D02*
X226900D01*
X250300Y257300D02*
X281089Y288089D01*
X211700Y253900D02*
X218600Y260800D01*
X230400Y257300D02*
X250300D01*
X226900Y260800D02*
X230400Y257300D01*
X211700Y248324D02*
Y253900D01*
X283845Y314398D02*
X284044Y314199D01*
Y308156D02*
X285400Y306800D01*
X284044Y308156D02*
Y314199D01*
X285400Y271300D02*
Y306800D01*
X262500Y248400D02*
X285400Y271300D01*
X262500Y227328D02*
Y248400D01*
X259072Y223900D02*
X262500Y227328D01*
X216124Y223900D02*
X259072D01*
X211700Y228324D02*
X216124Y223900D01*
X146900Y290400D02*
X147600D01*
X97213Y313087D02*
X97500Y312800D01*
X94813Y313087D02*
X97213D01*
X94800Y313100D02*
X94813Y313087D01*
X299413Y334960D02*
X300200D01*
X298391Y333938D02*
X299413Y334960D01*
X298391Y333151D02*
Y333938D01*
X292507Y327267D02*
X298391Y333151D01*
X292507Y314398D02*
Y327267D01*
X300200Y334960D02*
X307400D01*
X43400Y374900D02*
Y390596D01*
X40041Y393955D02*
X43400Y390596D01*
X13695Y393955D02*
X40041D01*
X8300Y388561D02*
X13695Y393955D01*
X94575Y290400D02*
X146900D01*
X88300Y326800D02*
Y329400D01*
X8300Y315976D02*
Y326800D01*
Y315976D02*
X27203Y297073D01*
X27597D01*
X73200Y367300D02*
Y372321D01*
X74079Y373200D01*
X80679Y368751D02*
Y372321D01*
X79800Y373200D02*
X80679Y372321D01*
X74079Y373200D02*
X79800D01*
X143700Y381200D02*
X148200Y376700D01*
X149079Y356050D02*
X153850D01*
X148200Y356929D02*
X149079Y356050D01*
X148200Y356929D02*
Y376700D01*
X146200Y355975D02*
X148125Y354050D01*
X144372Y371700D02*
X146200Y369872D01*
Y355975D02*
Y369872D01*
X148125Y354050D02*
X152550D01*
X166564Y320998D02*
Y340036D01*
X152550Y354050D02*
X166564Y340036D01*
X169100Y340800D02*
X181600D01*
X153850Y356050D02*
X169100Y340800D01*
X166564Y320998D02*
X167511Y320050D01*
X186350D01*
X172000Y313200D02*
X181400Y303800D01*
X146317Y329183D02*
X162300Y313200D01*
X172000D01*
X181400Y296731D02*
Y303800D01*
X181600Y340800D02*
X184800Y337600D01*
X144571Y346800D02*
X146256Y345116D01*
Y345116D02*
Y345116D01*
Y345116D02*
X155871Y335500D01*
X137597Y341003D02*
X145122D01*
X157300Y328825D01*
X70700Y342800D02*
Y347470D01*
X62800Y334900D02*
X70700Y342800D01*
X33300Y318700D02*
Y332600D01*
X35600Y334900D02*
X62800D01*
X33300Y332600D02*
X35600Y334900D01*
X36652Y307900D02*
Y315348D01*
Y303423D02*
Y307900D01*
X33300Y318700D02*
X36652Y315348D01*
Y303423D02*
X41225Y298850D01*
X86125D01*
X146317Y329183D02*
Y329776D01*
X157300Y321300D02*
Y328825D01*
X138300Y346800D02*
X144571D01*
X155871Y335500D02*
X163286D01*
X174761Y295852D02*
X180521D01*
X181400Y296731D01*
X147600Y290400D02*
X184200D01*
X146900Y291100D02*
Y295868D01*
Y291100D02*
X147600Y290400D01*
X132966Y295966D02*
X139000D01*
X140083Y303151D02*
X146900D01*
X139000Y304234D02*
X140083Y303151D01*
X160750Y295950D02*
X166561D01*
X184200Y290400D02*
X194000Y300200D01*
Y309950D01*
X193803D02*
X200400D01*
X224600Y288800D02*
Y295700D01*
X228800Y299900D01*
X224600Y288800D02*
X224800Y288600D01*
X227850Y285850D02*
X235600Y293600D01*
X215359Y288057D02*
X217566Y285850D01*
X227850D01*
X212543Y288057D02*
X215359D01*
X211700Y288900D02*
X212543Y288057D01*
X228800Y299900D02*
Y311725D01*
X245400Y261900D02*
X247800Y264300D01*
X241832Y278888D02*
X247800Y272921D01*
Y264300D02*
Y272921D01*
X208803Y273103D02*
X219097D01*
X201400Y265700D02*
X208803Y273103D01*
X219097D02*
X230300Y261900D01*
X272428Y299342D02*
Y300618D01*
X270575Y297488D02*
X272428Y299342D01*
X269298Y297488D02*
X270575D01*
X265410Y293600D02*
X269298Y297488D01*
X235600Y293600D02*
X265410D01*
X211700Y278900D02*
X233000D01*
X237700Y283600D02*
X266100D01*
X233000Y278900D02*
X237700Y283600D01*
X201400Y223900D02*
X205700Y219600D01*
X201400Y223900D02*
Y265700D01*
X259600Y221600D02*
X274170Y236170D01*
X203600Y225600D02*
X207600Y221600D01*
X259600D01*
X268585Y219600D02*
X272969Y223985D01*
X205700Y219600D02*
X268585D01*
X242454Y354850D02*
X242454Y354850D01*
X194000Y354850D02*
X200400D01*
X133900Y381200D02*
X143700D01*
X128300Y385180D02*
Y386800D01*
Y385180D02*
X130335Y383145D01*
X131955D01*
X133900Y381200D01*
X44200Y368730D02*
Y374100D01*
Y366860D02*
Y368730D01*
X204000Y345700D02*
X206500Y348200D01*
X204000Y342845D02*
Y345700D01*
X242454Y354850D02*
Y366060D01*
X184800Y337600D02*
X208121D01*
X217050Y313100D02*
X227425D01*
X228800Y311725D01*
X242454Y368791D02*
X243063Y369400D01*
X241844Y368181D02*
X242454Y368791D01*
X204000Y321900D02*
Y324100D01*
X217900Y328400D02*
X242454Y352954D01*
X208300Y328400D02*
X217900D01*
X204000Y324100D02*
X208300Y328400D01*
X219000Y336400D02*
Y342845D01*
X215900Y333300D02*
X219000Y336400D01*
X197800Y333300D02*
X215900D01*
X187400Y322900D02*
X197800Y333300D01*
X214000Y342845D02*
Y345918D01*
X182500Y335300D02*
X213121D01*
X181450Y336350D02*
X182500Y335300D01*
X214000Y336179D02*
Y342845D01*
X170800Y336350D02*
X181450D01*
X213121Y335300D02*
X214000Y336179D01*
X243063Y369400D02*
X245184D01*
X241844Y366060D02*
Y368181D01*
X223608Y343236D02*
Y346121D01*
X215082Y347000D02*
X222730D01*
X214000Y345918D02*
X215082Y347000D01*
X222730D02*
X223608Y346121D01*
Y343236D02*
X224000Y342845D01*
X170800Y330650D02*
Y336350D01*
X190150Y316250D02*
X194000D01*
X186350Y320050D02*
X190150Y316250D01*
X157300Y321300D02*
X162900Y315700D01*
X179800D01*
X137550Y341050D02*
X137597Y341003D01*
X132450Y341050D02*
X137550D01*
X208121Y337600D02*
X209000Y338479D01*
Y342845D01*
X133400Y371700D02*
X144372D01*
X118300Y386800D02*
X133400Y371700D01*
X182830Y328870D02*
X183700Y328000D01*
X185400D01*
X178800Y328870D02*
X182830D01*
X170800Y324350D02*
X174280D01*
X176991Y327061D01*
Y327848D01*
X178013Y328870D01*
X178800D01*
X86125Y298850D02*
X94575Y290400D01*
X194000Y316449D02*
Y321900D01*
X224000Y316250D02*
X247350D01*
X262982Y300618D01*
X213900Y316250D02*
X214097D01*
X215119Y315228D01*
Y315031D02*
Y315228D01*
Y315031D02*
X217050Y313100D01*
X208550Y309950D02*
X213900D01*
X205700Y312800D02*
X208550Y309950D01*
X205700Y312800D02*
Y317400D01*
X204000Y319100D02*
X205700Y317400D01*
X204000Y319100D02*
Y321900D01*
X224000Y316250D02*
Y321900D01*
X214000Y316350D02*
Y321900D01*
X213900Y316250D02*
X214000Y316350D01*
X260700Y373880D02*
X265480D01*
X266317Y374717D01*
X269470D02*
X270800Y376046D01*
X266317Y374717D02*
X269470D01*
X256160Y380860D02*
X260700D01*
X254700Y379400D02*
X256160Y380860D01*
X245184Y379400D02*
X254700D01*
X260700Y373880D02*
Y380860D01*
X266100Y283600D02*
X276800Y294300D01*
Y305400D01*
X275184Y307016D02*
X276800Y305400D01*
X275184Y307016D02*
Y314398D01*
X262982Y300618D02*
X272428D01*
X230300Y261900D02*
X245400D01*
X203600Y225600D02*
Y261700D01*
X210800Y268900D02*
X211700D01*
X203600Y261700D02*
X210800Y268900D01*
X272969Y223985D02*
Y225520D01*
X277300Y238023D02*
Y239300D01*
X275447Y236170D02*
X277300Y238023D01*
X274170Y236170D02*
X275447D01*
X328700Y276046D02*
Y306800D01*
X327900Y307600D02*
X328700Y306800D01*
Y276046D02*
X329278Y275467D01*
X327900Y307600D02*
Y313650D01*
X329278Y239398D02*
Y275467D01*
X327152Y314398D02*
X327900Y313650D01*
X100825Y297073D02*
X107273D01*
X120200Y293800D02*
Y299520D01*
X120300Y299620D01*
X92201Y310501D02*
X94800Y313100D01*
X91770Y307900D02*
X92201Y308331D01*
Y310501D01*
X123700Y332300D02*
X132450Y341050D01*
X93400Y338700D02*
Y343460D01*
X58300Y324700D02*
Y326800D01*
X48463Y314863D02*
X58300Y324700D01*
X48463Y307900D02*
Y314863D01*
X44526Y307900D02*
Y321506D01*
X46024Y323004D01*
X46265D01*
X48300Y325039D01*
Y326800D01*
X40589Y307900D02*
Y320766D01*
X38300Y323055D02*
X40589Y320766D01*
X38300Y323055D02*
Y326800D01*
X104400Y332300D02*
X123700D01*
X102791Y330691D02*
X104400Y332300D01*
X100566Y330691D02*
X102791D01*
X98300Y328425D02*
X100566Y330691D01*
X98300Y326800D02*
Y328425D01*
X93200Y343660D02*
X93400Y343460D01*
X92413Y351140D02*
X93200D01*
X74560Y353200D02*
X90512D01*
X91391Y352162D02*
Y352321D01*
Y352162D02*
X92413Y351140D01*
X90512Y353200D02*
X91391Y352321D01*
X17457Y385957D02*
X18300Y386800D01*
X17457Y379157D02*
Y385957D01*
X16500Y378200D02*
X17457Y379157D01*
X16460Y371800D02*
X16500Y371840D01*
Y378200D01*
X16460Y363487D02*
Y371800D01*
X8100Y364720D02*
X8310Y364509D01*
X15438D01*
X16460Y363487D01*
Y362700D02*
Y363487D01*
X43400Y374900D02*
X44200Y374100D01*
Y366860D02*
X49600Y361460D01*
X8300Y372400D02*
Y386800D01*
X8100Y372200D02*
X8300Y372400D01*
X23940Y371800D02*
Y372587D01*
X26452Y375099D01*
X27239D01*
X28300Y376160D01*
Y386800D01*
X23940Y362700D02*
Y371800D01*
Y353532D02*
Y362700D01*
Y353532D02*
X30613Y346860D01*
X31400D01*
Y354340D02*
X31700Y354640D01*
Y359600D01*
X39200Y347291D02*
Y347470D01*
X38769Y346860D02*
X39200Y347291D01*
X31400Y346860D02*
X38769D01*
X39200Y347470D02*
X39400Y347670D01*
Y350700D01*
X40900Y352200D01*
X57000D01*
X58600Y350600D01*
X70700Y347470D02*
Y349340D01*
X70269Y349771D02*
X70700Y349340D01*
X66399Y349771D02*
X70269D01*
X65570Y350600D02*
X66399Y349771D01*
X58600Y350600D02*
X65570D01*
X70700Y349340D02*
X74560Y353200D01*
X85700Y345600D02*
Y347470D01*
Y345600D02*
X86131Y345169D01*
X90904D01*
X92413Y343660D01*
X93200D01*
X54200Y347291D02*
Y347470D01*
Y347291D02*
X54631Y346860D01*
X62500D01*
X62300Y341600D02*
X62400Y341500D01*
X62300Y346660D02*
X62500Y346860D01*
X62300Y341600D02*
Y346660D01*
X62500Y369040D02*
X62600Y368940D01*
X62500Y369040D02*
Y374600D01*
X62600Y354440D02*
Y361460D01*
X62500Y354340D02*
X62600Y354440D01*
Y361460D02*
X73160D01*
X75269Y368299D02*
X75700Y368730D01*
X75269Y363569D02*
Y368299D01*
X73160Y361460D02*
X75269Y363569D01*
X68128Y364200D02*
X71971D01*
X73131Y367231D02*
X73200Y367300D01*
X72200Y364429D02*
X72399D01*
X73131Y365161D01*
Y367231D01*
X71971Y364200D02*
X72200Y364429D01*
X63387Y368940D02*
X68128Y364200D01*
X80679Y368751D02*
X80700Y368730D01*
X62600Y368940D02*
X63387D01*
X49600Y361460D02*
X62600D01*
X61813Y368940D02*
X62600D01*
X56772Y363900D02*
X61813Y368940D01*
X52160Y363900D02*
X56772D01*
X49200Y366860D02*
Y368730D01*
Y366860D02*
X52160Y363900D01*
X54200Y368730D02*
Y377947D01*
X48300Y383847D02*
X54200Y377947D01*
X48300Y383847D02*
Y386800D01*
X38300Y376700D02*
Y386800D01*
Y376700D02*
X38769Y376231D01*
Y369161D02*
X39200Y368730D01*
X38769Y369161D02*
Y376231D01*
X333333Y225893D02*
X333609Y225618D01*
X333333Y225893D02*
Y300343D01*
X333058Y300618D02*
X333333Y300343D01*
X324397Y263231D02*
Y300618D01*
Y263231D02*
X324947Y262681D01*
Y225618D02*
Y262681D01*
D61*
X80700Y343200D02*
X84900Y339000D01*
Y338700D02*
Y339000D01*
X84500Y338300D02*
X84900Y338700D01*
X80700Y343200D02*
Y347470D01*
X75519Y347289D02*
X75700Y347470D01*
X75519Y344847D02*
Y347289D01*
X74919Y344247D02*
X75519Y344847D01*
X74919Y341972D02*
Y344247D01*
X74857Y341909D02*
X74919Y341972D01*
X74857Y339257D02*
X75064Y339050D01*
X74857Y339257D02*
Y341909D01*
X294156Y272956D02*
Y305231D01*
X289272Y307700D02*
X291687D01*
X294156Y305231D01*
X268639Y247439D02*
X294156Y272956D01*
X268112Y319312D02*
X271200Y322400D01*
X284800D02*
X288101Y319099D01*
X271200Y322400D02*
X284800D01*
X288101Y308872D02*
Y319099D01*
X266523Y314398D02*
Y317711D01*
X268112Y319299D01*
Y319312D01*
X288101Y308872D02*
X289272Y307700D01*
X268639Y239300D02*
Y247439D01*
D62*
X292150Y372400D02*
D03*
D63*
X193800Y379400D02*
D03*
D64*
X138300Y386800D02*
D03*
Y326800D02*
D03*
D65*
X118300D02*
D03*
X108300D02*
D03*
X118300Y386800D02*
D03*
X108300D02*
D03*
D66*
X78300D02*
D03*
X18300D02*
D03*
X8300Y326800D02*
D03*
X28300Y386800D02*
D03*
X18300Y326800D02*
D03*
X28300D02*
D03*
X38300D02*
D03*
X48300D02*
D03*
X58300D02*
D03*
X68300D02*
D03*
X78300D02*
D03*
X88300D02*
D03*
X98300D02*
D03*
X128300D02*
D03*
Y386800D02*
D03*
X98300D02*
D03*
X88300D02*
D03*
X68300D02*
D03*
X58300D02*
D03*
X48300D02*
D03*
X38300D02*
D03*
X8300D02*
D03*
D67*
X138300Y356800D02*
D03*
Y346800D02*
D03*
Y336800D02*
D03*
Y366800D02*
D03*
Y376800D02*
D03*
D68*
X108300Y336800D02*
D03*
X118300D02*
D03*
X108300Y346800D02*
D03*
X118300D02*
D03*
X108300Y356800D02*
D03*
X118300D02*
D03*
X108300Y366800D02*
D03*
X118300D02*
D03*
X108300Y376800D02*
D03*
X118300D02*
D03*
D69*
X350381Y300618D02*
D03*
X341719D02*
D03*
X333058D02*
D03*
X324397D02*
D03*
X315735D02*
D03*
X307074D02*
D03*
X298412D02*
D03*
X289751D02*
D03*
X281089D02*
D03*
X272428D02*
D03*
X292507Y314398D02*
D03*
X318491D02*
D03*
X266523D02*
D03*
X275184D02*
D03*
X283845D02*
D03*
X301168D02*
D03*
X309830D02*
D03*
X327152D02*
D03*
X335814D02*
D03*
X344475D02*
D03*
X272969Y225520D02*
D03*
X281631D02*
D03*
X290292D02*
D03*
X298954D02*
D03*
X307615D02*
D03*
X316276D02*
D03*
X324938D02*
D03*
X333599D02*
D03*
X342261D02*
D03*
X350922D02*
D03*
X268639Y239300D02*
D03*
X277300D02*
D03*
X285961D02*
D03*
X294623D02*
D03*
X303284D02*
D03*
X311946D02*
D03*
X320607D02*
D03*
X329269D02*
D03*
X337930D02*
D03*
X346591D02*
D03*
D70*
X241832Y248312D02*
D03*
Y228312D02*
D03*
X211700Y248324D02*
D03*
Y228324D02*
D03*
X241832Y238312D02*
D03*
X211700Y238324D02*
D03*
Y268900D02*
D03*
Y278900D02*
D03*
Y288900D02*
D03*
X241832Y268888D02*
D03*
Y278888D02*
D03*
Y288888D02*
D03*
D71*
X352891Y262135D02*
D03*
X266276D02*
D03*
D72*
X202720Y272300D02*
D03*
X205700Y274700D02*
D03*
X223375Y257000D02*
D03*
X218900Y255300D02*
D03*
X97500Y312800D02*
D03*
X144400Y399500D02*
D03*
X148900Y347200D02*
D03*
X152500Y343700D02*
D03*
X149300Y332000D02*
D03*
X146317Y329776D02*
D03*
X132966Y295966D02*
D03*
X160750Y295950D02*
D03*
X224800Y288600D02*
D03*
X188100Y348000D02*
D03*
X186300Y343200D02*
D03*
X205894Y307706D02*
D03*
X209500Y304100D02*
D03*
X206500Y348200D02*
D03*
X187400Y322900D02*
D03*
X179800Y315700D02*
D03*
X185400Y328000D02*
D03*
X255200Y397400D02*
D03*
X107273Y297073D02*
D03*
X120200Y293800D02*
D03*
X93400Y338700D02*
D03*
X31700Y359600D02*
D03*
X62400Y341500D02*
D03*
X62500Y374600D02*
D03*
D73*
X84900Y339000D02*
D03*
X75064Y339050D02*
D03*
D74*
X44800Y394800D02*
D03*
X231000Y389000D02*
D03*
X234500Y382000D02*
D03*
X231000Y375000D02*
D03*
X234500Y368000D02*
D03*
X231000Y361000D02*
D03*
X224000Y389000D02*
D03*
X227500Y382000D02*
D03*
X224000Y375000D02*
D03*
X227500Y368000D02*
D03*
X224000Y361000D02*
D03*
X182000Y389000D02*
D03*
Y375000D02*
D03*
Y361000D02*
D03*
X175000Y389000D02*
D03*
X178500Y382000D02*
D03*
X175000Y375000D02*
D03*
X178500Y368000D02*
D03*
X175000Y361000D02*
D03*
X168000Y389000D02*
D03*
X171500Y382000D02*
D03*
X168000Y375000D02*
D03*
X171500Y368000D02*
D03*
X168000Y361000D02*
D03*
X161000Y389000D02*
D03*
X164500Y382000D02*
D03*
X161000Y375000D02*
D03*
X164500Y368000D02*
D03*
X161000Y361000D02*
D03*
M02*
