G04*
G04 #@! TF.GenerationSoftware,Altium Limited,Altium Designer,21.0.8 (223)*
G04*
G04 Layer_Color=12632256*
%FSLAX25Y25*%
%MOIN*%
G70*
G04*
G04 #@! TF.SameCoordinates,DCAF0548-D6C3-4AC8-9B6B-16820CB23C6F*
G04*
G04*
G04 #@! TF.FilePolarity,Positive*
G04*
G01*
G75*
%ADD64C,0.08661*%
%ADD65C,0.07874*%
%ADD66O,0.05906X0.11811*%
%ADD67O,0.11811X0.05906*%
%ADD68O,0.08661X0.05906*%
%ADD69O,0.05512X0.10236*%
%ADD70O,0.07874X0.05906*%
%ADD71C,0.09449*%
D64*
X138300Y386800D02*
D03*
Y326800D02*
D03*
D65*
X118300D02*
D03*
X108300D02*
D03*
X118300Y386800D02*
D03*
X108300D02*
D03*
D66*
X78300D02*
D03*
X18300D02*
D03*
X8300Y326800D02*
D03*
X28300Y386800D02*
D03*
X18300Y326800D02*
D03*
X28300D02*
D03*
X38300D02*
D03*
X48300D02*
D03*
X58300D02*
D03*
X68300D02*
D03*
X78300D02*
D03*
X88300D02*
D03*
X98300D02*
D03*
X128300D02*
D03*
Y386800D02*
D03*
X98300D02*
D03*
X88300D02*
D03*
X68300D02*
D03*
X58300D02*
D03*
X48300D02*
D03*
X38300D02*
D03*
X8300D02*
D03*
D67*
X138300Y356800D02*
D03*
Y346800D02*
D03*
Y336800D02*
D03*
Y366800D02*
D03*
Y376800D02*
D03*
D68*
X108300Y336800D02*
D03*
X118300D02*
D03*
X108300Y346800D02*
D03*
X118300D02*
D03*
X108300Y356800D02*
D03*
X118300D02*
D03*
X108300Y366800D02*
D03*
X118300D02*
D03*
X108300Y376800D02*
D03*
X118300D02*
D03*
D69*
X350381Y300618D02*
D03*
X341719D02*
D03*
X333058D02*
D03*
X324397D02*
D03*
X315735D02*
D03*
X307074D02*
D03*
X298412D02*
D03*
X289751D02*
D03*
X281089D02*
D03*
X272428D02*
D03*
X292507Y314398D02*
D03*
X318491D02*
D03*
X266523D02*
D03*
X275184D02*
D03*
X283845D02*
D03*
X301168D02*
D03*
X309830D02*
D03*
X327152D02*
D03*
X335814D02*
D03*
X344475D02*
D03*
X272969Y225520D02*
D03*
X281631D02*
D03*
X290292D02*
D03*
X298954D02*
D03*
X307615D02*
D03*
X316276D02*
D03*
X324938D02*
D03*
X333599D02*
D03*
X342261D02*
D03*
X350922D02*
D03*
X268639Y239300D02*
D03*
X277300D02*
D03*
X285961D02*
D03*
X294623D02*
D03*
X303284D02*
D03*
X311946D02*
D03*
X320607D02*
D03*
X329269D02*
D03*
X337930D02*
D03*
X346591D02*
D03*
D70*
X241832Y248312D02*
D03*
Y228312D02*
D03*
X211700Y248324D02*
D03*
Y228324D02*
D03*
X241832Y238312D02*
D03*
X211700Y238324D02*
D03*
Y268900D02*
D03*
Y278900D02*
D03*
Y288900D02*
D03*
X241832Y268888D02*
D03*
Y278888D02*
D03*
Y288888D02*
D03*
D71*
X352891Y262135D02*
D03*
X266276D02*
D03*
M02*
