G04*
G04 #@! TF.GenerationSoftware,Altium Limited,Altium Designer,21.0.8 (223)*
G04*
G04 Layer_Color=16711935*
%FSLAX25Y25*%
%MOIN*%
G70*
G04*
G04 #@! TF.SameCoordinates,DCAF0548-D6C3-4AC8-9B6B-16820CB23C6F*
G04*
G04*
G04 #@! TF.FilePolarity,Positive*
G04*
G01*
G75*
%ADD12C,0.00394*%
%ADD13C,0.00787*%
G36*
X270156Y374837D02*
X270759D01*
Y374529D01*
X270156D01*
Y373431D01*
X269872D01*
X268239Y374583D01*
Y374837D01*
X269872D01*
Y375178D01*
X270156D01*
Y374837D01*
D02*
G37*
G36*
X269978Y373245D02*
X269997Y373240D01*
X270027Y373229D01*
X270060Y373218D01*
X270101Y373202D01*
X270145Y373185D01*
X270191Y373164D01*
X270243Y373139D01*
X270292Y373112D01*
X270347Y373082D01*
X270399Y373046D01*
X270448Y373008D01*
X270497Y372967D01*
X270543Y372920D01*
X270587Y372871D01*
X270590Y372869D01*
X270595Y372858D01*
X270606Y372844D01*
X270620Y372822D01*
X270636Y372798D01*
X270655Y372765D01*
X270674Y372729D01*
X270694Y372686D01*
X270713Y372639D01*
X270732Y372590D01*
X270751Y372536D01*
X270767Y372476D01*
X270781Y372413D01*
X270792Y372347D01*
X270797Y372279D01*
X270800Y372205D01*
Y372167D01*
X270797Y372137D01*
X270795Y372104D01*
X270792Y372063D01*
X270786Y372020D01*
X270778Y371971D01*
X270770Y371919D01*
X270759Y371864D01*
X270745Y371809D01*
X270732Y371755D01*
X270713Y371697D01*
X270691Y371643D01*
X270666Y371591D01*
X270636Y371542D01*
X270634Y371539D01*
X270628Y371531D01*
X270620Y371517D01*
X270606Y371501D01*
X270587Y371479D01*
X270568Y371455D01*
X270543Y371427D01*
X270513Y371397D01*
X270481Y371367D01*
X270445Y371334D01*
X270407Y371304D01*
X270363Y371272D01*
X270317Y371239D01*
X270268Y371209D01*
X270213Y371182D01*
X270156Y371154D01*
X270153Y371151D01*
X270142Y371149D01*
X270123Y371143D01*
X270101Y371135D01*
X270071Y371124D01*
X270038Y371113D01*
X269997Y371102D01*
X269954Y371089D01*
X269905Y371078D01*
X269853Y371064D01*
X269798Y371053D01*
X269738Y371045D01*
X269613Y371029D01*
X269547Y371026D01*
X269481Y371023D01*
X269476D01*
X269465D01*
X269443D01*
X269416Y371026D01*
X269380Y371029D01*
X269339Y371031D01*
X269296Y371037D01*
X269247Y371042D01*
X269195Y371051D01*
X269140Y371059D01*
X269023Y371086D01*
X268966Y371105D01*
X268908Y371124D01*
X268848Y371146D01*
X268794Y371173D01*
X268791Y371176D01*
X268780Y371182D01*
X268766Y371190D01*
X268744Y371201D01*
X268720Y371217D01*
X268692Y371236D01*
X268663Y371258D01*
X268627Y371283D01*
X268594Y371312D01*
X268556Y371343D01*
X268520Y371378D01*
X268482Y371416D01*
X268447Y371457D01*
X268411Y371501D01*
X268378Y371550D01*
X268349Y371599D01*
X268346Y371602D01*
X268343Y371613D01*
X268335Y371626D01*
X268324Y371648D01*
X268313Y371673D01*
X268299Y371706D01*
X268286Y371741D01*
X268272Y371779D01*
X268258Y371823D01*
X268245Y371872D01*
X268231Y371921D01*
X268220Y371976D01*
X268201Y372088D01*
X268198Y372148D01*
X268196Y372211D01*
Y372246D01*
X268198Y372273D01*
X268201Y372306D01*
X268207Y372344D01*
X268212Y372385D01*
X268220Y372432D01*
X268231Y372481D01*
X268242Y372533D01*
X268258Y372585D01*
X268278Y372639D01*
X268299Y372694D01*
X268327Y372746D01*
X268354Y372798D01*
X268390Y372847D01*
X268392Y372849D01*
X268398Y372858D01*
X268409Y372871D01*
X268425Y372888D01*
X268444Y372910D01*
X268469Y372934D01*
X268496Y372959D01*
X268529Y372989D01*
X268564Y373019D01*
X268605Y373049D01*
X268649Y373079D01*
X268698Y373106D01*
X268750Y373136D01*
X268807Y373161D01*
X268867Y373185D01*
X268930Y373207D01*
X269006Y372880D01*
X269004D01*
X268995Y372874D01*
X268979Y372871D01*
X268960Y372863D01*
X268938Y372855D01*
X268914Y372841D01*
X268854Y372814D01*
X268788Y372779D01*
X268720Y372732D01*
X268657Y372683D01*
X268630Y372653D01*
X268605Y372623D01*
X268602Y372620D01*
X268600Y372615D01*
X268594Y372607D01*
X268586Y372593D01*
X268575Y372576D01*
X268564Y372557D01*
X268553Y372536D01*
X268542Y372508D01*
X268531Y372478D01*
X268520Y372448D01*
X268499Y372377D01*
X268485Y372295D01*
X268480Y372252D01*
Y372178D01*
X268482Y372156D01*
X268485Y372131D01*
X268488Y372101D01*
X268491Y372069D01*
X268496Y372036D01*
X268515Y371957D01*
X268540Y371875D01*
X268556Y371834D01*
X268575Y371793D01*
X268597Y371755D01*
X268621Y371717D01*
X268624Y371714D01*
X268627Y371708D01*
X268635Y371697D01*
X268646Y371684D01*
X268660Y371670D01*
X268679Y371651D01*
X268698Y371632D01*
X268720Y371610D01*
X268747Y371588D01*
X268774Y371564D01*
X268837Y371520D01*
X268911Y371479D01*
X268995Y371444D01*
X268998D01*
X269006Y371441D01*
X269020Y371435D01*
X269037Y371433D01*
X269058Y371427D01*
X269083Y371419D01*
X269113Y371413D01*
X269143Y371405D01*
X269178Y371397D01*
X269217Y371392D01*
X269299Y371378D01*
X269386Y371370D01*
X269479Y371367D01*
X269481D01*
X269492D01*
X269509D01*
X269533Y371370D01*
X269561D01*
X269593Y371373D01*
X269629Y371375D01*
X269670Y371378D01*
X269713Y371384D01*
X269757Y371389D01*
X269853Y371405D01*
X269948Y371430D01*
X270041Y371460D01*
X270044D01*
X270052Y371465D01*
X270063Y371471D01*
X270079Y371476D01*
X270101Y371487D01*
X270123Y371501D01*
X270175Y371531D01*
X270235Y371572D01*
X270292Y371621D01*
X270350Y371681D01*
X270374Y371714D01*
X270399Y371749D01*
Y371752D01*
X270404Y371758D01*
X270410Y371768D01*
X270418Y371785D01*
X270426Y371804D01*
X270437Y371826D01*
X270445Y371850D01*
X270456Y371878D01*
X270478Y371940D01*
X270497Y372014D01*
X270511Y372093D01*
X270513Y372134D01*
X270516Y372178D01*
Y372205D01*
X270513Y372224D01*
X270511Y372249D01*
X270508Y372276D01*
X270502Y372309D01*
X270497Y372342D01*
X270478Y372418D01*
X270464Y372456D01*
X270448Y372497D01*
X270429Y372538D01*
X270407Y372576D01*
X270382Y372615D01*
X270355Y372653D01*
X270352Y372656D01*
X270347Y372661D01*
X270339Y372672D01*
X270325Y372686D01*
X270309Y372699D01*
X270287Y372719D01*
X270262Y372738D01*
X270235Y372759D01*
X270202Y372781D01*
X270167Y372803D01*
X270128Y372825D01*
X270085Y372847D01*
X270038Y372866D01*
X269987Y372885D01*
X269932Y372904D01*
X269875Y372918D01*
X269959Y373251D01*
X269965D01*
X269978Y373245D01*
D02*
G37*
%LPC*%
G36*
X269872Y374529D02*
X268736D01*
X269872Y373734D01*
Y374529D01*
D02*
G37*
%LPD*%
D12*
X298790Y335714D02*
X298134Y335058D01*
Y333746D01*
X298790Y333090D01*
X301414D01*
X302070Y333746D01*
Y335058D01*
X301414Y335714D01*
X302070Y337025D02*
Y338337D01*
Y337682D01*
X298134D01*
X298790Y337025D01*
Y340305D02*
X298134Y340961D01*
Y342273D01*
X298790Y342929D01*
X299446D01*
X300102Y342273D01*
Y341617D01*
Y342273D01*
X300758Y342929D01*
X301414D01*
X302070Y342273D01*
Y340961D01*
X301414Y340305D01*
X32810Y353586D02*
X33466Y354242D01*
Y355554D01*
X32810Y356210D01*
X30186D01*
X29530Y355554D01*
Y354242D01*
X30186Y353586D01*
X32810Y352274D02*
X33466Y351619D01*
Y350307D01*
X32810Y349651D01*
X32154D01*
X31498Y350307D01*
X30842Y349651D01*
X30186D01*
X29530Y350307D01*
Y351619D01*
X30186Y352274D01*
X30842D01*
X31498Y351619D01*
X32154Y352274D01*
X32810D01*
X31498Y351619D02*
Y350307D01*
X17214Y373210D02*
X16558Y373866D01*
X15246D01*
X14590Y373210D01*
Y370586D01*
X15246Y369930D01*
X16558D01*
X17214Y370586D01*
X18526Y373866D02*
X21149D01*
Y373210D01*
X18526Y370586D01*
Y369930D01*
X177390Y329624D02*
X176734Y328968D01*
Y327656D01*
X177390Y327000D01*
X180014D01*
X180670Y327656D01*
Y328968D01*
X180014Y329624D01*
X180670Y330936D02*
Y332248D01*
Y331592D01*
X176734D01*
X177390Y330936D01*
X180670Y336183D02*
X176734D01*
X178702Y334215D01*
Y336839D01*
X91790Y344414D02*
X91134Y343758D01*
Y342446D01*
X91790Y341790D01*
X94414D01*
X95070Y342446D01*
Y343758D01*
X94414Y344414D01*
X95070Y345725D02*
Y347037D01*
Y346381D01*
X91134D01*
X91790Y345725D01*
Y349005D02*
X91134Y349661D01*
Y350973D01*
X91790Y351629D01*
X94414D01*
X95070Y350973D01*
Y349661D01*
X94414Y349005D01*
X91790D01*
X64010Y368186D02*
X64666Y368842D01*
Y370154D01*
X64010Y370810D01*
X61386D01*
X60730Y370154D01*
Y368842D01*
X61386Y368186D01*
Y366875D02*
X60730Y366218D01*
Y364907D01*
X61386Y364251D01*
X64010D01*
X64666Y364907D01*
Y366218D01*
X64010Y366875D01*
X63354D01*
X62698Y366218D01*
Y364251D01*
X61090Y347614D02*
X60434Y346958D01*
Y345646D01*
X61090Y344990D01*
X63714D01*
X64370Y345646D01*
Y346958D01*
X63714Y347614D01*
X64370Y348925D02*
Y350237D01*
Y349582D01*
X60434D01*
X61090Y348925D01*
X64370Y352205D02*
Y353517D01*
Y352861D01*
X60434D01*
X61090Y352205D01*
X118890Y300373D02*
X118234Y299717D01*
Y298406D01*
X118890Y297750D01*
X121514D01*
X122170Y298406D01*
Y299717D01*
X121514Y300373D01*
X122170Y301685D02*
Y302997D01*
Y302341D01*
X118234D01*
X118890Y301685D01*
X122170Y307589D02*
Y304965D01*
X119546Y307589D01*
X118890D01*
X118234Y306933D01*
Y305621D01*
X118890Y304965D01*
X17214Y364110D02*
X16558Y364766D01*
X15246D01*
X14590Y364110D01*
Y361486D01*
X15246Y360830D01*
X16558D01*
X17214Y361486D01*
X21149Y364766D02*
X19837Y364110D01*
X18526Y362798D01*
Y361486D01*
X19182Y360830D01*
X20493D01*
X21149Y361486D01*
Y362142D01*
X20493Y362798D01*
X18526D01*
X6690Y365473D02*
X6034Y364818D01*
Y363506D01*
X6690Y362850D01*
X9314D01*
X9970Y363506D01*
Y364818D01*
X9314Y365473D01*
X6034Y369409D02*
Y366785D01*
X8002D01*
X7346Y368097D01*
Y368753D01*
X8002Y369409D01*
X9314D01*
X9970Y368753D01*
Y367441D01*
X9314Y366785D01*
X259290Y381614D02*
X258634Y380958D01*
Y379646D01*
X259290Y378990D01*
X261914D01*
X262570Y379646D01*
Y380958D01*
X261914Y381614D01*
X259290Y382926D02*
X258634Y383581D01*
Y384893D01*
X259290Y385549D01*
X259946D01*
X260602Y384893D01*
Y384237D01*
Y384893D01*
X261258Y385549D01*
X261914D01*
X262570Y384893D01*
Y383581D01*
X261914Y382926D01*
X262210Y373027D02*
X262866Y373683D01*
Y374994D01*
X262210Y375650D01*
X259586D01*
X258930Y374994D01*
Y373683D01*
X259586Y373027D01*
X258930Y371715D02*
Y370403D01*
Y371059D01*
X262866D01*
X262210Y371715D01*
D13*
X303743Y332007D02*
Y345393D01*
X296657D02*
X303743D01*
X296657Y332007D02*
Y345393D01*
Y332007D02*
X303743D01*
X27857Y343907D02*
Y357293D01*
Y343907D02*
X34943D01*
Y357293D01*
X27857D02*
X34943D01*
X13507Y359157D02*
X26893D01*
Y366243D01*
X13507D02*
X26893D01*
X13507Y359157D02*
Y366243D01*
Y368257D02*
Y375343D01*
X26893D01*
Y368257D02*
Y375343D01*
X13507Y368257D02*
X26893D01*
X182343Y325917D02*
Y339303D01*
X175257D02*
X182343D01*
X175257Y325917D02*
Y339303D01*
Y325917D02*
X182343D01*
X96743Y340707D02*
Y354093D01*
X89657D02*
X96743D01*
X89657Y340707D02*
Y354093D01*
Y340707D02*
X96743D01*
X59057Y371893D02*
X66143D01*
Y358507D02*
Y371893D01*
X59057Y358507D02*
X66143D01*
X59057D02*
Y371893D01*
X58957Y343907D02*
X66043D01*
X58957D02*
Y357293D01*
X66043D01*
Y343907D02*
Y357293D01*
X266863Y363334D02*
Y378713D01*
X274737D01*
Y363334D02*
Y378713D01*
X266863Y363334D02*
X274737D01*
X116757Y296667D02*
X123843D01*
X116757D02*
Y310053D01*
X123843D01*
Y296667D02*
Y310053D01*
X11643Y361767D02*
Y375153D01*
X4557D02*
X11643D01*
X4557Y361767D02*
Y375153D01*
Y361767D02*
X11643D01*
X264243Y377907D02*
Y391293D01*
X257157D02*
X264243D01*
X257157Y377907D02*
Y391293D01*
Y377907D02*
X264243D01*
X257257Y363347D02*
Y376733D01*
Y363347D02*
X264343D01*
Y376733D01*
X257257D02*
X264343D01*
M02*
