G04*
G04 #@! TF.GenerationSoftware,Altium Limited,Altium Designer,21.0.8 (223)*
G04*
G04 Layer_Color=65535*
%FSLAX25Y25*%
%MOIN*%
G70*
G04*
G04 #@! TF.SameCoordinates,3B633D02-0EC4-4577-A0D3-F38BB98637A7*
G04*
G04*
G04 #@! TF.FilePolarity,Positive*
G04*
G01*
G75*
%ADD12C,0.00787*%
D12*
X311238Y337976D02*
Y347424D01*
X315962D01*
Y337976D02*
Y347424D01*
X311238Y337976D02*
X315962D01*
X349276Y331772D02*
X358724D01*
X349276D02*
Y336496D01*
X358724D01*
Y331772D02*
Y336496D01*
X352776Y380762D02*
X362224D01*
Y376038D02*
Y380762D01*
X352776Y376038D02*
X362224D01*
X352776D02*
Y380762D01*
X354949Y373504D02*
X363839D01*
Y368976D02*
Y373504D01*
X354949Y368976D02*
X363839D01*
X354949D02*
Y373504D01*
X314938Y365776D02*
Y375224D01*
X319662D01*
Y365776D02*
Y375224D01*
X314938Y365776D02*
X319662D01*
X302138Y347524D02*
X306862D01*
X302138Y338076D02*
Y347524D01*
Y338076D02*
X306862D01*
Y347524D01*
X266538D02*
X271262D01*
X266538Y338076D02*
Y347524D01*
Y338076D02*
X271262D01*
Y347524D01*
X216620Y305536D02*
Y310064D01*
Y305536D02*
X225510D01*
Y310064D01*
X216620D02*
X225510D01*
X248638Y284838D02*
Y289562D01*
Y284838D02*
X258087D01*
Y289562D01*
X248638D02*
X258087D01*
X220524Y272438D02*
Y277162D01*
X211076D02*
X220524D01*
X211076Y272438D02*
Y277162D01*
Y272438D02*
X220524D01*
X214601Y288420D02*
X227199D01*
Y303380D01*
X214601D02*
X227199D01*
X214601Y288420D02*
Y303380D01*
X220245Y279336D02*
Y283864D01*
X211355D02*
X220245D01*
X211355Y279336D02*
Y283864D01*
Y279336D02*
X220245D01*
X265838Y369576D02*
X270562D01*
Y379024D01*
X265838D02*
X270562D01*
X265838Y369576D02*
Y379024D01*
Y363987D02*
X270562D01*
X265838Y354538D02*
Y363987D01*
Y354538D02*
X270562D01*
Y363987D01*
X242611Y298437D02*
X257989D01*
Y290563D02*
Y298437D01*
X242611Y290563D02*
X257989D01*
X242611D02*
Y298437D01*
M02*
