G04*
G04 #@! TF.GenerationSoftware,Altium Limited,Altium Designer,21.0.8 (223)*
G04*
G04 Layer_Color=16711935*
%FSLAX25Y25*%
%MOIN*%
G70*
G04*
G04 #@! TF.SameCoordinates,AE60A7D3-7942-428E-9249-63F1B2AFBED3*
G04*
G04*
G04 #@! TF.FilePolarity,Positive*
G04*
G01*
G75*
%ADD12C,0.00787*%
%ADD80C,0.00394*%
G36*
X310062Y352237D02*
X310092Y352234D01*
X310125Y352229D01*
X310163Y352223D01*
X310207Y352215D01*
X310250Y352204D01*
X310299Y352191D01*
X310349Y352174D01*
X310398Y352155D01*
X310447Y352133D01*
X310499Y352106D01*
X310548Y352076D01*
X310594Y352040D01*
X310597Y352038D01*
X310608Y352029D01*
X310622Y352016D01*
X310641Y351997D01*
X310665Y351972D01*
X310690Y351942D01*
X310720Y351907D01*
X310747Y351866D01*
X310774Y351822D01*
X310805Y351773D01*
X310829Y351718D01*
X310851Y351658D01*
X310873Y351595D01*
X310886Y351527D01*
X310897Y351456D01*
X310900Y351380D01*
Y351347D01*
X310897Y351322D01*
X310895Y351292D01*
X310889Y351260D01*
X310884Y351221D01*
X310876Y351181D01*
X310867Y351137D01*
X310854Y351090D01*
X310837Y351044D01*
X310818Y350998D01*
X310796Y350951D01*
X310772Y350905D01*
X310742Y350861D01*
X310709Y350817D01*
X310706Y350815D01*
X310701Y350809D01*
X310690Y350798D01*
X310673Y350785D01*
X310654Y350765D01*
X310632Y350746D01*
X310605Y350727D01*
X310572Y350706D01*
X310540Y350684D01*
X310502Y350662D01*
X310458Y350643D01*
X310414Y350624D01*
X310365Y350604D01*
X310313Y350591D01*
X310256Y350580D01*
X310198Y350572D01*
X310174Y350897D01*
X310177D01*
X310185Y350899D01*
X310196Y350902D01*
X310212Y350905D01*
X310231Y350907D01*
X310256Y350916D01*
X310308Y350929D01*
X310365Y350951D01*
X310425Y350981D01*
X310480Y351017D01*
X310504Y351039D01*
X310529Y351060D01*
Y351063D01*
X310534Y351066D01*
X310540Y351074D01*
X310548Y351085D01*
X310567Y351112D01*
X310586Y351150D01*
X310608Y351197D01*
X310627Y351252D01*
X310641Y351311D01*
X310643Y351344D01*
X310646Y351380D01*
Y351402D01*
X310643Y351418D01*
X310641Y351437D01*
X310638Y351459D01*
X310624Y351511D01*
X310605Y351571D01*
X310592Y351601D01*
X310575Y351634D01*
X310556Y351666D01*
X310534Y351696D01*
X310510Y351727D01*
X310480Y351757D01*
X310477Y351759D01*
X310471Y351762D01*
X310463Y351770D01*
X310450Y351781D01*
X310431Y351792D01*
X310411Y351806D01*
X310387Y351819D01*
X310360Y351836D01*
X310330Y351849D01*
X310297Y351863D01*
X310259Y351877D01*
X310220Y351888D01*
X310177Y351899D01*
X310130Y351907D01*
X310084Y351909D01*
X310032Y351912D01*
X310029D01*
X310021D01*
X310007D01*
X309988Y351909D01*
X309966Y351907D01*
X309939Y351904D01*
X309912Y351899D01*
X309879Y351893D01*
X309813Y351877D01*
X309742Y351849D01*
X309710Y351833D01*
X309677Y351811D01*
X309644Y351789D01*
X309614Y351762D01*
X309612Y351759D01*
X309609Y351757D01*
X309601Y351746D01*
X309590Y351735D01*
X309579Y351721D01*
X309565Y351702D01*
X309551Y351683D01*
X309535Y351658D01*
X309521Y351631D01*
X309508Y351604D01*
X309483Y351535D01*
X309472Y351500D01*
X309464Y351459D01*
X309461Y351418D01*
X309459Y351374D01*
Y351350D01*
X309461Y351320D01*
X309467Y351284D01*
X309475Y351240D01*
X309489Y351194D01*
X309505Y351148D01*
X309530Y351101D01*
X309532Y351096D01*
X309541Y351082D01*
X309557Y351060D01*
X309576Y351033D01*
X309603Y351006D01*
X309633Y350973D01*
X309669Y350943D01*
X309707Y350916D01*
X309666Y350626D01*
X308372Y350869D01*
Y352122D01*
X308667D01*
Y351115D01*
X309344Y350981D01*
X309341Y350984D01*
X309336Y350992D01*
X309330Y351003D01*
X309319Y351019D01*
X309309Y351041D01*
X309295Y351066D01*
X309278Y351093D01*
X309265Y351126D01*
X309251Y351159D01*
X309235Y351197D01*
X309210Y351276D01*
X309199Y351320D01*
X309191Y351363D01*
X309188Y351410D01*
X309186Y351456D01*
Y351470D01*
X309188Y351489D01*
Y351511D01*
X309194Y351538D01*
X309196Y351571D01*
X309205Y351609D01*
X309213Y351647D01*
X309227Y351691D01*
X309240Y351735D01*
X309259Y351781D01*
X309281Y351828D01*
X309309Y351874D01*
X309338Y351920D01*
X309374Y351967D01*
X309415Y352010D01*
X309418Y352013D01*
X309426Y352021D01*
X309439Y352032D01*
X309456Y352046D01*
X309478Y352065D01*
X309508Y352084D01*
X309538Y352103D01*
X309573Y352125D01*
X309614Y352147D01*
X309661Y352166D01*
X309707Y352188D01*
X309762Y352204D01*
X309816Y352218D01*
X309876Y352229D01*
X309939Y352237D01*
X310005Y352240D01*
X310007D01*
X310021D01*
X310037D01*
X310062Y352237D01*
D02*
G37*
G36*
X310859Y349469D02*
X308891D01*
X308896Y349463D01*
X308910Y349450D01*
X308929Y349425D01*
X308956Y349390D01*
X308989Y349349D01*
X309025Y349297D01*
X309063Y349239D01*
X309104Y349174D01*
Y349171D01*
X309109Y349166D01*
X309115Y349158D01*
X309120Y349144D01*
X309131Y349128D01*
X309139Y349108D01*
X309164Y349065D01*
X309188Y349016D01*
X309216Y348961D01*
X309240Y348904D01*
X309262Y348849D01*
X308964D01*
X308962Y348852D01*
X308959Y348860D01*
X308951Y348874D01*
X308943Y348893D01*
X308932Y348915D01*
X308915Y348942D01*
X308899Y348972D01*
X308883Y349002D01*
X308839Y349073D01*
X308787Y349149D01*
X308732Y349229D01*
X308670Y349302D01*
X308667Y349305D01*
X308662Y349310D01*
X308653Y349321D01*
X308640Y349335D01*
X308623Y349349D01*
X308607Y349368D01*
X308560Y349409D01*
X308511Y349455D01*
X308454Y349501D01*
X308394Y349542D01*
X308331Y349578D01*
Y349777D01*
X310859D01*
Y349469D01*
D02*
G37*
G36*
X310078Y348322D02*
X310097Y348317D01*
X310127Y348306D01*
X310160Y348295D01*
X310201Y348278D01*
X310245Y348262D01*
X310291Y348240D01*
X310343Y348216D01*
X310392Y348188D01*
X310447Y348158D01*
X310499Y348123D01*
X310548Y348085D01*
X310597Y348044D01*
X310643Y347997D01*
X310687Y347948D01*
X310690Y347945D01*
X310695Y347935D01*
X310706Y347921D01*
X310720Y347899D01*
X310736Y347874D01*
X310755Y347842D01*
X310774Y347806D01*
X310794Y347762D01*
X310813Y347716D01*
X310832Y347667D01*
X310851Y347612D01*
X310867Y347552D01*
X310881Y347490D01*
X310892Y347424D01*
X310897Y347356D01*
X310900Y347282D01*
Y347244D01*
X310897Y347214D01*
X310895Y347181D01*
X310892Y347140D01*
X310886Y347096D01*
X310878Y347047D01*
X310870Y346995D01*
X310859Y346941D01*
X310845Y346886D01*
X310832Y346832D01*
X310813Y346774D01*
X310791Y346720D01*
X310766Y346668D01*
X310736Y346619D01*
X310734Y346616D01*
X310728Y346608D01*
X310720Y346594D01*
X310706Y346578D01*
X310687Y346556D01*
X310668Y346531D01*
X310643Y346504D01*
X310613Y346474D01*
X310581Y346444D01*
X310545Y346411D01*
X310507Y346381D01*
X310463Y346348D01*
X310417Y346316D01*
X310368Y346286D01*
X310313Y346258D01*
X310256Y346231D01*
X310253Y346228D01*
X310242Y346226D01*
X310223Y346220D01*
X310201Y346212D01*
X310171Y346201D01*
X310138Y346190D01*
X310097Y346179D01*
X310054Y346165D01*
X310005Y346155D01*
X309953Y346141D01*
X309898Y346130D01*
X309838Y346122D01*
X309713Y346105D01*
X309647Y346103D01*
X309581Y346100D01*
X309576D01*
X309565D01*
X309543D01*
X309516Y346103D01*
X309481Y346105D01*
X309439Y346108D01*
X309396Y346114D01*
X309347Y346119D01*
X309295Y346127D01*
X309240Y346135D01*
X309123Y346163D01*
X309066Y346182D01*
X309008Y346201D01*
X308948Y346223D01*
X308893Y346250D01*
X308891Y346253D01*
X308880Y346258D01*
X308866Y346267D01*
X308844Y346277D01*
X308820Y346294D01*
X308792Y346313D01*
X308763Y346335D01*
X308727Y346359D01*
X308694Y346389D01*
X308656Y346419D01*
X308621Y346455D01*
X308582Y346493D01*
X308547Y346534D01*
X308511Y346578D01*
X308478Y346627D01*
X308449Y346676D01*
X308446Y346679D01*
X308443Y346690D01*
X308435Y346703D01*
X308424Y346725D01*
X308413Y346750D01*
X308399Y346782D01*
X308386Y346818D01*
X308372Y346856D01*
X308358Y346900D01*
X308345Y346949D01*
X308331Y346998D01*
X308320Y347053D01*
X308301Y347165D01*
X308298Y347225D01*
X308296Y347288D01*
Y347323D01*
X308298Y347350D01*
X308301Y347383D01*
X308307Y347421D01*
X308312Y347462D01*
X308320Y347509D01*
X308331Y347558D01*
X308342Y347610D01*
X308358Y347661D01*
X308378Y347716D01*
X308399Y347771D01*
X308427Y347823D01*
X308454Y347874D01*
X308489Y347924D01*
X308492Y347926D01*
X308498Y347935D01*
X308509Y347948D01*
X308525Y347965D01*
X308544Y347986D01*
X308569Y348011D01*
X308596Y348036D01*
X308629Y348065D01*
X308664Y348096D01*
X308705Y348126D01*
X308749Y348156D01*
X308798Y348183D01*
X308850Y348213D01*
X308907Y348237D01*
X308967Y348262D01*
X309030Y348284D01*
X309106Y347956D01*
X309104D01*
X309096Y347951D01*
X309079Y347948D01*
X309060Y347940D01*
X309038Y347932D01*
X309014Y347918D01*
X308954Y347891D01*
X308888Y347855D01*
X308820Y347809D01*
X308757Y347760D01*
X308730Y347730D01*
X308705Y347700D01*
X308702Y347697D01*
X308700Y347691D01*
X308694Y347683D01*
X308686Y347670D01*
X308675Y347653D01*
X308664Y347634D01*
X308653Y347612D01*
X308642Y347585D01*
X308631Y347555D01*
X308621Y347525D01*
X308599Y347454D01*
X308585Y347372D01*
X308580Y347328D01*
Y347255D01*
X308582Y347233D01*
X308585Y347208D01*
X308588Y347178D01*
X308591Y347146D01*
X308596Y347113D01*
X308615Y347034D01*
X308640Y346952D01*
X308656Y346911D01*
X308675Y346870D01*
X308697Y346832D01*
X308721Y346793D01*
X308724Y346791D01*
X308727Y346785D01*
X308735Y346774D01*
X308746Y346761D01*
X308760Y346747D01*
X308779Y346728D01*
X308798Y346709D01*
X308820Y346687D01*
X308847Y346665D01*
X308874Y346640D01*
X308937Y346597D01*
X309011Y346556D01*
X309096Y346520D01*
X309098D01*
X309106Y346518D01*
X309120Y346512D01*
X309137Y346510D01*
X309158Y346504D01*
X309183Y346496D01*
X309213Y346490D01*
X309243Y346482D01*
X309278Y346474D01*
X309317Y346468D01*
X309399Y346455D01*
X309486Y346447D01*
X309579Y346444D01*
X309581D01*
X309592D01*
X309609D01*
X309633Y346447D01*
X309661D01*
X309693Y346449D01*
X309729Y346452D01*
X309770Y346455D01*
X309813Y346460D01*
X309857Y346466D01*
X309953Y346482D01*
X310048Y346507D01*
X310141Y346537D01*
X310144D01*
X310152Y346542D01*
X310163Y346548D01*
X310179Y346553D01*
X310201Y346564D01*
X310223Y346578D01*
X310275Y346608D01*
X310335Y346649D01*
X310392Y346698D01*
X310450Y346758D01*
X310474Y346791D01*
X310499Y346826D01*
Y346829D01*
X310504Y346834D01*
X310510Y346845D01*
X310518Y346862D01*
X310526Y346881D01*
X310537Y346903D01*
X310545Y346927D01*
X310556Y346954D01*
X310578Y347017D01*
X310597Y347091D01*
X310611Y347170D01*
X310613Y347211D01*
X310616Y347255D01*
Y347282D01*
X310613Y347301D01*
X310611Y347326D01*
X310608Y347353D01*
X310602Y347386D01*
X310597Y347418D01*
X310578Y347495D01*
X310564Y347533D01*
X310548Y347574D01*
X310529Y347615D01*
X310507Y347653D01*
X310482Y347691D01*
X310455Y347730D01*
X310452Y347732D01*
X310447Y347738D01*
X310439Y347749D01*
X310425Y347762D01*
X310409Y347776D01*
X310387Y347795D01*
X310362Y347814D01*
X310335Y347836D01*
X310302Y347858D01*
X310267Y347880D01*
X310228Y347902D01*
X310185Y347924D01*
X310138Y347943D01*
X310086Y347962D01*
X310032Y347981D01*
X309975Y347995D01*
X310059Y348328D01*
X310065D01*
X310078Y348322D01*
D02*
G37*
G36*
X350084Y359197D02*
X350120Y359195D01*
X350161Y359192D01*
X350204Y359186D01*
X350253Y359181D01*
X350305Y359173D01*
X350360Y359165D01*
X350477Y359137D01*
X350535Y359118D01*
X350592Y359099D01*
X350652Y359077D01*
X350707Y359050D01*
X350709Y359047D01*
X350720Y359042D01*
X350734Y359033D01*
X350756Y359023D01*
X350780Y359006D01*
X350807Y358987D01*
X350838Y358965D01*
X350873Y358941D01*
X350906Y358911D01*
X350944Y358881D01*
X350979Y358845D01*
X351018Y358807D01*
X351053Y358766D01*
X351089Y358722D01*
X351121Y358673D01*
X351151Y358624D01*
X351154Y358621D01*
X351157Y358610D01*
X351165Y358597D01*
X351176Y358575D01*
X351187Y358550D01*
X351201Y358518D01*
X351214Y358482D01*
X351228Y358444D01*
X351242Y358400D01*
X351255Y358351D01*
X351269Y358302D01*
X351280Y358247D01*
X351299Y358135D01*
X351302Y358075D01*
X351304Y358013D01*
Y357977D01*
X351302Y357950D01*
X351299Y357917D01*
X351293Y357879D01*
X351288Y357838D01*
X351280Y357791D01*
X351269Y357742D01*
X351258Y357690D01*
X351242Y357639D01*
X351222Y357584D01*
X351201Y357529D01*
X351173Y357477D01*
X351146Y357425D01*
X351111Y357376D01*
X351108Y357374D01*
X351102Y357365D01*
X351091Y357352D01*
X351075Y357335D01*
X351056Y357314D01*
X351031Y357289D01*
X351004Y357264D01*
X350971Y357234D01*
X350936Y357204D01*
X350895Y357174D01*
X350851Y357144D01*
X350802Y357117D01*
X350750Y357087D01*
X350693Y357062D01*
X350633Y357038D01*
X350570Y357016D01*
X350494Y357344D01*
X350496D01*
X350504Y357349D01*
X350521Y357352D01*
X350540Y357360D01*
X350562Y357368D01*
X350586Y357382D01*
X350646Y357409D01*
X350712Y357445D01*
X350780Y357491D01*
X350843Y357540D01*
X350870Y357570D01*
X350895Y357600D01*
X350898Y357603D01*
X350900Y357608D01*
X350906Y357617D01*
X350914Y357630D01*
X350925Y357647D01*
X350936Y357666D01*
X350947Y357688D01*
X350958Y357715D01*
X350969Y357745D01*
X350979Y357775D01*
X351001Y357846D01*
X351015Y357928D01*
X351021Y357972D01*
Y358045D01*
X351018Y358067D01*
X351015Y358092D01*
X351012Y358122D01*
X351009Y358154D01*
X351004Y358187D01*
X350985Y358266D01*
X350960Y358348D01*
X350944Y358389D01*
X350925Y358430D01*
X350903Y358468D01*
X350879Y358507D01*
X350876Y358509D01*
X350873Y358515D01*
X350865Y358526D01*
X350854Y358539D01*
X350840Y358553D01*
X350821Y358572D01*
X350802Y358591D01*
X350780Y358613D01*
X350753Y358635D01*
X350726Y358660D01*
X350663Y358703D01*
X350589Y358744D01*
X350504Y358780D01*
X350502D01*
X350494Y358782D01*
X350480Y358788D01*
X350464Y358790D01*
X350442Y358796D01*
X350417Y358804D01*
X350387Y358810D01*
X350357Y358818D01*
X350322Y358826D01*
X350283Y358832D01*
X350202Y358845D01*
X350114Y358853D01*
X350021Y358856D01*
X350019D01*
X350008D01*
X349991D01*
X349967Y358853D01*
X349939D01*
X349907Y358851D01*
X349871Y358848D01*
X349830Y358845D01*
X349786Y358840D01*
X349743Y358834D01*
X349647Y358818D01*
X349552Y358793D01*
X349459Y358763D01*
X349456D01*
X349448Y358758D01*
X349437Y358752D01*
X349421Y358747D01*
X349399Y358736D01*
X349377Y358722D01*
X349325Y358692D01*
X349265Y358651D01*
X349208Y358602D01*
X349150Y358542D01*
X349126Y358509D01*
X349101Y358474D01*
Y358471D01*
X349096Y358466D01*
X349090Y358455D01*
X349082Y358438D01*
X349074Y358419D01*
X349063Y358397D01*
X349055Y358373D01*
X349044Y358346D01*
X349022Y358283D01*
X349003Y358209D01*
X348989Y358130D01*
X348987Y358089D01*
X348984Y358045D01*
Y358018D01*
X348987Y357999D01*
X348989Y357974D01*
X348992Y357947D01*
X348997Y357914D01*
X349003Y357881D01*
X349022Y357805D01*
X349036Y357767D01*
X349052Y357726D01*
X349071Y357685D01*
X349093Y357647D01*
X349118Y357608D01*
X349145Y357570D01*
X349148Y357568D01*
X349153Y357562D01*
X349161Y357551D01*
X349175Y357538D01*
X349191Y357524D01*
X349213Y357505D01*
X349238Y357486D01*
X349265Y357464D01*
X349298Y357442D01*
X349333Y357420D01*
X349372Y357398D01*
X349415Y357376D01*
X349462Y357357D01*
X349514Y357338D01*
X349568Y357319D01*
X349625Y357305D01*
X349541Y356972D01*
X349535D01*
X349522Y356978D01*
X349503Y356983D01*
X349473Y356994D01*
X349440Y357005D01*
X349399Y357021D01*
X349355Y357038D01*
X349309Y357060D01*
X349257Y357084D01*
X349208Y357112D01*
X349153Y357142D01*
X349101Y357177D01*
X349052Y357215D01*
X349003Y357256D01*
X348957Y357303D01*
X348913Y357352D01*
X348910Y357355D01*
X348905Y357365D01*
X348894Y357379D01*
X348880Y357401D01*
X348864Y357425D01*
X348845Y357458D01*
X348826Y357494D01*
X348806Y357538D01*
X348787Y357584D01*
X348768Y357633D01*
X348749Y357688D01*
X348733Y357748D01*
X348719Y357810D01*
X348708Y357876D01*
X348703Y357944D01*
X348700Y358018D01*
Y358056D01*
X348703Y358086D01*
X348705Y358119D01*
X348708Y358160D01*
X348714Y358204D01*
X348722Y358253D01*
X348730Y358305D01*
X348741Y358359D01*
X348755Y358414D01*
X348768Y358468D01*
X348787Y358526D01*
X348809Y358580D01*
X348834Y358632D01*
X348864Y358681D01*
X348867Y358684D01*
X348872Y358692D01*
X348880Y358706D01*
X348894Y358722D01*
X348913Y358744D01*
X348932Y358769D01*
X348957Y358796D01*
X348987Y358826D01*
X349019Y358856D01*
X349055Y358889D01*
X349093Y358919D01*
X349137Y358952D01*
X349183Y358984D01*
X349232Y359014D01*
X349287Y359042D01*
X349344Y359069D01*
X349347Y359072D01*
X349358Y359074D01*
X349377Y359080D01*
X349399Y359088D01*
X349429Y359099D01*
X349462Y359110D01*
X349503Y359121D01*
X349546Y359135D01*
X349595Y359145D01*
X349647Y359159D01*
X349702Y359170D01*
X349762Y359178D01*
X349887Y359195D01*
X349953Y359197D01*
X350019Y359200D01*
X350024D01*
X350035D01*
X350057D01*
X350084Y359197D01*
D02*
G37*
G36*
X350638Y356448D02*
X350641Y356440D01*
X350649Y356426D01*
X350657Y356407D01*
X350668Y356385D01*
X350685Y356358D01*
X350701Y356328D01*
X350717Y356298D01*
X350761Y356227D01*
X350813Y356151D01*
X350868Y356071D01*
X350930Y355998D01*
X350933Y355995D01*
X350939Y355990D01*
X350947Y355979D01*
X350960Y355965D01*
X350977Y355951D01*
X350993Y355932D01*
X351040Y355891D01*
X351089Y355845D01*
X351146Y355799D01*
X351206Y355757D01*
X351269Y355722D01*
Y355523D01*
X348741D01*
Y355831D01*
X350709D01*
X350704Y355837D01*
X350690Y355850D01*
X350671Y355875D01*
X350644Y355910D01*
X350611Y355951D01*
X350575Y356003D01*
X350537Y356061D01*
X350496Y356126D01*
Y356129D01*
X350491Y356134D01*
X350485Y356142D01*
X350480Y356156D01*
X350469Y356172D01*
X350461Y356192D01*
X350436Y356235D01*
X350412Y356284D01*
X350384Y356339D01*
X350360Y356396D01*
X350338Y356451D01*
X350636D01*
X350638Y356448D01*
D02*
G37*
G36*
X350057Y354726D02*
X350095D01*
X350139Y354723D01*
X350188Y354720D01*
X350240Y354717D01*
X350297Y354712D01*
X350354Y354707D01*
X350475Y354690D01*
X350592Y354668D01*
X350649Y354655D01*
X350701Y354638D01*
X350704D01*
X350712Y354633D01*
X350728Y354627D01*
X350747Y354622D01*
X350769Y354611D01*
X350797Y354600D01*
X350824Y354586D01*
X350857Y354570D01*
X350925Y354532D01*
X350993Y354483D01*
X351061Y354428D01*
X351091Y354398D01*
X351121Y354365D01*
X351124Y354363D01*
X351127Y354357D01*
X351135Y354346D01*
X351143Y354332D01*
X351157Y354316D01*
X351168Y354294D01*
X351182Y354270D01*
X351195Y354240D01*
X351209Y354210D01*
X351222Y354174D01*
X351236Y354136D01*
X351247Y354098D01*
X351255Y354054D01*
X351263Y354008D01*
X351266Y353958D01*
X351269Y353909D01*
Y353876D01*
X351266Y353857D01*
X351263Y353838D01*
X351258Y353789D01*
X351250Y353735D01*
X351233Y353675D01*
X351214Y353614D01*
X351187Y353554D01*
Y353552D01*
X351184Y353546D01*
X351179Y353538D01*
X351171Y353527D01*
X351154Y353500D01*
X351127Y353464D01*
X351094Y353423D01*
X351053Y353382D01*
X351004Y353339D01*
X350950Y353300D01*
X350947D01*
X350941Y353295D01*
X350933Y353292D01*
X350922Y353284D01*
X350908Y353276D01*
X350889Y353265D01*
X350868Y353257D01*
X350846Y353243D01*
X350791Y353219D01*
X350728Y353194D01*
X350655Y353167D01*
X350575Y353145D01*
X350573D01*
X350565Y353142D01*
X350554Y353139D01*
X350535Y353137D01*
X350513Y353131D01*
X350485Y353126D01*
X350455Y353120D01*
X350420Y353115D01*
X350379Y353112D01*
X350335Y353107D01*
X350286Y353101D01*
X350234Y353096D01*
X350177Y353093D01*
X350117Y353090D01*
X350051Y353088D01*
X349983D01*
X349978D01*
X349964D01*
X349939D01*
X349909D01*
X349871Y353090D01*
X349830Y353093D01*
X349781Y353096D01*
X349729Y353099D01*
X349672Y353104D01*
X349615Y353109D01*
X349494Y353126D01*
X349377Y353150D01*
X349320Y353164D01*
X349268Y353180D01*
X349265D01*
X349257Y353186D01*
X349240Y353189D01*
X349224Y353197D01*
X349200Y353208D01*
X349175Y353219D01*
X349145Y353232D01*
X349112Y353249D01*
X349044Y353287D01*
X348976Y353333D01*
X348907Y353388D01*
X348877Y353421D01*
X348847Y353453D01*
X348845Y353456D01*
X348842Y353462D01*
X348834Y353472D01*
X348826Y353486D01*
X348815Y353502D01*
X348801Y353524D01*
X348787Y353549D01*
X348774Y353579D01*
X348760Y353609D01*
X348746Y353644D01*
X348735Y353680D01*
X348722Y353721D01*
X348714Y353765D01*
X348705Y353811D01*
X348703Y353857D01*
X348700Y353909D01*
Y353926D01*
X348703Y353945D01*
X348705Y353969D01*
X348708Y353999D01*
X348714Y354035D01*
X348722Y354073D01*
X348733Y354117D01*
X348746Y354160D01*
X348763Y354207D01*
X348785Y354256D01*
X348809Y354302D01*
X348839Y354349D01*
X348875Y354395D01*
X348913Y354439D01*
X348959Y354480D01*
X348962Y354483D01*
X348973Y354491D01*
X348992Y354502D01*
X349019Y354518D01*
X349055Y354537D01*
X349096Y354559D01*
X349148Y354581D01*
X349205Y354603D01*
X349273Y354627D01*
X349347Y354649D01*
X349432Y354671D01*
X349524Y354690D01*
X349625Y354707D01*
X349735Y354717D01*
X349855Y354726D01*
X349983Y354728D01*
X349989D01*
X350002D01*
X350027D01*
X350057Y354726D01*
D02*
G37*
G36*
X350084Y346297D02*
X350119Y346295D01*
X350161Y346292D01*
X350204Y346286D01*
X350253Y346281D01*
X350305Y346273D01*
X350360Y346265D01*
X350477Y346237D01*
X350535Y346218D01*
X350592Y346199D01*
X350652Y346177D01*
X350707Y346150D01*
X350709Y346147D01*
X350720Y346142D01*
X350734Y346133D01*
X350756Y346123D01*
X350780Y346106D01*
X350807Y346087D01*
X350837Y346065D01*
X350873Y346041D01*
X350906Y346011D01*
X350944Y345981D01*
X350979Y345945D01*
X351018Y345907D01*
X351053Y345866D01*
X351089Y345822D01*
X351121Y345773D01*
X351151Y345724D01*
X351154Y345721D01*
X351157Y345710D01*
X351165Y345697D01*
X351176Y345675D01*
X351187Y345650D01*
X351201Y345618D01*
X351214Y345582D01*
X351228Y345544D01*
X351242Y345500D01*
X351255Y345451D01*
X351269Y345402D01*
X351280Y345347D01*
X351299Y345235D01*
X351302Y345175D01*
X351304Y345112D01*
Y345077D01*
X351302Y345050D01*
X351299Y345017D01*
X351293Y344979D01*
X351288Y344938D01*
X351280Y344891D01*
X351269Y344842D01*
X351258Y344790D01*
X351242Y344739D01*
X351222Y344684D01*
X351201Y344629D01*
X351173Y344577D01*
X351146Y344526D01*
X351111Y344476D01*
X351108Y344474D01*
X351102Y344465D01*
X351091Y344452D01*
X351075Y344436D01*
X351056Y344414D01*
X351031Y344389D01*
X351004Y344365D01*
X350971Y344335D01*
X350936Y344304D01*
X350895Y344274D01*
X350851Y344244D01*
X350802Y344217D01*
X350750Y344187D01*
X350693Y344163D01*
X350633Y344138D01*
X350570Y344116D01*
X350494Y344444D01*
X350496D01*
X350504Y344449D01*
X350521Y344452D01*
X350540Y344460D01*
X350562Y344468D01*
X350586Y344482D01*
X350646Y344509D01*
X350712Y344545D01*
X350780Y344591D01*
X350843Y344640D01*
X350870Y344670D01*
X350895Y344700D01*
X350898Y344703D01*
X350900Y344708D01*
X350906Y344717D01*
X350914Y344730D01*
X350925Y344747D01*
X350936Y344766D01*
X350947Y344788D01*
X350958Y344815D01*
X350969Y344845D01*
X350979Y344875D01*
X351001Y344946D01*
X351015Y345028D01*
X351020Y345072D01*
Y345145D01*
X351018Y345167D01*
X351015Y345192D01*
X351012Y345222D01*
X351009Y345254D01*
X351004Y345287D01*
X350985Y345366D01*
X350960Y345448D01*
X350944Y345489D01*
X350925Y345530D01*
X350903Y345568D01*
X350879Y345607D01*
X350876Y345609D01*
X350873Y345615D01*
X350865Y345626D01*
X350854Y345639D01*
X350840Y345653D01*
X350821Y345672D01*
X350802Y345691D01*
X350780Y345713D01*
X350753Y345735D01*
X350726Y345760D01*
X350663Y345803D01*
X350589Y345844D01*
X350504Y345880D01*
X350502D01*
X350494Y345882D01*
X350480Y345888D01*
X350464Y345890D01*
X350442Y345896D01*
X350417Y345904D01*
X350387Y345910D01*
X350357Y345918D01*
X350322Y345926D01*
X350283Y345932D01*
X350202Y345945D01*
X350114Y345953D01*
X350021Y345956D01*
X350019D01*
X350008D01*
X349991D01*
X349967Y345953D01*
X349939D01*
X349907Y345951D01*
X349871Y345948D01*
X349830Y345945D01*
X349786Y345940D01*
X349743Y345934D01*
X349647Y345918D01*
X349552Y345893D01*
X349459Y345863D01*
X349456D01*
X349448Y345858D01*
X349437Y345852D01*
X349421Y345847D01*
X349399Y345836D01*
X349377Y345822D01*
X349325Y345792D01*
X349265Y345751D01*
X349208Y345702D01*
X349150Y345642D01*
X349126Y345609D01*
X349101Y345574D01*
Y345571D01*
X349096Y345566D01*
X349090Y345555D01*
X349082Y345538D01*
X349074Y345519D01*
X349063Y345497D01*
X349055Y345473D01*
X349044Y345446D01*
X349022Y345383D01*
X349003Y345309D01*
X348989Y345230D01*
X348987Y345189D01*
X348984Y345145D01*
Y345118D01*
X348987Y345099D01*
X348989Y345074D01*
X348992Y345047D01*
X348997Y345014D01*
X349003Y344982D01*
X349022Y344905D01*
X349036Y344867D01*
X349052Y344826D01*
X349071Y344785D01*
X349093Y344747D01*
X349118Y344708D01*
X349145Y344670D01*
X349148Y344668D01*
X349153Y344662D01*
X349161Y344651D01*
X349175Y344637D01*
X349191Y344624D01*
X349213Y344605D01*
X349238Y344586D01*
X349265Y344564D01*
X349298Y344542D01*
X349333Y344520D01*
X349372Y344498D01*
X349415Y344476D01*
X349462Y344457D01*
X349514Y344438D01*
X349568Y344419D01*
X349625Y344405D01*
X349541Y344072D01*
X349535D01*
X349522Y344078D01*
X349503Y344083D01*
X349472Y344094D01*
X349440Y344105D01*
X349399Y344122D01*
X349355Y344138D01*
X349309Y344160D01*
X349257Y344184D01*
X349208Y344212D01*
X349153Y344242D01*
X349101Y344277D01*
X349052Y344315D01*
X349003Y344356D01*
X348957Y344403D01*
X348913Y344452D01*
X348910Y344455D01*
X348905Y344465D01*
X348894Y344479D01*
X348880Y344501D01*
X348864Y344526D01*
X348845Y344558D01*
X348826Y344594D01*
X348806Y344637D01*
X348787Y344684D01*
X348768Y344733D01*
X348749Y344788D01*
X348733Y344848D01*
X348719Y344911D01*
X348708Y344976D01*
X348703Y345044D01*
X348700Y345118D01*
Y345156D01*
X348703Y345186D01*
X348705Y345219D01*
X348708Y345260D01*
X348714Y345304D01*
X348722Y345353D01*
X348730Y345405D01*
X348741Y345459D01*
X348755Y345514D01*
X348768Y345568D01*
X348787Y345626D01*
X348809Y345680D01*
X348834Y345732D01*
X348864Y345781D01*
X348867Y345784D01*
X348872Y345792D01*
X348880Y345806D01*
X348894Y345822D01*
X348913Y345844D01*
X348932Y345869D01*
X348957Y345896D01*
X348987Y345926D01*
X349019Y345956D01*
X349055Y345989D01*
X349093Y346019D01*
X349137Y346052D01*
X349183Y346084D01*
X349232Y346114D01*
X349287Y346142D01*
X349344Y346169D01*
X349347Y346172D01*
X349358Y346175D01*
X349377Y346180D01*
X349399Y346188D01*
X349429Y346199D01*
X349462Y346210D01*
X349503Y346221D01*
X349546Y346234D01*
X349595Y346245D01*
X349647Y346259D01*
X349702Y346270D01*
X349762Y346278D01*
X349887Y346295D01*
X349953Y346297D01*
X350019Y346300D01*
X350024D01*
X350035D01*
X350057D01*
X350084Y346297D01*
D02*
G37*
G36*
X351228Y342137D02*
X350985D01*
X350982Y342140D01*
X350974Y342148D01*
X350958Y342161D01*
X350939Y342178D01*
X350911Y342200D01*
X350881Y342227D01*
X350846Y342254D01*
X350805Y342287D01*
X350758Y342322D01*
X350707Y342361D01*
X350649Y342402D01*
X350589Y342443D01*
X350526Y342483D01*
X350455Y342527D01*
X350382Y342574D01*
X350305Y342617D01*
X350300Y342620D01*
X350286Y342628D01*
X350264Y342639D01*
X350232Y342655D01*
X350193Y342675D01*
X350147Y342699D01*
X350095Y342724D01*
X350038Y342751D01*
X349975Y342778D01*
X349907Y342808D01*
X349833Y342838D01*
X349759Y342868D01*
X349680Y342899D01*
X349598Y342929D01*
X349432Y342980D01*
X349429D01*
X349418Y342983D01*
X349399Y342989D01*
X349377Y342994D01*
X349347Y343002D01*
X349311Y343010D01*
X349271Y343021D01*
X349227Y343029D01*
X349178Y343040D01*
X349123Y343049D01*
X349066Y343059D01*
X349006Y343068D01*
X348943Y343079D01*
X348877Y343087D01*
X348741Y343098D01*
Y343414D01*
X348744D01*
X348755D01*
X348771D01*
X348793Y343412D01*
X348823Y343409D01*
X348856Y343406D01*
X348897Y343404D01*
X348940Y343398D01*
X348992Y343393D01*
X349044Y343384D01*
X349104Y343376D01*
X349167Y343365D01*
X349235Y343352D01*
X349306Y343338D01*
X349380Y343319D01*
X349456Y343300D01*
X349462Y343297D01*
X349475Y343294D01*
X349497Y343289D01*
X349527Y343278D01*
X349565Y343267D01*
X349612Y343253D01*
X349661Y343237D01*
X349715Y343218D01*
X349776Y343196D01*
X349841Y343172D01*
X349909Y343147D01*
X349978Y343117D01*
X350122Y343054D01*
X350270Y342980D01*
X350275Y342978D01*
X350286Y342969D01*
X350308Y342958D01*
X350335Y342945D01*
X350368Y342923D01*
X350406Y342901D01*
X350450Y342874D01*
X350499Y342847D01*
X350548Y342814D01*
X350603Y342778D01*
X350712Y342702D01*
X350824Y342620D01*
X350879Y342576D01*
X350930Y342533D01*
Y343767D01*
X351228D01*
Y342137D01*
D02*
G37*
G36*
X310859Y373164D02*
X308891D01*
X308896Y373159D01*
X308910Y373145D01*
X308929Y373120D01*
X308956Y373085D01*
X308989Y373044D01*
X309025Y372992D01*
X309063Y372935D01*
X309104Y372869D01*
Y372866D01*
X309109Y372861D01*
X309115Y372853D01*
X309120Y372839D01*
X309131Y372823D01*
X309139Y372804D01*
X309164Y372760D01*
X309188Y372711D01*
X309216Y372656D01*
X309240Y372599D01*
X309262Y372544D01*
X308964D01*
X308962Y372547D01*
X308959Y372555D01*
X308951Y372569D01*
X308943Y372588D01*
X308932Y372610D01*
X308915Y372637D01*
X308899Y372667D01*
X308882Y372697D01*
X308839Y372768D01*
X308787Y372845D01*
X308732Y372924D01*
X308670Y372997D01*
X308667Y373000D01*
X308661Y373006D01*
X308653Y373017D01*
X308640Y373030D01*
X308623Y373044D01*
X308607Y373063D01*
X308560Y373104D01*
X308511Y373150D01*
X308454Y373197D01*
X308394Y373238D01*
X308331Y373273D01*
Y373472D01*
X310859D01*
Y373164D01*
D02*
G37*
G36*
Y371207D02*
X308891D01*
X308896Y371201D01*
X308910Y371187D01*
X308929Y371163D01*
X308956Y371127D01*
X308989Y371087D01*
X309025Y371035D01*
X309063Y370977D01*
X309104Y370912D01*
Y370909D01*
X309109Y370903D01*
X309115Y370895D01*
X309120Y370882D01*
X309131Y370865D01*
X309139Y370846D01*
X309164Y370802D01*
X309188Y370753D01*
X309216Y370699D01*
X309240Y370641D01*
X309262Y370587D01*
X308964D01*
X308962Y370590D01*
X308959Y370598D01*
X308951Y370611D01*
X308943Y370631D01*
X308932Y370652D01*
X308915Y370680D01*
X308899Y370710D01*
X308882Y370740D01*
X308839Y370811D01*
X308787Y370887D01*
X308732Y370966D01*
X308670Y371040D01*
X308667Y371043D01*
X308661Y371048D01*
X308653Y371059D01*
X308640Y371073D01*
X308623Y371087D01*
X308607Y371106D01*
X308560Y371146D01*
X308511Y371193D01*
X308454Y371239D01*
X308394Y371280D01*
X308331Y371316D01*
Y371515D01*
X310859D01*
Y371207D01*
D02*
G37*
G36*
X310078Y370060D02*
X310097Y370055D01*
X310127Y370044D01*
X310160Y370033D01*
X310201Y370016D01*
X310245Y370000D01*
X310291Y369978D01*
X310343Y369953D01*
X310392Y369926D01*
X310447Y369896D01*
X310499Y369861D01*
X310548Y369823D01*
X310597Y369781D01*
X310643Y369735D01*
X310687Y369686D01*
X310690Y369683D01*
X310695Y369672D01*
X310706Y369659D01*
X310720Y369637D01*
X310736Y369612D01*
X310755Y369580D01*
X310774Y369544D01*
X310794Y369500D01*
X310813Y369454D01*
X310832Y369405D01*
X310851Y369350D01*
X310867Y369290D01*
X310881Y369227D01*
X310892Y369162D01*
X310897Y369094D01*
X310900Y369020D01*
Y368982D01*
X310897Y368952D01*
X310895Y368919D01*
X310892Y368878D01*
X310886Y368834D01*
X310878Y368785D01*
X310870Y368733D01*
X310859Y368679D01*
X310845Y368624D01*
X310832Y368569D01*
X310813Y368512D01*
X310791Y368458D01*
X310766Y368406D01*
X310736Y368356D01*
X310734Y368354D01*
X310728Y368345D01*
X310720Y368332D01*
X310706Y368316D01*
X310687Y368294D01*
X310668Y368269D01*
X310643Y368242D01*
X310613Y368212D01*
X310581Y368182D01*
X310545Y368149D01*
X310507Y368119D01*
X310463Y368086D01*
X310417Y368053D01*
X310368Y368023D01*
X310313Y367996D01*
X310256Y367969D01*
X310253Y367966D01*
X310242Y367963D01*
X310223Y367958D01*
X310201Y367950D01*
X310171Y367939D01*
X310138Y367928D01*
X310097Y367917D01*
X310054Y367903D01*
X310005Y367892D01*
X309953Y367879D01*
X309898Y367868D01*
X309838Y367860D01*
X309713Y367843D01*
X309647Y367841D01*
X309581Y367838D01*
X309576D01*
X309565D01*
X309543D01*
X309516Y367841D01*
X309480Y367843D01*
X309439Y367846D01*
X309396Y367851D01*
X309347Y367857D01*
X309295Y367865D01*
X309240Y367873D01*
X309123Y367901D01*
X309066Y367920D01*
X309008Y367939D01*
X308948Y367961D01*
X308893Y367988D01*
X308891Y367991D01*
X308880Y367996D01*
X308866Y368004D01*
X308844Y368015D01*
X308820Y368032D01*
X308792Y368051D01*
X308762Y368073D01*
X308727Y368097D01*
X308694Y368127D01*
X308656Y368157D01*
X308621Y368193D01*
X308582Y368231D01*
X308547Y368272D01*
X308511Y368316D01*
X308478Y368365D01*
X308449Y368414D01*
X308446Y368417D01*
X308443Y368427D01*
X308435Y368441D01*
X308424Y368463D01*
X308413Y368488D01*
X308399Y368520D01*
X308386Y368556D01*
X308372Y368594D01*
X308358Y368638D01*
X308345Y368687D01*
X308331Y368736D01*
X308320Y368791D01*
X308301Y368902D01*
X308298Y368963D01*
X308296Y369025D01*
Y369061D01*
X308298Y369088D01*
X308301Y369121D01*
X308307Y369159D01*
X308312Y369200D01*
X308320Y369246D01*
X308331Y369296D01*
X308342Y369347D01*
X308358Y369399D01*
X308378Y369454D01*
X308399Y369509D01*
X308427Y369560D01*
X308454Y369612D01*
X308489Y369661D01*
X308492Y369664D01*
X308498Y369672D01*
X308508Y369686D01*
X308525Y369702D01*
X308544Y369724D01*
X308569Y369749D01*
X308596Y369773D01*
X308629Y369803D01*
X308664Y369833D01*
X308705Y369863D01*
X308749Y369893D01*
X308798Y369921D01*
X308850Y369951D01*
X308907Y369975D01*
X308967Y370000D01*
X309030Y370022D01*
X309106Y369694D01*
X309104D01*
X309096Y369689D01*
X309079Y369686D01*
X309060Y369678D01*
X309038Y369670D01*
X309014Y369656D01*
X308953Y369629D01*
X308888Y369593D01*
X308820Y369547D01*
X308757Y369498D01*
X308730Y369468D01*
X308705Y369438D01*
X308702Y369435D01*
X308700Y369429D01*
X308694Y369421D01*
X308686Y369408D01*
X308675Y369391D01*
X308664Y369372D01*
X308653Y369350D01*
X308642Y369323D01*
X308631Y369293D01*
X308621Y369263D01*
X308599Y369192D01*
X308585Y369110D01*
X308579Y369066D01*
Y368992D01*
X308582Y368971D01*
X308585Y368946D01*
X308588Y368916D01*
X308590Y368883D01*
X308596Y368851D01*
X308615Y368771D01*
X308640Y368689D01*
X308656Y368649D01*
X308675Y368608D01*
X308697Y368569D01*
X308721Y368531D01*
X308724Y368529D01*
X308727Y368523D01*
X308735Y368512D01*
X308746Y368498D01*
X308760Y368485D01*
X308779Y368466D01*
X308798Y368446D01*
X308820Y368425D01*
X308847Y368403D01*
X308874Y368378D01*
X308937Y368335D01*
X309011Y368294D01*
X309096Y368258D01*
X309098D01*
X309106Y368255D01*
X309120Y368250D01*
X309136Y368247D01*
X309158Y368242D01*
X309183Y368234D01*
X309213Y368228D01*
X309243Y368220D01*
X309278Y368212D01*
X309317Y368206D01*
X309399Y368193D01*
X309486Y368184D01*
X309579Y368182D01*
X309581D01*
X309592D01*
X309609D01*
X309633Y368184D01*
X309661D01*
X309693Y368187D01*
X309729Y368190D01*
X309770Y368193D01*
X309813Y368198D01*
X309857Y368204D01*
X309953Y368220D01*
X310048Y368245D01*
X310141Y368275D01*
X310144D01*
X310152Y368280D01*
X310163Y368285D01*
X310179Y368291D01*
X310201Y368302D01*
X310223Y368316D01*
X310275Y368345D01*
X310335Y368387D01*
X310392Y368436D01*
X310450Y368496D01*
X310474Y368529D01*
X310499Y368564D01*
Y368567D01*
X310504Y368572D01*
X310510Y368583D01*
X310518Y368599D01*
X310526Y368618D01*
X310537Y368640D01*
X310545Y368665D01*
X310556Y368692D01*
X310578Y368755D01*
X310597Y368829D01*
X310611Y368908D01*
X310613Y368949D01*
X310616Y368992D01*
Y369020D01*
X310613Y369039D01*
X310611Y369063D01*
X310608Y369091D01*
X310602Y369124D01*
X310597Y369156D01*
X310578Y369233D01*
X310564Y369271D01*
X310548Y369312D01*
X310529Y369353D01*
X310507Y369391D01*
X310482Y369429D01*
X310455Y369468D01*
X310452Y369470D01*
X310447Y369476D01*
X310439Y369487D01*
X310425Y369500D01*
X310409Y369514D01*
X310387Y369533D01*
X310362Y369552D01*
X310335Y369574D01*
X310302Y369596D01*
X310267Y369618D01*
X310228Y369640D01*
X310185Y369661D01*
X310138Y369681D01*
X310086Y369700D01*
X310032Y369719D01*
X309975Y369732D01*
X310059Y370065D01*
X310065D01*
X310078Y370060D01*
D02*
G37*
G36*
X339648Y338797D02*
X339681Y338795D01*
X339722Y338792D01*
X339766Y338786D01*
X339815Y338778D01*
X339867Y338770D01*
X339921Y338759D01*
X339976Y338745D01*
X340031Y338732D01*
X340088Y338713D01*
X340142Y338691D01*
X340194Y338666D01*
X340244Y338636D01*
X340246Y338633D01*
X340254Y338628D01*
X340268Y338620D01*
X340284Y338606D01*
X340306Y338587D01*
X340331Y338568D01*
X340358Y338543D01*
X340388Y338513D01*
X340418Y338481D01*
X340451Y338445D01*
X340481Y338407D01*
X340514Y338363D01*
X340547Y338317D01*
X340577Y338268D01*
X340604Y338213D01*
X340631Y338156D01*
X340634Y338153D01*
X340637Y338142D01*
X340642Y338123D01*
X340650Y338101D01*
X340661Y338071D01*
X340672Y338038D01*
X340683Y337997D01*
X340697Y337954D01*
X340708Y337905D01*
X340721Y337853D01*
X340732Y337798D01*
X340740Y337738D01*
X340757Y337613D01*
X340759Y337547D01*
X340762Y337481D01*
Y337476D01*
Y337465D01*
Y337443D01*
X340759Y337416D01*
X340757Y337380D01*
X340754Y337339D01*
X340749Y337296D01*
X340743Y337247D01*
X340735Y337195D01*
X340727Y337140D01*
X340699Y337023D01*
X340680Y336965D01*
X340661Y336908D01*
X340639Y336848D01*
X340612Y336793D01*
X340609Y336791D01*
X340604Y336780D01*
X340596Y336766D01*
X340585Y336744D01*
X340568Y336720D01*
X340549Y336693D01*
X340528Y336662D01*
X340503Y336627D01*
X340473Y336594D01*
X340443Y336556D01*
X340407Y336521D01*
X340369Y336482D01*
X340328Y336447D01*
X340284Y336411D01*
X340235Y336379D01*
X340186Y336349D01*
X340183Y336346D01*
X340173Y336343D01*
X340159Y336335D01*
X340137Y336324D01*
X340112Y336313D01*
X340080Y336299D01*
X340044Y336286D01*
X340006Y336272D01*
X339962Y336258D01*
X339913Y336245D01*
X339864Y336231D01*
X339809Y336220D01*
X339698Y336201D01*
X339637Y336198D01*
X339575Y336196D01*
X339539D01*
X339512Y336198D01*
X339479Y336201D01*
X339441Y336207D01*
X339400Y336212D01*
X339354Y336220D01*
X339304Y336231D01*
X339253Y336242D01*
X339201Y336258D01*
X339146Y336278D01*
X339091Y336299D01*
X339040Y336327D01*
X338988Y336354D01*
X338939Y336389D01*
X338936Y336392D01*
X338928Y336398D01*
X338914Y336409D01*
X338898Y336425D01*
X338876Y336444D01*
X338851Y336469D01*
X338827Y336496D01*
X338797Y336529D01*
X338767Y336564D01*
X338737Y336605D01*
X338707Y336649D01*
X338679Y336698D01*
X338649Y336750D01*
X338625Y336807D01*
X338600Y336867D01*
X338578Y336930D01*
X338906Y337006D01*
Y337004D01*
X338911Y336996D01*
X338914Y336979D01*
X338922Y336960D01*
X338930Y336938D01*
X338944Y336914D01*
X338971Y336854D01*
X339007Y336788D01*
X339053Y336720D01*
X339102Y336657D01*
X339132Y336630D01*
X339162Y336605D01*
X339165Y336602D01*
X339171Y336600D01*
X339179Y336594D01*
X339193Y336586D01*
X339209Y336575D01*
X339228Y336564D01*
X339250Y336553D01*
X339277Y336542D01*
X339307Y336531D01*
X339337Y336521D01*
X339408Y336499D01*
X339490Y336485D01*
X339534Y336479D01*
X339608D01*
X339629Y336482D01*
X339654Y336485D01*
X339684Y336488D01*
X339717Y336491D01*
X339749Y336496D01*
X339829Y336515D01*
X339911Y336540D01*
X339951Y336556D01*
X339992Y336575D01*
X340031Y336597D01*
X340069Y336621D01*
X340072Y336624D01*
X340077Y336627D01*
X340088Y336635D01*
X340102Y336646D01*
X340115Y336660D01*
X340134Y336679D01*
X340154Y336698D01*
X340175Y336720D01*
X340197Y336747D01*
X340222Y336774D01*
X340265Y336837D01*
X340306Y336911D01*
X340342Y336996D01*
Y336998D01*
X340345Y337006D01*
X340350Y337020D01*
X340353Y337036D01*
X340358Y337058D01*
X340366Y337083D01*
X340372Y337113D01*
X340380Y337143D01*
X340388Y337178D01*
X340394Y337217D01*
X340407Y337298D01*
X340416Y337386D01*
X340418Y337479D01*
Y337481D01*
Y337492D01*
Y337509D01*
X340416Y337533D01*
Y337561D01*
X340413Y337593D01*
X340410Y337629D01*
X340407Y337670D01*
X340402Y337714D01*
X340396Y337757D01*
X340380Y337853D01*
X340355Y337948D01*
X340325Y338041D01*
Y338044D01*
X340320Y338052D01*
X340315Y338063D01*
X340309Y338079D01*
X340298Y338101D01*
X340284Y338123D01*
X340254Y338175D01*
X340213Y338235D01*
X340164Y338292D01*
X340104Y338350D01*
X340072Y338374D01*
X340036Y338399D01*
X340033D01*
X340028Y338404D01*
X340017Y338410D01*
X340001Y338418D01*
X339982Y338426D01*
X339960Y338437D01*
X339935Y338445D01*
X339908Y338456D01*
X339845Y338478D01*
X339771Y338497D01*
X339692Y338511D01*
X339651Y338513D01*
X339608Y338516D01*
X339580D01*
X339561Y338513D01*
X339536Y338511D01*
X339509Y338508D01*
X339476Y338503D01*
X339444Y338497D01*
X339367Y338478D01*
X339329Y338464D01*
X339288Y338448D01*
X339247Y338429D01*
X339209Y338407D01*
X339171Y338382D01*
X339132Y338355D01*
X339130Y338352D01*
X339124Y338347D01*
X339113Y338339D01*
X339100Y338325D01*
X339086Y338309D01*
X339067Y338287D01*
X339048Y338262D01*
X339026Y338235D01*
X339004Y338202D01*
X338982Y338167D01*
X338960Y338128D01*
X338939Y338085D01*
X338919Y338038D01*
X338900Y337986D01*
X338881Y337932D01*
X338868Y337875D01*
X338535Y337959D01*
Y337965D01*
X338540Y337978D01*
X338545Y337997D01*
X338556Y338027D01*
X338567Y338060D01*
X338584Y338101D01*
X338600Y338145D01*
X338622Y338191D01*
X338647Y338243D01*
X338674Y338292D01*
X338704Y338347D01*
X338739Y338399D01*
X338777Y338448D01*
X338819Y338497D01*
X338865Y338543D01*
X338914Y338587D01*
X338917Y338590D01*
X338928Y338595D01*
X338941Y338606D01*
X338963Y338620D01*
X338988Y338636D01*
X339020Y338655D01*
X339056Y338674D01*
X339100Y338694D01*
X339146Y338713D01*
X339195Y338732D01*
X339250Y338751D01*
X339310Y338767D01*
X339373Y338781D01*
X339438Y338792D01*
X339506Y338797D01*
X339580Y338800D01*
X339618D01*
X339648Y338797D01*
D02*
G37*
G36*
X337393Y336791D02*
X337399Y336796D01*
X337413Y336810D01*
X337437Y336829D01*
X337473Y336856D01*
X337513Y336889D01*
X337565Y336925D01*
X337623Y336963D01*
X337688Y337004D01*
X337691D01*
X337697Y337009D01*
X337705Y337015D01*
X337718Y337020D01*
X337735Y337031D01*
X337754Y337039D01*
X337797Y337064D01*
X337847Y337088D01*
X337901Y337116D01*
X337959Y337140D01*
X338013Y337162D01*
Y336864D01*
X338010Y336862D01*
X338002Y336859D01*
X337989Y336851D01*
X337969Y336843D01*
X337948Y336832D01*
X337920Y336815D01*
X337890Y336799D01*
X337860Y336783D01*
X337789Y336739D01*
X337713Y336687D01*
X337634Y336632D01*
X337560Y336570D01*
X337557Y336567D01*
X337552Y336561D01*
X337541Y336553D01*
X337527Y336540D01*
X337513Y336523D01*
X337494Y336507D01*
X337454Y336460D01*
X337407Y336411D01*
X337361Y336354D01*
X337320Y336294D01*
X337284Y336231D01*
X337085D01*
Y338759D01*
X337393D01*
Y336791D01*
D02*
G37*
G36*
X336334Y338754D02*
Y338740D01*
Y338718D01*
X336331Y338691D01*
X336329Y338658D01*
X336320Y338623D01*
X336312Y338584D01*
X336299Y338546D01*
Y338543D01*
X336296Y338538D01*
X336293Y338530D01*
X336288Y338516D01*
X336280Y338503D01*
X336271Y338483D01*
X336249Y338440D01*
X336222Y338388D01*
X336187Y338331D01*
X336146Y338270D01*
X336097Y338210D01*
X336094Y338208D01*
X336091Y338202D01*
X336083Y338194D01*
X336069Y338180D01*
X336056Y338167D01*
X336037Y338148D01*
X336017Y338126D01*
X335993Y338101D01*
X335966Y338074D01*
X335936Y338047D01*
X335903Y338014D01*
X335865Y337981D01*
X335826Y337946D01*
X335783Y337910D01*
X335739Y337872D01*
X335690Y337831D01*
X335684Y337828D01*
X335671Y337814D01*
X335652Y337798D01*
X335624Y337774D01*
X335592Y337746D01*
X335553Y337714D01*
X335510Y337678D01*
X335466Y337637D01*
X335373Y337552D01*
X335283Y337462D01*
X335239Y337419D01*
X335198Y337375D01*
X335163Y337334D01*
X335133Y337296D01*
X335130Y337293D01*
X335127Y337288D01*
X335119Y337277D01*
X335111Y337263D01*
X335098Y337244D01*
X335087Y337225D01*
X335059Y337176D01*
X335032Y337118D01*
X335007Y337056D01*
X334991Y336990D01*
X334988Y336957D01*
X334986Y336925D01*
Y336922D01*
Y336916D01*
Y336905D01*
X334988Y336894D01*
Y336878D01*
X334994Y336859D01*
X335002Y336818D01*
X335018Y336769D01*
X335043Y336717D01*
X335056Y336690D01*
X335076Y336665D01*
X335095Y336641D01*
X335119Y336616D01*
X335122Y336613D01*
X335125Y336611D01*
X335133Y336605D01*
X335144Y336597D01*
X335157Y336586D01*
X335174Y336575D01*
X335212Y336550D01*
X335264Y336529D01*
X335321Y336507D01*
X335390Y336493D01*
X335428Y336488D01*
X335488D01*
X335504Y336491D01*
X335523D01*
X335545Y336496D01*
X335594Y336504D01*
X335652Y336521D01*
X335712Y336545D01*
X335742Y336561D01*
X335772Y336578D01*
X335799Y336600D01*
X335826Y336624D01*
X335829Y336627D01*
X335832Y336630D01*
X335837Y336638D01*
X335848Y336649D01*
X335856Y336662D01*
X335867Y336679D01*
X335881Y336698D01*
X335892Y336720D01*
X335906Y336744D01*
X335916Y336772D01*
X335938Y336837D01*
X335955Y336908D01*
X335957Y336949D01*
X335960Y336993D01*
X336277Y336960D01*
Y336955D01*
X336274Y336944D01*
X336271Y336927D01*
X336269Y336903D01*
X336263Y336873D01*
X336255Y336837D01*
X336247Y336799D01*
X336233Y336758D01*
X336220Y336717D01*
X336203Y336671D01*
X336181Y336627D01*
X336159Y336583D01*
X336132Y336537D01*
X336102Y336496D01*
X336069Y336455D01*
X336031Y336420D01*
X336028Y336417D01*
X336020Y336411D01*
X336009Y336403D01*
X335993Y336389D01*
X335971Y336376D01*
X335944Y336359D01*
X335914Y336343D01*
X335878Y336324D01*
X335840Y336308D01*
X335796Y336291D01*
X335750Y336275D01*
X335698Y336261D01*
X335644Y336247D01*
X335586Y336239D01*
X335523Y336234D01*
X335458Y336231D01*
X335422D01*
X335398Y336234D01*
X335368Y336237D01*
X335332Y336242D01*
X335291Y336247D01*
X335250Y336256D01*
X335204Y336267D01*
X335157Y336280D01*
X335108Y336297D01*
X335062Y336316D01*
X335013Y336340D01*
X334966Y336368D01*
X334923Y336398D01*
X334882Y336433D01*
X334879Y336436D01*
X334874Y336441D01*
X334863Y336455D01*
X334849Y336469D01*
X334833Y336488D01*
X334814Y336512D01*
X334794Y336540D01*
X334775Y336572D01*
X334756Y336605D01*
X334737Y336643D01*
X334718Y336684D01*
X334702Y336728D01*
X334688Y336777D01*
X334677Y336826D01*
X334672Y336878D01*
X334669Y336933D01*
Y336935D01*
Y336938D01*
Y336946D01*
Y336957D01*
X334672Y336987D01*
X334677Y337025D01*
X334685Y337072D01*
X334696Y337121D01*
X334710Y337176D01*
X334732Y337230D01*
Y337233D01*
X334734Y337236D01*
X334737Y337244D01*
X334743Y337255D01*
X334759Y337285D01*
X334781Y337323D01*
X334811Y337369D01*
X334846Y337421D01*
X334887Y337476D01*
X334939Y337536D01*
X334942Y337539D01*
X334945Y337544D01*
X334956Y337552D01*
X334966Y337566D01*
X334983Y337582D01*
X335002Y337602D01*
X335024Y337626D01*
X335051Y337651D01*
X335084Y337681D01*
X335119Y337714D01*
X335157Y337752D01*
X335201Y337790D01*
X335248Y337834D01*
X335299Y337877D01*
X335357Y337926D01*
X335417Y337978D01*
X335420Y337981D01*
X335428Y337989D01*
X335444Y338000D01*
X335461Y338017D01*
X335485Y338036D01*
X335510Y338057D01*
X335567Y338107D01*
X335627Y338158D01*
X335684Y338213D01*
X335712Y338238D01*
X335736Y338260D01*
X335758Y338281D01*
X335774Y338298D01*
X335777Y338300D01*
X335788Y338311D01*
X335802Y338328D01*
X335821Y338350D01*
X335843Y338374D01*
X335865Y338402D01*
X335908Y338461D01*
X334666D01*
Y338759D01*
X336334D01*
Y338754D01*
D02*
G37*
G36*
X305884Y342797D02*
X305920Y342795D01*
X305960Y342792D01*
X306004Y342786D01*
X306053Y342781D01*
X306105Y342773D01*
X306160Y342765D01*
X306277Y342737D01*
X306334Y342718D01*
X306392Y342699D01*
X306452Y342677D01*
X306506Y342650D01*
X306509Y342647D01*
X306520Y342642D01*
X306534Y342634D01*
X306556Y342623D01*
X306580Y342606D01*
X306608Y342587D01*
X306638Y342565D01*
X306673Y342541D01*
X306706Y342511D01*
X306744Y342481D01*
X306780Y342445D01*
X306818Y342407D01*
X306853Y342366D01*
X306889Y342322D01*
X306922Y342273D01*
X306951Y342224D01*
X306954Y342221D01*
X306957Y342210D01*
X306965Y342197D01*
X306976Y342175D01*
X306987Y342150D01*
X307001Y342118D01*
X307014Y342082D01*
X307028Y342044D01*
X307042Y342000D01*
X307055Y341951D01*
X307069Y341902D01*
X307080Y341847D01*
X307099Y341735D01*
X307102Y341675D01*
X307104Y341613D01*
Y341577D01*
X307102Y341550D01*
X307099Y341517D01*
X307094Y341479D01*
X307088Y341438D01*
X307080Y341391D01*
X307069Y341342D01*
X307058Y341290D01*
X307042Y341238D01*
X307023Y341184D01*
X307001Y341129D01*
X306973Y341077D01*
X306946Y341025D01*
X306911Y340976D01*
X306908Y340974D01*
X306902Y340966D01*
X306891Y340952D01*
X306875Y340935D01*
X306856Y340914D01*
X306831Y340889D01*
X306804Y340864D01*
X306771Y340834D01*
X306736Y340804D01*
X306695Y340774D01*
X306651Y340744D01*
X306602Y340717D01*
X306550Y340687D01*
X306493Y340662D01*
X306433Y340638D01*
X306370Y340616D01*
X306294Y340944D01*
X306296D01*
X306305Y340949D01*
X306321Y340952D01*
X306340Y340960D01*
X306362Y340968D01*
X306386Y340982D01*
X306447Y341009D01*
X306512Y341045D01*
X306580Y341091D01*
X306643Y341140D01*
X306670Y341170D01*
X306695Y341200D01*
X306698Y341203D01*
X306700Y341208D01*
X306706Y341217D01*
X306714Y341230D01*
X306725Y341247D01*
X306736Y341266D01*
X306747Y341288D01*
X306758Y341315D01*
X306769Y341345D01*
X306780Y341375D01*
X306801Y341446D01*
X306815Y341528D01*
X306821Y341571D01*
Y341645D01*
X306818Y341667D01*
X306815Y341692D01*
X306812Y341722D01*
X306809Y341754D01*
X306804Y341787D01*
X306785Y341866D01*
X306760Y341948D01*
X306744Y341989D01*
X306725Y342030D01*
X306703Y342068D01*
X306679Y342107D01*
X306676Y342109D01*
X306673Y342115D01*
X306665Y342126D01*
X306654Y342139D01*
X306640Y342153D01*
X306621Y342172D01*
X306602Y342191D01*
X306580Y342213D01*
X306553Y342235D01*
X306526Y342260D01*
X306463Y342303D01*
X306389Y342344D01*
X306305Y342380D01*
X306302D01*
X306294Y342382D01*
X306280Y342388D01*
X306263Y342390D01*
X306242Y342396D01*
X306217Y342404D01*
X306187Y342410D01*
X306157Y342418D01*
X306122Y342426D01*
X306083Y342431D01*
X306001Y342445D01*
X305914Y342453D01*
X305821Y342456D01*
X305819D01*
X305808D01*
X305791D01*
X305767Y342453D01*
X305739D01*
X305707Y342451D01*
X305671Y342448D01*
X305630Y342445D01*
X305587Y342440D01*
X305543Y342434D01*
X305447Y342418D01*
X305352Y342393D01*
X305259Y342363D01*
X305256D01*
X305248Y342358D01*
X305237Y342352D01*
X305221Y342347D01*
X305199Y342336D01*
X305177Y342322D01*
X305125Y342292D01*
X305065Y342251D01*
X305008Y342202D01*
X304950Y342142D01*
X304926Y342109D01*
X304901Y342074D01*
Y342071D01*
X304896Y342066D01*
X304890Y342055D01*
X304882Y342038D01*
X304874Y342019D01*
X304863Y341997D01*
X304855Y341973D01*
X304844Y341946D01*
X304822Y341883D01*
X304803Y341809D01*
X304789Y341730D01*
X304787Y341689D01*
X304784Y341645D01*
Y341618D01*
X304787Y341599D01*
X304789Y341574D01*
X304792Y341547D01*
X304798Y341514D01*
X304803Y341481D01*
X304822Y341405D01*
X304836Y341367D01*
X304852Y341326D01*
X304871Y341285D01*
X304893Y341247D01*
X304918Y341208D01*
X304945Y341170D01*
X304948Y341167D01*
X304953Y341162D01*
X304961Y341151D01*
X304975Y341138D01*
X304991Y341124D01*
X305013Y341105D01*
X305038Y341086D01*
X305065Y341064D01*
X305098Y341042D01*
X305133Y341020D01*
X305171Y340998D01*
X305215Y340976D01*
X305262Y340957D01*
X305313Y340938D01*
X305368Y340919D01*
X305425Y340905D01*
X305341Y340572D01*
X305335D01*
X305322Y340578D01*
X305303Y340583D01*
X305273Y340594D01*
X305240Y340605D01*
X305199Y340621D01*
X305155Y340638D01*
X305109Y340660D01*
X305057Y340684D01*
X305008Y340712D01*
X304953Y340742D01*
X304901Y340777D01*
X304852Y340815D01*
X304803Y340856D01*
X304757Y340903D01*
X304713Y340952D01*
X304710Y340955D01*
X304705Y340966D01*
X304694Y340979D01*
X304680Y341001D01*
X304664Y341025D01*
X304645Y341058D01*
X304626Y341094D01*
X304606Y341138D01*
X304587Y341184D01*
X304568Y341233D01*
X304549Y341288D01*
X304533Y341348D01*
X304519Y341410D01*
X304508Y341476D01*
X304503Y341544D01*
X304500Y341618D01*
Y341656D01*
X304503Y341686D01*
X304505Y341719D01*
X304508Y341760D01*
X304514Y341804D01*
X304522Y341853D01*
X304530Y341905D01*
X304541Y341959D01*
X304555Y342014D01*
X304568Y342068D01*
X304587Y342126D01*
X304609Y342180D01*
X304634Y342232D01*
X304664Y342281D01*
X304666Y342284D01*
X304672Y342292D01*
X304680Y342306D01*
X304694Y342322D01*
X304713Y342344D01*
X304732Y342369D01*
X304757Y342396D01*
X304787Y342426D01*
X304819Y342456D01*
X304855Y342489D01*
X304893Y342519D01*
X304937Y342552D01*
X304983Y342584D01*
X305032Y342614D01*
X305087Y342642D01*
X305144Y342669D01*
X305147Y342672D01*
X305158Y342674D01*
X305177Y342680D01*
X305199Y342688D01*
X305229Y342699D01*
X305262Y342710D01*
X305303Y342721D01*
X305346Y342735D01*
X305395Y342745D01*
X305447Y342759D01*
X305502Y342770D01*
X305562Y342778D01*
X305687Y342795D01*
X305753Y342797D01*
X305819Y342800D01*
X305824D01*
X305835D01*
X305857D01*
X305884Y342797D01*
D02*
G37*
G36*
X306255Y340283D02*
X306280D01*
X306313Y340278D01*
X306351Y340275D01*
X306392Y340267D01*
X306438Y340258D01*
X306485Y340245D01*
X306537Y340231D01*
X306588Y340212D01*
X306638Y340190D01*
X306689Y340166D01*
X306741Y340136D01*
X306788Y340100D01*
X306834Y340062D01*
X306837Y340059D01*
X306845Y340051D01*
X306856Y340037D01*
X306870Y340021D01*
X306889Y339999D01*
X306908Y339972D01*
X306930Y339942D01*
X306951Y339906D01*
X306973Y339868D01*
X306995Y339824D01*
X307014Y339778D01*
X307033Y339729D01*
X307047Y339674D01*
X307058Y339617D01*
X307066Y339560D01*
X307069Y339497D01*
Y339472D01*
X307066Y339456D01*
Y339434D01*
X307061Y339409D01*
X307058Y339379D01*
X307052Y339349D01*
X307036Y339278D01*
X307012Y339205D01*
X306998Y339166D01*
X306979Y339125D01*
X306960Y339087D01*
X306935Y339049D01*
X306932Y339046D01*
X306930Y339041D01*
X306922Y339030D01*
X306911Y339016D01*
X306897Y338997D01*
X306880Y338978D01*
X306861Y338956D01*
X306840Y338934D01*
X306815Y338910D01*
X306785Y338882D01*
X306755Y338858D01*
X306722Y338831D01*
X306684Y338806D01*
X306646Y338781D01*
X306602Y338760D01*
X306558Y338738D01*
X306556D01*
X306547Y338732D01*
X306534Y338727D01*
X306512Y338721D01*
X306487Y338713D01*
X306457Y338705D01*
X306422Y338694D01*
X306378Y338683D01*
X306332Y338675D01*
X306280Y338664D01*
X306220Y338656D01*
X306157Y338648D01*
X306089Y338642D01*
X306015Y338637D01*
X305936Y338631D01*
X305851D01*
X305846D01*
X305830D01*
X305805D01*
X305772Y338634D01*
X305731D01*
X305682Y338637D01*
X305630Y338639D01*
X305573Y338645D01*
X305513Y338650D01*
X305450Y338656D01*
X305322Y338675D01*
X305196Y338702D01*
X305139Y338719D01*
X305081Y338738D01*
X305079D01*
X305068Y338743D01*
X305054Y338749D01*
X305035Y338757D01*
X305011Y338768D01*
X304983Y338781D01*
X304953Y338798D01*
X304920Y338814D01*
X304852Y338858D01*
X304778Y338913D01*
X304710Y338975D01*
X304677Y339011D01*
X304647Y339049D01*
X304645Y339052D01*
X304642Y339057D01*
X304634Y339071D01*
X304626Y339085D01*
X304615Y339106D01*
X304601Y339128D01*
X304587Y339156D01*
X304574Y339188D01*
X304560Y339221D01*
X304546Y339259D01*
X304535Y339297D01*
X304522Y339341D01*
X304505Y339434D01*
X304503Y339483D01*
X304500Y339535D01*
Y339562D01*
X304503Y339584D01*
X304505Y339609D01*
X304508Y339639D01*
X304514Y339671D01*
X304522Y339707D01*
X304541Y339783D01*
X304555Y339822D01*
X304568Y339863D01*
X304587Y339903D01*
X304609Y339945D01*
X304634Y339983D01*
X304664Y340018D01*
X304666Y340021D01*
X304672Y340026D01*
X304680Y340035D01*
X304694Y340048D01*
X304710Y340062D01*
X304732Y340078D01*
X304757Y340097D01*
X304784Y340116D01*
X304814Y340136D01*
X304849Y340155D01*
X304888Y340171D01*
X304929Y340190D01*
X304972Y340207D01*
X305019Y340220D01*
X305070Y340231D01*
X305125Y340239D01*
X305150Y339942D01*
X305147D01*
X305141Y339939D01*
X305131D01*
X305114Y339933D01*
X305098Y339931D01*
X305079Y339925D01*
X305032Y339912D01*
X304983Y339893D01*
X304934Y339868D01*
X304888Y339835D01*
X304866Y339819D01*
X304847Y339800D01*
X304844Y339794D01*
X304833Y339781D01*
X304817Y339756D01*
X304800Y339726D01*
X304784Y339685D01*
X304767Y339639D01*
X304757Y339587D01*
X304754Y339527D01*
Y339502D01*
X304757Y339475D01*
X304762Y339442D01*
X304770Y339404D01*
X304781Y339363D01*
X304795Y339319D01*
X304817Y339278D01*
X304819Y339273D01*
X304828Y339259D01*
X304844Y339240D01*
X304863Y339215D01*
X304888Y339188D01*
X304918Y339158D01*
X304953Y339128D01*
X304991Y339101D01*
X304997Y339098D01*
X305011Y339090D01*
X305035Y339076D01*
X305070Y339060D01*
X305112Y339044D01*
X305161Y339024D01*
X305221Y339005D01*
X305286Y338986D01*
X305289D01*
X305294Y338983D01*
X305305Y338981D01*
X305319Y338978D01*
X305335Y338975D01*
X305354Y338973D01*
X305379Y338967D01*
X305404Y338962D01*
X305461Y338953D01*
X305524Y338948D01*
X305592Y338943D01*
X305663Y338940D01*
X305668D01*
X305679D01*
X305698D01*
X305723D01*
X305720Y338945D01*
X305712Y338948D01*
X305701Y338956D01*
X305674Y338978D01*
X305641Y339005D01*
X305603Y339044D01*
X305562Y339087D01*
X305524Y339136D01*
X305486Y339194D01*
Y339196D01*
X305483Y339202D01*
X305477Y339210D01*
X305472Y339221D01*
X305464Y339237D01*
X305458Y339254D01*
X305442Y339297D01*
X305423Y339349D01*
X305409Y339409D01*
X305398Y339475D01*
X305395Y339543D01*
Y339557D01*
X305398Y339573D01*
Y339595D01*
X305404Y339622D01*
X305406Y339652D01*
X305415Y339688D01*
X305423Y339726D01*
X305436Y339767D01*
X305450Y339808D01*
X305469Y339852D01*
X305491Y339895D01*
X305516Y339942D01*
X305546Y339985D01*
X305581Y340029D01*
X305619Y340070D01*
X305622Y340073D01*
X305630Y340078D01*
X305644Y340089D01*
X305660Y340103D01*
X305682Y340119D01*
X305709Y340138D01*
X305742Y340157D01*
X305780Y340177D01*
X305819Y340198D01*
X305865Y340217D01*
X305914Y340237D01*
X305966Y340253D01*
X306023Y340267D01*
X306086Y340278D01*
X306149Y340283D01*
X306217Y340286D01*
X306223D01*
X306234D01*
X306255Y340283D01*
D02*
G37*
G36*
X270284Y342797D02*
X270320Y342795D01*
X270360Y342792D01*
X270404Y342786D01*
X270453Y342781D01*
X270505Y342773D01*
X270560Y342765D01*
X270677Y342737D01*
X270735Y342718D01*
X270792Y342699D01*
X270852Y342677D01*
X270906Y342650D01*
X270909Y342647D01*
X270920Y342642D01*
X270934Y342634D01*
X270956Y342623D01*
X270980Y342606D01*
X271007Y342587D01*
X271038Y342565D01*
X271073Y342541D01*
X271106Y342511D01*
X271144Y342481D01*
X271180Y342445D01*
X271218Y342407D01*
X271253Y342366D01*
X271289Y342322D01*
X271322Y342273D01*
X271352Y342224D01*
X271354Y342221D01*
X271357Y342210D01*
X271365Y342197D01*
X271376Y342175D01*
X271387Y342150D01*
X271401Y342118D01*
X271414Y342082D01*
X271428Y342044D01*
X271442Y342000D01*
X271455Y341951D01*
X271469Y341902D01*
X271480Y341847D01*
X271499Y341735D01*
X271502Y341675D01*
X271504Y341613D01*
Y341577D01*
X271502Y341550D01*
X271499Y341517D01*
X271494Y341479D01*
X271488Y341438D01*
X271480Y341391D01*
X271469Y341342D01*
X271458Y341290D01*
X271442Y341238D01*
X271423Y341184D01*
X271401Y341129D01*
X271373Y341077D01*
X271346Y341025D01*
X271311Y340976D01*
X271308Y340974D01*
X271302Y340966D01*
X271291Y340952D01*
X271275Y340935D01*
X271256Y340914D01*
X271231Y340889D01*
X271204Y340864D01*
X271171Y340834D01*
X271136Y340804D01*
X271095Y340774D01*
X271051Y340744D01*
X271002Y340717D01*
X270950Y340687D01*
X270893Y340662D01*
X270833Y340638D01*
X270770Y340616D01*
X270694Y340944D01*
X270696D01*
X270705Y340949D01*
X270721Y340952D01*
X270740Y340960D01*
X270762Y340968D01*
X270786Y340982D01*
X270847Y341009D01*
X270912Y341045D01*
X270980Y341091D01*
X271043Y341140D01*
X271070Y341170D01*
X271095Y341200D01*
X271098Y341203D01*
X271100Y341208D01*
X271106Y341217D01*
X271114Y341230D01*
X271125Y341247D01*
X271136Y341266D01*
X271147Y341288D01*
X271158Y341315D01*
X271169Y341345D01*
X271180Y341375D01*
X271201Y341446D01*
X271215Y341528D01*
X271220Y341571D01*
Y341645D01*
X271218Y341667D01*
X271215Y341692D01*
X271212Y341722D01*
X271210Y341754D01*
X271204Y341787D01*
X271185Y341866D01*
X271160Y341948D01*
X271144Y341989D01*
X271125Y342030D01*
X271103Y342068D01*
X271078Y342107D01*
X271076Y342109D01*
X271073Y342115D01*
X271065Y342126D01*
X271054Y342139D01*
X271040Y342153D01*
X271021Y342172D01*
X271002Y342191D01*
X270980Y342213D01*
X270953Y342235D01*
X270926Y342260D01*
X270863Y342303D01*
X270789Y342344D01*
X270705Y342380D01*
X270702D01*
X270694Y342382D01*
X270680Y342388D01*
X270663Y342390D01*
X270642Y342396D01*
X270617Y342404D01*
X270587Y342410D01*
X270557Y342418D01*
X270522Y342426D01*
X270483Y342431D01*
X270402Y342445D01*
X270314Y342453D01*
X270221Y342456D01*
X270219D01*
X270208D01*
X270191D01*
X270167Y342453D01*
X270139D01*
X270107Y342451D01*
X270071Y342448D01*
X270030Y342445D01*
X269987Y342440D01*
X269943Y342434D01*
X269847Y342418D01*
X269752Y342393D01*
X269659Y342363D01*
X269656D01*
X269648Y342358D01*
X269637Y342352D01*
X269621Y342347D01*
X269599Y342336D01*
X269577Y342322D01*
X269525Y342292D01*
X269465Y342251D01*
X269408Y342202D01*
X269350Y342142D01*
X269326Y342109D01*
X269301Y342074D01*
Y342071D01*
X269296Y342066D01*
X269290Y342055D01*
X269282Y342038D01*
X269274Y342019D01*
X269263Y341997D01*
X269255Y341973D01*
X269244Y341946D01*
X269222Y341883D01*
X269203Y341809D01*
X269189Y341730D01*
X269187Y341689D01*
X269184Y341645D01*
Y341618D01*
X269187Y341599D01*
X269189Y341574D01*
X269192Y341547D01*
X269198Y341514D01*
X269203Y341481D01*
X269222Y341405D01*
X269236Y341367D01*
X269252Y341326D01*
X269271Y341285D01*
X269293Y341247D01*
X269318Y341208D01*
X269345Y341170D01*
X269348Y341167D01*
X269353Y341162D01*
X269361Y341151D01*
X269375Y341138D01*
X269391Y341124D01*
X269413Y341105D01*
X269438Y341086D01*
X269465Y341064D01*
X269498Y341042D01*
X269533Y341020D01*
X269571Y340998D01*
X269615Y340976D01*
X269662Y340957D01*
X269713Y340938D01*
X269768Y340919D01*
X269825Y340905D01*
X269741Y340572D01*
X269735D01*
X269722Y340578D01*
X269703Y340583D01*
X269673Y340594D01*
X269640Y340605D01*
X269599Y340621D01*
X269555Y340638D01*
X269509Y340660D01*
X269457Y340684D01*
X269408Y340712D01*
X269353Y340742D01*
X269301Y340777D01*
X269252Y340815D01*
X269203Y340856D01*
X269157Y340903D01*
X269113Y340952D01*
X269110Y340955D01*
X269105Y340966D01*
X269094Y340979D01*
X269080Y341001D01*
X269064Y341025D01*
X269045Y341058D01*
X269025Y341094D01*
X269006Y341138D01*
X268987Y341184D01*
X268968Y341233D01*
X268949Y341288D01*
X268933Y341348D01*
X268919Y341410D01*
X268908Y341476D01*
X268903Y341544D01*
X268900Y341618D01*
Y341656D01*
X268903Y341686D01*
X268905Y341719D01*
X268908Y341760D01*
X268914Y341804D01*
X268922Y341853D01*
X268930Y341905D01*
X268941Y341959D01*
X268955Y342014D01*
X268968Y342068D01*
X268987Y342126D01*
X269009Y342180D01*
X269034Y342232D01*
X269064Y342281D01*
X269067Y342284D01*
X269072Y342292D01*
X269080Y342306D01*
X269094Y342322D01*
X269113Y342344D01*
X269132Y342369D01*
X269157Y342396D01*
X269187Y342426D01*
X269219Y342456D01*
X269255Y342489D01*
X269293Y342519D01*
X269337Y342552D01*
X269383Y342584D01*
X269432Y342614D01*
X269487Y342642D01*
X269544Y342669D01*
X269547Y342672D01*
X269558Y342674D01*
X269577Y342680D01*
X269599Y342688D01*
X269629Y342699D01*
X269662Y342710D01*
X269703Y342721D01*
X269746Y342735D01*
X269795Y342745D01*
X269847Y342759D01*
X269902Y342770D01*
X269962Y342778D01*
X270088Y342795D01*
X270153Y342797D01*
X270219Y342800D01*
X270224D01*
X270235D01*
X270257D01*
X270284Y342797D01*
D02*
G37*
G36*
X269711Y340288D02*
X269733D01*
X269757Y340286D01*
X269784Y340280D01*
X269814Y340275D01*
X269877Y340261D01*
X269946Y340239D01*
X270014Y340209D01*
X270047Y340190D01*
X270079Y340168D01*
X270082Y340166D01*
X270088Y340163D01*
X270096Y340155D01*
X270107Y340144D01*
X270120Y340133D01*
X270134Y340116D01*
X270153Y340097D01*
X270169Y340075D01*
X270208Y340026D01*
X270246Y339966D01*
X270279Y339895D01*
X270306Y339813D01*
Y339816D01*
X270309Y339822D01*
X270314Y339832D01*
X270320Y339843D01*
X270325Y339860D01*
X270336Y339879D01*
X270358Y339920D01*
X270385Y339966D01*
X270421Y340013D01*
X270459Y340059D01*
X270505Y340097D01*
X270508D01*
X270511Y340100D01*
X270519Y340106D01*
X270530Y340111D01*
X270557Y340127D01*
X270593Y340144D01*
X270639Y340160D01*
X270694Y340177D01*
X270754Y340187D01*
X270819Y340190D01*
X270822D01*
X270830D01*
X270847Y340187D01*
X270866D01*
X270887Y340185D01*
X270915Y340179D01*
X270945Y340174D01*
X270980Y340166D01*
X271016Y340155D01*
X271051Y340141D01*
X271089Y340127D01*
X271130Y340108D01*
X271169Y340084D01*
X271207Y340059D01*
X271245Y340029D01*
X271281Y339994D01*
X271283Y339991D01*
X271289Y339985D01*
X271297Y339974D01*
X271311Y339958D01*
X271324Y339939D01*
X271341Y339914D01*
X271357Y339887D01*
X271376Y339854D01*
X271392Y339819D01*
X271409Y339778D01*
X271425Y339737D01*
X271439Y339691D01*
X271452Y339639D01*
X271461Y339587D01*
X271466Y339529D01*
X271469Y339469D01*
Y339437D01*
X271466Y339415D01*
X271463Y339387D01*
X271458Y339355D01*
X271452Y339319D01*
X271444Y339278D01*
X271433Y339237D01*
X271423Y339194D01*
X271406Y339150D01*
X271387Y339106D01*
X271365Y339060D01*
X271338Y339019D01*
X271311Y338975D01*
X271275Y338937D01*
X271272Y338934D01*
X271267Y338929D01*
X271256Y338918D01*
X271242Y338904D01*
X271223Y338891D01*
X271201Y338874D01*
X271174Y338855D01*
X271147Y338836D01*
X271114Y338817D01*
X271078Y338798D01*
X271040Y338781D01*
X270999Y338768D01*
X270956Y338754D01*
X270909Y338743D01*
X270860Y338738D01*
X270811Y338735D01*
X270808D01*
X270803D01*
X270795D01*
X270781D01*
X270767Y338738D01*
X270748Y338740D01*
X270707Y338746D01*
X270661Y338757D01*
X270609Y338773D01*
X270557Y338798D01*
X270505Y338828D01*
X270502D01*
X270500Y338833D01*
X270483Y338844D01*
X270462Y338866D01*
X270431Y338896D01*
X270402Y338937D01*
X270366Y338983D01*
X270336Y339041D01*
X270306Y339106D01*
Y339104D01*
X270303Y339095D01*
X270298Y339085D01*
X270292Y339068D01*
X270284Y339049D01*
X270273Y339027D01*
X270246Y338975D01*
X270213Y338918D01*
X270169Y338861D01*
X270120Y338803D01*
X270060Y338754D01*
X270058Y338752D01*
X270052Y338749D01*
X270044Y338743D01*
X270030Y338735D01*
X270014Y338727D01*
X269995Y338716D01*
X269973Y338705D01*
X269948Y338691D01*
X269891Y338669D01*
X269823Y338650D01*
X269746Y338637D01*
X269705Y338631D01*
X269662D01*
X269659D01*
X269648D01*
X269632Y338634D01*
X269607D01*
X269580Y338639D01*
X269547Y338642D01*
X269512Y338650D01*
X269473Y338659D01*
X269430Y338672D01*
X269386Y338686D01*
X269342Y338705D01*
X269296Y338727D01*
X269249Y338754D01*
X269206Y338784D01*
X269159Y338820D01*
X269118Y338861D01*
X269116Y338863D01*
X269110Y338872D01*
X269099Y338885D01*
X269086Y338902D01*
X269067Y338926D01*
X269050Y338953D01*
X269028Y338986D01*
X269009Y339022D01*
X268990Y339063D01*
X268968Y339109D01*
X268952Y339158D01*
X268935Y339210D01*
X268919Y339267D01*
X268908Y339328D01*
X268903Y339393D01*
X268900Y339461D01*
Y339478D01*
X268903Y339497D01*
Y339524D01*
X268905Y339554D01*
X268911Y339592D01*
X268919Y339633D01*
X268927Y339677D01*
X268938Y339723D01*
X268955Y339773D01*
X268971Y339822D01*
X268993Y339874D01*
X269017Y339923D01*
X269047Y339972D01*
X269080Y340021D01*
X269118Y340065D01*
X269121Y340067D01*
X269129Y340075D01*
X269140Y340086D01*
X269159Y340100D01*
X269181Y340116D01*
X269206Y340136D01*
X269236Y340157D01*
X269271Y340177D01*
X269309Y340198D01*
X269350Y340220D01*
X269397Y340239D01*
X269443Y340256D01*
X269495Y340269D01*
X269552Y340280D01*
X269610Y340288D01*
X269670Y340291D01*
X269673D01*
X269681D01*
X269694D01*
X269711Y340288D01*
D02*
G37*
G36*
X226476Y310366D02*
X226500Y310363D01*
X226530Y310361D01*
X226563Y310355D01*
X226599Y310347D01*
X226678Y310328D01*
X226716Y310314D01*
X226760Y310298D01*
X226801Y310279D01*
X226839Y310254D01*
X226877Y310230D01*
X226915Y310200D01*
X226918Y310197D01*
X226923Y310191D01*
X226934Y310183D01*
X226945Y310170D01*
X226962Y310153D01*
X226978Y310131D01*
X226997Y310107D01*
X227016Y310080D01*
X227035Y310050D01*
X227055Y310014D01*
X227074Y309976D01*
X227093Y309935D01*
X227109Y309891D01*
X227123Y309845D01*
X227136Y309796D01*
X227145Y309741D01*
X226836Y309716D01*
Y309719D01*
X226833Y309725D01*
X226831Y309733D01*
X226828Y309746D01*
X226820Y309779D01*
X226806Y309817D01*
X226790Y309861D01*
X226768Y309905D01*
X226746Y309946D01*
X226719Y309981D01*
X226716Y309984D01*
X226713Y309987D01*
X226705Y309995D01*
X226697Y310003D01*
X226670Y310025D01*
X226631Y310050D01*
X226588Y310074D01*
X226533Y310093D01*
X226473Y310109D01*
X226440Y310112D01*
X226408Y310115D01*
X226383D01*
X226353Y310109D01*
X226317Y310104D01*
X226276Y310093D01*
X226233Y310080D01*
X226189Y310058D01*
X226145Y310030D01*
X226143D01*
X226140Y310025D01*
X226132Y310019D01*
X226121Y310011D01*
X226096Y309987D01*
X226063Y309951D01*
X226025Y309908D01*
X225987Y309853D01*
X225952Y309790D01*
X225916Y309719D01*
Y309716D01*
X225913Y309711D01*
X225908Y309697D01*
X225902Y309681D01*
X225897Y309662D01*
X225889Y309634D01*
X225881Y309605D01*
X225872Y309572D01*
X225864Y309534D01*
X225859Y309490D01*
X225851Y309441D01*
X225842Y309389D01*
X225837Y309334D01*
X225834Y309274D01*
X225831Y309209D01*
X225829Y309143D01*
X225829Y309143D01*
Y309140D01*
X225829Y309143D01*
X225834Y309149D01*
X225840Y309157D01*
X225848Y309168D01*
X225872Y309198D01*
X225902Y309236D01*
X225943Y309277D01*
X225990Y309318D01*
X226042Y309356D01*
X226099Y309391D01*
X226102D01*
X226107Y309394D01*
X226115Y309400D01*
X226126Y309405D01*
X226143Y309411D01*
X226159Y309419D01*
X226203Y309435D01*
X226255Y309449D01*
X226312Y309462D01*
X226375Y309473D01*
X226440Y309476D01*
X226454D01*
X226470Y309473D01*
X226492D01*
X226519Y309468D01*
X226549Y309465D01*
X226585Y309457D01*
X226623Y309449D01*
X226661Y309435D01*
X226705Y309422D01*
X226749Y309402D01*
X226792Y309381D01*
X226839Y309353D01*
X226883Y309323D01*
X226926Y309288D01*
X226967Y309247D01*
X226970Y309244D01*
X226975Y309236D01*
X226986Y309225D01*
X227003Y309206D01*
X227019Y309184D01*
X227035Y309157D01*
X227057Y309124D01*
X227076Y309088D01*
X227095Y309048D01*
X227117Y309004D01*
X227134Y308955D01*
X227153Y308903D01*
X227166Y308848D01*
X227177Y308788D01*
X227183Y308725D01*
X227186Y308660D01*
Y308657D01*
Y308649D01*
Y308638D01*
X227183Y308619D01*
Y308600D01*
X227180Y308575D01*
X227177Y308545D01*
X227172Y308515D01*
X227161Y308447D01*
X227142Y308373D01*
X227117Y308297D01*
X227082Y308218D01*
Y308215D01*
X227076Y308209D01*
X227071Y308198D01*
X227063Y308185D01*
X227052Y308169D01*
X227041Y308149D01*
X227008Y308103D01*
X226970Y308054D01*
X226921Y308002D01*
X226863Y307950D01*
X226801Y307906D01*
X226798D01*
X226792Y307901D01*
X226782Y307895D01*
X226768Y307890D01*
X226751Y307882D01*
X226732Y307874D01*
X226708Y307863D01*
X226683Y307855D01*
X226623Y307833D01*
X226552Y307816D01*
X226476Y307805D01*
X226394Y307800D01*
X226377D01*
X226356Y307803D01*
X226328Y307805D01*
X226295Y307808D01*
X226257Y307816D01*
X226216Y307824D01*
X226170Y307835D01*
X226121Y307852D01*
X226069Y307868D01*
X226017Y307893D01*
X225965Y307920D01*
X225911Y307953D01*
X225862Y307991D01*
X225810Y308035D01*
X225763Y308084D01*
X225760Y308087D01*
X225752Y308098D01*
X225741Y308114D01*
X225725Y308138D01*
X225706Y308169D01*
X225687Y308207D01*
X225665Y308253D01*
X225643Y308308D01*
X225619Y308368D01*
X225597Y308436D01*
X225577Y308512D01*
X225558Y308597D01*
X225542Y308690D01*
X225531Y308791D01*
X225523Y308900D01*
X225520Y309017D01*
Y309020D01*
Y309026D01*
Y309037D01*
Y309050D01*
Y309067D01*
X225523Y309088D01*
Y309110D01*
X225526Y309138D01*
X225528Y309198D01*
X225534Y309266D01*
X225542Y309342D01*
X225553Y309424D01*
X225569Y309512D01*
X225586Y309599D01*
X225608Y309686D01*
X225635Y309774D01*
X225665Y309858D01*
X225700Y309940D01*
X225744Y310014D01*
X225791Y310080D01*
X225793Y310082D01*
X225801Y310093D01*
X225815Y310107D01*
X225834Y310126D01*
X225856Y310148D01*
X225886Y310172D01*
X225919Y310197D01*
X225957Y310224D01*
X226001Y310251D01*
X226050Y310276D01*
X226102Y310301D01*
X226159Y310322D01*
X226219Y310342D01*
X226285Y310355D01*
X226353Y310366D01*
X226427Y310369D01*
X226457D01*
X226476Y310366D01*
D02*
G37*
G36*
X222315Y310402D02*
X222348Y310399D01*
X222386Y310393D01*
X222427Y310388D01*
X222474Y310380D01*
X222523Y310369D01*
X222574Y310358D01*
X222626Y310342D01*
X222681Y310322D01*
X222736Y310301D01*
X222787Y310273D01*
X222839Y310246D01*
X222888Y310210D01*
X222891Y310208D01*
X222899Y310202D01*
X222913Y310191D01*
X222929Y310175D01*
X222951Y310156D01*
X222976Y310131D01*
X223000Y310104D01*
X223030Y310071D01*
X223060Y310036D01*
X223091Y309995D01*
X223120Y309951D01*
X223148Y309902D01*
X223178Y309850D01*
X223202Y309793D01*
X223227Y309733D01*
X223249Y309670D01*
X222921Y309594D01*
Y309596D01*
X222916Y309605D01*
X222913Y309621D01*
X222905Y309640D01*
X222897Y309662D01*
X222883Y309686D01*
X222856Y309746D01*
X222820Y309812D01*
X222774Y309880D01*
X222725Y309943D01*
X222695Y309970D01*
X222665Y309995D01*
X222662Y309998D01*
X222656Y310000D01*
X222648Y310006D01*
X222635Y310014D01*
X222618Y310025D01*
X222599Y310036D01*
X222577Y310047D01*
X222550Y310058D01*
X222520Y310069D01*
X222490Y310080D01*
X222419Y310101D01*
X222337Y310115D01*
X222293Y310120D01*
X222220D01*
X222198Y310118D01*
X222173Y310115D01*
X222143Y310112D01*
X222110Y310109D01*
X222078Y310104D01*
X221999Y310085D01*
X221917Y310060D01*
X221876Y310044D01*
X221835Y310025D01*
X221796Y310003D01*
X221758Y309979D01*
X221756Y309976D01*
X221750Y309973D01*
X221739Y309965D01*
X221726Y309954D01*
X221712Y309940D01*
X221693Y309921D01*
X221674Y309902D01*
X221652Y309880D01*
X221630Y309853D01*
X221605Y309826D01*
X221562Y309763D01*
X221521Y309689D01*
X221485Y309605D01*
Y309602D01*
X221482Y309594D01*
X221477Y309580D01*
X221474Y309563D01*
X221469Y309542D01*
X221461Y309517D01*
X221455Y309487D01*
X221447Y309457D01*
X221439Y309422D01*
X221433Y309383D01*
X221420Y309301D01*
X221411Y309214D01*
X221409Y309121D01*
Y309119D01*
Y309108D01*
Y309091D01*
X221411Y309067D01*
Y309039D01*
X221414Y309007D01*
X221417Y308971D01*
X221420Y308930D01*
X221425Y308887D01*
X221431Y308843D01*
X221447Y308747D01*
X221472Y308652D01*
X221502Y308559D01*
Y308556D01*
X221507Y308548D01*
X221513Y308537D01*
X221518Y308521D01*
X221529Y308499D01*
X221543Y308477D01*
X221573Y308425D01*
X221614Y308365D01*
X221663Y308308D01*
X221723Y308250D01*
X221756Y308226D01*
X221791Y308201D01*
X221794D01*
X221799Y308196D01*
X221810Y308190D01*
X221827Y308182D01*
X221846Y308174D01*
X221867Y308163D01*
X221892Y308155D01*
X221919Y308144D01*
X221982Y308122D01*
X222056Y308103D01*
X222135Y308089D01*
X222176Y308087D01*
X222220Y308084D01*
X222247D01*
X222266Y308087D01*
X222291Y308089D01*
X222318Y308092D01*
X222351Y308098D01*
X222383Y308103D01*
X222460Y308122D01*
X222498Y308136D01*
X222539Y308152D01*
X222580Y308171D01*
X222618Y308193D01*
X222656Y308218D01*
X222695Y308245D01*
X222697Y308248D01*
X222703Y308253D01*
X222714Y308261D01*
X222727Y308275D01*
X222741Y308291D01*
X222760Y308313D01*
X222779Y308338D01*
X222801Y308365D01*
X222823Y308398D01*
X222845Y308433D01*
X222867Y308471D01*
X222888Y308515D01*
X222908Y308562D01*
X222927Y308613D01*
X222946Y308668D01*
X222959Y308725D01*
X223292Y308641D01*
Y308635D01*
X223287Y308622D01*
X223282Y308603D01*
X223271Y308573D01*
X223260Y308540D01*
X223243Y308499D01*
X223227Y308455D01*
X223205Y308409D01*
X223181Y308357D01*
X223153Y308308D01*
X223123Y308253D01*
X223088Y308201D01*
X223049Y308152D01*
X223009Y308103D01*
X222962Y308057D01*
X222913Y308013D01*
X222910Y308010D01*
X222899Y308005D01*
X222886Y307994D01*
X222864Y307980D01*
X222839Y307964D01*
X222807Y307945D01*
X222771Y307926D01*
X222727Y307906D01*
X222681Y307887D01*
X222632Y307868D01*
X222577Y307849D01*
X222517Y307833D01*
X222454Y307819D01*
X222389Y307808D01*
X222321Y307803D01*
X222247Y307800D01*
X222209D01*
X222179Y307803D01*
X222146Y307805D01*
X222105Y307808D01*
X222061Y307814D01*
X222012Y307822D01*
X221960Y307830D01*
X221906Y307841D01*
X221851Y307855D01*
X221796Y307868D01*
X221739Y307887D01*
X221685Y307909D01*
X221633Y307934D01*
X221584Y307964D01*
X221581Y307966D01*
X221573Y307972D01*
X221559Y307980D01*
X221543Y307994D01*
X221521Y308013D01*
X221496Y308032D01*
X221469Y308057D01*
X221439Y308087D01*
X221409Y308119D01*
X221376Y308155D01*
X221346Y308193D01*
X221313Y308237D01*
X221281Y308283D01*
X221251Y308332D01*
X221223Y308387D01*
X221196Y308444D01*
X221193Y308447D01*
X221190Y308458D01*
X221185Y308477D01*
X221177Y308499D01*
X221166Y308529D01*
X221155Y308562D01*
X221144Y308603D01*
X221130Y308646D01*
X221119Y308695D01*
X221106Y308747D01*
X221095Y308802D01*
X221087Y308862D01*
X221070Y308987D01*
X221068Y309053D01*
X221065Y309119D01*
Y309124D01*
Y309135D01*
Y309157D01*
X221068Y309184D01*
X221070Y309220D01*
X221073Y309261D01*
X221078Y309304D01*
X221084Y309353D01*
X221092Y309405D01*
X221100Y309460D01*
X221128Y309577D01*
X221147Y309634D01*
X221166Y309692D01*
X221188Y309752D01*
X221215Y309806D01*
X221218Y309809D01*
X221223Y309820D01*
X221231Y309834D01*
X221242Y309856D01*
X221259Y309880D01*
X221278Y309908D01*
X221300Y309938D01*
X221324Y309973D01*
X221354Y310006D01*
X221384Y310044D01*
X221420Y310080D01*
X221458Y310118D01*
X221499Y310153D01*
X221543Y310189D01*
X221592Y310222D01*
X221641Y310251D01*
X221644Y310254D01*
X221655Y310257D01*
X221668Y310265D01*
X221690Y310276D01*
X221715Y310287D01*
X221747Y310301D01*
X221783Y310314D01*
X221821Y310328D01*
X221865Y310342D01*
X221914Y310355D01*
X221963Y310369D01*
X222018Y310380D01*
X222130Y310399D01*
X222190Y310402D01*
X222252Y310404D01*
X222288D01*
X222315Y310402D01*
D02*
G37*
G36*
X224742Y307841D02*
X224434D01*
Y309809D01*
X224428Y309804D01*
X224415Y309790D01*
X224390Y309771D01*
X224355Y309744D01*
X224313Y309711D01*
X224262Y309676D01*
X224204Y309637D01*
X224139Y309596D01*
X224136D01*
X224131Y309591D01*
X224122Y309585D01*
X224109Y309580D01*
X224092Y309569D01*
X224073Y309561D01*
X224030Y309536D01*
X223980Y309512D01*
X223926Y309484D01*
X223869Y309460D01*
X223814Y309438D01*
Y309735D01*
X223817Y309738D01*
X223825Y309741D01*
X223838Y309749D01*
X223858Y309757D01*
X223880Y309768D01*
X223907Y309785D01*
X223937Y309801D01*
X223967Y309817D01*
X224038Y309861D01*
X224114Y309913D01*
X224193Y309968D01*
X224267Y310030D01*
X224270Y310033D01*
X224275Y310038D01*
X224286Y310047D01*
X224300Y310060D01*
X224313Y310077D01*
X224333Y310093D01*
X224374Y310140D01*
X224420Y310189D01*
X224466Y310246D01*
X224507Y310306D01*
X224543Y310369D01*
X224742D01*
Y307841D01*
D02*
G37*
G36*
X254612Y289802D02*
X254645Y289799D01*
X254683Y289793D01*
X254724Y289788D01*
X254771Y289780D01*
X254820Y289769D01*
X254872Y289758D01*
X254924Y289742D01*
X254978Y289722D01*
X255033Y289701D01*
X255085Y289673D01*
X255137Y289646D01*
X255186Y289611D01*
X255188Y289608D01*
X255197Y289602D01*
X255210Y289591D01*
X255227Y289575D01*
X255249Y289556D01*
X255273Y289531D01*
X255298Y289504D01*
X255328Y289471D01*
X255358Y289436D01*
X255388Y289395D01*
X255418Y289351D01*
X255445Y289302D01*
X255475Y289250D01*
X255500Y289193D01*
X255524Y289133D01*
X255546Y289070D01*
X255219Y288994D01*
Y288996D01*
X255213Y289004D01*
X255210Y289021D01*
X255202Y289040D01*
X255194Y289062D01*
X255180Y289086D01*
X255153Y289146D01*
X255118Y289212D01*
X255071Y289280D01*
X255022Y289343D01*
X254992Y289370D01*
X254962Y289395D01*
X254959Y289398D01*
X254954Y289400D01*
X254946Y289406D01*
X254932Y289414D01*
X254915Y289425D01*
X254896Y289436D01*
X254875Y289447D01*
X254847Y289458D01*
X254817Y289469D01*
X254787Y289479D01*
X254716Y289501D01*
X254634Y289515D01*
X254591Y289521D01*
X254517D01*
X254495Y289518D01*
X254470Y289515D01*
X254440Y289512D01*
X254408Y289510D01*
X254375Y289504D01*
X254296Y289485D01*
X254214Y289460D01*
X254173Y289444D01*
X254132Y289425D01*
X254094Y289403D01*
X254056Y289378D01*
X254053Y289376D01*
X254047Y289373D01*
X254036Y289365D01*
X254023Y289354D01*
X254009Y289340D01*
X253990Y289321D01*
X253971Y289302D01*
X253949Y289280D01*
X253927Y289253D01*
X253903Y289226D01*
X253859Y289163D01*
X253818Y289089D01*
X253783Y289004D01*
Y289002D01*
X253780Y288994D01*
X253774Y288980D01*
X253772Y288964D01*
X253766Y288942D01*
X253758Y288917D01*
X253753Y288887D01*
X253744Y288857D01*
X253736Y288822D01*
X253731Y288783D01*
X253717Y288702D01*
X253709Y288614D01*
X253706Y288521D01*
Y288519D01*
Y288508D01*
Y288491D01*
X253709Y288467D01*
Y288439D01*
X253712Y288407D01*
X253714Y288371D01*
X253717Y288330D01*
X253723Y288286D01*
X253728Y288243D01*
X253744Y288147D01*
X253769Y288052D01*
X253799Y287959D01*
Y287956D01*
X253804Y287948D01*
X253810Y287937D01*
X253815Y287921D01*
X253826Y287899D01*
X253840Y287877D01*
X253870Y287825D01*
X253911Y287765D01*
X253960Y287708D01*
X254020Y287650D01*
X254053Y287626D01*
X254088Y287601D01*
X254091D01*
X254097Y287596D01*
X254107Y287590D01*
X254124Y287582D01*
X254143Y287574D01*
X254165Y287563D01*
X254189Y287555D01*
X254217Y287544D01*
X254279Y287522D01*
X254353Y287503D01*
X254432Y287489D01*
X254473Y287487D01*
X254517Y287484D01*
X254544D01*
X254563Y287487D01*
X254588Y287489D01*
X254615Y287492D01*
X254648Y287497D01*
X254681Y287503D01*
X254757Y287522D01*
X254795Y287536D01*
X254836Y287552D01*
X254877Y287571D01*
X254915Y287593D01*
X254954Y287618D01*
X254992Y287645D01*
X254995Y287648D01*
X255000Y287653D01*
X255011Y287661D01*
X255025Y287675D01*
X255038Y287691D01*
X255058Y287713D01*
X255077Y287738D01*
X255098Y287765D01*
X255120Y287798D01*
X255142Y287833D01*
X255164Y287872D01*
X255186Y287915D01*
X255205Y287962D01*
X255224Y288014D01*
X255243Y288068D01*
X255257Y288125D01*
X255590Y288041D01*
Y288035D01*
X255584Y288022D01*
X255579Y288003D01*
X255568Y287973D01*
X255557Y287940D01*
X255541Y287899D01*
X255524Y287855D01*
X255503Y287809D01*
X255478Y287757D01*
X255451Y287708D01*
X255421Y287653D01*
X255385Y287601D01*
X255347Y287552D01*
X255306Y287503D01*
X255259Y287457D01*
X255210Y287413D01*
X255208Y287410D01*
X255197Y287405D01*
X255183Y287394D01*
X255161Y287380D01*
X255137Y287364D01*
X255104Y287345D01*
X255068Y287326D01*
X255025Y287306D01*
X254978Y287287D01*
X254929Y287268D01*
X254875Y287249D01*
X254815Y287233D01*
X254752Y287219D01*
X254686Y287208D01*
X254618Y287203D01*
X254544Y287200D01*
X254506D01*
X254476Y287203D01*
X254443Y287205D01*
X254402Y287208D01*
X254359Y287214D01*
X254310Y287222D01*
X254258Y287230D01*
X254203Y287241D01*
X254148Y287255D01*
X254094Y287268D01*
X254036Y287287D01*
X253982Y287309D01*
X253930Y287334D01*
X253881Y287364D01*
X253878Y287367D01*
X253870Y287372D01*
X253856Y287380D01*
X253840Y287394D01*
X253818Y287413D01*
X253794Y287432D01*
X253766Y287457D01*
X253736Y287487D01*
X253706Y287519D01*
X253673Y287555D01*
X253643Y287593D01*
X253611Y287637D01*
X253578Y287683D01*
X253548Y287732D01*
X253520Y287787D01*
X253493Y287844D01*
X253490Y287847D01*
X253488Y287858D01*
X253482Y287877D01*
X253474Y287899D01*
X253463Y287929D01*
X253452Y287962D01*
X253441Y288003D01*
X253428Y288046D01*
X253417Y288095D01*
X253403Y288147D01*
X253392Y288202D01*
X253384Y288262D01*
X253368Y288387D01*
X253365Y288453D01*
X253362Y288519D01*
Y288524D01*
Y288535D01*
Y288557D01*
X253365Y288584D01*
X253368Y288620D01*
X253370Y288661D01*
X253376Y288704D01*
X253381Y288753D01*
X253390Y288805D01*
X253398Y288860D01*
X253425Y288977D01*
X253444Y289035D01*
X253463Y289092D01*
X253485Y289152D01*
X253512Y289207D01*
X253515Y289209D01*
X253520Y289220D01*
X253529Y289234D01*
X253540Y289256D01*
X253556Y289280D01*
X253575Y289307D01*
X253597Y289338D01*
X253622Y289373D01*
X253651Y289406D01*
X253682Y289444D01*
X253717Y289479D01*
X253755Y289518D01*
X253796Y289553D01*
X253840Y289589D01*
X253889Y289621D01*
X253938Y289651D01*
X253941Y289654D01*
X253952Y289657D01*
X253965Y289665D01*
X253987Y289676D01*
X254012Y289687D01*
X254045Y289701D01*
X254080Y289714D01*
X254118Y289728D01*
X254162Y289742D01*
X254211Y289755D01*
X254260Y289769D01*
X254315Y289780D01*
X254427Y289799D01*
X254487Y289802D01*
X254550Y289804D01*
X254585D01*
X254612Y289802D01*
D02*
G37*
G36*
X257039Y287241D02*
X256731D01*
Y289209D01*
X256726Y289204D01*
X256712Y289190D01*
X256687Y289171D01*
X256652Y289144D01*
X256611Y289111D01*
X256559Y289075D01*
X256502Y289037D01*
X256436Y288996D01*
X256433D01*
X256428Y288991D01*
X256420Y288985D01*
X256406Y288980D01*
X256390Y288969D01*
X256371Y288961D01*
X256327Y288936D01*
X256278Y288912D01*
X256223Y288884D01*
X256166Y288860D01*
X256111Y288838D01*
Y289136D01*
X256114Y289138D01*
X256122Y289141D01*
X256136Y289149D01*
X256155Y289157D01*
X256177Y289168D01*
X256204Y289185D01*
X256234Y289201D01*
X256264Y289217D01*
X256335Y289261D01*
X256412Y289313D01*
X256491Y289368D01*
X256564Y289430D01*
X256567Y289433D01*
X256573Y289439D01*
X256584Y289447D01*
X256597Y289460D01*
X256611Y289477D01*
X256630Y289493D01*
X256671Y289540D01*
X256717Y289589D01*
X256764Y289646D01*
X256805Y289706D01*
X256840Y289769D01*
X257039D01*
Y287241D01*
D02*
G37*
G36*
X214686Y281497D02*
X214719Y281495D01*
X214760Y281492D01*
X214804Y281486D01*
X214853Y281478D01*
X214905Y281470D01*
X214959Y281459D01*
X215014Y281445D01*
X215068Y281432D01*
X215126Y281413D01*
X215180Y281391D01*
X215232Y281366D01*
X215281Y281336D01*
X215284Y281333D01*
X215292Y281328D01*
X215306Y281320D01*
X215322Y281306D01*
X215344Y281287D01*
X215369Y281268D01*
X215396Y281243D01*
X215426Y281213D01*
X215456Y281181D01*
X215489Y281145D01*
X215519Y281107D01*
X215552Y281063D01*
X215584Y281017D01*
X215614Y280968D01*
X215642Y280913D01*
X215669Y280856D01*
X215672Y280853D01*
X215674Y280842D01*
X215680Y280823D01*
X215688Y280801D01*
X215699Y280771D01*
X215710Y280738D01*
X215721Y280697D01*
X215735Y280654D01*
X215745Y280605D01*
X215759Y280553D01*
X215770Y280498D01*
X215778Y280438D01*
X215795Y280312D01*
X215797Y280247D01*
X215800Y280181D01*
Y280176D01*
Y280165D01*
Y280143D01*
X215797Y280116D01*
X215795Y280080D01*
X215792Y280040D01*
X215786Y279996D01*
X215781Y279947D01*
X215773Y279895D01*
X215764Y279840D01*
X215737Y279723D01*
X215718Y279665D01*
X215699Y279608D01*
X215677Y279548D01*
X215650Y279493D01*
X215647Y279491D01*
X215642Y279480D01*
X215634Y279466D01*
X215623Y279444D01*
X215606Y279420D01*
X215587Y279393D01*
X215565Y279362D01*
X215541Y279327D01*
X215511Y279294D01*
X215481Y279256D01*
X215445Y279221D01*
X215407Y279182D01*
X215366Y279147D01*
X215322Y279111D01*
X215273Y279079D01*
X215224Y279048D01*
X215221Y279046D01*
X215210Y279043D01*
X215197Y279035D01*
X215175Y279024D01*
X215150Y279013D01*
X215118Y278999D01*
X215082Y278986D01*
X215044Y278972D01*
X215000Y278958D01*
X214951Y278945D01*
X214902Y278931D01*
X214847Y278920D01*
X214735Y278901D01*
X214675Y278898D01*
X214613Y278896D01*
X214577D01*
X214550Y278898D01*
X214517Y278901D01*
X214479Y278906D01*
X214438Y278912D01*
X214391Y278920D01*
X214342Y278931D01*
X214290Y278942D01*
X214239Y278958D01*
X214184Y278977D01*
X214129Y278999D01*
X214077Y279027D01*
X214025Y279054D01*
X213976Y279089D01*
X213974Y279092D01*
X213966Y279098D01*
X213952Y279109D01*
X213935Y279125D01*
X213914Y279144D01*
X213889Y279169D01*
X213864Y279196D01*
X213834Y279229D01*
X213804Y279264D01*
X213774Y279305D01*
X213744Y279349D01*
X213717Y279398D01*
X213687Y279450D01*
X213662Y279507D01*
X213638Y279567D01*
X213616Y279630D01*
X213944Y279706D01*
Y279704D01*
X213949Y279696D01*
X213952Y279679D01*
X213960Y279660D01*
X213968Y279638D01*
X213982Y279614D01*
X214009Y279554D01*
X214045Y279488D01*
X214091Y279420D01*
X214140Y279357D01*
X214170Y279330D01*
X214200Y279305D01*
X214203Y279302D01*
X214208Y279300D01*
X214217Y279294D01*
X214230Y279286D01*
X214247Y279275D01*
X214266Y279264D01*
X214288Y279253D01*
X214315Y279242D01*
X214345Y279231D01*
X214375Y279221D01*
X214446Y279199D01*
X214528Y279185D01*
X214571Y279180D01*
X214645D01*
X214667Y279182D01*
X214692Y279185D01*
X214722Y279188D01*
X214754Y279190D01*
X214787Y279196D01*
X214866Y279215D01*
X214948Y279240D01*
X214989Y279256D01*
X215030Y279275D01*
X215068Y279297D01*
X215107Y279322D01*
X215109Y279324D01*
X215115Y279327D01*
X215126Y279335D01*
X215139Y279346D01*
X215153Y279360D01*
X215172Y279379D01*
X215191Y279398D01*
X215213Y279420D01*
X215235Y279447D01*
X215260Y279474D01*
X215303Y279537D01*
X215344Y279611D01*
X215380Y279696D01*
Y279698D01*
X215382Y279706D01*
X215388Y279720D01*
X215390Y279736D01*
X215396Y279758D01*
X215404Y279783D01*
X215410Y279813D01*
X215418Y279843D01*
X215426Y279878D01*
X215431Y279917D01*
X215445Y279998D01*
X215453Y280086D01*
X215456Y280179D01*
Y280181D01*
Y280192D01*
Y280209D01*
X215453Y280233D01*
Y280261D01*
X215451Y280293D01*
X215448Y280329D01*
X215445Y280370D01*
X215440Y280414D01*
X215434Y280457D01*
X215418Y280553D01*
X215393Y280648D01*
X215363Y280741D01*
Y280744D01*
X215358Y280752D01*
X215352Y280763D01*
X215347Y280779D01*
X215336Y280801D01*
X215322Y280823D01*
X215292Y280875D01*
X215251Y280935D01*
X215202Y280992D01*
X215142Y281050D01*
X215109Y281074D01*
X215074Y281099D01*
X215071D01*
X215066Y281104D01*
X215055Y281110D01*
X215038Y281118D01*
X215019Y281126D01*
X214997Y281137D01*
X214973Y281145D01*
X214946Y281156D01*
X214883Y281178D01*
X214809Y281197D01*
X214730Y281211D01*
X214689Y281213D01*
X214645Y281216D01*
X214618D01*
X214599Y281213D01*
X214574Y281211D01*
X214547Y281208D01*
X214514Y281203D01*
X214481Y281197D01*
X214405Y281178D01*
X214367Y281164D01*
X214326Y281148D01*
X214285Y281129D01*
X214247Y281107D01*
X214208Y281082D01*
X214170Y281055D01*
X214167Y281052D01*
X214162Y281047D01*
X214151Y281039D01*
X214138Y281025D01*
X214124Y281009D01*
X214105Y280987D01*
X214086Y280962D01*
X214064Y280935D01*
X214042Y280902D01*
X214020Y280867D01*
X213998Y280828D01*
X213976Y280785D01*
X213957Y280738D01*
X213938Y280686D01*
X213919Y280632D01*
X213905Y280575D01*
X213572Y280659D01*
Y280665D01*
X213578Y280678D01*
X213583Y280697D01*
X213594Y280727D01*
X213605Y280760D01*
X213621Y280801D01*
X213638Y280845D01*
X213660Y280891D01*
X213684Y280943D01*
X213712Y280992D01*
X213742Y281047D01*
X213777Y281099D01*
X213815Y281148D01*
X213856Y281197D01*
X213903Y281243D01*
X213952Y281287D01*
X213955Y281290D01*
X213966Y281295D01*
X213979Y281306D01*
X214001Y281320D01*
X214025Y281336D01*
X214058Y281355D01*
X214094Y281374D01*
X214138Y281394D01*
X214184Y281413D01*
X214233Y281432D01*
X214288Y281451D01*
X214348Y281467D01*
X214410Y281481D01*
X214476Y281492D01*
X214544Y281497D01*
X214618Y281500D01*
X214656D01*
X214686Y281497D01*
D02*
G37*
G36*
X213329Y281454D02*
Y281440D01*
Y281418D01*
X213327Y281391D01*
X213324Y281358D01*
X213316Y281323D01*
X213307Y281284D01*
X213294Y281246D01*
Y281243D01*
X213291Y281238D01*
X213288Y281230D01*
X213283Y281216D01*
X213275Y281203D01*
X213267Y281183D01*
X213245Y281140D01*
X213217Y281088D01*
X213182Y281031D01*
X213141Y280970D01*
X213092Y280910D01*
X213089Y280908D01*
X213086Y280902D01*
X213078Y280894D01*
X213065Y280880D01*
X213051Y280867D01*
X213032Y280848D01*
X213013Y280826D01*
X212988Y280801D01*
X212961Y280774D01*
X212931Y280747D01*
X212898Y280714D01*
X212860Y280681D01*
X212822Y280645D01*
X212778Y280610D01*
X212734Y280572D01*
X212685Y280531D01*
X212680Y280528D01*
X212666Y280515D01*
X212647Y280498D01*
X212620Y280473D01*
X212587Y280446D01*
X212549Y280414D01*
X212505Y280378D01*
X212461Y280337D01*
X212368Y280252D01*
X212278Y280162D01*
X212235Y280119D01*
X212194Y280075D01*
X212158Y280034D01*
X212128Y279996D01*
X212125Y279993D01*
X212123Y279988D01*
X212115Y279977D01*
X212106Y279963D01*
X212093Y279944D01*
X212082Y279925D01*
X212054Y279876D01*
X212027Y279818D01*
X212003Y279756D01*
X211986Y279690D01*
X211983Y279657D01*
X211981Y279625D01*
Y279622D01*
Y279616D01*
Y279605D01*
X211983Y279594D01*
Y279578D01*
X211989Y279559D01*
X211997Y279518D01*
X212014Y279469D01*
X212038Y279417D01*
X212052Y279390D01*
X212071Y279365D01*
X212090Y279341D01*
X212115Y279316D01*
X212117Y279313D01*
X212120Y279311D01*
X212128Y279305D01*
X212139Y279297D01*
X212153Y279286D01*
X212169Y279275D01*
X212207Y279251D01*
X212259Y279229D01*
X212317Y279207D01*
X212385Y279193D01*
X212423Y279188D01*
X212483D01*
X212499Y279190D01*
X212519D01*
X212540Y279196D01*
X212590Y279204D01*
X212647Y279221D01*
X212707Y279245D01*
X212737Y279261D01*
X212767Y279278D01*
X212794Y279300D01*
X212822Y279324D01*
X212824Y279327D01*
X212827Y279330D01*
X212832Y279338D01*
X212843Y279349D01*
X212852Y279362D01*
X212863Y279379D01*
X212876Y279398D01*
X212887Y279420D01*
X212901Y279444D01*
X212912Y279472D01*
X212933Y279537D01*
X212950Y279608D01*
X212953Y279649D01*
X212955Y279693D01*
X213272Y279660D01*
Y279655D01*
X213269Y279644D01*
X213267Y279627D01*
X213264Y279603D01*
X213258Y279573D01*
X213250Y279537D01*
X213242Y279499D01*
X213228Y279458D01*
X213215Y279417D01*
X213198Y279371D01*
X213176Y279327D01*
X213155Y279283D01*
X213127Y279237D01*
X213097Y279196D01*
X213065Y279155D01*
X213026Y279119D01*
X213024Y279117D01*
X213015Y279111D01*
X213004Y279103D01*
X212988Y279089D01*
X212966Y279076D01*
X212939Y279059D01*
X212909Y279043D01*
X212874Y279024D01*
X212835Y279008D01*
X212792Y278991D01*
X212745Y278975D01*
X212693Y278961D01*
X212639Y278947D01*
X212581Y278939D01*
X212519Y278934D01*
X212453Y278931D01*
X212418D01*
X212393Y278934D01*
X212363Y278937D01*
X212328Y278942D01*
X212286Y278947D01*
X212246Y278956D01*
X212199Y278967D01*
X212153Y278980D01*
X212104Y278997D01*
X212057Y279016D01*
X212008Y279040D01*
X211962Y279068D01*
X211918Y279098D01*
X211877Y279133D01*
X211874Y279136D01*
X211869Y279141D01*
X211858Y279155D01*
X211844Y279169D01*
X211828Y279188D01*
X211809Y279212D01*
X211790Y279240D01*
X211771Y279272D01*
X211751Y279305D01*
X211732Y279343D01*
X211713Y279384D01*
X211697Y279428D01*
X211683Y279477D01*
X211672Y279526D01*
X211667Y279578D01*
X211664Y279633D01*
Y279635D01*
Y279638D01*
Y279646D01*
Y279657D01*
X211667Y279687D01*
X211672Y279726D01*
X211681Y279772D01*
X211691Y279821D01*
X211705Y279876D01*
X211727Y279930D01*
Y279933D01*
X211730Y279936D01*
X211732Y279944D01*
X211738Y279955D01*
X211754Y279985D01*
X211776Y280023D01*
X211806Y280069D01*
X211842Y280121D01*
X211882Y280176D01*
X211934Y280236D01*
X211937Y280239D01*
X211940Y280244D01*
X211951Y280252D01*
X211962Y280266D01*
X211978Y280282D01*
X211997Y280302D01*
X212019Y280326D01*
X212046Y280351D01*
X212079Y280381D01*
X212115Y280414D01*
X212153Y280452D01*
X212196Y280490D01*
X212243Y280534D01*
X212295Y280577D01*
X212352Y280626D01*
X212412Y280678D01*
X212415Y280681D01*
X212423Y280689D01*
X212439Y280700D01*
X212456Y280716D01*
X212480Y280736D01*
X212505Y280757D01*
X212562Y280807D01*
X212622Y280858D01*
X212680Y280913D01*
X212707Y280938D01*
X212732Y280960D01*
X212753Y280981D01*
X212770Y280998D01*
X212772Y281000D01*
X212783Y281011D01*
X212797Y281028D01*
X212816Y281050D01*
X212838Y281074D01*
X212860Y281101D01*
X212903Y281161D01*
X211661D01*
Y281459D01*
X213329D01*
Y281454D01*
D02*
G37*
G36*
X220147Y299959D02*
X220168D01*
X220198Y299954D01*
X220231Y299949D01*
X220267Y299943D01*
X220308Y299932D01*
X220351Y299919D01*
X220395Y299902D01*
X220441Y299883D01*
X220488Y299858D01*
X220537Y299831D01*
X220583Y299798D01*
X220630Y299763D01*
X220673Y299719D01*
X220676Y299716D01*
X220684Y299708D01*
X220695Y299695D01*
X220709Y299676D01*
X220725Y299654D01*
X220744Y299624D01*
X220766Y299591D01*
X220785Y299553D01*
X220807Y299512D01*
X220829Y299465D01*
X220848Y299416D01*
X220865Y299362D01*
X220878Y299304D01*
X220889Y299244D01*
X220897Y299181D01*
X220900Y299113D01*
Y299099D01*
X220897Y299080D01*
Y299059D01*
X220895Y299028D01*
X220889Y298996D01*
X220884Y298960D01*
X220876Y298919D01*
X220865Y298876D01*
X220851Y298832D01*
X220837Y298786D01*
X220818Y298739D01*
X220794Y298693D01*
X220769Y298649D01*
X220739Y298603D01*
X220704Y298562D01*
X220701Y298559D01*
X220695Y298553D01*
X220684Y298543D01*
X220668Y298526D01*
X220649Y298510D01*
X220624Y298491D01*
X220597Y298472D01*
X220564Y298450D01*
X220532Y298428D01*
X220491Y298406D01*
X220450Y298384D01*
X220403Y298365D01*
X220354Y298349D01*
X220302Y298332D01*
X220248Y298322D01*
X220190Y298313D01*
X220149Y298622D01*
X220152D01*
X220160Y298624D01*
X220174Y298627D01*
X220193Y298633D01*
X220215Y298638D01*
X220239Y298644D01*
X220297Y298663D01*
X220359Y298687D01*
X220422Y298717D01*
X220480Y298756D01*
X220504Y298777D01*
X220529Y298799D01*
Y298802D01*
X220534Y298805D01*
X220540Y298813D01*
X220548Y298821D01*
X220564Y298848D01*
X220586Y298887D01*
X220608Y298933D01*
X220624Y298985D01*
X220638Y299048D01*
X220643Y299113D01*
Y299135D01*
X220641Y299151D01*
X220638Y299168D01*
X220635Y299192D01*
X220624Y299241D01*
X220608Y299302D01*
X220581Y299364D01*
X220562Y299394D01*
X220542Y299424D01*
X220521Y299454D01*
X220493Y299484D01*
X220491Y299487D01*
X220485Y299490D01*
X220477Y299498D01*
X220466Y299509D01*
X220452Y299520D01*
X220433Y299531D01*
X220414Y299545D01*
X220390Y299561D01*
X220335Y299588D01*
X220272Y299610D01*
X220198Y299629D01*
X220160Y299632D01*
X220119Y299635D01*
X220116D01*
X220111D01*
X220097D01*
X220084Y299632D01*
X220065Y299629D01*
X220046Y299626D01*
X219996Y299618D01*
X219939Y299599D01*
X219882Y299574D01*
X219852Y299558D01*
X219824Y299539D01*
X219797Y299517D01*
X219770Y299493D01*
X219767Y299490D01*
X219764Y299487D01*
X219756Y299479D01*
X219748Y299468D01*
X219737Y299454D01*
X219726Y299438D01*
X219699Y299397D01*
X219674Y299345D01*
X219652Y299285D01*
X219636Y299217D01*
X219633Y299179D01*
X219631Y299141D01*
Y299124D01*
X219633Y299105D01*
Y299080D01*
X219639Y299048D01*
X219644Y299012D01*
X219652Y298969D01*
X219663Y298922D01*
X219393Y298955D01*
Y298960D01*
X219396Y298974D01*
X219398Y298990D01*
Y299026D01*
X219396Y299040D01*
Y299059D01*
X219393Y299078D01*
X219385Y299124D01*
X219374Y299179D01*
X219355Y299239D01*
X219330Y299302D01*
X219295Y299362D01*
Y299364D01*
X219289Y299370D01*
X219284Y299375D01*
X219276Y299386D01*
X219251Y299413D01*
X219216Y299444D01*
X219172Y299471D01*
X219117Y299498D01*
X219087Y299509D01*
X219052Y299515D01*
X219016Y299520D01*
X218978Y299523D01*
X218975D01*
X218970D01*
X218962D01*
X218948Y299520D01*
X218918Y299517D01*
X218877Y299509D01*
X218833Y299495D01*
X218787Y299474D01*
X218738Y299444D01*
X218716Y299427D01*
X218694Y299405D01*
X218689Y299400D01*
X218678Y299383D01*
X218659Y299359D01*
X218637Y299326D01*
X218618Y299282D01*
X218599Y299231D01*
X218588Y299173D01*
X218582Y299108D01*
Y299091D01*
X218585Y299078D01*
Y299061D01*
X218588Y299045D01*
X218596Y299001D01*
X218610Y298955D01*
X218631Y298903D01*
X218659Y298854D01*
X218697Y298805D01*
X218702Y298799D01*
X218719Y298786D01*
X218743Y298764D01*
X218782Y298742D01*
X218828Y298715D01*
X218888Y298690D01*
X218956Y298668D01*
X219035Y298652D01*
X218981Y298343D01*
X218978D01*
X218967Y298346D01*
X218951Y298349D01*
X218929Y298354D01*
X218904Y298362D01*
X218874Y298371D01*
X218842Y298381D01*
X218806Y298395D01*
X218727Y298431D01*
X218689Y298450D01*
X218648Y298474D01*
X218610Y298502D01*
X218571Y298532D01*
X218533Y298564D01*
X218500Y298600D01*
X218498Y298603D01*
X218492Y298608D01*
X218484Y298622D01*
X218473Y298635D01*
X218459Y298657D01*
X218446Y298679D01*
X218429Y298706D01*
X218413Y298739D01*
X218399Y298772D01*
X218383Y298810D01*
X218369Y298851D01*
X218356Y298895D01*
X218345Y298944D01*
X218337Y298993D01*
X218331Y299045D01*
X218328Y299099D01*
Y299135D01*
X218331Y299154D01*
X218334Y299173D01*
X218339Y299225D01*
X218350Y299282D01*
X218367Y299348D01*
X218388Y299413D01*
X218419Y299479D01*
Y299482D01*
X218421Y299487D01*
X218427Y299495D01*
X218435Y299509D01*
X218454Y299539D01*
X218481Y299577D01*
X218517Y299621D01*
X218558Y299665D01*
X218604Y299708D01*
X218659Y299746D01*
X218661D01*
X218664Y299749D01*
X218675Y299755D01*
X218686Y299760D01*
X218700Y299768D01*
X218716Y299777D01*
X218757Y299793D01*
X218806Y299809D01*
X218861Y299826D01*
X218921Y299837D01*
X218984Y299839D01*
X218986D01*
X218992D01*
X219000D01*
X219011D01*
X219044Y299834D01*
X219082Y299828D01*
X219128Y299817D01*
X219177Y299801D01*
X219229Y299779D01*
X219281Y299749D01*
X219284D01*
X219287Y299746D01*
X219303Y299733D01*
X219328Y299714D01*
X219358Y299684D01*
X219393Y299648D01*
X219429Y299602D01*
X219461Y299550D01*
X219494Y299490D01*
Y299493D01*
X219497Y299501D01*
X219499Y299512D01*
X219505Y299528D01*
X219511Y299545D01*
X219519Y299566D01*
X219541Y299618D01*
X219570Y299673D01*
X219606Y299730D01*
X219652Y299787D01*
X219710Y299837D01*
X219712Y299839D01*
X219718Y299842D01*
X219726Y299848D01*
X219740Y299856D01*
X219753Y299867D01*
X219773Y299878D01*
X219794Y299888D01*
X219822Y299899D01*
X219849Y299910D01*
X219879Y299921D01*
X219947Y299943D01*
X220026Y299957D01*
X220070Y299962D01*
X220114D01*
X220116D01*
X220127D01*
X220147Y299959D01*
D02*
G37*
G36*
X219887Y297879D02*
X219923Y297877D01*
X219964Y297874D01*
X220010Y297871D01*
X220106Y297860D01*
X220207Y297847D01*
X220305Y297825D01*
X220351Y297811D01*
X220395Y297795D01*
X220398D01*
X220406Y297792D01*
X220417Y297786D01*
X220433Y297778D01*
X220452Y297767D01*
X220474Y297756D01*
X220523Y297724D01*
X220553Y297705D01*
X220581Y297683D01*
X220613Y297655D01*
X220643Y297628D01*
X220673Y297595D01*
X220704Y297563D01*
X220731Y297524D01*
X220758Y297483D01*
X220761Y297481D01*
X220763Y297472D01*
X220772Y297462D01*
X220780Y297442D01*
X220791Y297421D01*
X220802Y297393D01*
X220815Y297363D01*
X220826Y297325D01*
X220840Y297287D01*
X220854Y297243D01*
X220865Y297194D01*
X220876Y297142D01*
X220884Y297085D01*
X220892Y297025D01*
X220895Y296962D01*
X220897Y296896D01*
Y296861D01*
X220895Y296836D01*
Y296806D01*
X220892Y296774D01*
X220886Y296733D01*
X220881Y296692D01*
X220867Y296599D01*
X220845Y296501D01*
X220815Y296405D01*
X220799Y296359D01*
X220777Y296315D01*
X220775Y296312D01*
X220772Y296304D01*
X220763Y296293D01*
X220755Y296279D01*
X220742Y296260D01*
X220725Y296238D01*
X220709Y296217D01*
X220687Y296192D01*
X220638Y296137D01*
X220578Y296086D01*
X220507Y296037D01*
X220466Y296015D01*
X220425Y295995D01*
X220422D01*
X220414Y295993D01*
X220401Y295987D01*
X220381Y295982D01*
X220359Y295974D01*
X220329Y295966D01*
X220297Y295957D01*
X220258Y295949D01*
X220215Y295938D01*
X220168Y295930D01*
X220116Y295922D01*
X220059Y295916D01*
X219999Y295908D01*
X219934Y295905D01*
X219865Y295900D01*
X219792D01*
X218337D01*
Y296233D01*
X219792D01*
X219794D01*
X219805D01*
X219822D01*
X219846D01*
X219874Y296236D01*
X219904D01*
X219939Y296238D01*
X219975Y296241D01*
X220054Y296247D01*
X220133Y296258D01*
X220209Y296274D01*
X220245Y296282D01*
X220275Y296293D01*
X220278D01*
X220280Y296296D01*
X220288Y296299D01*
X220299Y296304D01*
X220329Y296320D01*
X220362Y296342D01*
X220403Y296370D01*
X220441Y296405D01*
X220480Y296449D01*
X220515Y296501D01*
Y296503D01*
X220518Y296509D01*
X220523Y296517D01*
X220529Y296528D01*
X220534Y296542D01*
X220540Y296561D01*
X220548Y296580D01*
X220556Y296602D01*
X220570Y296656D01*
X220583Y296719D01*
X220594Y296790D01*
X220597Y296866D01*
Y296902D01*
X220594Y296926D01*
X220592Y296956D01*
X220589Y296992D01*
X220583Y297030D01*
X220575Y297071D01*
X220556Y297156D01*
X220542Y297199D01*
X220526Y297243D01*
X220507Y297284D01*
X220485Y297322D01*
X220461Y297358D01*
X220430Y297391D01*
X220428Y297393D01*
X220422Y297399D01*
X220411Y297404D01*
X220398Y297415D01*
X220379Y297426D01*
X220354Y297440D01*
X220324Y297456D01*
X220288Y297470D01*
X220248Y297483D01*
X220201Y297500D01*
X220149Y297513D01*
X220092Y297524D01*
X220026Y297535D01*
X219955Y297543D01*
X219876Y297546D01*
X219792Y297549D01*
X218337D01*
Y297882D01*
X219792D01*
X219797D01*
X219808D01*
X219827D01*
X219854D01*
X219887Y297879D01*
D02*
G37*
G36*
X212619Y274697D02*
X212640D01*
X212670Y274695D01*
X212703Y274689D01*
X212739Y274684D01*
X212780Y274675D01*
X212823Y274665D01*
X212867Y274651D01*
X212913Y274637D01*
X212960Y274618D01*
X213006Y274594D01*
X213050Y274569D01*
X213096Y274539D01*
X213137Y274503D01*
X213140Y274501D01*
X213145Y274495D01*
X213156Y274484D01*
X213173Y274468D01*
X213189Y274449D01*
X213208Y274424D01*
X213227Y274397D01*
X213249Y274364D01*
X213271Y274331D01*
X213293Y274290D01*
X213315Y274250D01*
X213334Y274203D01*
X213350Y274154D01*
X213367Y274102D01*
X213377Y274048D01*
X213386Y273990D01*
X213077Y273949D01*
Y273952D01*
X213074Y273960D01*
X213072Y273974D01*
X213066Y273993D01*
X213061Y274015D01*
X213055Y274039D01*
X213036Y274097D01*
X213012Y274160D01*
X212982Y274222D01*
X212943Y274280D01*
X212922Y274304D01*
X212900Y274329D01*
X212897D01*
X212894Y274334D01*
X212886Y274340D01*
X212878Y274348D01*
X212851Y274364D01*
X212812Y274386D01*
X212766Y274408D01*
X212714Y274424D01*
X212651Y274438D01*
X212586Y274443D01*
X212564D01*
X212548Y274441D01*
X212531Y274438D01*
X212507Y274435D01*
X212457Y274424D01*
X212397Y274408D01*
X212335Y274381D01*
X212305Y274361D01*
X212275Y274342D01*
X212245Y274321D01*
X212214Y274293D01*
X212212Y274290D01*
X212209Y274285D01*
X212201Y274277D01*
X212190Y274266D01*
X212179Y274252D01*
X212168Y274233D01*
X212155Y274214D01*
X212138Y274189D01*
X212111Y274135D01*
X212089Y274072D01*
X212070Y273998D01*
X212067Y273960D01*
X212064Y273919D01*
Y273917D01*
Y273911D01*
Y273897D01*
X212067Y273884D01*
X212070Y273865D01*
X212073Y273846D01*
X212081Y273796D01*
X212100Y273739D01*
X212124Y273682D01*
X212141Y273652D01*
X212160Y273624D01*
X212182Y273597D01*
X212206Y273570D01*
X212209Y273567D01*
X212212Y273564D01*
X212220Y273556D01*
X212231Y273548D01*
X212245Y273537D01*
X212261Y273526D01*
X212302Y273499D01*
X212354Y273474D01*
X212414Y273452D01*
X212482Y273436D01*
X212520Y273433D01*
X212559Y273431D01*
X212575D01*
X212594Y273433D01*
X212619D01*
X212651Y273439D01*
X212687Y273444D01*
X212731Y273452D01*
X212777Y273463D01*
X212744Y273193D01*
X212739D01*
X212725Y273196D01*
X212709Y273199D01*
X212673D01*
X212660Y273196D01*
X212640D01*
X212621Y273193D01*
X212575Y273185D01*
X212520Y273174D01*
X212460Y273155D01*
X212397Y273130D01*
X212337Y273095D01*
X212335D01*
X212329Y273089D01*
X212324Y273084D01*
X212313Y273076D01*
X212285Y273051D01*
X212256Y273016D01*
X212228Y272972D01*
X212201Y272917D01*
X212190Y272887D01*
X212185Y272852D01*
X212179Y272816D01*
X212176Y272778D01*
Y272775D01*
Y272770D01*
Y272762D01*
X212179Y272748D01*
X212182Y272718D01*
X212190Y272677D01*
X212204Y272633D01*
X212226Y272587D01*
X212256Y272538D01*
X212272Y272516D01*
X212294Y272494D01*
X212299Y272489D01*
X212316Y272478D01*
X212340Y272459D01*
X212373Y272437D01*
X212417Y272418D01*
X212468Y272399D01*
X212526Y272388D01*
X212591Y272382D01*
X212608D01*
X212621Y272385D01*
X212638D01*
X212654Y272388D01*
X212698Y272396D01*
X212744Y272410D01*
X212796Y272431D01*
X212845Y272459D01*
X212894Y272497D01*
X212900Y272502D01*
X212913Y272519D01*
X212935Y272543D01*
X212957Y272582D01*
X212984Y272628D01*
X213009Y272688D01*
X213031Y272756D01*
X213047Y272835D01*
X213356Y272781D01*
Y272778D01*
X213353Y272767D01*
X213350Y272751D01*
X213345Y272729D01*
X213337Y272704D01*
X213328Y272674D01*
X213317Y272642D01*
X213304Y272606D01*
X213268Y272527D01*
X213249Y272489D01*
X213225Y272448D01*
X213197Y272410D01*
X213167Y272371D01*
X213135Y272333D01*
X213099Y272300D01*
X213096Y272298D01*
X213091Y272292D01*
X213077Y272284D01*
X213064Y272273D01*
X213042Y272259D01*
X213020Y272246D01*
X212993Y272229D01*
X212960Y272213D01*
X212927Y272199D01*
X212889Y272183D01*
X212848Y272169D01*
X212804Y272156D01*
X212755Y272145D01*
X212706Y272137D01*
X212654Y272131D01*
X212599Y272128D01*
X212564D01*
X212545Y272131D01*
X212526Y272134D01*
X212474Y272139D01*
X212417Y272150D01*
X212351Y272167D01*
X212285Y272188D01*
X212220Y272218D01*
X212217D01*
X212212Y272221D01*
X212204Y272227D01*
X212190Y272235D01*
X212160Y272254D01*
X212122Y272281D01*
X212078Y272317D01*
X212034Y272358D01*
X211991Y272404D01*
X211952Y272459D01*
Y272461D01*
X211950Y272464D01*
X211944Y272475D01*
X211939Y272486D01*
X211931Y272500D01*
X211922Y272516D01*
X211906Y272557D01*
X211890Y272606D01*
X211873Y272661D01*
X211862Y272721D01*
X211860Y272784D01*
Y272786D01*
Y272792D01*
Y272800D01*
Y272811D01*
X211865Y272844D01*
X211871Y272882D01*
X211881Y272928D01*
X211898Y272977D01*
X211920Y273029D01*
X211950Y273081D01*
Y273084D01*
X211952Y273087D01*
X211966Y273103D01*
X211985Y273128D01*
X212015Y273158D01*
X212051Y273193D01*
X212097Y273229D01*
X212149Y273261D01*
X212209Y273294D01*
X212206D01*
X212198Y273297D01*
X212187Y273300D01*
X212171Y273305D01*
X212155Y273310D01*
X212133Y273319D01*
X212081Y273341D01*
X212026Y273371D01*
X211969Y273406D01*
X211912Y273452D01*
X211862Y273510D01*
X211860Y273513D01*
X211857Y273518D01*
X211852Y273526D01*
X211843Y273540D01*
X211832Y273553D01*
X211821Y273573D01*
X211810Y273594D01*
X211800Y273622D01*
X211789Y273649D01*
X211778Y273679D01*
X211756Y273747D01*
X211742Y273826D01*
X211737Y273870D01*
Y273914D01*
Y273917D01*
Y273927D01*
X211739Y273947D01*
Y273968D01*
X211745Y273998D01*
X211750Y274031D01*
X211756Y274067D01*
X211767Y274108D01*
X211781Y274151D01*
X211797Y274195D01*
X211816Y274241D01*
X211841Y274288D01*
X211868Y274337D01*
X211901Y274383D01*
X211936Y274430D01*
X211980Y274474D01*
X211982Y274476D01*
X211991Y274484D01*
X212004Y274495D01*
X212023Y274509D01*
X212045Y274525D01*
X212075Y274544D01*
X212108Y274566D01*
X212146Y274585D01*
X212187Y274607D01*
X212234Y274629D01*
X212283Y274648D01*
X212337Y274665D01*
X212395Y274678D01*
X212455Y274689D01*
X212518Y274697D01*
X212586Y274700D01*
X212599D01*
X212619Y274697D01*
D02*
G37*
G36*
X214786Y274695D02*
X214819Y274692D01*
X214860Y274689D01*
X214904Y274684D01*
X214953Y274675D01*
X215005Y274667D01*
X215059Y274656D01*
X215114Y274643D01*
X215168Y274629D01*
X215226Y274610D01*
X215280Y274588D01*
X215332Y274564D01*
X215381Y274534D01*
X215384Y274531D01*
X215392Y274525D01*
X215406Y274517D01*
X215422Y274503D01*
X215444Y274484D01*
X215469Y274465D01*
X215496Y274441D01*
X215526Y274411D01*
X215556Y274378D01*
X215589Y274342D01*
X215619Y274304D01*
X215652Y274260D01*
X215684Y274214D01*
X215714Y274165D01*
X215742Y274110D01*
X215769Y274053D01*
X215772Y274050D01*
X215774Y274039D01*
X215780Y274020D01*
X215788Y273998D01*
X215799Y273968D01*
X215810Y273936D01*
X215821Y273895D01*
X215834Y273851D01*
X215845Y273802D01*
X215859Y273750D01*
X215870Y273695D01*
X215878Y273635D01*
X215895Y273510D01*
X215897Y273444D01*
X215900Y273379D01*
Y273373D01*
Y273362D01*
Y273341D01*
X215897Y273313D01*
X215895Y273278D01*
X215892Y273237D01*
X215886Y273193D01*
X215881Y273144D01*
X215873Y273092D01*
X215865Y273038D01*
X215837Y272920D01*
X215818Y272863D01*
X215799Y272805D01*
X215777Y272745D01*
X215750Y272691D01*
X215747Y272688D01*
X215742Y272677D01*
X215734Y272663D01*
X215723Y272642D01*
X215706Y272617D01*
X215687Y272590D01*
X215665Y272560D01*
X215641Y272524D01*
X215611Y272492D01*
X215581Y272453D01*
X215545Y272418D01*
X215507Y272379D01*
X215466Y272344D01*
X215422Y272309D01*
X215373Y272276D01*
X215324Y272246D01*
X215321Y272243D01*
X215310Y272240D01*
X215297Y272232D01*
X215275Y272221D01*
X215250Y272210D01*
X215217Y272197D01*
X215182Y272183D01*
X215144Y272169D01*
X215100Y272156D01*
X215051Y272142D01*
X215002Y272128D01*
X214947Y272117D01*
X214835Y272098D01*
X214775Y272096D01*
X214713Y272093D01*
X214677D01*
X214650Y272096D01*
X214617Y272098D01*
X214579Y272104D01*
X214538Y272109D01*
X214491Y272117D01*
X214442Y272128D01*
X214390Y272139D01*
X214338Y272156D01*
X214284Y272175D01*
X214229Y272197D01*
X214177Y272224D01*
X214125Y272251D01*
X214076Y272287D01*
X214074Y272289D01*
X214066Y272295D01*
X214052Y272306D01*
X214035Y272322D01*
X214014Y272341D01*
X213989Y272366D01*
X213965Y272393D01*
X213934Y272426D01*
X213904Y272461D01*
X213874Y272502D01*
X213844Y272546D01*
X213817Y272595D01*
X213787Y272647D01*
X213762Y272704D01*
X213738Y272764D01*
X213716Y272827D01*
X214044Y272904D01*
Y272901D01*
X214049Y272893D01*
X214052Y272876D01*
X214060Y272857D01*
X214068Y272835D01*
X214082Y272811D01*
X214109Y272751D01*
X214145Y272685D01*
X214191Y272617D01*
X214240Y272554D01*
X214270Y272527D01*
X214300Y272502D01*
X214303Y272500D01*
X214308Y272497D01*
X214317Y272492D01*
X214330Y272483D01*
X214347Y272472D01*
X214366Y272461D01*
X214388Y272450D01*
X214415Y272440D01*
X214445Y272429D01*
X214475Y272418D01*
X214546Y272396D01*
X214628Y272382D01*
X214671Y272377D01*
X214745D01*
X214767Y272379D01*
X214792Y272382D01*
X214822Y272385D01*
X214854Y272388D01*
X214887Y272393D01*
X214966Y272412D01*
X215048Y272437D01*
X215089Y272453D01*
X215130Y272472D01*
X215168Y272494D01*
X215207Y272519D01*
X215209Y272521D01*
X215215Y272524D01*
X215226Y272532D01*
X215239Y272543D01*
X215253Y272557D01*
X215272Y272576D01*
X215291Y272595D01*
X215313Y272617D01*
X215335Y272644D01*
X215359Y272672D01*
X215403Y272734D01*
X215444Y272808D01*
X215480Y272893D01*
Y272896D01*
X215482Y272904D01*
X215488Y272917D01*
X215491Y272934D01*
X215496Y272956D01*
X215504Y272980D01*
X215510Y273010D01*
X215518Y273040D01*
X215526Y273076D01*
X215531Y273114D01*
X215545Y273196D01*
X215553Y273283D01*
X215556Y273376D01*
Y273379D01*
Y273390D01*
Y273406D01*
X215553Y273431D01*
Y273458D01*
X215551Y273491D01*
X215548Y273526D01*
X215545Y273567D01*
X215540Y273611D01*
X215534Y273654D01*
X215518Y273750D01*
X215493Y273846D01*
X215463Y273938D01*
Y273941D01*
X215458Y273949D01*
X215452Y273960D01*
X215447Y273977D01*
X215436Y273998D01*
X215422Y274020D01*
X215392Y274072D01*
X215351Y274132D01*
X215302Y274189D01*
X215242Y274247D01*
X215209Y274271D01*
X215174Y274296D01*
X215171D01*
X215166Y274302D01*
X215155Y274307D01*
X215138Y274315D01*
X215119Y274323D01*
X215097Y274334D01*
X215073Y274342D01*
X215046Y274353D01*
X214983Y274375D01*
X214909Y274394D01*
X214830Y274408D01*
X214789Y274411D01*
X214745Y274413D01*
X214718D01*
X214699Y274411D01*
X214674Y274408D01*
X214647Y274405D01*
X214614Y274400D01*
X214581Y274394D01*
X214505Y274375D01*
X214467Y274361D01*
X214426Y274345D01*
X214385Y274326D01*
X214347Y274304D01*
X214308Y274280D01*
X214270Y274252D01*
X214267Y274250D01*
X214262Y274244D01*
X214251Y274236D01*
X214237Y274222D01*
X214224Y274206D01*
X214205Y274184D01*
X214186Y274160D01*
X214164Y274132D01*
X214142Y274099D01*
X214120Y274064D01*
X214098Y274026D01*
X214076Y273982D01*
X214057Y273936D01*
X214038Y273884D01*
X214019Y273829D01*
X214005Y273772D01*
X213672Y273856D01*
Y273862D01*
X213678Y273876D01*
X213683Y273895D01*
X213694Y273925D01*
X213705Y273957D01*
X213721Y273998D01*
X213738Y274042D01*
X213760Y274089D01*
X213784Y274140D01*
X213812Y274189D01*
X213842Y274244D01*
X213877Y274296D01*
X213915Y274345D01*
X213956Y274394D01*
X214003Y274441D01*
X214052Y274484D01*
X214055Y274487D01*
X214066Y274493D01*
X214079Y274503D01*
X214101Y274517D01*
X214125Y274534D01*
X214158Y274553D01*
X214194Y274572D01*
X214237Y274591D01*
X214284Y274610D01*
X214333Y274629D01*
X214388Y274648D01*
X214448Y274665D01*
X214510Y274678D01*
X214576Y274689D01*
X214644Y274695D01*
X214718Y274697D01*
X214756D01*
X214786Y274695D01*
D02*
G37*
G36*
X267556Y380071D02*
X268159D01*
Y379763D01*
X267556D01*
Y378665D01*
X267272D01*
X265639Y379817D01*
Y380071D01*
X267272D01*
Y380412D01*
X267556D01*
Y380071D01*
D02*
G37*
G36*
X268159Y377669D02*
X266191D01*
X266196Y377663D01*
X266210Y377650D01*
X266229Y377625D01*
X266256Y377590D01*
X266289Y377549D01*
X266324Y377497D01*
X266363Y377439D01*
X266404Y377374D01*
Y377371D01*
X266409Y377366D01*
X266415Y377358D01*
X266420Y377344D01*
X266431Y377327D01*
X266439Y377308D01*
X266464Y377265D01*
X266488Y377216D01*
X266516Y377161D01*
X266540Y377104D01*
X266562Y377049D01*
X266265D01*
X266262Y377052D01*
X266259Y377060D01*
X266251Y377074D01*
X266243Y377093D01*
X266232Y377115D01*
X266215Y377142D01*
X266199Y377172D01*
X266183Y377202D01*
X266139Y377273D01*
X266087Y377349D01*
X266032Y377429D01*
X265970Y377502D01*
X265967Y377505D01*
X265961Y377510D01*
X265953Y377521D01*
X265940Y377535D01*
X265923Y377549D01*
X265907Y377568D01*
X265860Y377609D01*
X265811Y377655D01*
X265754Y377701D01*
X265694Y377743D01*
X265631Y377778D01*
Y377977D01*
X268159D01*
Y377669D01*
D02*
G37*
G36*
X267378Y376522D02*
X267397Y376517D01*
X267427Y376506D01*
X267460Y376495D01*
X267501Y376479D01*
X267545Y376462D01*
X267591Y376440D01*
X267643Y376416D01*
X267692Y376388D01*
X267747Y376358D01*
X267799Y376323D01*
X267848Y376285D01*
X267897Y376244D01*
X267943Y376197D01*
X267987Y376148D01*
X267990Y376145D01*
X267995Y376134D01*
X268006Y376121D01*
X268020Y376099D01*
X268036Y376075D01*
X268055Y376042D01*
X268074Y376006D01*
X268094Y375962D01*
X268113Y375916D01*
X268132Y375867D01*
X268151Y375812D01*
X268167Y375752D01*
X268181Y375690D01*
X268192Y375624D01*
X268197Y375556D01*
X268200Y375482D01*
Y375444D01*
X268197Y375414D01*
X268195Y375381D01*
X268192Y375340D01*
X268186Y375296D01*
X268178Y375247D01*
X268170Y375195D01*
X268159Y375141D01*
X268145Y375086D01*
X268132Y375032D01*
X268113Y374974D01*
X268091Y374920D01*
X268066Y374868D01*
X268036Y374819D01*
X268034Y374816D01*
X268028Y374808D01*
X268020Y374794D01*
X268006Y374778D01*
X267987Y374756D01*
X267968Y374731D01*
X267943Y374704D01*
X267913Y374674D01*
X267881Y374644D01*
X267845Y374611D01*
X267807Y374581D01*
X267763Y374548D01*
X267717Y374516D01*
X267668Y374486D01*
X267613Y374458D01*
X267556Y374431D01*
X267553Y374428D01*
X267542Y374426D01*
X267523Y374420D01*
X267501Y374412D01*
X267471Y374401D01*
X267438Y374390D01*
X267397Y374379D01*
X267354Y374365D01*
X267305Y374355D01*
X267253Y374341D01*
X267198Y374330D01*
X267138Y374322D01*
X267013Y374305D01*
X266947Y374303D01*
X266881Y374300D01*
X266876D01*
X266865D01*
X266843D01*
X266816Y374303D01*
X266780Y374305D01*
X266740Y374308D01*
X266696Y374314D01*
X266647Y374319D01*
X266595Y374327D01*
X266540Y374335D01*
X266423Y374363D01*
X266366Y374382D01*
X266308Y374401D01*
X266248Y374423D01*
X266194Y374450D01*
X266191Y374453D01*
X266180Y374458D01*
X266166Y374466D01*
X266144Y374477D01*
X266120Y374494D01*
X266092Y374513D01*
X266062Y374535D01*
X266027Y374559D01*
X265994Y374589D01*
X265956Y374619D01*
X265920Y374655D01*
X265882Y374693D01*
X265847Y374734D01*
X265811Y374778D01*
X265778Y374827D01*
X265749Y374876D01*
X265746Y374879D01*
X265743Y374890D01*
X265735Y374903D01*
X265724Y374925D01*
X265713Y374950D01*
X265699Y374983D01*
X265686Y375018D01*
X265672Y375056D01*
X265658Y375100D01*
X265645Y375149D01*
X265631Y375198D01*
X265620Y375253D01*
X265601Y375365D01*
X265598Y375425D01*
X265596Y375487D01*
Y375523D01*
X265598Y375550D01*
X265601Y375583D01*
X265606Y375621D01*
X265612Y375662D01*
X265620Y375709D01*
X265631Y375758D01*
X265642Y375810D01*
X265658Y375862D01*
X265677Y375916D01*
X265699Y375971D01*
X265727Y376023D01*
X265754Y376075D01*
X265789Y376124D01*
X265792Y376126D01*
X265798Y376134D01*
X265809Y376148D01*
X265825Y376165D01*
X265844Y376186D01*
X265869Y376211D01*
X265896Y376236D01*
X265929Y376266D01*
X265964Y376296D01*
X266005Y376326D01*
X266049Y376356D01*
X266098Y376383D01*
X266150Y376413D01*
X266207Y376438D01*
X266267Y376462D01*
X266330Y376484D01*
X266406Y376156D01*
X266404D01*
X266395Y376151D01*
X266379Y376148D01*
X266360Y376140D01*
X266338Y376132D01*
X266314Y376118D01*
X266253Y376091D01*
X266188Y376055D01*
X266120Y376009D01*
X266057Y375960D01*
X266030Y375930D01*
X266005Y375900D01*
X266002Y375897D01*
X266000Y375892D01*
X265994Y375883D01*
X265986Y375870D01*
X265975Y375853D01*
X265964Y375834D01*
X265953Y375812D01*
X265942Y375785D01*
X265931Y375755D01*
X265920Y375725D01*
X265899Y375654D01*
X265885Y375572D01*
X265880Y375529D01*
Y375455D01*
X265882Y375433D01*
X265885Y375408D01*
X265888Y375378D01*
X265891Y375346D01*
X265896Y375313D01*
X265915Y375234D01*
X265940Y375152D01*
X265956Y375111D01*
X265975Y375070D01*
X265997Y375032D01*
X266021Y374993D01*
X266024Y374991D01*
X266027Y374985D01*
X266035Y374974D01*
X266046Y374961D01*
X266060Y374947D01*
X266079Y374928D01*
X266098Y374909D01*
X266120Y374887D01*
X266147Y374865D01*
X266174Y374840D01*
X266237Y374797D01*
X266311Y374756D01*
X266395Y374720D01*
X266398D01*
X266406Y374718D01*
X266420Y374712D01*
X266437Y374710D01*
X266458Y374704D01*
X266483Y374696D01*
X266513Y374690D01*
X266543Y374682D01*
X266578Y374674D01*
X266617Y374669D01*
X266699Y374655D01*
X266786Y374647D01*
X266879Y374644D01*
X266881D01*
X266892D01*
X266909D01*
X266933Y374647D01*
X266961D01*
X266993Y374649D01*
X267029Y374652D01*
X267070Y374655D01*
X267113Y374660D01*
X267157Y374666D01*
X267253Y374682D01*
X267348Y374707D01*
X267441Y374737D01*
X267444D01*
X267452Y374742D01*
X267463Y374748D01*
X267479Y374753D01*
X267501Y374764D01*
X267523Y374778D01*
X267575Y374808D01*
X267635Y374849D01*
X267692Y374898D01*
X267750Y374958D01*
X267774Y374991D01*
X267799Y375026D01*
Y375029D01*
X267804Y375034D01*
X267810Y375045D01*
X267818Y375062D01*
X267826Y375081D01*
X267837Y375103D01*
X267845Y375127D01*
X267856Y375154D01*
X267878Y375217D01*
X267897Y375291D01*
X267911Y375370D01*
X267913Y375411D01*
X267916Y375455D01*
Y375482D01*
X267913Y375501D01*
X267911Y375526D01*
X267908Y375553D01*
X267902Y375586D01*
X267897Y375619D01*
X267878Y375695D01*
X267864Y375733D01*
X267848Y375774D01*
X267829Y375815D01*
X267807Y375853D01*
X267782Y375892D01*
X267755Y375930D01*
X267752Y375933D01*
X267747Y375938D01*
X267739Y375949D01*
X267725Y375962D01*
X267709Y375976D01*
X267687Y375995D01*
X267662Y376014D01*
X267635Y376036D01*
X267602Y376058D01*
X267567Y376080D01*
X267529Y376102D01*
X267485Y376124D01*
X267438Y376143D01*
X267387Y376162D01*
X267332Y376181D01*
X267275Y376195D01*
X267359Y376528D01*
X267365D01*
X267378Y376522D01*
D02*
G37*
G36*
X269587Y359260D02*
X269622Y359257D01*
X269663Y359254D01*
X269707Y359249D01*
X269756Y359243D01*
X269808Y359235D01*
X269863Y359227D01*
X269980Y359199D01*
X270037Y359180D01*
X270095Y359161D01*
X270155Y359139D01*
X270209Y359112D01*
X270212Y359109D01*
X270223Y359104D01*
X270236Y359096D01*
X270258Y359085D01*
X270283Y359068D01*
X270310Y359049D01*
X270340Y359028D01*
X270376Y359003D01*
X270409Y358973D01*
X270447Y358943D01*
X270482Y358907D01*
X270520Y358869D01*
X270556Y358828D01*
X270591Y358785D01*
X270624Y358735D01*
X270654Y358686D01*
X270657Y358683D01*
X270660Y358673D01*
X270668Y358659D01*
X270679Y358637D01*
X270690Y358612D01*
X270703Y358580D01*
X270717Y358544D01*
X270731Y358506D01*
X270744Y358462D01*
X270758Y358413D01*
X270772Y358364D01*
X270782Y358310D01*
X270802Y358197D01*
X270804Y358137D01*
X270807Y358075D01*
Y358039D01*
X270804Y358012D01*
X270802Y357979D01*
X270796Y357941D01*
X270791Y357900D01*
X270782Y357854D01*
X270772Y357804D01*
X270761Y357753D01*
X270744Y357701D01*
X270725Y357646D01*
X270703Y357592D01*
X270676Y357540D01*
X270649Y357488D01*
X270613Y357439D01*
X270611Y357436D01*
X270605Y357428D01*
X270594Y357414D01*
X270578Y357398D01*
X270559Y357376D01*
X270534Y357351D01*
X270507Y357327D01*
X270474Y357297D01*
X270439Y357267D01*
X270398Y357237D01*
X270354Y357207D01*
X270305Y357179D01*
X270253Y357149D01*
X270196Y357125D01*
X270135Y357100D01*
X270073Y357078D01*
X269996Y357406D01*
X269999D01*
X270007Y357411D01*
X270024Y357414D01*
X270043Y357422D01*
X270065Y357430D01*
X270089Y357444D01*
X270149Y357471D01*
X270215Y357507D01*
X270283Y357553D01*
X270346Y357602D01*
X270373Y357632D01*
X270398Y357663D01*
X270400Y357665D01*
X270403Y357671D01*
X270409Y357679D01*
X270417Y357693D01*
X270428Y357709D01*
X270439Y357728D01*
X270449Y357750D01*
X270460Y357777D01*
X270471Y357807D01*
X270482Y357837D01*
X270504Y357908D01*
X270518Y357990D01*
X270523Y358034D01*
Y358107D01*
X270520Y358129D01*
X270518Y358154D01*
X270515Y358184D01*
X270512Y358217D01*
X270507Y358249D01*
X270488Y358329D01*
X270463Y358411D01*
X270447Y358451D01*
X270428Y358492D01*
X270406Y358531D01*
X270381Y358569D01*
X270378Y358572D01*
X270376Y358577D01*
X270368Y358588D01*
X270357Y358602D01*
X270343Y358615D01*
X270324Y358634D01*
X270305Y358653D01*
X270283Y358675D01*
X270256Y358697D01*
X270228Y358722D01*
X270166Y358765D01*
X270092Y358806D01*
X270007Y358842D01*
X270005D01*
X269996Y358844D01*
X269983Y358850D01*
X269966Y358853D01*
X269944Y358858D01*
X269920Y358866D01*
X269890Y358872D01*
X269860Y358880D01*
X269824Y358888D01*
X269786Y358894D01*
X269704Y358907D01*
X269617Y358915D01*
X269524Y358918D01*
X269521D01*
X269510D01*
X269494D01*
X269469Y358915D01*
X269442D01*
X269409Y358913D01*
X269374Y358910D01*
X269333Y358907D01*
X269289Y358902D01*
X269246Y358896D01*
X269150Y358880D01*
X269054Y358856D01*
X268962Y358825D01*
X268959D01*
X268951Y358820D01*
X268940Y358815D01*
X268923Y358809D01*
X268902Y358798D01*
X268880Y358785D01*
X268828Y358754D01*
X268768Y358714D01*
X268710Y358664D01*
X268653Y358604D01*
X268629Y358572D01*
X268604Y358536D01*
Y358533D01*
X268599Y358528D01*
X268593Y358517D01*
X268585Y358501D01*
X268577Y358482D01*
X268566Y358460D01*
X268558Y358435D01*
X268547Y358408D01*
X268525Y358345D01*
X268506Y358271D01*
X268492Y358192D01*
X268489Y358151D01*
X268487Y358107D01*
Y358080D01*
X268489Y358061D01*
X268492Y358036D01*
X268495Y358009D01*
X268500Y357976D01*
X268506Y357944D01*
X268525Y357867D01*
X268538Y357829D01*
X268555Y357788D01*
X268574Y357747D01*
X268596Y357709D01*
X268620Y357671D01*
X268648Y357632D01*
X268650Y357630D01*
X268656Y357624D01*
X268664Y357613D01*
X268678Y357600D01*
X268694Y357586D01*
X268716Y357567D01*
X268741Y357548D01*
X268768Y357526D01*
X268801Y357504D01*
X268836Y357482D01*
X268874Y357460D01*
X268918Y357439D01*
X268964Y357419D01*
X269016Y357400D01*
X269071Y357381D01*
X269128Y357368D01*
X269043Y357035D01*
X269038D01*
X269024Y357040D01*
X269005Y357046D01*
X268975Y357056D01*
X268942Y357067D01*
X268902Y357084D01*
X268858Y357100D01*
X268811Y357122D01*
X268760Y357147D01*
X268710Y357174D01*
X268656Y357204D01*
X268604Y357239D01*
X268555Y357277D01*
X268506Y357318D01*
X268459Y357365D01*
X268416Y357414D01*
X268413Y357417D01*
X268407Y357428D01*
X268396Y357441D01*
X268383Y357463D01*
X268367Y357488D01*
X268347Y357521D01*
X268328Y357556D01*
X268309Y357600D01*
X268290Y357646D01*
X268271Y357695D01*
X268252Y357750D01*
X268235Y357810D01*
X268222Y357873D01*
X268211Y357938D01*
X268205Y358006D01*
X268203Y358080D01*
Y358118D01*
X268205Y358148D01*
X268208Y358181D01*
X268211Y358222D01*
X268216Y358266D01*
X268225Y358315D01*
X268233Y358367D01*
X268244Y358421D01*
X268257Y358476D01*
X268271Y358531D01*
X268290Y358588D01*
X268312Y358643D01*
X268337Y358694D01*
X268367Y358744D01*
X268369Y358746D01*
X268375Y358754D01*
X268383Y358768D01*
X268396Y358785D01*
X268416Y358806D01*
X268435Y358831D01*
X268459Y358858D01*
X268489Y358888D01*
X268522Y358918D01*
X268558Y358951D01*
X268596Y358981D01*
X268639Y359014D01*
X268686Y359047D01*
X268735Y359077D01*
X268790Y359104D01*
X268847Y359131D01*
X268850Y359134D01*
X268861Y359137D01*
X268880Y359142D01*
X268902Y359150D01*
X268932Y359161D01*
X268964Y359172D01*
X269005Y359183D01*
X269049Y359197D01*
X269098Y359208D01*
X269150Y359221D01*
X269205Y359232D01*
X269265Y359240D01*
X269390Y359257D01*
X269456Y359260D01*
X269521Y359262D01*
X269527D01*
X269538D01*
X269560D01*
X269587Y359260D01*
D02*
G37*
G36*
X270141Y356510D02*
X270144Y356502D01*
X270152Y356489D01*
X270160Y356469D01*
X270171Y356448D01*
X270187Y356420D01*
X270204Y356390D01*
X270220Y356360D01*
X270264Y356289D01*
X270316Y356213D01*
X270370Y356134D01*
X270433Y356060D01*
X270436Y356057D01*
X270441Y356052D01*
X270449Y356041D01*
X270463Y356027D01*
X270479Y356013D01*
X270496Y355994D01*
X270542Y355954D01*
X270591Y355907D01*
X270649Y355861D01*
X270709Y355820D01*
X270772Y355784D01*
Y355585D01*
X268244D01*
Y355893D01*
X270212D01*
X270206Y355899D01*
X270193Y355912D01*
X270174Y355937D01*
X270146Y355973D01*
X270114Y356013D01*
X270078Y356065D01*
X270040Y356123D01*
X269999Y356188D01*
Y356191D01*
X269994Y356196D01*
X269988Y356205D01*
X269983Y356218D01*
X269972Y356235D01*
X269964Y356254D01*
X269939Y356297D01*
X269914Y356347D01*
X269887Y356401D01*
X269863Y356458D01*
X269841Y356513D01*
X270138D01*
X270141Y356510D01*
D02*
G37*
G36*
X268951Y354482D02*
X268948D01*
X268940Y354479D01*
X268926Y354476D01*
X268907Y354471D01*
X268885Y354466D01*
X268861Y354460D01*
X268803Y354441D01*
X268741Y354416D01*
X268678Y354386D01*
X268620Y354348D01*
X268596Y354326D01*
X268571Y354305D01*
Y354302D01*
X268566Y354299D01*
X268560Y354291D01*
X268552Y354283D01*
X268536Y354255D01*
X268514Y354217D01*
X268492Y354171D01*
X268476Y354119D01*
X268462Y354056D01*
X268457Y353991D01*
Y353969D01*
X268459Y353952D01*
X268462Y353936D01*
X268465Y353911D01*
X268476Y353862D01*
X268492Y353802D01*
X268519Y353739D01*
X268538Y353709D01*
X268558Y353679D01*
X268579Y353649D01*
X268607Y353619D01*
X268609Y353617D01*
X268615Y353614D01*
X268623Y353606D01*
X268634Y353595D01*
X268648Y353584D01*
X268667Y353573D01*
X268686Y353559D01*
X268710Y353543D01*
X268765Y353516D01*
X268828Y353494D01*
X268902Y353475D01*
X268940Y353472D01*
X268981Y353469D01*
X268984D01*
X268989D01*
X269003D01*
X269016Y353472D01*
X269035Y353475D01*
X269054Y353477D01*
X269104Y353486D01*
X269161Y353505D01*
X269218Y353529D01*
X269248Y353546D01*
X269276Y353565D01*
X269303Y353587D01*
X269330Y353611D01*
X269333Y353614D01*
X269336Y353617D01*
X269344Y353625D01*
X269352Y353636D01*
X269363Y353649D01*
X269374Y353666D01*
X269401Y353707D01*
X269426Y353759D01*
X269448Y353819D01*
X269464Y353887D01*
X269467Y353925D01*
X269469Y353963D01*
Y353980D01*
X269467Y353999D01*
Y354023D01*
X269461Y354056D01*
X269456Y354092D01*
X269448Y354135D01*
X269437Y354182D01*
X269707Y354149D01*
Y354144D01*
X269704Y354130D01*
X269702Y354114D01*
Y354078D01*
X269704Y354064D01*
Y354045D01*
X269707Y354026D01*
X269715Y353980D01*
X269726Y353925D01*
X269745Y353865D01*
X269770Y353802D01*
X269805Y353742D01*
Y353739D01*
X269811Y353734D01*
X269816Y353729D01*
X269824Y353718D01*
X269849Y353690D01*
X269884Y353660D01*
X269928Y353633D01*
X269983Y353606D01*
X270013Y353595D01*
X270048Y353589D01*
X270084Y353584D01*
X270122Y353581D01*
X270125D01*
X270130D01*
X270138D01*
X270152Y353584D01*
X270182Y353587D01*
X270223Y353595D01*
X270267Y353608D01*
X270313Y353630D01*
X270362Y353660D01*
X270384Y353677D01*
X270406Y353698D01*
X270411Y353704D01*
X270422Y353720D01*
X270441Y353745D01*
X270463Y353778D01*
X270482Y353821D01*
X270501Y353873D01*
X270512Y353930D01*
X270518Y353996D01*
Y354012D01*
X270515Y354026D01*
Y354043D01*
X270512Y354059D01*
X270504Y354102D01*
X270490Y354149D01*
X270469Y354201D01*
X270441Y354250D01*
X270403Y354299D01*
X270398Y354305D01*
X270381Y354318D01*
X270357Y354340D01*
X270318Y354362D01*
X270272Y354389D01*
X270212Y354414D01*
X270144Y354436D01*
X270065Y354452D01*
X270119Y354761D01*
X270122D01*
X270133Y354758D01*
X270149Y354755D01*
X270171Y354749D01*
X270196Y354741D01*
X270226Y354733D01*
X270258Y354722D01*
X270294Y354709D01*
X270373Y354673D01*
X270411Y354654D01*
X270452Y354629D01*
X270490Y354602D01*
X270529Y354572D01*
X270567Y354539D01*
X270600Y354504D01*
X270602Y354501D01*
X270608Y354496D01*
X270616Y354482D01*
X270627Y354468D01*
X270641Y354447D01*
X270654Y354425D01*
X270671Y354397D01*
X270687Y354365D01*
X270701Y354332D01*
X270717Y354294D01*
X270731Y354253D01*
X270744Y354209D01*
X270755Y354160D01*
X270763Y354111D01*
X270769Y354059D01*
X270772Y354004D01*
Y353969D01*
X270769Y353950D01*
X270766Y353930D01*
X270761Y353879D01*
X270750Y353821D01*
X270733Y353756D01*
X270712Y353690D01*
X270682Y353625D01*
Y353622D01*
X270679Y353617D01*
X270673Y353608D01*
X270665Y353595D01*
X270646Y353565D01*
X270619Y353526D01*
X270583Y353483D01*
X270542Y353439D01*
X270496Y353396D01*
X270441Y353357D01*
X270439D01*
X270436Y353355D01*
X270425Y353349D01*
X270414Y353344D01*
X270400Y353335D01*
X270384Y353327D01*
X270343Y353311D01*
X270294Y353294D01*
X270239Y353278D01*
X270179Y353267D01*
X270116Y353264D01*
X270114D01*
X270108D01*
X270100D01*
X270089D01*
X270056Y353270D01*
X270018Y353275D01*
X269972Y353286D01*
X269923Y353303D01*
X269871Y353325D01*
X269819Y353355D01*
X269816D01*
X269813Y353357D01*
X269797Y353371D01*
X269772Y353390D01*
X269742Y353420D01*
X269707Y353455D01*
X269671Y353502D01*
X269639Y353554D01*
X269606Y353614D01*
Y353611D01*
X269603Y353603D01*
X269601Y353592D01*
X269595Y353576D01*
X269589Y353559D01*
X269581Y353537D01*
X269560Y353486D01*
X269530Y353431D01*
X269494Y353374D01*
X269448Y353316D01*
X269390Y353267D01*
X269388Y353264D01*
X269382Y353262D01*
X269374Y353256D01*
X269360Y353248D01*
X269347Y353237D01*
X269327Y353226D01*
X269306Y353215D01*
X269278Y353204D01*
X269251Y353193D01*
X269221Y353183D01*
X269153Y353161D01*
X269074Y353147D01*
X269030Y353142D01*
X268986D01*
X268984D01*
X268973D01*
X268953Y353144D01*
X268932D01*
X268902Y353150D01*
X268869Y353155D01*
X268833Y353161D01*
X268792Y353172D01*
X268749Y353185D01*
X268705Y353202D01*
X268659Y353221D01*
X268612Y353245D01*
X268563Y353273D01*
X268517Y353305D01*
X268470Y353341D01*
X268426Y353384D01*
X268424Y353387D01*
X268416Y353396D01*
X268405Y353409D01*
X268391Y353428D01*
X268375Y353450D01*
X268356Y353480D01*
X268334Y353513D01*
X268315Y353551D01*
X268293Y353592D01*
X268271Y353638D01*
X268252Y353688D01*
X268235Y353742D01*
X268222Y353800D01*
X268211Y353860D01*
X268203Y353922D01*
X268200Y353991D01*
Y354004D01*
X268203Y354023D01*
Y354045D01*
X268205Y354075D01*
X268211Y354108D01*
X268216Y354144D01*
X268225Y354184D01*
X268235Y354228D01*
X268249Y354272D01*
X268263Y354318D01*
X268282Y354365D01*
X268306Y354411D01*
X268331Y354455D01*
X268361Y354501D01*
X268396Y354542D01*
X268399Y354545D01*
X268405Y354550D01*
X268416Y354561D01*
X268432Y354578D01*
X268451Y354594D01*
X268476Y354613D01*
X268503Y354632D01*
X268536Y354654D01*
X268568Y354676D01*
X268609Y354698D01*
X268650Y354719D01*
X268697Y354739D01*
X268746Y354755D01*
X268798Y354771D01*
X268852Y354782D01*
X268910Y354790D01*
X268951Y354482D01*
D02*
G37*
G36*
X251550Y297102D02*
X251583Y297099D01*
X251621Y297093D01*
X251662Y297088D01*
X251709Y297080D01*
X251758Y297069D01*
X251810Y297058D01*
X251862Y297042D01*
X251916Y297023D01*
X251971Y297001D01*
X252023Y296973D01*
X252074Y296946D01*
X252124Y296911D01*
X252126Y296908D01*
X252134Y296902D01*
X252148Y296891D01*
X252165Y296875D01*
X252186Y296856D01*
X252211Y296831D01*
X252236Y296804D01*
X252266Y296771D01*
X252296Y296736D01*
X252326Y296695D01*
X252356Y296651D01*
X252383Y296602D01*
X252413Y296550D01*
X252437Y296493D01*
X252462Y296433D01*
X252484Y296370D01*
X252156Y296294D01*
Y296296D01*
X252151Y296304D01*
X252148Y296321D01*
X252140Y296340D01*
X252132Y296362D01*
X252118Y296386D01*
X252091Y296446D01*
X252055Y296512D01*
X252009Y296580D01*
X251960Y296643D01*
X251930Y296670D01*
X251900Y296695D01*
X251897Y296698D01*
X251891Y296700D01*
X251883Y296706D01*
X251870Y296714D01*
X251853Y296725D01*
X251834Y296736D01*
X251812Y296747D01*
X251785Y296758D01*
X251755Y296769D01*
X251725Y296779D01*
X251654Y296801D01*
X251572Y296815D01*
X251529Y296820D01*
X251455D01*
X251433Y296818D01*
X251408Y296815D01*
X251378Y296812D01*
X251345Y296810D01*
X251313Y296804D01*
X251234Y296785D01*
X251152Y296760D01*
X251111Y296744D01*
X251070Y296725D01*
X251032Y296703D01*
X250993Y296678D01*
X250991Y296676D01*
X250985Y296673D01*
X250974Y296665D01*
X250961Y296654D01*
X250947Y296640D01*
X250928Y296621D01*
X250909Y296602D01*
X250887Y296580D01*
X250865Y296553D01*
X250840Y296526D01*
X250797Y296463D01*
X250756Y296389D01*
X250720Y296304D01*
Y296302D01*
X250718Y296294D01*
X250712Y296280D01*
X250710Y296264D01*
X250704Y296242D01*
X250696Y296217D01*
X250690Y296187D01*
X250682Y296157D01*
X250674Y296122D01*
X250669Y296083D01*
X250655Y296002D01*
X250647Y295914D01*
X250644Y295821D01*
Y295818D01*
Y295808D01*
Y295791D01*
X250647Y295767D01*
Y295739D01*
X250649Y295707D01*
X250652Y295671D01*
X250655Y295630D01*
X250660Y295586D01*
X250666Y295543D01*
X250682Y295447D01*
X250707Y295352D01*
X250737Y295259D01*
Y295256D01*
X250742Y295248D01*
X250748Y295237D01*
X250753Y295221D01*
X250764Y295199D01*
X250778Y295177D01*
X250808Y295125D01*
X250849Y295065D01*
X250898Y295008D01*
X250958Y294950D01*
X250991Y294926D01*
X251026Y294901D01*
X251029D01*
X251034Y294896D01*
X251045Y294890D01*
X251062Y294882D01*
X251081Y294874D01*
X251103Y294863D01*
X251127Y294855D01*
X251154Y294844D01*
X251217Y294822D01*
X251291Y294803D01*
X251370Y294789D01*
X251411Y294787D01*
X251455Y294784D01*
X251482D01*
X251501Y294787D01*
X251526Y294789D01*
X251553Y294792D01*
X251586Y294797D01*
X251619Y294803D01*
X251695Y294822D01*
X251733Y294836D01*
X251774Y294852D01*
X251815Y294871D01*
X251853Y294893D01*
X251891Y294918D01*
X251930Y294945D01*
X251933Y294948D01*
X251938Y294953D01*
X251949Y294961D01*
X251962Y294975D01*
X251976Y294991D01*
X251995Y295013D01*
X252014Y295038D01*
X252036Y295065D01*
X252058Y295098D01*
X252080Y295133D01*
X252102Y295171D01*
X252124Y295215D01*
X252143Y295262D01*
X252162Y295314D01*
X252181Y295368D01*
X252195Y295425D01*
X252528Y295341D01*
Y295335D01*
X252522Y295322D01*
X252517Y295303D01*
X252506Y295272D01*
X252495Y295240D01*
X252479Y295199D01*
X252462Y295155D01*
X252440Y295109D01*
X252416Y295057D01*
X252388Y295008D01*
X252358Y294953D01*
X252323Y294901D01*
X252285Y294852D01*
X252244Y294803D01*
X252197Y294757D01*
X252148Y294713D01*
X252145Y294710D01*
X252134Y294705D01*
X252121Y294694D01*
X252099Y294680D01*
X252074Y294664D01*
X252042Y294645D01*
X252006Y294625D01*
X251962Y294606D01*
X251916Y294587D01*
X251867Y294568D01*
X251812Y294549D01*
X251752Y294533D01*
X251690Y294519D01*
X251624Y294508D01*
X251556Y294503D01*
X251482Y294500D01*
X251444D01*
X251414Y294503D01*
X251381Y294505D01*
X251340Y294508D01*
X251296Y294514D01*
X251247Y294522D01*
X251195Y294530D01*
X251141Y294541D01*
X251086Y294555D01*
X251032Y294568D01*
X250974Y294587D01*
X250920Y294609D01*
X250868Y294634D01*
X250819Y294664D01*
X250816Y294667D01*
X250808Y294672D01*
X250794Y294680D01*
X250778Y294694D01*
X250756Y294713D01*
X250731Y294732D01*
X250704Y294757D01*
X250674Y294787D01*
X250644Y294819D01*
X250611Y294855D01*
X250581Y294893D01*
X250548Y294937D01*
X250516Y294983D01*
X250486Y295032D01*
X250458Y295087D01*
X250431Y295144D01*
X250428Y295147D01*
X250426Y295158D01*
X250420Y295177D01*
X250412Y295199D01*
X250401Y295229D01*
X250390Y295262D01*
X250379Y295303D01*
X250365Y295346D01*
X250355Y295395D01*
X250341Y295447D01*
X250330Y295502D01*
X250322Y295562D01*
X250305Y295688D01*
X250303Y295753D01*
X250300Y295818D01*
Y295824D01*
Y295835D01*
Y295857D01*
X250303Y295884D01*
X250305Y295919D01*
X250308Y295960D01*
X250314Y296004D01*
X250319Y296053D01*
X250327Y296105D01*
X250335Y296160D01*
X250363Y296277D01*
X250382Y296335D01*
X250401Y296392D01*
X250423Y296452D01*
X250450Y296507D01*
X250453Y296509D01*
X250458Y296520D01*
X250466Y296534D01*
X250477Y296556D01*
X250494Y296580D01*
X250513Y296607D01*
X250535Y296638D01*
X250559Y296673D01*
X250589Y296706D01*
X250619Y296744D01*
X250655Y296779D01*
X250693Y296818D01*
X250734Y296853D01*
X250778Y296889D01*
X250827Y296921D01*
X250876Y296952D01*
X250879Y296954D01*
X250890Y296957D01*
X250903Y296965D01*
X250925Y296976D01*
X250950Y296987D01*
X250982Y297001D01*
X251018Y297014D01*
X251056Y297028D01*
X251100Y297042D01*
X251149Y297055D01*
X251198Y297069D01*
X251253Y297080D01*
X251365Y297099D01*
X251425Y297102D01*
X251487Y297104D01*
X251523D01*
X251550Y297102D01*
D02*
G37*
G36*
X254114Y295428D02*
X254455D01*
Y295144D01*
X254114D01*
Y294541D01*
X253805D01*
Y295144D01*
X252708D01*
Y295428D01*
X253860Y297061D01*
X254114D01*
Y295428D01*
D02*
G37*
%LPC*%
G36*
X349983Y354412D02*
X349980D01*
X349975D01*
X349967D01*
X349956D01*
X349942D01*
X349923D01*
X349882Y354409D01*
X349833Y354406D01*
X349776Y354403D01*
X349713Y354401D01*
X349647Y354393D01*
X349508Y354376D01*
X349440Y354365D01*
X349372Y354352D01*
X349309Y354335D01*
X349251Y354313D01*
X349200Y354292D01*
X349156Y354267D01*
X349153Y354264D01*
X349148Y354261D01*
X349137Y354253D01*
X349123Y354240D01*
X349110Y354226D01*
X349093Y354210D01*
X349055Y354169D01*
X349017Y354117D01*
X348987Y354054D01*
X348973Y354021D01*
X348962Y353986D01*
X348957Y353947D01*
X348954Y353909D01*
Y353901D01*
X348957Y353888D01*
Y353874D01*
X348959Y353855D01*
X348965Y353833D01*
X348978Y353784D01*
X348989Y353756D01*
X349003Y353729D01*
X349019Y353699D01*
X349041Y353669D01*
X349063Y353639D01*
X349090Y353609D01*
X349123Y353579D01*
X349159Y353552D01*
X349161Y353549D01*
X349169Y353546D01*
X349180Y353538D01*
X349200Y353530D01*
X349224Y353516D01*
X349257Y353505D01*
X349295Y353492D01*
X349339Y353478D01*
X349391Y353464D01*
X349451Y353451D01*
X349516Y353437D01*
X349593Y353426D01*
X349677Y353418D01*
X349770Y353410D01*
X349871Y353407D01*
X349983Y353404D01*
X349986D01*
X349991D01*
X349999D01*
X350010D01*
X350024D01*
X350040D01*
X350084Y353407D01*
X350133Y353410D01*
X350190Y353412D01*
X350253Y353415D01*
X350319Y353423D01*
X350458Y353440D01*
X350526Y353453D01*
X350592Y353467D01*
X350655Y353483D01*
X350715Y353502D01*
X350764Y353524D01*
X350807Y353552D01*
X350810Y353554D01*
X350816Y353557D01*
X350827Y353565D01*
X350840Y353576D01*
X350854Y353593D01*
X350873Y353609D01*
X350892Y353628D01*
X350911Y353650D01*
X350947Y353702D01*
X350979Y353765D01*
X350993Y353797D01*
X351004Y353836D01*
X351009Y353871D01*
X351012Y353912D01*
Y353931D01*
X351009Y353947D01*
X351007Y353964D01*
X351004Y353986D01*
X350990Y354035D01*
X350969Y354089D01*
X350955Y354117D01*
X350936Y354147D01*
X350917Y354174D01*
X350892Y354201D01*
X350865Y354229D01*
X350832Y354253D01*
X350829Y354256D01*
X350821Y354259D01*
X350807Y354267D01*
X350786Y354278D01*
X350758Y354289D01*
X350726Y354302D01*
X350687Y354319D01*
X350638Y354332D01*
X350584Y354346D01*
X350524Y354363D01*
X350453Y354376D01*
X350376Y354387D01*
X350292Y354398D01*
X350196Y354403D01*
X350095Y354409D01*
X349983Y354412D01*
D02*
G37*
G36*
X306206Y339969D02*
X306204D01*
X306195D01*
X306184D01*
X306165Y339966D01*
X306146Y339964D01*
X306122Y339961D01*
X306067Y339950D01*
X306004Y339933D01*
X305941Y339909D01*
X305909Y339893D01*
X305876Y339874D01*
X305846Y339852D01*
X305816Y339827D01*
X305813Y339824D01*
X305810Y339822D01*
X305802Y339813D01*
X305794Y339800D01*
X305783Y339786D01*
X305769Y339770D01*
X305756Y339751D01*
X305742Y339729D01*
X305715Y339674D01*
X305690Y339614D01*
X305674Y339543D01*
X305671Y339505D01*
X305668Y339467D01*
Y339445D01*
X305671Y339431D01*
X305674Y339412D01*
X305677Y339393D01*
X305687Y339344D01*
X305704Y339286D01*
X305731Y339229D01*
X305748Y339199D01*
X305767Y339169D01*
X305791Y339142D01*
X305816Y339114D01*
X305819Y339112D01*
X305824Y339109D01*
X305832Y339101D01*
X305843Y339093D01*
X305859Y339082D01*
X305879Y339071D01*
X305901Y339057D01*
X305925Y339044D01*
X305952Y339033D01*
X305985Y339019D01*
X306018Y339008D01*
X306056Y338997D01*
X306097Y338989D01*
X306138Y338981D01*
X306184Y338978D01*
X306234Y338975D01*
X306236D01*
X306244D01*
X306258D01*
X306277Y338978D01*
X306299Y338981D01*
X306326Y338983D01*
X306354Y338986D01*
X306386Y338992D01*
X306452Y339011D01*
X306523Y339035D01*
X306558Y339052D01*
X306591Y339071D01*
X306624Y339093D01*
X306654Y339117D01*
X306657Y339120D01*
X306662Y339123D01*
X306668Y339131D01*
X306679Y339142D01*
X306689Y339156D01*
X306703Y339172D01*
X306733Y339213D01*
X306763Y339262D01*
X306788Y339322D01*
X306799Y339352D01*
X306807Y339387D01*
X306809Y339423D01*
X306812Y339458D01*
Y339478D01*
X306809Y339494D01*
X306807Y339510D01*
X306804Y339532D01*
X306790Y339581D01*
X306771Y339639D01*
X306758Y339669D01*
X306741Y339699D01*
X306722Y339729D01*
X306698Y339759D01*
X306673Y339789D01*
X306643Y339819D01*
X306640Y339822D01*
X306635Y339824D01*
X306627Y339832D01*
X306613Y339843D01*
X306597Y339854D01*
X306575Y339865D01*
X306553Y339879D01*
X306526Y339893D01*
X306496Y339909D01*
X306463Y339923D01*
X306427Y339933D01*
X306386Y339945D01*
X306302Y339964D01*
X306255Y339966D01*
X306206Y339969D01*
D02*
G37*
G36*
X270830Y339874D02*
X270827D01*
X270822D01*
X270814D01*
X270800Y339871D01*
X270784D01*
X270767Y339868D01*
X270726Y339860D01*
X270680Y339846D01*
X270631Y339827D01*
X270582Y339800D01*
X270538Y339761D01*
X270532Y339756D01*
X270522Y339740D01*
X270502Y339715D01*
X270483Y339680D01*
X270462Y339639D01*
X270442Y339587D01*
X270431Y339527D01*
X270426Y339461D01*
Y339445D01*
X270429Y339431D01*
Y339415D01*
X270431Y339399D01*
X270440Y339357D01*
X270453Y339311D01*
X270472Y339262D01*
X270500Y339213D01*
X270538Y339166D01*
X270543Y339161D01*
X270557Y339147D01*
X270582Y339131D01*
X270614Y339109D01*
X270653Y339087D01*
X270702Y339071D01*
X270754Y339057D01*
X270811Y339052D01*
X270814D01*
X270819D01*
X270827D01*
X270841Y339054D01*
X270871Y339057D01*
X270912Y339065D01*
X270956Y339079D01*
X271005Y339101D01*
X271051Y339131D01*
X271076Y339147D01*
X271098Y339169D01*
X271100D01*
X271103Y339175D01*
X271117Y339191D01*
X271136Y339215D01*
X271158Y339251D01*
X271177Y339292D01*
X271196Y339344D01*
X271210Y339401D01*
X271215Y339431D01*
Y339480D01*
X271212Y339494D01*
Y339508D01*
X271210Y339527D01*
X271201Y339568D01*
X271188Y339614D01*
X271166Y339663D01*
X271139Y339712D01*
X271100Y339759D01*
X271095Y339764D01*
X271081Y339778D01*
X271057Y339794D01*
X271024Y339816D01*
X270986Y339838D01*
X270939Y339854D01*
X270887Y339868D01*
X270830Y339874D01*
D02*
G37*
G36*
X269667Y339974D02*
X269664D01*
X269662D01*
X269645D01*
X269618Y339972D01*
X269585Y339966D01*
X269547Y339961D01*
X269503Y339950D01*
X269457Y339933D01*
X269410Y339914D01*
X269405Y339912D01*
X269391Y339903D01*
X269367Y339887D01*
X269339Y339868D01*
X269309Y339841D01*
X269279Y339811D01*
X269247Y339773D01*
X269219Y339729D01*
Y339726D01*
X269217Y339723D01*
X269208Y339707D01*
X269198Y339682D01*
X269187Y339647D01*
X269176Y339609D01*
X269165Y339562D01*
X269157Y339513D01*
X269154Y339461D01*
Y339439D01*
X269157Y339423D01*
X269159Y339404D01*
X269162Y339382D01*
X269173Y339330D01*
X269189Y339273D01*
X269214Y339210D01*
X269230Y339180D01*
X269249Y339150D01*
X269271Y339120D01*
X269296Y339093D01*
X269299Y339090D01*
X269301Y339087D01*
X269309Y339079D01*
X269320Y339071D01*
X269337Y339060D01*
X269353Y339046D01*
X269372Y339033D01*
X269394Y339019D01*
X269446Y338994D01*
X269509Y338970D01*
X269577Y338953D01*
X269615Y338951D01*
X269656Y338948D01*
X269659D01*
X269667D01*
X269678D01*
X269694Y338951D01*
X269713Y338953D01*
X269735Y338956D01*
X269787Y338967D01*
X269845Y338983D01*
X269907Y339011D01*
X269937Y339027D01*
X269967Y339049D01*
X269997Y339071D01*
X270025Y339098D01*
X270027Y339101D01*
X270030Y339104D01*
X270038Y339112D01*
X270047Y339125D01*
X270060Y339139D01*
X270071Y339156D01*
X270085Y339177D01*
X270098Y339199D01*
X270126Y339254D01*
X270150Y339317D01*
X270167Y339390D01*
X270169Y339428D01*
X270172Y339469D01*
Y339491D01*
X270169Y339505D01*
X270167Y339524D01*
X270164Y339546D01*
X270153Y339598D01*
X270137Y339655D01*
X270112Y339715D01*
X270096Y339745D01*
X270077Y339775D01*
X270052Y339805D01*
X270027Y339832D01*
X270025Y339835D01*
X270022Y339838D01*
X270014Y339846D01*
X270003Y339854D01*
X269987Y339865D01*
X269970Y339876D01*
X269951Y339890D01*
X269929Y339903D01*
X269877Y339931D01*
X269814Y339953D01*
X269743Y339969D01*
X269708Y339972D01*
X269667Y339974D01*
D02*
G37*
G36*
X226377Y309203D02*
X226358D01*
X226342Y309200D01*
X226326Y309198D01*
X226304Y309195D01*
X226255Y309184D01*
X226197Y309165D01*
X226137Y309138D01*
X226107Y309121D01*
X226077Y309102D01*
X226047Y309078D01*
X226020Y309050D01*
X226017Y309048D01*
X226014Y309042D01*
X226006Y309034D01*
X225998Y309023D01*
X225987Y309009D01*
X225973Y308990D01*
X225960Y308968D01*
X225949Y308944D01*
X225935Y308919D01*
X225922Y308889D01*
X225897Y308821D01*
X225881Y308745D01*
X225878Y308701D01*
X225875Y308657D01*
Y308654D01*
Y308649D01*
Y308641D01*
Y308630D01*
X225878Y308616D01*
Y308600D01*
X225883Y308559D01*
X225891Y308512D01*
X225902Y308461D01*
X225919Y308406D01*
X225941Y308351D01*
Y308349D01*
X225943Y308346D01*
X225949Y308338D01*
X225954Y308327D01*
X225968Y308302D01*
X225990Y308270D01*
X226017Y308234D01*
X226050Y308198D01*
X226085Y308163D01*
X226129Y308130D01*
X226132D01*
X226134Y308128D01*
X226151Y308119D01*
X226175Y308106D01*
X226208Y308092D01*
X226246Y308078D01*
X226290Y308065D01*
X226339Y308057D01*
X226388Y308054D01*
X226408D01*
X226421Y308057D01*
X226440Y308059D01*
X226459Y308062D01*
X226506Y308073D01*
X226558Y308092D01*
X226588Y308106D01*
X226615Y308119D01*
X226645Y308138D01*
X226672Y308158D01*
X226700Y308182D01*
X226727Y308209D01*
X226730Y308212D01*
X226732Y308218D01*
X226741Y308226D01*
X226749Y308240D01*
X226760Y308256D01*
X226770Y308275D01*
X226784Y308297D01*
X226798Y308324D01*
X226812Y308351D01*
X226825Y308384D01*
X226836Y308420D01*
X226847Y308458D01*
X226855Y308499D01*
X226863Y308545D01*
X226866Y308592D01*
X226869Y308641D01*
Y308644D01*
Y308652D01*
Y308665D01*
X226866Y308684D01*
X226863Y308706D01*
X226861Y308731D01*
X226858Y308758D01*
X226852Y308788D01*
X226836Y308854D01*
X226812Y308922D01*
X226795Y308958D01*
X226776Y308990D01*
X226754Y309020D01*
X226730Y309050D01*
X226727Y309053D01*
X226724Y309056D01*
X226716Y309064D01*
X226705Y309075D01*
X226691Y309086D01*
X226675Y309099D01*
X226634Y309127D01*
X226582Y309154D01*
X226522Y309179D01*
X226454Y309198D01*
X226416Y309200D01*
X226377Y309203D01*
D02*
G37*
G36*
X267272Y379763D02*
X266136D01*
X267272Y378968D01*
Y379763D01*
D02*
G37*
G36*
X253805Y296564D02*
X253011Y295428D01*
X253805D01*
Y296564D01*
D02*
G37*
%LPD*%
D12*
X228965Y356845D02*
Y362357D01*
X218729D02*
X228965D01*
X218729Y356845D02*
Y362357D01*
Y356845D02*
X228965D01*
Y362545D02*
Y368057D01*
X218729D02*
X228965D01*
X218729Y362545D02*
Y368057D01*
Y362545D02*
X228965D01*
Y367944D02*
Y373456D01*
X218729D02*
X228965D01*
X218729Y367944D02*
Y373456D01*
Y367944D02*
X228965D01*
Y373511D02*
Y379023D01*
X218729D02*
X228965D01*
X218729Y373511D02*
Y379023D01*
Y373511D02*
X228965D01*
X283210Y354482D02*
Y364718D01*
X277698Y354482D02*
X283210D01*
X277698D02*
Y364718D01*
X283210D01*
X308538Y341376D02*
X313262D01*
Y350824D01*
X308538D02*
X313262D01*
X308538Y341376D02*
Y350824D01*
X356582Y375556D02*
X366818D01*
Y370044D02*
Y375556D01*
X356582Y370044D02*
X366818D01*
X356582D02*
Y375556D01*
X346338Y363924D02*
X351062D01*
X346338Y354476D02*
Y363924D01*
Y354476D02*
X351062D01*
Y363924D01*
X346436Y350745D02*
X350964D01*
X346436Y341855D02*
Y350745D01*
Y341855D02*
X350964D01*
Y350745D01*
X308538Y363113D02*
X313262D01*
Y372562D01*
X308538D02*
X313262D01*
X308538Y363113D02*
Y372562D01*
X345487Y336438D02*
Y341162D01*
X336038D02*
X345487D01*
X336038Y336438D02*
Y341162D01*
Y336438D02*
X345487D01*
X324082Y341356D02*
X334318D01*
Y335844D02*
Y341356D01*
X324082Y335844D02*
X334318D01*
X324082D02*
Y341356D01*
X302138Y347524D02*
X306862D01*
X302138Y338076D02*
Y347524D01*
Y338076D02*
X306862D01*
Y347524D01*
X266538D02*
X271262D01*
X266538Y338076D02*
Y347524D01*
Y338076D02*
X271262D01*
Y347524D01*
X216620Y305536D02*
Y310064D01*
Y305536D02*
X225510D01*
Y310064D01*
X216620D02*
X225510D01*
X248638Y284838D02*
Y289562D01*
Y284838D02*
X258087D01*
Y289562D01*
X248638D02*
X258087D01*
X220524Y279138D02*
Y283862D01*
X211076D02*
X220524D01*
X211076Y279138D02*
Y283862D01*
Y279138D02*
X220524D01*
X271757Y354482D02*
Y364718D01*
X277269D01*
Y354482D02*
Y364718D01*
X271757Y354482D02*
X277269D01*
X277156Y369282D02*
Y379518D01*
X271644Y369282D02*
X277156D01*
X271644D02*
Y379518D01*
X277156D01*
X288956Y354482D02*
Y364718D01*
X283444Y354482D02*
X288956D01*
X283444D02*
Y364718D01*
X288956D01*
X282656Y369382D02*
Y379618D01*
X277144Y369382D02*
X282656D01*
X277144D02*
Y379618D01*
X282656D01*
X259245Y341335D02*
Y351571D01*
X264757D01*
Y341335D02*
Y351571D01*
X259245Y341335D02*
X264757D01*
X214601Y288420D02*
X227199D01*
Y303380D01*
X214601D02*
X227199D01*
X214601Y288420D02*
Y303380D01*
X220345Y272436D02*
Y276964D01*
X211455D02*
X220345D01*
X211455Y272436D02*
Y276964D01*
Y272436D02*
X220345D01*
X265838Y369576D02*
X270562D01*
Y379024D01*
X265838D02*
X270562D01*
X265838Y369576D02*
Y379024D01*
Y363987D02*
X270562D01*
X265838Y354538D02*
Y363987D01*
Y354538D02*
X270562D01*
Y363987D01*
X242611Y298437D02*
X257989D01*
Y290563D02*
Y298437D01*
X242611Y290563D02*
X257989D01*
X242611D02*
Y298437D01*
D80*
X228178Y360683D02*
Y358322D01*
X226997D01*
X226604Y358716D01*
Y359503D01*
X226997Y359896D01*
X228178D01*
X227391D02*
X226604Y360683D01*
X225816Y358322D02*
X224242D01*
Y358716D01*
X225816Y360290D01*
Y360683D01*
X228178Y366383D02*
Y364022D01*
X226997D01*
X226604Y364416D01*
Y365203D01*
X226997Y365596D01*
X228178D01*
X227391D02*
X226604Y366383D01*
X224636D02*
Y364022D01*
X225816Y365203D01*
X224242D01*
X228178Y371783D02*
Y369421D01*
X226997D01*
X226604Y369815D01*
Y370602D01*
X226997Y370995D01*
X228178D01*
X227391D02*
X226604Y371783D01*
X225816Y369815D02*
X225423Y369421D01*
X224636D01*
X224242Y369815D01*
Y370208D01*
X224636Y370602D01*
X224242Y370995D01*
Y371389D01*
X224636Y371783D01*
X225423D01*
X225816Y371389D01*
Y370995D01*
X225423Y370602D01*
X225816Y370208D01*
Y369815D01*
X225423Y370602D02*
X224636D01*
X228178Y377349D02*
Y374988D01*
X226997D01*
X226604Y375381D01*
Y376169D01*
X226997Y376562D01*
X228178D01*
X227391D02*
X226604Y377349D01*
X225816D02*
X225029D01*
X225423D01*
Y374988D01*
X225816Y375381D01*
X279372Y363931D02*
X281733D01*
Y362750D01*
X281339Y362356D01*
X280552D01*
X280159Y362750D01*
Y363931D01*
Y363144D02*
X279372Y362356D01*
Y359995D02*
Y361569D01*
X280946Y359995D01*
X281339D01*
X281733Y360388D01*
Y361176D01*
X281339Y361569D01*
X279372Y357633D02*
Y359208D01*
X280946Y357633D01*
X281339D01*
X281733Y358027D01*
Y358814D01*
X281339Y359208D01*
X357369Y371717D02*
Y374079D01*
X358550D01*
X358944Y373685D01*
Y372898D01*
X358550Y372504D01*
X357369D01*
X358156D02*
X358944Y371717D01*
X359731D02*
X360518D01*
X360124D01*
Y374079D01*
X359731Y373685D01*
X363273Y371717D02*
X361699D01*
X363273Y373292D01*
Y373685D01*
X362879Y374079D01*
X362092D01*
X361699Y373685D01*
X324869Y337517D02*
Y339879D01*
X326050D01*
X326444Y339485D01*
Y338698D01*
X326050Y338304D01*
X324869D01*
X325656D02*
X326444Y337517D01*
X327231D02*
X328018D01*
X327624D01*
Y339879D01*
X327231Y339485D01*
X329199Y337517D02*
X329986D01*
X329592D01*
Y339879D01*
X329199Y339485D01*
X275595Y355269D02*
X273234D01*
Y356450D01*
X273628Y356844D01*
X274415D01*
X274808Y356450D01*
Y355269D01*
Y356056D02*
X275595Y356844D01*
Y359205D02*
Y357631D01*
X274021Y359205D01*
X273628D01*
X273234Y358811D01*
Y358024D01*
X273628Y357631D01*
Y359992D02*
X273234Y360386D01*
Y361173D01*
X273628Y361566D01*
X274021D01*
X274415Y361173D01*
Y360779D01*
Y361173D01*
X274808Y361566D01*
X275202D01*
X275595Y361173D01*
Y360386D01*
X275202Y359992D01*
X273317Y378731D02*
X275679D01*
Y377550D01*
X275285Y377156D01*
X274498D01*
X274104Y377550D01*
Y378731D01*
Y377944D02*
X273317Y377156D01*
X275679Y374795D02*
X275285Y375582D01*
X274498Y376369D01*
X273711D01*
X273317Y375976D01*
Y375188D01*
X273711Y374795D01*
X274104D01*
X274498Y375188D01*
Y376369D01*
X285117Y363931D02*
X287479D01*
Y362750D01*
X287085Y362356D01*
X286298D01*
X285905Y362750D01*
Y363931D01*
Y363144D02*
X285117Y362356D01*
X287479Y359995D02*
Y361569D01*
X286298D01*
X286692Y360782D01*
Y360388D01*
X286298Y359995D01*
X285511D01*
X285117Y360388D01*
Y361176D01*
X285511Y361569D01*
X278817Y378831D02*
X281179D01*
Y377650D01*
X280785Y377256D01*
X279998D01*
X279605Y377650D01*
Y378831D01*
Y378044D02*
X278817Y377256D01*
X280785Y376469D02*
X281179Y376076D01*
Y375289D01*
X280785Y374895D01*
X280392D01*
X279998Y375289D01*
Y375682D01*
Y375289D01*
X279605Y374895D01*
X279211D01*
X278817Y375289D01*
Y376076D01*
X279211Y376469D01*
X263083Y342122D02*
X260722D01*
Y343303D01*
X261116Y343696D01*
X261903D01*
X262296Y343303D01*
Y342122D01*
Y342909D02*
X263083Y343696D01*
Y346058D02*
Y344483D01*
X261509Y346058D01*
X261116D01*
X260722Y345664D01*
Y344877D01*
X261116Y344483D01*
M02*
