G04*
G04 #@! TF.GenerationSoftware,Altium Limited,Altium Designer,21.0.8 (223)*
G04*
G04 Layer_Color=16711935*
%FSLAX25Y25*%
%MOIN*%
G70*
G04*
G04 #@! TF.SameCoordinates,AE60A7D3-7942-428E-9249-63F1B2AFBED3*
G04*
G04*
G04 #@! TF.FilePolarity,Negative*
G04*
G01*
G75*
%ADD50C,0.04724*%
%ADD51O,0.08465X0.06496*%
%ADD52O,0.06102X0.10827*%
%ADD53C,0.10039*%
%ADD54C,0.02559*%
%ADD55C,0.04528*%
D50*
X333800Y380500D02*
D03*
Y385500D02*
D03*
X338800Y380500D02*
D03*
X343800D02*
D03*
X338800Y385500D02*
D03*
X343800D02*
D03*
X348800Y380500D02*
D03*
Y385500D02*
D03*
X353800Y380500D02*
D03*
X358800D02*
D03*
X363800D02*
D03*
X353800Y385500D02*
D03*
X358800D02*
D03*
X363800D02*
D03*
D51*
X223700Y324000D02*
D03*
Y334000D02*
D03*
Y344000D02*
D03*
X253833Y323988D02*
D03*
Y333988D02*
D03*
Y343988D02*
D03*
D52*
X356469Y301870D02*
D03*
X347807D02*
D03*
X339146D02*
D03*
X330485D02*
D03*
X321823D02*
D03*
X313162D02*
D03*
X304500D02*
D03*
X295839D02*
D03*
X287177D02*
D03*
X278516D02*
D03*
X298595Y315650D02*
D03*
X324579D02*
D03*
X272611D02*
D03*
X281272D02*
D03*
X289933D02*
D03*
X307256D02*
D03*
X315918D02*
D03*
X333240D02*
D03*
X341902D02*
D03*
X350563D02*
D03*
X279058Y226772D02*
D03*
X287719D02*
D03*
X296381D02*
D03*
X305042D02*
D03*
X313703D02*
D03*
X322365D02*
D03*
X331026D02*
D03*
X339688D02*
D03*
X348349D02*
D03*
X357011D02*
D03*
X274727Y240552D02*
D03*
X283388D02*
D03*
X292050D02*
D03*
X300711D02*
D03*
X309373D02*
D03*
X318034D02*
D03*
X326696D02*
D03*
X335357D02*
D03*
X344018D02*
D03*
X352680D02*
D03*
D53*
X358979Y263387D02*
D03*
X272365D02*
D03*
D54*
X328481Y352543D02*
D03*
X324150Y361205D02*
D03*
X328481D02*
D03*
X332812D02*
D03*
X324150Y356874D02*
D03*
X328481D02*
D03*
X332812D02*
D03*
X324150Y352543D02*
D03*
X332812D02*
D03*
D55*
X263500Y229200D02*
D03*
Y222800D02*
D03*
Y248000D02*
D03*
Y235000D02*
D03*
X258200Y226900D02*
D03*
X240450D02*
D03*
X222700D02*
D03*
X251400Y234700D02*
D03*
X233650D02*
D03*
Y250800D02*
D03*
X215900Y234700D02*
D03*
Y250800D02*
D03*
X244500Y243000D02*
D03*
X224300D02*
D03*
X251400Y250800D02*
D03*
M02*
