G04*
G04 #@! TF.GenerationSoftware,Altium Limited,Altium Designer,21.0.8 (223)*
G04*
G04 Layer_Color=8388736*
%FSLAX25Y25*%
%MOIN*%
G70*
G04*
G04 #@! TF.SameCoordinates,53D1A9A1-71C5-4B57-A858-D8A7AC7FB82A*
G04*
G04*
G04 #@! TF.FilePolarity,Positive*
G04*
G01*
G75*
%ADD12C,0.00787*%
G36*
X220156Y289801D02*
X220216Y289845D01*
X220244Y289866D01*
X220268Y289888D01*
X220290Y289908D01*
X220307Y289921D01*
X220318Y289932D01*
X220320Y289935D01*
X220337Y289951D01*
X220358Y289973D01*
X220380Y289998D01*
X220405Y290025D01*
X220460Y290082D01*
X220511Y290142D01*
X220561Y290200D01*
X220582Y290224D01*
X220601Y290249D01*
X220618Y290265D01*
X220629Y290282D01*
X220637Y290290D01*
X220640Y290292D01*
X220691Y290352D01*
X220741Y290410D01*
X220784Y290462D01*
X220828Y290508D01*
X220866Y290552D01*
X220904Y290590D01*
X220937Y290625D01*
X220967Y290658D01*
X220992Y290686D01*
X221016Y290707D01*
X221036Y290726D01*
X221052Y290743D01*
X221065Y290754D01*
X221074Y290765D01*
X221079Y290767D01*
X221082Y290770D01*
X221142Y290822D01*
X221197Y290863D01*
X221249Y290898D01*
X221295Y290929D01*
X221333Y290950D01*
X221363Y290967D01*
X221374Y290972D01*
X221382Y290975D01*
X221385Y290978D01*
X221388D01*
X221442Y290999D01*
X221497Y291013D01*
X221546Y291024D01*
X221592Y291032D01*
X221631Y291038D01*
X221661Y291040D01*
X221672D01*
X221680D01*
X221683D01*
X221685D01*
X221740Y291038D01*
X221792Y291032D01*
X221841Y291021D01*
X221890Y291008D01*
X221934Y290991D01*
X221975Y290972D01*
X222013Y290953D01*
X222046Y290934D01*
X222078Y290915D01*
X222106Y290896D01*
X222130Y290877D01*
X222149Y290860D01*
X222163Y290847D01*
X222177Y290836D01*
X222182Y290830D01*
X222185Y290827D01*
X222220Y290787D01*
X222250Y290743D01*
X222278Y290696D01*
X222302Y290647D01*
X222321Y290601D01*
X222338Y290552D01*
X222351Y290505D01*
X222362Y290459D01*
X222371Y290418D01*
X222376Y290377D01*
X222381Y290341D01*
X222384Y290312D01*
X222387Y290287D01*
Y290251D01*
X222384Y290186D01*
X222379Y290123D01*
X222371Y290066D01*
X222357Y290011D01*
X222343Y289959D01*
X222327Y289913D01*
X222310Y289869D01*
X222294Y289831D01*
X222275Y289795D01*
X222259Y289766D01*
X222242Y289738D01*
X222229Y289716D01*
X222215Y289700D01*
X222207Y289689D01*
X222201Y289681D01*
X222199Y289678D01*
X222163Y289640D01*
X222122Y289607D01*
X222081Y289577D01*
X222035Y289550D01*
X221991Y289528D01*
X221947Y289506D01*
X221901Y289490D01*
X221860Y289476D01*
X221819Y289462D01*
X221781Y289454D01*
X221745Y289446D01*
X221715Y289441D01*
X221691Y289438D01*
X221674Y289435D01*
X221663Y289432D01*
X221658D01*
X221625Y289749D01*
X221669Y289752D01*
X221710Y289755D01*
X221781Y289771D01*
X221846Y289793D01*
X221874Y289804D01*
X221898Y289817D01*
X221920Y289828D01*
X221939Y289842D01*
X221955Y289853D01*
X221969Y289861D01*
X221980Y289872D01*
X221988Y289877D01*
X221991Y289880D01*
X221994Y289883D01*
X222018Y289910D01*
X222040Y289937D01*
X222057Y289967D01*
X222073Y289998D01*
X222097Y290058D01*
X222114Y290115D01*
X222122Y290164D01*
X222128Y290186D01*
Y290205D01*
X222130Y290221D01*
Y290282D01*
X222125Y290320D01*
X222111Y290388D01*
X222089Y290445D01*
X222067Y290497D01*
X222043Y290535D01*
X222032Y290552D01*
X222021Y290565D01*
X222013Y290576D01*
X222007Y290584D01*
X222005Y290587D01*
X222002Y290590D01*
X221977Y290615D01*
X221953Y290634D01*
X221928Y290653D01*
X221901Y290666D01*
X221849Y290691D01*
X221800Y290707D01*
X221759Y290716D01*
X221740Y290721D01*
X221724D01*
X221713Y290724D01*
X221702D01*
X221696D01*
X221693D01*
X221661Y290721D01*
X221628Y290718D01*
X221562Y290702D01*
X221500Y290677D01*
X221442Y290650D01*
X221393Y290623D01*
X221374Y290612D01*
X221355Y290598D01*
X221341Y290590D01*
X221330Y290582D01*
X221325Y290579D01*
X221322Y290576D01*
X221284Y290546D01*
X221243Y290511D01*
X221199Y290470D01*
X221156Y290426D01*
X221065Y290336D01*
X220981Y290243D01*
X220940Y290200D01*
X220904Y290156D01*
X220872Y290118D01*
X220844Y290085D01*
X220820Y290058D01*
X220803Y290038D01*
X220790Y290025D01*
X220787Y290019D01*
X220746Y289970D01*
X220708Y289927D01*
X220672Y289883D01*
X220637Y289845D01*
X220604Y289806D01*
X220571Y289774D01*
X220544Y289744D01*
X220517Y289716D01*
X220492Y289692D01*
X220470Y289673D01*
X220451Y289654D01*
X220438Y289640D01*
X220424Y289626D01*
X220416Y289618D01*
X220410Y289615D01*
X220408Y289613D01*
X220348Y289563D01*
X220287Y289523D01*
X220230Y289487D01*
X220178Y289460D01*
X220135Y289438D01*
X220115Y289430D01*
X220102Y289422D01*
X220088Y289416D01*
X220080Y289413D01*
X220075Y289411D01*
X220072D01*
X220034Y289397D01*
X219995Y289389D01*
X219960Y289381D01*
X219927Y289378D01*
X219900Y289375D01*
X219878D01*
X219864D01*
X219859D01*
Y291043D01*
X220156D01*
Y289801D01*
D02*
G37*
G36*
X221254Y289077D02*
X221311Y289075D01*
X221366Y289067D01*
X221418Y289058D01*
X221467Y289050D01*
X221513Y289042D01*
X221557Y289034D01*
X221595Y289023D01*
X221628Y289015D01*
X221658Y289007D01*
X221683Y288998D01*
X221702Y288990D01*
X221718Y288987D01*
X221726Y288982D01*
X221729D01*
X221822Y288941D01*
X221906Y288895D01*
X221945Y288870D01*
X221980Y288845D01*
X222013Y288821D01*
X222043Y288796D01*
X222070Y288774D01*
X222092Y288753D01*
X222114Y288734D01*
X222130Y288717D01*
X222144Y288703D01*
X222152Y288693D01*
X222158Y288687D01*
X222160Y288684D01*
X222207Y288624D01*
X222245Y288562D01*
X222275Y288502D01*
X222300Y288444D01*
X222319Y288392D01*
X222324Y288370D01*
X222329Y288351D01*
X222335Y288338D01*
X222338Y288327D01*
X222340Y288319D01*
Y288316D01*
X222346Y288286D01*
X222354Y288253D01*
X222362Y288179D01*
X222371Y288106D01*
X222373Y288032D01*
X222376Y287999D01*
Y287966D01*
X222379Y287939D01*
Y287000D01*
X219859D01*
Y287909D01*
X219862Y287991D01*
X219864Y288067D01*
X219872Y288136D01*
X219881Y288196D01*
X219883Y288220D01*
X219886Y288242D01*
X219892Y288264D01*
X219894Y288280D01*
X219897Y288294D01*
Y288302D01*
X219900Y288308D01*
Y288310D01*
X219919Y288373D01*
X219938Y288433D01*
X219960Y288485D01*
X219979Y288529D01*
X219998Y288564D01*
X220012Y288592D01*
X220023Y288608D01*
X220025Y288611D01*
Y288613D01*
X220061Y288660D01*
X220096Y288703D01*
X220135Y288742D01*
X220173Y288774D01*
X220206Y288805D01*
X220230Y288824D01*
X220241Y288832D01*
X220249Y288837D01*
X220252Y288843D01*
X220255D01*
X220312Y288881D01*
X220372Y288914D01*
X220435Y288944D01*
X220492Y288968D01*
X220544Y288987D01*
X220566Y288996D01*
X220585Y289004D01*
X220599Y289007D01*
X220610Y289012D01*
X220618Y289015D01*
X220621D01*
X220708Y289037D01*
X220795Y289053D01*
X220880Y289067D01*
X220959Y289075D01*
X220995Y289077D01*
X221027Y289080D01*
X221057D01*
X221082Y289083D01*
X221104D01*
X221117D01*
X221128D01*
X221131D01*
X221254Y289077D01*
D02*
G37*
G36*
X235887Y293283D02*
X235824Y293247D01*
X235764Y293206D01*
X235707Y293160D01*
X235658Y293113D01*
X235611Y293072D01*
X235595Y293053D01*
X235578Y293039D01*
X235565Y293026D01*
X235557Y293015D01*
X235551Y293009D01*
X235548Y293007D01*
X235486Y292933D01*
X235431Y292854D01*
X235379Y292777D01*
X235335Y292706D01*
X235319Y292676D01*
X235303Y292646D01*
X235286Y292619D01*
X235275Y292597D01*
X235267Y292578D01*
X235259Y292565D01*
X235256Y292556D01*
X235254Y292554D01*
X234956D01*
X234978Y292608D01*
X235002Y292666D01*
X235030Y292720D01*
X235054Y292769D01*
X235079Y292813D01*
X235087Y292832D01*
X235098Y292848D01*
X235103Y292862D01*
X235109Y292870D01*
X235114Y292876D01*
Y292878D01*
X235155Y292944D01*
X235193Y293001D01*
X235229Y293053D01*
X235262Y293094D01*
X235289Y293130D01*
X235308Y293154D01*
X235322Y293168D01*
X235327Y293173D01*
X233359D01*
Y293482D01*
X235887D01*
Y293283D01*
D02*
G37*
G36*
X234754Y291978D02*
X234811Y291975D01*
X234866Y291967D01*
X234918Y291958D01*
X234967Y291950D01*
X235013Y291942D01*
X235057Y291934D01*
X235095Y291923D01*
X235128Y291915D01*
X235158Y291907D01*
X235182Y291898D01*
X235202Y291890D01*
X235218Y291887D01*
X235226Y291882D01*
X235229D01*
X235322Y291841D01*
X235406Y291795D01*
X235445Y291770D01*
X235480Y291745D01*
X235513Y291721D01*
X235543Y291696D01*
X235570Y291674D01*
X235592Y291653D01*
X235614Y291634D01*
X235630Y291617D01*
X235644Y291603D01*
X235652Y291593D01*
X235658Y291587D01*
X235660Y291584D01*
X235707Y291524D01*
X235745Y291462D01*
X235775Y291402D01*
X235800Y291344D01*
X235819Y291292D01*
X235824Y291270D01*
X235829Y291251D01*
X235835Y291238D01*
X235838Y291227D01*
X235841Y291219D01*
Y291216D01*
X235846Y291186D01*
X235854Y291153D01*
X235862Y291079D01*
X235871Y291006D01*
X235873Y290932D01*
X235876Y290899D01*
Y290866D01*
X235879Y290839D01*
Y289900D01*
X233359D01*
Y290809D01*
X233362Y290891D01*
X233364Y290967D01*
X233372Y291036D01*
X233381Y291096D01*
X233383Y291120D01*
X233386Y291142D01*
X233392Y291164D01*
X233394Y291180D01*
X233397Y291194D01*
Y291202D01*
X233400Y291208D01*
Y291210D01*
X233419Y291273D01*
X233438Y291333D01*
X233460Y291385D01*
X233479Y291429D01*
X233498Y291464D01*
X233512Y291492D01*
X233523Y291508D01*
X233525Y291511D01*
Y291513D01*
X233561Y291560D01*
X233596Y291603D01*
X233635Y291642D01*
X233673Y291674D01*
X233706Y291705D01*
X233730Y291724D01*
X233741Y291732D01*
X233749Y291737D01*
X233752Y291743D01*
X233755D01*
X233812Y291781D01*
X233872Y291814D01*
X233935Y291844D01*
X233992Y291868D01*
X234044Y291887D01*
X234066Y291896D01*
X234085Y291904D01*
X234099Y291907D01*
X234110Y291912D01*
X234118Y291915D01*
X234121D01*
X234208Y291937D01*
X234295Y291953D01*
X234380Y291967D01*
X234459Y291975D01*
X234495Y291978D01*
X234527Y291980D01*
X234557D01*
X234582Y291983D01*
X234604D01*
X234617D01*
X234628D01*
X234631D01*
X234754Y291978D01*
D02*
G37*
%LPC*%
G36*
X221175Y288739D02*
X221153D01*
X221142D01*
X221136D01*
X221033Y288736D01*
X220940Y288728D01*
X220896Y288723D01*
X220858Y288717D01*
X220820Y288712D01*
X220787Y288706D01*
X220757Y288698D01*
X220730Y288693D01*
X220705Y288687D01*
X220686Y288682D01*
X220670Y288676D01*
X220659Y288673D01*
X220653Y288671D01*
X220651D01*
X220580Y288644D01*
X220517Y288613D01*
X220462Y288583D01*
X220416Y288556D01*
X220380Y288529D01*
X220353Y288507D01*
X220337Y288493D01*
X220334Y288491D01*
X220331Y288488D01*
X220301Y288455D01*
X220274Y288417D01*
X220252Y288379D01*
X220233Y288343D01*
X220219Y288310D01*
X220208Y288286D01*
X220206Y288275D01*
X220203Y288267D01*
X220200Y288264D01*
Y288261D01*
X220186Y288204D01*
X220176Y288141D01*
X220167Y288076D01*
X220162Y288013D01*
X220159Y287958D01*
Y287934D01*
X220156Y287912D01*
Y287333D01*
X222081D01*
Y287915D01*
X222078Y287964D01*
X222076Y288010D01*
X222073Y288054D01*
X222070Y288092D01*
X222065Y288127D01*
X222059Y288160D01*
X222057Y288188D01*
X222051Y288212D01*
X222046Y288234D01*
X222040Y288250D01*
X222037Y288267D01*
X222035Y288278D01*
X222032Y288286D01*
X222029Y288289D01*
Y288291D01*
X222013Y288327D01*
X221996Y288359D01*
X221953Y288420D01*
X221906Y288474D01*
X221857Y288521D01*
X221814Y288556D01*
X221795Y288573D01*
X221778Y288583D01*
X221762Y288594D01*
X221751Y288602D01*
X221745Y288605D01*
X221743Y288608D01*
X221702Y288630D01*
X221655Y288652D01*
X221560Y288684D01*
X221459Y288706D01*
X221360Y288723D01*
X221314Y288728D01*
X221273Y288734D01*
X221235Y288736D01*
X221202D01*
X221175Y288739D01*
D02*
G37*
G36*
X234675Y291639D02*
X234653D01*
X234642D01*
X234636D01*
X234533Y291636D01*
X234440Y291628D01*
X234396Y291623D01*
X234358Y291617D01*
X234320Y291612D01*
X234287Y291606D01*
X234257Y291598D01*
X234230Y291593D01*
X234205Y291587D01*
X234186Y291582D01*
X234170Y291576D01*
X234159Y291574D01*
X234153Y291571D01*
X234151D01*
X234080Y291544D01*
X234017Y291513D01*
X233962Y291483D01*
X233916Y291456D01*
X233880Y291429D01*
X233853Y291407D01*
X233837Y291393D01*
X233834Y291391D01*
X233831Y291388D01*
X233801Y291355D01*
X233774Y291317D01*
X233752Y291279D01*
X233733Y291243D01*
X233719Y291210D01*
X233708Y291186D01*
X233706Y291175D01*
X233703Y291167D01*
X233700Y291164D01*
Y291161D01*
X233686Y291104D01*
X233676Y291041D01*
X233667Y290976D01*
X233662Y290913D01*
X233659Y290858D01*
Y290834D01*
X233656Y290812D01*
Y290233D01*
X235581D01*
Y290815D01*
X235578Y290864D01*
X235576Y290910D01*
X235573Y290954D01*
X235570Y290992D01*
X235565Y291027D01*
X235559Y291060D01*
X235557Y291088D01*
X235551Y291112D01*
X235546Y291134D01*
X235540Y291150D01*
X235537Y291167D01*
X235535Y291178D01*
X235532Y291186D01*
X235529Y291189D01*
Y291191D01*
X235513Y291227D01*
X235496Y291260D01*
X235453Y291320D01*
X235406Y291374D01*
X235357Y291421D01*
X235314Y291456D01*
X235295Y291473D01*
X235278Y291483D01*
X235262Y291494D01*
X235251Y291502D01*
X235245Y291505D01*
X235243Y291508D01*
X235202Y291530D01*
X235155Y291552D01*
X235060Y291584D01*
X234959Y291606D01*
X234860Y291623D01*
X234814Y291628D01*
X234773Y291634D01*
X234735Y291636D01*
X234702D01*
X234675Y291639D01*
D02*
G37*
%LPD*%
D12*
X214399Y272925D02*
X226801D01*
X214399D02*
Y301075D01*
X226801D01*
Y272925D02*
Y301075D01*
X227899Y275825D02*
X240301D01*
X227899D02*
Y303975D01*
X240301D01*
Y275825D02*
Y303975D01*
M02*
