G04*
G04 #@! TF.GenerationSoftware,Altium Limited,Altium Designer,21.0.8 (223)*
G04*
G04 Layer_Color=8388736*
%FSLAX25Y25*%
%MOIN*%
G70*
G04*
G04 #@! TF.SameCoordinates,AE60A7D3-7942-428E-9249-63F1B2AFBED3*
G04*
G04*
G04 #@! TF.FilePolarity,Positive*
G04*
G01*
G75*
%ADD12C,0.00787*%
D12*
X309030Y342655D02*
X312770D01*
Y349545D01*
X309030D02*
X312770D01*
X309030Y342655D02*
Y349545D01*
X346830Y362645D02*
X350570D01*
X346830Y355755D02*
Y362645D01*
Y355755D02*
X350570D01*
Y362645D01*
X347125Y349450D02*
X350275D01*
X347125Y343150D02*
Y349450D01*
Y343150D02*
X350275D01*
Y349450D01*
X309030Y364393D02*
X312770D01*
Y371283D01*
X309030D02*
X312770D01*
X309030Y364393D02*
Y371283D01*
X344207Y336930D02*
Y340670D01*
X337317D02*
X344207D01*
X337317Y336930D02*
Y340670D01*
Y336930D02*
X344207D01*
X302630Y346245D02*
X306370D01*
X302630Y339355D02*
Y346245D01*
Y339355D02*
X306370D01*
Y346245D01*
X267030D02*
X270770D01*
X267030Y339355D02*
Y346245D01*
Y339355D02*
X270770D01*
Y346245D01*
X217915Y306225D02*
Y309375D01*
Y306225D02*
X224215D01*
Y309375D01*
X217915D02*
X224215D01*
X249917Y285330D02*
Y289070D01*
Y285330D02*
X256807D01*
Y289070D01*
X249917D02*
X256807D01*
X219245Y279630D02*
Y283370D01*
X212355D02*
X219245D01*
X212355Y279630D02*
Y283370D01*
Y279630D02*
X219245D01*
X214995Y292553D02*
X226805D01*
Y299247D01*
X214995D02*
X226805D01*
X214995Y292553D02*
Y299247D01*
X219050Y273125D02*
Y276275D01*
X212750D02*
X219050D01*
X212750Y273125D02*
Y276275D01*
Y273125D02*
X219050D01*
X266330Y370855D02*
X270070D01*
Y377745D01*
X266330D02*
X270070D01*
X266330Y370855D02*
Y377745D01*
Y362707D02*
X270070D01*
X266330Y355817D02*
Y362707D01*
Y355817D02*
X270070D01*
Y362707D01*
X244001Y297650D02*
X256599D01*
Y291350D02*
Y297650D01*
X244001Y291350D02*
X256599D01*
X244001D02*
Y297650D01*
M02*
