G04*
G04 #@! TF.GenerationSoftware,Altium Limited,Altium Designer,21.0.8 (223)*
G04*
G04 Layer_Color=0*
%FSLAX25Y25*%
%MOIN*%
G70*
G04*
G04 #@! TF.SameCoordinates,AE60A7D3-7942-428E-9249-63F1B2AFBED3*
G04*
G04*
G04 #@! TF.FilePolarity,Positive*
G04*
G01*
G75*
%ADD80C,0.00394*%
D80*
X308931Y346100D02*
X312868D01*
X310900Y344131D02*
Y348068D01*
X346731Y359200D02*
X350669D01*
X348700Y357231D02*
Y361169D01*
X346731Y346300D02*
X350669D01*
X348700Y344332D02*
Y348269D01*
X308931Y367838D02*
X312868D01*
X310900Y365869D02*
Y369806D01*
X340762Y336831D02*
Y340769D01*
X338794Y338800D02*
X342731D01*
X302532Y342800D02*
X306469D01*
X304500Y340831D02*
Y344769D01*
X266932Y342800D02*
X270868D01*
X268900Y340831D02*
Y344769D01*
X221065Y305832D02*
Y309769D01*
X219096Y307800D02*
X223033D01*
X253362Y285231D02*
Y289169D01*
X251394Y287200D02*
X255331D01*
X215800Y279532D02*
Y283469D01*
X213831Y281500D02*
X217769D01*
X218932Y295900D02*
X222868D01*
X220900Y293932D02*
Y297868D01*
X215900Y272731D02*
Y276669D01*
X213931Y274700D02*
X217868D01*
X266231Y374300D02*
X270168D01*
X268200Y372332D02*
Y376269D01*
X266231Y359262D02*
X270168D01*
X268200Y357294D02*
Y361231D01*
X248331Y294500D02*
X252268D01*
X250300Y292532D02*
Y296469D01*
M02*
