G04*
G04 #@! TF.GenerationSoftware,Altium Limited,Altium Designer,21.0.8 (223)*
G04*
G04 Layer_Color=8388736*
%FSLAX25Y25*%
%MOIN*%
G70*
G04*
G04 #@! TF.SameCoordinates,AE60A7D3-7942-428E-9249-63F1B2AFBED3*
G04*
G04*
G04 #@! TF.FilePolarity,Negative*
G04*
G01*
G75*
%ADD20R,0.03543X0.02953*%
%ADD23R,0.03379X0.03174*%
%ADD26R,0.02953X0.03543*%
%ADD28R,0.03174X0.03379*%
%ADD29R,0.02598X0.03937*%
%ADD35R,0.12402X0.12402*%
%ADD36O,0.01575X0.04724*%
%ADD37O,0.04724X0.01575*%
%ADD38R,0.03150X0.04134*%
%ADD39R,0.04134X0.03150*%
%ADD40R,0.05315X0.04921*%
%ADD41R,0.04528X0.03740*%
%ADD42R,0.10827X0.08071*%
%ADD43R,0.04331X0.04724*%
%ADD44R,0.06693X0.02953*%
%ADD45R,0.07598X0.12992*%
%ADD46R,0.02874X0.05236*%
%ADD47R,0.05136X0.07308*%
%ADD48R,0.42717X0.34449*%
%ADD49R,0.04528X0.13976*%
%ADD50C,0.04724*%
%ADD51O,0.08465X0.06496*%
%ADD52O,0.06102X0.10827*%
%ADD53C,0.10039*%
%ADD54C,0.02559*%
%ADD55C,0.04528*%
D20*
X310900Y348462D02*
D03*
Y343738D02*
D03*
X348700Y356838D02*
D03*
Y361562D02*
D03*
X310900Y370200D02*
D03*
Y365476D02*
D03*
X304500Y340438D02*
D03*
Y345162D02*
D03*
X268900Y340438D02*
D03*
Y345162D02*
D03*
X268200Y376662D02*
D03*
Y371938D02*
D03*
Y356900D02*
D03*
Y361624D02*
D03*
D23*
X348700Y343835D02*
D03*
Y348765D02*
D03*
D26*
X338400Y338800D02*
D03*
X343124D02*
D03*
X255724Y287200D02*
D03*
X251000D02*
D03*
X213438Y281500D02*
D03*
X218162D02*
D03*
D28*
X223530Y307800D02*
D03*
X218600D02*
D03*
X213435Y274700D02*
D03*
X218365D02*
D03*
D29*
X217160Y301018D02*
D03*
X224640D02*
D03*
Y290782D02*
D03*
X220900D02*
D03*
X217160D02*
D03*
D35*
X328481Y356874D02*
D03*
D36*
X336355Y345555D02*
D03*
X334387D02*
D03*
X332418D02*
D03*
X330450D02*
D03*
X328481D02*
D03*
X326513D02*
D03*
X324544D02*
D03*
X322576D02*
D03*
X320607D02*
D03*
Y368193D02*
D03*
X322576D02*
D03*
X324544D02*
D03*
X326513D02*
D03*
X328481D02*
D03*
X330450D02*
D03*
X332418D02*
D03*
X334387D02*
D03*
X336355D02*
D03*
D37*
X317162Y349000D02*
D03*
Y350969D02*
D03*
Y352937D02*
D03*
Y354906D02*
D03*
Y356874D02*
D03*
Y358842D02*
D03*
Y360811D02*
D03*
Y362779D02*
D03*
Y364748D02*
D03*
X339800D02*
D03*
Y362779D02*
D03*
Y360811D02*
D03*
Y358842D02*
D03*
Y356874D02*
D03*
Y354906D02*
D03*
Y352937D02*
D03*
Y350969D02*
D03*
Y349000D02*
D03*
D38*
X226800Y359600D02*
D03*
X220895D02*
D03*
X226800Y365300D02*
D03*
X220895D02*
D03*
X226800Y370699D02*
D03*
X220895D02*
D03*
X226800Y376266D02*
D03*
X220895D02*
D03*
X364653Y372801D02*
D03*
X358747D02*
D03*
X332153Y338601D02*
D03*
X326247D02*
D03*
D39*
X280455Y356647D02*
D03*
Y362553D02*
D03*
X274512D02*
D03*
Y356647D02*
D03*
X274401Y371447D02*
D03*
Y377353D02*
D03*
X286201Y356647D02*
D03*
Y362553D02*
D03*
X279901Y371547D02*
D03*
Y377453D02*
D03*
X262000Y349406D02*
D03*
Y343500D02*
D03*
D40*
X312500Y379366D02*
D03*
Y387634D02*
D03*
X299197Y379366D02*
D03*
Y387634D02*
D03*
D41*
X318758Y386453D02*
D03*
Y380547D02*
D03*
X305800Y386453D02*
D03*
Y380547D02*
D03*
D42*
X361700Y342600D02*
D03*
Y359529D02*
D03*
D43*
X358746Y366400D02*
D03*
X364454D02*
D03*
X358191Y335400D02*
D03*
X363900D02*
D03*
D44*
X276200D02*
D03*
X297460Y340400D02*
D03*
X276200Y350400D02*
D03*
X297460Y335400D02*
D03*
Y345400D02*
D03*
Y350400D02*
D03*
X276200Y345400D02*
D03*
Y340400D02*
D03*
D45*
X233905Y306300D02*
D03*
X254495D02*
D03*
D46*
X232600Y357200D02*
D03*
X237600D02*
D03*
X242600D02*
D03*
X247600D02*
D03*
X252600D02*
D03*
X257600D02*
D03*
X262600D02*
D03*
Y378145D02*
D03*
X257600D02*
D03*
X252600D02*
D03*
X247600D02*
D03*
X242600D02*
D03*
X237600D02*
D03*
X232600D02*
D03*
D47*
X245277Y294500D02*
D03*
X255323D02*
D03*
D48*
X234000Y237352D02*
D03*
D49*
Y279084D02*
D03*
X244000D02*
D03*
X224000D02*
D03*
D50*
X333800Y380500D02*
D03*
Y385500D02*
D03*
X338800Y380500D02*
D03*
X343800D02*
D03*
X338800Y385500D02*
D03*
X343800D02*
D03*
X348800Y380500D02*
D03*
Y385500D02*
D03*
X353800Y380500D02*
D03*
X358800D02*
D03*
X363800D02*
D03*
X353800Y385500D02*
D03*
X358800D02*
D03*
X363800D02*
D03*
D51*
X223700Y324000D02*
D03*
Y334000D02*
D03*
Y344000D02*
D03*
X253833Y323988D02*
D03*
Y333988D02*
D03*
Y343988D02*
D03*
D52*
X356469Y301870D02*
D03*
X347807D02*
D03*
X339146D02*
D03*
X330485D02*
D03*
X321823D02*
D03*
X313162D02*
D03*
X304500D02*
D03*
X295839D02*
D03*
X287177D02*
D03*
X278516D02*
D03*
X298595Y315650D02*
D03*
X324579D02*
D03*
X272611D02*
D03*
X281272D02*
D03*
X289933D02*
D03*
X307256D02*
D03*
X315918D02*
D03*
X333240D02*
D03*
X341902D02*
D03*
X350563D02*
D03*
X279058Y226772D02*
D03*
X287719D02*
D03*
X296381D02*
D03*
X305042D02*
D03*
X313703D02*
D03*
X322365D02*
D03*
X331026D02*
D03*
X339688D02*
D03*
X348349D02*
D03*
X357011D02*
D03*
X274727Y240552D02*
D03*
X283388D02*
D03*
X292050D02*
D03*
X300711D02*
D03*
X309373D02*
D03*
X318034D02*
D03*
X326696D02*
D03*
X335357D02*
D03*
X344018D02*
D03*
X352680D02*
D03*
D53*
X358979Y263387D02*
D03*
X272365D02*
D03*
D54*
X328481Y352543D02*
D03*
X324150Y361205D02*
D03*
X328481D02*
D03*
X332812D02*
D03*
X324150Y356874D02*
D03*
X328481D02*
D03*
X332812D02*
D03*
X324150Y352543D02*
D03*
X332812D02*
D03*
D55*
X263500Y229200D02*
D03*
Y222800D02*
D03*
Y248000D02*
D03*
Y235000D02*
D03*
X258200Y226900D02*
D03*
X240450D02*
D03*
X222700D02*
D03*
X251400Y234700D02*
D03*
X233650D02*
D03*
Y250800D02*
D03*
X215900Y234700D02*
D03*
Y250800D02*
D03*
X244500Y243000D02*
D03*
X224300D02*
D03*
X251400Y250800D02*
D03*
M02*
