G04*
G04 #@! TF.GenerationSoftware,Altium Limited,Altium Designer,21.0.8 (223)*
G04*
G04 Layer_Color=32768*
%FSLAX25Y25*%
%MOIN*%
G70*
G04*
G04 #@! TF.SameCoordinates,AE60A7D3-7942-428E-9249-63F1B2AFBED3*
G04*
G04*
G04 #@! TF.FilePolarity,Positive*
G04*
G01*
G75*
%ADD80C,0.00394*%
%ADD81C,0.00197*%
D80*
X328481Y354906D02*
Y358842D01*
X326513Y356874D02*
X330450D01*
X309154Y376709D02*
X315846D01*
X309154Y390291D02*
X315846D01*
X309154Y376709D02*
Y390291D01*
X315846Y376709D02*
Y390291D01*
X312500Y381532D02*
Y385469D01*
X310531Y383500D02*
X314469D01*
X295851Y376709D02*
X302544D01*
X295851Y390291D02*
X302544D01*
X295851Y376709D02*
Y390291D01*
X302544Y376709D02*
Y390291D01*
X299197Y381532D02*
Y385469D01*
X297229Y383500D02*
X301166D01*
X316986Y383500D02*
X320529D01*
X318758Y381728D02*
Y385272D01*
X304028Y383500D02*
X307572D01*
X305800Y381728D02*
Y385272D01*
X359732Y351065D02*
X363668D01*
X361700Y349096D02*
Y353033D01*
X359828Y366400D02*
X363372D01*
X361600Y364628D02*
Y368172D01*
X359274Y335400D02*
X362817D01*
X361046Y333628D02*
Y337172D01*
X244200Y304331D02*
Y308268D01*
X242232Y306300D02*
X246169D01*
X245632Y367672D02*
X249569D01*
X247600Y365704D02*
Y369641D01*
X234000Y251132D02*
Y255069D01*
X232032Y253100D02*
X235969D01*
D81*
X314111Y371244D02*
X342851D01*
X314111Y342504D02*
X342851D01*
X314111D02*
Y371244D01*
X342851Y342504D02*
Y371244D01*
X348800Y381031D02*
Y384968D01*
X346831Y383000D02*
X350768D01*
X329922Y390776D02*
X367678D01*
Y375224D02*
Y390776D01*
X329922Y375224D02*
X367678D01*
X329922D02*
Y390776D01*
X322695Y377004D02*
Y389996D01*
X314821Y377004D02*
Y389996D01*
X322695D01*
X314821Y377004D02*
X322695D01*
X309737D02*
Y389996D01*
X301863Y377004D02*
Y389996D01*
X309737D01*
X301863Y377004D02*
X309737D01*
X354416Y338466D02*
X368984D01*
X354416D02*
Y363663D01*
X368984D01*
Y338466D02*
Y363663D01*
X354907Y362266D02*
Y370534D01*
X368293Y362266D02*
Y370534D01*
X354907D02*
X368293D01*
X354907Y362266D02*
X368293D01*
X354353Y331266D02*
Y339534D01*
X367739Y331266D02*
Y339534D01*
X354353D02*
X367739D01*
X354353Y331266D02*
X367739D01*
X230007Y313072D02*
X258393D01*
X230007Y299528D02*
X258393D01*
X230007D02*
Y313072D01*
X258393Y299528D02*
Y313072D01*
X229982Y380861D02*
X265218D01*
Y354483D02*
Y380861D01*
X229982Y354483D02*
X265218D01*
X229982D02*
Y380861D01*
X212543Y286171D02*
X255457D01*
X212543Y220029D02*
X255457D01*
Y286171D01*
X212543Y220029D02*
Y286171D01*
M02*
