G04*
G04 #@! TF.GenerationSoftware,Altium Limited,Altium Designer,21.0.8 (223)*
G04*
G04 Layer_Color=65535*
%FSLAX25Y25*%
%MOIN*%
G70*
G04*
G04 #@! TF.SameCoordinates,AE60A7D3-7942-428E-9249-63F1B2AFBED3*
G04*
G04*
G04 #@! TF.FilePolarity,Positive*
G04*
G01*
G75*
%ADD12C,0.00787*%
D12*
X308538Y341376D02*
X313262D01*
Y350824D01*
X308538D02*
X313262D01*
X308538Y341376D02*
Y350824D01*
X346338Y363924D02*
X351062D01*
X346338Y354476D02*
Y363924D01*
Y354476D02*
X351062D01*
Y363924D01*
X346436Y350745D02*
X350964D01*
X346436Y341855D02*
Y350745D01*
Y341855D02*
X350964D01*
Y350745D01*
X308538Y363113D02*
X313262D01*
Y372562D01*
X308538D02*
X313262D01*
X308538Y363113D02*
Y372562D01*
X345487Y336438D02*
Y341162D01*
X336038D02*
X345487D01*
X336038Y336438D02*
Y341162D01*
Y336438D02*
X345487D01*
X302138Y347524D02*
X306862D01*
X302138Y338076D02*
Y347524D01*
Y338076D02*
X306862D01*
Y347524D01*
X266538D02*
X271262D01*
X266538Y338076D02*
Y347524D01*
Y338076D02*
X271262D01*
Y347524D01*
X216620Y305536D02*
Y310064D01*
Y305536D02*
X225510D01*
Y310064D01*
X216620D02*
X225510D01*
X248638Y284838D02*
Y289562D01*
Y284838D02*
X258087D01*
Y289562D01*
X248638D02*
X258087D01*
X220524Y279138D02*
Y283862D01*
X211076D02*
X220524D01*
X211076Y279138D02*
Y283862D01*
Y279138D02*
X220524D01*
X214601Y288420D02*
X227199D01*
Y303380D01*
X214601D02*
X227199D01*
X214601Y288420D02*
Y303380D01*
X220345Y272436D02*
Y276964D01*
X211455D02*
X220345D01*
X211455Y272436D02*
Y276964D01*
Y272436D02*
X220345D01*
X265838Y369576D02*
X270562D01*
Y379024D01*
X265838D02*
X270562D01*
X265838Y369576D02*
Y379024D01*
Y363987D02*
X270562D01*
X265838Y354538D02*
Y363987D01*
Y354538D02*
X270562D01*
Y363987D01*
X242611Y298437D02*
X257989D01*
Y290563D02*
Y298437D01*
X242611Y290563D02*
X257989D01*
X242611D02*
Y298437D01*
M02*
