G04*
G04 #@! TF.GenerationSoftware,Altium Limited,Altium Designer,21.0.8 (223)*
G04*
G04 Layer_Color=8388736*
%FSLAX25Y25*%
%MOIN*%
G70*
G04*
G04 #@! TF.SameCoordinates,3B633D02-0EC4-4577-A0D3-F38BB98637A7*
G04*
G04*
G04 #@! TF.FilePolarity,Negative*
G04*
G01*
G75*
%ADD19R,0.03543X0.02953*%
%ADD22R,0.02953X0.03543*%
%ADD25R,0.03174X0.03379*%
%ADD32R,0.02598X0.03937*%
%ADD38O,0.04528X0.01575*%
%ADD39O,0.01575X0.04528*%
%ADD40R,0.22638X0.22638*%
%ADD41R,0.03150X0.04134*%
%ADD42O,0.01575X0.06693*%
%ADD43O,0.06693X0.01575*%
%ADD44R,0.10827X0.08071*%
%ADD45R,0.04134X0.04724*%
%ADD46R,0.04724X0.04331*%
%ADD47R,0.04331X0.04724*%
%ADD48R,0.04134X0.03150*%
%ADD49R,0.05315X0.04921*%
%ADD50R,0.04528X0.03740*%
%ADD51R,0.06693X0.02953*%
%ADD52R,0.07598X0.12992*%
%ADD53R,0.02874X0.05236*%
%ADD54R,0.05136X0.07308*%
%ADD55R,0.42717X0.34449*%
%ADD56R,0.04528X0.13976*%
%ADD57C,0.00591*%
%ADD58C,0.04724*%
%ADD59O,0.08465X0.06496*%
%ADD60O,0.06102X0.10827*%
%ADD61C,0.10039*%
%ADD62C,0.02953*%
%ADD63C,0.02559*%
%ADD64C,0.04528*%
D19*
X313600Y340338D02*
D03*
Y345062D02*
D03*
X317300Y368138D02*
D03*
Y372862D02*
D03*
X304500Y340438D02*
D03*
Y345162D02*
D03*
X268900Y340438D02*
D03*
Y345162D02*
D03*
X268200Y376662D02*
D03*
Y371938D02*
D03*
Y356900D02*
D03*
Y361624D02*
D03*
D22*
X356362Y334134D02*
D03*
X351638D02*
D03*
X355138Y378400D02*
D03*
X359862D02*
D03*
X255724Y287200D02*
D03*
X251000D02*
D03*
X213438Y274800D02*
D03*
X218162D02*
D03*
D25*
X356929Y371240D02*
D03*
X361859D02*
D03*
X223530Y307800D02*
D03*
X218600D02*
D03*
X213335Y281600D02*
D03*
X218265D02*
D03*
D32*
X217160Y301018D02*
D03*
X224640D02*
D03*
Y290782D02*
D03*
X220900D02*
D03*
X217160D02*
D03*
D38*
X350811Y343907D02*
D03*
Y345876D02*
D03*
Y347844D02*
D03*
Y349813D02*
D03*
Y351781D02*
D03*
Y353750D02*
D03*
Y355718D02*
D03*
Y357687D02*
D03*
Y359655D02*
D03*
Y361624D02*
D03*
Y363592D02*
D03*
Y365561D02*
D03*
X323252D02*
D03*
Y363592D02*
D03*
Y361624D02*
D03*
Y359655D02*
D03*
Y357687D02*
D03*
Y355718D02*
D03*
Y353750D02*
D03*
Y351781D02*
D03*
Y349813D02*
D03*
Y347844D02*
D03*
Y345876D02*
D03*
Y343907D02*
D03*
D39*
X347858Y368513D02*
D03*
X345890D02*
D03*
X343921D02*
D03*
X341953D02*
D03*
X339984D02*
D03*
X338016D02*
D03*
X336047D02*
D03*
X334079D02*
D03*
X332110D02*
D03*
X330142D02*
D03*
X328173D02*
D03*
X326205D02*
D03*
Y340954D02*
D03*
X328173D02*
D03*
X330142D02*
D03*
X332110D02*
D03*
X334079D02*
D03*
X336047D02*
D03*
X338016D02*
D03*
X339984D02*
D03*
X341953D02*
D03*
X343921D02*
D03*
X345890D02*
D03*
X347858D02*
D03*
D40*
X337032Y354734D02*
D03*
D41*
X369253Y382533D02*
D03*
X363347D02*
D03*
Y387933D02*
D03*
X369253D02*
D03*
X226800Y359600D02*
D03*
X220895D02*
D03*
X226800Y365300D02*
D03*
X220895D02*
D03*
X226800Y370699D02*
D03*
X220895D02*
D03*
X226800Y376266D02*
D03*
X220895D02*
D03*
X330153Y329001D02*
D03*
X324247D02*
D03*
D42*
X347858Y338887D02*
D03*
X345890D02*
D03*
X343921D02*
D03*
X341953D02*
D03*
X339984D02*
D03*
X338016D02*
D03*
X336047D02*
D03*
X334079D02*
D03*
X332110D02*
D03*
X330142D02*
D03*
X328173D02*
D03*
X326205D02*
D03*
Y370580D02*
D03*
X328173D02*
D03*
X330142D02*
D03*
X332110D02*
D03*
X334079D02*
D03*
X336047D02*
D03*
X338016D02*
D03*
X339984D02*
D03*
X341953D02*
D03*
X343921D02*
D03*
X345890D02*
D03*
X347858D02*
D03*
D43*
X321185Y343907D02*
D03*
Y345876D02*
D03*
Y347844D02*
D03*
Y349813D02*
D03*
Y351781D02*
D03*
Y353750D02*
D03*
Y355718D02*
D03*
Y357687D02*
D03*
Y359655D02*
D03*
Y361624D02*
D03*
Y363592D02*
D03*
Y365561D02*
D03*
X352878D02*
D03*
Y363592D02*
D03*
Y361624D02*
D03*
Y359655D02*
D03*
Y357687D02*
D03*
Y355718D02*
D03*
Y353750D02*
D03*
Y351781D02*
D03*
Y349813D02*
D03*
Y347844D02*
D03*
Y345876D02*
D03*
Y343907D02*
D03*
D44*
X366100Y362498D02*
D03*
Y345569D02*
D03*
D45*
X312042Y335700D02*
D03*
X317357D02*
D03*
X310542Y330800D02*
D03*
X315858D02*
D03*
D46*
X368500Y375054D02*
D03*
Y369346D02*
D03*
D47*
X366600Y338334D02*
D03*
X360891D02*
D03*
D48*
X280455Y356647D02*
D03*
Y362553D02*
D03*
X274512D02*
D03*
Y356647D02*
D03*
X274401Y371447D02*
D03*
Y377353D02*
D03*
X286201Y356647D02*
D03*
Y362553D02*
D03*
X279901Y371547D02*
D03*
Y377453D02*
D03*
X262000Y349406D02*
D03*
Y343500D02*
D03*
D49*
X307829Y379266D02*
D03*
Y387534D02*
D03*
X297300Y379266D02*
D03*
Y387534D02*
D03*
D50*
X312700Y386653D02*
D03*
Y380747D02*
D03*
X302171Y386653D02*
D03*
Y380747D02*
D03*
D51*
X276200Y335400D02*
D03*
X297460Y340400D02*
D03*
X276200Y350400D02*
D03*
X297460Y335400D02*
D03*
Y345400D02*
D03*
Y350400D02*
D03*
X276200Y345400D02*
D03*
Y340400D02*
D03*
D52*
X233905Y306300D02*
D03*
X254495D02*
D03*
D53*
X232600Y357200D02*
D03*
X237600D02*
D03*
X242600D02*
D03*
X247600D02*
D03*
X252600D02*
D03*
X257600D02*
D03*
X262600D02*
D03*
Y378145D02*
D03*
X257600D02*
D03*
X252600D02*
D03*
X247600D02*
D03*
X242600D02*
D03*
X237600D02*
D03*
X232600D02*
D03*
D54*
X245277Y294500D02*
D03*
X255323D02*
D03*
D55*
X234000Y237352D02*
D03*
D56*
Y279084D02*
D03*
X244000D02*
D03*
X224000D02*
D03*
D57*
X349700Y386100D02*
D03*
Y381100D02*
D03*
X334700D02*
D03*
X329700Y386100D02*
D03*
X319700D02*
D03*
X329700Y381100D02*
D03*
X319700D02*
D03*
D58*
X344700Y386100D02*
D03*
X339700D02*
D03*
X344700Y381100D02*
D03*
X339700D02*
D03*
X334700Y386100D02*
D03*
X324700D02*
D03*
Y381100D02*
D03*
D59*
X223700Y324000D02*
D03*
Y334000D02*
D03*
Y344000D02*
D03*
X253833Y323988D02*
D03*
Y333988D02*
D03*
Y343988D02*
D03*
D60*
X356469Y301870D02*
D03*
X347807D02*
D03*
X339146D02*
D03*
X330485D02*
D03*
X321823D02*
D03*
X313162D02*
D03*
X304500D02*
D03*
X295839D02*
D03*
X287177D02*
D03*
X278516D02*
D03*
X298595Y315650D02*
D03*
X324579D02*
D03*
X272611D02*
D03*
X281272D02*
D03*
X289933D02*
D03*
X307256D02*
D03*
X315918D02*
D03*
X333240D02*
D03*
X341902D02*
D03*
X350563D02*
D03*
X279058Y226772D02*
D03*
X287719D02*
D03*
X296381D02*
D03*
X305042D02*
D03*
X313703D02*
D03*
X322365D02*
D03*
X331026D02*
D03*
X339688D02*
D03*
X348349D02*
D03*
X357011D02*
D03*
X274727Y240552D02*
D03*
X283388D02*
D03*
X292050D02*
D03*
X300711D02*
D03*
X309373D02*
D03*
X318034D02*
D03*
X326696D02*
D03*
X335357D02*
D03*
X344018D02*
D03*
X352680D02*
D03*
D61*
X358979Y263387D02*
D03*
X272365D02*
D03*
D62*
X366938Y378129D02*
D03*
X362665Y376598D02*
D03*
X310153Y368153D02*
D03*
X298850Y369597D02*
D03*
X309252Y371289D02*
D03*
X332200Y378589D02*
D03*
X312592Y372508D02*
D03*
X320284Y341084D02*
D03*
X317288Y348100D02*
D03*
X320302Y328581D02*
D03*
X320400Y322548D02*
D03*
X321196Y337017D02*
D03*
X355200Y384179D02*
D03*
X353110Y374357D02*
D03*
X359300Y387100D02*
D03*
X349400Y327000D02*
D03*
X363746Y334200D02*
D03*
X336823Y332690D02*
D03*
X334318Y334074D02*
D03*
X373819Y374200D02*
D03*
X220536Y286635D02*
D03*
X227899Y287361D02*
D03*
D63*
X345693Y346072D02*
D03*
X341362D02*
D03*
X337032D02*
D03*
X332701D02*
D03*
X328370D02*
D03*
X345693Y350403D02*
D03*
X341362D02*
D03*
X337032D02*
D03*
X332701D02*
D03*
X328370D02*
D03*
X345693Y354734D02*
D03*
X341362D02*
D03*
X337032D02*
D03*
X332701D02*
D03*
X328370D02*
D03*
X345693Y359065D02*
D03*
X341362D02*
D03*
X337032D02*
D03*
X332701D02*
D03*
X328370D02*
D03*
X345693Y363395D02*
D03*
X341362D02*
D03*
X337032D02*
D03*
X332701D02*
D03*
X328370D02*
D03*
D64*
X263500Y229200D02*
D03*
Y222800D02*
D03*
Y248000D02*
D03*
Y235000D02*
D03*
X258200Y226900D02*
D03*
X240450D02*
D03*
X222700D02*
D03*
X251400Y234700D02*
D03*
X233650D02*
D03*
Y250800D02*
D03*
X215900Y234700D02*
D03*
Y250800D02*
D03*
X244500Y243000D02*
D03*
X224300D02*
D03*
X251400Y250800D02*
D03*
M02*
