G04*
G04 #@! TF.GenerationSoftware,Altium Limited,Altium Designer,21.0.8 (223)*
G04*
G04 Layer_Color=32768*
%FSLAX25Y25*%
%MOIN*%
G70*
G04*
G04 #@! TF.SameCoordinates,53D1A9A1-71C5-4B57-A858-D8A7AC7FB82A*
G04*
G04*
G04 #@! TF.FilePolarity,Positive*
G04*
G01*
G75*
%ADD95C,0.00394*%
%ADD96C,0.00197*%
D95*
X335063Y354734D02*
X339000D01*
X337032Y352765D02*
Y356702D01*
Y352765D02*
Y356702D01*
X335063Y354734D02*
X339000D01*
X370200Y350707D02*
Y354644D01*
X368232Y352676D02*
X372168D01*
X366100Y352065D02*
Y356002D01*
X364131Y354034D02*
X368069D01*
X312830Y335700D02*
X316570D01*
X314700Y333830D02*
Y337570D01*
X311330Y330200D02*
X315070D01*
X313200Y328330D02*
Y332070D01*
X366728Y372200D02*
X370272D01*
X368500Y370428D02*
Y373972D01*
X363746Y336562D02*
Y340106D01*
X361974Y338334D02*
X365517D01*
X304254Y376509D02*
X310946D01*
X304254Y390091D02*
X310946D01*
X304254Y376509D02*
Y390091D01*
X310946Y376509D02*
Y390091D01*
X307600Y381331D02*
Y385268D01*
X305631Y383300D02*
X309569D01*
X293754Y376609D02*
X300447D01*
X293754Y390191D02*
X300447D01*
X293754Y376609D02*
Y390191D01*
X300447Y376609D02*
Y390191D01*
X297100Y381432D02*
Y385368D01*
X295131Y383400D02*
X299068D01*
X310928Y383700D02*
X314472D01*
X312700Y381928D02*
Y385472D01*
X300399Y383700D02*
X303942D01*
X302171Y381928D02*
Y385472D01*
X244200Y304331D02*
Y308268D01*
X242232Y306300D02*
X246169D01*
X245632Y367672D02*
X249569D01*
X247600Y365704D02*
Y369641D01*
X234000Y251132D02*
Y255069D01*
X232032Y253100D02*
X235969D01*
D96*
X354748Y337017D02*
Y372450D01*
X319315Y337017D02*
Y372450D01*
Y337017D02*
X354748D01*
X319315Y372450D02*
X354748D01*
X317740Y374025D02*
X356323D01*
X317740Y335442D02*
X356323D01*
X317740D02*
Y374025D01*
X356323Y335442D02*
Y374025D01*
X356617Y333778D02*
Y371573D01*
X381105D01*
X356617Y333778D02*
X381105D01*
Y371573D01*
X373383Y341435D02*
Y366632D01*
X358817D02*
X373383D01*
X358817Y341435D02*
Y366632D01*
Y341435D02*
X373383D01*
X308204Y331566D02*
Y339834D01*
X321196Y331566D02*
Y339834D01*
X308204D02*
X321196D01*
X308204Y331566D02*
X321196D01*
X306704Y326066D02*
Y334334D01*
X319696Y326066D02*
Y334334D01*
X306704D02*
X319696D01*
X306704Y326066D02*
X319696D01*
X372634Y365507D02*
Y378893D01*
X364366Y365507D02*
Y378893D01*
X372634D01*
X364366Y365507D02*
X372634D01*
X357053Y334200D02*
X370439D01*
X357053Y342468D02*
X370439D01*
Y334200D02*
Y342468D01*
X357053Y334200D02*
Y342468D01*
X334700Y381631D02*
Y385568D01*
X332732Y383600D02*
X336668D01*
X315822Y375824D02*
X353578D01*
X315822D02*
Y391376D01*
X353578D01*
Y375824D02*
Y391376D01*
X316637Y377204D02*
Y390196D01*
X308763Y377204D02*
Y390196D01*
X316637D01*
X308763Y377204D02*
X316637D01*
X306108D02*
Y390196D01*
X298234Y377204D02*
Y390196D01*
X306108D01*
X298234Y377204D02*
X306108D01*
X230007Y313072D02*
X258393D01*
X230007Y299528D02*
X258393D01*
X230007D02*
Y313072D01*
X258393Y299528D02*
Y313072D01*
X229982Y380861D02*
X265218D01*
Y354483D02*
Y380861D01*
X229982Y354483D02*
X265218D01*
X229982D02*
Y380861D01*
X212543Y286171D02*
X255457D01*
X212543Y220029D02*
X255457D01*
Y286171D01*
X212543Y220029D02*
Y286171D01*
M02*
