G04*
G04 #@! TF.GenerationSoftware,Altium Limited,Altium Designer,21.0.8 (223)*
G04*
G04 Layer_Color=16711935*
%FSLAX25Y25*%
%MOIN*%
G70*
G04*
G04 #@! TF.SameCoordinates,3B633D02-0EC4-4577-A0D3-F38BB98637A7*
G04*
G04*
G04 #@! TF.FilePolarity,Negative*
G04*
G01*
G75*
%ADD57C,0.00591*%
%ADD58C,0.04724*%
%ADD59O,0.08465X0.06496*%
%ADD60O,0.06102X0.10827*%
%ADD61C,0.10039*%
%ADD62C,0.02953*%
%ADD63C,0.02559*%
%ADD64C,0.04528*%
%ADD91R,0.06890X0.10433*%
%ADD92R,0.08071X0.08071*%
%ADD93R,0.08071X0.07677*%
%ADD94R,0.05906X0.02165*%
%ADD95R,0.06890X0.08858*%
D57*
X349700Y386100D02*
D03*
Y381100D02*
D03*
X334700D02*
D03*
X329700Y386100D02*
D03*
X319700D02*
D03*
X329700Y381100D02*
D03*
X319700D02*
D03*
D58*
X344700Y386100D02*
D03*
X339700D02*
D03*
X344700Y381100D02*
D03*
X339700D02*
D03*
X334700Y386100D02*
D03*
X324700D02*
D03*
Y381100D02*
D03*
D59*
X223700Y324000D02*
D03*
Y334000D02*
D03*
Y344000D02*
D03*
X253833Y323988D02*
D03*
Y333988D02*
D03*
Y343988D02*
D03*
D60*
X356469Y301870D02*
D03*
X347807D02*
D03*
X339146D02*
D03*
X330485D02*
D03*
X321823D02*
D03*
X313162D02*
D03*
X304500D02*
D03*
X295839D02*
D03*
X287177D02*
D03*
X278516D02*
D03*
X298595Y315650D02*
D03*
X324579D02*
D03*
X272611D02*
D03*
X281272D02*
D03*
X289933D02*
D03*
X307256D02*
D03*
X315918D02*
D03*
X333240D02*
D03*
X341902D02*
D03*
X350563D02*
D03*
X279058Y226772D02*
D03*
X287719D02*
D03*
X296381D02*
D03*
X305042D02*
D03*
X313703D02*
D03*
X322365D02*
D03*
X331026D02*
D03*
X339688D02*
D03*
X348349D02*
D03*
X357011D02*
D03*
X274727Y240552D02*
D03*
X283388D02*
D03*
X292050D02*
D03*
X300711D02*
D03*
X309373D02*
D03*
X318034D02*
D03*
X326696D02*
D03*
X335357D02*
D03*
X344018D02*
D03*
X352680D02*
D03*
D61*
X358979Y263387D02*
D03*
X272365D02*
D03*
D62*
X366938Y378129D02*
D03*
X362665Y376598D02*
D03*
X310153Y368153D02*
D03*
X298850Y369597D02*
D03*
X309252Y371289D02*
D03*
X332200Y378589D02*
D03*
X312592Y372508D02*
D03*
X320284Y341084D02*
D03*
X317288Y348100D02*
D03*
X320302Y328581D02*
D03*
X320400Y322548D02*
D03*
X321196Y337017D02*
D03*
X355200Y384179D02*
D03*
X353110Y374357D02*
D03*
X359300Y387100D02*
D03*
X349400Y327000D02*
D03*
X363746Y334200D02*
D03*
X336823Y332690D02*
D03*
X334318Y334074D02*
D03*
X373819Y374200D02*
D03*
X220536Y286635D02*
D03*
X227899Y287361D02*
D03*
D63*
X345693Y346072D02*
D03*
X341362D02*
D03*
X337032D02*
D03*
X332701D02*
D03*
X328370D02*
D03*
X345693Y350403D02*
D03*
X341362D02*
D03*
X337032D02*
D03*
X332701D02*
D03*
X328370D02*
D03*
X345693Y354734D02*
D03*
X341362D02*
D03*
X337032D02*
D03*
X332701D02*
D03*
X328370D02*
D03*
X345693Y359065D02*
D03*
X341362D02*
D03*
X337032D02*
D03*
X332701D02*
D03*
X328370D02*
D03*
X345693Y363395D02*
D03*
X341362D02*
D03*
X337032D02*
D03*
X332701D02*
D03*
X328370D02*
D03*
D64*
X263500Y229200D02*
D03*
Y222800D02*
D03*
Y248000D02*
D03*
Y235000D02*
D03*
X258200Y226900D02*
D03*
X240450D02*
D03*
X222700D02*
D03*
X251400Y234700D02*
D03*
X233650D02*
D03*
Y250800D02*
D03*
X215900Y234700D02*
D03*
Y250800D02*
D03*
X244500Y243000D02*
D03*
X224300D02*
D03*
X251400Y250800D02*
D03*
D91*
X220600Y295465D02*
D03*
Y278535D02*
D03*
X234100Y298365D02*
D03*
Y281435D02*
D03*
D92*
X370200Y347951D02*
D03*
Y357400D02*
D03*
D93*
Y337715D02*
D03*
Y367636D02*
D03*
D94*
X359668Y352676D02*
D03*
Y355235D02*
D03*
Y357794D02*
D03*
Y350116D02*
D03*
Y347557D02*
D03*
D95*
X360161Y364880D02*
D03*
Y340471D02*
D03*
M02*
