G04*
G04 #@! TF.GenerationSoftware,Altium Limited,Altium Designer,21.0.8 (223)*
G04*
G04 Layer_Color=16711935*
%FSLAX25Y25*%
%MOIN*%
G70*
G04*
G04 #@! TF.SameCoordinates,53D1A9A1-71C5-4B57-A858-D8A7AC7FB82A*
G04*
G04*
G04 #@! TF.FilePolarity,Positive*
G04*
G01*
G75*
%ADD12C,0.00787*%
%ADD95C,0.00394*%
G36*
X312762Y348837D02*
X312792Y348834D01*
X312825Y348829D01*
X312863Y348823D01*
X312907Y348815D01*
X312950Y348804D01*
X312999Y348791D01*
X313049Y348774D01*
X313098Y348755D01*
X313147Y348733D01*
X313199Y348706D01*
X313248Y348676D01*
X313294Y348640D01*
X313297Y348638D01*
X313308Y348629D01*
X313322Y348616D01*
X313341Y348597D01*
X313365Y348572D01*
X313390Y348542D01*
X313420Y348507D01*
X313447Y348466D01*
X313474Y348422D01*
X313505Y348373D01*
X313529Y348318D01*
X313551Y348258D01*
X313573Y348195D01*
X313586Y348127D01*
X313597Y348056D01*
X313600Y347980D01*
Y347947D01*
X313597Y347922D01*
X313595Y347892D01*
X313589Y347860D01*
X313584Y347821D01*
X313576Y347780D01*
X313567Y347737D01*
X313554Y347690D01*
X313537Y347644D01*
X313518Y347598D01*
X313496Y347551D01*
X313472Y347505D01*
X313442Y347461D01*
X313409Y347417D01*
X313406Y347415D01*
X313401Y347409D01*
X313390Y347398D01*
X313373Y347385D01*
X313354Y347365D01*
X313333Y347346D01*
X313305Y347327D01*
X313272Y347305D01*
X313240Y347284D01*
X313201Y347262D01*
X313158Y347243D01*
X313114Y347224D01*
X313065Y347204D01*
X313013Y347191D01*
X312956Y347180D01*
X312898Y347172D01*
X312874Y347497D01*
X312877D01*
X312885Y347499D01*
X312896Y347502D01*
X312912Y347505D01*
X312931Y347508D01*
X312956Y347516D01*
X313008Y347529D01*
X313065Y347551D01*
X313125Y347581D01*
X313180Y347617D01*
X313204Y347639D01*
X313229Y347660D01*
Y347663D01*
X313234Y347666D01*
X313240Y347674D01*
X313248Y347685D01*
X313267Y347712D01*
X313286Y347750D01*
X313308Y347797D01*
X313327Y347851D01*
X313341Y347912D01*
X313343Y347944D01*
X313346Y347980D01*
Y348002D01*
X313343Y348018D01*
X313341Y348037D01*
X313338Y348059D01*
X313324Y348111D01*
X313305Y348171D01*
X313292Y348201D01*
X313275Y348234D01*
X313256Y348266D01*
X313234Y348296D01*
X313210Y348326D01*
X313180Y348357D01*
X313177Y348359D01*
X313171Y348362D01*
X313163Y348370D01*
X313150Y348381D01*
X313130Y348392D01*
X313111Y348406D01*
X313087Y348419D01*
X313059Y348436D01*
X313030Y348449D01*
X312997Y348463D01*
X312959Y348477D01*
X312920Y348488D01*
X312877Y348499D01*
X312830Y348507D01*
X312784Y348509D01*
X312732Y348512D01*
X312729D01*
X312721D01*
X312707D01*
X312688Y348509D01*
X312666Y348507D01*
X312639Y348504D01*
X312612Y348499D01*
X312579Y348493D01*
X312513Y348477D01*
X312442Y348449D01*
X312410Y348433D01*
X312377Y348411D01*
X312344Y348389D01*
X312314Y348362D01*
X312312Y348359D01*
X312309Y348357D01*
X312301Y348346D01*
X312290Y348335D01*
X312279Y348321D01*
X312265Y348302D01*
X312251Y348283D01*
X312235Y348258D01*
X312221Y348231D01*
X312208Y348204D01*
X312183Y348135D01*
X312172Y348100D01*
X312164Y348059D01*
X312161Y348018D01*
X312159Y347974D01*
Y347950D01*
X312161Y347920D01*
X312167Y347884D01*
X312175Y347840D01*
X312189Y347794D01*
X312205Y347748D01*
X312230Y347701D01*
X312232Y347696D01*
X312241Y347682D01*
X312257Y347660D01*
X312276Y347633D01*
X312303Y347606D01*
X312333Y347573D01*
X312369Y347543D01*
X312407Y347516D01*
X312366Y347226D01*
X311072Y347469D01*
Y348722D01*
X311367D01*
Y347715D01*
X312044Y347581D01*
X312041Y347584D01*
X312036Y347592D01*
X312030Y347603D01*
X312019Y347619D01*
X312009Y347641D01*
X311995Y347666D01*
X311978Y347693D01*
X311965Y347726D01*
X311951Y347759D01*
X311935Y347797D01*
X311910Y347876D01*
X311899Y347920D01*
X311891Y347963D01*
X311888Y348010D01*
X311886Y348056D01*
Y348070D01*
X311888Y348089D01*
Y348111D01*
X311894Y348138D01*
X311896Y348171D01*
X311905Y348209D01*
X311913Y348247D01*
X311927Y348291D01*
X311940Y348335D01*
X311959Y348381D01*
X311981Y348428D01*
X312009Y348474D01*
X312038Y348520D01*
X312074Y348567D01*
X312115Y348610D01*
X312118Y348613D01*
X312126Y348621D01*
X312140Y348632D01*
X312156Y348646D01*
X312178Y348665D01*
X312208Y348684D01*
X312238Y348703D01*
X312273Y348725D01*
X312314Y348747D01*
X312361Y348766D01*
X312407Y348788D01*
X312462Y348804D01*
X312516Y348818D01*
X312576Y348829D01*
X312639Y348837D01*
X312705Y348840D01*
X312707D01*
X312721D01*
X312737D01*
X312762Y348837D01*
D02*
G37*
G36*
X313559Y346069D02*
X311591D01*
X311596Y346063D01*
X311610Y346050D01*
X311629Y346025D01*
X311656Y345990D01*
X311689Y345949D01*
X311724Y345897D01*
X311763Y345839D01*
X311804Y345774D01*
Y345771D01*
X311809Y345766D01*
X311815Y345758D01*
X311820Y345744D01*
X311831Y345727D01*
X311839Y345708D01*
X311864Y345665D01*
X311888Y345616D01*
X311916Y345561D01*
X311940Y345504D01*
X311962Y345449D01*
X311665D01*
X311662Y345452D01*
X311659Y345460D01*
X311651Y345474D01*
X311643Y345493D01*
X311632Y345515D01*
X311615Y345542D01*
X311599Y345572D01*
X311583Y345602D01*
X311539Y345673D01*
X311487Y345749D01*
X311432Y345829D01*
X311370Y345902D01*
X311367Y345905D01*
X311362Y345910D01*
X311353Y345921D01*
X311340Y345935D01*
X311323Y345949D01*
X311307Y345968D01*
X311260Y346009D01*
X311211Y346055D01*
X311154Y346101D01*
X311094Y346143D01*
X311031Y346178D01*
Y346377D01*
X313559D01*
Y346069D01*
D02*
G37*
G36*
X312778Y344922D02*
X312797Y344917D01*
X312827Y344906D01*
X312860Y344895D01*
X312901Y344879D01*
X312945Y344862D01*
X312991Y344840D01*
X313043Y344816D01*
X313092Y344788D01*
X313147Y344758D01*
X313199Y344723D01*
X313248Y344685D01*
X313297Y344644D01*
X313343Y344597D01*
X313387Y344548D01*
X313390Y344545D01*
X313395Y344534D01*
X313406Y344521D01*
X313420Y344499D01*
X313436Y344474D01*
X313455Y344442D01*
X313474Y344406D01*
X313494Y344362D01*
X313513Y344316D01*
X313532Y344267D01*
X313551Y344212D01*
X313567Y344152D01*
X313581Y344090D01*
X313592Y344024D01*
X313597Y343956D01*
X313600Y343882D01*
Y343844D01*
X313597Y343814D01*
X313595Y343781D01*
X313592Y343740D01*
X313586Y343696D01*
X313578Y343647D01*
X313570Y343595D01*
X313559Y343541D01*
X313545Y343486D01*
X313532Y343432D01*
X313513Y343374D01*
X313491Y343320D01*
X313466Y343268D01*
X313436Y343219D01*
X313434Y343216D01*
X313428Y343208D01*
X313420Y343194D01*
X313406Y343178D01*
X313387Y343156D01*
X313368Y343131D01*
X313343Y343104D01*
X313313Y343074D01*
X313281Y343044D01*
X313245Y343011D01*
X313207Y342981D01*
X313163Y342948D01*
X313117Y342916D01*
X313068Y342886D01*
X313013Y342858D01*
X312956Y342831D01*
X312953Y342828D01*
X312942Y342826D01*
X312923Y342820D01*
X312901Y342812D01*
X312871Y342801D01*
X312838Y342790D01*
X312797Y342779D01*
X312754Y342765D01*
X312705Y342755D01*
X312653Y342741D01*
X312598Y342730D01*
X312538Y342722D01*
X312413Y342705D01*
X312347Y342703D01*
X312281Y342700D01*
X312276D01*
X312265D01*
X312243D01*
X312216Y342703D01*
X312180Y342705D01*
X312140Y342708D01*
X312096Y342714D01*
X312047Y342719D01*
X311995Y342727D01*
X311940Y342735D01*
X311823Y342763D01*
X311766Y342782D01*
X311708Y342801D01*
X311648Y342823D01*
X311594Y342850D01*
X311591Y342853D01*
X311580Y342858D01*
X311566Y342866D01*
X311544Y342877D01*
X311520Y342894D01*
X311492Y342913D01*
X311462Y342935D01*
X311427Y342959D01*
X311394Y342989D01*
X311356Y343019D01*
X311320Y343055D01*
X311282Y343093D01*
X311247Y343134D01*
X311211Y343178D01*
X311178Y343227D01*
X311149Y343276D01*
X311146Y343279D01*
X311143Y343290D01*
X311135Y343303D01*
X311124Y343325D01*
X311113Y343350D01*
X311099Y343383D01*
X311086Y343418D01*
X311072Y343456D01*
X311058Y343500D01*
X311045Y343549D01*
X311031Y343598D01*
X311020Y343653D01*
X311001Y343765D01*
X310998Y343825D01*
X310996Y343887D01*
Y343923D01*
X310998Y343950D01*
X311001Y343983D01*
X311007Y344021D01*
X311012Y344062D01*
X311020Y344109D01*
X311031Y344158D01*
X311042Y344210D01*
X311058Y344262D01*
X311077Y344316D01*
X311099Y344371D01*
X311127Y344423D01*
X311154Y344474D01*
X311190Y344524D01*
X311192Y344526D01*
X311198Y344534D01*
X311209Y344548D01*
X311225Y344565D01*
X311244Y344586D01*
X311269Y344611D01*
X311296Y344636D01*
X311329Y344666D01*
X311364Y344696D01*
X311405Y344726D01*
X311449Y344756D01*
X311498Y344783D01*
X311550Y344813D01*
X311607Y344837D01*
X311667Y344862D01*
X311730Y344884D01*
X311806Y344556D01*
X311804D01*
X311795Y344551D01*
X311779Y344548D01*
X311760Y344540D01*
X311738Y344532D01*
X311714Y344518D01*
X311654Y344491D01*
X311588Y344455D01*
X311520Y344409D01*
X311457Y344360D01*
X311430Y344330D01*
X311405Y344300D01*
X311402Y344297D01*
X311400Y344291D01*
X311394Y344283D01*
X311386Y344270D01*
X311375Y344253D01*
X311364Y344234D01*
X311353Y344212D01*
X311342Y344185D01*
X311331Y344155D01*
X311320Y344125D01*
X311299Y344054D01*
X311285Y343972D01*
X311280Y343929D01*
Y343855D01*
X311282Y343833D01*
X311285Y343808D01*
X311288Y343778D01*
X311291Y343745D01*
X311296Y343713D01*
X311315Y343634D01*
X311340Y343552D01*
X311356Y343511D01*
X311375Y343470D01*
X311397Y343432D01*
X311421Y343393D01*
X311424Y343391D01*
X311427Y343385D01*
X311435Y343374D01*
X311446Y343361D01*
X311460Y343347D01*
X311479Y343328D01*
X311498Y343309D01*
X311520Y343287D01*
X311547Y343265D01*
X311574Y343240D01*
X311637Y343197D01*
X311711Y343156D01*
X311795Y343120D01*
X311798D01*
X311806Y343118D01*
X311820Y343112D01*
X311837Y343109D01*
X311858Y343104D01*
X311883Y343096D01*
X311913Y343090D01*
X311943Y343082D01*
X311978Y343074D01*
X312017Y343069D01*
X312099Y343055D01*
X312186Y343047D01*
X312279Y343044D01*
X312281D01*
X312292D01*
X312309D01*
X312333Y343047D01*
X312361D01*
X312393Y343049D01*
X312429Y343052D01*
X312470Y343055D01*
X312513Y343060D01*
X312557Y343066D01*
X312653Y343082D01*
X312748Y343107D01*
X312841Y343137D01*
X312844D01*
X312852Y343142D01*
X312863Y343148D01*
X312879Y343153D01*
X312901Y343164D01*
X312923Y343178D01*
X312975Y343208D01*
X313035Y343249D01*
X313092Y343298D01*
X313150Y343358D01*
X313174Y343391D01*
X313199Y343426D01*
Y343429D01*
X313204Y343434D01*
X313210Y343445D01*
X313218Y343462D01*
X313226Y343481D01*
X313237Y343503D01*
X313245Y343527D01*
X313256Y343554D01*
X313278Y343617D01*
X313297Y343691D01*
X313311Y343770D01*
X313313Y343811D01*
X313316Y343855D01*
Y343882D01*
X313313Y343901D01*
X313311Y343926D01*
X313308Y343953D01*
X313302Y343986D01*
X313297Y344019D01*
X313278Y344095D01*
X313264Y344133D01*
X313248Y344174D01*
X313229Y344215D01*
X313207Y344253D01*
X313182Y344291D01*
X313155Y344330D01*
X313152Y344333D01*
X313147Y344338D01*
X313139Y344349D01*
X313125Y344362D01*
X313109Y344376D01*
X313087Y344395D01*
X313062Y344414D01*
X313035Y344436D01*
X313002Y344458D01*
X312967Y344480D01*
X312929Y344502D01*
X312885Y344524D01*
X312838Y344543D01*
X312787Y344562D01*
X312732Y344581D01*
X312675Y344595D01*
X312759Y344928D01*
X312765D01*
X312778Y344922D01*
D02*
G37*
G36*
X352886Y334131D02*
X352919Y334128D01*
X352960Y334126D01*
X353004Y334120D01*
X353053Y334112D01*
X353105Y334104D01*
X353159Y334093D01*
X353214Y334079D01*
X353268Y334066D01*
X353326Y334047D01*
X353380Y334025D01*
X353432Y334000D01*
X353481Y333970D01*
X353484Y333967D01*
X353492Y333962D01*
X353506Y333954D01*
X353522Y333940D01*
X353544Y333921D01*
X353569Y333902D01*
X353596Y333877D01*
X353626Y333847D01*
X353656Y333815D01*
X353689Y333779D01*
X353719Y333741D01*
X353752Y333697D01*
X353784Y333651D01*
X353814Y333601D01*
X353842Y333547D01*
X353869Y333490D01*
X353872Y333487D01*
X353874Y333476D01*
X353880Y333457D01*
X353888Y333435D01*
X353899Y333405D01*
X353910Y333372D01*
X353921Y333331D01*
X353935Y333288D01*
X353945Y333239D01*
X353959Y333187D01*
X353970Y333132D01*
X353978Y333072D01*
X353995Y332946D01*
X353997Y332881D01*
X354000Y332815D01*
Y332810D01*
Y332799D01*
Y332777D01*
X353997Y332750D01*
X353995Y332714D01*
X353992Y332673D01*
X353986Y332630D01*
X353981Y332580D01*
X353973Y332529D01*
X353965Y332474D01*
X353937Y332357D01*
X353918Y332299D01*
X353899Y332242D01*
X353877Y332182D01*
X353850Y332127D01*
X353847Y332125D01*
X353842Y332114D01*
X353834Y332100D01*
X353823Y332078D01*
X353806Y332054D01*
X353787Y332026D01*
X353765Y331996D01*
X353741Y331961D01*
X353711Y331928D01*
X353681Y331890D01*
X353645Y331854D01*
X353607Y331816D01*
X353566Y331781D01*
X353522Y331745D01*
X353473Y331712D01*
X353424Y331682D01*
X353421Y331680D01*
X353410Y331677D01*
X353397Y331669D01*
X353375Y331658D01*
X353350Y331647D01*
X353317Y331633D01*
X353282Y331620D01*
X353244Y331606D01*
X353200Y331592D01*
X353151Y331579D01*
X353102Y331565D01*
X353047Y331554D01*
X352935Y331535D01*
X352875Y331532D01*
X352813Y331529D01*
X352777D01*
X352750Y331532D01*
X352717Y331535D01*
X352679Y331540D01*
X352638Y331546D01*
X352591Y331554D01*
X352542Y331565D01*
X352490Y331576D01*
X352438Y331592D01*
X352384Y331611D01*
X352329Y331633D01*
X352277Y331661D01*
X352225Y331688D01*
X352176Y331723D01*
X352174Y331726D01*
X352166Y331732D01*
X352152Y331742D01*
X352135Y331759D01*
X352114Y331778D01*
X352089Y331803D01*
X352064Y331830D01*
X352034Y331862D01*
X352004Y331898D01*
X351974Y331939D01*
X351944Y331983D01*
X351917Y332032D01*
X351887Y332084D01*
X351862Y332141D01*
X351838Y332201D01*
X351816Y332264D01*
X352144Y332340D01*
Y332338D01*
X352149Y332329D01*
X352152Y332313D01*
X352160Y332294D01*
X352168Y332272D01*
X352182Y332247D01*
X352209Y332187D01*
X352245Y332122D01*
X352291Y332054D01*
X352340Y331991D01*
X352370Y331963D01*
X352400Y331939D01*
X352403Y331936D01*
X352408Y331933D01*
X352417Y331928D01*
X352430Y331920D01*
X352447Y331909D01*
X352466Y331898D01*
X352488Y331887D01*
X352515Y331876D01*
X352545Y331865D01*
X352575Y331854D01*
X352646Y331833D01*
X352728Y331819D01*
X352771Y331813D01*
X352845D01*
X352867Y331816D01*
X352892Y331819D01*
X352922Y331822D01*
X352954Y331824D01*
X352987Y331830D01*
X353066Y331849D01*
X353148Y331873D01*
X353189Y331890D01*
X353230Y331909D01*
X353268Y331931D01*
X353307Y331955D01*
X353309Y331958D01*
X353315Y331961D01*
X353326Y331969D01*
X353339Y331980D01*
X353353Y331994D01*
X353372Y332013D01*
X353391Y332032D01*
X353413Y332054D01*
X353435Y332081D01*
X353460Y332108D01*
X353503Y332171D01*
X353544Y332245D01*
X353580Y332329D01*
Y332332D01*
X353582Y332340D01*
X353588Y332354D01*
X353590Y332370D01*
X353596Y332392D01*
X353604Y332417D01*
X353610Y332447D01*
X353618Y332477D01*
X353626Y332512D01*
X353631Y332551D01*
X353645Y332632D01*
X353653Y332720D01*
X353656Y332813D01*
Y332815D01*
Y332826D01*
Y332843D01*
X353653Y332867D01*
Y332894D01*
X353651Y332927D01*
X353648Y332963D01*
X353645Y333004D01*
X353640Y333047D01*
X353634Y333091D01*
X353618Y333187D01*
X353593Y333282D01*
X353563Y333375D01*
Y333378D01*
X353558Y333386D01*
X353552Y333397D01*
X353547Y333413D01*
X353536Y333435D01*
X353522Y333457D01*
X353492Y333509D01*
X353451Y333569D01*
X353402Y333626D01*
X353342Y333683D01*
X353309Y333708D01*
X353274Y333733D01*
X353271D01*
X353266Y333738D01*
X353255Y333744D01*
X353238Y333752D01*
X353219Y333760D01*
X353197Y333771D01*
X353173Y333779D01*
X353146Y333790D01*
X353083Y333812D01*
X353009Y333831D01*
X352930Y333844D01*
X352889Y333847D01*
X352845Y333850D01*
X352818D01*
X352799Y333847D01*
X352774Y333844D01*
X352747Y333842D01*
X352714Y333836D01*
X352681Y333831D01*
X352605Y333812D01*
X352567Y333798D01*
X352526Y333782D01*
X352485Y333763D01*
X352447Y333741D01*
X352408Y333716D01*
X352370Y333689D01*
X352367Y333686D01*
X352362Y333681D01*
X352351Y333672D01*
X352338Y333659D01*
X352324Y333643D01*
X352305Y333621D01*
X352286Y333596D01*
X352264Y333569D01*
X352242Y333536D01*
X352220Y333501D01*
X352198Y333462D01*
X352176Y333419D01*
X352157Y333372D01*
X352138Y333320D01*
X352119Y333266D01*
X352105Y333208D01*
X351772Y333293D01*
Y333298D01*
X351778Y333312D01*
X351783Y333331D01*
X351794Y333361D01*
X351805Y333394D01*
X351821Y333435D01*
X351838Y333479D01*
X351860Y333525D01*
X351884Y333577D01*
X351912Y333626D01*
X351942Y333681D01*
X351977Y333733D01*
X352015Y333782D01*
X352056Y333831D01*
X352103Y333877D01*
X352152Y333921D01*
X352155Y333924D01*
X352166Y333929D01*
X352179Y333940D01*
X352201Y333954D01*
X352225Y333970D01*
X352258Y333989D01*
X352294Y334008D01*
X352338Y334027D01*
X352384Y334047D01*
X352433Y334066D01*
X352488Y334085D01*
X352548Y334101D01*
X352610Y334115D01*
X352676Y334126D01*
X352744Y334131D01*
X352818Y334134D01*
X352856D01*
X352886Y334131D01*
D02*
G37*
G36*
X350631Y332125D02*
X350637Y332130D01*
X350650Y332144D01*
X350675Y332163D01*
X350710Y332190D01*
X350751Y332223D01*
X350803Y332258D01*
X350861Y332297D01*
X350926Y332338D01*
X350929D01*
X350934Y332343D01*
X350942Y332348D01*
X350956Y332354D01*
X350973Y332365D01*
X350992Y332373D01*
X351035Y332398D01*
X351084Y332422D01*
X351139Y332450D01*
X351196Y332474D01*
X351251Y332496D01*
Y332198D01*
X351248Y332196D01*
X351240Y332193D01*
X351226Y332185D01*
X351207Y332176D01*
X351185Y332166D01*
X351158Y332149D01*
X351128Y332133D01*
X351098Y332116D01*
X351027Y332073D01*
X350951Y332021D01*
X350871Y331966D01*
X350798Y331904D01*
X350795Y331901D01*
X350790Y331895D01*
X350779Y331887D01*
X350765Y331873D01*
X350751Y331857D01*
X350732Y331841D01*
X350691Y331794D01*
X350645Y331745D01*
X350599Y331688D01*
X350557Y331628D01*
X350522Y331565D01*
X350323D01*
Y334093D01*
X350631D01*
Y332125D01*
D02*
G37*
G36*
X348674D02*
X348679Y332130D01*
X348693Y332144D01*
X348717Y332163D01*
X348753Y332190D01*
X348794Y332223D01*
X348846Y332258D01*
X348903Y332297D01*
X348969Y332338D01*
X348971D01*
X348977Y332343D01*
X348985Y332348D01*
X348999Y332354D01*
X349015Y332365D01*
X349034Y332373D01*
X349078Y332398D01*
X349127Y332422D01*
X349182Y332450D01*
X349239Y332474D01*
X349293Y332496D01*
Y332198D01*
X349291Y332196D01*
X349283Y332193D01*
X349269Y332185D01*
X349250Y332176D01*
X349228Y332166D01*
X349201Y332149D01*
X349171Y332133D01*
X349141Y332116D01*
X349070Y332073D01*
X348993Y332021D01*
X348914Y331966D01*
X348840Y331904D01*
X348838Y331901D01*
X348832Y331895D01*
X348821Y331887D01*
X348808Y331873D01*
X348794Y331857D01*
X348775Y331841D01*
X348734Y331794D01*
X348688Y331745D01*
X348641Y331688D01*
X348600Y331628D01*
X348565Y331565D01*
X348365D01*
Y334093D01*
X348674D01*
Y332125D01*
D02*
G37*
G36*
X358750Y381002D02*
X358783Y380999D01*
X358821Y380994D01*
X358862Y380988D01*
X358909Y380980D01*
X358958Y380969D01*
X359010Y380958D01*
X359062Y380942D01*
X359116Y380923D01*
X359171Y380901D01*
X359223Y380873D01*
X359275Y380846D01*
X359324Y380811D01*
X359326Y380808D01*
X359334Y380802D01*
X359348Y380791D01*
X359365Y380775D01*
X359386Y380756D01*
X359411Y380731D01*
X359436Y380704D01*
X359466Y380671D01*
X359496Y380636D01*
X359526Y380595D01*
X359556Y380551D01*
X359583Y380502D01*
X359613Y380450D01*
X359638Y380393D01*
X359662Y380333D01*
X359684Y380270D01*
X359356Y380194D01*
Y380196D01*
X359351Y380205D01*
X359348Y380221D01*
X359340Y380240D01*
X359332Y380262D01*
X359318Y380286D01*
X359291Y380346D01*
X359255Y380412D01*
X359209Y380480D01*
X359160Y380543D01*
X359130Y380570D01*
X359100Y380595D01*
X359097Y380598D01*
X359092Y380600D01*
X359083Y380606D01*
X359070Y380614D01*
X359053Y380625D01*
X359034Y380636D01*
X359012Y380647D01*
X358985Y380658D01*
X358955Y380669D01*
X358925Y380679D01*
X358854Y380701D01*
X358772Y380715D01*
X358729Y380720D01*
X358655D01*
X358633Y380718D01*
X358608Y380715D01*
X358578Y380712D01*
X358546Y380710D01*
X358513Y380704D01*
X358434Y380685D01*
X358352Y380660D01*
X358311Y380644D01*
X358270Y380625D01*
X358232Y380603D01*
X358193Y380578D01*
X358191Y380576D01*
X358185Y380573D01*
X358174Y380565D01*
X358161Y380554D01*
X358147Y380540D01*
X358128Y380521D01*
X358109Y380502D01*
X358087Y380480D01*
X358065Y380453D01*
X358040Y380426D01*
X357997Y380363D01*
X357956Y380289D01*
X357920Y380205D01*
Y380202D01*
X357918Y380194D01*
X357912Y380180D01*
X357909Y380164D01*
X357904Y380142D01*
X357896Y380117D01*
X357890Y380087D01*
X357882Y380057D01*
X357874Y380022D01*
X357869Y379983D01*
X357855Y379902D01*
X357847Y379814D01*
X357844Y379721D01*
Y379719D01*
Y379708D01*
Y379691D01*
X357847Y379667D01*
Y379639D01*
X357849Y379607D01*
X357852Y379571D01*
X357855Y379530D01*
X357860Y379486D01*
X357866Y379443D01*
X357882Y379347D01*
X357907Y379252D01*
X357937Y379159D01*
Y379156D01*
X357942Y379148D01*
X357948Y379137D01*
X357953Y379121D01*
X357964Y379099D01*
X357978Y379077D01*
X358008Y379025D01*
X358049Y378965D01*
X358098Y378908D01*
X358158Y378850D01*
X358191Y378826D01*
X358226Y378801D01*
X358229D01*
X358234Y378796D01*
X358245Y378790D01*
X358262Y378782D01*
X358281Y378774D01*
X358303Y378763D01*
X358327Y378755D01*
X358354Y378744D01*
X358417Y378722D01*
X358491Y378703D01*
X358570Y378689D01*
X358611Y378687D01*
X358655Y378684D01*
X358682D01*
X358701Y378687D01*
X358726Y378689D01*
X358753Y378692D01*
X358786Y378697D01*
X358819Y378703D01*
X358895Y378722D01*
X358933Y378736D01*
X358974Y378752D01*
X359015Y378771D01*
X359053Y378793D01*
X359092Y378818D01*
X359130Y378845D01*
X359133Y378848D01*
X359138Y378853D01*
X359149Y378861D01*
X359162Y378875D01*
X359176Y378891D01*
X359195Y378913D01*
X359214Y378938D01*
X359236Y378965D01*
X359258Y378998D01*
X359280Y379033D01*
X359302Y379071D01*
X359324Y379115D01*
X359343Y379162D01*
X359362Y379214D01*
X359381Y379268D01*
X359395Y379325D01*
X359728Y379241D01*
Y379235D01*
X359722Y379222D01*
X359717Y379203D01*
X359706Y379173D01*
X359695Y379140D01*
X359679Y379099D01*
X359662Y379055D01*
X359640Y379009D01*
X359616Y378957D01*
X359588Y378908D01*
X359558Y378853D01*
X359523Y378801D01*
X359485Y378752D01*
X359444Y378703D01*
X359397Y378657D01*
X359348Y378613D01*
X359345Y378610D01*
X359334Y378605D01*
X359321Y378594D01*
X359299Y378580D01*
X359275Y378564D01*
X359242Y378545D01*
X359206Y378525D01*
X359162Y378506D01*
X359116Y378487D01*
X359067Y378468D01*
X359012Y378449D01*
X358952Y378433D01*
X358890Y378419D01*
X358824Y378408D01*
X358756Y378403D01*
X358682Y378400D01*
X358644D01*
X358614Y378403D01*
X358581Y378405D01*
X358540Y378408D01*
X358496Y378414D01*
X358447Y378422D01*
X358395Y378430D01*
X358341Y378441D01*
X358286Y378455D01*
X358232Y378468D01*
X358174Y378487D01*
X358120Y378509D01*
X358068Y378534D01*
X358019Y378564D01*
X358016Y378567D01*
X358008Y378572D01*
X357994Y378580D01*
X357978Y378594D01*
X357956Y378613D01*
X357931Y378632D01*
X357904Y378657D01*
X357874Y378687D01*
X357844Y378719D01*
X357811Y378755D01*
X357781Y378793D01*
X357748Y378837D01*
X357716Y378883D01*
X357686Y378932D01*
X357658Y378987D01*
X357631Y379044D01*
X357628Y379047D01*
X357626Y379058D01*
X357620Y379077D01*
X357612Y379099D01*
X357601Y379129D01*
X357590Y379162D01*
X357579Y379203D01*
X357565Y379246D01*
X357555Y379295D01*
X357541Y379347D01*
X357530Y379402D01*
X357522Y379462D01*
X357505Y379588D01*
X357503Y379653D01*
X357500Y379719D01*
Y379724D01*
Y379735D01*
Y379757D01*
X357503Y379784D01*
X357505Y379820D01*
X357508Y379860D01*
X357514Y379904D01*
X357519Y379953D01*
X357527Y380005D01*
X357535Y380060D01*
X357563Y380177D01*
X357582Y380235D01*
X357601Y380292D01*
X357623Y380352D01*
X357650Y380406D01*
X357653Y380409D01*
X357658Y380420D01*
X357666Y380434D01*
X357677Y380456D01*
X357694Y380480D01*
X357713Y380507D01*
X357735Y380538D01*
X357759Y380573D01*
X357789Y380606D01*
X357819Y380644D01*
X357855Y380679D01*
X357893Y380718D01*
X357934Y380753D01*
X357978Y380789D01*
X358027Y380821D01*
X358076Y380852D01*
X358079Y380854D01*
X358090Y380857D01*
X358103Y380865D01*
X358125Y380876D01*
X358150Y380887D01*
X358183Y380901D01*
X358218Y380914D01*
X358256Y380928D01*
X358300Y380942D01*
X358349Y380955D01*
X358398Y380969D01*
X358453Y380980D01*
X358565Y380999D01*
X358625Y381002D01*
X358687Y381004D01*
X358723D01*
X358750Y381002D01*
D02*
G37*
G36*
X362864Y380966D02*
X362894Y380963D01*
X362930Y380958D01*
X362971Y380953D01*
X363012Y380944D01*
X363058Y380933D01*
X363105Y380920D01*
X363154Y380903D01*
X363200Y380884D01*
X363249Y380860D01*
X363296Y380832D01*
X363339Y380802D01*
X363380Y380767D01*
X363383Y380764D01*
X363389Y380759D01*
X363400Y380745D01*
X363413Y380731D01*
X363429Y380712D01*
X363449Y380688D01*
X363468Y380660D01*
X363487Y380628D01*
X363506Y380595D01*
X363525Y380557D01*
X363544Y380516D01*
X363561Y380472D01*
X363574Y380423D01*
X363585Y380374D01*
X363591Y380322D01*
X363593Y380267D01*
Y380265D01*
Y380262D01*
Y380254D01*
Y380243D01*
X363591Y380213D01*
X363585Y380174D01*
X363577Y380128D01*
X363566Y380079D01*
X363552Y380024D01*
X363530Y379970D01*
Y379967D01*
X363528Y379964D01*
X363525Y379956D01*
X363520Y379945D01*
X363503Y379915D01*
X363481Y379877D01*
X363451Y379831D01*
X363416Y379779D01*
X363375Y379724D01*
X363323Y379664D01*
X363320Y379661D01*
X363318Y379656D01*
X363307Y379648D01*
X363296Y379634D01*
X363279Y379618D01*
X363260Y379598D01*
X363238Y379574D01*
X363211Y379549D01*
X363178Y379519D01*
X363143Y379486D01*
X363105Y379448D01*
X363061Y379410D01*
X363015Y379366D01*
X362963Y379323D01*
X362905Y379274D01*
X362845Y379222D01*
X362843Y379219D01*
X362834Y379211D01*
X362818Y379200D01*
X362802Y379184D01*
X362777Y379164D01*
X362753Y379142D01*
X362695Y379093D01*
X362635Y379042D01*
X362578Y378987D01*
X362550Y378962D01*
X362526Y378941D01*
X362504Y378919D01*
X362488Y378902D01*
X362485Y378900D01*
X362474Y378889D01*
X362460Y378872D01*
X362441Y378850D01*
X362419Y378826D01*
X362398Y378799D01*
X362354Y378738D01*
X363596D01*
Y378441D01*
X361928D01*
Y378446D01*
Y378460D01*
Y378482D01*
X361931Y378509D01*
X361933Y378542D01*
X361942Y378577D01*
X361950Y378616D01*
X361964Y378654D01*
Y378657D01*
X361966Y378662D01*
X361969Y378670D01*
X361974Y378684D01*
X361983Y378697D01*
X361991Y378717D01*
X362013Y378760D01*
X362040Y378812D01*
X362075Y378870D01*
X362116Y378930D01*
X362165Y378990D01*
X362168Y378992D01*
X362171Y378998D01*
X362179Y379006D01*
X362193Y379020D01*
X362207Y379033D01*
X362226Y379052D01*
X362245Y379074D01*
X362269Y379099D01*
X362297Y379126D01*
X362327Y379153D01*
X362359Y379186D01*
X362398Y379219D01*
X362436Y379254D01*
X362479Y379290D01*
X362523Y379328D01*
X362572Y379369D01*
X362578Y379372D01*
X362591Y379385D01*
X362611Y379402D01*
X362638Y379426D01*
X362671Y379454D01*
X362709Y379486D01*
X362753Y379522D01*
X362796Y379563D01*
X362889Y379648D01*
X362979Y379738D01*
X363023Y379781D01*
X363064Y379825D01*
X363099Y379866D01*
X363129Y379904D01*
X363132Y379907D01*
X363135Y379912D01*
X363143Y379923D01*
X363151Y379937D01*
X363165Y379956D01*
X363176Y379975D01*
X363203Y380024D01*
X363230Y380082D01*
X363255Y380144D01*
X363271Y380210D01*
X363274Y380243D01*
X363277Y380276D01*
Y380278D01*
Y380284D01*
Y380295D01*
X363274Y380306D01*
Y380322D01*
X363268Y380341D01*
X363260Y380382D01*
X363244Y380431D01*
X363219Y380483D01*
X363206Y380510D01*
X363187Y380535D01*
X363167Y380559D01*
X363143Y380584D01*
X363140Y380587D01*
X363137Y380589D01*
X363129Y380595D01*
X363118Y380603D01*
X363105Y380614D01*
X363088Y380625D01*
X363050Y380649D01*
X362998Y380671D01*
X362941Y380693D01*
X362873Y380707D01*
X362834Y380712D01*
X362774D01*
X362758Y380710D01*
X362739D01*
X362717Y380704D01*
X362668Y380696D01*
X362611Y380679D01*
X362550Y380655D01*
X362520Y380639D01*
X362490Y380622D01*
X362463Y380600D01*
X362436Y380576D01*
X362433Y380573D01*
X362430Y380570D01*
X362425Y380562D01*
X362414Y380551D01*
X362406Y380538D01*
X362395Y380521D01*
X362381Y380502D01*
X362370Y380480D01*
X362357Y380456D01*
X362346Y380428D01*
X362324Y380363D01*
X362308Y380292D01*
X362305Y380251D01*
X362302Y380207D01*
X361985Y380240D01*
Y380245D01*
X361988Y380256D01*
X361991Y380273D01*
X361994Y380297D01*
X361999Y380327D01*
X362007Y380363D01*
X362015Y380401D01*
X362029Y380442D01*
X362043Y380483D01*
X362059Y380529D01*
X362081Y380573D01*
X362103Y380617D01*
X362130Y380663D01*
X362160Y380704D01*
X362193Y380745D01*
X362231Y380781D01*
X362234Y380783D01*
X362242Y380789D01*
X362253Y380797D01*
X362269Y380811D01*
X362291Y380824D01*
X362318Y380841D01*
X362348Y380857D01*
X362384Y380876D01*
X362422Y380892D01*
X362466Y380909D01*
X362512Y380925D01*
X362564Y380939D01*
X362619Y380953D01*
X362676Y380961D01*
X362739Y380966D01*
X362804Y380969D01*
X362840D01*
X362864Y380966D01*
D02*
G37*
G36*
X361177Y378441D02*
X360869D01*
Y380409D01*
X360863Y380404D01*
X360850Y380390D01*
X360825Y380371D01*
X360790Y380344D01*
X360749Y380311D01*
X360697Y380276D01*
X360640Y380237D01*
X360574Y380196D01*
X360571D01*
X360566Y380191D01*
X360558Y380185D01*
X360544Y380180D01*
X360527Y380169D01*
X360508Y380161D01*
X360465Y380136D01*
X360416Y380112D01*
X360361Y380084D01*
X360304Y380060D01*
X360249Y380038D01*
Y380335D01*
X360252Y380338D01*
X360260Y380341D01*
X360274Y380349D01*
X360293Y380357D01*
X360315Y380368D01*
X360342Y380385D01*
X360372Y380401D01*
X360402Y380417D01*
X360473Y380461D01*
X360549Y380513D01*
X360629Y380568D01*
X360702Y380630D01*
X360705Y380633D01*
X360710Y380639D01*
X360721Y380647D01*
X360735Y380660D01*
X360749Y380677D01*
X360768Y380693D01*
X360809Y380740D01*
X360855Y380789D01*
X360901Y380846D01*
X360943Y380906D01*
X360978Y380969D01*
X361177D01*
Y378441D01*
D02*
G37*
G36*
X360644Y373842D02*
X360677Y373839D01*
X360715Y373833D01*
X360756Y373828D01*
X360803Y373820D01*
X360852Y373809D01*
X360904Y373798D01*
X360956Y373781D01*
X361010Y373762D01*
X361065Y373741D01*
X361117Y373713D01*
X361169Y373686D01*
X361218Y373650D01*
X361220Y373648D01*
X361228Y373642D01*
X361242Y373631D01*
X361259Y373615D01*
X361280Y373596D01*
X361305Y373571D01*
X361330Y373544D01*
X361360Y373511D01*
X361390Y373476D01*
X361420Y373435D01*
X361450Y373391D01*
X361477Y373342D01*
X361507Y373290D01*
X361532Y373233D01*
X361556Y373173D01*
X361578Y373110D01*
X361250Y373033D01*
Y373036D01*
X361245Y373044D01*
X361242Y373061D01*
X361234Y373080D01*
X361226Y373102D01*
X361212Y373126D01*
X361185Y373186D01*
X361149Y373252D01*
X361103Y373320D01*
X361054Y373383D01*
X361024Y373410D01*
X360994Y373435D01*
X360991Y373437D01*
X360986Y373440D01*
X360977Y373446D01*
X360964Y373454D01*
X360947Y373465D01*
X360928Y373476D01*
X360906Y373487D01*
X360879Y373498D01*
X360849Y373508D01*
X360819Y373519D01*
X360748Y373541D01*
X360666Y373555D01*
X360623Y373560D01*
X360549D01*
X360527Y373558D01*
X360502Y373555D01*
X360472Y373552D01*
X360440Y373549D01*
X360407Y373544D01*
X360328Y373525D01*
X360246Y373500D01*
X360205Y373484D01*
X360164Y373465D01*
X360126Y373443D01*
X360087Y373418D01*
X360085Y373416D01*
X360079Y373413D01*
X360068Y373405D01*
X360055Y373394D01*
X360041Y373380D01*
X360022Y373361D01*
X360003Y373342D01*
X359981Y373320D01*
X359959Y373293D01*
X359934Y373266D01*
X359891Y373203D01*
X359850Y373129D01*
X359814Y373044D01*
Y373042D01*
X359812Y373033D01*
X359806Y373020D01*
X359804Y373003D01*
X359798Y372982D01*
X359790Y372957D01*
X359784Y372927D01*
X359776Y372897D01*
X359768Y372861D01*
X359763Y372823D01*
X359749Y372741D01*
X359741Y372654D01*
X359738Y372561D01*
Y372558D01*
Y372548D01*
Y372531D01*
X359741Y372506D01*
Y372479D01*
X359743Y372446D01*
X359746Y372411D01*
X359749Y372370D01*
X359754Y372326D01*
X359760Y372283D01*
X359776Y372187D01*
X359801Y372092D01*
X359831Y371999D01*
Y371996D01*
X359836Y371988D01*
X359842Y371977D01*
X359847Y371960D01*
X359858Y371939D01*
X359872Y371917D01*
X359902Y371865D01*
X359943Y371805D01*
X359992Y371748D01*
X360052Y371690D01*
X360085Y371666D01*
X360120Y371641D01*
X360123D01*
X360128Y371636D01*
X360139Y371630D01*
X360156Y371622D01*
X360175Y371614D01*
X360197Y371603D01*
X360221Y371595D01*
X360248Y371584D01*
X360311Y371562D01*
X360385Y371543D01*
X360464Y371529D01*
X360505Y371526D01*
X360549Y371524D01*
X360576D01*
X360595Y371526D01*
X360620Y371529D01*
X360647Y371532D01*
X360680Y371537D01*
X360713Y371543D01*
X360789Y371562D01*
X360827Y371576D01*
X360868Y371592D01*
X360909Y371611D01*
X360947Y371633D01*
X360986Y371657D01*
X361024Y371685D01*
X361027Y371688D01*
X361032Y371693D01*
X361043Y371701D01*
X361056Y371715D01*
X361070Y371731D01*
X361089Y371753D01*
X361108Y371778D01*
X361130Y371805D01*
X361152Y371838D01*
X361174Y371873D01*
X361196Y371911D01*
X361218Y371955D01*
X361237Y372002D01*
X361256Y372053D01*
X361275Y372108D01*
X361289Y372165D01*
X361622Y372081D01*
Y372075D01*
X361616Y372061D01*
X361611Y372042D01*
X361600Y372012D01*
X361589Y371980D01*
X361573Y371939D01*
X361556Y371895D01*
X361534Y371849D01*
X361510Y371797D01*
X361482Y371748D01*
X361452Y371693D01*
X361417Y371641D01*
X361379Y371592D01*
X361338Y371543D01*
X361291Y371496D01*
X361242Y371453D01*
X361239Y371450D01*
X361228Y371445D01*
X361215Y371434D01*
X361193Y371420D01*
X361169Y371404D01*
X361136Y371385D01*
X361100Y371365D01*
X361056Y371346D01*
X361010Y371327D01*
X360961Y371308D01*
X360906Y371289D01*
X360846Y371273D01*
X360784Y371259D01*
X360718Y371248D01*
X360650Y371242D01*
X360576Y371240D01*
X360538D01*
X360508Y371242D01*
X360475Y371245D01*
X360434Y371248D01*
X360390Y371253D01*
X360341Y371262D01*
X360289Y371270D01*
X360235Y371281D01*
X360180Y371294D01*
X360126Y371308D01*
X360068Y371327D01*
X360014Y371349D01*
X359962Y371374D01*
X359913Y371404D01*
X359910Y371406D01*
X359902Y371412D01*
X359888Y371420D01*
X359872Y371434D01*
X359850Y371453D01*
X359825Y371472D01*
X359798Y371496D01*
X359768Y371526D01*
X359738Y371559D01*
X359705Y371595D01*
X359675Y371633D01*
X359642Y371677D01*
X359610Y371723D01*
X359580Y371772D01*
X359552Y371827D01*
X359525Y371884D01*
X359522Y371887D01*
X359520Y371898D01*
X359514Y371917D01*
X359506Y371939D01*
X359495Y371969D01*
X359484Y372002D01*
X359473Y372042D01*
X359459Y372086D01*
X359449Y372135D01*
X359435Y372187D01*
X359424Y372242D01*
X359416Y372302D01*
X359399Y372427D01*
X359397Y372493D01*
X359394Y372558D01*
Y372564D01*
Y372575D01*
Y372597D01*
X359397Y372624D01*
X359399Y372659D01*
X359402Y372700D01*
X359408Y372744D01*
X359413Y372793D01*
X359421Y372845D01*
X359430Y372900D01*
X359457Y373017D01*
X359476Y373074D01*
X359495Y373132D01*
X359517Y373192D01*
X359544Y373246D01*
X359547Y373249D01*
X359552Y373260D01*
X359560Y373274D01*
X359571Y373295D01*
X359588Y373320D01*
X359607Y373347D01*
X359629Y373377D01*
X359653Y373413D01*
X359683Y373446D01*
X359713Y373484D01*
X359749Y373519D01*
X359787Y373558D01*
X359828Y373593D01*
X359872Y373628D01*
X359921Y373661D01*
X359970Y373691D01*
X359973Y373694D01*
X359984Y373697D01*
X359997Y373705D01*
X360019Y373716D01*
X360044Y373727D01*
X360076Y373741D01*
X360112Y373754D01*
X360150Y373768D01*
X360194Y373781D01*
X360243Y373795D01*
X360292Y373809D01*
X360347Y373820D01*
X360459Y373839D01*
X360519Y373842D01*
X360581Y373844D01*
X360617D01*
X360644Y373842D01*
D02*
G37*
G36*
X363557Y373525D02*
X363555Y373522D01*
X363546Y373514D01*
X363533Y373498D01*
X363516Y373478D01*
X363494Y373451D01*
X363467Y373421D01*
X363440Y373386D01*
X363407Y373345D01*
X363372Y373298D01*
X363333Y373246D01*
X363292Y373189D01*
X363251Y373129D01*
X363211Y373066D01*
X363167Y372995D01*
X363120Y372921D01*
X363077Y372845D01*
X363074Y372840D01*
X363066Y372826D01*
X363055Y372804D01*
X363038Y372771D01*
X363019Y372733D01*
X362995Y372687D01*
X362970Y372635D01*
X362943Y372578D01*
X362916Y372515D01*
X362886Y372446D01*
X362856Y372373D01*
X362826Y372299D01*
X362796Y372220D01*
X362766Y372138D01*
X362714Y371971D01*
Y371969D01*
X362711Y371958D01*
X362705Y371939D01*
X362700Y371917D01*
X362692Y371887D01*
X362684Y371851D01*
X362673Y371810D01*
X362665Y371767D01*
X362654Y371718D01*
X362645Y371663D01*
X362634Y371606D01*
X362626Y371546D01*
X362615Y371483D01*
X362607Y371417D01*
X362596Y371281D01*
X362280D01*
Y371284D01*
Y371294D01*
Y371311D01*
X362282Y371333D01*
X362285Y371363D01*
X362288Y371395D01*
X362291Y371436D01*
X362296Y371480D01*
X362301Y371532D01*
X362310Y371584D01*
X362318Y371644D01*
X362329Y371707D01*
X362342Y371775D01*
X362356Y371846D01*
X362375Y371920D01*
X362394Y371996D01*
X362397Y372002D01*
X362400Y372015D01*
X362405Y372037D01*
X362416Y372067D01*
X362427Y372105D01*
X362441Y372152D01*
X362457Y372201D01*
X362476Y372255D01*
X362498Y372315D01*
X362523Y372381D01*
X362547Y372449D01*
X362577Y372517D01*
X362640Y372662D01*
X362714Y372810D01*
X362716Y372815D01*
X362725Y372826D01*
X362736Y372848D01*
X362749Y372875D01*
X362771Y372908D01*
X362793Y372946D01*
X362820Y372990D01*
X362847Y373039D01*
X362880Y373088D01*
X362916Y373143D01*
X362992Y373252D01*
X363074Y373364D01*
X363118Y373418D01*
X363161Y373470D01*
X361927D01*
Y373768D01*
X363557D01*
Y373525D01*
D02*
G37*
G36*
X316129Y376610D02*
X316170Y376607D01*
X316219Y376604D01*
X316271Y376602D01*
X316328Y376596D01*
X316386Y376591D01*
X316506Y376574D01*
X316623Y376550D01*
X316680Y376536D01*
X316732Y376520D01*
X316735D01*
X316743Y376514D01*
X316759Y376511D01*
X316776Y376503D01*
X316800Y376492D01*
X316825Y376481D01*
X316855Y376468D01*
X316888Y376451D01*
X316956Y376413D01*
X317024Y376367D01*
X317092Y376312D01*
X317123Y376279D01*
X317153Y376247D01*
X317155Y376244D01*
X317158Y376238D01*
X317166Y376227D01*
X317174Y376214D01*
X317185Y376198D01*
X317199Y376176D01*
X317213Y376151D01*
X317226Y376121D01*
X317240Y376091D01*
X317254Y376056D01*
X317265Y376020D01*
X317278Y375979D01*
X317286Y375935D01*
X317295Y375889D01*
X317297Y375843D01*
X317300Y375791D01*
Y375774D01*
X317297Y375755D01*
X317295Y375731D01*
X317292Y375701D01*
X317286Y375665D01*
X317278Y375627D01*
X317267Y375583D01*
X317254Y375539D01*
X317237Y375493D01*
X317215Y375444D01*
X317191Y375398D01*
X317161Y375351D01*
X317125Y375305D01*
X317087Y375261D01*
X317041Y375220D01*
X317038Y375217D01*
X317027Y375209D01*
X317008Y375198D01*
X316981Y375182D01*
X316945Y375163D01*
X316904Y375141D01*
X316852Y375119D01*
X316795Y375097D01*
X316727Y375073D01*
X316653Y375051D01*
X316568Y375029D01*
X316476Y375010D01*
X316375Y374993D01*
X316265Y374983D01*
X316145Y374974D01*
X316017Y374972D01*
X316012D01*
X315998D01*
X315973D01*
X315943Y374974D01*
X315905D01*
X315861Y374977D01*
X315812Y374980D01*
X315760Y374983D01*
X315703Y374988D01*
X315646Y374993D01*
X315526Y375010D01*
X315408Y375032D01*
X315351Y375045D01*
X315299Y375062D01*
X315296D01*
X315288Y375067D01*
X315272Y375073D01*
X315252Y375078D01*
X315231Y375089D01*
X315203Y375100D01*
X315176Y375114D01*
X315143Y375130D01*
X315075Y375168D01*
X315007Y375217D01*
X314939Y375272D01*
X314909Y375302D01*
X314879Y375335D01*
X314876Y375338D01*
X314873Y375343D01*
X314865Y375354D01*
X314857Y375367D01*
X314843Y375384D01*
X314832Y375406D01*
X314819Y375430D01*
X314805Y375460D01*
X314791Y375490D01*
X314777Y375526D01*
X314764Y375564D01*
X314753Y375602D01*
X314745Y375646D01*
X314737Y375692D01*
X314734Y375742D01*
X314731Y375791D01*
Y375823D01*
X314734Y375843D01*
X314737Y375862D01*
X314742Y375911D01*
X314750Y375965D01*
X314767Y376026D01*
X314786Y376085D01*
X314813Y376146D01*
Y376148D01*
X314816Y376154D01*
X314821Y376162D01*
X314829Y376173D01*
X314846Y376200D01*
X314873Y376236D01*
X314906Y376277D01*
X314947Y376318D01*
X314996Y376361D01*
X315051Y376399D01*
X315053D01*
X315059Y376405D01*
X315067Y376408D01*
X315078Y376416D01*
X315091Y376424D01*
X315111Y376435D01*
X315132Y376443D01*
X315154Y376457D01*
X315209Y376481D01*
X315272Y376506D01*
X315345Y376533D01*
X315424Y376555D01*
X315427D01*
X315435Y376558D01*
X315446Y376561D01*
X315465Y376563D01*
X315487Y376569D01*
X315515Y376574D01*
X315545Y376580D01*
X315580Y376585D01*
X315621Y376588D01*
X315665Y376593D01*
X315714Y376599D01*
X315766Y376604D01*
X315823Y376607D01*
X315883Y376610D01*
X315949Y376612D01*
X316017D01*
X316022D01*
X316036D01*
X316061D01*
X316091D01*
X316129Y376610D01*
D02*
G37*
G36*
X317259Y373869D02*
X315291D01*
X315296Y373863D01*
X315310Y373850D01*
X315329Y373825D01*
X315356Y373790D01*
X315389Y373749D01*
X315424Y373697D01*
X315463Y373639D01*
X315504Y373574D01*
Y373571D01*
X315509Y373566D01*
X315515Y373557D01*
X315520Y373544D01*
X315531Y373528D01*
X315539Y373508D01*
X315564Y373465D01*
X315588Y373416D01*
X315616Y373361D01*
X315640Y373304D01*
X315662Y373249D01*
X315365D01*
X315362Y373252D01*
X315359Y373260D01*
X315351Y373274D01*
X315343Y373293D01*
X315332Y373315D01*
X315315Y373342D01*
X315299Y373372D01*
X315283Y373402D01*
X315239Y373473D01*
X315187Y373549D01*
X315132Y373628D01*
X315070Y373702D01*
X315067Y373705D01*
X315061Y373710D01*
X315053Y373721D01*
X315040Y373735D01*
X315023Y373749D01*
X315007Y373768D01*
X314960Y373809D01*
X314911Y373855D01*
X314854Y373902D01*
X314794Y373942D01*
X314731Y373978D01*
Y374177D01*
X317259D01*
Y373869D01*
D02*
G37*
G36*
X316478Y372722D02*
X316497Y372717D01*
X316527Y372706D01*
X316560Y372695D01*
X316601Y372678D01*
X316645Y372662D01*
X316691Y372640D01*
X316743Y372616D01*
X316792Y372588D01*
X316847Y372558D01*
X316899Y372523D01*
X316948Y372485D01*
X316997Y372444D01*
X317043Y372397D01*
X317087Y372348D01*
X317090Y372345D01*
X317095Y372335D01*
X317106Y372321D01*
X317120Y372299D01*
X317136Y372274D01*
X317155Y372242D01*
X317174Y372206D01*
X317194Y372163D01*
X317213Y372116D01*
X317232Y372067D01*
X317251Y372012D01*
X317267Y371952D01*
X317281Y371889D01*
X317292Y371824D01*
X317297Y371756D01*
X317300Y371682D01*
Y371644D01*
X317297Y371614D01*
X317295Y371581D01*
X317292Y371540D01*
X317286Y371496D01*
X317278Y371447D01*
X317270Y371395D01*
X317259Y371341D01*
X317245Y371286D01*
X317232Y371232D01*
X317213Y371174D01*
X317191Y371120D01*
X317166Y371068D01*
X317136Y371019D01*
X317133Y371016D01*
X317128Y371008D01*
X317120Y370994D01*
X317106Y370978D01*
X317087Y370956D01*
X317068Y370931D01*
X317043Y370904D01*
X317013Y370874D01*
X316981Y370844D01*
X316945Y370811D01*
X316907Y370781D01*
X316863Y370748D01*
X316817Y370716D01*
X316768Y370686D01*
X316713Y370658D01*
X316656Y370631D01*
X316653Y370628D01*
X316642Y370625D01*
X316623Y370620D01*
X316601Y370612D01*
X316571Y370601D01*
X316538Y370590D01*
X316497Y370579D01*
X316454Y370566D01*
X316405Y370555D01*
X316353Y370541D01*
X316298Y370530D01*
X316238Y370522D01*
X316112Y370505D01*
X316047Y370503D01*
X315981Y370500D01*
X315976D01*
X315965D01*
X315943D01*
X315916Y370503D01*
X315880Y370505D01*
X315840Y370508D01*
X315796Y370514D01*
X315747Y370519D01*
X315695Y370527D01*
X315640Y370535D01*
X315523Y370563D01*
X315465Y370582D01*
X315408Y370601D01*
X315348Y370623D01*
X315294Y370650D01*
X315291Y370653D01*
X315280Y370658D01*
X315266Y370667D01*
X315244Y370677D01*
X315220Y370694D01*
X315193Y370713D01*
X315162Y370735D01*
X315127Y370759D01*
X315094Y370789D01*
X315056Y370819D01*
X315020Y370855D01*
X314982Y370893D01*
X314947Y370934D01*
X314911Y370978D01*
X314879Y371027D01*
X314848Y371076D01*
X314846Y371079D01*
X314843Y371090D01*
X314835Y371103D01*
X314824Y371125D01*
X314813Y371150D01*
X314799Y371182D01*
X314786Y371218D01*
X314772Y371256D01*
X314758Y371300D01*
X314745Y371349D01*
X314731Y371398D01*
X314720Y371453D01*
X314701Y371565D01*
X314698Y371625D01*
X314696Y371688D01*
Y371723D01*
X314698Y371750D01*
X314701Y371783D01*
X314706Y371821D01*
X314712Y371862D01*
X314720Y371909D01*
X314731Y371958D01*
X314742Y372010D01*
X314758Y372061D01*
X314777Y372116D01*
X314799Y372171D01*
X314827Y372223D01*
X314854Y372274D01*
X314889Y372324D01*
X314892Y372326D01*
X314898Y372335D01*
X314909Y372348D01*
X314925Y372364D01*
X314944Y372386D01*
X314969Y372411D01*
X314996Y372435D01*
X315029Y372465D01*
X315064Y372496D01*
X315105Y372526D01*
X315149Y372556D01*
X315198Y372583D01*
X315250Y372613D01*
X315307Y372638D01*
X315367Y372662D01*
X315430Y372684D01*
X315506Y372356D01*
X315504D01*
X315495Y372351D01*
X315479Y372348D01*
X315460Y372340D01*
X315438Y372332D01*
X315414Y372318D01*
X315353Y372291D01*
X315288Y372255D01*
X315220Y372209D01*
X315157Y372160D01*
X315130Y372130D01*
X315105Y372100D01*
X315102Y372097D01*
X315100Y372092D01*
X315094Y372083D01*
X315086Y372070D01*
X315075Y372053D01*
X315064Y372034D01*
X315053Y372012D01*
X315042Y371985D01*
X315031Y371955D01*
X315020Y371925D01*
X314999Y371854D01*
X314985Y371772D01*
X314980Y371728D01*
Y371655D01*
X314982Y371633D01*
X314985Y371608D01*
X314988Y371578D01*
X314990Y371546D01*
X314996Y371513D01*
X315015Y371434D01*
X315040Y371352D01*
X315056Y371311D01*
X315075Y371270D01*
X315097Y371232D01*
X315122Y371193D01*
X315124Y371191D01*
X315127Y371185D01*
X315135Y371174D01*
X315146Y371161D01*
X315160Y371147D01*
X315179Y371128D01*
X315198Y371109D01*
X315220Y371087D01*
X315247Y371065D01*
X315274Y371041D01*
X315337Y370997D01*
X315411Y370956D01*
X315495Y370920D01*
X315498D01*
X315506Y370918D01*
X315520Y370912D01*
X315536Y370910D01*
X315558Y370904D01*
X315583Y370896D01*
X315613Y370890D01*
X315643Y370882D01*
X315678Y370874D01*
X315717Y370868D01*
X315798Y370855D01*
X315886Y370847D01*
X315979Y370844D01*
X315981D01*
X315992D01*
X316009D01*
X316033Y370847D01*
X316061D01*
X316093Y370849D01*
X316129Y370852D01*
X316170Y370855D01*
X316213Y370860D01*
X316257Y370866D01*
X316353Y370882D01*
X316448Y370907D01*
X316541Y370937D01*
X316544D01*
X316552Y370942D01*
X316563Y370948D01*
X316579Y370953D01*
X316601Y370964D01*
X316623Y370978D01*
X316675Y371008D01*
X316735Y371049D01*
X316792Y371098D01*
X316850Y371158D01*
X316874Y371191D01*
X316899Y371226D01*
Y371229D01*
X316904Y371234D01*
X316910Y371245D01*
X316918Y371262D01*
X316926Y371281D01*
X316937Y371303D01*
X316945Y371327D01*
X316956Y371354D01*
X316978Y371417D01*
X316997Y371491D01*
X317011Y371570D01*
X317013Y371611D01*
X317016Y371655D01*
Y371682D01*
X317013Y371701D01*
X317011Y371726D01*
X317008Y371753D01*
X317003Y371786D01*
X316997Y371818D01*
X316978Y371895D01*
X316964Y371933D01*
X316948Y371974D01*
X316929Y372015D01*
X316907Y372053D01*
X316882Y372092D01*
X316855Y372130D01*
X316852Y372132D01*
X316847Y372138D01*
X316839Y372149D01*
X316825Y372163D01*
X316809Y372176D01*
X316787Y372195D01*
X316762Y372214D01*
X316735Y372236D01*
X316702Y372258D01*
X316667Y372280D01*
X316629Y372302D01*
X316585Y372324D01*
X316538Y372343D01*
X316487Y372362D01*
X316432Y372381D01*
X316375Y372395D01*
X316459Y372728D01*
X316465D01*
X316478Y372722D01*
D02*
G37*
G36*
X305884Y342797D02*
X305920Y342795D01*
X305960Y342792D01*
X306004Y342786D01*
X306053Y342781D01*
X306105Y342773D01*
X306160Y342764D01*
X306277Y342737D01*
X306334Y342718D01*
X306392Y342699D01*
X306452Y342677D01*
X306506Y342650D01*
X306509Y342647D01*
X306520Y342642D01*
X306534Y342634D01*
X306556Y342623D01*
X306580Y342606D01*
X306608Y342587D01*
X306638Y342565D01*
X306673Y342541D01*
X306706Y342511D01*
X306744Y342481D01*
X306780Y342445D01*
X306818Y342407D01*
X306853Y342366D01*
X306889Y342322D01*
X306922Y342273D01*
X306951Y342224D01*
X306954Y342221D01*
X306957Y342210D01*
X306965Y342197D01*
X306976Y342175D01*
X306987Y342150D01*
X307001Y342118D01*
X307014Y342082D01*
X307028Y342044D01*
X307042Y342000D01*
X307055Y341951D01*
X307069Y341902D01*
X307080Y341847D01*
X307099Y341735D01*
X307102Y341675D01*
X307104Y341613D01*
Y341577D01*
X307102Y341550D01*
X307099Y341517D01*
X307094Y341479D01*
X307088Y341438D01*
X307080Y341391D01*
X307069Y341342D01*
X307058Y341290D01*
X307042Y341238D01*
X307023Y341184D01*
X307001Y341129D01*
X306973Y341077D01*
X306946Y341025D01*
X306911Y340976D01*
X306908Y340974D01*
X306902Y340966D01*
X306891Y340952D01*
X306875Y340935D01*
X306856Y340914D01*
X306831Y340889D01*
X306804Y340864D01*
X306771Y340834D01*
X306736Y340804D01*
X306695Y340774D01*
X306651Y340744D01*
X306602Y340717D01*
X306550Y340687D01*
X306493Y340662D01*
X306433Y340638D01*
X306370Y340616D01*
X306294Y340944D01*
X306296D01*
X306305Y340949D01*
X306321Y340952D01*
X306340Y340960D01*
X306362Y340968D01*
X306386Y340982D01*
X306447Y341009D01*
X306512Y341045D01*
X306580Y341091D01*
X306643Y341140D01*
X306670Y341170D01*
X306695Y341200D01*
X306698Y341203D01*
X306700Y341208D01*
X306706Y341217D01*
X306714Y341230D01*
X306725Y341247D01*
X306736Y341266D01*
X306747Y341288D01*
X306758Y341315D01*
X306769Y341345D01*
X306780Y341375D01*
X306801Y341446D01*
X306815Y341528D01*
X306821Y341571D01*
Y341645D01*
X306818Y341667D01*
X306815Y341692D01*
X306812Y341722D01*
X306809Y341754D01*
X306804Y341787D01*
X306785Y341866D01*
X306760Y341948D01*
X306744Y341989D01*
X306725Y342030D01*
X306703Y342068D01*
X306679Y342107D01*
X306676Y342109D01*
X306673Y342115D01*
X306665Y342126D01*
X306654Y342139D01*
X306640Y342153D01*
X306621Y342172D01*
X306602Y342191D01*
X306580Y342213D01*
X306553Y342235D01*
X306526Y342260D01*
X306463Y342303D01*
X306389Y342344D01*
X306305Y342380D01*
X306302D01*
X306294Y342382D01*
X306280Y342388D01*
X306263Y342390D01*
X306242Y342396D01*
X306217Y342404D01*
X306187Y342410D01*
X306157Y342418D01*
X306122Y342426D01*
X306083Y342431D01*
X306001Y342445D01*
X305914Y342453D01*
X305821Y342456D01*
X305819D01*
X305808D01*
X305791D01*
X305767Y342453D01*
X305739D01*
X305707Y342451D01*
X305671Y342448D01*
X305630Y342445D01*
X305587Y342440D01*
X305543Y342434D01*
X305447Y342418D01*
X305352Y342393D01*
X305259Y342363D01*
X305256D01*
X305248Y342358D01*
X305237Y342352D01*
X305221Y342347D01*
X305199Y342336D01*
X305177Y342322D01*
X305125Y342292D01*
X305065Y342251D01*
X305008Y342202D01*
X304950Y342142D01*
X304926Y342109D01*
X304901Y342074D01*
Y342071D01*
X304896Y342066D01*
X304890Y342055D01*
X304882Y342038D01*
X304874Y342019D01*
X304863Y341997D01*
X304855Y341973D01*
X304844Y341946D01*
X304822Y341883D01*
X304803Y341809D01*
X304789Y341730D01*
X304787Y341689D01*
X304784Y341645D01*
Y341618D01*
X304787Y341599D01*
X304789Y341574D01*
X304792Y341547D01*
X304798Y341514D01*
X304803Y341481D01*
X304822Y341405D01*
X304836Y341367D01*
X304852Y341326D01*
X304871Y341285D01*
X304893Y341247D01*
X304918Y341208D01*
X304945Y341170D01*
X304948Y341167D01*
X304953Y341162D01*
X304961Y341151D01*
X304975Y341138D01*
X304991Y341124D01*
X305013Y341105D01*
X305038Y341086D01*
X305065Y341064D01*
X305098Y341042D01*
X305133Y341020D01*
X305171Y340998D01*
X305215Y340976D01*
X305262Y340957D01*
X305313Y340938D01*
X305368Y340919D01*
X305425Y340905D01*
X305341Y340572D01*
X305335D01*
X305322Y340578D01*
X305303Y340583D01*
X305273Y340594D01*
X305240Y340605D01*
X305199Y340621D01*
X305155Y340638D01*
X305109Y340660D01*
X305057Y340684D01*
X305008Y340712D01*
X304953Y340742D01*
X304901Y340777D01*
X304852Y340815D01*
X304803Y340856D01*
X304757Y340903D01*
X304713Y340952D01*
X304710Y340955D01*
X304705Y340966D01*
X304694Y340979D01*
X304680Y341001D01*
X304664Y341025D01*
X304645Y341058D01*
X304626Y341094D01*
X304606Y341138D01*
X304587Y341184D01*
X304568Y341233D01*
X304549Y341288D01*
X304533Y341348D01*
X304519Y341410D01*
X304508Y341476D01*
X304503Y341544D01*
X304500Y341618D01*
Y341656D01*
X304503Y341686D01*
X304505Y341719D01*
X304508Y341760D01*
X304514Y341804D01*
X304522Y341853D01*
X304530Y341905D01*
X304541Y341959D01*
X304555Y342014D01*
X304568Y342068D01*
X304587Y342126D01*
X304609Y342180D01*
X304634Y342232D01*
X304664Y342281D01*
X304666Y342284D01*
X304672Y342292D01*
X304680Y342306D01*
X304694Y342322D01*
X304713Y342344D01*
X304732Y342369D01*
X304757Y342396D01*
X304787Y342426D01*
X304819Y342456D01*
X304855Y342489D01*
X304893Y342519D01*
X304937Y342552D01*
X304983Y342584D01*
X305032Y342614D01*
X305087Y342642D01*
X305144Y342669D01*
X305147Y342672D01*
X305158Y342674D01*
X305177Y342680D01*
X305199Y342688D01*
X305229Y342699D01*
X305262Y342710D01*
X305303Y342721D01*
X305346Y342735D01*
X305395Y342745D01*
X305447Y342759D01*
X305502Y342770D01*
X305562Y342778D01*
X305687Y342795D01*
X305753Y342797D01*
X305819Y342800D01*
X305824D01*
X305835D01*
X305857D01*
X305884Y342797D01*
D02*
G37*
G36*
X306255Y340283D02*
X306280D01*
X306313Y340278D01*
X306351Y340275D01*
X306392Y340267D01*
X306438Y340258D01*
X306485Y340245D01*
X306537Y340231D01*
X306588Y340212D01*
X306638Y340190D01*
X306689Y340166D01*
X306741Y340136D01*
X306788Y340100D01*
X306834Y340062D01*
X306837Y340059D01*
X306845Y340051D01*
X306856Y340037D01*
X306870Y340021D01*
X306889Y339999D01*
X306908Y339972D01*
X306930Y339942D01*
X306951Y339906D01*
X306973Y339868D01*
X306995Y339824D01*
X307014Y339778D01*
X307033Y339729D01*
X307047Y339674D01*
X307058Y339617D01*
X307066Y339560D01*
X307069Y339497D01*
Y339472D01*
X307066Y339456D01*
Y339434D01*
X307061Y339409D01*
X307058Y339379D01*
X307052Y339349D01*
X307036Y339278D01*
X307012Y339205D01*
X306998Y339166D01*
X306979Y339125D01*
X306960Y339087D01*
X306935Y339049D01*
X306932Y339046D01*
X306930Y339041D01*
X306922Y339030D01*
X306911Y339016D01*
X306897Y338997D01*
X306880Y338978D01*
X306861Y338956D01*
X306840Y338934D01*
X306815Y338910D01*
X306785Y338882D01*
X306755Y338858D01*
X306722Y338831D01*
X306684Y338806D01*
X306646Y338781D01*
X306602Y338760D01*
X306558Y338738D01*
X306556D01*
X306547Y338732D01*
X306534Y338727D01*
X306512Y338721D01*
X306487Y338713D01*
X306457Y338705D01*
X306422Y338694D01*
X306378Y338683D01*
X306332Y338675D01*
X306280Y338664D01*
X306220Y338656D01*
X306157Y338648D01*
X306089Y338642D01*
X306015Y338637D01*
X305936Y338631D01*
X305851D01*
X305846D01*
X305830D01*
X305805D01*
X305772Y338634D01*
X305731D01*
X305682Y338637D01*
X305630Y338639D01*
X305573Y338645D01*
X305513Y338650D01*
X305450Y338656D01*
X305322Y338675D01*
X305196Y338702D01*
X305139Y338719D01*
X305082Y338738D01*
X305079D01*
X305068Y338743D01*
X305054Y338749D01*
X305035Y338757D01*
X305011Y338768D01*
X304983Y338781D01*
X304953Y338798D01*
X304920Y338814D01*
X304852Y338858D01*
X304778Y338913D01*
X304710Y338975D01*
X304677Y339011D01*
X304647Y339049D01*
X304645Y339052D01*
X304642Y339057D01*
X304634Y339071D01*
X304626Y339085D01*
X304615Y339106D01*
X304601Y339128D01*
X304587Y339156D01*
X304574Y339188D01*
X304560Y339221D01*
X304546Y339259D01*
X304536Y339297D01*
X304522Y339341D01*
X304505Y339434D01*
X304503Y339483D01*
X304500Y339535D01*
Y339562D01*
X304503Y339584D01*
X304505Y339609D01*
X304508Y339639D01*
X304514Y339671D01*
X304522Y339707D01*
X304541Y339783D01*
X304555Y339822D01*
X304568Y339863D01*
X304587Y339903D01*
X304609Y339945D01*
X304634Y339983D01*
X304664Y340018D01*
X304666Y340021D01*
X304672Y340026D01*
X304680Y340035D01*
X304694Y340048D01*
X304710Y340062D01*
X304732Y340078D01*
X304757Y340097D01*
X304784Y340116D01*
X304814Y340136D01*
X304849Y340155D01*
X304888Y340171D01*
X304929Y340190D01*
X304972Y340207D01*
X305019Y340220D01*
X305070Y340231D01*
X305125Y340239D01*
X305150Y339942D01*
X305147D01*
X305141Y339939D01*
X305131D01*
X305114Y339933D01*
X305098Y339931D01*
X305079Y339925D01*
X305032Y339912D01*
X304983Y339893D01*
X304934Y339868D01*
X304888Y339835D01*
X304866Y339819D01*
X304847Y339800D01*
X304844Y339794D01*
X304833Y339781D01*
X304817Y339756D01*
X304800Y339726D01*
X304784Y339685D01*
X304767Y339639D01*
X304757Y339587D01*
X304754Y339527D01*
Y339502D01*
X304757Y339475D01*
X304762Y339442D01*
X304770Y339404D01*
X304781Y339363D01*
X304795Y339319D01*
X304817Y339278D01*
X304819Y339273D01*
X304828Y339259D01*
X304844Y339240D01*
X304863Y339215D01*
X304888Y339188D01*
X304918Y339158D01*
X304953Y339128D01*
X304991Y339101D01*
X304997Y339098D01*
X305011Y339090D01*
X305035Y339076D01*
X305070Y339060D01*
X305112Y339044D01*
X305161Y339024D01*
X305221Y339005D01*
X305286Y338986D01*
X305289D01*
X305294Y338983D01*
X305305Y338981D01*
X305319Y338978D01*
X305335Y338975D01*
X305354Y338973D01*
X305379Y338967D01*
X305404Y338962D01*
X305461Y338953D01*
X305524Y338948D01*
X305592Y338943D01*
X305663Y338940D01*
X305668D01*
X305679D01*
X305698D01*
X305723D01*
X305720Y338945D01*
X305712Y338948D01*
X305701Y338956D01*
X305674Y338978D01*
X305641Y339005D01*
X305603Y339044D01*
X305562Y339087D01*
X305524Y339136D01*
X305486Y339194D01*
Y339196D01*
X305483Y339202D01*
X305477Y339210D01*
X305472Y339221D01*
X305464Y339237D01*
X305458Y339254D01*
X305442Y339297D01*
X305423Y339349D01*
X305409Y339409D01*
X305398Y339475D01*
X305395Y339543D01*
Y339557D01*
X305398Y339573D01*
Y339595D01*
X305404Y339622D01*
X305406Y339652D01*
X305415Y339688D01*
X305423Y339726D01*
X305436Y339767D01*
X305450Y339808D01*
X305469Y339852D01*
X305491Y339895D01*
X305516Y339942D01*
X305546Y339985D01*
X305581Y340029D01*
X305619Y340070D01*
X305622Y340073D01*
X305630Y340078D01*
X305644Y340089D01*
X305660Y340103D01*
X305682Y340119D01*
X305709Y340138D01*
X305742Y340157D01*
X305780Y340177D01*
X305819Y340198D01*
X305865Y340217D01*
X305914Y340237D01*
X305966Y340253D01*
X306023Y340267D01*
X306086Y340278D01*
X306149Y340283D01*
X306217Y340286D01*
X306223D01*
X306234D01*
X306255Y340283D01*
D02*
G37*
G36*
X270284Y342797D02*
X270320Y342795D01*
X270360Y342792D01*
X270404Y342786D01*
X270453Y342781D01*
X270505Y342773D01*
X270560Y342764D01*
X270677Y342737D01*
X270735Y342718D01*
X270792Y342699D01*
X270852Y342677D01*
X270906Y342650D01*
X270909Y342647D01*
X270920Y342642D01*
X270934Y342634D01*
X270956Y342623D01*
X270980Y342606D01*
X271007Y342587D01*
X271038Y342565D01*
X271073Y342541D01*
X271106Y342511D01*
X271144Y342481D01*
X271180Y342445D01*
X271218Y342407D01*
X271253Y342366D01*
X271289Y342322D01*
X271322Y342273D01*
X271352Y342224D01*
X271354Y342221D01*
X271357Y342210D01*
X271365Y342197D01*
X271376Y342175D01*
X271387Y342150D01*
X271401Y342118D01*
X271414Y342082D01*
X271428Y342044D01*
X271442Y342000D01*
X271455Y341951D01*
X271469Y341902D01*
X271480Y341847D01*
X271499Y341735D01*
X271502Y341675D01*
X271504Y341613D01*
Y341577D01*
X271502Y341550D01*
X271499Y341517D01*
X271494Y341479D01*
X271488Y341438D01*
X271480Y341391D01*
X271469Y341342D01*
X271458Y341290D01*
X271442Y341238D01*
X271423Y341184D01*
X271401Y341129D01*
X271373Y341077D01*
X271346Y341025D01*
X271311Y340976D01*
X271308Y340974D01*
X271302Y340966D01*
X271291Y340952D01*
X271275Y340935D01*
X271256Y340914D01*
X271231Y340889D01*
X271204Y340864D01*
X271171Y340834D01*
X271136Y340804D01*
X271095Y340774D01*
X271051Y340744D01*
X271002Y340717D01*
X270950Y340687D01*
X270893Y340662D01*
X270833Y340638D01*
X270770Y340616D01*
X270694Y340944D01*
X270696D01*
X270705Y340949D01*
X270721Y340952D01*
X270740Y340960D01*
X270762Y340968D01*
X270786Y340982D01*
X270847Y341009D01*
X270912Y341045D01*
X270980Y341091D01*
X271043Y341140D01*
X271070Y341170D01*
X271095Y341200D01*
X271098Y341203D01*
X271100Y341208D01*
X271106Y341217D01*
X271114Y341230D01*
X271125Y341247D01*
X271136Y341266D01*
X271147Y341288D01*
X271158Y341315D01*
X271169Y341345D01*
X271180Y341375D01*
X271201Y341446D01*
X271215Y341528D01*
X271220Y341571D01*
Y341645D01*
X271218Y341667D01*
X271215Y341692D01*
X271212Y341722D01*
X271210Y341754D01*
X271204Y341787D01*
X271185Y341866D01*
X271160Y341948D01*
X271144Y341989D01*
X271125Y342030D01*
X271103Y342068D01*
X271078Y342107D01*
X271076Y342109D01*
X271073Y342115D01*
X271065Y342126D01*
X271054Y342139D01*
X271040Y342153D01*
X271021Y342172D01*
X271002Y342191D01*
X270980Y342213D01*
X270953Y342235D01*
X270926Y342260D01*
X270863Y342303D01*
X270789Y342344D01*
X270705Y342380D01*
X270702D01*
X270694Y342382D01*
X270680Y342388D01*
X270663Y342390D01*
X270642Y342396D01*
X270617Y342404D01*
X270587Y342410D01*
X270557Y342418D01*
X270522Y342426D01*
X270483Y342431D01*
X270402Y342445D01*
X270314Y342453D01*
X270221Y342456D01*
X270219D01*
X270208D01*
X270191D01*
X270167Y342453D01*
X270139D01*
X270107Y342451D01*
X270071Y342448D01*
X270030Y342445D01*
X269987Y342440D01*
X269943Y342434D01*
X269847Y342418D01*
X269752Y342393D01*
X269659Y342363D01*
X269656D01*
X269648Y342358D01*
X269637Y342352D01*
X269621Y342347D01*
X269599Y342336D01*
X269577Y342322D01*
X269525Y342292D01*
X269465Y342251D01*
X269408Y342202D01*
X269350Y342142D01*
X269326Y342109D01*
X269301Y342074D01*
Y342071D01*
X269296Y342066D01*
X269290Y342055D01*
X269282Y342038D01*
X269274Y342019D01*
X269263Y341997D01*
X269255Y341973D01*
X269244Y341946D01*
X269222Y341883D01*
X269203Y341809D01*
X269189Y341730D01*
X269187Y341689D01*
X269184Y341645D01*
Y341618D01*
X269187Y341599D01*
X269189Y341574D01*
X269192Y341547D01*
X269198Y341514D01*
X269203Y341481D01*
X269222Y341405D01*
X269236Y341367D01*
X269252Y341326D01*
X269271Y341285D01*
X269293Y341247D01*
X269318Y341208D01*
X269345Y341170D01*
X269348Y341167D01*
X269353Y341162D01*
X269361Y341151D01*
X269375Y341138D01*
X269391Y341124D01*
X269413Y341105D01*
X269438Y341086D01*
X269465Y341064D01*
X269498Y341042D01*
X269533Y341020D01*
X269571Y340998D01*
X269615Y340976D01*
X269662Y340957D01*
X269713Y340938D01*
X269768Y340919D01*
X269825Y340905D01*
X269741Y340572D01*
X269735D01*
X269722Y340578D01*
X269703Y340583D01*
X269673Y340594D01*
X269640Y340605D01*
X269599Y340621D01*
X269555Y340638D01*
X269509Y340660D01*
X269457Y340684D01*
X269408Y340712D01*
X269353Y340742D01*
X269301Y340777D01*
X269252Y340815D01*
X269203Y340856D01*
X269157Y340903D01*
X269113Y340952D01*
X269110Y340955D01*
X269105Y340966D01*
X269094Y340979D01*
X269080Y341001D01*
X269064Y341025D01*
X269045Y341058D01*
X269026Y341094D01*
X269006Y341138D01*
X268987Y341184D01*
X268968Y341233D01*
X268949Y341288D01*
X268933Y341348D01*
X268919Y341410D01*
X268908Y341476D01*
X268903Y341544D01*
X268900Y341618D01*
Y341656D01*
X268903Y341686D01*
X268905Y341719D01*
X268908Y341760D01*
X268914Y341804D01*
X268922Y341853D01*
X268930Y341905D01*
X268941Y341959D01*
X268955Y342014D01*
X268968Y342068D01*
X268987Y342126D01*
X269009Y342180D01*
X269034Y342232D01*
X269064Y342281D01*
X269067Y342284D01*
X269072Y342292D01*
X269080Y342306D01*
X269094Y342322D01*
X269113Y342344D01*
X269132Y342369D01*
X269157Y342396D01*
X269187Y342426D01*
X269219Y342456D01*
X269255Y342489D01*
X269293Y342519D01*
X269337Y342552D01*
X269383Y342584D01*
X269432Y342614D01*
X269487Y342642D01*
X269544Y342669D01*
X269547Y342672D01*
X269558Y342674D01*
X269577Y342680D01*
X269599Y342688D01*
X269629Y342699D01*
X269662Y342710D01*
X269703Y342721D01*
X269746Y342735D01*
X269795Y342745D01*
X269847Y342759D01*
X269902Y342770D01*
X269962Y342778D01*
X270088Y342795D01*
X270153Y342797D01*
X270219Y342800D01*
X270224D01*
X270235D01*
X270257D01*
X270284Y342797D01*
D02*
G37*
G36*
X269711Y340288D02*
X269733D01*
X269757Y340286D01*
X269784Y340280D01*
X269814Y340275D01*
X269877Y340261D01*
X269946Y340239D01*
X270014Y340209D01*
X270047Y340190D01*
X270079Y340168D01*
X270082Y340166D01*
X270088Y340163D01*
X270096Y340155D01*
X270107Y340144D01*
X270120Y340133D01*
X270134Y340116D01*
X270153Y340097D01*
X270169Y340075D01*
X270208Y340026D01*
X270246Y339966D01*
X270279Y339895D01*
X270306Y339813D01*
Y339816D01*
X270309Y339822D01*
X270314Y339832D01*
X270320Y339843D01*
X270325Y339860D01*
X270336Y339879D01*
X270358Y339920D01*
X270385Y339966D01*
X270421Y340013D01*
X270459Y340059D01*
X270505Y340097D01*
X270508D01*
X270511Y340100D01*
X270519Y340106D01*
X270530Y340111D01*
X270557Y340127D01*
X270593Y340144D01*
X270639Y340160D01*
X270694Y340177D01*
X270754Y340187D01*
X270819Y340190D01*
X270822D01*
X270830D01*
X270847Y340187D01*
X270866D01*
X270887Y340185D01*
X270915Y340179D01*
X270945Y340174D01*
X270980Y340166D01*
X271016Y340155D01*
X271051Y340141D01*
X271089Y340127D01*
X271130Y340108D01*
X271169Y340084D01*
X271207Y340059D01*
X271245Y340029D01*
X271281Y339994D01*
X271283Y339991D01*
X271289Y339985D01*
X271297Y339974D01*
X271311Y339958D01*
X271324Y339939D01*
X271341Y339914D01*
X271357Y339887D01*
X271376Y339854D01*
X271392Y339819D01*
X271409Y339778D01*
X271425Y339737D01*
X271439Y339691D01*
X271452Y339639D01*
X271461Y339587D01*
X271466Y339529D01*
X271469Y339469D01*
Y339437D01*
X271466Y339415D01*
X271463Y339387D01*
X271458Y339355D01*
X271452Y339319D01*
X271444Y339278D01*
X271433Y339237D01*
X271423Y339194D01*
X271406Y339150D01*
X271387Y339106D01*
X271365Y339060D01*
X271338Y339019D01*
X271311Y338975D01*
X271275Y338937D01*
X271272Y338934D01*
X271267Y338929D01*
X271256Y338918D01*
X271242Y338904D01*
X271223Y338891D01*
X271201Y338874D01*
X271174Y338855D01*
X271147Y338836D01*
X271114Y338817D01*
X271078Y338798D01*
X271040Y338781D01*
X270999Y338768D01*
X270956Y338754D01*
X270909Y338743D01*
X270860Y338738D01*
X270811Y338735D01*
X270808D01*
X270803D01*
X270795D01*
X270781D01*
X270767Y338738D01*
X270748Y338740D01*
X270707Y338746D01*
X270661Y338757D01*
X270609Y338773D01*
X270557Y338798D01*
X270505Y338828D01*
X270502D01*
X270500Y338833D01*
X270483Y338844D01*
X270462Y338866D01*
X270431Y338896D01*
X270402Y338937D01*
X270366Y338983D01*
X270336Y339041D01*
X270306Y339106D01*
Y339104D01*
X270303Y339095D01*
X270298Y339085D01*
X270292Y339068D01*
X270284Y339049D01*
X270273Y339027D01*
X270246Y338975D01*
X270213Y338918D01*
X270169Y338861D01*
X270120Y338803D01*
X270060Y338754D01*
X270058Y338751D01*
X270052Y338749D01*
X270044Y338743D01*
X270030Y338735D01*
X270014Y338727D01*
X269995Y338716D01*
X269973Y338705D01*
X269948Y338691D01*
X269891Y338669D01*
X269823Y338650D01*
X269746Y338637D01*
X269705Y338631D01*
X269662D01*
X269659D01*
X269648D01*
X269632Y338634D01*
X269607D01*
X269580Y338639D01*
X269547Y338642D01*
X269512Y338650D01*
X269473Y338659D01*
X269430Y338672D01*
X269386Y338686D01*
X269342Y338705D01*
X269296Y338727D01*
X269249Y338754D01*
X269206Y338784D01*
X269159Y338820D01*
X269118Y338861D01*
X269116Y338863D01*
X269110Y338872D01*
X269099Y338885D01*
X269086Y338902D01*
X269067Y338926D01*
X269050Y338953D01*
X269028Y338986D01*
X269009Y339022D01*
X268990Y339063D01*
X268968Y339109D01*
X268952Y339158D01*
X268935Y339210D01*
X268919Y339267D01*
X268908Y339328D01*
X268903Y339393D01*
X268900Y339461D01*
Y339478D01*
X268903Y339497D01*
Y339524D01*
X268905Y339554D01*
X268911Y339592D01*
X268919Y339633D01*
X268927Y339677D01*
X268938Y339723D01*
X268955Y339773D01*
X268971Y339822D01*
X268993Y339874D01*
X269017Y339923D01*
X269047Y339972D01*
X269080Y340021D01*
X269118Y340065D01*
X269121Y340067D01*
X269129Y340075D01*
X269140Y340086D01*
X269159Y340100D01*
X269181Y340116D01*
X269206Y340136D01*
X269236Y340157D01*
X269271Y340177D01*
X269309Y340198D01*
X269350Y340220D01*
X269397Y340239D01*
X269443Y340256D01*
X269495Y340269D01*
X269552Y340280D01*
X269610Y340288D01*
X269670Y340291D01*
X269673D01*
X269681D01*
X269694D01*
X269711Y340288D01*
D02*
G37*
G36*
X226476Y310366D02*
X226500Y310363D01*
X226530Y310361D01*
X226563Y310355D01*
X226599Y310347D01*
X226678Y310328D01*
X226716Y310314D01*
X226760Y310298D01*
X226801Y310279D01*
X226839Y310254D01*
X226877Y310230D01*
X226915Y310200D01*
X226918Y310197D01*
X226923Y310191D01*
X226934Y310183D01*
X226945Y310170D01*
X226962Y310153D01*
X226978Y310131D01*
X226997Y310107D01*
X227016Y310080D01*
X227035Y310050D01*
X227055Y310014D01*
X227074Y309976D01*
X227093Y309935D01*
X227109Y309891D01*
X227123Y309845D01*
X227136Y309796D01*
X227145Y309741D01*
X226836Y309716D01*
Y309719D01*
X226833Y309725D01*
X226831Y309733D01*
X226828Y309746D01*
X226820Y309779D01*
X226806Y309817D01*
X226790Y309861D01*
X226768Y309905D01*
X226746Y309946D01*
X226719Y309981D01*
X226716Y309984D01*
X226713Y309987D01*
X226705Y309995D01*
X226697Y310003D01*
X226670Y310025D01*
X226631Y310050D01*
X226588Y310074D01*
X226533Y310093D01*
X226473Y310109D01*
X226440Y310112D01*
X226408Y310115D01*
X226383D01*
X226353Y310109D01*
X226317Y310104D01*
X226276Y310093D01*
X226233Y310080D01*
X226189Y310058D01*
X226145Y310030D01*
X226143D01*
X226140Y310025D01*
X226132Y310019D01*
X226121Y310011D01*
X226096Y309987D01*
X226063Y309951D01*
X226025Y309908D01*
X225987Y309853D01*
X225952Y309790D01*
X225916Y309719D01*
Y309716D01*
X225913Y309711D01*
X225908Y309697D01*
X225902Y309681D01*
X225897Y309662D01*
X225889Y309634D01*
X225881Y309605D01*
X225872Y309572D01*
X225864Y309534D01*
X225859Y309490D01*
X225851Y309441D01*
X225842Y309389D01*
X225837Y309334D01*
X225834Y309274D01*
X225831Y309209D01*
X225829Y309143D01*
X225829Y309143D01*
Y309140D01*
X225829Y309143D01*
X225834Y309149D01*
X225840Y309157D01*
X225848Y309168D01*
X225872Y309198D01*
X225902Y309236D01*
X225943Y309277D01*
X225990Y309318D01*
X226042Y309356D01*
X226099Y309391D01*
X226102D01*
X226107Y309394D01*
X226115Y309400D01*
X226126Y309405D01*
X226143Y309411D01*
X226159Y309419D01*
X226203Y309435D01*
X226255Y309449D01*
X226312Y309462D01*
X226375Y309473D01*
X226440Y309476D01*
X226454D01*
X226470Y309473D01*
X226492D01*
X226519Y309468D01*
X226549Y309465D01*
X226585Y309457D01*
X226623Y309449D01*
X226661Y309435D01*
X226705Y309422D01*
X226749Y309402D01*
X226792Y309381D01*
X226839Y309353D01*
X226883Y309323D01*
X226926Y309288D01*
X226967Y309247D01*
X226970Y309244D01*
X226975Y309236D01*
X226986Y309225D01*
X227003Y309206D01*
X227019Y309184D01*
X227035Y309157D01*
X227057Y309124D01*
X227076Y309088D01*
X227095Y309048D01*
X227117Y309004D01*
X227134Y308955D01*
X227153Y308903D01*
X227166Y308848D01*
X227177Y308788D01*
X227183Y308725D01*
X227186Y308660D01*
Y308657D01*
Y308649D01*
Y308638D01*
X227183Y308619D01*
Y308600D01*
X227180Y308575D01*
X227177Y308545D01*
X227172Y308515D01*
X227161Y308447D01*
X227142Y308373D01*
X227117Y308297D01*
X227082Y308218D01*
Y308215D01*
X227076Y308209D01*
X227071Y308198D01*
X227063Y308185D01*
X227052Y308169D01*
X227041Y308149D01*
X227008Y308103D01*
X226970Y308054D01*
X226921Y308002D01*
X226863Y307950D01*
X226801Y307906D01*
X226798D01*
X226792Y307901D01*
X226782Y307895D01*
X226768Y307890D01*
X226751Y307882D01*
X226732Y307874D01*
X226708Y307863D01*
X226683Y307855D01*
X226623Y307833D01*
X226552Y307816D01*
X226476Y307805D01*
X226394Y307800D01*
X226377D01*
X226356Y307803D01*
X226328Y307805D01*
X226295Y307808D01*
X226257Y307816D01*
X226216Y307824D01*
X226170Y307835D01*
X226121Y307852D01*
X226069Y307868D01*
X226017Y307893D01*
X225965Y307920D01*
X225911Y307953D01*
X225862Y307991D01*
X225810Y308035D01*
X225763Y308084D01*
X225760Y308087D01*
X225752Y308098D01*
X225741Y308114D01*
X225725Y308138D01*
X225706Y308169D01*
X225687Y308207D01*
X225665Y308253D01*
X225643Y308308D01*
X225619Y308368D01*
X225597Y308436D01*
X225577Y308512D01*
X225558Y308597D01*
X225542Y308690D01*
X225531Y308791D01*
X225523Y308900D01*
X225520Y309017D01*
Y309020D01*
Y309026D01*
Y309037D01*
Y309050D01*
Y309067D01*
X225523Y309088D01*
Y309110D01*
X225526Y309138D01*
X225528Y309198D01*
X225534Y309266D01*
X225542Y309342D01*
X225553Y309424D01*
X225569Y309512D01*
X225586Y309599D01*
X225608Y309686D01*
X225635Y309774D01*
X225665Y309858D01*
X225700Y309940D01*
X225744Y310014D01*
X225791Y310080D01*
X225793Y310082D01*
X225801Y310093D01*
X225815Y310107D01*
X225834Y310126D01*
X225856Y310148D01*
X225886Y310172D01*
X225919Y310197D01*
X225957Y310224D01*
X226001Y310251D01*
X226050Y310276D01*
X226102Y310301D01*
X226159Y310322D01*
X226219Y310342D01*
X226285Y310355D01*
X226353Y310366D01*
X226427Y310369D01*
X226457D01*
X226476Y310366D01*
D02*
G37*
G36*
X222315Y310402D02*
X222348Y310399D01*
X222386Y310393D01*
X222427Y310388D01*
X222474Y310380D01*
X222523Y310369D01*
X222574Y310358D01*
X222626Y310342D01*
X222681Y310322D01*
X222736Y310301D01*
X222787Y310273D01*
X222839Y310246D01*
X222888Y310210D01*
X222891Y310208D01*
X222899Y310202D01*
X222913Y310191D01*
X222929Y310175D01*
X222951Y310156D01*
X222976Y310131D01*
X223000Y310104D01*
X223030Y310071D01*
X223060Y310036D01*
X223091Y309995D01*
X223120Y309951D01*
X223148Y309902D01*
X223178Y309850D01*
X223202Y309793D01*
X223227Y309733D01*
X223249Y309670D01*
X222921Y309594D01*
Y309596D01*
X222916Y309605D01*
X222913Y309621D01*
X222905Y309640D01*
X222897Y309662D01*
X222883Y309686D01*
X222856Y309746D01*
X222820Y309812D01*
X222774Y309880D01*
X222725Y309943D01*
X222695Y309970D01*
X222665Y309995D01*
X222662Y309998D01*
X222656Y310000D01*
X222648Y310006D01*
X222635Y310014D01*
X222618Y310025D01*
X222599Y310036D01*
X222577Y310047D01*
X222550Y310058D01*
X222520Y310069D01*
X222490Y310080D01*
X222419Y310101D01*
X222337Y310115D01*
X222293Y310120D01*
X222220D01*
X222198Y310118D01*
X222173Y310115D01*
X222143Y310112D01*
X222110Y310109D01*
X222078Y310104D01*
X221999Y310085D01*
X221917Y310060D01*
X221876Y310044D01*
X221835Y310025D01*
X221796Y310003D01*
X221758Y309979D01*
X221756Y309976D01*
X221750Y309973D01*
X221739Y309965D01*
X221726Y309954D01*
X221712Y309940D01*
X221693Y309921D01*
X221674Y309902D01*
X221652Y309880D01*
X221630Y309853D01*
X221605Y309826D01*
X221562Y309763D01*
X221521Y309689D01*
X221485Y309605D01*
Y309602D01*
X221482Y309594D01*
X221477Y309580D01*
X221474Y309563D01*
X221469Y309542D01*
X221461Y309517D01*
X221455Y309487D01*
X221447Y309457D01*
X221439Y309422D01*
X221433Y309383D01*
X221420Y309301D01*
X221411Y309214D01*
X221409Y309121D01*
Y309119D01*
Y309108D01*
Y309091D01*
X221411Y309067D01*
Y309039D01*
X221414Y309007D01*
X221417Y308971D01*
X221420Y308930D01*
X221425Y308887D01*
X221431Y308843D01*
X221447Y308747D01*
X221472Y308652D01*
X221502Y308559D01*
Y308556D01*
X221507Y308548D01*
X221513Y308537D01*
X221518Y308521D01*
X221529Y308499D01*
X221543Y308477D01*
X221573Y308425D01*
X221614Y308365D01*
X221663Y308308D01*
X221723Y308250D01*
X221756Y308226D01*
X221791Y308201D01*
X221794D01*
X221799Y308196D01*
X221810Y308190D01*
X221827Y308182D01*
X221846Y308174D01*
X221867Y308163D01*
X221892Y308155D01*
X221919Y308144D01*
X221982Y308122D01*
X222056Y308103D01*
X222135Y308089D01*
X222176Y308087D01*
X222220Y308084D01*
X222247D01*
X222266Y308087D01*
X222291Y308089D01*
X222318Y308092D01*
X222351Y308098D01*
X222383Y308103D01*
X222460Y308122D01*
X222498Y308136D01*
X222539Y308152D01*
X222580Y308171D01*
X222618Y308193D01*
X222656Y308218D01*
X222695Y308245D01*
X222697Y308248D01*
X222703Y308253D01*
X222714Y308261D01*
X222727Y308275D01*
X222741Y308291D01*
X222760Y308313D01*
X222779Y308338D01*
X222801Y308365D01*
X222823Y308398D01*
X222845Y308433D01*
X222867Y308471D01*
X222888Y308515D01*
X222908Y308562D01*
X222927Y308613D01*
X222946Y308668D01*
X222959Y308725D01*
X223292Y308641D01*
Y308635D01*
X223287Y308622D01*
X223282Y308603D01*
X223271Y308573D01*
X223260Y308540D01*
X223243Y308499D01*
X223227Y308455D01*
X223205Y308409D01*
X223181Y308357D01*
X223153Y308308D01*
X223123Y308253D01*
X223088Y308201D01*
X223049Y308152D01*
X223009Y308103D01*
X222962Y308057D01*
X222913Y308013D01*
X222910Y308010D01*
X222899Y308005D01*
X222886Y307994D01*
X222864Y307980D01*
X222839Y307964D01*
X222807Y307945D01*
X222771Y307926D01*
X222727Y307906D01*
X222681Y307887D01*
X222632Y307868D01*
X222577Y307849D01*
X222517Y307833D01*
X222454Y307819D01*
X222389Y307808D01*
X222321Y307803D01*
X222247Y307800D01*
X222209D01*
X222179Y307803D01*
X222146Y307805D01*
X222105Y307808D01*
X222061Y307814D01*
X222012Y307822D01*
X221960Y307830D01*
X221906Y307841D01*
X221851Y307855D01*
X221796Y307868D01*
X221739Y307887D01*
X221685Y307909D01*
X221633Y307934D01*
X221584Y307964D01*
X221581Y307966D01*
X221573Y307972D01*
X221559Y307980D01*
X221543Y307994D01*
X221521Y308013D01*
X221496Y308032D01*
X221469Y308057D01*
X221439Y308087D01*
X221409Y308119D01*
X221376Y308155D01*
X221346Y308193D01*
X221313Y308237D01*
X221281Y308283D01*
X221251Y308332D01*
X221223Y308387D01*
X221196Y308444D01*
X221193Y308447D01*
X221190Y308458D01*
X221185Y308477D01*
X221177Y308499D01*
X221166Y308529D01*
X221155Y308562D01*
X221144Y308603D01*
X221130Y308646D01*
X221119Y308695D01*
X221106Y308747D01*
X221095Y308802D01*
X221087Y308862D01*
X221070Y308987D01*
X221068Y309053D01*
X221065Y309119D01*
Y309124D01*
Y309135D01*
Y309157D01*
X221068Y309184D01*
X221070Y309220D01*
X221073Y309261D01*
X221078Y309304D01*
X221084Y309353D01*
X221092Y309405D01*
X221100Y309460D01*
X221128Y309577D01*
X221147Y309634D01*
X221166Y309692D01*
X221188Y309752D01*
X221215Y309806D01*
X221218Y309809D01*
X221223Y309820D01*
X221231Y309834D01*
X221242Y309856D01*
X221259Y309880D01*
X221278Y309908D01*
X221300Y309938D01*
X221324Y309973D01*
X221354Y310006D01*
X221384Y310044D01*
X221420Y310080D01*
X221458Y310118D01*
X221499Y310153D01*
X221543Y310189D01*
X221592Y310222D01*
X221641Y310251D01*
X221644Y310254D01*
X221655Y310257D01*
X221668Y310265D01*
X221690Y310276D01*
X221715Y310287D01*
X221747Y310301D01*
X221783Y310314D01*
X221821Y310328D01*
X221865Y310342D01*
X221914Y310355D01*
X221963Y310369D01*
X222018Y310380D01*
X222130Y310399D01*
X222190Y310402D01*
X222252Y310404D01*
X222288D01*
X222315Y310402D01*
D02*
G37*
G36*
X224742Y307841D02*
X224434D01*
Y309809D01*
X224428Y309804D01*
X224415Y309790D01*
X224390Y309771D01*
X224355Y309744D01*
X224313Y309711D01*
X224262Y309676D01*
X224204Y309637D01*
X224139Y309596D01*
X224136D01*
X224131Y309591D01*
X224122Y309585D01*
X224109Y309580D01*
X224092Y309569D01*
X224073Y309561D01*
X224030Y309536D01*
X223980Y309512D01*
X223926Y309484D01*
X223869Y309460D01*
X223814Y309438D01*
Y309735D01*
X223817Y309738D01*
X223825Y309741D01*
X223838Y309749D01*
X223858Y309757D01*
X223880Y309768D01*
X223907Y309785D01*
X223937Y309801D01*
X223967Y309817D01*
X224038Y309861D01*
X224114Y309913D01*
X224193Y309968D01*
X224267Y310030D01*
X224270Y310033D01*
X224275Y310038D01*
X224286Y310047D01*
X224300Y310060D01*
X224313Y310077D01*
X224333Y310093D01*
X224374Y310140D01*
X224420Y310189D01*
X224466Y310246D01*
X224507Y310306D01*
X224543Y310369D01*
X224742D01*
Y307841D01*
D02*
G37*
G36*
X254612Y289802D02*
X254645Y289799D01*
X254683Y289793D01*
X254724Y289788D01*
X254771Y289780D01*
X254820Y289769D01*
X254872Y289758D01*
X254924Y289742D01*
X254978Y289722D01*
X255033Y289701D01*
X255085Y289673D01*
X255137Y289646D01*
X255186Y289611D01*
X255188Y289608D01*
X255197Y289602D01*
X255210Y289591D01*
X255227Y289575D01*
X255249Y289556D01*
X255273Y289531D01*
X255298Y289504D01*
X255328Y289471D01*
X255358Y289436D01*
X255388Y289395D01*
X255418Y289351D01*
X255445Y289302D01*
X255475Y289250D01*
X255500Y289193D01*
X255524Y289133D01*
X255546Y289070D01*
X255219Y288994D01*
Y288996D01*
X255213Y289004D01*
X255210Y289021D01*
X255202Y289040D01*
X255194Y289062D01*
X255180Y289086D01*
X255153Y289146D01*
X255118Y289212D01*
X255071Y289280D01*
X255022Y289343D01*
X254992Y289370D01*
X254962Y289395D01*
X254959Y289398D01*
X254954Y289400D01*
X254946Y289406D01*
X254932Y289414D01*
X254915Y289425D01*
X254896Y289436D01*
X254875Y289447D01*
X254847Y289458D01*
X254817Y289469D01*
X254787Y289479D01*
X254716Y289501D01*
X254634Y289515D01*
X254591Y289521D01*
X254517D01*
X254495Y289518D01*
X254470Y289515D01*
X254440Y289512D01*
X254408Y289510D01*
X254375Y289504D01*
X254296Y289485D01*
X254214Y289460D01*
X254173Y289444D01*
X254132Y289425D01*
X254094Y289403D01*
X254056Y289378D01*
X254053Y289376D01*
X254047Y289373D01*
X254036Y289365D01*
X254023Y289354D01*
X254009Y289340D01*
X253990Y289321D01*
X253971Y289302D01*
X253949Y289280D01*
X253927Y289253D01*
X253903Y289226D01*
X253859Y289163D01*
X253818Y289089D01*
X253783Y289004D01*
Y289002D01*
X253780Y288994D01*
X253774Y288980D01*
X253772Y288964D01*
X253766Y288942D01*
X253758Y288917D01*
X253753Y288887D01*
X253744Y288857D01*
X253736Y288822D01*
X253731Y288783D01*
X253717Y288702D01*
X253709Y288614D01*
X253706Y288521D01*
Y288519D01*
Y288508D01*
Y288491D01*
X253709Y288467D01*
Y288439D01*
X253712Y288407D01*
X253714Y288371D01*
X253717Y288330D01*
X253723Y288286D01*
X253728Y288243D01*
X253744Y288147D01*
X253769Y288052D01*
X253799Y287959D01*
Y287956D01*
X253804Y287948D01*
X253810Y287937D01*
X253815Y287921D01*
X253826Y287899D01*
X253840Y287877D01*
X253870Y287825D01*
X253911Y287765D01*
X253960Y287708D01*
X254020Y287650D01*
X254053Y287626D01*
X254088Y287601D01*
X254091D01*
X254097Y287596D01*
X254107Y287590D01*
X254124Y287582D01*
X254143Y287574D01*
X254165Y287563D01*
X254189Y287555D01*
X254217Y287544D01*
X254279Y287522D01*
X254353Y287503D01*
X254432Y287489D01*
X254473Y287487D01*
X254517Y287484D01*
X254544D01*
X254563Y287487D01*
X254588Y287489D01*
X254615Y287492D01*
X254648Y287497D01*
X254681Y287503D01*
X254757Y287522D01*
X254795Y287536D01*
X254836Y287552D01*
X254877Y287571D01*
X254915Y287593D01*
X254954Y287618D01*
X254992Y287645D01*
X254995Y287648D01*
X255000Y287653D01*
X255011Y287661D01*
X255025Y287675D01*
X255038Y287691D01*
X255058Y287713D01*
X255077Y287738D01*
X255098Y287765D01*
X255120Y287798D01*
X255142Y287833D01*
X255164Y287872D01*
X255186Y287915D01*
X255205Y287962D01*
X255224Y288014D01*
X255243Y288068D01*
X255257Y288125D01*
X255590Y288041D01*
Y288035D01*
X255584Y288022D01*
X255579Y288003D01*
X255568Y287973D01*
X255557Y287940D01*
X255541Y287899D01*
X255524Y287855D01*
X255503Y287809D01*
X255478Y287757D01*
X255451Y287708D01*
X255421Y287653D01*
X255385Y287601D01*
X255347Y287552D01*
X255306Y287503D01*
X255259Y287457D01*
X255210Y287413D01*
X255208Y287410D01*
X255197Y287405D01*
X255183Y287394D01*
X255161Y287380D01*
X255137Y287364D01*
X255104Y287345D01*
X255068Y287326D01*
X255025Y287306D01*
X254978Y287287D01*
X254929Y287268D01*
X254875Y287249D01*
X254815Y287233D01*
X254752Y287219D01*
X254686Y287208D01*
X254618Y287203D01*
X254544Y287200D01*
X254506D01*
X254476Y287203D01*
X254443Y287205D01*
X254402Y287208D01*
X254359Y287214D01*
X254310Y287222D01*
X254258Y287230D01*
X254203Y287241D01*
X254148Y287255D01*
X254094Y287268D01*
X254036Y287287D01*
X253982Y287309D01*
X253930Y287334D01*
X253881Y287364D01*
X253878Y287367D01*
X253870Y287372D01*
X253856Y287380D01*
X253840Y287394D01*
X253818Y287413D01*
X253794Y287432D01*
X253766Y287457D01*
X253736Y287487D01*
X253706Y287519D01*
X253673Y287555D01*
X253643Y287593D01*
X253611Y287637D01*
X253578Y287683D01*
X253548Y287732D01*
X253520Y287787D01*
X253493Y287844D01*
X253490Y287847D01*
X253488Y287858D01*
X253482Y287877D01*
X253474Y287899D01*
X253463Y287929D01*
X253452Y287962D01*
X253441Y288003D01*
X253428Y288046D01*
X253417Y288095D01*
X253403Y288147D01*
X253392Y288202D01*
X253384Y288262D01*
X253368Y288387D01*
X253365Y288453D01*
X253362Y288519D01*
Y288524D01*
Y288535D01*
Y288557D01*
X253365Y288584D01*
X253368Y288620D01*
X253370Y288661D01*
X253376Y288704D01*
X253381Y288753D01*
X253390Y288805D01*
X253398Y288860D01*
X253425Y288977D01*
X253444Y289035D01*
X253463Y289092D01*
X253485Y289152D01*
X253512Y289207D01*
X253515Y289209D01*
X253520Y289220D01*
X253529Y289234D01*
X253540Y289256D01*
X253556Y289280D01*
X253575Y289307D01*
X253597Y289338D01*
X253622Y289373D01*
X253651Y289406D01*
X253682Y289444D01*
X253717Y289479D01*
X253755Y289518D01*
X253796Y289553D01*
X253840Y289589D01*
X253889Y289621D01*
X253938Y289651D01*
X253941Y289654D01*
X253952Y289657D01*
X253965Y289665D01*
X253987Y289676D01*
X254012Y289687D01*
X254045Y289701D01*
X254080Y289714D01*
X254118Y289728D01*
X254162Y289742D01*
X254211Y289755D01*
X254260Y289769D01*
X254315Y289780D01*
X254427Y289799D01*
X254487Y289802D01*
X254550Y289804D01*
X254585D01*
X254612Y289802D01*
D02*
G37*
G36*
X257039Y287241D02*
X256731D01*
Y289209D01*
X256726Y289204D01*
X256712Y289190D01*
X256687Y289171D01*
X256652Y289144D01*
X256611Y289111D01*
X256559Y289075D01*
X256502Y289037D01*
X256436Y288996D01*
X256433D01*
X256428Y288991D01*
X256420Y288985D01*
X256406Y288980D01*
X256390Y288969D01*
X256371Y288961D01*
X256327Y288936D01*
X256278Y288912D01*
X256223Y288884D01*
X256166Y288860D01*
X256111Y288838D01*
Y289136D01*
X256114Y289138D01*
X256122Y289141D01*
X256136Y289149D01*
X256155Y289157D01*
X256177Y289168D01*
X256204Y289185D01*
X256234Y289201D01*
X256264Y289217D01*
X256335Y289261D01*
X256412Y289313D01*
X256491Y289368D01*
X256564Y289430D01*
X256567Y289433D01*
X256573Y289439D01*
X256584Y289447D01*
X256597Y289460D01*
X256611Y289477D01*
X256630Y289493D01*
X256671Y289540D01*
X256717Y289589D01*
X256764Y289646D01*
X256805Y289706D01*
X256840Y289769D01*
X257039D01*
Y287241D01*
D02*
G37*
G36*
X214686Y274797D02*
X214719Y274795D01*
X214760Y274792D01*
X214804Y274786D01*
X214853Y274778D01*
X214905Y274770D01*
X214959Y274759D01*
X215014Y274745D01*
X215068Y274732D01*
X215126Y274713D01*
X215180Y274691D01*
X215232Y274666D01*
X215281Y274636D01*
X215284Y274634D01*
X215292Y274628D01*
X215306Y274620D01*
X215322Y274606D01*
X215344Y274587D01*
X215369Y274568D01*
X215396Y274543D01*
X215426Y274513D01*
X215456Y274481D01*
X215489Y274445D01*
X215519Y274407D01*
X215552Y274363D01*
X215584Y274317D01*
X215614Y274268D01*
X215642Y274213D01*
X215669Y274156D01*
X215672Y274153D01*
X215674Y274142D01*
X215680Y274123D01*
X215688Y274101D01*
X215699Y274071D01*
X215710Y274038D01*
X215721Y273997D01*
X215735Y273954D01*
X215745Y273905D01*
X215759Y273853D01*
X215770Y273798D01*
X215778Y273738D01*
X215795Y273612D01*
X215797Y273547D01*
X215800Y273481D01*
Y273476D01*
Y273465D01*
Y273443D01*
X215797Y273416D01*
X215795Y273380D01*
X215792Y273340D01*
X215786Y273296D01*
X215781Y273247D01*
X215773Y273195D01*
X215764Y273140D01*
X215737Y273023D01*
X215718Y272966D01*
X215699Y272908D01*
X215677Y272848D01*
X215650Y272794D01*
X215647Y272791D01*
X215642Y272780D01*
X215634Y272766D01*
X215623Y272744D01*
X215606Y272720D01*
X215587Y272692D01*
X215565Y272662D01*
X215541Y272627D01*
X215511Y272594D01*
X215481Y272556D01*
X215445Y272520D01*
X215407Y272482D01*
X215366Y272447D01*
X215322Y272411D01*
X215273Y272378D01*
X215224Y272348D01*
X215221Y272346D01*
X215210Y272343D01*
X215197Y272335D01*
X215175Y272324D01*
X215150Y272313D01*
X215118Y272299D01*
X215082Y272286D01*
X215044Y272272D01*
X215000Y272258D01*
X214951Y272245D01*
X214902Y272231D01*
X214847Y272220D01*
X214735Y272201D01*
X214675Y272198D01*
X214613Y272196D01*
X214577D01*
X214550Y272198D01*
X214517Y272201D01*
X214479Y272206D01*
X214438Y272212D01*
X214391Y272220D01*
X214342Y272231D01*
X214290Y272242D01*
X214239Y272258D01*
X214184Y272277D01*
X214129Y272299D01*
X214077Y272327D01*
X214025Y272354D01*
X213976Y272389D01*
X213974Y272392D01*
X213966Y272398D01*
X213952Y272409D01*
X213935Y272425D01*
X213914Y272444D01*
X213889Y272469D01*
X213864Y272496D01*
X213834Y272529D01*
X213804Y272564D01*
X213774Y272605D01*
X213744Y272649D01*
X213717Y272698D01*
X213687Y272750D01*
X213662Y272807D01*
X213638Y272867D01*
X213616Y272930D01*
X213944Y273006D01*
Y273004D01*
X213949Y272995D01*
X213952Y272979D01*
X213960Y272960D01*
X213968Y272938D01*
X213982Y272914D01*
X214009Y272853D01*
X214045Y272788D01*
X214091Y272720D01*
X214140Y272657D01*
X214170Y272630D01*
X214200Y272605D01*
X214203Y272602D01*
X214208Y272600D01*
X214217Y272594D01*
X214230Y272586D01*
X214247Y272575D01*
X214266Y272564D01*
X214288Y272553D01*
X214315Y272542D01*
X214345Y272531D01*
X214375Y272520D01*
X214446Y272499D01*
X214528Y272485D01*
X214571Y272480D01*
X214645D01*
X214667Y272482D01*
X214692Y272485D01*
X214722Y272488D01*
X214754Y272491D01*
X214787Y272496D01*
X214866Y272515D01*
X214948Y272540D01*
X214989Y272556D01*
X215030Y272575D01*
X215068Y272597D01*
X215107Y272621D01*
X215109Y272624D01*
X215115Y272627D01*
X215126Y272635D01*
X215139Y272646D01*
X215153Y272660D01*
X215172Y272679D01*
X215191Y272698D01*
X215213Y272720D01*
X215235Y272747D01*
X215260Y272774D01*
X215303Y272837D01*
X215344Y272911D01*
X215380Y272995D01*
Y272998D01*
X215382Y273006D01*
X215388Y273020D01*
X215390Y273037D01*
X215396Y273058D01*
X215404Y273083D01*
X215410Y273113D01*
X215418Y273143D01*
X215426Y273178D01*
X215431Y273217D01*
X215445Y273299D01*
X215453Y273386D01*
X215456Y273479D01*
Y273481D01*
Y273492D01*
Y273509D01*
X215453Y273533D01*
Y273561D01*
X215451Y273593D01*
X215448Y273629D01*
X215445Y273670D01*
X215440Y273713D01*
X215434Y273757D01*
X215418Y273853D01*
X215393Y273948D01*
X215363Y274041D01*
Y274044D01*
X215358Y274052D01*
X215352Y274063D01*
X215347Y274079D01*
X215336Y274101D01*
X215322Y274123D01*
X215292Y274175D01*
X215251Y274235D01*
X215202Y274292D01*
X215142Y274350D01*
X215109Y274374D01*
X215074Y274399D01*
X215071D01*
X215066Y274404D01*
X215055Y274410D01*
X215038Y274418D01*
X215019Y274426D01*
X214997Y274437D01*
X214973Y274445D01*
X214946Y274456D01*
X214883Y274478D01*
X214809Y274497D01*
X214730Y274511D01*
X214689Y274513D01*
X214645Y274516D01*
X214618D01*
X214599Y274513D01*
X214574Y274511D01*
X214547Y274508D01*
X214514Y274502D01*
X214481Y274497D01*
X214405Y274478D01*
X214367Y274464D01*
X214326Y274448D01*
X214285Y274429D01*
X214247Y274407D01*
X214208Y274382D01*
X214170Y274355D01*
X214167Y274352D01*
X214162Y274347D01*
X214151Y274339D01*
X214138Y274325D01*
X214124Y274309D01*
X214105Y274287D01*
X214086Y274262D01*
X214064Y274235D01*
X214042Y274202D01*
X214020Y274167D01*
X213998Y274129D01*
X213976Y274085D01*
X213957Y274038D01*
X213938Y273987D01*
X213919Y273932D01*
X213905Y273875D01*
X213572Y273959D01*
Y273965D01*
X213578Y273978D01*
X213583Y273997D01*
X213594Y274027D01*
X213605Y274060D01*
X213621Y274101D01*
X213638Y274145D01*
X213660Y274191D01*
X213684Y274243D01*
X213712Y274292D01*
X213742Y274347D01*
X213777Y274399D01*
X213815Y274448D01*
X213856Y274497D01*
X213903Y274543D01*
X213952Y274587D01*
X213955Y274590D01*
X213966Y274595D01*
X213979Y274606D01*
X214001Y274620D01*
X214025Y274636D01*
X214058Y274655D01*
X214094Y274674D01*
X214138Y274694D01*
X214184Y274713D01*
X214233Y274732D01*
X214288Y274751D01*
X214348Y274767D01*
X214410Y274781D01*
X214476Y274792D01*
X214544Y274797D01*
X214618Y274800D01*
X214656D01*
X214686Y274797D01*
D02*
G37*
G36*
X213329Y274754D02*
Y274740D01*
Y274718D01*
X213327Y274691D01*
X213324Y274658D01*
X213316Y274623D01*
X213307Y274584D01*
X213294Y274546D01*
Y274543D01*
X213291Y274538D01*
X213288Y274530D01*
X213283Y274516D01*
X213275Y274502D01*
X213267Y274483D01*
X213245Y274440D01*
X213217Y274388D01*
X213182Y274330D01*
X213141Y274270D01*
X213092Y274210D01*
X213089Y274208D01*
X213086Y274202D01*
X213078Y274194D01*
X213065Y274180D01*
X213051Y274167D01*
X213032Y274148D01*
X213013Y274126D01*
X212988Y274101D01*
X212961Y274074D01*
X212931Y274046D01*
X212898Y274014D01*
X212860Y273981D01*
X212822Y273945D01*
X212778Y273910D01*
X212734Y273872D01*
X212685Y273831D01*
X212680Y273828D01*
X212666Y273815D01*
X212647Y273798D01*
X212620Y273774D01*
X212587Y273746D01*
X212549Y273713D01*
X212505Y273678D01*
X212461Y273637D01*
X212368Y273552D01*
X212278Y273462D01*
X212235Y273419D01*
X212194Y273375D01*
X212158Y273334D01*
X212128Y273296D01*
X212125Y273293D01*
X212123Y273288D01*
X212115Y273277D01*
X212106Y273263D01*
X212093Y273244D01*
X212082Y273225D01*
X212054Y273176D01*
X212027Y273118D01*
X212003Y273056D01*
X211986Y272990D01*
X211983Y272957D01*
X211981Y272924D01*
Y272922D01*
Y272916D01*
Y272905D01*
X211983Y272895D01*
Y272878D01*
X211989Y272859D01*
X211997Y272818D01*
X212014Y272769D01*
X212038Y272717D01*
X212052Y272690D01*
X212071Y272665D01*
X212090Y272641D01*
X212115Y272616D01*
X212117Y272613D01*
X212120Y272611D01*
X212128Y272605D01*
X212139Y272597D01*
X212153Y272586D01*
X212169Y272575D01*
X212207Y272551D01*
X212259Y272529D01*
X212317Y272507D01*
X212385Y272493D01*
X212423Y272488D01*
X212483D01*
X212499Y272491D01*
X212519D01*
X212540Y272496D01*
X212590Y272504D01*
X212647Y272520D01*
X212707Y272545D01*
X212737Y272561D01*
X212767Y272578D01*
X212794Y272600D01*
X212822Y272624D01*
X212824Y272627D01*
X212827Y272630D01*
X212832Y272638D01*
X212843Y272649D01*
X212852Y272662D01*
X212863Y272679D01*
X212876Y272698D01*
X212887Y272720D01*
X212901Y272744D01*
X212912Y272772D01*
X212933Y272837D01*
X212950Y272908D01*
X212953Y272949D01*
X212955Y272993D01*
X213272Y272960D01*
Y272955D01*
X213269Y272944D01*
X213267Y272927D01*
X213264Y272903D01*
X213258Y272873D01*
X213250Y272837D01*
X213242Y272799D01*
X213228Y272758D01*
X213215Y272717D01*
X213198Y272671D01*
X213176Y272627D01*
X213155Y272583D01*
X213127Y272537D01*
X213097Y272496D01*
X213065Y272455D01*
X213026Y272420D01*
X213024Y272417D01*
X213015Y272411D01*
X213004Y272403D01*
X212988Y272389D01*
X212966Y272376D01*
X212939Y272359D01*
X212909Y272343D01*
X212874Y272324D01*
X212835Y272307D01*
X212792Y272291D01*
X212745Y272275D01*
X212693Y272261D01*
X212639Y272248D01*
X212581Y272239D01*
X212519Y272234D01*
X212453Y272231D01*
X212418D01*
X212393Y272234D01*
X212363Y272237D01*
X212328Y272242D01*
X212286Y272248D01*
X212246Y272256D01*
X212199Y272267D01*
X212153Y272280D01*
X212104Y272297D01*
X212057Y272316D01*
X212008Y272340D01*
X211962Y272368D01*
X211918Y272398D01*
X211877Y272433D01*
X211874Y272436D01*
X211869Y272441D01*
X211858Y272455D01*
X211844Y272469D01*
X211828Y272488D01*
X211809Y272512D01*
X211790Y272540D01*
X211771Y272572D01*
X211751Y272605D01*
X211732Y272643D01*
X211713Y272684D01*
X211697Y272728D01*
X211683Y272777D01*
X211672Y272826D01*
X211667Y272878D01*
X211664Y272933D01*
Y272935D01*
Y272938D01*
Y272946D01*
Y272957D01*
X211667Y272987D01*
X211672Y273025D01*
X211681Y273072D01*
X211691Y273121D01*
X211705Y273176D01*
X211727Y273230D01*
Y273233D01*
X211730Y273236D01*
X211732Y273244D01*
X211738Y273255D01*
X211754Y273285D01*
X211776Y273323D01*
X211806Y273370D01*
X211842Y273421D01*
X211882Y273476D01*
X211934Y273536D01*
X211937Y273539D01*
X211940Y273544D01*
X211951Y273552D01*
X211962Y273566D01*
X211978Y273583D01*
X211997Y273602D01*
X212019Y273626D01*
X212046Y273651D01*
X212079Y273681D01*
X212115Y273713D01*
X212153Y273752D01*
X212196Y273790D01*
X212243Y273834D01*
X212295Y273877D01*
X212352Y273926D01*
X212412Y273978D01*
X212415Y273981D01*
X212423Y273989D01*
X212439Y274000D01*
X212456Y274016D01*
X212480Y274036D01*
X212505Y274058D01*
X212562Y274107D01*
X212622Y274159D01*
X212680Y274213D01*
X212707Y274238D01*
X212732Y274259D01*
X212753Y274281D01*
X212770Y274298D01*
X212772Y274300D01*
X212783Y274311D01*
X212797Y274328D01*
X212816Y274350D01*
X212838Y274374D01*
X212860Y274401D01*
X212903Y274462D01*
X211661D01*
Y274759D01*
X213329D01*
Y274754D01*
D02*
G37*
G36*
X220147Y299959D02*
X220168D01*
X220198Y299954D01*
X220231Y299949D01*
X220267Y299943D01*
X220308Y299932D01*
X220351Y299919D01*
X220395Y299902D01*
X220441Y299883D01*
X220488Y299858D01*
X220537Y299831D01*
X220583Y299798D01*
X220630Y299763D01*
X220673Y299719D01*
X220676Y299716D01*
X220684Y299708D01*
X220695Y299695D01*
X220709Y299676D01*
X220725Y299654D01*
X220744Y299624D01*
X220766Y299591D01*
X220785Y299553D01*
X220807Y299512D01*
X220829Y299465D01*
X220848Y299416D01*
X220865Y299362D01*
X220878Y299304D01*
X220889Y299244D01*
X220897Y299181D01*
X220900Y299113D01*
Y299099D01*
X220897Y299080D01*
Y299059D01*
X220895Y299028D01*
X220889Y298996D01*
X220884Y298960D01*
X220876Y298919D01*
X220865Y298876D01*
X220851Y298832D01*
X220837Y298786D01*
X220818Y298739D01*
X220794Y298693D01*
X220769Y298649D01*
X220739Y298603D01*
X220704Y298562D01*
X220701Y298559D01*
X220695Y298553D01*
X220684Y298543D01*
X220668Y298526D01*
X220649Y298510D01*
X220624Y298491D01*
X220597Y298472D01*
X220564Y298450D01*
X220532Y298428D01*
X220491Y298406D01*
X220450Y298384D01*
X220403Y298365D01*
X220354Y298349D01*
X220302Y298332D01*
X220248Y298322D01*
X220190Y298313D01*
X220149Y298622D01*
X220152D01*
X220160Y298624D01*
X220174Y298627D01*
X220193Y298633D01*
X220215Y298638D01*
X220239Y298644D01*
X220297Y298663D01*
X220359Y298687D01*
X220422Y298717D01*
X220480Y298756D01*
X220504Y298777D01*
X220529Y298799D01*
Y298802D01*
X220534Y298805D01*
X220540Y298813D01*
X220548Y298821D01*
X220564Y298848D01*
X220586Y298887D01*
X220608Y298933D01*
X220624Y298985D01*
X220638Y299048D01*
X220643Y299113D01*
Y299135D01*
X220641Y299151D01*
X220638Y299168D01*
X220635Y299192D01*
X220624Y299241D01*
X220608Y299302D01*
X220581Y299364D01*
X220562Y299394D01*
X220542Y299424D01*
X220521Y299454D01*
X220493Y299484D01*
X220491Y299487D01*
X220485Y299490D01*
X220477Y299498D01*
X220466Y299509D01*
X220452Y299520D01*
X220433Y299531D01*
X220414Y299545D01*
X220390Y299561D01*
X220335Y299588D01*
X220272Y299610D01*
X220198Y299629D01*
X220160Y299632D01*
X220119Y299635D01*
X220116D01*
X220111D01*
X220097D01*
X220084Y299632D01*
X220065Y299629D01*
X220046Y299626D01*
X219996Y299618D01*
X219939Y299599D01*
X219882Y299574D01*
X219852Y299558D01*
X219824Y299539D01*
X219797Y299517D01*
X219770Y299493D01*
X219767Y299490D01*
X219764Y299487D01*
X219756Y299479D01*
X219748Y299468D01*
X219737Y299454D01*
X219726Y299438D01*
X219699Y299397D01*
X219674Y299345D01*
X219652Y299285D01*
X219636Y299217D01*
X219633Y299179D01*
X219631Y299141D01*
Y299124D01*
X219633Y299105D01*
Y299080D01*
X219639Y299048D01*
X219644Y299012D01*
X219652Y298969D01*
X219663Y298922D01*
X219393Y298955D01*
Y298960D01*
X219396Y298974D01*
X219398Y298990D01*
Y299026D01*
X219396Y299040D01*
Y299059D01*
X219393Y299078D01*
X219385Y299124D01*
X219374Y299179D01*
X219355Y299239D01*
X219330Y299302D01*
X219295Y299362D01*
Y299364D01*
X219289Y299370D01*
X219284Y299375D01*
X219276Y299386D01*
X219251Y299413D01*
X219216Y299444D01*
X219172Y299471D01*
X219117Y299498D01*
X219087Y299509D01*
X219052Y299515D01*
X219016Y299520D01*
X218978Y299523D01*
X218975D01*
X218970D01*
X218962D01*
X218948Y299520D01*
X218918Y299517D01*
X218877Y299509D01*
X218833Y299495D01*
X218787Y299474D01*
X218738Y299444D01*
X218716Y299427D01*
X218694Y299405D01*
X218689Y299400D01*
X218678Y299383D01*
X218659Y299359D01*
X218637Y299326D01*
X218618Y299282D01*
X218599Y299231D01*
X218588Y299173D01*
X218582Y299108D01*
Y299091D01*
X218585Y299078D01*
Y299061D01*
X218588Y299045D01*
X218596Y299001D01*
X218610Y298955D01*
X218631Y298903D01*
X218659Y298854D01*
X218697Y298805D01*
X218702Y298799D01*
X218719Y298786D01*
X218743Y298764D01*
X218782Y298742D01*
X218828Y298715D01*
X218888Y298690D01*
X218956Y298668D01*
X219035Y298652D01*
X218981Y298343D01*
X218978D01*
X218967Y298346D01*
X218951Y298349D01*
X218929Y298354D01*
X218904Y298362D01*
X218874Y298371D01*
X218842Y298381D01*
X218806Y298395D01*
X218727Y298431D01*
X218689Y298450D01*
X218648Y298474D01*
X218610Y298502D01*
X218571Y298532D01*
X218533Y298564D01*
X218500Y298600D01*
X218498Y298603D01*
X218492Y298608D01*
X218484Y298622D01*
X218473Y298635D01*
X218459Y298657D01*
X218446Y298679D01*
X218429Y298706D01*
X218413Y298739D01*
X218399Y298772D01*
X218383Y298810D01*
X218369Y298851D01*
X218356Y298895D01*
X218345Y298944D01*
X218337Y298993D01*
X218331Y299045D01*
X218328Y299099D01*
Y299135D01*
X218331Y299154D01*
X218334Y299173D01*
X218339Y299225D01*
X218350Y299282D01*
X218367Y299348D01*
X218388Y299413D01*
X218419Y299479D01*
Y299482D01*
X218421Y299487D01*
X218427Y299495D01*
X218435Y299509D01*
X218454Y299539D01*
X218481Y299577D01*
X218517Y299621D01*
X218558Y299665D01*
X218604Y299708D01*
X218659Y299746D01*
X218661D01*
X218664Y299749D01*
X218675Y299755D01*
X218686Y299760D01*
X218700Y299768D01*
X218716Y299777D01*
X218757Y299793D01*
X218806Y299809D01*
X218861Y299826D01*
X218921Y299837D01*
X218984Y299839D01*
X218986D01*
X218992D01*
X219000D01*
X219011D01*
X219044Y299834D01*
X219082Y299828D01*
X219128Y299817D01*
X219177Y299801D01*
X219229Y299779D01*
X219281Y299749D01*
X219284D01*
X219287Y299746D01*
X219303Y299733D01*
X219328Y299714D01*
X219358Y299684D01*
X219393Y299648D01*
X219429Y299602D01*
X219461Y299550D01*
X219494Y299490D01*
Y299493D01*
X219497Y299501D01*
X219499Y299512D01*
X219505Y299528D01*
X219511Y299545D01*
X219519Y299566D01*
X219541Y299618D01*
X219570Y299673D01*
X219606Y299730D01*
X219652Y299787D01*
X219710Y299837D01*
X219712Y299839D01*
X219718Y299842D01*
X219726Y299848D01*
X219740Y299856D01*
X219753Y299867D01*
X219773Y299878D01*
X219794Y299888D01*
X219822Y299899D01*
X219849Y299910D01*
X219879Y299921D01*
X219947Y299943D01*
X220026Y299957D01*
X220070Y299962D01*
X220114D01*
X220116D01*
X220127D01*
X220147Y299959D01*
D02*
G37*
G36*
X219887Y297879D02*
X219923Y297877D01*
X219964Y297874D01*
X220010Y297871D01*
X220106Y297860D01*
X220207Y297847D01*
X220305Y297825D01*
X220351Y297811D01*
X220395Y297795D01*
X220398D01*
X220406Y297792D01*
X220417Y297786D01*
X220433Y297778D01*
X220452Y297767D01*
X220474Y297756D01*
X220523Y297724D01*
X220553Y297705D01*
X220581Y297683D01*
X220613Y297655D01*
X220643Y297628D01*
X220673Y297595D01*
X220704Y297563D01*
X220731Y297524D01*
X220758Y297483D01*
X220761Y297481D01*
X220763Y297472D01*
X220772Y297462D01*
X220780Y297442D01*
X220791Y297421D01*
X220802Y297393D01*
X220815Y297363D01*
X220826Y297325D01*
X220840Y297287D01*
X220854Y297243D01*
X220865Y297194D01*
X220876Y297142D01*
X220884Y297085D01*
X220892Y297025D01*
X220895Y296962D01*
X220897Y296896D01*
Y296861D01*
X220895Y296836D01*
Y296806D01*
X220892Y296774D01*
X220886Y296733D01*
X220881Y296692D01*
X220867Y296599D01*
X220845Y296501D01*
X220815Y296405D01*
X220799Y296359D01*
X220777Y296315D01*
X220775Y296312D01*
X220772Y296304D01*
X220763Y296293D01*
X220755Y296279D01*
X220742Y296260D01*
X220725Y296238D01*
X220709Y296217D01*
X220687Y296192D01*
X220638Y296137D01*
X220578Y296086D01*
X220507Y296037D01*
X220466Y296015D01*
X220425Y295995D01*
X220422D01*
X220414Y295993D01*
X220401Y295987D01*
X220381Y295982D01*
X220359Y295974D01*
X220329Y295966D01*
X220297Y295957D01*
X220258Y295949D01*
X220215Y295938D01*
X220168Y295930D01*
X220116Y295922D01*
X220059Y295916D01*
X219999Y295908D01*
X219934Y295905D01*
X219865Y295900D01*
X219792D01*
X218337D01*
Y296233D01*
X219792D01*
X219794D01*
X219805D01*
X219822D01*
X219846D01*
X219874Y296236D01*
X219904D01*
X219939Y296238D01*
X219975Y296241D01*
X220054Y296247D01*
X220133Y296258D01*
X220209Y296274D01*
X220245Y296282D01*
X220275Y296293D01*
X220278D01*
X220280Y296296D01*
X220288Y296299D01*
X220299Y296304D01*
X220329Y296320D01*
X220362Y296342D01*
X220403Y296370D01*
X220441Y296405D01*
X220480Y296449D01*
X220515Y296501D01*
Y296503D01*
X220518Y296509D01*
X220523Y296517D01*
X220529Y296528D01*
X220534Y296542D01*
X220540Y296561D01*
X220548Y296580D01*
X220556Y296602D01*
X220570Y296656D01*
X220583Y296719D01*
X220594Y296790D01*
X220597Y296866D01*
Y296902D01*
X220594Y296926D01*
X220592Y296956D01*
X220589Y296992D01*
X220583Y297030D01*
X220575Y297071D01*
X220556Y297156D01*
X220542Y297199D01*
X220526Y297243D01*
X220507Y297284D01*
X220485Y297322D01*
X220461Y297358D01*
X220430Y297391D01*
X220428Y297393D01*
X220422Y297399D01*
X220411Y297404D01*
X220398Y297415D01*
X220379Y297426D01*
X220354Y297440D01*
X220324Y297456D01*
X220288Y297470D01*
X220248Y297483D01*
X220201Y297500D01*
X220149Y297513D01*
X220092Y297524D01*
X220026Y297535D01*
X219955Y297543D01*
X219876Y297546D01*
X219792Y297549D01*
X218337D01*
Y297882D01*
X219792D01*
X219797D01*
X219808D01*
X219827D01*
X219854D01*
X219887Y297879D01*
D02*
G37*
G36*
X212519Y281597D02*
X212540D01*
X212570Y281595D01*
X212603Y281589D01*
X212639Y281584D01*
X212680Y281575D01*
X212723Y281565D01*
X212767Y281551D01*
X212813Y281537D01*
X212860Y281518D01*
X212906Y281494D01*
X212950Y281469D01*
X212996Y281439D01*
X213037Y281403D01*
X213040Y281401D01*
X213046Y281395D01*
X213056Y281384D01*
X213073Y281368D01*
X213089Y281349D01*
X213108Y281324D01*
X213127Y281297D01*
X213149Y281264D01*
X213171Y281231D01*
X213193Y281190D01*
X213215Y281150D01*
X213234Y281103D01*
X213250Y281054D01*
X213267Y281002D01*
X213278Y280948D01*
X213286Y280890D01*
X212977Y280849D01*
Y280852D01*
X212975Y280860D01*
X212972Y280874D01*
X212966Y280893D01*
X212961Y280915D01*
X212955Y280939D01*
X212936Y280997D01*
X212912Y281060D01*
X212882Y281122D01*
X212843Y281180D01*
X212822Y281204D01*
X212800Y281229D01*
X212797D01*
X212794Y281234D01*
X212786Y281240D01*
X212778Y281248D01*
X212751Y281264D01*
X212712Y281286D01*
X212666Y281308D01*
X212614Y281324D01*
X212551Y281338D01*
X212486Y281343D01*
X212464D01*
X212448Y281341D01*
X212431Y281338D01*
X212407Y281335D01*
X212357Y281324D01*
X212297Y281308D01*
X212235Y281281D01*
X212205Y281261D01*
X212175Y281242D01*
X212145Y281221D01*
X212115Y281193D01*
X212112Y281190D01*
X212109Y281185D01*
X212101Y281177D01*
X212090Y281166D01*
X212079Y281152D01*
X212068Y281133D01*
X212054Y281114D01*
X212038Y281089D01*
X212011Y281035D01*
X211989Y280972D01*
X211970Y280898D01*
X211967Y280860D01*
X211964Y280819D01*
Y280817D01*
Y280811D01*
Y280797D01*
X211967Y280784D01*
X211970Y280765D01*
X211973Y280746D01*
X211981Y280696D01*
X212000Y280639D01*
X212024Y280582D01*
X212041Y280552D01*
X212060Y280524D01*
X212082Y280497D01*
X212106Y280470D01*
X212109Y280467D01*
X212112Y280464D01*
X212120Y280456D01*
X212131Y280448D01*
X212145Y280437D01*
X212161Y280426D01*
X212202Y280399D01*
X212254Y280374D01*
X212314Y280352D01*
X212382Y280336D01*
X212420Y280333D01*
X212458Y280331D01*
X212475D01*
X212494Y280333D01*
X212519D01*
X212551Y280339D01*
X212587Y280344D01*
X212631Y280352D01*
X212677Y280363D01*
X212644Y280093D01*
X212639D01*
X212625Y280096D01*
X212609Y280099D01*
X212573D01*
X212560Y280096D01*
X212540D01*
X212521Y280093D01*
X212475Y280085D01*
X212420Y280074D01*
X212360Y280055D01*
X212297Y280030D01*
X212237Y279995D01*
X212235D01*
X212229Y279989D01*
X212224Y279984D01*
X212213Y279976D01*
X212186Y279951D01*
X212156Y279916D01*
X212128Y279872D01*
X212101Y279817D01*
X212090Y279787D01*
X212085Y279752D01*
X212079Y279716D01*
X212076Y279678D01*
Y279675D01*
Y279670D01*
Y279662D01*
X212079Y279648D01*
X212082Y279618D01*
X212090Y279577D01*
X212104Y279533D01*
X212125Y279487D01*
X212156Y279438D01*
X212172Y279416D01*
X212194Y279394D01*
X212199Y279389D01*
X212215Y279378D01*
X212240Y279359D01*
X212273Y279337D01*
X212317Y279318D01*
X212368Y279299D01*
X212426Y279288D01*
X212491Y279282D01*
X212508D01*
X212521Y279285D01*
X212538D01*
X212554Y279288D01*
X212598Y279296D01*
X212644Y279310D01*
X212696Y279331D01*
X212745Y279359D01*
X212794Y279397D01*
X212800Y279402D01*
X212813Y279419D01*
X212835Y279443D01*
X212857Y279482D01*
X212884Y279528D01*
X212909Y279588D01*
X212931Y279656D01*
X212947Y279735D01*
X213256Y279681D01*
Y279678D01*
X213253Y279667D01*
X213250Y279651D01*
X213245Y279629D01*
X213237Y279604D01*
X213228Y279574D01*
X213217Y279542D01*
X213204Y279506D01*
X213168Y279427D01*
X213149Y279389D01*
X213125Y279348D01*
X213097Y279310D01*
X213067Y279271D01*
X213035Y279233D01*
X212999Y279200D01*
X212996Y279198D01*
X212991Y279192D01*
X212977Y279184D01*
X212964Y279173D01*
X212942Y279159D01*
X212920Y279146D01*
X212893Y279129D01*
X212860Y279113D01*
X212827Y279099D01*
X212789Y279083D01*
X212748Y279069D01*
X212704Y279056D01*
X212655Y279045D01*
X212606Y279037D01*
X212554Y279031D01*
X212499Y279028D01*
X212464D01*
X212445Y279031D01*
X212426Y279034D01*
X212374Y279039D01*
X212317Y279050D01*
X212251Y279067D01*
X212186Y279088D01*
X212120Y279118D01*
X212117D01*
X212112Y279121D01*
X212104Y279127D01*
X212090Y279135D01*
X212060Y279154D01*
X212022Y279181D01*
X211978Y279217D01*
X211934Y279258D01*
X211891Y279304D01*
X211853Y279359D01*
Y279361D01*
X211850Y279364D01*
X211844Y279375D01*
X211839Y279386D01*
X211831Y279400D01*
X211822Y279416D01*
X211806Y279457D01*
X211790Y279506D01*
X211773Y279561D01*
X211762Y279621D01*
X211760Y279684D01*
Y279686D01*
Y279692D01*
Y279700D01*
Y279711D01*
X211765Y279744D01*
X211771Y279782D01*
X211782Y279828D01*
X211798Y279877D01*
X211820Y279929D01*
X211850Y279981D01*
Y279984D01*
X211853Y279987D01*
X211866Y280003D01*
X211885Y280028D01*
X211915Y280058D01*
X211951Y280093D01*
X211997Y280129D01*
X212049Y280161D01*
X212109Y280194D01*
X212106D01*
X212098Y280197D01*
X212087Y280200D01*
X212071Y280205D01*
X212054Y280210D01*
X212033Y280219D01*
X211981Y280241D01*
X211926Y280271D01*
X211869Y280306D01*
X211811Y280352D01*
X211762Y280410D01*
X211760Y280413D01*
X211757Y280418D01*
X211752Y280426D01*
X211743Y280440D01*
X211732Y280453D01*
X211721Y280473D01*
X211711Y280494D01*
X211700Y280522D01*
X211689Y280549D01*
X211678Y280579D01*
X211656Y280647D01*
X211642Y280726D01*
X211637Y280770D01*
Y280814D01*
Y280817D01*
Y280827D01*
X211639Y280847D01*
Y280868D01*
X211645Y280898D01*
X211650Y280931D01*
X211656Y280967D01*
X211667Y281008D01*
X211681Y281051D01*
X211697Y281095D01*
X211716Y281141D01*
X211740Y281188D01*
X211768Y281237D01*
X211801Y281283D01*
X211836Y281330D01*
X211880Y281374D01*
X211882Y281376D01*
X211891Y281384D01*
X211904Y281395D01*
X211923Y281409D01*
X211945Y281425D01*
X211975Y281444D01*
X212008Y281466D01*
X212046Y281485D01*
X212087Y281507D01*
X212134Y281529D01*
X212183Y281548D01*
X212237Y281565D01*
X212295Y281578D01*
X212355Y281589D01*
X212418Y281597D01*
X212486Y281600D01*
X212499D01*
X212519Y281597D01*
D02*
G37*
G36*
X214686Y281595D02*
X214719Y281592D01*
X214760Y281589D01*
X214804Y281584D01*
X214853Y281575D01*
X214905Y281567D01*
X214959Y281556D01*
X215014Y281543D01*
X215068Y281529D01*
X215126Y281510D01*
X215180Y281488D01*
X215232Y281464D01*
X215281Y281434D01*
X215284Y281431D01*
X215292Y281425D01*
X215306Y281417D01*
X215322Y281403D01*
X215344Y281384D01*
X215369Y281365D01*
X215396Y281341D01*
X215426Y281311D01*
X215456Y281278D01*
X215489Y281242D01*
X215519Y281204D01*
X215552Y281160D01*
X215584Y281114D01*
X215614Y281065D01*
X215642Y281010D01*
X215669Y280953D01*
X215672Y280950D01*
X215674Y280939D01*
X215680Y280920D01*
X215688Y280898D01*
X215699Y280868D01*
X215710Y280836D01*
X215721Y280795D01*
X215735Y280751D01*
X215745Y280702D01*
X215759Y280650D01*
X215770Y280595D01*
X215778Y280535D01*
X215795Y280410D01*
X215797Y280344D01*
X215800Y280279D01*
Y280273D01*
Y280262D01*
Y280241D01*
X215797Y280213D01*
X215795Y280178D01*
X215792Y280137D01*
X215786Y280093D01*
X215781Y280044D01*
X215773Y279992D01*
X215765Y279938D01*
X215737Y279820D01*
X215718Y279763D01*
X215699Y279705D01*
X215677Y279645D01*
X215650Y279591D01*
X215647Y279588D01*
X215642Y279577D01*
X215634Y279563D01*
X215623Y279542D01*
X215606Y279517D01*
X215587Y279490D01*
X215565Y279460D01*
X215541Y279424D01*
X215511Y279392D01*
X215481Y279353D01*
X215445Y279318D01*
X215407Y279279D01*
X215366Y279244D01*
X215322Y279209D01*
X215273Y279176D01*
X215224Y279146D01*
X215221Y279143D01*
X215210Y279140D01*
X215197Y279132D01*
X215175Y279121D01*
X215150Y279110D01*
X215118Y279097D01*
X215082Y279083D01*
X215044Y279069D01*
X215000Y279056D01*
X214951Y279042D01*
X214902Y279028D01*
X214847Y279017D01*
X214735Y278998D01*
X214675Y278996D01*
X214613Y278993D01*
X214577D01*
X214550Y278996D01*
X214517Y278998D01*
X214479Y279004D01*
X214438Y279009D01*
X214391Y279017D01*
X214342Y279028D01*
X214290Y279039D01*
X214239Y279056D01*
X214184Y279075D01*
X214129Y279097D01*
X214077Y279124D01*
X214025Y279151D01*
X213976Y279187D01*
X213974Y279189D01*
X213966Y279195D01*
X213952Y279206D01*
X213935Y279222D01*
X213914Y279241D01*
X213889Y279266D01*
X213864Y279293D01*
X213834Y279326D01*
X213804Y279361D01*
X213774Y279402D01*
X213744Y279446D01*
X213717Y279495D01*
X213687Y279547D01*
X213662Y279604D01*
X213638Y279664D01*
X213616Y279727D01*
X213944Y279804D01*
Y279801D01*
X213949Y279793D01*
X213952Y279776D01*
X213960Y279757D01*
X213968Y279735D01*
X213982Y279711D01*
X214009Y279651D01*
X214045Y279585D01*
X214091Y279517D01*
X214140Y279454D01*
X214170Y279427D01*
X214200Y279402D01*
X214203Y279400D01*
X214208Y279397D01*
X214217Y279392D01*
X214230Y279383D01*
X214247Y279372D01*
X214266Y279361D01*
X214288Y279350D01*
X214315Y279340D01*
X214345Y279329D01*
X214375Y279318D01*
X214446Y279296D01*
X214528Y279282D01*
X214571Y279277D01*
X214645D01*
X214667Y279279D01*
X214692Y279282D01*
X214722Y279285D01*
X214754Y279288D01*
X214787Y279293D01*
X214866Y279312D01*
X214948Y279337D01*
X214989Y279353D01*
X215030Y279372D01*
X215068Y279394D01*
X215107Y279419D01*
X215109Y279421D01*
X215115Y279424D01*
X215126Y279432D01*
X215139Y279443D01*
X215153Y279457D01*
X215172Y279476D01*
X215191Y279495D01*
X215213Y279517D01*
X215235Y279544D01*
X215260Y279572D01*
X215303Y279634D01*
X215344Y279708D01*
X215380Y279793D01*
Y279796D01*
X215382Y279804D01*
X215388Y279817D01*
X215390Y279834D01*
X215396Y279856D01*
X215404Y279880D01*
X215410Y279910D01*
X215418Y279940D01*
X215426Y279976D01*
X215431Y280014D01*
X215445Y280096D01*
X215453Y280183D01*
X215456Y280276D01*
Y280279D01*
Y280290D01*
Y280306D01*
X215453Y280331D01*
Y280358D01*
X215451Y280391D01*
X215448Y280426D01*
X215445Y280467D01*
X215440Y280511D01*
X215434Y280554D01*
X215418Y280650D01*
X215393Y280746D01*
X215363Y280838D01*
Y280841D01*
X215358Y280849D01*
X215352Y280860D01*
X215347Y280877D01*
X215336Y280898D01*
X215322Y280920D01*
X215292Y280972D01*
X215251Y281032D01*
X215202Y281089D01*
X215142Y281147D01*
X215109Y281171D01*
X215074Y281196D01*
X215071D01*
X215066Y281202D01*
X215055Y281207D01*
X215038Y281215D01*
X215019Y281223D01*
X214997Y281234D01*
X214973Y281242D01*
X214946Y281253D01*
X214883Y281275D01*
X214809Y281294D01*
X214730Y281308D01*
X214689Y281311D01*
X214645Y281313D01*
X214618D01*
X214599Y281311D01*
X214574Y281308D01*
X214547Y281305D01*
X214514Y281300D01*
X214481Y281294D01*
X214405Y281275D01*
X214367Y281261D01*
X214326Y281245D01*
X214285Y281226D01*
X214247Y281204D01*
X214208Y281180D01*
X214170Y281152D01*
X214167Y281150D01*
X214162Y281144D01*
X214151Y281136D01*
X214138Y281122D01*
X214124Y281106D01*
X214105Y281084D01*
X214086Y281060D01*
X214064Y281032D01*
X214042Y280999D01*
X214020Y280964D01*
X213998Y280926D01*
X213976Y280882D01*
X213957Y280836D01*
X213938Y280784D01*
X213919Y280729D01*
X213905Y280672D01*
X213572Y280756D01*
Y280762D01*
X213578Y280776D01*
X213583Y280795D01*
X213594Y280825D01*
X213605Y280857D01*
X213621Y280898D01*
X213638Y280942D01*
X213660Y280989D01*
X213684Y281040D01*
X213712Y281089D01*
X213742Y281144D01*
X213777Y281196D01*
X213815Y281245D01*
X213856Y281294D01*
X213903Y281341D01*
X213952Y281384D01*
X213955Y281387D01*
X213966Y281393D01*
X213979Y281403D01*
X214001Y281417D01*
X214025Y281434D01*
X214058Y281453D01*
X214094Y281472D01*
X214138Y281491D01*
X214184Y281510D01*
X214233Y281529D01*
X214288Y281548D01*
X214348Y281565D01*
X214410Y281578D01*
X214476Y281589D01*
X214544Y281595D01*
X214618Y281597D01*
X214656D01*
X214686Y281595D01*
D02*
G37*
G36*
X267556Y380071D02*
X268159D01*
Y379763D01*
X267556D01*
Y378665D01*
X267272D01*
X265639Y379817D01*
Y380071D01*
X267272D01*
Y380412D01*
X267556D01*
Y380071D01*
D02*
G37*
G36*
X268159Y377669D02*
X266191D01*
X266196Y377663D01*
X266210Y377650D01*
X266229Y377625D01*
X266256Y377590D01*
X266289Y377549D01*
X266324Y377497D01*
X266363Y377439D01*
X266404Y377374D01*
Y377371D01*
X266409Y377366D01*
X266415Y377358D01*
X266420Y377344D01*
X266431Y377327D01*
X266439Y377308D01*
X266464Y377265D01*
X266488Y377216D01*
X266516Y377161D01*
X266540Y377104D01*
X266562Y377049D01*
X266265D01*
X266262Y377052D01*
X266259Y377060D01*
X266251Y377074D01*
X266243Y377093D01*
X266232Y377115D01*
X266215Y377142D01*
X266199Y377172D01*
X266183Y377202D01*
X266139Y377273D01*
X266087Y377349D01*
X266032Y377429D01*
X265970Y377502D01*
X265967Y377505D01*
X265961Y377510D01*
X265953Y377521D01*
X265940Y377535D01*
X265923Y377549D01*
X265907Y377568D01*
X265860Y377609D01*
X265811Y377655D01*
X265754Y377701D01*
X265694Y377743D01*
X265631Y377778D01*
Y377977D01*
X268159D01*
Y377669D01*
D02*
G37*
G36*
X267378Y376522D02*
X267397Y376517D01*
X267427Y376506D01*
X267460Y376495D01*
X267501Y376479D01*
X267545Y376462D01*
X267591Y376440D01*
X267643Y376416D01*
X267692Y376388D01*
X267747Y376358D01*
X267799Y376323D01*
X267848Y376285D01*
X267897Y376244D01*
X267943Y376197D01*
X267987Y376148D01*
X267990Y376145D01*
X267995Y376134D01*
X268006Y376121D01*
X268020Y376099D01*
X268036Y376074D01*
X268055Y376042D01*
X268074Y376006D01*
X268094Y375962D01*
X268113Y375916D01*
X268132Y375867D01*
X268151Y375812D01*
X268167Y375752D01*
X268181Y375690D01*
X268192Y375624D01*
X268197Y375556D01*
X268200Y375482D01*
Y375444D01*
X268197Y375414D01*
X268195Y375381D01*
X268192Y375340D01*
X268186Y375296D01*
X268178Y375247D01*
X268170Y375195D01*
X268159Y375141D01*
X268145Y375086D01*
X268132Y375032D01*
X268113Y374974D01*
X268091Y374920D01*
X268066Y374868D01*
X268036Y374819D01*
X268034Y374816D01*
X268028Y374808D01*
X268020Y374794D01*
X268006Y374778D01*
X267987Y374756D01*
X267968Y374731D01*
X267943Y374704D01*
X267913Y374674D01*
X267881Y374644D01*
X267845Y374611D01*
X267807Y374581D01*
X267763Y374548D01*
X267717Y374516D01*
X267668Y374486D01*
X267613Y374458D01*
X267556Y374431D01*
X267553Y374428D01*
X267542Y374426D01*
X267523Y374420D01*
X267501Y374412D01*
X267471Y374401D01*
X267438Y374390D01*
X267397Y374379D01*
X267354Y374365D01*
X267305Y374355D01*
X267253Y374341D01*
X267198Y374330D01*
X267138Y374322D01*
X267013Y374305D01*
X266947Y374303D01*
X266881Y374300D01*
X266876D01*
X266865D01*
X266843D01*
X266816Y374303D01*
X266780Y374305D01*
X266740Y374308D01*
X266696Y374314D01*
X266647Y374319D01*
X266595Y374327D01*
X266540Y374335D01*
X266423Y374363D01*
X266366Y374382D01*
X266308Y374401D01*
X266248Y374423D01*
X266194Y374450D01*
X266191Y374453D01*
X266180Y374458D01*
X266166Y374466D01*
X266144Y374477D01*
X266120Y374494D01*
X266092Y374513D01*
X266062Y374535D01*
X266027Y374559D01*
X265994Y374589D01*
X265956Y374619D01*
X265920Y374655D01*
X265882Y374693D01*
X265847Y374734D01*
X265811Y374778D01*
X265778Y374827D01*
X265749Y374876D01*
X265746Y374879D01*
X265743Y374890D01*
X265735Y374903D01*
X265724Y374925D01*
X265713Y374950D01*
X265699Y374983D01*
X265686Y375018D01*
X265672Y375056D01*
X265658Y375100D01*
X265645Y375149D01*
X265631Y375198D01*
X265620Y375253D01*
X265601Y375365D01*
X265598Y375425D01*
X265596Y375487D01*
Y375523D01*
X265598Y375550D01*
X265601Y375583D01*
X265606Y375621D01*
X265612Y375662D01*
X265620Y375709D01*
X265631Y375758D01*
X265642Y375810D01*
X265658Y375862D01*
X265677Y375916D01*
X265699Y375971D01*
X265727Y376023D01*
X265754Y376074D01*
X265789Y376124D01*
X265792Y376126D01*
X265798Y376134D01*
X265809Y376148D01*
X265825Y376165D01*
X265844Y376186D01*
X265869Y376211D01*
X265896Y376236D01*
X265929Y376266D01*
X265964Y376296D01*
X266005Y376326D01*
X266049Y376356D01*
X266098Y376383D01*
X266150Y376413D01*
X266207Y376437D01*
X266267Y376462D01*
X266330Y376484D01*
X266406Y376156D01*
X266404D01*
X266395Y376151D01*
X266379Y376148D01*
X266360Y376140D01*
X266338Y376132D01*
X266314Y376118D01*
X266253Y376091D01*
X266188Y376055D01*
X266120Y376009D01*
X266057Y375960D01*
X266030Y375930D01*
X266005Y375900D01*
X266002Y375897D01*
X266000Y375891D01*
X265994Y375883D01*
X265986Y375870D01*
X265975Y375853D01*
X265964Y375834D01*
X265953Y375812D01*
X265942Y375785D01*
X265931Y375755D01*
X265920Y375725D01*
X265899Y375654D01*
X265885Y375572D01*
X265880Y375529D01*
Y375455D01*
X265882Y375433D01*
X265885Y375408D01*
X265888Y375378D01*
X265891Y375345D01*
X265896Y375313D01*
X265915Y375234D01*
X265940Y375152D01*
X265956Y375111D01*
X265975Y375070D01*
X265997Y375032D01*
X266021Y374993D01*
X266024Y374991D01*
X266027Y374985D01*
X266035Y374974D01*
X266046Y374961D01*
X266060Y374947D01*
X266079Y374928D01*
X266098Y374909D01*
X266120Y374887D01*
X266147Y374865D01*
X266174Y374840D01*
X266237Y374797D01*
X266311Y374756D01*
X266395Y374720D01*
X266398D01*
X266406Y374718D01*
X266420Y374712D01*
X266437Y374710D01*
X266458Y374704D01*
X266483Y374696D01*
X266513Y374690D01*
X266543Y374682D01*
X266578Y374674D01*
X266617Y374669D01*
X266699Y374655D01*
X266786Y374647D01*
X266879Y374644D01*
X266881D01*
X266892D01*
X266909D01*
X266933Y374647D01*
X266961D01*
X266993Y374649D01*
X267029Y374652D01*
X267070Y374655D01*
X267113Y374660D01*
X267157Y374666D01*
X267253Y374682D01*
X267348Y374707D01*
X267441Y374737D01*
X267444D01*
X267452Y374742D01*
X267463Y374748D01*
X267479Y374753D01*
X267501Y374764D01*
X267523Y374778D01*
X267575Y374808D01*
X267635Y374849D01*
X267692Y374898D01*
X267750Y374958D01*
X267774Y374991D01*
X267799Y375026D01*
Y375029D01*
X267804Y375034D01*
X267810Y375045D01*
X267818Y375062D01*
X267826Y375081D01*
X267837Y375103D01*
X267845Y375127D01*
X267856Y375154D01*
X267878Y375217D01*
X267897Y375291D01*
X267911Y375370D01*
X267913Y375411D01*
X267916Y375455D01*
Y375482D01*
X267913Y375501D01*
X267911Y375526D01*
X267908Y375553D01*
X267902Y375586D01*
X267897Y375619D01*
X267878Y375695D01*
X267864Y375733D01*
X267848Y375774D01*
X267829Y375815D01*
X267807Y375853D01*
X267782Y375891D01*
X267755Y375930D01*
X267752Y375933D01*
X267747Y375938D01*
X267739Y375949D01*
X267725Y375962D01*
X267709Y375976D01*
X267687Y375995D01*
X267662Y376014D01*
X267635Y376036D01*
X267602Y376058D01*
X267567Y376080D01*
X267529Y376102D01*
X267485Y376124D01*
X267438Y376143D01*
X267387Y376162D01*
X267332Y376181D01*
X267275Y376195D01*
X267359Y376528D01*
X267365D01*
X267378Y376522D01*
D02*
G37*
G36*
X269587Y359260D02*
X269622Y359257D01*
X269663Y359254D01*
X269707Y359249D01*
X269756Y359243D01*
X269808Y359235D01*
X269863Y359227D01*
X269980Y359199D01*
X270037Y359180D01*
X270095Y359161D01*
X270155Y359139D01*
X270209Y359112D01*
X270212Y359109D01*
X270223Y359104D01*
X270236Y359096D01*
X270258Y359085D01*
X270283Y359068D01*
X270310Y359049D01*
X270340Y359028D01*
X270376Y359003D01*
X270409Y358973D01*
X270447Y358943D01*
X270482Y358907D01*
X270520Y358869D01*
X270556Y358828D01*
X270591Y358785D01*
X270624Y358735D01*
X270654Y358686D01*
X270657Y358683D01*
X270660Y358673D01*
X270668Y358659D01*
X270679Y358637D01*
X270690Y358612D01*
X270703Y358580D01*
X270717Y358544D01*
X270731Y358506D01*
X270744Y358462D01*
X270758Y358413D01*
X270772Y358364D01*
X270782Y358310D01*
X270802Y358197D01*
X270804Y358137D01*
X270807Y358075D01*
Y358039D01*
X270804Y358012D01*
X270802Y357979D01*
X270796Y357941D01*
X270791Y357900D01*
X270782Y357854D01*
X270772Y357804D01*
X270761Y357753D01*
X270744Y357701D01*
X270725Y357646D01*
X270703Y357592D01*
X270676Y357540D01*
X270649Y357488D01*
X270613Y357439D01*
X270611Y357436D01*
X270605Y357428D01*
X270594Y357414D01*
X270578Y357398D01*
X270559Y357376D01*
X270534Y357351D01*
X270507Y357327D01*
X270474Y357297D01*
X270439Y357267D01*
X270398Y357237D01*
X270354Y357207D01*
X270305Y357179D01*
X270253Y357149D01*
X270196Y357125D01*
X270135Y357100D01*
X270073Y357078D01*
X269996Y357406D01*
X269999D01*
X270007Y357411D01*
X270024Y357414D01*
X270043Y357422D01*
X270065Y357430D01*
X270089Y357444D01*
X270149Y357471D01*
X270215Y357507D01*
X270283Y357553D01*
X270346Y357602D01*
X270373Y357632D01*
X270398Y357663D01*
X270400Y357665D01*
X270403Y357671D01*
X270409Y357679D01*
X270417Y357693D01*
X270428Y357709D01*
X270439Y357728D01*
X270449Y357750D01*
X270460Y357777D01*
X270471Y357807D01*
X270482Y357837D01*
X270504Y357908D01*
X270518Y357990D01*
X270523Y358034D01*
Y358107D01*
X270520Y358129D01*
X270518Y358154D01*
X270515Y358184D01*
X270512Y358217D01*
X270507Y358249D01*
X270488Y358329D01*
X270463Y358411D01*
X270447Y358451D01*
X270428Y358492D01*
X270406Y358531D01*
X270381Y358569D01*
X270378Y358572D01*
X270376Y358577D01*
X270368Y358588D01*
X270357Y358602D01*
X270343Y358615D01*
X270324Y358634D01*
X270305Y358653D01*
X270283Y358675D01*
X270256Y358697D01*
X270228Y358722D01*
X270166Y358765D01*
X270092Y358806D01*
X270007Y358842D01*
X270005D01*
X269996Y358844D01*
X269983Y358850D01*
X269966Y358853D01*
X269944Y358858D01*
X269920Y358866D01*
X269890Y358872D01*
X269860Y358880D01*
X269824Y358888D01*
X269786Y358894D01*
X269704Y358907D01*
X269617Y358915D01*
X269524Y358918D01*
X269521D01*
X269510D01*
X269494D01*
X269469Y358915D01*
X269442D01*
X269409Y358913D01*
X269374Y358910D01*
X269333Y358907D01*
X269289Y358902D01*
X269246Y358896D01*
X269150Y358880D01*
X269054Y358856D01*
X268962Y358825D01*
X268959D01*
X268951Y358820D01*
X268940Y358815D01*
X268923Y358809D01*
X268902Y358798D01*
X268880Y358785D01*
X268828Y358754D01*
X268768Y358714D01*
X268710Y358664D01*
X268653Y358604D01*
X268629Y358572D01*
X268604Y358536D01*
Y358533D01*
X268599Y358528D01*
X268593Y358517D01*
X268585Y358501D01*
X268577Y358482D01*
X268566Y358460D01*
X268558Y358435D01*
X268547Y358408D01*
X268525Y358345D01*
X268506Y358271D01*
X268492Y358192D01*
X268489Y358151D01*
X268487Y358107D01*
Y358080D01*
X268489Y358061D01*
X268492Y358036D01*
X268495Y358009D01*
X268500Y357976D01*
X268506Y357944D01*
X268525Y357867D01*
X268538Y357829D01*
X268555Y357788D01*
X268574Y357747D01*
X268596Y357709D01*
X268620Y357671D01*
X268648Y357632D01*
X268650Y357630D01*
X268656Y357624D01*
X268664Y357613D01*
X268678Y357600D01*
X268694Y357586D01*
X268716Y357567D01*
X268741Y357548D01*
X268768Y357526D01*
X268801Y357504D01*
X268836Y357482D01*
X268874Y357460D01*
X268918Y357439D01*
X268964Y357419D01*
X269016Y357400D01*
X269071Y357381D01*
X269128Y357368D01*
X269043Y357035D01*
X269038D01*
X269024Y357040D01*
X269005Y357046D01*
X268975Y357056D01*
X268942Y357067D01*
X268902Y357084D01*
X268858Y357100D01*
X268811Y357122D01*
X268760Y357147D01*
X268710Y357174D01*
X268656Y357204D01*
X268604Y357239D01*
X268555Y357277D01*
X268506Y357318D01*
X268459Y357365D01*
X268416Y357414D01*
X268413Y357417D01*
X268407Y357428D01*
X268396Y357441D01*
X268383Y357463D01*
X268367Y357488D01*
X268347Y357521D01*
X268328Y357556D01*
X268309Y357600D01*
X268290Y357646D01*
X268271Y357695D01*
X268252Y357750D01*
X268235Y357810D01*
X268222Y357873D01*
X268211Y357938D01*
X268205Y358006D01*
X268203Y358080D01*
Y358118D01*
X268205Y358148D01*
X268208Y358181D01*
X268211Y358222D01*
X268216Y358266D01*
X268225Y358315D01*
X268233Y358367D01*
X268244Y358421D01*
X268257Y358476D01*
X268271Y358531D01*
X268290Y358588D01*
X268312Y358643D01*
X268337Y358694D01*
X268367Y358744D01*
X268369Y358746D01*
X268375Y358754D01*
X268383Y358768D01*
X268396Y358785D01*
X268416Y358806D01*
X268435Y358831D01*
X268459Y358858D01*
X268489Y358888D01*
X268522Y358918D01*
X268558Y358951D01*
X268596Y358981D01*
X268639Y359014D01*
X268686Y359047D01*
X268735Y359077D01*
X268790Y359104D01*
X268847Y359131D01*
X268850Y359134D01*
X268861Y359137D01*
X268880Y359142D01*
X268902Y359150D01*
X268932Y359161D01*
X268964Y359172D01*
X269005Y359183D01*
X269049Y359197D01*
X269098Y359208D01*
X269150Y359221D01*
X269205Y359232D01*
X269265Y359240D01*
X269390Y359257D01*
X269456Y359260D01*
X269521Y359262D01*
X269527D01*
X269538D01*
X269560D01*
X269587Y359260D01*
D02*
G37*
G36*
X270141Y356510D02*
X270144Y356502D01*
X270152Y356489D01*
X270160Y356469D01*
X270171Y356448D01*
X270187Y356420D01*
X270204Y356390D01*
X270220Y356360D01*
X270264Y356289D01*
X270316Y356213D01*
X270370Y356134D01*
X270433Y356060D01*
X270436Y356057D01*
X270441Y356052D01*
X270449Y356041D01*
X270463Y356027D01*
X270479Y356013D01*
X270496Y355994D01*
X270542Y355954D01*
X270591Y355907D01*
X270649Y355861D01*
X270709Y355820D01*
X270772Y355784D01*
Y355585D01*
X268244D01*
Y355893D01*
X270212D01*
X270206Y355899D01*
X270193Y355912D01*
X270174Y355937D01*
X270146Y355973D01*
X270114Y356013D01*
X270078Y356065D01*
X270040Y356123D01*
X269999Y356188D01*
Y356191D01*
X269994Y356196D01*
X269988Y356205D01*
X269983Y356218D01*
X269972Y356235D01*
X269964Y356254D01*
X269939Y356297D01*
X269914Y356347D01*
X269887Y356401D01*
X269863Y356458D01*
X269841Y356513D01*
X270138D01*
X270141Y356510D01*
D02*
G37*
G36*
X268951Y354482D02*
X268948D01*
X268940Y354479D01*
X268926Y354476D01*
X268907Y354471D01*
X268885Y354466D01*
X268861Y354460D01*
X268803Y354441D01*
X268741Y354416D01*
X268678Y354386D01*
X268620Y354348D01*
X268596Y354326D01*
X268571Y354305D01*
Y354302D01*
X268566Y354299D01*
X268560Y354291D01*
X268552Y354283D01*
X268536Y354255D01*
X268514Y354217D01*
X268492Y354171D01*
X268476Y354119D01*
X268462Y354056D01*
X268457Y353991D01*
Y353969D01*
X268459Y353952D01*
X268462Y353936D01*
X268465Y353911D01*
X268476Y353862D01*
X268492Y353802D01*
X268519Y353739D01*
X268538Y353709D01*
X268558Y353679D01*
X268579Y353649D01*
X268607Y353619D01*
X268609Y353617D01*
X268615Y353614D01*
X268623Y353606D01*
X268634Y353595D01*
X268648Y353584D01*
X268667Y353573D01*
X268686Y353559D01*
X268710Y353543D01*
X268765Y353516D01*
X268828Y353494D01*
X268902Y353475D01*
X268940Y353472D01*
X268981Y353469D01*
X268984D01*
X268989D01*
X269003D01*
X269016Y353472D01*
X269035Y353475D01*
X269054Y353477D01*
X269104Y353486D01*
X269161Y353505D01*
X269218Y353529D01*
X269248Y353546D01*
X269276Y353565D01*
X269303Y353587D01*
X269330Y353611D01*
X269333Y353614D01*
X269336Y353617D01*
X269344Y353625D01*
X269352Y353636D01*
X269363Y353649D01*
X269374Y353666D01*
X269401Y353707D01*
X269426Y353759D01*
X269448Y353819D01*
X269464Y353887D01*
X269467Y353925D01*
X269469Y353963D01*
Y353980D01*
X269467Y353999D01*
Y354023D01*
X269461Y354056D01*
X269456Y354092D01*
X269448Y354135D01*
X269437Y354182D01*
X269707Y354149D01*
Y354144D01*
X269704Y354130D01*
X269702Y354114D01*
Y354078D01*
X269704Y354064D01*
Y354045D01*
X269707Y354026D01*
X269715Y353980D01*
X269726Y353925D01*
X269745Y353865D01*
X269770Y353802D01*
X269805Y353742D01*
Y353739D01*
X269811Y353734D01*
X269816Y353729D01*
X269824Y353718D01*
X269849Y353690D01*
X269884Y353660D01*
X269928Y353633D01*
X269983Y353606D01*
X270013Y353595D01*
X270048Y353589D01*
X270084Y353584D01*
X270122Y353581D01*
X270125D01*
X270130D01*
X270138D01*
X270152Y353584D01*
X270182Y353587D01*
X270223Y353595D01*
X270267Y353608D01*
X270313Y353630D01*
X270362Y353660D01*
X270384Y353677D01*
X270406Y353698D01*
X270411Y353704D01*
X270422Y353720D01*
X270441Y353745D01*
X270463Y353778D01*
X270482Y353821D01*
X270501Y353873D01*
X270512Y353930D01*
X270518Y353996D01*
Y354012D01*
X270515Y354026D01*
Y354043D01*
X270512Y354059D01*
X270504Y354102D01*
X270490Y354149D01*
X270469Y354201D01*
X270441Y354250D01*
X270403Y354299D01*
X270398Y354305D01*
X270381Y354318D01*
X270357Y354340D01*
X270318Y354362D01*
X270272Y354389D01*
X270212Y354414D01*
X270144Y354436D01*
X270065Y354452D01*
X270119Y354761D01*
X270122D01*
X270133Y354758D01*
X270149Y354755D01*
X270171Y354749D01*
X270196Y354741D01*
X270226Y354733D01*
X270258Y354722D01*
X270294Y354709D01*
X270373Y354673D01*
X270411Y354654D01*
X270452Y354629D01*
X270490Y354602D01*
X270529Y354572D01*
X270567Y354539D01*
X270600Y354504D01*
X270602Y354501D01*
X270608Y354496D01*
X270616Y354482D01*
X270627Y354468D01*
X270641Y354447D01*
X270654Y354425D01*
X270671Y354397D01*
X270687Y354365D01*
X270701Y354332D01*
X270717Y354294D01*
X270731Y354253D01*
X270744Y354209D01*
X270755Y354160D01*
X270763Y354111D01*
X270769Y354059D01*
X270772Y354004D01*
Y353969D01*
X270769Y353950D01*
X270766Y353930D01*
X270761Y353879D01*
X270750Y353821D01*
X270733Y353756D01*
X270712Y353690D01*
X270682Y353625D01*
Y353622D01*
X270679Y353617D01*
X270673Y353608D01*
X270665Y353595D01*
X270646Y353565D01*
X270619Y353526D01*
X270583Y353483D01*
X270542Y353439D01*
X270496Y353396D01*
X270441Y353357D01*
X270439D01*
X270436Y353355D01*
X270425Y353349D01*
X270414Y353344D01*
X270400Y353335D01*
X270384Y353327D01*
X270343Y353311D01*
X270294Y353294D01*
X270239Y353278D01*
X270179Y353267D01*
X270116Y353264D01*
X270114D01*
X270108D01*
X270100D01*
X270089D01*
X270056Y353270D01*
X270018Y353275D01*
X269972Y353286D01*
X269923Y353303D01*
X269871Y353325D01*
X269819Y353355D01*
X269816D01*
X269813Y353357D01*
X269797Y353371D01*
X269772Y353390D01*
X269742Y353420D01*
X269707Y353455D01*
X269671Y353502D01*
X269639Y353554D01*
X269606Y353614D01*
Y353611D01*
X269603Y353603D01*
X269601Y353592D01*
X269595Y353576D01*
X269589Y353559D01*
X269581Y353537D01*
X269560Y353486D01*
X269530Y353431D01*
X269494Y353374D01*
X269448Y353316D01*
X269390Y353267D01*
X269388Y353264D01*
X269382Y353262D01*
X269374Y353256D01*
X269360Y353248D01*
X269347Y353237D01*
X269327Y353226D01*
X269306Y353215D01*
X269278Y353204D01*
X269251Y353193D01*
X269221Y353183D01*
X269153Y353161D01*
X269074Y353147D01*
X269030Y353142D01*
X268986D01*
X268984D01*
X268973D01*
X268953Y353144D01*
X268932D01*
X268902Y353150D01*
X268869Y353155D01*
X268833Y353161D01*
X268792Y353172D01*
X268749Y353185D01*
X268705Y353202D01*
X268659Y353221D01*
X268612Y353245D01*
X268563Y353273D01*
X268517Y353305D01*
X268470Y353341D01*
X268426Y353384D01*
X268424Y353387D01*
X268416Y353396D01*
X268405Y353409D01*
X268391Y353428D01*
X268375Y353450D01*
X268356Y353480D01*
X268334Y353513D01*
X268315Y353551D01*
X268293Y353592D01*
X268271Y353638D01*
X268252Y353688D01*
X268235Y353742D01*
X268222Y353800D01*
X268211Y353860D01*
X268203Y353922D01*
X268200Y353991D01*
Y354004D01*
X268203Y354023D01*
Y354045D01*
X268205Y354075D01*
X268211Y354108D01*
X268216Y354144D01*
X268225Y354184D01*
X268235Y354228D01*
X268249Y354272D01*
X268263Y354318D01*
X268282Y354365D01*
X268306Y354411D01*
X268331Y354455D01*
X268361Y354501D01*
X268396Y354542D01*
X268399Y354545D01*
X268405Y354550D01*
X268416Y354561D01*
X268432Y354578D01*
X268451Y354594D01*
X268476Y354613D01*
X268503Y354632D01*
X268536Y354654D01*
X268568Y354676D01*
X268609Y354698D01*
X268650Y354719D01*
X268697Y354739D01*
X268746Y354755D01*
X268798Y354771D01*
X268852Y354782D01*
X268910Y354790D01*
X268951Y354482D01*
D02*
G37*
G36*
X251550Y297102D02*
X251583Y297099D01*
X251621Y297093D01*
X251662Y297088D01*
X251709Y297080D01*
X251758Y297069D01*
X251810Y297058D01*
X251862Y297042D01*
X251916Y297023D01*
X251971Y297001D01*
X252023Y296973D01*
X252074Y296946D01*
X252124Y296911D01*
X252126Y296908D01*
X252134Y296902D01*
X252148Y296891D01*
X252165Y296875D01*
X252186Y296856D01*
X252211Y296831D01*
X252236Y296804D01*
X252266Y296771D01*
X252296Y296736D01*
X252326Y296695D01*
X252356Y296651D01*
X252383Y296602D01*
X252413Y296550D01*
X252437Y296493D01*
X252462Y296433D01*
X252484Y296370D01*
X252156Y296294D01*
Y296296D01*
X252151Y296304D01*
X252148Y296321D01*
X252140Y296340D01*
X252132Y296362D01*
X252118Y296386D01*
X252091Y296446D01*
X252055Y296512D01*
X252009Y296580D01*
X251960Y296643D01*
X251930Y296670D01*
X251900Y296695D01*
X251897Y296698D01*
X251891Y296700D01*
X251883Y296706D01*
X251870Y296714D01*
X251853Y296725D01*
X251834Y296736D01*
X251812Y296747D01*
X251785Y296758D01*
X251755Y296769D01*
X251725Y296779D01*
X251654Y296801D01*
X251572Y296815D01*
X251529Y296820D01*
X251455D01*
X251433Y296818D01*
X251408Y296815D01*
X251378Y296812D01*
X251345Y296810D01*
X251313Y296804D01*
X251234Y296785D01*
X251152Y296760D01*
X251111Y296744D01*
X251070Y296725D01*
X251032Y296703D01*
X250993Y296678D01*
X250991Y296676D01*
X250985Y296673D01*
X250974Y296665D01*
X250961Y296654D01*
X250947Y296640D01*
X250928Y296621D01*
X250909Y296602D01*
X250887Y296580D01*
X250865Y296553D01*
X250840Y296526D01*
X250797Y296463D01*
X250756Y296389D01*
X250720Y296304D01*
Y296302D01*
X250718Y296294D01*
X250712Y296280D01*
X250710Y296264D01*
X250704Y296242D01*
X250696Y296217D01*
X250690Y296187D01*
X250682Y296157D01*
X250674Y296122D01*
X250669Y296083D01*
X250655Y296002D01*
X250647Y295914D01*
X250644Y295821D01*
Y295818D01*
Y295808D01*
Y295791D01*
X250647Y295767D01*
Y295739D01*
X250649Y295707D01*
X250652Y295671D01*
X250655Y295630D01*
X250660Y295586D01*
X250666Y295543D01*
X250682Y295447D01*
X250707Y295352D01*
X250737Y295259D01*
Y295256D01*
X250742Y295248D01*
X250748Y295237D01*
X250753Y295221D01*
X250764Y295199D01*
X250778Y295177D01*
X250808Y295125D01*
X250849Y295065D01*
X250898Y295008D01*
X250958Y294950D01*
X250991Y294926D01*
X251026Y294901D01*
X251029D01*
X251034Y294896D01*
X251045Y294890D01*
X251062Y294882D01*
X251081Y294874D01*
X251103Y294863D01*
X251127Y294855D01*
X251154Y294844D01*
X251217Y294822D01*
X251291Y294803D01*
X251370Y294789D01*
X251411Y294787D01*
X251455Y294784D01*
X251482D01*
X251501Y294787D01*
X251526Y294789D01*
X251553Y294792D01*
X251586Y294797D01*
X251619Y294803D01*
X251695Y294822D01*
X251733Y294836D01*
X251774Y294852D01*
X251815Y294871D01*
X251853Y294893D01*
X251891Y294918D01*
X251930Y294945D01*
X251933Y294948D01*
X251938Y294953D01*
X251949Y294961D01*
X251962Y294975D01*
X251976Y294991D01*
X251995Y295013D01*
X252014Y295038D01*
X252036Y295065D01*
X252058Y295098D01*
X252080Y295133D01*
X252102Y295171D01*
X252124Y295215D01*
X252143Y295262D01*
X252162Y295314D01*
X252181Y295368D01*
X252195Y295425D01*
X252528Y295341D01*
Y295335D01*
X252522Y295322D01*
X252517Y295303D01*
X252506Y295272D01*
X252495Y295240D01*
X252479Y295199D01*
X252462Y295155D01*
X252440Y295109D01*
X252416Y295057D01*
X252388Y295008D01*
X252358Y294953D01*
X252323Y294901D01*
X252285Y294852D01*
X252244Y294803D01*
X252197Y294757D01*
X252148Y294713D01*
X252145Y294710D01*
X252134Y294705D01*
X252121Y294694D01*
X252099Y294680D01*
X252074Y294664D01*
X252042Y294645D01*
X252006Y294625D01*
X251962Y294606D01*
X251916Y294587D01*
X251867Y294568D01*
X251812Y294549D01*
X251752Y294533D01*
X251690Y294519D01*
X251624Y294508D01*
X251556Y294503D01*
X251482Y294500D01*
X251444D01*
X251414Y294503D01*
X251381Y294505D01*
X251340Y294508D01*
X251296Y294514D01*
X251247Y294522D01*
X251195Y294530D01*
X251141Y294541D01*
X251086Y294555D01*
X251032Y294568D01*
X250974Y294587D01*
X250920Y294609D01*
X250868Y294634D01*
X250819Y294664D01*
X250816Y294667D01*
X250808Y294672D01*
X250794Y294680D01*
X250778Y294694D01*
X250756Y294713D01*
X250731Y294732D01*
X250704Y294757D01*
X250674Y294787D01*
X250644Y294819D01*
X250611Y294855D01*
X250581Y294893D01*
X250548Y294937D01*
X250516Y294983D01*
X250486Y295032D01*
X250458Y295087D01*
X250431Y295144D01*
X250428Y295147D01*
X250426Y295158D01*
X250420Y295177D01*
X250412Y295199D01*
X250401Y295229D01*
X250390Y295262D01*
X250379Y295303D01*
X250365Y295346D01*
X250355Y295395D01*
X250341Y295447D01*
X250330Y295502D01*
X250322Y295562D01*
X250305Y295688D01*
X250303Y295753D01*
X250300Y295818D01*
Y295824D01*
Y295835D01*
Y295857D01*
X250303Y295884D01*
X250305Y295919D01*
X250308Y295960D01*
X250314Y296004D01*
X250319Y296053D01*
X250327Y296105D01*
X250335Y296160D01*
X250363Y296277D01*
X250382Y296335D01*
X250401Y296392D01*
X250423Y296452D01*
X250450Y296507D01*
X250453Y296509D01*
X250458Y296520D01*
X250466Y296534D01*
X250477Y296556D01*
X250494Y296580D01*
X250513Y296607D01*
X250535Y296638D01*
X250559Y296673D01*
X250589Y296706D01*
X250619Y296744D01*
X250655Y296779D01*
X250693Y296818D01*
X250734Y296853D01*
X250778Y296889D01*
X250827Y296921D01*
X250876Y296952D01*
X250879Y296954D01*
X250890Y296957D01*
X250903Y296965D01*
X250925Y296976D01*
X250950Y296987D01*
X250982Y297001D01*
X251018Y297014D01*
X251056Y297028D01*
X251100Y297042D01*
X251149Y297055D01*
X251198Y297069D01*
X251253Y297080D01*
X251365Y297099D01*
X251425Y297102D01*
X251487Y297104D01*
X251523D01*
X251550Y297102D01*
D02*
G37*
G36*
X254114Y295428D02*
X254455D01*
Y295144D01*
X254114D01*
Y294541D01*
X253805D01*
Y295144D01*
X252708D01*
Y295428D01*
X253860Y297061D01*
X254114D01*
Y295428D01*
D02*
G37*
%LPC*%
G36*
X316017Y376296D02*
X316014D01*
X316009D01*
X316001D01*
X315990D01*
X315976D01*
X315960D01*
X315916Y376293D01*
X315867Y376290D01*
X315809Y376288D01*
X315747Y376285D01*
X315681Y376277D01*
X315542Y376260D01*
X315474Y376247D01*
X315408Y376233D01*
X315345Y376217D01*
X315285Y376198D01*
X315236Y376176D01*
X315193Y376148D01*
X315190Y376146D01*
X315184Y376143D01*
X315173Y376135D01*
X315160Y376124D01*
X315146Y376107D01*
X315127Y376091D01*
X315108Y376072D01*
X315089Y376050D01*
X315053Y375998D01*
X315020Y375935D01*
X315007Y375903D01*
X314996Y375864D01*
X314990Y375829D01*
X314988Y375788D01*
Y375769D01*
X314990Y375752D01*
X314993Y375736D01*
X314996Y375714D01*
X315010Y375665D01*
X315031Y375610D01*
X315045Y375583D01*
X315064Y375553D01*
X315083Y375526D01*
X315108Y375499D01*
X315135Y375471D01*
X315168Y375447D01*
X315171Y375444D01*
X315179Y375441D01*
X315193Y375433D01*
X315214Y375422D01*
X315242Y375411D01*
X315274Y375398D01*
X315313Y375381D01*
X315362Y375367D01*
X315416Y375354D01*
X315476Y375338D01*
X315547Y375324D01*
X315624Y375313D01*
X315708Y375302D01*
X315804Y375297D01*
X315905Y375291D01*
X316017Y375288D01*
X316020D01*
X316025D01*
X316033D01*
X316044D01*
X316058D01*
X316077D01*
X316118Y375291D01*
X316167Y375294D01*
X316224Y375297D01*
X316287Y375299D01*
X316353Y375307D01*
X316492Y375324D01*
X316560Y375335D01*
X316629Y375348D01*
X316691Y375365D01*
X316749Y375387D01*
X316800Y375409D01*
X316844Y375433D01*
X316847Y375436D01*
X316852Y375438D01*
X316863Y375447D01*
X316877Y375460D01*
X316891Y375474D01*
X316907Y375490D01*
X316945Y375531D01*
X316983Y375583D01*
X317013Y375646D01*
X317027Y375679D01*
X317038Y375714D01*
X317043Y375752D01*
X317046Y375791D01*
Y375799D01*
X317043Y375813D01*
Y375826D01*
X317041Y375845D01*
X317035Y375867D01*
X317022Y375916D01*
X317011Y375944D01*
X316997Y375971D01*
X316981Y376001D01*
X316959Y376031D01*
X316937Y376061D01*
X316910Y376091D01*
X316877Y376121D01*
X316841Y376148D01*
X316839Y376151D01*
X316830Y376154D01*
X316820Y376162D01*
X316800Y376170D01*
X316776Y376184D01*
X316743Y376195D01*
X316705Y376208D01*
X316661Y376222D01*
X316609Y376236D01*
X316549Y376249D01*
X316484Y376263D01*
X316407Y376274D01*
X316323Y376282D01*
X316230Y376290D01*
X316129Y376293D01*
X316017Y376296D01*
D02*
G37*
G36*
X306206Y339969D02*
X306204D01*
X306195D01*
X306184D01*
X306165Y339966D01*
X306146Y339964D01*
X306122Y339961D01*
X306067Y339950D01*
X306004Y339933D01*
X305941Y339909D01*
X305909Y339893D01*
X305876Y339874D01*
X305846Y339852D01*
X305816Y339827D01*
X305813Y339824D01*
X305810Y339822D01*
X305802Y339813D01*
X305794Y339800D01*
X305783Y339786D01*
X305769Y339770D01*
X305756Y339751D01*
X305742Y339729D01*
X305715Y339674D01*
X305690Y339614D01*
X305674Y339543D01*
X305671Y339505D01*
X305668Y339467D01*
Y339445D01*
X305671Y339431D01*
X305674Y339412D01*
X305677Y339393D01*
X305687Y339344D01*
X305704Y339286D01*
X305731Y339229D01*
X305748Y339199D01*
X305767Y339169D01*
X305791Y339142D01*
X305816Y339114D01*
X305819Y339112D01*
X305824Y339109D01*
X305832Y339101D01*
X305843Y339093D01*
X305859Y339082D01*
X305879Y339071D01*
X305901Y339057D01*
X305925Y339044D01*
X305952Y339033D01*
X305985Y339019D01*
X306018Y339008D01*
X306056Y338997D01*
X306097Y338989D01*
X306138Y338981D01*
X306184Y338978D01*
X306234Y338975D01*
X306236D01*
X306244D01*
X306258D01*
X306277Y338978D01*
X306299Y338981D01*
X306326Y338983D01*
X306354Y338986D01*
X306386Y338992D01*
X306452Y339011D01*
X306523Y339035D01*
X306558Y339052D01*
X306591Y339071D01*
X306624Y339093D01*
X306654Y339117D01*
X306657Y339120D01*
X306662Y339123D01*
X306668Y339131D01*
X306679Y339142D01*
X306689Y339156D01*
X306703Y339172D01*
X306733Y339213D01*
X306763Y339262D01*
X306788Y339322D01*
X306799Y339352D01*
X306807Y339387D01*
X306809Y339423D01*
X306812Y339458D01*
Y339478D01*
X306809Y339494D01*
X306807Y339510D01*
X306804Y339532D01*
X306790Y339581D01*
X306771Y339639D01*
X306758Y339669D01*
X306741Y339699D01*
X306722Y339729D01*
X306698Y339759D01*
X306673Y339789D01*
X306643Y339819D01*
X306640Y339822D01*
X306635Y339824D01*
X306627Y339832D01*
X306613Y339843D01*
X306597Y339854D01*
X306575Y339865D01*
X306553Y339879D01*
X306526Y339893D01*
X306496Y339909D01*
X306463Y339923D01*
X306427Y339933D01*
X306386Y339945D01*
X306302Y339964D01*
X306255Y339966D01*
X306206Y339969D01*
D02*
G37*
G36*
X270830Y339874D02*
X270827D01*
X270822D01*
X270814D01*
X270800Y339871D01*
X270784D01*
X270767Y339868D01*
X270726Y339860D01*
X270680Y339846D01*
X270631Y339827D01*
X270582Y339800D01*
X270538Y339761D01*
X270532Y339756D01*
X270522Y339740D01*
X270502Y339715D01*
X270483Y339680D01*
X270462Y339639D01*
X270442Y339587D01*
X270431Y339527D01*
X270426Y339461D01*
Y339445D01*
X270429Y339431D01*
Y339415D01*
X270431Y339399D01*
X270440Y339357D01*
X270453Y339311D01*
X270472Y339262D01*
X270500Y339213D01*
X270538Y339166D01*
X270543Y339161D01*
X270557Y339147D01*
X270582Y339131D01*
X270614Y339109D01*
X270653Y339087D01*
X270702Y339071D01*
X270754Y339057D01*
X270811Y339052D01*
X270814D01*
X270819D01*
X270827D01*
X270841Y339054D01*
X270871Y339057D01*
X270912Y339065D01*
X270956Y339079D01*
X271005Y339101D01*
X271051Y339131D01*
X271076Y339147D01*
X271098Y339169D01*
X271100D01*
X271103Y339175D01*
X271117Y339191D01*
X271136Y339215D01*
X271158Y339251D01*
X271177Y339292D01*
X271196Y339344D01*
X271210Y339401D01*
X271215Y339431D01*
Y339480D01*
X271212Y339494D01*
Y339508D01*
X271210Y339527D01*
X271201Y339568D01*
X271188Y339614D01*
X271166Y339663D01*
X271139Y339712D01*
X271100Y339759D01*
X271095Y339764D01*
X271081Y339778D01*
X271057Y339794D01*
X271024Y339816D01*
X270986Y339838D01*
X270939Y339854D01*
X270887Y339868D01*
X270830Y339874D01*
D02*
G37*
G36*
X269667Y339974D02*
X269664D01*
X269662D01*
X269645D01*
X269618Y339972D01*
X269585Y339966D01*
X269547Y339961D01*
X269503Y339950D01*
X269457Y339933D01*
X269410Y339914D01*
X269405Y339912D01*
X269391Y339903D01*
X269367Y339887D01*
X269339Y339868D01*
X269309Y339841D01*
X269279Y339811D01*
X269247Y339773D01*
X269219Y339729D01*
Y339726D01*
X269217Y339723D01*
X269209Y339707D01*
X269198Y339682D01*
X269187Y339647D01*
X269176Y339609D01*
X269165Y339562D01*
X269157Y339513D01*
X269154Y339461D01*
Y339439D01*
X269157Y339423D01*
X269159Y339404D01*
X269162Y339382D01*
X269173Y339330D01*
X269189Y339273D01*
X269214Y339210D01*
X269230Y339180D01*
X269249Y339150D01*
X269271Y339120D01*
X269296Y339093D01*
X269299Y339090D01*
X269301Y339087D01*
X269309Y339079D01*
X269320Y339071D01*
X269337Y339060D01*
X269353Y339046D01*
X269372Y339033D01*
X269394Y339019D01*
X269446Y338994D01*
X269509Y338970D01*
X269577Y338953D01*
X269615Y338951D01*
X269656Y338948D01*
X269659D01*
X269667D01*
X269678D01*
X269694Y338951D01*
X269713Y338953D01*
X269735Y338956D01*
X269787Y338967D01*
X269845Y338983D01*
X269907Y339011D01*
X269937Y339027D01*
X269967Y339049D01*
X269997Y339071D01*
X270025Y339098D01*
X270027Y339101D01*
X270030Y339104D01*
X270038Y339112D01*
X270047Y339125D01*
X270060Y339139D01*
X270071Y339156D01*
X270085Y339177D01*
X270098Y339199D01*
X270126Y339254D01*
X270150Y339317D01*
X270167Y339390D01*
X270169Y339428D01*
X270172Y339469D01*
Y339491D01*
X270169Y339505D01*
X270167Y339524D01*
X270164Y339546D01*
X270153Y339598D01*
X270137Y339655D01*
X270112Y339715D01*
X270096Y339745D01*
X270077Y339775D01*
X270052Y339805D01*
X270027Y339832D01*
X270025Y339835D01*
X270022Y339838D01*
X270014Y339846D01*
X270003Y339854D01*
X269987Y339865D01*
X269970Y339876D01*
X269951Y339890D01*
X269929Y339903D01*
X269877Y339931D01*
X269814Y339953D01*
X269743Y339969D01*
X269708Y339972D01*
X269667Y339974D01*
D02*
G37*
G36*
X226377Y309203D02*
X226358D01*
X226342Y309200D01*
X226326Y309198D01*
X226304Y309195D01*
X226255Y309184D01*
X226197Y309165D01*
X226137Y309138D01*
X226107Y309121D01*
X226077Y309102D01*
X226047Y309078D01*
X226020Y309050D01*
X226017Y309048D01*
X226014Y309042D01*
X226006Y309034D01*
X225998Y309023D01*
X225987Y309009D01*
X225973Y308990D01*
X225960Y308968D01*
X225949Y308944D01*
X225935Y308919D01*
X225922Y308889D01*
X225897Y308821D01*
X225881Y308745D01*
X225878Y308701D01*
X225875Y308657D01*
Y308654D01*
Y308649D01*
Y308641D01*
Y308630D01*
X225878Y308616D01*
Y308600D01*
X225883Y308559D01*
X225891Y308512D01*
X225902Y308461D01*
X225919Y308406D01*
X225941Y308351D01*
Y308349D01*
X225943Y308346D01*
X225949Y308338D01*
X225954Y308327D01*
X225968Y308302D01*
X225990Y308270D01*
X226017Y308234D01*
X226050Y308198D01*
X226085Y308163D01*
X226129Y308130D01*
X226132D01*
X226134Y308128D01*
X226151Y308119D01*
X226175Y308106D01*
X226208Y308092D01*
X226246Y308078D01*
X226290Y308065D01*
X226339Y308057D01*
X226388Y308054D01*
X226408D01*
X226421Y308057D01*
X226440Y308059D01*
X226459Y308062D01*
X226506Y308073D01*
X226558Y308092D01*
X226588Y308106D01*
X226615Y308119D01*
X226645Y308138D01*
X226672Y308158D01*
X226700Y308182D01*
X226727Y308209D01*
X226730Y308212D01*
X226732Y308218D01*
X226741Y308226D01*
X226749Y308240D01*
X226760Y308256D01*
X226770Y308275D01*
X226784Y308297D01*
X226798Y308324D01*
X226812Y308351D01*
X226825Y308384D01*
X226836Y308420D01*
X226847Y308458D01*
X226855Y308499D01*
X226863Y308545D01*
X226866Y308592D01*
X226869Y308641D01*
Y308644D01*
Y308652D01*
Y308665D01*
X226866Y308684D01*
X226863Y308706D01*
X226861Y308731D01*
X226858Y308758D01*
X226852Y308788D01*
X226836Y308854D01*
X226812Y308922D01*
X226795Y308958D01*
X226776Y308990D01*
X226754Y309020D01*
X226730Y309050D01*
X226727Y309053D01*
X226724Y309056D01*
X226716Y309064D01*
X226705Y309075D01*
X226691Y309086D01*
X226675Y309099D01*
X226634Y309127D01*
X226582Y309154D01*
X226522Y309179D01*
X226454Y309198D01*
X226416Y309200D01*
X226377Y309203D01*
D02*
G37*
G36*
X267272Y379763D02*
X266136D01*
X267272Y378968D01*
Y379763D01*
D02*
G37*
G36*
X253805Y296564D02*
X253011Y295428D01*
X253805D01*
Y296564D01*
D02*
G37*
%LPD*%
D12*
X371418Y379778D02*
Y385290D01*
X361182D02*
X371418D01*
X361182Y379778D02*
Y385290D01*
Y379778D02*
X371418D01*
X361182Y385178D02*
X371418D01*
X361182D02*
Y390690D01*
X371418D01*
Y385178D02*
Y390690D01*
X311238Y337976D02*
Y347424D01*
X315962D01*
Y337976D02*
Y347424D01*
X311238Y337976D02*
X315962D01*
X349276Y331772D02*
X358724D01*
X349276D02*
Y336496D01*
X358724D01*
Y331772D02*
Y336496D01*
X352776Y380762D02*
X362224D01*
Y376038D02*
Y380762D01*
X352776Y376038D02*
X362224D01*
X352776D02*
Y380762D01*
X354949Y373504D02*
X363839D01*
Y368976D02*
Y373504D01*
X354949Y368976D02*
X363839D01*
X354949D02*
Y373504D01*
X314938Y365776D02*
Y375224D01*
X319662D01*
Y365776D02*
Y375224D01*
X314938Y365776D02*
X319662D01*
X228965Y356845D02*
Y362357D01*
X218729D02*
X228965D01*
X218729Y356845D02*
Y362357D01*
Y356845D02*
X228965D01*
Y362545D02*
Y368057D01*
X218729D02*
X228965D01*
X218729Y362545D02*
Y368057D01*
Y362545D02*
X228965D01*
Y367944D02*
Y373456D01*
X218729D02*
X228965D01*
X218729Y367944D02*
Y373456D01*
Y367944D02*
X228965D01*
Y373511D02*
Y379023D01*
X218729D02*
X228965D01*
X218729Y373511D02*
Y379023D01*
Y373511D02*
X228965D01*
X283210Y354482D02*
Y364718D01*
X277698Y354482D02*
X283210D01*
X277698D02*
Y364718D01*
X283210D01*
X322082Y331756D02*
X332318D01*
Y326244D02*
Y331756D01*
X322082Y326244D02*
X332318D01*
X322082D02*
Y331756D01*
X302138Y347524D02*
X306862D01*
X302138Y338076D02*
Y347524D01*
Y338076D02*
X306862D01*
Y347524D01*
X266538D02*
X271262D01*
X266538Y338076D02*
Y347524D01*
Y338076D02*
X271262D01*
Y347524D01*
X216620Y305536D02*
Y310064D01*
Y305536D02*
X225510D01*
Y310064D01*
X216620D02*
X225510D01*
X248638Y284838D02*
Y289562D01*
Y284838D02*
X258087D01*
Y289562D01*
X248638D02*
X258087D01*
X220524Y272438D02*
Y277162D01*
X211076D02*
X220524D01*
X211076Y272438D02*
Y277162D01*
Y272438D02*
X220524D01*
X271757Y354482D02*
Y364718D01*
X277269D01*
Y354482D02*
Y364718D01*
X271757Y354482D02*
X277269D01*
X277156Y369282D02*
Y379518D01*
X271644Y369282D02*
X277156D01*
X271644D02*
Y379518D01*
X277156D01*
X288956Y354482D02*
Y364718D01*
X283444Y354482D02*
X288956D01*
X283444D02*
Y364718D01*
X288956D01*
X282656Y369382D02*
Y379618D01*
X277144Y369382D02*
X282656D01*
X277144D02*
Y379618D01*
X282656D01*
X259245Y341335D02*
Y351571D01*
X264757D01*
Y341335D02*
Y351571D01*
X259245Y341335D02*
X264757D01*
X214601Y288420D02*
X227199D01*
Y303380D01*
X214601D02*
X227199D01*
X214601Y288420D02*
Y303380D01*
X220245Y279336D02*
Y283864D01*
X211355D02*
X220245D01*
X211355Y279336D02*
Y283864D01*
Y279336D02*
X220245D01*
X265838Y369576D02*
X270562D01*
Y379024D01*
X265838D02*
X270562D01*
X265838Y369576D02*
Y379024D01*
Y363987D02*
X270562D01*
X265838Y354538D02*
Y363987D01*
Y354538D02*
X270562D01*
Y363987D01*
X242611Y298437D02*
X257989D01*
Y290563D02*
Y298437D01*
X242611Y290563D02*
X257989D01*
X242611D02*
Y298437D01*
D95*
X370631Y383616D02*
Y381255D01*
X369450D01*
X369056Y381649D01*
Y382436D01*
X369450Y382829D01*
X370631D01*
X369844D02*
X369056Y383616D01*
X368269D02*
X367482D01*
X367876D01*
Y381255D01*
X368269Y381649D01*
X364727Y383616D02*
X366301D01*
X364727Y382042D01*
Y381649D01*
X365121Y381255D01*
X365908D01*
X366301Y381649D01*
X370631Y389017D02*
Y386655D01*
X369450D01*
X369056Y387049D01*
Y387836D01*
X369450Y388229D01*
X370631D01*
X369844D02*
X369056Y389017D01*
X368269D02*
X367482D01*
X367876D01*
Y386655D01*
X368269Y387049D01*
X366301D02*
X365908Y386655D01*
X365121D01*
X364727Y387049D01*
Y387442D01*
X365121Y387836D01*
X365514D01*
X365121D01*
X364727Y388229D01*
Y388623D01*
X365121Y389017D01*
X365908D01*
X366301Y388623D01*
X228178Y360683D02*
Y358322D01*
X226997D01*
X226604Y358716D01*
Y359503D01*
X226997Y359896D01*
X228178D01*
X227391D02*
X226604Y360683D01*
X225816Y358322D02*
X224242D01*
Y358716D01*
X225816Y360290D01*
Y360683D01*
X228178Y366383D02*
Y364022D01*
X226997D01*
X226604Y364416D01*
Y365203D01*
X226997Y365596D01*
X228178D01*
X227391D02*
X226604Y366383D01*
X224636D02*
Y364022D01*
X225816Y365203D01*
X224242D01*
X228178Y371783D02*
Y369421D01*
X226997D01*
X226604Y369815D01*
Y370602D01*
X226997Y370995D01*
X228178D01*
X227391D02*
X226604Y371783D01*
X225816Y369815D02*
X225423Y369421D01*
X224636D01*
X224242Y369815D01*
Y370208D01*
X224636Y370602D01*
X224242Y370995D01*
Y371389D01*
X224636Y371783D01*
X225423D01*
X225816Y371389D01*
Y370995D01*
X225423Y370602D01*
X225816Y370208D01*
Y369815D01*
X225423Y370602D02*
X224636D01*
X228178Y377349D02*
Y374988D01*
X226997D01*
X226604Y375381D01*
Y376169D01*
X226997Y376562D01*
X228178D01*
X227391D02*
X226604Y377349D01*
X225816D02*
X225029D01*
X225423D01*
Y374988D01*
X225816Y375381D01*
X279372Y363931D02*
X281733D01*
Y362750D01*
X281339Y362356D01*
X280552D01*
X280159Y362750D01*
Y363931D01*
Y363144D02*
X279372Y362356D01*
Y359995D02*
Y361569D01*
X280946Y359995D01*
X281339D01*
X281733Y360388D01*
Y361176D01*
X281339Y361569D01*
X279372Y357633D02*
Y359208D01*
X280946Y357633D01*
X281339D01*
X281733Y358027D01*
Y358814D01*
X281339Y359208D01*
X322869Y327917D02*
Y330279D01*
X324050D01*
X324444Y329885D01*
Y329098D01*
X324050Y328705D01*
X322869D01*
X323656D02*
X324444Y327917D01*
X325231D02*
X326018D01*
X325624D01*
Y330279D01*
X325231Y329885D01*
X327199Y327917D02*
X327986D01*
X327592D01*
Y330279D01*
X327199Y329885D01*
X275595Y355269D02*
X273234D01*
Y356450D01*
X273628Y356844D01*
X274415D01*
X274808Y356450D01*
Y355269D01*
Y356056D02*
X275595Y356844D01*
Y359205D02*
Y357631D01*
X274021Y359205D01*
X273628D01*
X273234Y358811D01*
Y358024D01*
X273628Y357631D01*
Y359992D02*
X273234Y360386D01*
Y361173D01*
X273628Y361566D01*
X274021D01*
X274415Y361173D01*
Y360779D01*
Y361173D01*
X274808Y361566D01*
X275202D01*
X275595Y361173D01*
Y360386D01*
X275202Y359992D01*
X273317Y378731D02*
X275679D01*
Y377550D01*
X275285Y377156D01*
X274498D01*
X274104Y377550D01*
Y378731D01*
Y377944D02*
X273317Y377156D01*
X275679Y374795D02*
X275285Y375582D01*
X274498Y376369D01*
X273711D01*
X273317Y375976D01*
Y375188D01*
X273711Y374795D01*
X274104D01*
X274498Y375188D01*
Y376369D01*
X285117Y363931D02*
X287479D01*
Y362750D01*
X287085Y362356D01*
X286298D01*
X285905Y362750D01*
Y363931D01*
Y363144D02*
X285117Y362356D01*
X287479Y359995D02*
Y361569D01*
X286298D01*
X286692Y360782D01*
Y360388D01*
X286298Y359995D01*
X285511D01*
X285117Y360388D01*
Y361176D01*
X285511Y361569D01*
X278817Y378831D02*
X281179D01*
Y377650D01*
X280785Y377256D01*
X279998D01*
X279605Y377650D01*
Y378831D01*
Y378044D02*
X278817Y377256D01*
X280785Y376469D02*
X281179Y376076D01*
Y375289D01*
X280785Y374895D01*
X280392D01*
X279998Y375289D01*
Y375682D01*
Y375289D01*
X279605Y374895D01*
X279211D01*
X278817Y375289D01*
Y376076D01*
X279211Y376469D01*
X263083Y342122D02*
X260722D01*
Y343303D01*
X261116Y343696D01*
X261903D01*
X262296Y343303D01*
Y342122D01*
Y342909D02*
X263083Y343696D01*
Y346058D02*
Y344483D01*
X261509Y346058D01*
X261116D01*
X260722Y345664D01*
Y344877D01*
X261116Y344483D01*
M02*
