G04*
G04 #@! TF.GenerationSoftware,Altium Limited,Altium Designer,21.0.8 (223)*
G04*
G04 Layer_Physical_Order=2*
G04 Layer_Color=16711680*
%FSLAX25Y25*%
%MOIN*%
G70*
G04*
G04 #@! TF.SameCoordinates,3B633D02-0EC4-4577-A0D3-F38BB98637A7*
G04*
G04*
G04 #@! TF.FilePolarity,Positive*
G04*
G01*
G75*
%ADD11C,0.01000*%
%ADD65C,0.02000*%
%ADD66C,0.00800*%
%ADD68C,0.01500*%
%ADD79C,0.04134*%
%ADD80O,0.07874X0.05906*%
%ADD81O,0.05512X0.10236*%
%ADD82C,0.09449*%
%ADD83C,0.02362*%
%ADD84C,0.01968*%
%ADD85C,0.04000*%
%ADD86C,0.03937*%
%ADD87R,0.07480X0.07480*%
%ADD88R,0.07480X0.07087*%
%ADD89R,0.05315X0.01575*%
%ADD90R,0.06299X0.08268*%
%ADD91R,0.06890X0.10433*%
G36*
X368266Y388519D02*
X368762Y388187D01*
X369347Y388071D01*
X369414D01*
X372471Y385014D01*
Y382033D01*
X362714Y372276D01*
X356623D01*
X356037Y372160D01*
X355541Y371829D01*
X354430Y370717D01*
X354098Y370221D01*
X353982Y369636D01*
Y359723D01*
X354098Y359138D01*
X354430Y358641D01*
X354491Y358600D01*
Y358498D01*
X354569Y358108D01*
X354790Y357778D01*
X355602Y356966D01*
X355933Y356745D01*
X356323Y356667D01*
X356511D01*
Y355967D01*
X355960D01*
X355570Y355889D01*
X355239Y355668D01*
X350979Y351408D01*
X350758Y351078D01*
X350680Y350687D01*
Y335175D01*
X348414Y332909D01*
X342620D01*
X342230Y332832D01*
X341899Y332611D01*
X339759Y330470D01*
X337139D01*
X336872Y330970D01*
X336897Y331009D01*
X337157D01*
X337775Y331264D01*
X338248Y331737D01*
X338504Y332355D01*
Y333024D01*
X338248Y333642D01*
X337775Y334115D01*
X337157Y334371D01*
X336489D01*
X336461Y334359D01*
X335893Y334665D01*
X335743Y335026D01*
X335270Y335499D01*
X334652Y335755D01*
X333983D01*
X333366Y335499D01*
X332893Y335026D01*
X332637Y334408D01*
Y333739D01*
X332893Y333122D01*
X333138Y332876D01*
Y332688D01*
X332657Y332207D01*
X332436Y331876D01*
X332359Y331486D01*
Y329415D01*
X332436Y329025D01*
X332657Y328694D01*
X334122Y327230D01*
X334453Y327009D01*
X334843Y326931D01*
X340802D01*
X341192Y327009D01*
X341523Y327230D01*
X343663Y329370D01*
X349458D01*
X349848Y329448D01*
X350179Y329669D01*
X353921Y333411D01*
X354142Y333741D01*
X354220Y334132D01*
Y349644D01*
X355961Y351385D01*
X356511D01*
Y348829D01*
Y348829D01*
X359668D01*
X362826D01*
Y348829D01*
Y351388D01*
Y353947D01*
Y356506D01*
Y359081D01*
X357423D01*
X357012Y359581D01*
X357040Y359723D01*
Y360246D01*
X363810D01*
Y366617D01*
X365960D01*
Y363593D01*
X369180D01*
Y361640D01*
X365960D01*
Y353160D01*
X369180D01*
Y352191D01*
X365960D01*
Y343711D01*
X369180D01*
Y341758D01*
X365960D01*
Y338735D01*
X363810D01*
Y345105D01*
X356511D01*
Y335837D01*
X363810D01*
Y336695D01*
X365960D01*
Y333672D01*
X374440D01*
Y341758D01*
X371220D01*
Y343711D01*
X374440D01*
Y352191D01*
X371220D01*
Y353160D01*
X374440D01*
Y361640D01*
X371220D01*
Y363593D01*
X374440D01*
Y370581D01*
X374460Y370679D01*
Y372072D01*
X374480Y372083D01*
X374980Y371786D01*
Y218720D01*
X210103Y218720D01*
X210103Y355620D01*
X210603Y355720D01*
X210718Y355443D01*
X211190Y354970D01*
X211808Y354714D01*
X212477D01*
X212843Y354866D01*
X217639D01*
X217763Y354663D01*
X217519Y354104D01*
X217503Y354101D01*
X217007Y353770D01*
X214319Y351081D01*
X213987Y350585D01*
X213871Y350000D01*
Y288795D01*
X213633Y288558D01*
X213301Y288061D01*
X213185Y287476D01*
Y272872D01*
X213301Y272286D01*
X213633Y271790D01*
X214805Y270619D01*
X215301Y270287D01*
X215886Y270171D01*
X226136D01*
X226722Y270287D01*
X227218Y270619D01*
X232318Y275719D01*
X238045D01*
Y287152D01*
X230155D01*
Y277882D01*
X225503Y273229D01*
X224545D01*
Y282089D01*
X228136Y285680D01*
X228234D01*
X228852Y285936D01*
X229324Y286409D01*
X229580Y287027D01*
Y287696D01*
X229324Y288314D01*
X228852Y288787D01*
X228234Y289042D01*
X227565D01*
X226947Y288787D01*
X226595Y288435D01*
X226504Y288373D01*
X222382Y284252D01*
X216655D01*
X216244Y284466D01*
Y286843D01*
X216481Y287080D01*
X216813Y287576D01*
X216929Y288162D01*
Y289748D01*
X219007D01*
Y287336D01*
X218855Y286969D01*
Y286301D01*
X219111Y285683D01*
X219584Y285210D01*
X220202Y284954D01*
X220870D01*
X221488Y285210D01*
X221961Y285683D01*
X222217Y286301D01*
Y286969D01*
X222065Y287336D01*
Y289748D01*
X224545D01*
Y296635D01*
X230155D01*
Y292648D01*
X238045D01*
Y304081D01*
X230155D01*
Y299694D01*
X224545D01*
Y301181D01*
X216929D01*
Y349366D01*
X218722Y351159D01*
X221435D01*
X222021Y351275D01*
X222517Y351607D01*
X223981Y353071D01*
X224313Y353567D01*
X224429Y354153D01*
Y357035D01*
X224313Y357621D01*
X223981Y358117D01*
X218717Y363381D01*
X218221Y363713D01*
X217635Y363829D01*
X213435D01*
X212867Y364398D01*
Y387795D01*
X213142Y388071D01*
X213209D01*
X213794Y388187D01*
X214290Y388519D01*
X214329Y388576D01*
X318197D01*
X318325Y388210D01*
X318335Y388075D01*
X317697Y387438D01*
X317338Y386570D01*
Y385630D01*
X317697Y384762D01*
X318362Y384097D01*
X318910Y383871D01*
Y383329D01*
X318362Y383103D01*
X317697Y382438D01*
X317338Y381570D01*
Y380630D01*
X317697Y379762D01*
X318362Y379097D01*
X319230Y378738D01*
X320170D01*
X321038Y379097D01*
X321703Y379762D01*
X321812Y380027D01*
X322068Y380069D01*
X322354Y380029D01*
X322646Y379524D01*
X323124Y379046D01*
X323709Y378708D01*
X324362Y378533D01*
X325038D01*
X325691Y378708D01*
X325947Y378856D01*
X327251Y377551D01*
X327549Y377352D01*
X327900Y377282D01*
X329419D01*
X329770Y377352D01*
X329872Y377420D01*
X330991D01*
X331248Y377164D01*
X331651Y376997D01*
X331808Y376446D01*
X314386Y359024D01*
X314165Y358693D01*
X314087Y358303D01*
Y346239D01*
X314165Y345848D01*
X314386Y345518D01*
X318603Y341301D01*
Y340750D01*
X318859Y340132D01*
X319332Y339659D01*
X319950Y339403D01*
X320619D01*
X321140Y339082D01*
X321163Y339019D01*
X320827Y338684D01*
X320244Y338442D01*
X319771Y337970D01*
X319515Y337352D01*
Y336683D01*
X319771Y336065D01*
X320244Y335592D01*
X320862Y335336D01*
X321435D01*
X321780Y334991D01*
Y327222D01*
X319940Y325382D01*
X319719Y325051D01*
X319641Y324661D01*
Y324053D01*
X319448Y323973D01*
X318975Y323500D01*
X318719Y322882D01*
Y322214D01*
X318975Y321596D01*
X319448Y321123D01*
X320066Y320867D01*
X320734D01*
X321352Y321123D01*
X321825Y321596D01*
X322081Y322214D01*
Y322882D01*
X321825Y323500D01*
X321680Y323645D01*
Y324238D01*
X323521Y326079D01*
X323742Y326410D01*
X323820Y326800D01*
Y335413D01*
X323742Y335804D01*
X323521Y336134D01*
X322877Y336778D01*
Y337129D01*
X323617Y337869D01*
X323893Y338282D01*
X323990Y338770D01*
Y342091D01*
X323893Y342579D01*
X323617Y342992D01*
X322460Y344149D01*
Y359257D01*
X336285Y373082D01*
X352007D01*
X352158Y372932D01*
X352776Y372676D01*
X353444D01*
X354062Y372932D01*
X354535Y373404D01*
X354791Y374022D01*
Y374691D01*
X354777Y374726D01*
X355849Y375798D01*
X356048Y376096D01*
X356118Y376447D01*
Y382740D01*
X356152Y382754D01*
X356625Y383227D01*
X356881Y383845D01*
Y384514D01*
X356625Y385132D01*
X356152Y385604D01*
X355534Y385860D01*
X354866D01*
X354248Y385604D01*
X353775Y385132D01*
X353519Y384514D01*
Y383845D01*
X353775Y383227D01*
X354248Y382754D01*
X354282Y382740D01*
Y376827D01*
X353479Y376024D01*
X353444Y376038D01*
X352776D01*
X352158Y375782D01*
X352007Y375631D01*
X341826D01*
X341635Y376093D01*
X344136Y378594D01*
X344362Y378533D01*
X345038D01*
X345691Y378708D01*
X346276Y379046D01*
X346754Y379524D01*
X347046Y380029D01*
X347332Y380069D01*
X347588Y380027D01*
X347697Y379762D01*
X348362Y379097D01*
X349230Y378738D01*
X350170D01*
X351038Y379097D01*
X351703Y379762D01*
X352062Y380630D01*
Y381570D01*
X351703Y382438D01*
X351038Y383103D01*
X350490Y383329D01*
Y383871D01*
X351038Y384097D01*
X351703Y384762D01*
X352062Y385630D01*
Y386570D01*
X351703Y387438D01*
X351065Y388075D01*
X351075Y388210D01*
X351203Y388576D01*
X368228D01*
X368266Y388519D01*
D02*
G37*
%LPC*%
G36*
X292091Y378559D02*
X291422D01*
X290804Y378303D01*
X290332Y377830D01*
X290076Y377212D01*
Y377070D01*
X287962Y374956D01*
X287605Y374605D01*
X287605Y374605D01*
X286862Y373700D01*
X286310Y372668D01*
X285991Y371615D01*
X285709Y371333D01*
X285453Y370715D01*
Y370047D01*
X285709Y369429D01*
X286182Y368956D01*
X286800Y368700D01*
X287469D01*
X287668Y368782D01*
X289474D01*
X294323Y363933D01*
X294475Y363567D01*
X294948Y363094D01*
X295566Y362838D01*
X296139D01*
X297557Y361420D01*
X297888Y361199D01*
X298278Y361121D01*
X300541D01*
X300931Y361199D01*
X301262Y361420D01*
X301971Y362129D01*
X302192Y362460D01*
X302270Y362850D01*
Y366880D01*
X302470Y367080D01*
X308848D01*
X309201Y366728D01*
X309819Y366472D01*
X310487D01*
X311105Y366728D01*
X311578Y367201D01*
X311834Y367818D01*
Y368487D01*
X311578Y369105D01*
X311105Y369578D01*
X310766Y369719D01*
X310637Y370296D01*
X310677Y370337D01*
X310933Y370954D01*
Y371623D01*
X310677Y372241D01*
X310204Y372714D01*
X309587Y372970D01*
X308918D01*
X308300Y372714D01*
X307827Y372241D01*
X307571Y371623D01*
Y371181D01*
X307010Y370620D01*
X300204D01*
X299802Y371022D01*
X299184Y371278D01*
X298516D01*
X297898Y371022D01*
X297455Y370579D01*
X297290Y370557D01*
X296903Y370596D01*
X296681Y370927D01*
X293707Y373901D01*
Y374114D01*
X293451Y374732D01*
X292978Y375205D01*
X292996Y375739D01*
X293182Y375925D01*
X293438Y376543D01*
Y377212D01*
X293182Y377830D01*
X292709Y378303D01*
X292091Y378559D01*
D02*
G37*
G36*
X265134Y355181D02*
X264466D01*
X263848Y354925D01*
X263375Y354452D01*
X263119Y353834D01*
Y353166D01*
X263375Y352548D01*
X263848Y352075D01*
X264431Y351833D01*
X265125Y351139D01*
Y349603D01*
X264975Y349452D01*
X264719Y348834D01*
Y348166D01*
X264975Y347548D01*
X265448Y347075D01*
X266066Y346819D01*
X266734D01*
X267352Y347075D01*
X267825Y347548D01*
X268081Y348166D01*
Y348834D01*
X267825Y349452D01*
X267674Y349603D01*
Y351667D01*
X267578Y352154D01*
X267301Y352568D01*
X266481Y353388D01*
Y353834D01*
X266225Y354452D01*
X265752Y354925D01*
X265134Y355181D01*
D02*
G37*
G36*
X224684Y347482D02*
X222716D01*
X221814Y347364D01*
X220974Y347016D01*
X220253Y346462D01*
X219700Y345741D01*
X219352Y344901D01*
X219233Y344000D01*
X219352Y343099D01*
X219700Y342259D01*
X220253Y341537D01*
X220974Y340984D01*
X221814Y340636D01*
X222716Y340517D01*
X224684D01*
X225586Y340636D01*
X226426Y340984D01*
X227147Y341537D01*
X227700Y342259D01*
X228048Y343099D01*
X228167Y344000D01*
X228048Y344901D01*
X227700Y345741D01*
X227147Y346462D01*
X226426Y347016D01*
X225586Y347364D01*
X224684Y347482D01*
D02*
G37*
G36*
X254817Y347471D02*
X252848D01*
X251947Y347352D01*
X251107Y347004D01*
X250386Y346451D01*
X249832Y345729D01*
X249484Y344889D01*
X249366Y343988D01*
X249484Y343087D01*
X249832Y342247D01*
X250386Y341526D01*
X251107Y340972D01*
X251947Y340624D01*
X252848Y340506D01*
X254817D01*
X255718Y340624D01*
X256558Y340972D01*
X257279Y341526D01*
X257833Y342247D01*
X258181Y343087D01*
X258299Y343988D01*
X258181Y344889D01*
X257833Y345729D01*
X257279Y346451D01*
X256558Y347004D01*
X255718Y347352D01*
X254817Y347471D01*
D02*
G37*
G36*
X224684Y337483D02*
X222716D01*
X221814Y337364D01*
X220974Y337016D01*
X220253Y336462D01*
X219700Y335741D01*
X219352Y334901D01*
X219233Y334000D01*
X219352Y333099D01*
X219700Y332259D01*
X220253Y331538D01*
X220974Y330984D01*
X221814Y330636D01*
X222716Y330518D01*
X224684D01*
X225586Y330636D01*
X226426Y330984D01*
X227147Y331538D01*
X227700Y332259D01*
X228048Y333099D01*
X228167Y334000D01*
X228048Y334901D01*
X227700Y335741D01*
X227147Y336462D01*
X226426Y337016D01*
X225586Y337364D01*
X224684Y337483D01*
D02*
G37*
G36*
X254817Y337471D02*
X252848D01*
X251947Y337352D01*
X251107Y337004D01*
X250386Y336451D01*
X249832Y335729D01*
X249484Y334890D01*
X249366Y333988D01*
X249484Y333087D01*
X249832Y332247D01*
X250386Y331526D01*
X251107Y330972D01*
X251947Y330624D01*
X252848Y330506D01*
X254817D01*
X255718Y330624D01*
X256558Y330972D01*
X257279Y331526D01*
X257833Y332247D01*
X258181Y333087D01*
X258299Y333988D01*
X258181Y334890D01*
X257833Y335729D01*
X257279Y336451D01*
X256558Y337004D01*
X255718Y337352D01*
X254817Y337471D01*
D02*
G37*
G36*
X224684Y327483D02*
X222716D01*
X221814Y327364D01*
X220974Y327016D01*
X220253Y326463D01*
X219700Y325741D01*
X219352Y324901D01*
X219233Y324000D01*
X219352Y323099D01*
X219700Y322259D01*
X220253Y321537D01*
X220974Y320984D01*
X221814Y320636D01*
X222716Y320517D01*
X224684D01*
X225586Y320636D01*
X226426Y320984D01*
X227147Y321537D01*
X227700Y322259D01*
X228048Y323099D01*
X228167Y324000D01*
X228048Y324901D01*
X227700Y325741D01*
X227147Y326463D01*
X226426Y327016D01*
X225586Y327364D01*
X224684Y327483D01*
D02*
G37*
G36*
X254817Y327471D02*
X252848D01*
X251947Y327352D01*
X251107Y327004D01*
X250386Y326451D01*
X249832Y325729D01*
X249484Y324889D01*
X249366Y323988D01*
X249484Y323087D01*
X249832Y322247D01*
X250386Y321526D01*
X251107Y320972D01*
X251947Y320624D01*
X252848Y320506D01*
X254817D01*
X255718Y320624D01*
X256558Y320972D01*
X257279Y321526D01*
X257833Y322247D01*
X258181Y323087D01*
X258299Y323988D01*
X258181Y324889D01*
X257833Y325729D01*
X257279Y326451D01*
X256558Y327004D01*
X255718Y327352D01*
X254817Y327471D01*
D02*
G37*
G36*
X300564Y320606D02*
Y317618D01*
X301879D01*
Y318012D01*
X301767Y318862D01*
X301439Y319654D01*
X300917Y320334D01*
X300564Y320606D01*
D02*
G37*
G36*
X296627Y320606D02*
X296273Y320334D01*
X295751Y319654D01*
X295423Y318862D01*
X295311Y318012D01*
Y317618D01*
X296627D01*
Y320606D01*
D02*
G37*
G36*
X301879Y313682D02*
X300564D01*
Y310694D01*
X300917Y310966D01*
X301439Y311646D01*
X301767Y312438D01*
X301879Y313288D01*
Y313682D01*
D02*
G37*
G36*
X296627D02*
X295311D01*
Y313288D01*
X295423Y312438D01*
X295751Y311646D01*
X296273Y310966D01*
X296627Y310694D01*
Y313682D01*
D02*
G37*
G36*
X350563Y321296D02*
X349713Y321184D01*
X348921Y320856D01*
X348241Y320334D01*
X347719Y319654D01*
X347391Y318862D01*
X347279Y318012D01*
Y313288D01*
X347391Y312438D01*
X347719Y311646D01*
X348241Y310966D01*
X348921Y310444D01*
X349713Y310116D01*
X350563Y310004D01*
X351413Y310116D01*
X352205Y310444D01*
X352885Y310966D01*
X353407Y311646D01*
X353735Y312438D01*
X353847Y313288D01*
Y318012D01*
X353735Y318862D01*
X353407Y319654D01*
X352885Y320334D01*
X352205Y320856D01*
X351413Y321184D01*
X350563Y321296D01*
D02*
G37*
G36*
X341902D02*
X341052Y321184D01*
X340260Y320856D01*
X339580Y320334D01*
X339058Y319654D01*
X338730Y318862D01*
X338618Y318012D01*
Y313288D01*
X338730Y312438D01*
X339058Y311646D01*
X339580Y310966D01*
X340260Y310444D01*
X341052Y310116D01*
X341902Y310004D01*
X342752Y310116D01*
X343544Y310444D01*
X344224Y310966D01*
X344746Y311646D01*
X345074Y312438D01*
X345186Y313288D01*
Y318012D01*
X345074Y318862D01*
X344746Y319654D01*
X344224Y320334D01*
X343544Y320856D01*
X342752Y321184D01*
X341902Y321296D01*
D02*
G37*
G36*
X333240D02*
X332390Y321184D01*
X331598Y320856D01*
X330918Y320334D01*
X330396Y319654D01*
X330068Y318862D01*
X329956Y318012D01*
Y313288D01*
X330068Y312438D01*
X330396Y311646D01*
X330918Y310966D01*
X331598Y310444D01*
X332390Y310116D01*
X333240Y310004D01*
X334090Y310116D01*
X334882Y310444D01*
X335562Y310966D01*
X336084Y311646D01*
X336412Y312438D01*
X336524Y313288D01*
Y318012D01*
X336412Y318862D01*
X336084Y319654D01*
X335562Y320334D01*
X334882Y320856D01*
X334090Y321184D01*
X333240Y321296D01*
D02*
G37*
G36*
X324579D02*
X323729Y321184D01*
X322937Y320856D01*
X322257Y320334D01*
X321735Y319654D01*
X321407Y318862D01*
X321295Y318012D01*
Y313288D01*
X321407Y312438D01*
X321735Y311646D01*
X322257Y310966D01*
X322937Y310444D01*
X323729Y310116D01*
X324579Y310004D01*
X325429Y310116D01*
X326221Y310444D01*
X326901Y310966D01*
X327423Y311646D01*
X327751Y312438D01*
X327863Y313288D01*
Y318012D01*
X327751Y318862D01*
X327423Y319654D01*
X326901Y320334D01*
X326221Y320856D01*
X325429Y321184D01*
X324579Y321296D01*
D02*
G37*
G36*
X315918D02*
X315068Y321184D01*
X314276Y320856D01*
X313596Y320334D01*
X313074Y319654D01*
X312746Y318862D01*
X312634Y318012D01*
Y313288D01*
X312746Y312438D01*
X313074Y311646D01*
X313596Y310966D01*
X314276Y310444D01*
X315068Y310116D01*
X315918Y310004D01*
X316768Y310116D01*
X317560Y310444D01*
X318240Y310966D01*
X318762Y311646D01*
X319090Y312438D01*
X319202Y313288D01*
Y318012D01*
X319090Y318862D01*
X318762Y319654D01*
X318240Y320334D01*
X317560Y320856D01*
X316768Y321184D01*
X315918Y321296D01*
D02*
G37*
G36*
X307256D02*
X306406Y321184D01*
X305614Y320856D01*
X304934Y320334D01*
X304412Y319654D01*
X304084Y318862D01*
X303972Y318012D01*
Y313288D01*
X304084Y312438D01*
X304412Y311646D01*
X304934Y310966D01*
X305614Y310444D01*
X306406Y310116D01*
X307256Y310004D01*
X308106Y310116D01*
X308898Y310444D01*
X309578Y310966D01*
X310100Y311646D01*
X310428Y312438D01*
X310540Y313288D01*
Y318012D01*
X310428Y318862D01*
X310100Y319654D01*
X309578Y320334D01*
X308898Y320856D01*
X308106Y321184D01*
X307256Y321296D01*
D02*
G37*
G36*
X289933D02*
X289083Y321184D01*
X288291Y320856D01*
X287611Y320334D01*
X287089Y319654D01*
X286761Y318862D01*
X286649Y318012D01*
Y313288D01*
X286761Y312438D01*
X287089Y311646D01*
X287611Y310966D01*
X288291Y310444D01*
X289083Y310116D01*
X289933Y310004D01*
X290783Y310116D01*
X291575Y310444D01*
X292255Y310966D01*
X292777Y311646D01*
X293105Y312438D01*
X293217Y313288D01*
Y318012D01*
X293105Y318862D01*
X292777Y319654D01*
X292255Y320334D01*
X291575Y320856D01*
X290783Y321184D01*
X289933Y321296D01*
D02*
G37*
G36*
X281272D02*
X280422Y321184D01*
X279630Y320856D01*
X278950Y320334D01*
X278428Y319654D01*
X278100Y318862D01*
X277988Y318012D01*
Y313288D01*
X278100Y312438D01*
X278428Y311646D01*
X278950Y310966D01*
X279630Y310444D01*
X280422Y310116D01*
X281272Y310004D01*
X282122Y310116D01*
X282914Y310444D01*
X283594Y310966D01*
X284116Y311646D01*
X284444Y312438D01*
X284556Y313288D01*
Y318012D01*
X284444Y318862D01*
X284116Y319654D01*
X283594Y320334D01*
X282914Y320856D01*
X282122Y321184D01*
X281272Y321296D01*
D02*
G37*
G36*
X272611D02*
X271761Y321184D01*
X270969Y320856D01*
X270289Y320334D01*
X269767Y319654D01*
X269439Y318862D01*
X269327Y318012D01*
Y313288D01*
X269439Y312438D01*
X269486Y312325D01*
X265387Y308226D01*
X265055Y307730D01*
X264939Y307145D01*
Y307028D01*
X264670Y306917D01*
X263966Y306213D01*
X263586Y305295D01*
Y304300D01*
X263966Y303381D01*
X264670Y302678D01*
X265588Y302297D01*
X266583D01*
X267502Y302678D01*
X268205Y303381D01*
X268586Y304300D01*
Y305295D01*
X268205Y306213D01*
X267998Y306421D01*
Y306512D01*
X271649Y310162D01*
X271761Y310116D01*
X272611Y310004D01*
X273461Y310116D01*
X274253Y310444D01*
X274933Y310966D01*
X275455Y311646D01*
X275783Y312438D01*
X275895Y313288D01*
Y318012D01*
X275783Y318862D01*
X275455Y319654D01*
X274933Y320334D01*
X274253Y320856D01*
X273461Y321184D01*
X272611Y321296D01*
D02*
G37*
G36*
X356469Y307516D02*
X355619Y307404D01*
X354827Y307076D01*
X354147Y306554D01*
X353625Y305874D01*
X353297Y305082D01*
X353185Y304232D01*
Y299508D01*
X353297Y298658D01*
X353625Y297866D01*
X354147Y297186D01*
X354827Y296664D01*
X355619Y296336D01*
X356469Y296224D01*
X357319Y296336D01*
X358111Y296664D01*
X358791Y297186D01*
X359313Y297866D01*
X359641Y298658D01*
X359753Y299508D01*
Y304232D01*
X359641Y305082D01*
X359313Y305874D01*
X358791Y306554D01*
X358111Y307076D01*
X357319Y307404D01*
X356469Y307516D01*
D02*
G37*
G36*
X347807D02*
X346957Y307404D01*
X346165Y307076D01*
X345485Y306554D01*
X344963Y305874D01*
X344635Y305082D01*
X344523Y304232D01*
Y299508D01*
X344635Y298658D01*
X344963Y297866D01*
X345485Y297186D01*
X346165Y296664D01*
X346957Y296336D01*
X347807Y296224D01*
X348657Y296336D01*
X349449Y296664D01*
X350129Y297186D01*
X350651Y297866D01*
X350979Y298658D01*
X351091Y299508D01*
Y304232D01*
X350979Y305082D01*
X350651Y305874D01*
X350129Y306554D01*
X349449Y307076D01*
X348657Y307404D01*
X347807Y307516D01*
D02*
G37*
G36*
X339146D02*
X338296Y307404D01*
X337504Y307076D01*
X336824Y306554D01*
X336302Y305874D01*
X335974Y305082D01*
X335862Y304232D01*
Y299508D01*
X335974Y298658D01*
X336302Y297866D01*
X336824Y297186D01*
X337504Y296664D01*
X338296Y296336D01*
X339146Y296224D01*
X339996Y296336D01*
X340788Y296664D01*
X341468Y297186D01*
X341990Y297866D01*
X342318Y298658D01*
X342430Y299508D01*
Y304232D01*
X342318Y305082D01*
X341990Y305874D01*
X341468Y306554D01*
X340788Y307076D01*
X339996Y307404D01*
X339146Y307516D01*
D02*
G37*
G36*
X330485D02*
X329635Y307404D01*
X328843Y307076D01*
X328163Y306554D01*
X327641Y305874D01*
X327313Y305082D01*
X327201Y304232D01*
Y299508D01*
X327313Y298658D01*
X327641Y297866D01*
X328163Y297186D01*
X328843Y296664D01*
X329635Y296336D01*
X330485Y296224D01*
X331335Y296336D01*
X332127Y296664D01*
X332807Y297186D01*
X333329Y297866D01*
X333657Y298658D01*
X333769Y299508D01*
Y304232D01*
X333657Y305082D01*
X333329Y305874D01*
X332807Y306554D01*
X332127Y307076D01*
X331335Y307404D01*
X330485Y307516D01*
D02*
G37*
G36*
X321823D02*
X320973Y307404D01*
X320181Y307076D01*
X319501Y306554D01*
X318979Y305874D01*
X318651Y305082D01*
X318539Y304232D01*
Y299508D01*
X318651Y298658D01*
X318979Y297866D01*
X319501Y297186D01*
X320181Y296664D01*
X320973Y296336D01*
X321823Y296224D01*
X322673Y296336D01*
X323465Y296664D01*
X324145Y297186D01*
X324667Y297866D01*
X324995Y298658D01*
X325107Y299508D01*
Y304232D01*
X324995Y305082D01*
X324667Y305874D01*
X324145Y306554D01*
X323465Y307076D01*
X322673Y307404D01*
X321823Y307516D01*
D02*
G37*
G36*
X313162D02*
X312312Y307404D01*
X311520Y307076D01*
X310840Y306554D01*
X310318Y305874D01*
X309990Y305082D01*
X309878Y304232D01*
Y299508D01*
X309990Y298658D01*
X310318Y297866D01*
X310840Y297186D01*
X311520Y296664D01*
X312312Y296336D01*
X313162Y296224D01*
X314012Y296336D01*
X314804Y296664D01*
X315484Y297186D01*
X316006Y297866D01*
X316334Y298658D01*
X316446Y299508D01*
Y304232D01*
X316334Y305082D01*
X316006Y305874D01*
X315484Y306554D01*
X314804Y307076D01*
X314012Y307404D01*
X313162Y307516D01*
D02*
G37*
G36*
X304500D02*
X303650Y307404D01*
X302858Y307076D01*
X302178Y306554D01*
X301656Y305874D01*
X301328Y305082D01*
X301216Y304232D01*
Y299508D01*
X301328Y298658D01*
X301656Y297866D01*
X302178Y297186D01*
X302858Y296664D01*
X303650Y296336D01*
X304500Y296224D01*
X305350Y296336D01*
X306142Y296664D01*
X306822Y297186D01*
X307344Y297866D01*
X307672Y298658D01*
X307784Y299508D01*
Y304232D01*
X307672Y305082D01*
X307344Y305874D01*
X306822Y306554D01*
X306142Y307076D01*
X305350Y307404D01*
X304500Y307516D01*
D02*
G37*
G36*
X295839D02*
X294989Y307404D01*
X294197Y307076D01*
X293517Y306554D01*
X292995Y305874D01*
X292667Y305082D01*
X292555Y304232D01*
Y299508D01*
X292667Y298658D01*
X292995Y297866D01*
X293517Y297186D01*
X294197Y296664D01*
X294989Y296336D01*
X295839Y296224D01*
X296689Y296336D01*
X297481Y296664D01*
X298161Y297186D01*
X298683Y297866D01*
X299011Y298658D01*
X299123Y299508D01*
Y304232D01*
X299011Y305082D01*
X298683Y305874D01*
X298161Y306554D01*
X297481Y307076D01*
X296689Y307404D01*
X295839Y307516D01*
D02*
G37*
G36*
X287177D02*
X286327Y307404D01*
X285535Y307076D01*
X284855Y306554D01*
X284333Y305874D01*
X284005Y305082D01*
X283893Y304232D01*
Y299508D01*
X284005Y298658D01*
X284333Y297866D01*
X284855Y297186D01*
X285535Y296664D01*
X286327Y296336D01*
X287177Y296224D01*
X288027Y296336D01*
X288819Y296664D01*
X289499Y297186D01*
X290021Y297866D01*
X290349Y298658D01*
X290461Y299508D01*
Y304232D01*
X290349Y305082D01*
X290021Y305874D01*
X289499Y306554D01*
X288819Y307076D01*
X288027Y307404D01*
X287177Y307516D01*
D02*
G37*
G36*
X278516D02*
X277666Y307404D01*
X276874Y307076D01*
X276194Y306554D01*
X275672Y305874D01*
X275344Y305082D01*
X275232Y304232D01*
Y299508D01*
X275344Y298658D01*
X275672Y297866D01*
X276194Y297186D01*
X276874Y296664D01*
X277666Y296336D01*
X278516Y296224D01*
X279366Y296336D01*
X280158Y296664D01*
X280838Y297186D01*
X281360Y297866D01*
X281688Y298658D01*
X281800Y299508D01*
Y304232D01*
X281688Y305082D01*
X281360Y305874D01*
X280838Y306554D01*
X280158Y307076D01*
X279366Y307404D01*
X278516Y307516D01*
D02*
G37*
G36*
X359731Y269095D02*
X358227D01*
X356775Y268706D01*
X355474Y267955D01*
X354411Y266892D01*
X353659Y265590D01*
X353270Y264138D01*
Y262635D01*
X353659Y261183D01*
X354411Y259881D01*
X355474Y258818D01*
X356775Y258067D01*
X358227Y257678D01*
X359731D01*
X361182Y258067D01*
X362484Y258818D01*
X363547Y259881D01*
X364299Y261183D01*
X364688Y262635D01*
Y264138D01*
X364299Y265590D01*
X363547Y266892D01*
X362484Y267955D01*
X361182Y268706D01*
X359731Y269095D01*
D02*
G37*
G36*
X273116D02*
X271613D01*
X270161Y268706D01*
X268860Y267955D01*
X267797Y266892D01*
X267045Y265590D01*
X266656Y264138D01*
Y262635D01*
X267045Y261183D01*
X267797Y259881D01*
X268860Y258818D01*
X270161Y258067D01*
X271613Y257678D01*
X273116D01*
X274568Y258067D01*
X275870Y258818D01*
X276933Y259881D01*
X277684Y261183D01*
X278073Y262635D01*
Y264138D01*
X277684Y265590D01*
X276933Y266892D01*
X275870Y267955D01*
X274568Y268706D01*
X273116Y269095D01*
D02*
G37*
G36*
X302680Y245508D02*
Y242520D01*
X303995D01*
Y242914D01*
X303883Y243764D01*
X303555Y244556D01*
X303033Y245236D01*
X302680Y245508D01*
D02*
G37*
G36*
X298743Y245508D02*
X298389Y245236D01*
X297867Y244556D01*
X297539Y243764D01*
X297427Y242914D01*
Y242520D01*
X298743D01*
Y245508D01*
D02*
G37*
G36*
X344018Y246198D02*
X343168Y246086D01*
X342376Y245758D01*
X341696Y245236D01*
X341174Y244556D01*
X340846Y243764D01*
X340734Y242914D01*
Y238190D01*
X340754Y238039D01*
X337686Y234970D01*
X337321Y235002D01*
X337215Y235512D01*
X337679Y235868D01*
X338201Y236548D01*
X338529Y237340D01*
X338641Y238190D01*
Y242914D01*
X338529Y243764D01*
X338201Y244556D01*
X337679Y245236D01*
X336999Y245758D01*
X336207Y246086D01*
X335357Y246198D01*
X334507Y246086D01*
X333715Y245758D01*
X333035Y245236D01*
X332513Y244556D01*
X332185Y243764D01*
X332073Y242914D01*
Y238190D01*
X332185Y237340D01*
X332513Y236548D01*
X333035Y235868D01*
X333618Y235420D01*
X333538Y235015D01*
X333488Y234920D01*
X328565D01*
X328514Y235015D01*
X328434Y235420D01*
X329018Y235868D01*
X329540Y236548D01*
X329868Y237340D01*
X329980Y238190D01*
Y242914D01*
X329868Y243764D01*
X329540Y244556D01*
X329018Y245236D01*
X328338Y245758D01*
X327545Y246086D01*
X326696Y246198D01*
X325846Y246086D01*
X325054Y245758D01*
X324373Y245236D01*
X323851Y244556D01*
X323523Y243764D01*
X323412Y242914D01*
Y238190D01*
X323523Y237340D01*
X323851Y236548D01*
X324373Y235868D01*
X324957Y235420D01*
X324877Y235015D01*
X324826Y234920D01*
X319904D01*
X319853Y235015D01*
X319773Y235420D01*
X320356Y235868D01*
X320878Y236548D01*
X321206Y237340D01*
X321318Y238190D01*
Y242914D01*
X321206Y243764D01*
X320878Y244556D01*
X320356Y245236D01*
X319676Y245758D01*
X318884Y246086D01*
X318034Y246198D01*
X317184Y246086D01*
X316392Y245758D01*
X315712Y245236D01*
X315190Y244556D01*
X314862Y243764D01*
X314750Y242914D01*
Y238190D01*
X314862Y237340D01*
X315190Y236548D01*
X315712Y235868D01*
X316296Y235420D01*
X316215Y235015D01*
X316165Y234920D01*
X311242D01*
X311191Y235015D01*
X311111Y235420D01*
X311695Y235868D01*
X312217Y236548D01*
X312545Y237340D01*
X312657Y238190D01*
Y242914D01*
X312545Y243764D01*
X312217Y244556D01*
X311695Y245236D01*
X311015Y245758D01*
X310223Y246086D01*
X309373Y246198D01*
X308523Y246086D01*
X307731Y245758D01*
X307051Y245236D01*
X306529Y244556D01*
X306201Y243764D01*
X306089Y242914D01*
Y238190D01*
X306201Y237340D01*
X306529Y236548D01*
X307051Y235868D01*
X307634Y235420D01*
X307554Y235015D01*
X307503Y234920D01*
X302581D01*
X302530Y235015D01*
X302450Y235420D01*
X303033Y235868D01*
X303555Y236548D01*
X303883Y237340D01*
X303995Y238190D01*
Y238583D01*
X300711D01*
X297427D01*
Y238190D01*
X297539Y237340D01*
X297867Y236548D01*
X298389Y235868D01*
X298973Y235420D01*
X298892Y235015D01*
X298842Y234920D01*
X293919D01*
X293868Y235015D01*
X293788Y235420D01*
X294372Y235868D01*
X294894Y236548D01*
X295222Y237340D01*
X295334Y238190D01*
Y242914D01*
X295222Y243764D01*
X294894Y244556D01*
X294372Y245236D01*
X293692Y245758D01*
X292900Y246086D01*
X292050Y246198D01*
X291200Y246086D01*
X290408Y245758D01*
X289728Y245236D01*
X289206Y244556D01*
X288878Y243764D01*
X288766Y242914D01*
Y238190D01*
X288878Y237340D01*
X289206Y236548D01*
X289728Y235868D01*
X290311Y235420D01*
X290231Y235015D01*
X290180Y234920D01*
X285258D01*
X285207Y235015D01*
X285127Y235420D01*
X285711Y235868D01*
X286232Y236548D01*
X286561Y237340D01*
X286672Y238190D01*
Y242914D01*
X286561Y243764D01*
X286232Y244556D01*
X285711Y245236D01*
X285030Y245758D01*
X284238Y246086D01*
X283388Y246198D01*
X282538Y246086D01*
X281746Y245758D01*
X281066Y245236D01*
X280544Y244556D01*
X280216Y243764D01*
X280104Y242914D01*
Y238190D01*
X280216Y237340D01*
X280544Y236548D01*
X281066Y235868D01*
X281650Y235420D01*
X281570Y235015D01*
X281519Y234920D01*
X277295D01*
X276710Y234803D01*
X276214Y234472D01*
X274854Y233112D01*
X271724D01*
X271516Y233319D01*
X270597Y233700D01*
X269603D01*
X268684Y233319D01*
X267981Y232616D01*
X267600Y231697D01*
Y230703D01*
X267981Y229784D01*
X268684Y229081D01*
X269603Y228700D01*
X270597D01*
X271516Y229081D01*
X272219Y229784D01*
X272331Y230053D01*
X275392D01*
X275611Y229897D01*
X275837Y229613D01*
X275774Y229134D01*
Y224410D01*
X275886Y223560D01*
X276214Y222768D01*
X276736Y222088D01*
X277416Y221566D01*
X278208Y221238D01*
X279058Y221126D01*
X279908Y221238D01*
X280700Y221566D01*
X281380Y222088D01*
X281902Y222768D01*
X282230Y223560D01*
X282342Y224410D01*
Y229134D01*
X282230Y229984D01*
X281902Y230777D01*
X281453Y231361D01*
X281603Y231861D01*
X285174D01*
X285324Y231361D01*
X284875Y230777D01*
X284547Y229984D01*
X284435Y229134D01*
Y224410D01*
X284547Y223560D01*
X284875Y222768D01*
X285397Y222088D01*
X286077Y221566D01*
X286869Y221238D01*
X287719Y221126D01*
X288569Y221238D01*
X289361Y221566D01*
X290041Y222088D01*
X290563Y222768D01*
X290891Y223560D01*
X291003Y224410D01*
Y229134D01*
X290891Y229984D01*
X290563Y230777D01*
X290115Y231361D01*
X290265Y231861D01*
X293835D01*
X293985Y231361D01*
X293536Y230777D01*
X293209Y229984D01*
X293097Y229134D01*
Y224410D01*
X293209Y223560D01*
X293536Y222768D01*
X294058Y222088D01*
X294739Y221566D01*
X295531Y221238D01*
X296381Y221126D01*
X297231Y221238D01*
X298023Y221566D01*
X298703Y222088D01*
X299225Y222768D01*
X299553Y223560D01*
X299665Y224410D01*
Y229134D01*
X299553Y229984D01*
X299225Y230777D01*
X298776Y231361D01*
X298926Y231861D01*
X302496D01*
X302646Y231361D01*
X302198Y230777D01*
X301870Y229984D01*
X301758Y229134D01*
Y224410D01*
X301870Y223560D01*
X302198Y222768D01*
X302720Y222088D01*
X303400Y221566D01*
X304192Y221238D01*
X305042Y221126D01*
X305892Y221238D01*
X306684Y221566D01*
X307364Y222088D01*
X307886Y222768D01*
X308214Y223560D01*
X308326Y224410D01*
Y229134D01*
X308214Y229984D01*
X307886Y230777D01*
X307437Y231361D01*
X307588Y231861D01*
X311158D01*
X311308Y231361D01*
X310859Y230777D01*
X310531Y229984D01*
X310419Y229134D01*
Y224410D01*
X310531Y223560D01*
X310859Y222768D01*
X311381Y222088D01*
X312061Y221566D01*
X312853Y221238D01*
X313703Y221126D01*
X314553Y221238D01*
X315345Y221566D01*
X316025Y222088D01*
X316547Y222768D01*
X316876Y223560D01*
X316987Y224410D01*
Y229134D01*
X316876Y229984D01*
X316547Y230777D01*
X316099Y231361D01*
X316249Y231861D01*
X319819D01*
X319969Y231361D01*
X319521Y230777D01*
X319193Y229984D01*
X319081Y229134D01*
Y224410D01*
X319193Y223560D01*
X319521Y222768D01*
X320043Y222088D01*
X320723Y221566D01*
X321515Y221238D01*
X322365Y221126D01*
X323215Y221238D01*
X324007Y221566D01*
X324687Y222088D01*
X325209Y222768D01*
X325537Y223560D01*
X325649Y224410D01*
Y229134D01*
X325537Y229984D01*
X325209Y230777D01*
X324760Y231361D01*
X324910Y231861D01*
X328481D01*
X328631Y231361D01*
X328182Y230777D01*
X327854Y229984D01*
X327742Y229134D01*
Y224410D01*
X327854Y223560D01*
X328182Y222768D01*
X328704Y222088D01*
X329384Y221566D01*
X330176Y221238D01*
X331026Y221126D01*
X331876Y221238D01*
X332668Y221566D01*
X333348Y222088D01*
X333870Y222768D01*
X334198Y223560D01*
X334310Y224410D01*
Y229134D01*
X334198Y229984D01*
X333870Y230777D01*
X333422Y231361D01*
X333572Y231861D01*
X337142D01*
X337292Y231361D01*
X336843Y230777D01*
X336515Y229984D01*
X336404Y229134D01*
Y224410D01*
X336515Y223560D01*
X336843Y222768D01*
X337365Y222088D01*
X338046Y221566D01*
X338838Y221238D01*
X339688Y221126D01*
X340538Y221238D01*
X341330Y221566D01*
X342010Y222088D01*
X342532Y222768D01*
X342860Y223560D01*
X342972Y224410D01*
Y229134D01*
X342860Y229984D01*
X342532Y230777D01*
X342010Y231457D01*
X341330Y231979D01*
X340538Y232307D01*
X340111Y232363D01*
X339932Y232891D01*
X342384Y235343D01*
X343168Y235018D01*
X344018Y234906D01*
X344868Y235018D01*
X345660Y235346D01*
X346340Y235868D01*
X346862Y236548D01*
X347190Y237340D01*
X347302Y238190D01*
Y242914D01*
X347190Y243764D01*
X346862Y244556D01*
X346340Y245236D01*
X345660Y245758D01*
X344868Y246086D01*
X344018Y246198D01*
D02*
G37*
G36*
X352680D02*
X351830Y246086D01*
X351038Y245758D01*
X350358Y245236D01*
X349836Y244556D01*
X349508Y243764D01*
X349396Y242914D01*
Y238190D01*
X349508Y237340D01*
X349836Y236548D01*
X350358Y235868D01*
X351038Y235346D01*
X351830Y235018D01*
X352680Y234906D01*
X353530Y235018D01*
X354322Y235346D01*
X355002Y235868D01*
X355524Y236548D01*
X355852Y237340D01*
X355964Y238190D01*
Y242914D01*
X355852Y243764D01*
X355524Y244556D01*
X355002Y245236D01*
X354322Y245758D01*
X353530Y246086D01*
X352680Y246198D01*
D02*
G37*
G36*
X274727D02*
X273877Y246086D01*
X273085Y245758D01*
X272405Y245236D01*
X271883Y244556D01*
X271555Y243764D01*
X271443Y242914D01*
Y238190D01*
X271555Y237340D01*
X271883Y236548D01*
X272405Y235868D01*
X273085Y235346D01*
X273877Y235018D01*
X274727Y234906D01*
X275577Y235018D01*
X276369Y235346D01*
X277049Y235868D01*
X277571Y236548D01*
X277899Y237340D01*
X278011Y238190D01*
Y242914D01*
X277899Y243764D01*
X277571Y244556D01*
X277049Y245236D01*
X276369Y245758D01*
X275577Y246086D01*
X274727Y246198D01*
D02*
G37*
G36*
X357011Y232418D02*
X356161Y232307D01*
X355369Y231979D01*
X354688Y231457D01*
X354167Y230777D01*
X353838Y229984D01*
X353727Y229134D01*
Y224410D01*
X353838Y223560D01*
X354167Y222768D01*
X354688Y222088D01*
X355369Y221566D01*
X356161Y221238D01*
X357011Y221126D01*
X357860Y221238D01*
X358653Y221566D01*
X359333Y222088D01*
X359855Y222768D01*
X360183Y223560D01*
X360295Y224410D01*
Y229134D01*
X360183Y229984D01*
X359855Y230777D01*
X359333Y231457D01*
X358653Y231979D01*
X357860Y232307D01*
X357011Y232418D01*
D02*
G37*
G36*
X348349D02*
X347499Y232307D01*
X346707Y231979D01*
X346027Y231457D01*
X345505Y230777D01*
X345177Y229984D01*
X345065Y229134D01*
Y224410D01*
X345177Y223560D01*
X345505Y222768D01*
X346027Y222088D01*
X346707Y221566D01*
X347499Y221238D01*
X348349Y221126D01*
X349199Y221238D01*
X349991Y221566D01*
X350671Y222088D01*
X351193Y222768D01*
X351521Y223560D01*
X351633Y224410D01*
Y229134D01*
X351521Y229984D01*
X351193Y230777D01*
X350671Y231457D01*
X349991Y231979D01*
X349199Y232307D01*
X348349Y232418D01*
D02*
G37*
%LPD*%
D11*
X310100Y368100D02*
X310153Y368153D01*
X302047Y368100D02*
X310100D01*
X300541Y362141D02*
X301250Y362850D01*
Y367303D02*
X302047Y368100D01*
X301250Y362850D02*
Y367303D01*
X298278Y362141D02*
X300541D01*
X295900Y364519D02*
X298278Y362141D01*
X298850Y369597D02*
X298853Y369600D01*
X307432D01*
X309121Y371289D02*
X309252D01*
X307432Y369600D02*
X309121Y371289D01*
X315107Y346239D02*
Y358303D01*
X317288Y358363D02*
X335032Y376107D01*
X340207D01*
X334411Y377607D02*
X336207D01*
X317288Y348100D02*
Y358363D01*
X315107Y358303D02*
X334411Y377607D01*
X340207Y376107D02*
X344700Y380600D01*
X336207Y377607D02*
X339400Y380800D01*
X320262Y341084D02*
X320284D01*
X315107Y346239D02*
X320262Y341084D01*
X339400Y380800D02*
X339700D01*
X344700Y380600D02*
Y381100D01*
X322800Y326800D02*
Y335413D01*
X321196Y337017D02*
X322800Y335413D01*
X320661Y324661D02*
X322800Y326800D01*
X320661Y322809D02*
Y324661D01*
X320400Y322548D02*
X320661Y322809D01*
X334878Y330865D02*
X336703Y332690D01*
X334158Y332266D02*
Y333914D01*
X333378Y329415D02*
Y331486D01*
X334878Y330036D02*
X335464Y329451D01*
X340181D02*
X342620Y331890D01*
X348837D01*
X336703Y332690D02*
X336823D01*
X333378Y331486D02*
X334158Y332266D01*
X334843Y327951D02*
X340802D01*
X349458Y330390D02*
X353200Y334132D01*
X340802Y327951D02*
X343241Y330390D01*
X334878Y330036D02*
Y330865D01*
X334158Y333914D02*
X334318Y334074D01*
X335464Y329451D02*
X340181D01*
X343241Y330390D02*
X349458D01*
X333378Y329415D02*
X334843Y327951D01*
X348837Y331890D02*
X351700Y334753D01*
X353200Y334132D02*
Y350066D01*
X359398Y352405D02*
X359668Y352676D01*
X353200Y350066D02*
X355539Y352405D01*
X359398D01*
X351700Y350687D02*
X355960Y354947D01*
X359381D02*
X359668Y355235D01*
X355960Y354947D02*
X359381D01*
X351700Y334753D02*
Y350687D01*
X373440Y370679D02*
Y373453D01*
X373819Y373831D02*
Y374200D01*
X373440Y373453D02*
X373819Y373831D01*
X370200Y367636D02*
X370397D01*
X373440Y370679D01*
X355511Y358498D02*
Y359723D01*
Y358498D02*
X356323Y357687D01*
X359561D01*
X359668Y357794D01*
X370200Y357400D02*
Y367636D01*
X360161Y364880D02*
Y364987D01*
Y340365D02*
Y340471D01*
X362810Y367636D02*
X370200D01*
X360161Y364987D02*
X362810Y367636D01*
X370200Y347951D02*
Y357400D01*
X360161Y340365D02*
X362810Y337715D01*
X370200D02*
Y347951D01*
X362810Y337715D02*
X370200D01*
D65*
X212143Y356395D02*
X218626D01*
X219402Y355619D01*
X219500D01*
X295900Y364519D02*
X295900D01*
X287204Y370312D02*
X290107D01*
X295900Y364519D01*
X287134Y370381D02*
X287204Y370312D01*
X272611Y313288D02*
Y315650D01*
X266469Y307145D02*
X272611Y313288D01*
X266469Y305180D02*
Y307145D01*
X266086Y304797D02*
X266469Y305180D01*
X363347Y370747D02*
X374000Y381400D01*
X355511Y369636D02*
X356623Y370747D01*
X355511Y359723D02*
Y369636D01*
X356623Y370747D02*
X363347D01*
X369347Y389600D02*
X370047D01*
X374000Y385647D01*
X212509Y389600D02*
X213209D01*
X211337Y388428D02*
X212509Y389600D01*
X211337Y363765D02*
Y388428D01*
X374000Y381400D02*
Y385647D01*
X214715Y272872D02*
Y287476D01*
Y272872D02*
X215886Y271700D01*
X226136D02*
X234100Y279664D01*
X215886Y271700D02*
X226136D01*
X218088Y352688D02*
X221435D01*
X222900Y354153D01*
Y357035D01*
X212802Y362300D02*
X217635D01*
X211337Y363765D02*
X212802Y362300D01*
X217635D02*
X222900Y357035D01*
X215400Y350000D02*
X218088Y352688D01*
X215400Y288162D02*
Y350000D01*
X214715Y287476D02*
X215400Y288162D01*
X234100Y279664D02*
Y281435D01*
X220536Y286635D02*
Y295401D01*
X220600Y295465D01*
Y280307D02*
X227585Y287292D01*
X227830D02*
X227899Y287361D01*
X227585Y287292D02*
X227830D01*
X220600Y278535D02*
Y280307D01*
X233900Y298165D02*
X234100Y298365D01*
X220600Y298165D02*
X233900D01*
X344018Y239140D02*
Y240552D01*
X270483Y231583D02*
X275487D01*
X270100Y231200D02*
X270483Y231583D01*
X277295Y233390D02*
X338269D01*
X344018Y239140D01*
X275487Y231583D02*
X277295Y233390D01*
D66*
X329557Y378338D02*
X331949D01*
X327900Y378200D02*
X329419D01*
X331949Y378338D02*
X332200Y378589D01*
X329419Y378200D02*
X329557Y378338D01*
X355200Y376447D02*
Y384179D01*
X353110Y374357D02*
X355200Y376447D01*
X324700Y381400D02*
X327900Y378200D01*
D68*
X288509Y373701D02*
G03*
X287134Y370381I3321J-3320D01*
G01*
X299069Y364519D02*
Y364752D01*
X298331Y365490D02*
Y365722D01*
X295780Y368273D02*
X298331Y365722D01*
Y365490D02*
X299069Y364752D01*
X292026Y373780D02*
X295780Y370026D01*
Y368273D02*
Y370026D01*
X291686Y376878D02*
X291757D01*
X288509Y373701D02*
X291686Y376878D01*
X321185Y359785D02*
X335757Y374357D01*
X353110D01*
X321185Y343621D02*
Y359785D01*
X321196Y337017D02*
Y337251D01*
X322715Y338770D01*
Y342091D01*
X321185Y343621D02*
X322715Y342091D01*
X213459Y389850D02*
X369097D01*
X369347Y389600D01*
X213209D02*
X213459Y389850D01*
X266400Y348500D02*
Y351667D01*
X264800Y353267D02*
X266400Y351667D01*
X264800Y353267D02*
Y353500D01*
D79*
X344700Y386100D02*
D03*
X339700D02*
D03*
X344700Y381100D02*
D03*
X339700D02*
D03*
X334700Y386100D02*
D03*
X324700D02*
D03*
Y381100D02*
D03*
D80*
X223700Y324000D02*
D03*
Y334000D02*
D03*
Y344000D02*
D03*
X253833Y323988D02*
D03*
Y333988D02*
D03*
Y343988D02*
D03*
D81*
X356469Y301870D02*
D03*
X347807D02*
D03*
X339146D02*
D03*
X330485D02*
D03*
X321823D02*
D03*
X313162D02*
D03*
X304500D02*
D03*
X295839D02*
D03*
X287177D02*
D03*
X278516D02*
D03*
X298595Y315650D02*
D03*
X324579D02*
D03*
X272611D02*
D03*
X281272D02*
D03*
X289933D02*
D03*
X307256D02*
D03*
X315918D02*
D03*
X333240D02*
D03*
X341902D02*
D03*
X350563D02*
D03*
X279058Y226772D02*
D03*
X287719D02*
D03*
X296381D02*
D03*
X305042D02*
D03*
X313703D02*
D03*
X322365D02*
D03*
X331026D02*
D03*
X339688D02*
D03*
X348349D02*
D03*
X357011D02*
D03*
X274727Y240552D02*
D03*
X283388D02*
D03*
X292050D02*
D03*
X300711D02*
D03*
X309373D02*
D03*
X318034D02*
D03*
X326696D02*
D03*
X335357D02*
D03*
X344018D02*
D03*
X352680D02*
D03*
D82*
X358979Y263387D02*
D03*
X272365D02*
D03*
D83*
X366938Y378129D02*
D03*
X362665Y376598D02*
D03*
X212143Y356395D02*
D03*
X310153Y368153D02*
D03*
X299069Y364519D02*
D03*
X292026Y373780D02*
D03*
X298850Y369597D02*
D03*
X309252Y371289D02*
D03*
X332200Y378589D02*
D03*
X295900Y364519D02*
D03*
X287134Y370381D02*
D03*
X291757Y376878D02*
D03*
X312592Y372508D02*
D03*
X320284Y341084D02*
D03*
X317288Y348100D02*
D03*
X255457Y281457D02*
D03*
X320302Y328581D02*
D03*
X320400Y322548D02*
D03*
X321196Y337017D02*
D03*
X304523Y337581D02*
D03*
X355200Y384179D02*
D03*
X353110Y374357D02*
D03*
X359300Y387100D02*
D03*
X349400Y327000D02*
D03*
X363746Y334200D02*
D03*
X336823Y332690D02*
D03*
X334318Y334074D02*
D03*
X373819Y374200D02*
D03*
X305519Y375381D02*
D03*
X243750Y264000D02*
D03*
X245850Y260200D02*
D03*
X249000Y264000D02*
D03*
X251350Y260200D02*
D03*
X254250Y264000D02*
D03*
X256850Y260200D02*
D03*
X241900Y268000D02*
D03*
X251600D02*
D03*
X246750Y267822D02*
D03*
X219500Y355619D02*
D03*
X212365Y295335D02*
D03*
X218100Y268522D02*
D03*
X222950Y268700D02*
D03*
X220536Y286635D02*
D03*
X227899Y287361D02*
D03*
X297503Y375300D02*
D03*
X213250Y268700D02*
D03*
X228200Y260900D02*
D03*
X225600Y264700D02*
D03*
X222700Y260900D02*
D03*
X220350Y264700D02*
D03*
X217200Y260900D02*
D03*
X215100Y264700D02*
D03*
X268800Y337200D02*
D03*
X266400Y348500D02*
D03*
X264800Y353500D02*
D03*
X268096Y353963D02*
D03*
X268100Y379419D02*
D03*
X243100Y382900D02*
D03*
D84*
X345693Y346072D02*
D03*
X341362D02*
D03*
X337032D02*
D03*
X332701D02*
D03*
X328370D02*
D03*
X345693Y350403D02*
D03*
X341362D02*
D03*
X337032D02*
D03*
X332701D02*
D03*
X328370D02*
D03*
X345693Y354734D02*
D03*
X341362D02*
D03*
X337032D02*
D03*
X332701D02*
D03*
X328370D02*
D03*
X345693Y359065D02*
D03*
X341362D02*
D03*
X337032D02*
D03*
X332701D02*
D03*
X328370D02*
D03*
X345693Y363395D02*
D03*
X341362D02*
D03*
X337032D02*
D03*
X332701D02*
D03*
X328370D02*
D03*
D85*
X266086Y304797D02*
D03*
X234300Y290000D02*
D03*
X270100Y231200D02*
D03*
X223400Y312800D02*
D03*
D86*
X263500Y229200D02*
D03*
Y222800D02*
D03*
Y248000D02*
D03*
Y235000D02*
D03*
X258200Y226900D02*
D03*
X240450D02*
D03*
X222700D02*
D03*
X251400Y234700D02*
D03*
X233650D02*
D03*
Y250800D02*
D03*
X215900Y234700D02*
D03*
Y250800D02*
D03*
X244500Y243000D02*
D03*
X224300D02*
D03*
X251400Y250800D02*
D03*
D87*
X370200Y347951D02*
D03*
Y357400D02*
D03*
D88*
Y337715D02*
D03*
Y367636D02*
D03*
D89*
X359668Y352676D02*
D03*
Y355235D02*
D03*
Y357794D02*
D03*
Y350116D02*
D03*
Y347557D02*
D03*
D90*
X360161Y364880D02*
D03*
Y340471D02*
D03*
D91*
X220600Y295465D02*
D03*
Y278535D02*
D03*
X234100Y298365D02*
D03*
Y281435D02*
D03*
M02*
