G04*
G04 #@! TF.GenerationSoftware,Altium Limited,Altium Designer,21.0.8 (223)*
G04*
G04 Layer_Color=16711935*
%FSLAX25Y25*%
%MOIN*%
G70*
G04*
G04 #@! TF.SameCoordinates,AE60A7D3-7942-428E-9249-63F1B2AFBED3*
G04*
G04*
G04 #@! TF.FilePolarity,Positive*
G04*
G01*
G75*
%ADD80C,0.00394*%
D80*
X338973Y348350D02*
G03*
X338973Y348350I-1969J0D01*
G01*
X316414Y368941D02*
X340548D01*
X316414Y344807D02*
X340548D01*
X316414D02*
Y368941D01*
X340548Y344807D02*
Y368941D01*
X331300Y389693D02*
X366300D01*
Y376307D02*
Y389693D01*
X331300Y376307D02*
X366300D01*
X331300D02*
Y389693D01*
X309842Y379366D02*
X315158D01*
X309842Y387634D02*
X315158D01*
X309842Y379366D02*
Y387634D01*
X315158Y379366D02*
Y387634D01*
X296540Y379366D02*
X301855D01*
X296540Y387634D02*
X301855D01*
X296540Y379366D02*
Y387634D01*
X301855Y379366D02*
Y387634D01*
X320529Y380153D02*
Y386846D01*
X316986Y380153D02*
Y386846D01*
X320529D01*
X316986Y380153D02*
X320529D01*
X307572D02*
Y386846D01*
X304028Y380153D02*
Y386846D01*
X307572D01*
X304028Y380153D02*
X307572D01*
X368590Y339253D02*
Y362876D01*
X354810Y339253D02*
Y362876D01*
Y339253D02*
X368590D01*
X354810Y362876D02*
X368590D01*
X358254Y364628D02*
Y368172D01*
X364947Y364628D02*
Y368172D01*
X358254D02*
X364947D01*
X358254Y364628D02*
X364947D01*
X357699Y333628D02*
Y337172D01*
X364392Y333628D02*
Y337172D01*
X357699D02*
X364392D01*
X357699Y333628D02*
X364392D01*
X235243Y312678D02*
X253157D01*
X235243Y299922D02*
X253157D01*
X235243D02*
Y312678D01*
X253157Y299922D02*
Y312678D01*
X230376Y375546D02*
X264824D01*
Y359798D02*
Y375546D01*
X230376Y359798D02*
X264824D01*
X230376D02*
Y375546D01*
X213035Y266880D02*
X254965D01*
X213035Y228887D02*
X254965D01*
Y266880D01*
X213035Y228887D02*
Y266880D01*
M02*
