G04*
G04 #@! TF.GenerationSoftware,Altium Limited,Altium Designer,21.0.8 (223)*
G04*
G04 Layer_Color=65535*
%FSLAX25Y25*%
%MOIN*%
G70*
G04*
G04 #@! TF.SameCoordinates,3B633D02-0EC4-4577-A0D3-F38BB98637A7*
G04*
G04*
G04 #@! TF.FilePolarity,Positive*
G04*
G01*
G75*
%ADD10C,0.00984*%
%ADD11C,0.01000*%
%ADD12C,0.00787*%
%ADD13C,0.00600*%
%ADD14C,0.01200*%
D10*
X354650Y340757D02*
G03*
X354650Y340757I-492J0D01*
G01*
X366592Y368404D02*
G03*
X366592Y368404I-492J0D01*
G01*
X217652Y286648D02*
G03*
X217652Y286648I-492J0D01*
G01*
X229785Y357200D02*
G03*
X229785Y357200I-492J0D01*
G01*
X248626Y279084D02*
G03*
X248626Y279084I-492J0D01*
G01*
D11*
X302830Y331600D02*
G03*
X302830Y331600I-1000J0D01*
G01*
X218004Y312687D02*
G03*
X218004Y312687I-700J0D01*
G01*
X298930Y352300D02*
Y353200D01*
X274530D02*
X298930D01*
X274530Y352200D02*
Y353200D01*
X274330Y332400D02*
Y333300D01*
Y332400D02*
X299330D01*
Y333600D01*
X219216Y314914D02*
Y352688D01*
Y314914D02*
X258192D01*
X219216Y352688D02*
X258192D01*
Y314914D02*
Y352688D01*
X373011Y219772D02*
Y330772D01*
X260011Y219772D02*
X373011D01*
X260011D02*
Y330772D01*
X373011D01*
X371010Y229772D02*
X369011D01*
X370011D01*
Y223774D01*
X371010Y224774D01*
X366012D02*
X365012Y223774D01*
X363013D01*
X362013Y224774D01*
Y228773D01*
X363013Y229772D01*
X365012D01*
X366012Y228773D01*
Y224774D01*
X365012Y243772D02*
X369010D01*
X365012Y239774D01*
Y238774D01*
X366011Y237774D01*
X368011D01*
X369010Y238774D01*
X363012D02*
X362013Y237774D01*
X360013D01*
X359014Y238774D01*
Y242773D01*
X360013Y243772D01*
X362013D01*
X363012Y242773D01*
Y238774D01*
X269010Y243772D02*
X267011D01*
X268011D01*
Y237774D01*
X269010Y238774D01*
X264012Y243772D02*
X262013D01*
X263013D01*
Y237774D01*
X264012Y238774D01*
X273010Y229772D02*
X271011D01*
X272011D01*
Y223774D01*
X273010Y224774D01*
X271516Y304870D02*
X269517D01*
X270517D01*
Y298872D01*
X271516Y299872D01*
X268516Y318870D02*
X266517D01*
X267517D01*
Y312872D01*
X268516Y313872D01*
X263518Y318870D02*
X261519D01*
X262518D01*
Y312872D01*
X263518Y313872D01*
X363517Y318870D02*
X367516D01*
X363517Y314871D01*
Y313872D01*
X364517Y312872D01*
X366516D01*
X367516Y313872D01*
X361518D02*
X360518Y312872D01*
X358519D01*
X357519Y313872D01*
Y317870D01*
X358519Y318870D01*
X360518D01*
X361518Y317870D01*
Y313872D01*
X371516Y304870D02*
X369517D01*
X370516D01*
Y298872D01*
X371516Y299872D01*
X366518D02*
X365518Y298872D01*
X363519D01*
X362519Y299872D01*
Y303870D01*
X363519Y304870D01*
X365518D01*
X366518Y303870D01*
Y299872D01*
D12*
X351598Y340167D02*
Y341840D01*
X349925Y340167D02*
X351598D01*
X322465D02*
X324138D01*
X322465D02*
Y341840D01*
Y367628D02*
Y369301D01*
X324138D01*
X351598Y367628D02*
Y369301D01*
X349925D02*
X351598D01*
X361182Y385290D02*
X371418D01*
Y379778D02*
Y385290D01*
X361182Y379778D02*
Y385290D01*
Y379778D02*
X371418D01*
X361182Y385178D02*
X371418D01*
X361182D02*
Y390690D01*
X371418Y385178D02*
Y390690D01*
X361182D02*
X371418D01*
X310254Y339255D02*
Y346145D01*
X316958Y339276D02*
Y346166D01*
X350555Y330787D02*
X357445D01*
X350534Y337492D02*
X357424D01*
X372990Y342223D02*
Y365845D01*
X359210Y342223D02*
Y365845D01*
X354055Y381747D02*
X360945D01*
X354076Y375042D02*
X360966D01*
X355342Y367795D02*
X363446D01*
X355342Y374685D02*
X363446D01*
X313953Y367055D02*
Y373945D01*
X320658Y367076D02*
Y373966D01*
X316610Y390588D02*
X352790D01*
X316610Y376612D02*
X352790D01*
Y390588D01*
X316610Y376612D02*
Y390588D01*
X218729Y362357D02*
X228965D01*
Y356845D02*
Y362357D01*
X218729Y356845D02*
Y362357D01*
Y356845D02*
X228965D01*
X218729Y368057D02*
X228965D01*
Y362545D02*
Y368057D01*
X218729Y362545D02*
Y368057D01*
Y362545D02*
X228965D01*
X218729Y373456D02*
X228965D01*
Y367944D02*
Y373456D01*
X218729Y367944D02*
Y373456D01*
Y367944D02*
X228965D01*
X218729Y379023D02*
X228965D01*
Y373511D02*
Y379023D01*
X218729Y373511D02*
Y379023D01*
Y373511D02*
X228965D01*
X283210Y354482D02*
Y364718D01*
X277698Y354482D02*
X283210D01*
X277698Y364718D02*
X283210D01*
X277698Y354482D02*
Y364718D01*
X305861Y382809D02*
Y383991D01*
X309798Y382809D02*
Y383991D01*
X305861Y382809D02*
X309798D01*
X295332D02*
Y383991D01*
X299269Y382809D02*
Y383991D01*
X295332Y382809D02*
X299269D01*
X322082Y331756D02*
X332318D01*
Y326244D02*
Y331756D01*
X322082Y326244D02*
Y331756D01*
Y326244D02*
X332318D01*
X301142Y339334D02*
Y346224D01*
X307846Y339355D02*
Y346245D01*
X265542Y339334D02*
Y346224D01*
X272247Y339355D02*
Y346245D01*
X217013Y311245D02*
X225116D01*
X217013Y304355D02*
X225116D01*
X249938Y283842D02*
X256828D01*
X249917Y290546D02*
X256807D01*
X212334Y278158D02*
X219224D01*
X212355Y271453D02*
X219245D01*
X271757Y354482D02*
Y364718D01*
X277269D01*
X271757Y354482D02*
X277269D01*
Y364718D01*
X277156Y369282D02*
Y379518D01*
X271644Y369282D02*
X277156D01*
X271644Y379518D02*
X277156D01*
X271644Y369282D02*
Y379518D01*
X288956Y354482D02*
Y364718D01*
X283444Y354482D02*
X288956D01*
X283444Y364718D02*
X288956D01*
X283444Y354482D02*
Y364718D01*
X282656Y369382D02*
Y379618D01*
X277144Y369382D02*
X282656D01*
X277144Y379618D02*
X282656D01*
X277144Y369382D02*
Y379618D01*
X259245Y341335D02*
Y351571D01*
X264757D01*
X259245Y341335D02*
X264757D01*
Y351571D01*
X214995Y294522D02*
X226805D01*
Y297278D01*
X214995D02*
X226805D01*
X214995Y294522D02*
Y297278D01*
X211748Y278155D02*
X219852D01*
X211748Y285045D02*
X219852D01*
X271558Y370876D02*
Y377766D01*
X264854Y370855D02*
Y377745D01*
X264842Y355796D02*
Y362686D01*
X271547Y355817D02*
Y362707D01*
X238983Y312678D02*
X249417D01*
X238983Y299922D02*
X249417D01*
X230376Y361098D02*
Y374247D01*
Y361098D02*
X264824D01*
X230376Y374247D02*
X264824D01*
Y361098D02*
Y374247D01*
X249026Y297650D02*
X251574D01*
X249026Y291350D02*
X251574D01*
X255063Y255856D02*
Y266880D01*
X212937D02*
X255063D01*
X212937Y255856D02*
Y266880D01*
D13*
X321201Y333501D02*
X324200D01*
X324799Y334101D01*
Y335300D01*
X324200Y335900D01*
X321201D01*
Y339499D02*
X321800Y338299D01*
X323000Y337100D01*
X324200D01*
X324799Y337700D01*
Y338899D01*
X324200Y339499D01*
X323600D01*
X323000Y338899D01*
Y337100D01*
X375299Y368102D02*
X371701D01*
Y369901D01*
X372300Y370501D01*
X373500D01*
X374100Y369901D01*
Y368102D01*
Y369301D02*
X375299Y370501D01*
Y371700D02*
Y372900D01*
Y372300D01*
X371701D01*
X372300Y371700D01*
X375299Y377098D02*
Y374699D01*
X372900Y377098D01*
X372300D01*
X371701Y376499D01*
Y375299D01*
X372300Y374699D01*
X375599Y382001D02*
X372001D01*
Y383801D01*
X372600Y384401D01*
X373800D01*
X374400Y383801D01*
Y382001D01*
Y383201D02*
X375599Y384401D01*
Y385600D02*
Y386800D01*
Y386200D01*
X372001D01*
X372600Y385600D01*
Y388599D02*
X372001Y389199D01*
Y390399D01*
X372600Y390999D01*
X373200D01*
X373800Y390399D01*
Y389799D01*
Y390399D01*
X374400Y390999D01*
X375000D01*
X375599Y390399D01*
Y389199D01*
X375000Y388599D01*
X311900Y349801D02*
X311301Y349201D01*
Y348001D01*
X311900Y347401D01*
X314300D01*
X314899Y348001D01*
Y349201D01*
X314300Y349801D01*
X314899Y351000D02*
Y352200D01*
Y351600D01*
X311301D01*
X311900Y351000D01*
X311301Y356399D02*
Y353999D01*
X313100D01*
X312500Y355199D01*
Y355799D01*
X313100Y356399D01*
X314300D01*
X314899Y355799D01*
Y354599D01*
X314300Y353999D01*
X321601Y369901D02*
X324600D01*
X325199Y370501D01*
Y371700D01*
X324600Y372300D01*
X321601D01*
Y375899D02*
Y373500D01*
X323400D01*
X322800Y374699D01*
Y375299D01*
X323400Y375899D01*
X324600D01*
X325199Y375299D01*
Y374100D01*
X324600Y373500D01*
X343900Y334700D02*
X343301Y335299D01*
X342101D01*
X341501Y334700D01*
Y332300D01*
X342101Y331701D01*
X343301D01*
X343900Y332300D01*
X345100Y331701D02*
X346300D01*
X345700D01*
Y335299D01*
X345100Y334700D01*
X348099Y331701D02*
X349299D01*
X348699D01*
Y335299D01*
X348099Y334700D01*
X363701Y355833D02*
X366100Y352234D01*
Y355833D02*
X363701Y352234D01*
X367300D02*
X368499D01*
X367899D01*
Y355833D01*
X367300Y355234D01*
X298801Y325901D02*
Y329499D01*
X300601D01*
X301201Y328900D01*
Y327700D01*
X300601Y327100D01*
X298801D01*
X300001D02*
X301201Y325901D01*
X302400D02*
X303600D01*
X303000D01*
Y329499D01*
X302400Y328900D01*
X307799Y329499D02*
X305399D01*
Y327700D01*
X306599Y328300D01*
X307199D01*
X307799Y327700D01*
Y326500D01*
X307199Y325901D01*
X305999D01*
X305399Y326500D01*
X298702Y321901D02*
Y325499D01*
X300501D01*
X301101Y324900D01*
Y323700D01*
X300501Y323100D01*
X298702D01*
X299901D02*
X301101Y321901D01*
X302300D02*
X303500D01*
X302900D01*
Y325499D01*
X302300Y324900D01*
X307099Y321901D02*
Y325499D01*
X305299Y323700D01*
X307698D01*
X354801Y385500D02*
X354201Y386099D01*
X353001D01*
X352401Y385500D01*
Y383100D01*
X353001Y382501D01*
X354201D01*
X354801Y383100D01*
X356000Y382501D02*
X357200D01*
X356600D01*
Y386099D01*
X356000Y385500D01*
X361399Y382501D02*
X358999D01*
X361399Y384900D01*
Y385500D01*
X360799Y386099D01*
X359599D01*
X358999Y385500D01*
X351594Y371739D02*
X350994Y372339D01*
X349795D01*
X349195Y371739D01*
Y369340D01*
X349795Y368740D01*
X350994D01*
X351594Y369340D01*
X352794Y372339D02*
X355193D01*
Y371739D01*
X352794Y369340D01*
Y368740D01*
X372200Y363300D02*
X371601Y362700D01*
Y361501D01*
X372200Y360901D01*
X374600D01*
X375199Y361501D01*
Y362700D01*
X374600Y363300D01*
X371601Y366899D02*
X372200Y365699D01*
X373400Y364500D01*
X374600D01*
X375199Y365100D01*
Y366299D01*
X374600Y366899D01*
X374000D01*
X373400Y366299D01*
Y364500D01*
X368100Y335100D02*
X367500Y335699D01*
X366301D01*
X365701Y335100D01*
Y332700D01*
X366301Y332101D01*
X367500D01*
X368100Y332700D01*
X371699Y335699D02*
X369300D01*
Y333900D01*
X370499Y334500D01*
X371099D01*
X371699Y333900D01*
Y332700D01*
X371099Y332101D01*
X369900D01*
X369300Y332700D01*
X307700Y359901D02*
X307101Y359301D01*
Y358101D01*
X307700Y357502D01*
X310100D01*
X310699Y358101D01*
Y359301D01*
X310100Y359901D01*
X310699Y361100D02*
Y362300D01*
Y361700D01*
X307101D01*
X307700Y361100D01*
Y364099D02*
X307101Y364699D01*
Y365899D01*
X307700Y366498D01*
X310100D01*
X310699Y365899D01*
Y364699D01*
X310100Y364099D01*
X307700D01*
X351500Y376399D02*
Y374000D01*
X349101Y376399D01*
X348501D01*
X347901Y375799D01*
Y374600D01*
X348501Y374000D01*
X357769Y388631D02*
Y389831D01*
Y389231D01*
X354170D01*
X354770Y388631D01*
X311001Y375101D02*
Y378699D01*
X312800D01*
X313400Y378100D01*
Y376900D01*
X312800Y376300D01*
X311001D01*
X314600Y375101D02*
X315799D01*
X315199D01*
Y378699D01*
X314600Y378100D01*
X211300Y303701D02*
X210701Y303101D01*
Y301901D01*
X211300Y301302D01*
X213700D01*
X214299Y301901D01*
Y303101D01*
X213700Y303701D01*
X214299Y304900D02*
Y306100D01*
Y305500D01*
X210701D01*
X211300Y304900D01*
X210701Y310298D02*
X211300Y309099D01*
X212500Y307899D01*
X213700D01*
X214299Y308499D01*
Y309699D01*
X213700Y310298D01*
X213100D01*
X212500Y309699D01*
Y307899D01*
X226700Y305501D02*
X226101Y304901D01*
Y303701D01*
X226700Y303101D01*
X227300D01*
X227900Y303701D01*
Y304901D01*
X228500Y305501D01*
X229100D01*
X229699Y304901D01*
Y303701D01*
X229100Y303101D01*
X226101Y306700D02*
X229699D01*
X228500Y307900D01*
X229699Y309099D01*
X226101D01*
X229699Y310299D02*
Y311499D01*
Y310899D01*
X226101D01*
X226700Y310299D01*
X333701Y325901D02*
Y329499D01*
X335501D01*
X336101Y328900D01*
Y327700D01*
X335501Y327100D01*
X333701D01*
X334901D02*
X336101Y325901D01*
X337300D02*
X338500D01*
X337900D01*
Y329499D01*
X337300Y328900D01*
X340299Y325901D02*
X341499D01*
X340899D01*
Y329499D01*
X340299Y328900D01*
X306399Y357902D02*
X302801D01*
Y359701D01*
X303400Y360301D01*
X304600D01*
X305200Y359701D01*
Y357902D01*
Y359101D02*
X306399Y360301D01*
Y361500D02*
Y362700D01*
Y362100D01*
X302801D01*
X303400Y361500D01*
Y364499D02*
X302801Y365099D01*
Y366299D01*
X303400Y366898D01*
X305800D01*
X306399Y366299D01*
Y365099D01*
X305800Y364499D01*
X303400D01*
X293470Y381248D02*
X289871D01*
Y383048D01*
X290471Y383647D01*
X291671D01*
X292271Y383048D01*
Y381248D01*
Y382448D02*
X293470Y383647D01*
X292870Y384847D02*
X293470Y385447D01*
Y386647D01*
X292870Y387246D01*
X290471D01*
X289871Y386647D01*
Y385447D01*
X290471Y384847D01*
X291071D01*
X291671Y385447D01*
Y387246D01*
X252400Y274900D02*
X251800Y275499D01*
X250601D01*
X250001Y274900D01*
Y272500D01*
X250601Y271901D01*
X251800D01*
X252400Y272500D01*
X255999Y271901D02*
X253600D01*
X255999Y274300D01*
Y274900D01*
X255399Y275499D01*
X254200D01*
X253600Y274900D01*
X294842Y371551D02*
Y367952D01*
X297241D01*
X300839Y371551D02*
X298440D01*
Y367952D01*
X300839D01*
X298440Y369751D02*
X299640D01*
X302039Y371551D02*
Y367952D01*
X303839D01*
X304438Y368552D01*
Y370951D01*
X303839Y371551D01*
X302039D01*
X308037Y367952D02*
X305638D01*
X308037Y370351D01*
Y370951D01*
X307437Y371551D01*
X306238D01*
X305638Y370951D01*
X285601Y377802D02*
X289199D01*
Y380201D01*
X285601Y383800D02*
Y381401D01*
X289199D01*
Y383800D01*
X287400Y381401D02*
Y382600D01*
X285601Y385000D02*
X289199D01*
Y386799D01*
X288600Y387399D01*
X286200D01*
X285601Y386799D01*
Y385000D01*
X289199Y388598D02*
Y389798D01*
Y389198D01*
X285601D01*
X286200Y388598D01*
X225301Y383099D02*
Y380100D01*
X225901Y379501D01*
X227100D01*
X227700Y380100D01*
Y383099D01*
X230699Y379501D02*
Y383099D01*
X228900Y381300D01*
X231299D01*
X211001Y379601D02*
Y383199D01*
X212800D01*
X213400Y382600D01*
Y381400D01*
X212800Y380800D01*
X211001D01*
X212201D02*
X213400Y379601D01*
X214600Y382600D02*
X215200Y383199D01*
X216399D01*
X216999Y382600D01*
Y382000D01*
X216399Y381400D01*
X216999Y380800D01*
Y380200D01*
X216399Y379601D01*
X215200D01*
X214600Y380200D01*
Y380800D01*
X215200Y381400D01*
X214600Y382000D01*
Y382600D01*
X215200Y381400D02*
X216399D01*
X281799Y381901D02*
X278201D01*
Y383700D01*
X278800Y384300D01*
X280000D01*
X280600Y383700D01*
Y381901D01*
Y383101D02*
X281799Y384300D01*
X278800Y385500D02*
X278201Y386100D01*
Y387299D01*
X278800Y387899D01*
X279400D01*
X280000Y387299D01*
Y386699D01*
Y387299D01*
X280600Y387899D01*
X281200D01*
X281799Y387299D01*
Y386100D01*
X281200Y385500D01*
X211101Y384101D02*
Y387699D01*
X212900D01*
X213500Y387100D01*
Y385900D01*
X212900Y385300D01*
X211101D01*
X212300D02*
X213500Y384101D01*
X214700D02*
X215899D01*
X215299D01*
Y387699D01*
X214700Y387100D01*
X275899Y381901D02*
X272301D01*
Y383700D01*
X272900Y384300D01*
X274100D01*
X274700Y383700D01*
Y381901D01*
Y383101D02*
X275899Y384300D01*
X272301Y387899D02*
X272900Y386699D01*
X274100Y385500D01*
X275300D01*
X275899Y386100D01*
Y387299D01*
X275300Y387899D01*
X274700D01*
X274100Y387299D01*
Y385500D01*
X266800Y383701D02*
X266201Y383101D01*
Y381901D01*
X266800Y381301D01*
X269200D01*
X269799Y381901D01*
Y383101D01*
X269200Y383701D01*
X269799Y384900D02*
Y386100D01*
Y385500D01*
X266201D01*
X266800Y384900D01*
X269799Y389699D02*
X266201D01*
X268000Y387899D01*
Y390299D01*
X304752Y350248D02*
X304152Y350847D01*
X302953D01*
X302353Y350248D01*
Y347848D01*
X302953Y347249D01*
X304152D01*
X304752Y347848D01*
X305952D02*
X306552Y347249D01*
X307751D01*
X308351Y347848D01*
Y350248D01*
X307751Y350847D01*
X306552D01*
X305952Y350248D01*
Y349648D01*
X306552Y349048D01*
X308351D01*
X211001Y375001D02*
Y378599D01*
X212800D01*
X213400Y378000D01*
Y376800D01*
X212800Y376200D01*
X211001D01*
X212201D02*
X213400Y375001D01*
X216399D02*
Y378599D01*
X214600Y376800D01*
X216999D01*
X263399Y333901D02*
X259801D01*
Y335700D01*
X260400Y336300D01*
X261600D01*
X262200Y335700D01*
Y333901D01*
Y335101D02*
X263399Y336300D01*
Y339899D02*
Y337500D01*
X261000Y339899D01*
X260400D01*
X259801Y339299D01*
Y338100D01*
X260400Y337500D01*
X211101Y348901D02*
Y352499D01*
X212900D01*
X213500Y351900D01*
Y350700D01*
X212900Y350100D01*
X211101D01*
X212301D02*
X213500Y348901D01*
X214700Y352499D02*
X217099D01*
Y351900D01*
X214700Y349500D01*
Y348901D01*
X298401Y360499D02*
X301999D01*
Y358700D01*
X301400Y358100D01*
X300200D01*
X299600Y358700D01*
Y360499D01*
Y359299D02*
X298401Y358100D01*
X301999Y354501D02*
Y356900D01*
X300200D01*
X300800Y355701D01*
Y355101D01*
X300200Y354501D01*
X299000D01*
X298401Y355101D01*
Y356300D01*
X299000Y356900D01*
X268201Y368300D02*
X267601Y368899D01*
X266401D01*
X265802Y368300D01*
Y365900D01*
X266401Y365301D01*
X267601D01*
X268201Y365900D01*
X269400Y365301D02*
X270600D01*
X270000D01*
Y368899D01*
X269400Y368300D01*
X272399D02*
X272999Y368899D01*
X274199D01*
X274798Y368300D01*
Y367700D01*
X274199Y367100D01*
X273599D01*
X274199D01*
X274798Y366500D01*
Y365900D01*
X274199Y365301D01*
X272999D01*
X272399Y365900D01*
X210601Y287001D02*
X213600D01*
X214199Y287601D01*
Y288800D01*
X213600Y289400D01*
X210601D01*
X211200Y290600D02*
X210601Y291200D01*
Y292399D01*
X211200Y292999D01*
X211800D01*
X212400Y292399D01*
Y291799D01*
Y292399D01*
X213000Y292999D01*
X213600D01*
X214199Y292399D01*
Y291200D01*
X213600Y290600D01*
X266901Y352999D02*
Y350000D01*
X267501Y349401D01*
X268700D01*
X269300Y350000D01*
Y352999D01*
X272899Y349401D02*
X270500D01*
X272899Y351800D01*
Y352400D01*
X272299Y352999D01*
X271100D01*
X270500Y352400D01*
X257501Y223899D02*
Y220900D01*
X258101Y220301D01*
X259300D01*
X259900Y220900D01*
Y223899D01*
X261100Y220301D02*
X262299D01*
X261699D01*
Y223899D01*
X261100Y223300D01*
X289701Y363998D02*
X293299D01*
Y362199D01*
X292700Y361599D01*
X291500D01*
X290900Y362199D01*
Y363998D01*
Y362799D02*
X289701Y361599D01*
Y358000D02*
Y360400D01*
X292100Y358000D01*
X292700D01*
X293299Y358600D01*
Y359800D01*
X292700Y360400D01*
Y356801D02*
X293299Y356201D01*
Y355001D01*
X292700Y354401D01*
X292100D01*
X291500Y355001D01*
Y355601D01*
Y355001D01*
X290900Y354401D01*
X290300D01*
X289701Y355001D01*
Y356201D01*
X290300Y356801D01*
X294001Y363898D02*
X297599D01*
Y362099D01*
X297000Y361499D01*
X295800D01*
X295200Y362099D01*
Y363898D01*
Y362699D02*
X294001Y361499D01*
Y357900D02*
Y360300D01*
X296400Y357900D01*
X297000D01*
X297599Y358500D01*
Y359700D01*
X297000Y360300D01*
X294001Y354302D02*
Y356701D01*
X296400Y354302D01*
X297000D01*
X297599Y354901D01*
Y356101D01*
X297000Y356701D01*
X367300Y329099D02*
X366101D01*
X366700D01*
Y326100D01*
X366101Y325501D01*
X365501D01*
X364901Y326100D01*
X370899Y325501D02*
X368500D01*
X370899Y327900D01*
Y328500D01*
X370299Y329099D01*
X369100D01*
X368500Y328500D01*
X233000Y299199D02*
X230601D01*
Y297400D01*
X231800D01*
X230601D01*
Y295601D01*
X234200D02*
X235399D01*
X234799D01*
Y299199D01*
X234200Y298600D01*
X267800Y334800D02*
X267200Y335399D01*
X266001D01*
X265401Y334800D01*
Y332400D01*
X266001Y331801D01*
X267200D01*
X267800Y332400D01*
X269000Y334800D02*
X269600Y335399D01*
X270799D01*
X271399Y334800D01*
Y334200D01*
X270799Y333600D01*
X271399Y333000D01*
Y332400D01*
X270799Y331801D01*
X269600D01*
X269000Y332400D01*
Y333000D01*
X269600Y333600D01*
X269000Y334200D01*
Y334800D01*
X269600Y333600D02*
X270799D01*
X238700Y294200D02*
X238101Y293600D01*
Y292401D01*
X238700Y291801D01*
X241100D01*
X241699Y292401D01*
Y293600D01*
X241100Y294200D01*
X241699Y297199D02*
X238101D01*
X239900Y295400D01*
Y297799D01*
X252500Y279600D02*
X251900Y280199D01*
X250701D01*
X250101Y279600D01*
Y277200D01*
X250701Y276601D01*
X251900D01*
X252500Y277200D01*
X253700Y279600D02*
X254300Y280199D01*
X255499D01*
X256099Y279600D01*
Y279000D01*
X255499Y278400D01*
X254899D01*
X255499D01*
X256099Y277800D01*
Y277200D01*
X255499Y276601D01*
X254300D01*
X253700Y277200D01*
X246300Y289500D02*
X245700Y290099D01*
X244501D01*
X243901Y289500D01*
Y287100D01*
X244501Y286501D01*
X245700D01*
X246300Y287100D01*
X247500Y286501D02*
X248699D01*
X248099D01*
Y290099D01*
X247500Y289500D01*
D14*
X216900Y315800D02*
X210902D01*
X212901Y317799D01*
X210902Y319799D01*
X216900D01*
X210902Y321798D02*
X216900D01*
Y325797D01*
Y331795D02*
Y327796D01*
X212901Y331795D01*
X211902D01*
X210902Y330795D01*
Y328796D01*
X211902Y327796D01*
Y333794D02*
X210902Y334794D01*
Y336793D01*
X211902Y337793D01*
X215900D01*
X216900Y336793D01*
Y334794D01*
X215900Y333794D01*
X211902D01*
X216900Y343791D02*
Y339792D01*
X212901Y343791D01*
X211902D01*
X210902Y342791D01*
Y340792D01*
X211902Y339792D01*
Y345790D02*
X210902Y346790D01*
Y348789D01*
X211902Y349789D01*
X215900D01*
X216900Y348789D01*
Y346790D01*
X215900Y345790D01*
X211902D01*
X210902Y357786D02*
X214901D01*
X216900Y359786D01*
X214901Y361785D01*
X210902D01*
X216900Y367783D02*
Y363785D01*
X212901Y367783D01*
X211902D01*
X210902Y366783D01*
Y364784D01*
X211902Y363785D01*
X210902Y369782D02*
Y371782D01*
Y370782D01*
X216900D01*
Y369782D01*
Y371782D01*
Y374781D02*
Y376780D01*
Y375781D01*
X210902D01*
X211902Y374781D01*
X216500Y389698D02*
Y383700D01*
X220499D01*
X222498Y389698D02*
Y383700D01*
Y385699D01*
X226497Y389698D01*
X223498Y386699D01*
X226497Y383700D01*
X228496D02*
Y387699D01*
X230496Y389698D01*
X232495Y387699D01*
Y383700D01*
Y386699D01*
X228496D01*
X238493Y388698D02*
X237493Y389698D01*
X235494D01*
X234494Y388698D01*
Y387699D01*
X235494Y386699D01*
X237493D01*
X238493Y385699D01*
Y384700D01*
X237493Y383700D01*
X235494D01*
X234494Y384700D01*
X240492Y383700D02*
X244491Y387699D01*
X250489Y389698D02*
X246490D01*
Y383700D01*
X250489D01*
X246490Y386699D02*
X248490D01*
X252488Y383700D02*
Y389698D01*
X255487D01*
X256487Y388698D01*
Y386699D01*
X255487Y385699D01*
X252488D01*
X262485Y388698D02*
X261485Y389698D01*
X259486D01*
X258486Y388698D01*
Y387699D01*
X259486Y386699D01*
X261485D01*
X262485Y385699D01*
Y384700D01*
X261485Y383700D01*
X259486D01*
X258486Y384700D01*
M02*
