G04*
G04 #@! TF.GenerationSoftware,Altium Limited,Altium Designer,21.0.8 (223)*
G04*
G04 Layer_Color=65535*
%FSLAX25Y25*%
%MOIN*%
G70*
G04*
G04 #@! TF.SameCoordinates,AE60A7D3-7942-428E-9249-63F1B2AFBED3*
G04*
G04*
G04 #@! TF.FilePolarity,Positive*
G04*
G01*
G75*
%ADD10C,0.00984*%
%ADD11C,0.01000*%
%ADD12C,0.00787*%
%ADD13C,0.00600*%
%ADD14C,0.01200*%
D10*
X344190Y344807D02*
G03*
X344190Y344807I-492J0D01*
G01*
X362192Y365435D02*
G03*
X362192Y365435I-492J0D01*
G01*
X217652Y286648D02*
G03*
X217652Y286648I-492J0D01*
G01*
X229785Y357200D02*
G03*
X229785Y357200I-492J0D01*
G01*
X248626Y279084D02*
G03*
X248626Y279084I-492J0D01*
G01*
D11*
X302830Y331600D02*
G03*
X302830Y331600I-1000J0D01*
G01*
X218004Y312687D02*
G03*
X218004Y312687I-700J0D01*
G01*
X298930Y352300D02*
Y353200D01*
X274530D02*
X298930D01*
X274530Y352200D02*
Y353200D01*
X274330Y332400D02*
Y333300D01*
Y332400D02*
X299330D01*
Y333600D01*
X219216Y314914D02*
Y352688D01*
Y314914D02*
X258192D01*
X219216Y352688D02*
X258192D01*
Y314914D02*
Y352688D01*
X373011Y219772D02*
Y330772D01*
X260011Y219772D02*
X373011D01*
X260011D02*
Y330772D01*
X373011D01*
X371010Y229772D02*
X369011D01*
X370011D01*
Y223774D01*
X371010Y224774D01*
X366012D02*
X365012Y223774D01*
X363013D01*
X362013Y224774D01*
Y228773D01*
X363013Y229772D01*
X365012D01*
X366012Y228773D01*
Y224774D01*
X365012Y243772D02*
X369010D01*
X365012Y239774D01*
Y238774D01*
X366011Y237774D01*
X368011D01*
X369010Y238774D01*
X363012D02*
X362013Y237774D01*
X360013D01*
X359014Y238774D01*
Y242773D01*
X360013Y243772D01*
X362013D01*
X363012Y242773D01*
Y238774D01*
X269010Y243772D02*
X267011D01*
X268011D01*
Y237774D01*
X269010Y238774D01*
X264012Y243772D02*
X262013D01*
X263013D01*
Y237774D01*
X264012Y238774D01*
X273010Y229772D02*
X271011D01*
X272011D01*
Y223774D01*
X273010Y224774D01*
X271516Y304870D02*
X269517D01*
X270517D01*
Y298872D01*
X271516Y299872D01*
X268516Y318870D02*
X266517D01*
X267517D01*
Y312872D01*
X268516Y313872D01*
X263518Y318870D02*
X261519D01*
X262518D01*
Y312872D01*
X263518Y313872D01*
X363517Y318870D02*
X367516D01*
X363517Y314871D01*
Y313872D01*
X364517Y312872D01*
X366516D01*
X367516Y313872D01*
X361518D02*
X360518Y312872D01*
X358519D01*
X357519Y313872D01*
Y317870D01*
X358519Y318870D01*
X360518D01*
X361518Y317870D01*
Y313872D01*
X371516Y304870D02*
X369517D01*
X370516D01*
Y298872D01*
X371516Y299872D01*
X366518D02*
X365518Y298872D01*
X363519D01*
X362519Y299872D01*
Y303870D01*
X363519Y304870D01*
X365518D01*
X366518Y303870D01*
Y299872D01*
D12*
X338422Y369531D02*
X341139D01*
Y366815D02*
Y369531D01*
X315824D02*
X318540D01*
X315824Y366815D02*
Y369531D01*
Y344216D02*
Y346933D01*
Y344216D02*
X318540D01*
X338422D02*
X341139D01*
Y346933D01*
X218729Y362357D02*
X228965D01*
Y356845D02*
Y362357D01*
X218729Y356845D02*
Y362357D01*
Y356845D02*
X228965D01*
X218729Y368057D02*
X228965D01*
Y362545D02*
Y368057D01*
X218729Y362545D02*
Y368057D01*
Y362545D02*
X228965D01*
X218729Y373456D02*
X228965D01*
Y367944D02*
Y373456D01*
X218729Y367944D02*
Y373456D01*
Y367944D02*
X228965D01*
X218729Y379023D02*
X228965D01*
Y373511D02*
Y379023D01*
X218729Y373511D02*
Y379023D01*
Y373511D02*
X228965D01*
X283210Y354482D02*
Y364718D01*
X277698Y354482D02*
X283210D01*
X277698Y364718D02*
X283210D01*
X277698Y354482D02*
Y364718D01*
X314258Y342676D02*
Y349566D01*
X307554Y342655D02*
Y349545D01*
X330710Y376012D02*
X366891D01*
X330710Y389988D02*
X366891D01*
X330710Y376012D02*
Y389988D01*
X366891Y376012D02*
Y389988D01*
X310531Y382909D02*
Y384090D01*
X314469Y382909D02*
Y384090D01*
X310531Y382909D02*
X314469D01*
X297229D02*
Y384090D01*
X301166Y382909D02*
Y384090D01*
X297229Y382909D02*
X301166D01*
X356582Y375556D02*
X366818D01*
Y370044D02*
Y375556D01*
X356582Y370044D02*
Y375556D01*
Y370044D02*
X366818D01*
X345342Y355734D02*
Y362624D01*
X352046Y355755D02*
Y362645D01*
X352145Y342248D02*
Y350352D01*
X345255Y342248D02*
Y350352D01*
X354810Y339253D02*
Y362876D01*
X368590Y339253D02*
Y362876D01*
X314258Y364414D02*
Y371304D01*
X307554Y364393D02*
Y371283D01*
X337296Y342158D02*
X344186D01*
X337317Y335454D02*
X344207D01*
X324082Y341356D02*
X334318D01*
Y335844D02*
Y341356D01*
X324082Y335844D02*
Y341356D01*
Y335844D02*
X334318D01*
X301142Y339334D02*
Y346224D01*
X307846Y339355D02*
Y346245D01*
X265542Y339334D02*
Y346224D01*
X272247Y339355D02*
Y346245D01*
X217013Y311245D02*
X225116D01*
X217013Y304355D02*
X225116D01*
X249938Y283842D02*
X256828D01*
X249917Y290546D02*
X256807D01*
X212334Y284858D02*
X219224D01*
X212355Y278153D02*
X219245D01*
X271757Y354482D02*
Y364718D01*
X277269D01*
X271757Y354482D02*
X277269D01*
Y364718D01*
X277156Y369282D02*
Y379518D01*
X271644Y369282D02*
X277156D01*
X271644Y379518D02*
X277156D01*
X271644Y369282D02*
Y379518D01*
X288956Y354482D02*
Y364718D01*
X283444Y354482D02*
X288956D01*
X283444Y364718D02*
X288956D01*
X283444Y354482D02*
Y364718D01*
X282656Y369382D02*
Y379618D01*
X277144Y369382D02*
X282656D01*
X277144Y379618D02*
X282656D01*
X277144Y369382D02*
Y379618D01*
X259245Y341335D02*
Y351571D01*
X264757D01*
X259245Y341335D02*
X264757D01*
Y351571D01*
X214995Y294522D02*
X226805D01*
Y297278D01*
X214995D02*
X226805D01*
X214995Y294522D02*
Y297278D01*
X211848Y271255D02*
X219952D01*
X211848Y278145D02*
X219952D01*
X271558Y370876D02*
Y377766D01*
X264854Y370855D02*
Y377745D01*
X264842Y355796D02*
Y362686D01*
X271547Y355817D02*
Y362707D01*
X238983Y312678D02*
X249417D01*
X238983Y299922D02*
X249417D01*
X230376Y361098D02*
Y374247D01*
Y361098D02*
X264824D01*
X230376Y374247D02*
X264824D01*
Y361098D02*
Y374247D01*
X249026Y297650D02*
X251574D01*
X249026Y291350D02*
X251574D01*
X255063Y255856D02*
Y266880D01*
X212937D02*
X255063D01*
X212937Y255856D02*
Y266880D01*
D13*
X329123Y384575D02*
X326458D01*
X329123Y387241D01*
Y387907D01*
X328457Y388574D01*
X327124D01*
X326458Y387907D01*
X328032Y377488D02*
X329365D01*
X328699D01*
Y381487D01*
X328032Y380820D01*
X368387Y384575D02*
X369720D01*
X369053D01*
Y388574D01*
X368387Y387907D01*
X373718Y384575D02*
Y388574D01*
X371719Y386574D01*
X374385D01*
X368387Y377488D02*
X369720D01*
X369053D01*
Y381487D01*
X368387Y380820D01*
X371719D02*
X372385Y381487D01*
X373718D01*
X374385Y380820D01*
Y380154D01*
X373718Y379487D01*
X373052D01*
X373718D01*
X374385Y378821D01*
Y378155D01*
X373718Y377488D01*
X372385D01*
X371719Y378155D01*
X370001Y353399D02*
X372400Y349801D01*
Y353399D02*
X370001Y349801D01*
X373600D02*
X374799D01*
X374199D01*
Y353399D01*
X373600Y352800D01*
X211700Y304101D02*
X211101Y303501D01*
Y302301D01*
X211700Y301701D01*
X214100D01*
X214699Y302301D01*
Y303501D01*
X214100Y304101D01*
X214699Y305300D02*
Y306500D01*
Y305900D01*
X211101D01*
X211700Y305300D01*
X211101Y310699D02*
X211700Y309499D01*
X212900Y308299D01*
X214100D01*
X214699Y308899D01*
Y310099D01*
X214100Y310699D01*
X213500D01*
X212900Y310099D01*
Y308299D01*
X311501Y340299D02*
Y337300D01*
X312101Y336701D01*
X313300D01*
X313900Y337300D01*
Y340299D01*
X317499D02*
X315100D01*
Y338500D01*
X316299Y339100D01*
X316899D01*
X317499Y338500D01*
Y337300D01*
X316899Y336701D01*
X315700D01*
X315100Y337300D01*
X226600Y306501D02*
X226001Y305901D01*
Y304701D01*
X226600Y304101D01*
X227200D01*
X227800Y304701D01*
Y305901D01*
X228400Y306501D01*
X229000D01*
X229599Y305901D01*
Y304701D01*
X229000Y304101D01*
X226001Y307700D02*
X229599D01*
X228400Y308900D01*
X229599Y310099D01*
X226001D01*
X229599Y311299D02*
Y312499D01*
Y311899D01*
X226001D01*
X226600Y311299D01*
X346101Y370901D02*
Y374499D01*
X347901D01*
X348501Y373900D01*
Y372700D01*
X347901Y372100D01*
X346101D01*
X347301D02*
X348501Y370901D01*
X349700D02*
X350900D01*
X350300D01*
Y374499D01*
X349700Y373900D01*
X355099Y370901D02*
X352699D01*
X355099Y373300D01*
Y373900D01*
X354499Y374499D01*
X353299D01*
X352699Y373900D01*
X322899Y332301D02*
X319301D01*
Y334101D01*
X319900Y334700D01*
X321100D01*
X321700Y334101D01*
Y332301D01*
Y333501D02*
X322899Y334700D01*
Y335900D02*
Y337100D01*
Y336500D01*
X319301D01*
X319900Y335900D01*
X322899Y338899D02*
Y340099D01*
Y339499D01*
X319301D01*
X319900Y338899D01*
X315987Y371401D02*
Y374999D01*
X317787D01*
X318387Y374400D01*
Y373200D01*
X317787Y372600D01*
X315987D01*
X317187D02*
X318387Y371401D01*
X319586D02*
X320786D01*
X320186D01*
Y374999D01*
X319586Y374400D01*
X322585D02*
X323185Y374999D01*
X324384D01*
X324984Y374400D01*
Y372000D01*
X324384Y371401D01*
X323185D01*
X322585Y372000D01*
Y374400D01*
X294499Y381401D02*
X290901D01*
Y383200D01*
X291500Y383800D01*
X292700D01*
X293300Y383200D01*
Y381401D01*
Y382601D02*
X294499Y383800D01*
X293900Y385000D02*
X294499Y385600D01*
Y386799D01*
X293900Y387399D01*
X291500D01*
X290901Y386799D01*
Y385600D01*
X291500Y385000D01*
X292100D01*
X292700Y385600D01*
Y387399D01*
X369801Y371901D02*
Y375499D01*
X371600D01*
X372200Y374900D01*
Y373700D01*
X371600Y373100D01*
X369801D01*
X373400Y371901D02*
X374599D01*
X373999D01*
Y375499D01*
X373400Y374900D01*
X306975Y358074D02*
X306375Y358673D01*
X305175D01*
X304575Y358074D01*
Y355674D01*
X305175Y355075D01*
X306375D01*
X306975Y355674D01*
X308174Y355075D02*
X309374D01*
X308774D01*
Y358673D01*
X308174Y358074D01*
X313573Y358673D02*
X311173D01*
Y356874D01*
X312373Y357474D01*
X312973D01*
X313573Y356874D01*
Y355674D01*
X312973Y355075D01*
X311773D01*
X311173Y355674D01*
X252500Y279100D02*
X251900Y279699D01*
X250701D01*
X250101Y279100D01*
Y276700D01*
X250701Y276101D01*
X251900D01*
X252500Y276700D01*
X256099Y276101D02*
X253700D01*
X256099Y278500D01*
Y279100D01*
X255499Y279699D01*
X254300D01*
X253700Y279100D01*
X321501Y375902D02*
X325099D01*
Y378301D01*
X321501Y381900D02*
Y379501D01*
X325099D01*
Y381900D01*
X323300Y379501D02*
Y380701D01*
X321501Y383100D02*
X325099D01*
Y384899D01*
X324500Y385499D01*
X322100D01*
X321501Y384899D01*
Y383100D01*
X325099Y389098D02*
Y386699D01*
X322700Y389098D01*
X322100D01*
X321501Y388498D01*
Y387298D01*
X322100Y386699D01*
X285901Y377902D02*
X289499D01*
Y380301D01*
X285901Y383900D02*
Y381501D01*
X289499D01*
Y383900D01*
X287700Y381501D02*
Y382700D01*
X285901Y385100D02*
X289499D01*
Y386899D01*
X288900Y387499D01*
X286500D01*
X285901Y386899D01*
Y385100D01*
X289499Y388699D02*
Y389898D01*
Y389298D01*
X285901D01*
X286500Y388699D01*
X224901Y383099D02*
Y380100D01*
X225501Y379501D01*
X226700D01*
X227300Y380100D01*
Y383099D01*
X230299Y379501D02*
Y383099D01*
X228500Y381300D01*
X230899D01*
X211001Y379601D02*
Y383199D01*
X212800D01*
X213400Y382600D01*
Y381400D01*
X212800Y380800D01*
X211001D01*
X212201D02*
X213400Y379601D01*
X214600Y382600D02*
X215200Y383199D01*
X216399D01*
X216999Y382600D01*
Y382000D01*
X216399Y381400D01*
X216999Y380800D01*
Y380200D01*
X216399Y379601D01*
X215200D01*
X214600Y380200D01*
Y380800D01*
X215200Y381400D01*
X214600Y382000D01*
Y382600D01*
X215200Y381400D02*
X216399D01*
X281799Y381901D02*
X278201D01*
Y383700D01*
X278800Y384300D01*
X280000D01*
X280600Y383700D01*
Y381901D01*
Y383101D02*
X281799Y384300D01*
X278800Y385500D02*
X278201Y386100D01*
Y387299D01*
X278800Y387899D01*
X279400D01*
X280000Y387299D01*
Y386699D01*
Y387299D01*
X280600Y387899D01*
X281200D01*
X281799Y387299D01*
Y386100D01*
X281200Y385500D01*
X211101Y384101D02*
Y387699D01*
X212900D01*
X213500Y387100D01*
Y385900D01*
X212900Y385300D01*
X211101D01*
X212300D02*
X213500Y384101D01*
X214700D02*
X215899D01*
X215299D01*
Y387699D01*
X214700Y387100D01*
X275899Y381901D02*
X272301D01*
Y383700D01*
X272900Y384300D01*
X274100D01*
X274700Y383700D01*
Y381901D01*
Y383101D02*
X275899Y384300D01*
X272301Y387899D02*
X272900Y386699D01*
X274100Y385500D01*
X275300D01*
X275899Y386100D01*
Y387299D01*
X275300Y387899D01*
X274700D01*
X274100Y387299D01*
Y385500D01*
X266800Y383701D02*
X266201Y383101D01*
Y381901D01*
X266800Y381301D01*
X269200D01*
X269799Y381901D01*
Y383101D01*
X269200Y383701D01*
X269799Y384900D02*
Y386100D01*
Y385500D01*
X266201D01*
X266800Y384900D01*
X269799Y389699D02*
X266201D01*
X268000Y387899D01*
Y390299D01*
X346701Y354100D02*
X346101Y354699D01*
X344901D01*
X344302Y354100D01*
Y351700D01*
X344901Y351101D01*
X346101D01*
X346701Y351700D01*
X347900Y351101D02*
X349100D01*
X348500D01*
Y354699D01*
X347900Y354100D01*
X350899D02*
X351499Y354699D01*
X352699D01*
X353298Y354100D01*
Y351700D01*
X352699Y351101D01*
X351499D01*
X350899Y351700D01*
Y354100D01*
X303800Y353000D02*
X303200Y353599D01*
X302001D01*
X301401Y353000D01*
Y350600D01*
X302001Y350001D01*
X303200D01*
X303800Y350600D01*
X305000D02*
X305600Y350001D01*
X306799D01*
X307399Y350600D01*
Y353000D01*
X306799Y353599D01*
X305600D01*
X305000Y353000D01*
Y352400D01*
X305600Y351800D01*
X307399D01*
X307901Y362400D02*
X307301Y362999D01*
X306101D01*
X305501Y362400D01*
Y360000D01*
X306101Y359401D01*
X307301D01*
X307901Y360000D01*
X309100Y359401D02*
X310300D01*
X309700D01*
Y362999D01*
X309100Y362400D01*
X312099Y359401D02*
X313299D01*
X312699D01*
Y362999D01*
X312099Y362400D01*
X211001Y375001D02*
Y378599D01*
X212800D01*
X213400Y378000D01*
Y376800D01*
X212800Y376200D01*
X211001D01*
X212201D02*
X213400Y375001D01*
X216399D02*
Y378599D01*
X214600Y376800D01*
X216999D01*
X263399Y333901D02*
X259801D01*
Y335700D01*
X260400Y336300D01*
X261600D01*
X262200Y335700D01*
Y333901D01*
Y335101D02*
X263399Y336300D01*
Y339899D02*
Y337500D01*
X261000Y339899D01*
X260400D01*
X259801Y339299D01*
Y338100D01*
X260400Y337500D01*
X211101Y348901D02*
Y352499D01*
X212900D01*
X213500Y351900D01*
Y350700D01*
X212900Y350100D01*
X211101D01*
X212301D02*
X213500Y348901D01*
X214700Y352499D02*
X217099D01*
Y351900D01*
X214700Y349500D01*
Y348901D01*
X299001Y360607D02*
X302599D01*
Y358807D01*
X302000Y358208D01*
X300800D01*
X300200Y358807D01*
Y360607D01*
Y359407D02*
X299001Y358208D01*
X302599Y354609D02*
Y357008D01*
X300800D01*
X301400Y355808D01*
Y355209D01*
X300800Y354609D01*
X299600D01*
X299001Y355209D01*
Y356408D01*
X299600Y357008D01*
X268410Y368681D02*
X267810Y369281D01*
X266611D01*
X266011Y368681D01*
Y366282D01*
X266611Y365682D01*
X267810D01*
X268410Y366282D01*
X269610Y365682D02*
X270809D01*
X270210D01*
Y369281D01*
X269610Y368681D01*
X272609D02*
X273209Y369281D01*
X274408D01*
X275008Y368681D01*
Y368081D01*
X274408Y367481D01*
X273808D01*
X274408D01*
X275008Y366881D01*
Y366282D01*
X274408Y365682D01*
X273209D01*
X272609Y366282D01*
X211301Y287201D02*
X214300D01*
X214899Y287801D01*
Y289000D01*
X214300Y289600D01*
X211301D01*
X211900Y290800D02*
X211301Y291400D01*
Y292599D01*
X211900Y293199D01*
X212500D01*
X213100Y292599D01*
Y291999D01*
Y292599D01*
X213700Y293199D01*
X214300D01*
X214899Y292599D01*
Y291400D01*
X214300Y290800D01*
X266004Y352799D02*
Y349800D01*
X266604Y349201D01*
X267804D01*
X268404Y349800D01*
Y352799D01*
X272003Y349201D02*
X269603D01*
X272003Y351600D01*
Y352200D01*
X271403Y352799D01*
X270203D01*
X269603Y352200D01*
X257501Y223899D02*
Y220900D01*
X258101Y220301D01*
X259300D01*
X259900Y220900D01*
Y223899D01*
X261100Y220301D02*
X262299D01*
X261699D01*
Y223899D01*
X261100Y223300D01*
X289701Y364206D02*
X293299D01*
Y362406D01*
X292700Y361807D01*
X291500D01*
X290900Y362406D01*
Y364206D01*
Y363006D02*
X289701Y361807D01*
Y358208D02*
Y360607D01*
X292100Y358208D01*
X292700D01*
X293299Y358807D01*
Y360007D01*
X292700Y360607D01*
Y357008D02*
X293299Y356408D01*
Y355209D01*
X292700Y354609D01*
X292100D01*
X291500Y355209D01*
Y355808D01*
Y355209D01*
X290900Y354609D01*
X290300D01*
X289701Y355209D01*
Y356408D01*
X290300Y357008D01*
X293801Y364206D02*
X297399D01*
Y362406D01*
X296800Y361807D01*
X295600D01*
X295000Y362406D01*
Y364206D01*
Y363006D02*
X293801Y361807D01*
Y358208D02*
Y360607D01*
X296200Y358208D01*
X296800D01*
X297399Y358807D01*
Y360007D01*
X296800Y360607D01*
X293801Y354609D02*
Y357008D01*
X296200Y354609D01*
X296800D01*
X297399Y355209D01*
Y356408D01*
X296800Y357008D01*
X307900Y335299D02*
X306701D01*
X307300D01*
Y332300D01*
X306701Y331701D01*
X306101D01*
X305501Y332300D01*
X311499Y331701D02*
X309100D01*
X311499Y334100D01*
Y334700D01*
X310899Y335299D01*
X309700D01*
X309100Y334700D01*
X233100Y299199D02*
X230701D01*
Y297400D01*
X231900D01*
X230701D01*
Y295601D01*
X234300D02*
X235499D01*
X234899D01*
Y299199D01*
X234300Y298600D01*
X347801Y334700D02*
X347201Y335299D01*
X346001D01*
X345402Y334700D01*
Y332300D01*
X346001Y331701D01*
X347201D01*
X347801Y332300D01*
X349000Y331701D02*
X350200D01*
X349600D01*
Y335299D01*
X349000Y334700D01*
X354398Y331701D02*
X351999D01*
X354398Y334100D01*
Y334700D01*
X353799Y335299D01*
X352599D01*
X351999Y334700D01*
X267800Y334800D02*
X267200Y335399D01*
X266001D01*
X265401Y334800D01*
Y332400D01*
X266001Y331801D01*
X267200D01*
X267800Y332400D01*
X269000Y334800D02*
X269600Y335399D01*
X270799D01*
X271399Y334800D01*
Y334200D01*
X270799Y333600D01*
X271399Y333000D01*
Y332400D01*
X270799Y331801D01*
X269600D01*
X269000Y332400D01*
Y333000D01*
X269600Y333600D01*
X269000Y334200D01*
Y334800D01*
X269600Y333600D02*
X270799D01*
X350900Y337900D02*
X350301Y337300D01*
Y336101D01*
X350900Y335501D01*
X353300D01*
X353899Y336101D01*
Y337300D01*
X353300Y337900D01*
X350301Y339100D02*
Y341499D01*
X350900D01*
X353300Y339100D01*
X353899D01*
X352600Y367700D02*
X352000Y368299D01*
X350801D01*
X350201Y367700D01*
Y365300D01*
X350801Y364701D01*
X352000D01*
X352600Y365300D01*
X356199Y368299D02*
X354999Y367700D01*
X353800Y366500D01*
Y365300D01*
X354400Y364701D01*
X355599D01*
X356199Y365300D01*
Y365900D01*
X355599Y366500D01*
X353800D01*
X371400Y335100D02*
X370801Y334500D01*
Y333301D01*
X371400Y332701D01*
X373800D01*
X374399Y333301D01*
Y334500D01*
X373800Y335100D01*
X370801Y338699D02*
Y336300D01*
X372600D01*
X372000Y337499D01*
Y338099D01*
X372600Y338699D01*
X373800D01*
X374399Y338099D01*
Y336900D01*
X373800Y336300D01*
X238500Y294700D02*
X237900Y295299D01*
X236701D01*
X236101Y294700D01*
Y292300D01*
X236701Y291701D01*
X237900D01*
X238500Y292300D01*
X241499Y291701D02*
Y295299D01*
X239700Y293500D01*
X242099D01*
X252600Y272700D02*
X252000Y273299D01*
X250801D01*
X250201Y272700D01*
Y270300D01*
X250801Y269701D01*
X252000D01*
X252600Y270300D01*
X253800Y272700D02*
X254400Y273299D01*
X255599D01*
X256199Y272700D01*
Y272100D01*
X255599Y271500D01*
X254999D01*
X255599D01*
X256199Y270900D01*
Y270300D01*
X255599Y269701D01*
X254400D01*
X253800Y270300D01*
X246300Y289500D02*
X245700Y290099D01*
X244501D01*
X243901Y289500D01*
Y287100D01*
X244501Y286501D01*
X245700D01*
X246300Y287100D01*
X247500Y286501D02*
X248699D01*
X248099D01*
Y290099D01*
X247500Y289500D01*
D14*
X216900Y312900D02*
X210902D01*
X212901Y314899D01*
X210902Y316899D01*
X216900D01*
X210902Y318898D02*
X216900D01*
Y322897D01*
Y328895D02*
Y324896D01*
X212901Y328895D01*
X211902D01*
X210902Y327895D01*
Y325896D01*
X211902Y324896D01*
Y330894D02*
X210902Y331894D01*
Y333893D01*
X211902Y334893D01*
X215900D01*
X216900Y333893D01*
Y331894D01*
X215900Y330894D01*
X211902D01*
X216900Y340891D02*
Y336892D01*
X212901Y340891D01*
X211902D01*
X210902Y339891D01*
Y337892D01*
X211902Y336892D01*
Y342890D02*
X210902Y343890D01*
Y345889D01*
X211902Y346889D01*
X215900D01*
X216900Y345889D01*
Y343890D01*
X215900Y342890D01*
X211902D01*
X210902Y354886D02*
X214901D01*
X216900Y356886D01*
X214901Y358885D01*
X210902D01*
X216900Y364883D02*
Y360884D01*
X212901Y364883D01*
X211902D01*
X210902Y363883D01*
Y361884D01*
X211902Y360884D01*
X210902Y366882D02*
Y368882D01*
Y367882D01*
X216900D01*
Y366882D01*
Y368882D01*
Y371881D02*
Y373880D01*
Y372881D01*
X210902D01*
X211902Y371881D01*
X217600Y389798D02*
Y383800D01*
X221599D01*
X223598Y389798D02*
Y383800D01*
Y385799D01*
X227597Y389798D01*
X224598Y386799D01*
X227597Y383800D01*
X229596D02*
Y387799D01*
X231595Y389798D01*
X233595Y387799D01*
Y383800D01*
Y386799D01*
X229596D01*
X239593Y388798D02*
X238593Y389798D01*
X236594D01*
X235594Y388798D01*
Y387799D01*
X236594Y386799D01*
X238593D01*
X239593Y385799D01*
Y384800D01*
X238593Y383800D01*
X236594D01*
X235594Y384800D01*
X241592Y383800D02*
X245591Y387799D01*
X251589Y389798D02*
X247590D01*
Y383800D01*
X251589D01*
X247590Y386799D02*
X249590D01*
X253588Y383800D02*
Y389798D01*
X256587D01*
X257587Y388798D01*
Y386799D01*
X256587Y385799D01*
X253588D01*
X263585Y388798D02*
X262585Y389798D01*
X260586D01*
X259586Y388798D01*
Y387799D01*
X260586Y386799D01*
X262585D01*
X263585Y385799D01*
Y384800D01*
X262585Y383800D01*
X260586D01*
X259586Y384800D01*
M02*
