G04*
G04 #@! TF.GenerationSoftware,Altium Limited,Altium Designer,21.0.8 (223)*
G04*
G04 Layer_Color=8388736*
%FSLAX25Y25*%
%MOIN*%
G70*
G04*
G04 #@! TF.SameCoordinates,53D1A9A1-71C5-4B57-A858-D8A7AC7FB82A*
G04*
G04*
G04 #@! TF.FilePolarity,Positive*
G04*
G01*
G75*
%ADD12C,0.00787*%
D12*
X311730Y339255D02*
Y346145D01*
X315470D01*
Y339255D02*
Y346145D01*
X311730Y339255D02*
X315470D01*
X350555Y332264D02*
X357445D01*
X350555D02*
Y336004D01*
X357445D01*
Y332264D02*
Y336004D01*
X354055Y380270D02*
X360945D01*
Y376530D02*
Y380270D01*
X354055Y376530D02*
X360945D01*
X354055D02*
Y380270D01*
X356244Y372815D02*
X362544D01*
Y369665D02*
Y372815D01*
X356244Y369665D02*
X362544D01*
X356244D02*
Y372815D01*
X315430Y367055D02*
Y373945D01*
X319170D01*
Y367055D02*
Y373945D01*
X315430Y367055D02*
X319170D01*
X302630Y346245D02*
X306370D01*
X302630Y339355D02*
Y346245D01*
Y339355D02*
X306370D01*
Y346245D01*
X267030D02*
X270770D01*
X267030Y339355D02*
Y346245D01*
Y339355D02*
X270770D01*
Y346245D01*
X217915Y306225D02*
Y309375D01*
Y306225D02*
X224215D01*
Y309375D01*
X217915D02*
X224215D01*
X249917Y285330D02*
Y289070D01*
Y285330D02*
X256807D01*
Y289070D01*
X249917D02*
X256807D01*
X219245Y272930D02*
Y276670D01*
X212355D02*
X219245D01*
X212355Y272930D02*
Y276670D01*
Y272930D02*
X219245D01*
X214995Y292553D02*
X226805D01*
Y299247D01*
X214995D02*
X226805D01*
X214995Y292553D02*
Y299247D01*
X218950Y280025D02*
Y283175D01*
X212650D02*
X218950D01*
X212650Y280025D02*
Y283175D01*
Y280025D02*
X218950D01*
X266330Y370855D02*
X270070D01*
Y377745D01*
X266330D02*
X270070D01*
X266330Y370855D02*
Y377745D01*
Y362707D02*
X270070D01*
X266330Y355817D02*
Y362707D01*
Y355817D02*
X270070D01*
Y362707D01*
X244001Y297650D02*
X256599D01*
Y291350D02*
Y297650D01*
X244001Y291350D02*
X256599D01*
X244001D02*
Y297650D01*
M02*
