G04*
G04 #@! TF.GenerationSoftware,Altium Limited,Altium Designer,21.0.8 (223)*
G04*
G04 Layer_Color=16711935*
%FSLAX25Y25*%
%MOIN*%
G70*
G04*
G04 #@! TF.SameCoordinates,53D1A9A1-71C5-4B57-A858-D8A7AC7FB82A*
G04*
G04*
G04 #@! TF.FilePolarity,Positive*
G04*
G01*
G75*
%ADD12C,0.00787*%
%ADD95C,0.00394*%
D12*
X373200Y404676D02*
X369264D01*
Y402708D01*
X369920Y402052D01*
X371232D01*
X371888Y402708D01*
Y404676D01*
X369920Y398116D02*
X369264Y398772D01*
Y400084D01*
X369920Y400740D01*
X372544D01*
X373200Y400084D01*
Y398772D01*
X372544Y398116D01*
X369264Y396804D02*
X373200D01*
Y394836D01*
X372544Y394180D01*
X371888D01*
X371232Y394836D01*
Y396804D01*
Y394836D01*
X370576Y394180D01*
X369920D01*
X369264Y394836D01*
Y396804D01*
Y386309D02*
Y388933D01*
X373200D01*
Y386309D01*
X371232Y388933D02*
Y387621D01*
X369264Y382373D02*
X373200D01*
Y384341D01*
X372544Y384997D01*
X371232D01*
X370576Y384341D01*
Y382373D01*
X374512Y379749D02*
Y379093D01*
X373856Y378437D01*
X370576D01*
Y380405D01*
X371232Y381061D01*
X372544D01*
X373200Y380405D01*
Y378437D01*
Y375157D02*
Y376469D01*
X372544Y377125D01*
X371232D01*
X370576Y376469D01*
Y375157D01*
X371232Y374502D01*
X371888D01*
Y377125D01*
D95*
X375909Y329053D02*
Y376298D01*
M02*
