G04*
G04 #@! TF.GenerationSoftware,Altium Limited,Altium Designer,21.0.8 (223)*
G04*
G04 Layer_Color=8421504*
%FSLAX25Y25*%
%MOIN*%
G70*
G04*
G04 #@! TF.SameCoordinates,53D1A9A1-71C5-4B57-A858-D8A7AC7FB82A*
G04*
G04*
G04 #@! TF.FilePolarity,Positive*
G04*
G01*
G75*
%ADD16O,0.03937X0.00984*%
%ADD17O,0.00984X0.03937*%
%ADD18R,0.21500X0.21500*%
%ADD19O,0.00984X0.06102*%
%ADD20O,0.06102X0.00984*%
%ADD21R,0.02559X0.03543*%
%ADD22R,0.03543X0.02953*%
%ADD23R,0.02953X0.03543*%
%ADD24R,0.10236X0.07480*%
%ADD25R,0.03543X0.04134*%
%ADD26R,0.03174X0.03379*%
%ADD27R,0.04134X0.03740*%
%ADD28R,0.03740X0.04134*%
%ADD29R,0.03543X0.02559*%
%ADD30R,0.04724X0.04331*%
%ADD31R,0.03937X0.03150*%
%ADD32R,0.06102X0.02362*%
%ADD33R,0.02598X0.03937*%
%ADD34R,0.07008X0.12402*%
%ADD35R,0.02284X0.04646*%
%ADD36R,0.04545X0.06717*%
%ADD37R,0.42126X0.33858*%
%ADD38R,0.03937X0.13386*%
D16*
X350811Y343907D02*
D03*
Y345876D02*
D03*
Y347844D02*
D03*
Y349813D02*
D03*
Y351781D02*
D03*
Y353750D02*
D03*
Y355718D02*
D03*
Y357687D02*
D03*
Y359655D02*
D03*
Y361624D02*
D03*
Y363592D02*
D03*
Y365561D02*
D03*
X323252D02*
D03*
Y363592D02*
D03*
Y361624D02*
D03*
Y359655D02*
D03*
Y357687D02*
D03*
Y355718D02*
D03*
Y353750D02*
D03*
Y351781D02*
D03*
Y349813D02*
D03*
Y347844D02*
D03*
Y345876D02*
D03*
Y343907D02*
D03*
D17*
X347858Y368513D02*
D03*
X345890D02*
D03*
X343921D02*
D03*
X341953D02*
D03*
X339984D02*
D03*
X338016D02*
D03*
X336047D02*
D03*
X334079D02*
D03*
X332110D02*
D03*
X330142D02*
D03*
X328173D02*
D03*
X326205D02*
D03*
Y340954D02*
D03*
X328173D02*
D03*
X330142D02*
D03*
X332110D02*
D03*
X334079D02*
D03*
X336047D02*
D03*
X338016D02*
D03*
X339984D02*
D03*
X341953D02*
D03*
X343921D02*
D03*
X345890D02*
D03*
X347858D02*
D03*
D18*
X337032Y354734D02*
D03*
D19*
X347858Y338887D02*
D03*
X345890D02*
D03*
X343921D02*
D03*
X341953D02*
D03*
X339984D02*
D03*
X338016D02*
D03*
X336047D02*
D03*
X334079D02*
D03*
X332110D02*
D03*
X330142D02*
D03*
X328173D02*
D03*
X326205D02*
D03*
Y370580D02*
D03*
X328173D02*
D03*
X330142D02*
D03*
X332110D02*
D03*
X334079D02*
D03*
X336047D02*
D03*
X338016D02*
D03*
X339984D02*
D03*
X341953D02*
D03*
X343921D02*
D03*
X345890D02*
D03*
X347858D02*
D03*
D20*
X321185Y343907D02*
D03*
Y345876D02*
D03*
Y347844D02*
D03*
Y349813D02*
D03*
Y351781D02*
D03*
Y353750D02*
D03*
Y355718D02*
D03*
Y357687D02*
D03*
Y359655D02*
D03*
Y361624D02*
D03*
Y363592D02*
D03*
Y365561D02*
D03*
X352878D02*
D03*
Y363592D02*
D03*
Y361624D02*
D03*
Y359655D02*
D03*
Y357687D02*
D03*
Y355718D02*
D03*
Y353750D02*
D03*
Y351781D02*
D03*
Y349813D02*
D03*
Y347844D02*
D03*
Y345876D02*
D03*
Y343907D02*
D03*
D21*
X369253Y382533D02*
D03*
X363347D02*
D03*
Y387933D02*
D03*
X369253D02*
D03*
X226800Y359600D02*
D03*
X220895D02*
D03*
X226800Y365300D02*
D03*
X220895D02*
D03*
X226800Y370699D02*
D03*
X220895D02*
D03*
X226800Y376266D02*
D03*
X220895D02*
D03*
X330153Y329001D02*
D03*
X324247D02*
D03*
D22*
X313600Y340338D02*
D03*
Y345062D02*
D03*
X317300Y368138D02*
D03*
Y372862D02*
D03*
X304500Y340438D02*
D03*
Y345162D02*
D03*
X268900Y340438D02*
D03*
Y345162D02*
D03*
X268200Y376662D02*
D03*
Y371938D02*
D03*
Y356900D02*
D03*
Y361624D02*
D03*
D23*
X356362Y334134D02*
D03*
X351638D02*
D03*
X355138Y378400D02*
D03*
X359862D02*
D03*
X255724Y287200D02*
D03*
X251000D02*
D03*
X213438Y274800D02*
D03*
X218162D02*
D03*
D24*
X366100Y362498D02*
D03*
Y345569D02*
D03*
D25*
X312042Y335700D02*
D03*
X317357D02*
D03*
X310542Y330200D02*
D03*
X315858D02*
D03*
D26*
X356929Y371240D02*
D03*
X361859D02*
D03*
X223530Y307800D02*
D03*
X218600D02*
D03*
X213335Y281600D02*
D03*
X218265D02*
D03*
D27*
X368500Y375054D02*
D03*
Y369346D02*
D03*
D28*
X366600Y338334D02*
D03*
X360891D02*
D03*
D29*
X280455Y356647D02*
D03*
Y362553D02*
D03*
X274512D02*
D03*
Y356647D02*
D03*
X274401Y371447D02*
D03*
Y377353D02*
D03*
X286201Y356647D02*
D03*
Y362553D02*
D03*
X279901Y371547D02*
D03*
Y377453D02*
D03*
X262000Y349406D02*
D03*
Y343500D02*
D03*
D30*
X307600Y379166D02*
D03*
Y387434D02*
D03*
X297100Y379266D02*
D03*
Y387534D02*
D03*
D31*
X312700Y386653D02*
D03*
Y380747D02*
D03*
X302171Y386653D02*
D03*
Y380747D02*
D03*
D32*
X276200Y335400D02*
D03*
X297460Y340400D02*
D03*
X276200Y350400D02*
D03*
X297460Y335400D02*
D03*
Y345400D02*
D03*
Y350400D02*
D03*
X276200Y345400D02*
D03*
Y340400D02*
D03*
D33*
X217160Y301018D02*
D03*
X224640D02*
D03*
Y290782D02*
D03*
X220900D02*
D03*
X217160D02*
D03*
D34*
X233905Y306300D02*
D03*
X254495D02*
D03*
D35*
X232600Y357200D02*
D03*
X237600D02*
D03*
X242600D02*
D03*
X247600D02*
D03*
X252600D02*
D03*
X257600D02*
D03*
X262600D02*
D03*
Y378145D02*
D03*
X257600D02*
D03*
X252600D02*
D03*
X247600D02*
D03*
X242600D02*
D03*
X237600D02*
D03*
X232600D02*
D03*
D36*
X245277Y294500D02*
D03*
X255323D02*
D03*
D37*
X234000Y237352D02*
D03*
D38*
Y279084D02*
D03*
X244000D02*
D03*
X224000D02*
D03*
M02*
