G04*
G04 #@! TF.GenerationSoftware,Altium Limited,Altium Designer,21.1.1 (26)*
G04*
G04 Layer_Color=32768*
%FSLAX25Y25*%
%MOIN*%
G70*
G04*
G04 #@! TF.SameCoordinates,D6B6CD0C-24BE-41C4-A853-45D6888EAD6D*
G04*
G04*
G04 #@! TF.FilePolarity,Positive*
G04*
G01*
G75*
%ADD112C,0.00394*%
%ADD113C,0.00197*%
D112*
X206153Y226909D02*
X212846D01*
X206153Y240491D02*
X212846D01*
X206153Y226909D02*
Y240491D01*
X212846Y226909D02*
Y240491D01*
X209500Y231732D02*
Y235668D01*
X207531Y233700D02*
X211469D01*
X238632Y231700D02*
X242568D01*
X240600Y229731D02*
Y233668D01*
X358432Y345800D02*
X362368D01*
X360400Y343831D02*
Y347768D01*
X382787Y303100D02*
X386528D01*
X384658Y301230D02*
Y304970D01*
X316362Y322331D02*
X320299D01*
X318331Y320362D02*
Y324299D01*
X327031Y293500D02*
X330968D01*
X329000Y291531D02*
Y295468D01*
X265828Y315600D02*
X269372D01*
X267600Y313828D02*
Y317372D01*
X283300Y324932D02*
Y328869D01*
X281331Y326900D02*
X285268D01*
X388400Y289332D02*
Y293268D01*
X386432Y291300D02*
X390369D01*
X267600Y319328D02*
Y322872D01*
X265828Y321100D02*
X269372D01*
X242032Y336500D02*
X245969D01*
X244000Y334531D02*
Y338469D01*
X270800Y332728D02*
Y336272D01*
X269028Y334500D02*
X272572D01*
X270800Y325128D02*
Y328672D01*
X269028Y326900D02*
X272572D01*
X206031Y300000D02*
X209968D01*
X208000Y298032D02*
Y301969D01*
X222500Y250647D02*
Y254584D01*
X220531Y252616D02*
X224468D01*
X212353Y226909D02*
X219046D01*
X212353Y240491D02*
X219046D01*
X212353Y226909D02*
Y240491D01*
X219046Y226909D02*
Y240491D01*
X215700Y231732D02*
Y235668D01*
X213732Y233700D02*
X217669D01*
X382787Y297400D02*
X386528D01*
X384658Y295530D02*
Y299270D01*
X382930Y281100D02*
X386670D01*
X384800Y279230D02*
Y282970D01*
D113*
X221505Y218314D02*
Y245086D01*
X259695D01*
Y218314D02*
Y245086D01*
X221505Y218314D02*
X259695D01*
X350813Y340800D02*
Y350800D01*
X369987Y340800D02*
Y350800D01*
X350813Y340800D02*
X369987D01*
X350813Y350800D02*
X369987D01*
X391154Y298966D02*
Y307234D01*
X378161Y298966D02*
Y307234D01*
X391154D01*
X378161Y298966D02*
X391154D01*
X300614Y304614D02*
Y340047D01*
X336047Y304614D02*
Y340047D01*
X300614Y304614D02*
X336047D01*
X300614Y340047D02*
X336047D01*
X338587Y288500D02*
Y298500D01*
X319413Y288500D02*
Y298500D01*
X338587D01*
X319413Y288500D02*
X338587D01*
X274096Y311663D02*
Y319537D01*
X261104Y311663D02*
Y319537D01*
X274096D01*
X261104Y311663D02*
X274096D01*
X276016Y314302D02*
Y339498D01*
X290583D01*
Y314302D02*
Y339498D01*
X276016Y314302D02*
X290583D01*
X374817Y272402D02*
Y310198D01*
Y272402D02*
X399306D01*
X374817Y310198D02*
X399306D01*
Y272402D02*
Y310198D01*
X261104Y317163D02*
X274096D01*
X261104Y325037D02*
X274096D01*
X261104Y317163D02*
Y325037D01*
X274096Y317163D02*
Y325037D01*
X226382Y323311D02*
X261618D01*
Y349689D01*
X226382D02*
X261618D01*
X226382Y323311D02*
Y349689D01*
X264107Y330366D02*
X277493D01*
X264107Y338634D02*
X277493D01*
X264107Y330366D02*
Y338634D01*
X277493Y330366D02*
Y338634D01*
X264107Y322766D02*
X277493D01*
X264107Y331034D02*
X277493D01*
X264107Y322766D02*
Y331034D01*
X277493Y322766D02*
Y331034D01*
X214772Y285807D02*
Y314193D01*
X201228Y285807D02*
Y314193D01*
Y285807D02*
X214772D01*
X201228Y314193D02*
X214772D01*
X201043Y285687D02*
X243957D01*
X201043Y219545D02*
X243957D01*
X201043D02*
Y285687D01*
X243957Y219545D02*
Y285687D01*
X391154Y293266D02*
Y301534D01*
X378161Y293266D02*
Y301534D01*
X391154D01*
X378161Y293266D02*
X391154D01*
X391296Y276966D02*
Y285234D01*
X378304Y276966D02*
Y285234D01*
X391296D01*
X378304Y276966D02*
X391296D01*
X378024Y313522D02*
X393576D01*
Y351278D01*
X378024D02*
X393576D01*
X378024Y313522D02*
Y351278D01*
X385800Y330432D02*
Y334368D01*
X383832Y332400D02*
X387769D01*
M02*
