G04*
G04 #@! TF.GenerationSoftware,Altium Limited,Altium Designer,21.1.1 (26)*
G04*
G04 Layer_Color=65535*
%FSLAX25Y25*%
%MOIN*%
G70*
G04*
G04 #@! TF.SameCoordinates,D6B6CD0C-24BE-41C4-A853-45D6888EAD6D*
G04*
G04*
G04 #@! TF.FilePolarity,Positive*
G04*
G01*
G75*
%ADD10C,0.00984*%
%ADD11C,0.01000*%
%ADD12C,0.00787*%
%ADD13C,0.00600*%
D10*
X261958Y222842D02*
G03*
X261958Y222842I-492J0D01*
G01*
D11*
X352100Y222300D02*
G03*
X352100Y222300I-700J0D01*
G01*
X353749Y257694D02*
X392726D01*
X353749Y219920D02*
Y257694D01*
X259614Y354016D02*
X370614D01*
Y241016D02*
Y354016D01*
X259614Y241016D02*
X370614D01*
X259614Y354016D02*
X259614Y241016D01*
X392726Y219920D02*
Y257694D01*
X353749Y219920D02*
X392726D01*
X208902Y265700D02*
X202904D01*
X204904Y267699D01*
X202904Y269699D01*
X208902D01*
X202904Y271698D02*
X208902D01*
Y275697D01*
Y287693D02*
Y283694D01*
X204904Y287693D01*
X203904D01*
X202904Y286693D01*
Y284694D01*
X203904Y283694D01*
Y289692D02*
X202904Y290692D01*
Y292691D01*
X203904Y293691D01*
X207903D01*
X208902Y292691D01*
Y290692D01*
X207903Y289692D01*
X203904D01*
X208902Y299689D02*
Y295690D01*
X204904Y299689D01*
X203904D01*
X202904Y298689D01*
Y296690D01*
X203904Y295690D01*
X208902Y301688D02*
Y303688D01*
Y302688D01*
X202904D01*
X203904Y301688D01*
X212502Y265700D02*
X218500D01*
Y269699D01*
X212502Y271698D02*
X218500D01*
X216501D01*
X212502Y275697D01*
X215501Y272698D01*
X218500Y275697D01*
Y277696D02*
X214501D01*
X212502Y279696D01*
X214501Y281695D01*
X218500D01*
X215501D01*
Y277696D01*
X213502Y287693D02*
X212502Y286693D01*
Y284694D01*
X213502Y283694D01*
X214501D01*
X215501Y284694D01*
Y286693D01*
X216501Y287693D01*
X217500D01*
X218500Y286693D01*
Y284694D01*
X217500Y283694D01*
X215501Y289692D02*
Y293691D01*
X212502Y299689D02*
Y295690D01*
X218500D01*
Y299689D01*
X215501Y295690D02*
Y297690D01*
X218500Y301688D02*
X212502D01*
Y304687D01*
X213502Y305687D01*
X215501D01*
X216501Y304687D01*
Y301688D01*
X213502Y311685D02*
X212502Y310685D01*
Y308686D01*
X213502Y307686D01*
X214501D01*
X215501Y308686D01*
Y310685D01*
X216501Y311685D01*
X217500D01*
X218500Y310685D01*
Y308686D01*
X217500Y307686D01*
X212502Y319683D02*
X216501D01*
X218500Y321682D01*
X216501Y323681D01*
X212502D01*
X218500Y329679D02*
Y325681D01*
X214501Y329679D01*
X213502D01*
X212502Y328680D01*
Y326680D01*
X213502Y325681D01*
X212502Y331679D02*
Y333678D01*
Y332678D01*
X218500D01*
Y331679D01*
Y333678D01*
X212502Y340676D02*
Y336677D01*
X215501D01*
X214501Y338676D01*
Y339676D01*
X215501Y340676D01*
X217500D01*
X218500Y339676D01*
Y337677D01*
X217500Y336677D01*
X226399Y253198D02*
X225399Y254198D01*
X223400D01*
X222400Y253198D01*
Y252199D01*
X223400Y251199D01*
X225399D01*
X226399Y250199D01*
Y249200D01*
X225399Y248200D01*
X223400D01*
X222400Y249200D01*
X228398Y254198D02*
Y248200D01*
X230397Y250199D01*
X232397Y248200D01*
Y254198D01*
X238395Y248200D02*
X234396D01*
X238395Y252199D01*
Y253198D01*
X237395Y254198D01*
X235396D01*
X234396Y253198D01*
X360614Y352016D02*
Y350016D01*
Y351016D01*
X366612D01*
X365613Y352016D01*
Y347017D02*
X366612Y346018D01*
Y344018D01*
X365613Y343019D01*
X361614D01*
X360614Y344018D01*
Y346018D01*
X361614Y347017D01*
X365613D01*
X346614Y346017D02*
Y350016D01*
X350613Y346017D01*
X351612D01*
X352612Y347017D01*
Y349016D01*
X351612Y350016D01*
Y344018D02*
X352612Y343018D01*
Y341019D01*
X351612Y340019D01*
X347614D01*
X346614Y341019D01*
Y343018D01*
X347614Y344018D01*
X351612D01*
X345900Y251184D02*
Y249185D01*
Y250185D01*
X351898D01*
X350898Y251184D01*
X345900Y246186D02*
Y244186D01*
Y245186D01*
X351898D01*
X350898Y246186D01*
X371400Y261084D02*
Y259085D01*
Y260085D01*
X377398D01*
X376398Y261084D01*
X341900Y251500D02*
X339901D01*
X340900D01*
Y245502D01*
X341900Y246502D01*
X336902D02*
X335902Y245502D01*
X333903D01*
X332903Y246502D01*
Y250500D01*
X333903Y251500D01*
X335902D01*
X336902Y250500D01*
Y246502D01*
X334501Y284600D02*
X338500D01*
X334501Y280601D01*
Y279602D01*
X335501Y278602D01*
X337500D01*
X338500Y279602D01*
X332502D02*
X331502Y278602D01*
X329503D01*
X328503Y279602D01*
Y283600D01*
X329503Y284600D01*
X331502D01*
X332502Y283600D01*
Y279602D01*
X250524Y275287D02*
X248524D01*
X249524D01*
Y269289D01*
X250524Y270289D01*
X245525Y275287D02*
X243526D01*
X244526D01*
Y269289D01*
X245525Y270289D01*
X253524Y261287D02*
X251524D01*
X252524D01*
Y255289D01*
X253524Y256289D01*
D12*
X207531Y233109D02*
Y234291D01*
X211469Y233109D02*
Y234291D01*
X207531Y233109D02*
X211469D01*
X228789Y226767D02*
Y236633D01*
Y218708D02*
X252411D01*
Y226767D02*
Y236633D01*
X228789Y244692D02*
X252411D01*
X398912Y275453D02*
Y307147D01*
X393715Y275453D02*
X398912D01*
X393715Y307147D02*
X398912D01*
X213732Y233109D02*
Y234291D01*
X217669Y233109D02*
Y234291D01*
X213732Y233109D02*
X217669D01*
X378812Y350490D02*
X392788D01*
X378812Y314310D02*
X392788D01*
X378812D02*
Y350490D01*
X392788Y314310D02*
Y350490D01*
D13*
X208601Y242502D02*
X212199D01*
Y244901D01*
X208601Y248500D02*
Y246101D01*
X212199D01*
Y248500D01*
X210400Y246101D02*
Y247301D01*
X208601Y249700D02*
X212199D01*
Y251499D01*
X211600Y252099D01*
X209200D01*
X208601Y251499D01*
Y249700D01*
X212199Y255698D02*
Y253299D01*
X209800Y255698D01*
X209200D01*
X208601Y255098D01*
Y253899D01*
X209200Y253299D01*
X203401Y242502D02*
X206999D01*
Y244901D01*
X203401Y248500D02*
Y246101D01*
X206999D01*
Y248500D01*
X205200Y246101D02*
Y247300D01*
X203401Y249700D02*
X206999D01*
Y251499D01*
X206400Y252099D01*
X204000D01*
X203401Y251499D01*
Y249700D01*
X206999Y253298D02*
Y254498D01*
Y253898D01*
X203401D01*
X204000Y253298D01*
X390831Y309331D02*
X392031D01*
X391431D01*
Y312930D01*
X390831Y312330D01*
X380299Y309500D02*
X377900D01*
X380299Y311899D01*
Y312499D01*
X379699Y313099D01*
X378500D01*
X377900Y312499D01*
X261287Y348306D02*
Y347106D01*
Y347706D01*
X264286D01*
X264886Y347106D01*
Y346506D01*
X264286Y345906D01*
X264886Y351904D02*
Y349505D01*
X262487Y351904D01*
X261887D01*
X261287Y351305D01*
Y350105D01*
X261887Y349505D01*
X385565Y262052D02*
X384965Y262652D01*
X383766D01*
X383166Y262052D01*
Y261453D01*
X383766Y260853D01*
X384965D01*
X385565Y260253D01*
Y259653D01*
X384965Y259053D01*
X383766D01*
X383166Y259653D01*
X386765Y262652D02*
Y259053D01*
X387964Y260253D01*
X389164Y259053D01*
Y262652D01*
X390364Y259053D02*
X391563D01*
X390963D01*
Y262652D01*
X390364Y262052D01*
X373801Y349099D02*
X377399D01*
Y347300D01*
X376800Y346700D01*
X375600D01*
X375000Y347300D01*
Y349099D01*
X373801Y345500D02*
Y344301D01*
Y344901D01*
X377399D01*
X376800Y345500D01*
M02*
