G04*
G04 #@! TF.GenerationSoftware,Altium Limited,Altium Designer,21.1.1 (26)*
G04*
G04 Layer_Color=8388736*
%FSLAX25Y25*%
%MOIN*%
G70*
G04*
G04 #@! TF.SameCoordinates,D6B6CD0C-24BE-41C4-A853-45D6888EAD6D*
G04*
G04*
G04 #@! TF.FilePolarity,Positive*
G04*
G01*
G75*
%ADD12C,0.00787*%
%ADD112C,0.00394*%
G36*
X261946Y304263D02*
X262023Y304250D01*
X262091Y304230D01*
X262148Y304209D01*
X262173Y304195D01*
X262195Y304184D01*
X262214Y304173D01*
X262230Y304165D01*
X262244Y304157D01*
X262252Y304151D01*
X262258Y304149D01*
X262260Y304146D01*
X262320Y304097D01*
X262369Y304039D01*
X262413Y303982D01*
X262446Y303925D01*
X262473Y303873D01*
X262484Y303851D01*
X262492Y303832D01*
X262498Y303816D01*
X262503Y303805D01*
X262506Y303796D01*
Y303794D01*
X262536Y303859D01*
X262566Y303917D01*
X262601Y303963D01*
X262632Y304004D01*
X262662Y304034D01*
X262683Y304056D01*
X262700Y304067D01*
X262702Y304072D01*
X262705D01*
X262757Y304102D01*
X262809Y304127D01*
X262861Y304143D01*
X262907Y304154D01*
X262948Y304159D01*
X262967Y304162D01*
X262981Y304165D01*
X262995D01*
X263003D01*
X263008D01*
X263011D01*
X263060Y304162D01*
X263109Y304157D01*
X263156Y304146D01*
X263199Y304132D01*
X263240Y304118D01*
X263279Y304102D01*
X263314Y304083D01*
X263347Y304064D01*
X263374Y304045D01*
X263401Y304026D01*
X263423Y304009D01*
X263442Y303996D01*
X263456Y303982D01*
X263467Y303971D01*
X263472Y303966D01*
X263475Y303963D01*
X263511Y303925D01*
X263538Y303881D01*
X263565Y303840D01*
X263587Y303794D01*
X263606Y303750D01*
X263622Y303706D01*
X263633Y303663D01*
X263644Y303622D01*
X263652Y303581D01*
X263658Y303545D01*
X263663Y303513D01*
X263666Y303485D01*
X263669Y303463D01*
Y303431D01*
X263666Y303370D01*
X263661Y303313D01*
X263652Y303261D01*
X263639Y303209D01*
X263625Y303163D01*
X263609Y303122D01*
X263593Y303081D01*
X263576Y303046D01*
X263557Y303013D01*
X263541Y302986D01*
X263524Y302961D01*
X263511Y302942D01*
X263497Y302925D01*
X263489Y302915D01*
X263483Y302909D01*
X263480Y302906D01*
X263445Y302871D01*
X263407Y302841D01*
X263369Y302816D01*
X263330Y302792D01*
X263289Y302773D01*
X263251Y302759D01*
X263216Y302745D01*
X263180Y302734D01*
X263145Y302726D01*
X263115Y302721D01*
X263087Y302715D01*
X263066Y302713D01*
X263047D01*
X263030Y302710D01*
X263022D01*
X263019D01*
X262954Y302713D01*
X262894Y302724D01*
X262839Y302740D01*
X262793Y302756D01*
X262757Y302773D01*
X262730Y302789D01*
X262719Y302795D01*
X262711Y302800D01*
X262708Y302803D01*
X262705D01*
X262659Y302841D01*
X262621Y302887D01*
X262585Y302934D01*
X262558Y302980D01*
X262536Y303021D01*
X262525Y303040D01*
X262520Y303057D01*
X262514Y303067D01*
X262509Y303078D01*
X262506Y303084D01*
Y303087D01*
X262479Y303005D01*
X262446Y302934D01*
X262408Y302874D01*
X262369Y302824D01*
X262353Y302803D01*
X262334Y302784D01*
X262320Y302767D01*
X262307Y302756D01*
X262296Y302745D01*
X262287Y302737D01*
X262282Y302734D01*
X262279Y302732D01*
X262247Y302710D01*
X262214Y302691D01*
X262146Y302661D01*
X262077Y302639D01*
X262015Y302625D01*
X261984Y302620D01*
X261957Y302614D01*
X261933Y302612D01*
X261911D01*
X261894Y302609D01*
X261881D01*
X261873D01*
X261870D01*
X261810Y302612D01*
X261752Y302620D01*
X261695Y302631D01*
X261643Y302644D01*
X261597Y302661D01*
X261550Y302680D01*
X261509Y302702D01*
X261471Y302724D01*
X261436Y302743D01*
X261406Y302764D01*
X261381Y302784D01*
X261359Y302800D01*
X261340Y302814D01*
X261329Y302824D01*
X261321Y302833D01*
X261318Y302835D01*
X261280Y302879D01*
X261247Y302928D01*
X261217Y302977D01*
X261193Y303027D01*
X261171Y303078D01*
X261155Y303128D01*
X261138Y303177D01*
X261127Y303223D01*
X261119Y303267D01*
X261111Y303308D01*
X261105Y303346D01*
X261103Y303376D01*
Y303403D01*
X261100Y303422D01*
Y303439D01*
X261103Y303507D01*
X261108Y303573D01*
X261119Y303633D01*
X261135Y303690D01*
X261152Y303742D01*
X261168Y303791D01*
X261190Y303837D01*
X261209Y303878D01*
X261228Y303914D01*
X261250Y303946D01*
X261266Y303974D01*
X261286Y303998D01*
X261299Y304015D01*
X261310Y304028D01*
X261316Y304037D01*
X261318Y304039D01*
X261359Y304080D01*
X261406Y304116D01*
X261449Y304146D01*
X261496Y304173D01*
X261542Y304195D01*
X261586Y304214D01*
X261630Y304228D01*
X261673Y304241D01*
X261712Y304250D01*
X261747Y304258D01*
X261780Y304260D01*
X261807Y304266D01*
X261832D01*
X261848Y304269D01*
X261859D01*
X261862D01*
X261905D01*
X261946Y304263D01*
D02*
G37*
G36*
X262025Y301995D02*
X261968Y301981D01*
X261913Y301962D01*
X261862Y301943D01*
X261815Y301924D01*
X261771Y301902D01*
X261733Y301880D01*
X261698Y301858D01*
X261665Y301836D01*
X261638Y301814D01*
X261613Y301795D01*
X261591Y301776D01*
X261575Y301763D01*
X261561Y301749D01*
X261553Y301738D01*
X261548Y301732D01*
X261545Y301730D01*
X261518Y301692D01*
X261493Y301653D01*
X261471Y301615D01*
X261452Y301574D01*
X261436Y301533D01*
X261422Y301495D01*
X261403Y301419D01*
X261398Y301386D01*
X261392Y301353D01*
X261389Y301326D01*
X261387Y301301D01*
X261384Y301282D01*
Y301255D01*
X261387Y301211D01*
X261389Y301170D01*
X261403Y301091D01*
X261422Y301017D01*
X261444Y300954D01*
X261455Y300927D01*
X261463Y300903D01*
X261474Y300881D01*
X261482Y300862D01*
X261490Y300845D01*
X261496Y300834D01*
X261501Y300829D01*
Y300826D01*
X261526Y300791D01*
X261550Y300758D01*
X261608Y300698D01*
X261665Y300649D01*
X261725Y300608D01*
X261777Y300578D01*
X261799Y300564D01*
X261821Y300553D01*
X261837Y300548D01*
X261848Y300542D01*
X261856Y300537D01*
X261859D01*
X261952Y300507D01*
X262047Y300482D01*
X262143Y300466D01*
X262187Y300460D01*
X262230Y300455D01*
X262271Y300452D01*
X262307Y300449D01*
X262339Y300447D01*
X262367D01*
X262391Y300444D01*
X262408D01*
X262419D01*
X262421D01*
X262514Y300447D01*
X262601Y300455D01*
X262683Y300468D01*
X262722Y300474D01*
X262757Y300482D01*
X262787Y300490D01*
X262817Y300496D01*
X262842Y300504D01*
X262863Y300510D01*
X262880Y300512D01*
X262894Y300518D01*
X262902Y300520D01*
X262905D01*
X262989Y300556D01*
X263063Y300597D01*
X263126Y300641D01*
X263153Y300665D01*
X263180Y300687D01*
X263202Y300709D01*
X263221Y300728D01*
X263240Y300747D01*
X263254Y300761D01*
X263265Y300774D01*
X263273Y300785D01*
X263276Y300791D01*
X263279Y300793D01*
X263303Y300832D01*
X263325Y300870D01*
X263344Y300911D01*
X263360Y300952D01*
X263385Y301034D01*
X263404Y301113D01*
X263409Y301146D01*
X263412Y301178D01*
X263415Y301208D01*
X263418Y301233D01*
X263421Y301255D01*
Y301328D01*
X263415Y301372D01*
X263401Y301454D01*
X263380Y301525D01*
X263369Y301555D01*
X263358Y301585D01*
X263347Y301612D01*
X263336Y301634D01*
X263325Y301653D01*
X263314Y301670D01*
X263306Y301683D01*
X263300Y301692D01*
X263298Y301697D01*
X263295Y301700D01*
X263270Y301730D01*
X263243Y301760D01*
X263180Y301809D01*
X263112Y301855D01*
X263047Y301891D01*
X262986Y301918D01*
X262962Y301932D01*
X262940Y301940D01*
X262921Y301948D01*
X262905Y301951D01*
X262896Y301956D01*
X262894D01*
X262970Y302284D01*
X263033Y302262D01*
X263093Y302238D01*
X263150Y302213D01*
X263202Y302183D01*
X263251Y302156D01*
X263295Y302126D01*
X263336Y302096D01*
X263371Y302066D01*
X263404Y302035D01*
X263431Y302011D01*
X263456Y301986D01*
X263475Y301965D01*
X263491Y301948D01*
X263502Y301935D01*
X263508Y301926D01*
X263511Y301924D01*
X263546Y301874D01*
X263573Y301823D01*
X263601Y301771D01*
X263622Y301716D01*
X263642Y301661D01*
X263658Y301610D01*
X263669Y301558D01*
X263680Y301509D01*
X263688Y301462D01*
X263693Y301421D01*
X263699Y301383D01*
X263702Y301350D01*
X263704Y301323D01*
Y301288D01*
X263702Y301225D01*
X263699Y301165D01*
X263680Y301053D01*
X263669Y300998D01*
X263655Y300949D01*
X263642Y300900D01*
X263628Y300856D01*
X263614Y300818D01*
X263601Y300782D01*
X263587Y300750D01*
X263576Y300725D01*
X263565Y300703D01*
X263557Y300690D01*
X263554Y300679D01*
X263551Y300676D01*
X263522Y300627D01*
X263489Y300578D01*
X263453Y300534D01*
X263418Y300493D01*
X263380Y300455D01*
X263344Y300419D01*
X263306Y300389D01*
X263273Y300359D01*
X263238Y300335D01*
X263208Y300313D01*
X263180Y300294D01*
X263156Y300277D01*
X263134Y300267D01*
X263120Y300258D01*
X263109Y300253D01*
X263106Y300250D01*
X263052Y300223D01*
X262992Y300201D01*
X262934Y300182D01*
X262877Y300163D01*
X262760Y300135D01*
X262705Y300127D01*
X262653Y300119D01*
X262604Y300114D01*
X262561Y300108D01*
X262520Y300105D01*
X262484Y300103D01*
X262457Y300100D01*
X262435D01*
X262424D01*
X262419D01*
X262353Y300103D01*
X262287Y300105D01*
X262162Y300122D01*
X262102Y300130D01*
X262047Y300141D01*
X261995Y300155D01*
X261946Y300166D01*
X261903Y300179D01*
X261862Y300190D01*
X261829Y300201D01*
X261799Y300212D01*
X261777Y300220D01*
X261758Y300225D01*
X261747Y300228D01*
X261744Y300231D01*
X261687Y300258D01*
X261632Y300286D01*
X261583Y300316D01*
X261537Y300348D01*
X261493Y300381D01*
X261455Y300411D01*
X261419Y300444D01*
X261387Y300474D01*
X261357Y300504D01*
X261332Y300531D01*
X261313Y300556D01*
X261294Y300578D01*
X261280Y300594D01*
X261272Y300608D01*
X261266Y300616D01*
X261264Y300619D01*
X261234Y300668D01*
X261209Y300720D01*
X261187Y300774D01*
X261168Y300832D01*
X261155Y300886D01*
X261141Y300941D01*
X261130Y300995D01*
X261122Y301047D01*
X261114Y301096D01*
X261108Y301140D01*
X261105Y301181D01*
X261103Y301214D01*
X261100Y301244D01*
Y301282D01*
X261103Y301356D01*
X261108Y301424D01*
X261119Y301489D01*
X261133Y301552D01*
X261149Y301612D01*
X261168Y301667D01*
X261187Y301716D01*
X261206Y301763D01*
X261226Y301806D01*
X261245Y301842D01*
X261264Y301874D01*
X261280Y301899D01*
X261294Y301921D01*
X261305Y301935D01*
X261310Y301945D01*
X261313Y301948D01*
X261357Y301997D01*
X261403Y302044D01*
X261452Y302085D01*
X261501Y302123D01*
X261553Y302158D01*
X261608Y302188D01*
X261657Y302216D01*
X261709Y302240D01*
X261755Y302262D01*
X261799Y302278D01*
X261840Y302295D01*
X261873Y302306D01*
X261903Y302317D01*
X261922Y302322D01*
X261935Y302328D01*
X261941D01*
X262025Y301995D01*
D02*
G37*
G36*
X337061Y345337D02*
X337124Y345329D01*
X337184Y345318D01*
X337238Y345304D01*
X337293Y345288D01*
X337339Y345266D01*
X337386Y345247D01*
X337427Y345225D01*
X337462Y345203D01*
X337492Y345184D01*
X337522Y345165D01*
X337544Y345146D01*
X337561Y345132D01*
X337574Y345121D01*
X337582Y345113D01*
X337585Y345110D01*
X337626Y345067D01*
X337662Y345020D01*
X337691Y344974D01*
X337719Y344928D01*
X337741Y344881D01*
X337760Y344835D01*
X337773Y344791D01*
X337787Y344747D01*
X337795Y344709D01*
X337804Y344671D01*
X337806Y344638D01*
X337812Y344611D01*
Y344589D01*
X337814Y344570D01*
Y344556D01*
X337812Y344510D01*
X337809Y344463D01*
X337801Y344420D01*
X337790Y344376D01*
X337765Y344297D01*
X337749Y344259D01*
X337735Y344226D01*
X337722Y344193D01*
X337705Y344166D01*
X337691Y344141D01*
X337681Y344119D01*
X337670Y344103D01*
X337664Y344092D01*
X337659Y344084D01*
X337656Y344081D01*
X338333Y344215D01*
Y345222D01*
X338628D01*
Y343969D01*
X337334Y343726D01*
X337293Y344016D01*
X337331Y344043D01*
X337367Y344073D01*
X337397Y344106D01*
X337424Y344133D01*
X337443Y344160D01*
X337459Y344182D01*
X337468Y344196D01*
X337470Y344201D01*
X337495Y344248D01*
X337511Y344294D01*
X337525Y344340D01*
X337533Y344384D01*
X337539Y344420D01*
X337541Y344450D01*
Y344474D01*
X337539Y344518D01*
X337536Y344559D01*
X337528Y344600D01*
X337517Y344635D01*
X337492Y344704D01*
X337479Y344731D01*
X337465Y344758D01*
X337449Y344783D01*
X337435Y344802D01*
X337421Y344821D01*
X337410Y344835D01*
X337399Y344846D01*
X337391Y344857D01*
X337388Y344859D01*
X337386Y344862D01*
X337356Y344889D01*
X337323Y344911D01*
X337290Y344933D01*
X337258Y344949D01*
X337187Y344977D01*
X337121Y344993D01*
X337088Y344999D01*
X337061Y345004D01*
X337034Y345007D01*
X337012Y345009D01*
X336993Y345012D01*
X336979D01*
X336971D01*
X336968D01*
X336916Y345009D01*
X336870Y345007D01*
X336823Y344999D01*
X336780Y344988D01*
X336741Y344977D01*
X336703Y344963D01*
X336670Y344949D01*
X336641Y344936D01*
X336613Y344919D01*
X336589Y344906D01*
X336569Y344892D01*
X336550Y344881D01*
X336537Y344870D01*
X336529Y344862D01*
X336523Y344859D01*
X336520Y344857D01*
X336490Y344827D01*
X336466Y344796D01*
X336444Y344766D01*
X336425Y344734D01*
X336408Y344701D01*
X336395Y344671D01*
X336376Y344611D01*
X336362Y344559D01*
X336359Y344537D01*
X336357Y344518D01*
X336354Y344502D01*
Y344480D01*
X336357Y344444D01*
X336359Y344411D01*
X336373Y344352D01*
X336392Y344297D01*
X336414Y344250D01*
X336433Y344212D01*
X336452Y344185D01*
X336460Y344174D01*
X336466Y344166D01*
X336471Y344163D01*
Y344160D01*
X336496Y344139D01*
X336520Y344117D01*
X336575Y344081D01*
X336635Y344051D01*
X336692Y344029D01*
X336744Y344016D01*
X336769Y344007D01*
X336788Y344005D01*
X336804Y344002D01*
X336815Y343999D01*
X336823Y343997D01*
X336826D01*
X336802Y343672D01*
X336744Y343680D01*
X336687Y343691D01*
X336635Y343704D01*
X336586Y343724D01*
X336542Y343743D01*
X336498Y343762D01*
X336460Y343784D01*
X336428Y343806D01*
X336395Y343827D01*
X336368Y343846D01*
X336346Y343865D01*
X336327Y343885D01*
X336310Y343898D01*
X336299Y343909D01*
X336294Y343915D01*
X336291Y343917D01*
X336258Y343961D01*
X336228Y344005D01*
X336204Y344051D01*
X336182Y344098D01*
X336163Y344144D01*
X336146Y344190D01*
X336133Y344237D01*
X336124Y344281D01*
X336116Y344321D01*
X336111Y344360D01*
X336105Y344392D01*
X336103Y344422D01*
X336100Y344447D01*
Y344480D01*
X336103Y344556D01*
X336114Y344627D01*
X336127Y344695D01*
X336149Y344758D01*
X336171Y344818D01*
X336195Y344873D01*
X336226Y344922D01*
X336253Y344966D01*
X336280Y345007D01*
X336310Y345042D01*
X336335Y345072D01*
X336359Y345097D01*
X336378Y345116D01*
X336392Y345129D01*
X336403Y345138D01*
X336406Y345140D01*
X336452Y345176D01*
X336501Y345206D01*
X336553Y345233D01*
X336602Y345255D01*
X336651Y345274D01*
X336701Y345291D01*
X336750Y345304D01*
X336793Y345315D01*
X336837Y345323D01*
X336875Y345329D01*
X336908Y345334D01*
X336938Y345337D01*
X336963Y345340D01*
X336979D01*
X336993D01*
X336995D01*
X337061Y345337D01*
D02*
G37*
G36*
X338669Y342678D02*
X338606Y342642D01*
X338546Y342601D01*
X338489Y342555D01*
X338440Y342509D01*
X338393Y342468D01*
X338377Y342449D01*
X338360Y342435D01*
X338347Y342421D01*
X338338Y342410D01*
X338333Y342405D01*
X338330Y342402D01*
X338268Y342329D01*
X338213Y342249D01*
X338161Y342173D01*
X338117Y342102D01*
X338101Y342072D01*
X338085Y342042D01*
X338068Y342015D01*
X338057Y341993D01*
X338049Y341974D01*
X338041Y341960D01*
X338038Y341952D01*
X338035Y341949D01*
X337738D01*
X337760Y342004D01*
X337784Y342061D01*
X337812Y342116D01*
X337836Y342165D01*
X337861Y342208D01*
X337869Y342228D01*
X337880Y342244D01*
X337885Y342257D01*
X337891Y342266D01*
X337896Y342271D01*
Y342274D01*
X337937Y342339D01*
X337976Y342397D01*
X338011Y342449D01*
X338044Y342490D01*
X338071Y342525D01*
X338090Y342550D01*
X338104Y342563D01*
X338109Y342569D01*
X336141D01*
Y342877D01*
X338669D01*
Y342678D01*
D02*
G37*
G36*
X337025Y341095D02*
X336968Y341081D01*
X336913Y341062D01*
X336862Y341043D01*
X336815Y341024D01*
X336771Y341002D01*
X336733Y340980D01*
X336698Y340958D01*
X336665Y340936D01*
X336638Y340914D01*
X336613Y340895D01*
X336591Y340876D01*
X336575Y340862D01*
X336561Y340849D01*
X336553Y340838D01*
X336548Y340832D01*
X336545Y340830D01*
X336518Y340792D01*
X336493Y340753D01*
X336471Y340715D01*
X336452Y340674D01*
X336436Y340633D01*
X336422Y340595D01*
X336403Y340518D01*
X336398Y340486D01*
X336392Y340453D01*
X336389Y340426D01*
X336387Y340401D01*
X336384Y340382D01*
Y340355D01*
X336387Y340311D01*
X336389Y340270D01*
X336403Y340191D01*
X336422Y340117D01*
X336444Y340054D01*
X336455Y340027D01*
X336463Y340003D01*
X336474Y339981D01*
X336482Y339962D01*
X336490Y339945D01*
X336496Y339934D01*
X336501Y339929D01*
Y339926D01*
X336526Y339891D01*
X336550Y339858D01*
X336608Y339798D01*
X336665Y339749D01*
X336725Y339708D01*
X336777Y339678D01*
X336799Y339664D01*
X336821Y339653D01*
X336837Y339648D01*
X336848Y339642D01*
X336856Y339637D01*
X336859D01*
X336952Y339607D01*
X337047Y339582D01*
X337143Y339566D01*
X337187Y339560D01*
X337230Y339555D01*
X337271Y339552D01*
X337307Y339549D01*
X337339Y339547D01*
X337367D01*
X337391Y339544D01*
X337408D01*
X337419D01*
X337421D01*
X337514Y339547D01*
X337601Y339555D01*
X337683Y339568D01*
X337722Y339574D01*
X337757Y339582D01*
X337787Y339590D01*
X337817Y339596D01*
X337842Y339604D01*
X337863Y339610D01*
X337880Y339612D01*
X337894Y339618D01*
X337902Y339620D01*
X337905D01*
X337989Y339656D01*
X338063Y339697D01*
X338126Y339740D01*
X338153Y339765D01*
X338180Y339787D01*
X338202Y339809D01*
X338221Y339828D01*
X338240Y339847D01*
X338254Y339861D01*
X338265Y339874D01*
X338273Y339885D01*
X338276Y339891D01*
X338279Y339893D01*
X338303Y339932D01*
X338325Y339970D01*
X338344Y340011D01*
X338360Y340052D01*
X338385Y340134D01*
X338404Y340213D01*
X338409Y340246D01*
X338412Y340278D01*
X338415Y340308D01*
X338418Y340333D01*
X338420Y340355D01*
Y340428D01*
X338415Y340472D01*
X338401Y340554D01*
X338380Y340625D01*
X338369Y340655D01*
X338358Y340685D01*
X338347Y340712D01*
X338336Y340734D01*
X338325Y340753D01*
X338314Y340770D01*
X338306Y340783D01*
X338300Y340792D01*
X338298Y340797D01*
X338295Y340800D01*
X338270Y340830D01*
X338243Y340860D01*
X338180Y340909D01*
X338112Y340955D01*
X338046Y340991D01*
X337986Y341018D01*
X337962Y341032D01*
X337940Y341040D01*
X337921Y341048D01*
X337905Y341051D01*
X337896Y341056D01*
X337894D01*
X337970Y341384D01*
X338033Y341362D01*
X338093Y341337D01*
X338150Y341313D01*
X338202Y341283D01*
X338251Y341256D01*
X338295Y341226D01*
X338336Y341196D01*
X338371Y341165D01*
X338404Y341136D01*
X338431Y341111D01*
X338456Y341086D01*
X338475Y341065D01*
X338491Y341048D01*
X338502Y341035D01*
X338508Y341026D01*
X338510Y341024D01*
X338546Y340974D01*
X338573Y340923D01*
X338601Y340871D01*
X338622Y340816D01*
X338642Y340761D01*
X338658Y340710D01*
X338669Y340658D01*
X338680Y340609D01*
X338688Y340562D01*
X338693Y340521D01*
X338699Y340483D01*
X338702Y340450D01*
X338704Y340423D01*
Y340388D01*
X338702Y340325D01*
X338699Y340265D01*
X338680Y340153D01*
X338669Y340098D01*
X338655Y340049D01*
X338642Y340000D01*
X338628Y339956D01*
X338614Y339918D01*
X338601Y339882D01*
X338587Y339850D01*
X338576Y339825D01*
X338565Y339803D01*
X338557Y339790D01*
X338554Y339779D01*
X338551Y339776D01*
X338522Y339727D01*
X338489Y339678D01*
X338453Y339634D01*
X338418Y339593D01*
X338380Y339555D01*
X338344Y339519D01*
X338306Y339489D01*
X338273Y339459D01*
X338238Y339435D01*
X338208Y339413D01*
X338180Y339394D01*
X338156Y339377D01*
X338134Y339367D01*
X338120Y339358D01*
X338109Y339353D01*
X338106Y339350D01*
X338052Y339323D01*
X337992Y339301D01*
X337934Y339282D01*
X337877Y339263D01*
X337760Y339235D01*
X337705Y339227D01*
X337653Y339219D01*
X337604Y339214D01*
X337561Y339208D01*
X337520Y339205D01*
X337484Y339203D01*
X337457Y339200D01*
X337435D01*
X337424D01*
X337419D01*
X337353Y339203D01*
X337287Y339205D01*
X337162Y339222D01*
X337102Y339230D01*
X337047Y339241D01*
X336995Y339255D01*
X336946Y339265D01*
X336903Y339279D01*
X336862Y339290D01*
X336829Y339301D01*
X336799Y339312D01*
X336777Y339320D01*
X336758Y339325D01*
X336747Y339328D01*
X336744Y339331D01*
X336687Y339358D01*
X336632Y339386D01*
X336583Y339416D01*
X336537Y339448D01*
X336493Y339481D01*
X336455Y339511D01*
X336419Y339544D01*
X336387Y339574D01*
X336357Y339604D01*
X336332Y339631D01*
X336313Y339656D01*
X336294Y339678D01*
X336280Y339694D01*
X336272Y339708D01*
X336266Y339716D01*
X336264Y339719D01*
X336234Y339768D01*
X336209Y339820D01*
X336187Y339874D01*
X336168Y339932D01*
X336155Y339986D01*
X336141Y340041D01*
X336130Y340095D01*
X336122Y340147D01*
X336114Y340196D01*
X336108Y340240D01*
X336105Y340281D01*
X336103Y340314D01*
X336100Y340344D01*
Y340382D01*
X336103Y340456D01*
X336108Y340524D01*
X336119Y340589D01*
X336133Y340652D01*
X336149Y340712D01*
X336168Y340767D01*
X336187Y340816D01*
X336206Y340862D01*
X336226Y340906D01*
X336245Y340942D01*
X336264Y340974D01*
X336280Y340999D01*
X336294Y341021D01*
X336305Y341035D01*
X336310Y341045D01*
X336313Y341048D01*
X336357Y341097D01*
X336403Y341144D01*
X336452Y341185D01*
X336501Y341223D01*
X336553Y341258D01*
X336608Y341288D01*
X336657Y341316D01*
X336709Y341340D01*
X336755Y341362D01*
X336799Y341378D01*
X336840Y341395D01*
X336873Y341406D01*
X336903Y341417D01*
X336922Y341422D01*
X336935Y341428D01*
X336941D01*
X337025Y341095D01*
D02*
G37*
G36*
X298415Y305663D02*
X298489Y305658D01*
X298557Y305652D01*
X298620Y305644D01*
X298680Y305636D01*
X298732Y305625D01*
X298778Y305617D01*
X298822Y305606D01*
X298857Y305595D01*
X298887Y305587D01*
X298912Y305579D01*
X298934Y305573D01*
X298948Y305568D01*
X298956Y305562D01*
X298958D01*
X299002Y305540D01*
X299046Y305519D01*
X299084Y305494D01*
X299122Y305469D01*
X299155Y305442D01*
X299185Y305417D01*
X299215Y305390D01*
X299240Y305366D01*
X299261Y305344D01*
X299281Y305322D01*
X299297Y305303D01*
X299311Y305284D01*
X299322Y305270D01*
X299330Y305259D01*
X299332Y305254D01*
X299335Y305251D01*
X299360Y305213D01*
X299379Y305174D01*
X299398Y305134D01*
X299412Y305095D01*
X299436Y305022D01*
X299452Y304951D01*
X299458Y304921D01*
X299461Y304891D01*
X299466Y304866D01*
Y304844D01*
X299469Y304828D01*
Y304803D01*
X299466Y304741D01*
X299458Y304683D01*
X299447Y304626D01*
X299433Y304571D01*
X299414Y304522D01*
X299395Y304476D01*
X299373Y304432D01*
X299352Y304394D01*
X299330Y304358D01*
X299308Y304328D01*
X299289Y304301D01*
X299270Y304279D01*
X299256Y304263D01*
X299245Y304249D01*
X299237Y304241D01*
X299234Y304238D01*
X299188Y304200D01*
X299141Y304164D01*
X299089Y304134D01*
X299038Y304110D01*
X298988Y304088D01*
X298937Y304069D01*
X298885Y304055D01*
X298838Y304042D01*
X298792Y304033D01*
X298751Y304025D01*
X298713Y304023D01*
X298680Y304017D01*
X298655D01*
X298634Y304014D01*
X298623D01*
X298617D01*
X298549Y304017D01*
X298486Y304023D01*
X298423Y304033D01*
X298366Y304047D01*
X298314Y304063D01*
X298265Y304082D01*
X298219Y304102D01*
X298180Y304123D01*
X298142Y304143D01*
X298109Y304162D01*
X298082Y304181D01*
X298060Y304197D01*
X298044Y304211D01*
X298030Y304222D01*
X298022Y304227D01*
X298019Y304230D01*
X297981Y304271D01*
X297946Y304315D01*
X297916Y304358D01*
X297891Y304405D01*
X297869Y304448D01*
X297850Y304492D01*
X297836Y304533D01*
X297823Y304574D01*
X297814Y304612D01*
X297806Y304648D01*
X297804Y304678D01*
X297798Y304705D01*
Y304727D01*
X297795Y304743D01*
Y304757D01*
X297798Y304825D01*
X297809Y304891D01*
X297823Y304951D01*
X297842Y305003D01*
X297858Y305046D01*
X297864Y305063D01*
X297872Y305079D01*
X297877Y305090D01*
X297883Y305098D01*
X297885Y305104D01*
Y305106D01*
X297924Y305164D01*
X297962Y305213D01*
X298003Y305256D01*
X298041Y305295D01*
X298074Y305322D01*
X298101Y305344D01*
X298112Y305352D01*
X298120Y305355D01*
X298123Y305360D01*
X298098D01*
X298079D01*
X298068D01*
X298063D01*
X297992Y305358D01*
X297924Y305352D01*
X297861Y305346D01*
X297804Y305338D01*
X297779Y305333D01*
X297754Y305327D01*
X297735Y305325D01*
X297719Y305322D01*
X297705Y305319D01*
X297694Y305316D01*
X297689Y305314D01*
X297686D01*
X297621Y305295D01*
X297561Y305276D01*
X297512Y305256D01*
X297470Y305240D01*
X297435Y305224D01*
X297410Y305210D01*
X297397Y305202D01*
X297391Y305199D01*
X297353Y305172D01*
X297318Y305142D01*
X297288Y305112D01*
X297263Y305084D01*
X297244Y305060D01*
X297228Y305041D01*
X297219Y305027D01*
X297217Y305022D01*
X297195Y304981D01*
X297181Y304937D01*
X297170Y304896D01*
X297162Y304858D01*
X297157Y304825D01*
X297154Y304798D01*
Y304773D01*
X297157Y304713D01*
X297167Y304661D01*
X297184Y304615D01*
X297200Y304574D01*
X297217Y304544D01*
X297233Y304519D01*
X297244Y304506D01*
X297247Y304500D01*
X297266Y304481D01*
X297288Y304465D01*
X297334Y304432D01*
X297383Y304407D01*
X297432Y304388D01*
X297479Y304375D01*
X297498Y304369D01*
X297514Y304366D01*
X297531Y304361D01*
X297541D01*
X297547Y304358D01*
X297550D01*
X297525Y304061D01*
X297470Y304069D01*
X297419Y304080D01*
X297372Y304094D01*
X297329Y304110D01*
X297288Y304129D01*
X297249Y304145D01*
X297214Y304164D01*
X297184Y304184D01*
X297157Y304203D01*
X297132Y304222D01*
X297110Y304238D01*
X297094Y304252D01*
X297080Y304265D01*
X297072Y304274D01*
X297066Y304279D01*
X297064Y304282D01*
X297034Y304317D01*
X297009Y304356D01*
X296987Y304397D01*
X296968Y304437D01*
X296955Y304478D01*
X296941Y304517D01*
X296922Y304593D01*
X296914Y304628D01*
X296908Y304661D01*
X296905Y304691D01*
X296903Y304716D01*
X296900Y304738D01*
Y304765D01*
X296903Y304817D01*
X296905Y304866D01*
X296922Y304959D01*
X296935Y305003D01*
X296946Y305041D01*
X296960Y305079D01*
X296974Y305112D01*
X296987Y305145D01*
X297001Y305172D01*
X297015Y305194D01*
X297025Y305216D01*
X297034Y305229D01*
X297042Y305243D01*
X297045Y305248D01*
X297047Y305251D01*
X297077Y305289D01*
X297110Y305325D01*
X297178Y305387D01*
X297252Y305442D01*
X297320Y305486D01*
X297353Y305502D01*
X297383Y305519D01*
X297410Y305532D01*
X297435Y305543D01*
X297454Y305551D01*
X297468Y305557D01*
X297479Y305562D01*
X297481D01*
X297539Y305581D01*
X297596Y305598D01*
X297722Y305625D01*
X297850Y305644D01*
X297913Y305650D01*
X297973Y305655D01*
X298030Y305661D01*
X298082Y305663D01*
X298131Y305666D01*
X298172D01*
X298205Y305669D01*
X298230D01*
X298246D01*
X298251D01*
X298336D01*
X298415Y305663D01*
D02*
G37*
G36*
X297825Y303395D02*
X297768Y303381D01*
X297713Y303362D01*
X297662Y303343D01*
X297615Y303324D01*
X297571Y303302D01*
X297533Y303280D01*
X297498Y303258D01*
X297465Y303236D01*
X297438Y303214D01*
X297413Y303195D01*
X297391Y303176D01*
X297375Y303163D01*
X297361Y303149D01*
X297353Y303138D01*
X297348Y303133D01*
X297345Y303130D01*
X297318Y303092D01*
X297293Y303053D01*
X297271Y303015D01*
X297252Y302974D01*
X297236Y302933D01*
X297222Y302895D01*
X297203Y302819D01*
X297198Y302786D01*
X297192Y302753D01*
X297189Y302726D01*
X297187Y302701D01*
X297184Y302682D01*
Y302655D01*
X297187Y302611D01*
X297189Y302570D01*
X297203Y302491D01*
X297222Y302417D01*
X297244Y302354D01*
X297255Y302327D01*
X297263Y302303D01*
X297274Y302281D01*
X297282Y302262D01*
X297290Y302245D01*
X297296Y302234D01*
X297301Y302229D01*
Y302226D01*
X297326Y302191D01*
X297350Y302158D01*
X297408Y302098D01*
X297465Y302049D01*
X297525Y302008D01*
X297577Y301978D01*
X297599Y301964D01*
X297621Y301953D01*
X297637Y301948D01*
X297648Y301942D01*
X297656Y301937D01*
X297659D01*
X297752Y301907D01*
X297847Y301882D01*
X297943Y301866D01*
X297987Y301860D01*
X298030Y301855D01*
X298071Y301852D01*
X298107Y301849D01*
X298139Y301847D01*
X298167D01*
X298191Y301844D01*
X298208D01*
X298219D01*
X298221D01*
X298314Y301847D01*
X298401Y301855D01*
X298483Y301869D01*
X298522Y301874D01*
X298557Y301882D01*
X298587Y301890D01*
X298617Y301896D01*
X298642Y301904D01*
X298663Y301909D01*
X298680Y301912D01*
X298694Y301918D01*
X298702Y301920D01*
X298705D01*
X298789Y301956D01*
X298863Y301997D01*
X298926Y302041D01*
X298953Y302065D01*
X298980Y302087D01*
X299002Y302109D01*
X299021Y302128D01*
X299040Y302147D01*
X299054Y302161D01*
X299065Y302174D01*
X299073Y302185D01*
X299076Y302191D01*
X299078Y302193D01*
X299103Y302232D01*
X299125Y302270D01*
X299144Y302311D01*
X299160Y302352D01*
X299185Y302434D01*
X299204Y302513D01*
X299209Y302546D01*
X299212Y302578D01*
X299215Y302608D01*
X299218Y302633D01*
X299220Y302655D01*
Y302729D01*
X299215Y302772D01*
X299201Y302854D01*
X299180Y302925D01*
X299169Y302955D01*
X299158Y302985D01*
X299147Y303012D01*
X299136Y303034D01*
X299125Y303053D01*
X299114Y303070D01*
X299106Y303083D01*
X299100Y303092D01*
X299098Y303097D01*
X299095Y303100D01*
X299070Y303130D01*
X299043Y303160D01*
X298980Y303209D01*
X298912Y303255D01*
X298847Y303291D01*
X298786Y303318D01*
X298762Y303332D01*
X298740Y303340D01*
X298721Y303348D01*
X298705Y303351D01*
X298696Y303356D01*
X298694D01*
X298770Y303684D01*
X298833Y303662D01*
X298893Y303638D01*
X298950Y303613D01*
X299002Y303583D01*
X299051Y303556D01*
X299095Y303526D01*
X299136Y303496D01*
X299171Y303466D01*
X299204Y303435D01*
X299231Y303411D01*
X299256Y303386D01*
X299275Y303365D01*
X299291Y303348D01*
X299302Y303334D01*
X299308Y303326D01*
X299311Y303324D01*
X299346Y303274D01*
X299373Y303223D01*
X299401Y303171D01*
X299423Y303116D01*
X299442Y303062D01*
X299458Y303010D01*
X299469Y302958D01*
X299480Y302909D01*
X299488Y302862D01*
X299494Y302821D01*
X299499Y302783D01*
X299502Y302750D01*
X299504Y302723D01*
Y302688D01*
X299502Y302625D01*
X299499Y302565D01*
X299480Y302453D01*
X299469Y302398D01*
X299455Y302349D01*
X299442Y302300D01*
X299428Y302256D01*
X299414Y302218D01*
X299401Y302183D01*
X299387Y302150D01*
X299376Y302125D01*
X299365Y302103D01*
X299357Y302090D01*
X299354Y302079D01*
X299352Y302076D01*
X299322Y302027D01*
X299289Y301978D01*
X299253Y301934D01*
X299218Y301893D01*
X299180Y301855D01*
X299144Y301819D01*
X299106Y301789D01*
X299073Y301759D01*
X299038Y301735D01*
X299008Y301713D01*
X298980Y301694D01*
X298956Y301677D01*
X298934Y301666D01*
X298920Y301658D01*
X298909Y301653D01*
X298906Y301650D01*
X298852Y301623D01*
X298792Y301601D01*
X298734Y301582D01*
X298677Y301563D01*
X298560Y301535D01*
X298505Y301527D01*
X298453Y301519D01*
X298404Y301514D01*
X298360Y301508D01*
X298320Y301505D01*
X298284Y301503D01*
X298257Y301500D01*
X298235D01*
X298224D01*
X298219D01*
X298153Y301503D01*
X298088Y301505D01*
X297962Y301522D01*
X297902Y301530D01*
X297847Y301541D01*
X297795Y301555D01*
X297746Y301566D01*
X297703Y301579D01*
X297662Y301590D01*
X297629Y301601D01*
X297599Y301612D01*
X297577Y301620D01*
X297558Y301625D01*
X297547Y301628D01*
X297544Y301631D01*
X297487Y301658D01*
X297432Y301686D01*
X297383Y301716D01*
X297337Y301748D01*
X297293Y301781D01*
X297255Y301811D01*
X297219Y301844D01*
X297187Y301874D01*
X297157Y301904D01*
X297132Y301931D01*
X297113Y301956D01*
X297094Y301978D01*
X297080Y301994D01*
X297072Y302008D01*
X297066Y302016D01*
X297064Y302019D01*
X297034Y302068D01*
X297009Y302120D01*
X296987Y302174D01*
X296968Y302232D01*
X296955Y302286D01*
X296941Y302341D01*
X296930Y302395D01*
X296922Y302447D01*
X296914Y302496D01*
X296908Y302540D01*
X296905Y302581D01*
X296903Y302614D01*
X296900Y302644D01*
Y302682D01*
X296903Y302756D01*
X296908Y302824D01*
X296919Y302889D01*
X296933Y302952D01*
X296949Y303012D01*
X296968Y303067D01*
X296987Y303116D01*
X297006Y303163D01*
X297025Y303206D01*
X297045Y303242D01*
X297064Y303274D01*
X297080Y303299D01*
X297094Y303321D01*
X297105Y303334D01*
X297110Y303345D01*
X297113Y303348D01*
X297157Y303397D01*
X297203Y303444D01*
X297252Y303485D01*
X297301Y303523D01*
X297353Y303558D01*
X297408Y303588D01*
X297457Y303616D01*
X297509Y303640D01*
X297555Y303662D01*
X297599Y303678D01*
X297640Y303695D01*
X297673Y303706D01*
X297703Y303717D01*
X297722Y303722D01*
X297735Y303728D01*
X297741D01*
X297825Y303395D01*
D02*
G37*
G36*
X222670Y349342D02*
X222749Y349328D01*
X222817Y349306D01*
X222847Y349295D01*
X222874Y349284D01*
X222902Y349273D01*
X222923Y349262D01*
X222943Y349252D01*
X222956Y349241D01*
X222970Y349232D01*
X222978Y349227D01*
X222984Y349224D01*
X222986Y349221D01*
X223044Y349172D01*
X223090Y349115D01*
X223126Y349058D01*
X223156Y349003D01*
X223177Y348951D01*
X223186Y348929D01*
X223191Y348913D01*
X223197Y348897D01*
X223199Y348886D01*
X223202Y348878D01*
Y348875D01*
X223235Y348935D01*
X223268Y348987D01*
X223303Y349033D01*
X223339Y349069D01*
X223369Y349099D01*
X223393Y349118D01*
X223410Y349131D01*
X223412Y349134D01*
X223415D01*
X223467Y349164D01*
X223519Y349186D01*
X223568Y349202D01*
X223614Y349213D01*
X223652Y349219D01*
X223685Y349224D01*
X223696D01*
X223704D01*
X223710D01*
X223712D01*
X223775Y349221D01*
X223835Y349211D01*
X223890Y349194D01*
X223939Y349178D01*
X223980Y349162D01*
X223996Y349153D01*
X224010Y349145D01*
X224021Y349140D01*
X224032Y349134D01*
X224035Y349131D01*
X224037D01*
X224092Y349093D01*
X224138Y349049D01*
X224179Y349006D01*
X224215Y348962D01*
X224242Y348924D01*
X224261Y348894D01*
X224269Y348880D01*
X224275Y348872D01*
X224278Y348867D01*
Y348864D01*
X224308Y348798D01*
X224329Y348733D01*
X224346Y348667D01*
X224357Y348610D01*
X224362Y348558D01*
X224365Y348539D01*
X224368Y348520D01*
Y348484D01*
X224365Y348430D01*
X224359Y348378D01*
X224351Y348329D01*
X224340Y348280D01*
X224327Y348236D01*
X224313Y348195D01*
X224297Y348157D01*
X224283Y348124D01*
X224267Y348091D01*
X224250Y348064D01*
X224237Y348042D01*
X224223Y348020D01*
X224212Y348007D01*
X224204Y347993D01*
X224198Y347988D01*
X224196Y347985D01*
X224163Y347949D01*
X224125Y347917D01*
X224086Y347886D01*
X224048Y347859D01*
X224007Y347835D01*
X223969Y347816D01*
X223890Y347780D01*
X223854Y347766D01*
X223822Y347756D01*
X223792Y347747D01*
X223767Y347739D01*
X223745Y347734D01*
X223729Y347731D01*
X223718Y347728D01*
X223715D01*
X223661Y348037D01*
X223740Y348053D01*
X223808Y348075D01*
X223868Y348099D01*
X223915Y348127D01*
X223953Y348149D01*
X223977Y348170D01*
X223994Y348184D01*
X223999Y348190D01*
X224037Y348239D01*
X224065Y348288D01*
X224086Y348340D01*
X224100Y348386D01*
X224108Y348430D01*
X224111Y348446D01*
Y348463D01*
X224114Y348476D01*
Y348493D01*
X224108Y348558D01*
X224097Y348616D01*
X224078Y348667D01*
X224059Y348711D01*
X224037Y348744D01*
X224018Y348768D01*
X224007Y348785D01*
X224002Y348790D01*
X223980Y348812D01*
X223958Y348828D01*
X223909Y348858D01*
X223863Y348880D01*
X223819Y348894D01*
X223778Y348902D01*
X223748Y348905D01*
X223734Y348908D01*
X223726D01*
X223721D01*
X223718D01*
X223680Y348905D01*
X223644Y348899D01*
X223609Y348894D01*
X223579Y348883D01*
X223524Y348856D01*
X223480Y348828D01*
X223445Y348798D01*
X223420Y348771D01*
X223412Y348760D01*
X223407Y348755D01*
X223401Y348749D01*
Y348746D01*
X223366Y348686D01*
X223341Y348624D01*
X223322Y348564D01*
X223311Y348509D01*
X223303Y348463D01*
X223300Y348444D01*
Y348424D01*
X223298Y348411D01*
Y348375D01*
X223300Y348359D01*
X223303Y348345D01*
Y348340D01*
X223033Y348307D01*
X223044Y348353D01*
X223052Y348397D01*
X223057Y348432D01*
X223063Y348465D01*
Y348490D01*
X223065Y348509D01*
Y348525D01*
X223063Y348564D01*
X223060Y348602D01*
X223044Y348670D01*
X223022Y348730D01*
X222997Y348782D01*
X222970Y348823D01*
X222959Y348839D01*
X222948Y348853D01*
X222940Y348864D01*
X222932Y348872D01*
X222929Y348875D01*
X222926Y348878D01*
X222899Y348902D01*
X222872Y348924D01*
X222844Y348943D01*
X222814Y348959D01*
X222757Y348984D01*
X222700Y349003D01*
X222651Y349011D01*
X222631Y349014D01*
X222612Y349017D01*
X222599Y349020D01*
X222585D01*
X222580D01*
X222577D01*
X222536Y349017D01*
X222498Y349014D01*
X222424Y348995D01*
X222361Y348973D01*
X222306Y348946D01*
X222282Y348929D01*
X222263Y348916D01*
X222244Y348905D01*
X222230Y348894D01*
X222219Y348883D01*
X222211Y348875D01*
X222205Y348872D01*
X222203Y348869D01*
X222176Y348839D01*
X222154Y348809D01*
X222134Y348779D01*
X222115Y348749D01*
X222088Y348686D01*
X222072Y348626D01*
X222061Y348577D01*
X222058Y348553D01*
X222055Y348536D01*
X222053Y348520D01*
Y348498D01*
X222058Y348432D01*
X222072Y348370D01*
X222088Y348318D01*
X222110Y348271D01*
X222132Y348233D01*
X222148Y348206D01*
X222156Y348198D01*
X222162Y348190D01*
X222167Y348187D01*
Y348184D01*
X222192Y348162D01*
X222216Y348140D01*
X222274Y348102D01*
X222337Y348072D01*
X222399Y348048D01*
X222457Y348028D01*
X222481Y348023D01*
X222503Y348018D01*
X222522Y348012D01*
X222536Y348009D01*
X222544Y348007D01*
X222547D01*
X222506Y347698D01*
X222448Y347706D01*
X222394Y347717D01*
X222342Y347734D01*
X222293Y347750D01*
X222247Y347769D01*
X222205Y347791D01*
X222165Y347813D01*
X222132Y347835D01*
X222099Y347856D01*
X222072Y347876D01*
X222047Y347895D01*
X222028Y347911D01*
X222012Y347927D01*
X222001Y347938D01*
X221995Y347944D01*
X221993Y347947D01*
X221957Y347988D01*
X221927Y348034D01*
X221902Y348078D01*
X221878Y348124D01*
X221859Y348170D01*
X221845Y348217D01*
X221831Y348261D01*
X221821Y348304D01*
X221812Y348345D01*
X221807Y348381D01*
X221801Y348413D01*
X221799Y348444D01*
Y348465D01*
X221796Y348484D01*
Y348498D01*
X221799Y348566D01*
X221807Y348629D01*
X221818Y348689D01*
X221831Y348746D01*
X221848Y348801D01*
X221867Y348850D01*
X221889Y348897D01*
X221911Y348938D01*
X221930Y348976D01*
X221952Y349009D01*
X221971Y349039D01*
X221987Y349060D01*
X222001Y349080D01*
X222012Y349093D01*
X222020Y349101D01*
X222023Y349104D01*
X222066Y349148D01*
X222113Y349183D01*
X222159Y349216D01*
X222208Y349243D01*
X222255Y349268D01*
X222301Y349287D01*
X222345Y349303D01*
X222388Y349317D01*
X222429Y349328D01*
X222465Y349333D01*
X222498Y349339D01*
X222528Y349344D01*
X222550D01*
X222569Y349347D01*
X222580D01*
X222582D01*
X222626D01*
X222670Y349342D01*
D02*
G37*
G36*
X224368Y346705D02*
X224305Y346669D01*
X224245Y346628D01*
X224187Y346582D01*
X224138Y346535D01*
X224092Y346494D01*
X224076Y346475D01*
X224059Y346462D01*
X224045Y346448D01*
X224037Y346437D01*
X224032Y346431D01*
X224029Y346429D01*
X223966Y346355D01*
X223912Y346276D01*
X223860Y346199D01*
X223816Y346128D01*
X223800Y346098D01*
X223783Y346068D01*
X223767Y346041D01*
X223756Y346019D01*
X223748Y346000D01*
X223740Y345987D01*
X223737Y345978D01*
X223734Y345976D01*
X223437D01*
X223459Y346030D01*
X223483Y346088D01*
X223511Y346142D01*
X223535Y346191D01*
X223560Y346235D01*
X223568Y346254D01*
X223579Y346270D01*
X223584Y346284D01*
X223590Y346292D01*
X223595Y346298D01*
Y346300D01*
X223636Y346366D01*
X223674Y346423D01*
X223710Y346475D01*
X223743Y346516D01*
X223770Y346552D01*
X223789Y346576D01*
X223803Y346590D01*
X223808Y346595D01*
X221840D01*
Y346904D01*
X224368D01*
Y346705D01*
D02*
G37*
G36*
X222724Y345121D02*
X222667Y345107D01*
X222612Y345088D01*
X222560Y345069D01*
X222514Y345050D01*
X222470Y345028D01*
X222432Y345006D01*
X222397Y344985D01*
X222364Y344963D01*
X222337Y344941D01*
X222312Y344922D01*
X222290Y344903D01*
X222274Y344889D01*
X222260Y344875D01*
X222252Y344864D01*
X222247Y344859D01*
X222244Y344856D01*
X222216Y344818D01*
X222192Y344780D01*
X222170Y344742D01*
X222151Y344701D01*
X222134Y344660D01*
X222121Y344621D01*
X222102Y344545D01*
X222096Y344512D01*
X222091Y344479D01*
X222088Y344452D01*
X222085Y344428D01*
X222083Y344408D01*
Y344381D01*
X222085Y344338D01*
X222088Y344297D01*
X222102Y344217D01*
X222121Y344144D01*
X222143Y344081D01*
X222154Y344054D01*
X222162Y344029D01*
X222173Y344007D01*
X222181Y343988D01*
X222189Y343972D01*
X222195Y343961D01*
X222200Y343955D01*
Y343953D01*
X222225Y343917D01*
X222249Y343884D01*
X222306Y343824D01*
X222364Y343775D01*
X222424Y343734D01*
X222476Y343704D01*
X222498Y343690D01*
X222519Y343680D01*
X222536Y343674D01*
X222547Y343669D01*
X222555Y343663D01*
X222558D01*
X222651Y343633D01*
X222746Y343609D01*
X222842Y343592D01*
X222885Y343587D01*
X222929Y343581D01*
X222970Y343579D01*
X223005Y343576D01*
X223038Y343573D01*
X223065D01*
X223090Y343570D01*
X223106D01*
X223117D01*
X223120D01*
X223213Y343573D01*
X223300Y343581D01*
X223382Y343595D01*
X223420Y343601D01*
X223456Y343609D01*
X223486Y343617D01*
X223516Y343622D01*
X223540Y343631D01*
X223562Y343636D01*
X223579Y343639D01*
X223592Y343644D01*
X223601Y343647D01*
X223603D01*
X223688Y343682D01*
X223762Y343723D01*
X223824Y343767D01*
X223852Y343792D01*
X223879Y343813D01*
X223901Y343835D01*
X223920Y343854D01*
X223939Y343874D01*
X223953Y343887D01*
X223964Y343901D01*
X223972Y343912D01*
X223975Y343917D01*
X223977Y343920D01*
X224002Y343958D01*
X224024Y343996D01*
X224043Y344037D01*
X224059Y344078D01*
X224084Y344160D01*
X224103Y344239D01*
X224108Y344272D01*
X224111Y344305D01*
X224114Y344335D01*
X224116Y344359D01*
X224119Y344381D01*
Y344455D01*
X224114Y344499D01*
X224100Y344581D01*
X224078Y344652D01*
X224067Y344682D01*
X224057Y344712D01*
X224045Y344739D01*
X224035Y344761D01*
X224024Y344780D01*
X224013Y344796D01*
X224005Y344810D01*
X223999Y344818D01*
X223996Y344824D01*
X223994Y344826D01*
X223969Y344856D01*
X223942Y344886D01*
X223879Y344935D01*
X223811Y344982D01*
X223745Y345017D01*
X223685Y345045D01*
X223661Y345058D01*
X223639Y345066D01*
X223620Y345075D01*
X223603Y345077D01*
X223595Y345083D01*
X223592D01*
X223669Y345410D01*
X223732Y345389D01*
X223792Y345364D01*
X223849Y345339D01*
X223901Y345309D01*
X223950Y345282D01*
X223994Y345252D01*
X224035Y345222D01*
X224070Y345192D01*
X224103Y345162D01*
X224130Y345137D01*
X224155Y345113D01*
X224174Y345091D01*
X224190Y345075D01*
X224201Y345061D01*
X224207Y345053D01*
X224209Y345050D01*
X224245Y345001D01*
X224272Y344949D01*
X224299Y344897D01*
X224321Y344843D01*
X224340Y344788D01*
X224357Y344736D01*
X224368Y344684D01*
X224379Y344635D01*
X224387Y344589D01*
X224392Y344548D01*
X224398Y344510D01*
X224400Y344477D01*
X224403Y344449D01*
Y344414D01*
X224400Y344351D01*
X224398Y344291D01*
X224379Y344179D01*
X224368Y344125D01*
X224354Y344075D01*
X224340Y344026D01*
X224327Y343983D01*
X224313Y343944D01*
X224299Y343909D01*
X224286Y343876D01*
X224275Y343852D01*
X224264Y343830D01*
X224256Y343816D01*
X224253Y343805D01*
X224250Y343802D01*
X224220Y343753D01*
X224187Y343704D01*
X224152Y343660D01*
X224116Y343620D01*
X224078Y343581D01*
X224043Y343546D01*
X224005Y343516D01*
X223972Y343486D01*
X223936Y343461D01*
X223906Y343439D01*
X223879Y343420D01*
X223854Y343404D01*
X223833Y343393D01*
X223819Y343385D01*
X223808Y343379D01*
X223805Y343377D01*
X223751Y343349D01*
X223691Y343327D01*
X223633Y343308D01*
X223576Y343289D01*
X223459Y343262D01*
X223404Y343254D01*
X223352Y343246D01*
X223303Y343240D01*
X223259Y343235D01*
X223218Y343232D01*
X223183Y343229D01*
X223156Y343226D01*
X223134D01*
X223123D01*
X223117D01*
X223052Y343229D01*
X222986Y343232D01*
X222861Y343248D01*
X222801Y343256D01*
X222746Y343267D01*
X222694Y343281D01*
X222645Y343292D01*
X222601Y343306D01*
X222560Y343317D01*
X222528Y343327D01*
X222498Y343338D01*
X222476Y343347D01*
X222457Y343352D01*
X222446Y343355D01*
X222443Y343357D01*
X222386Y343385D01*
X222331Y343412D01*
X222282Y343442D01*
X222236Y343475D01*
X222192Y343508D01*
X222154Y343538D01*
X222118Y343570D01*
X222085Y343601D01*
X222055Y343631D01*
X222031Y343658D01*
X222012Y343682D01*
X221993Y343704D01*
X221979Y343721D01*
X221971Y343734D01*
X221965Y343742D01*
X221963Y343745D01*
X221933Y343794D01*
X221908Y343846D01*
X221886Y343901D01*
X221867Y343958D01*
X221853Y344013D01*
X221840Y344067D01*
X221829Y344122D01*
X221821Y344174D01*
X221812Y344223D01*
X221807Y344267D01*
X221804Y344307D01*
X221801Y344340D01*
X221799Y344370D01*
Y344408D01*
X221801Y344482D01*
X221807Y344550D01*
X221818Y344616D01*
X221831Y344679D01*
X221848Y344739D01*
X221867Y344794D01*
X221886Y344843D01*
X221905Y344889D01*
X221924Y344933D01*
X221943Y344968D01*
X221963Y345001D01*
X221979Y345025D01*
X221993Y345047D01*
X222004Y345061D01*
X222009Y345072D01*
X222012Y345075D01*
X222055Y345124D01*
X222102Y345170D01*
X222151Y345211D01*
X222200Y345249D01*
X222252Y345285D01*
X222306Y345315D01*
X222356Y345342D01*
X222408Y345367D01*
X222454Y345389D01*
X222498Y345405D01*
X222539Y345421D01*
X222571Y345432D01*
X222601Y345443D01*
X222621Y345449D01*
X222634Y345454D01*
X222640D01*
X222724Y345121D01*
D02*
G37*
G36*
X220531Y332248D02*
X220597Y332245D01*
X220722Y332229D01*
X220782Y332221D01*
X220837Y332210D01*
X220889Y332196D01*
X220938Y332185D01*
X220982Y332172D01*
X221023Y332161D01*
X221055Y332150D01*
X221085Y332139D01*
X221107Y332131D01*
X221126Y332125D01*
X221137Y332122D01*
X221140Y332120D01*
X221197Y332092D01*
X221252Y332065D01*
X221301Y332035D01*
X221347Y332002D01*
X221391Y331969D01*
X221429Y331940D01*
X221465Y331907D01*
X221498Y331877D01*
X221528Y331847D01*
X221552Y331819D01*
X221571Y331795D01*
X221590Y331773D01*
X221604Y331757D01*
X221612Y331743D01*
X221618Y331735D01*
X221620Y331732D01*
X221651Y331683D01*
X221675Y331631D01*
X221697Y331576D01*
X221716Y331519D01*
X221730Y331465D01*
X221743Y331410D01*
X221754Y331355D01*
X221762Y331303D01*
X221771Y331254D01*
X221776Y331211D01*
X221779Y331170D01*
X221782Y331137D01*
X221784Y331107D01*
Y331069D01*
X221782Y330995D01*
X221776Y330927D01*
X221765Y330861D01*
X221751Y330798D01*
X221735Y330738D01*
X221716Y330684D01*
X221697Y330635D01*
X221678Y330588D01*
X221659Y330544D01*
X221640Y330509D01*
X221620Y330476D01*
X221604Y330452D01*
X221590Y330430D01*
X221580Y330416D01*
X221574Y330405D01*
X221571Y330402D01*
X221528Y330353D01*
X221481Y330307D01*
X221432Y330266D01*
X221383Y330228D01*
X221331Y330192D01*
X221276Y330162D01*
X221227Y330135D01*
X221176Y330110D01*
X221129Y330089D01*
X221085Y330072D01*
X221044Y330056D01*
X221012Y330045D01*
X220982Y330034D01*
X220963Y330029D01*
X220949Y330023D01*
X220943D01*
X220859Y330356D01*
X220916Y330370D01*
X220971Y330389D01*
X221023Y330408D01*
X221069Y330427D01*
X221113Y330449D01*
X221151Y330471D01*
X221186Y330493D01*
X221219Y330514D01*
X221247Y330536D01*
X221271Y330555D01*
X221293Y330574D01*
X221309Y330588D01*
X221323Y330602D01*
X221331Y330613D01*
X221337Y330618D01*
X221339Y330621D01*
X221367Y330659D01*
X221391Y330697D01*
X221413Y330736D01*
X221432Y330777D01*
X221448Y330818D01*
X221462Y330856D01*
X221481Y330932D01*
X221487Y330965D01*
X221492Y330998D01*
X221495Y331025D01*
X221498Y331049D01*
X221500Y331069D01*
Y331096D01*
X221498Y331140D01*
X221495Y331181D01*
X221481Y331260D01*
X221462Y331333D01*
X221440Y331396D01*
X221429Y331423D01*
X221421Y331448D01*
X221410Y331470D01*
X221402Y331489D01*
X221394Y331505D01*
X221388Y331516D01*
X221383Y331522D01*
Y331524D01*
X221358Y331560D01*
X221334Y331593D01*
X221276Y331653D01*
X221219Y331702D01*
X221159Y331743D01*
X221107Y331773D01*
X221085Y331787D01*
X221064Y331798D01*
X221047Y331803D01*
X221036Y331808D01*
X221028Y331814D01*
X221025D01*
X220933Y331844D01*
X220837Y331869D01*
X220741Y331885D01*
X220698Y331890D01*
X220654Y331896D01*
X220613Y331898D01*
X220578Y331901D01*
X220545Y331904D01*
X220518D01*
X220493Y331907D01*
X220477D01*
X220466D01*
X220463D01*
X220370Y331904D01*
X220283Y331896D01*
X220201Y331882D01*
X220163Y331877D01*
X220127Y331869D01*
X220097Y331860D01*
X220067Y331855D01*
X220042Y331847D01*
X220021Y331841D01*
X220004Y331838D01*
X219991Y331833D01*
X219983Y331830D01*
X219980D01*
X219895Y331795D01*
X219821Y331754D01*
X219759Y331710D01*
X219731Y331686D01*
X219704Y331664D01*
X219682Y331642D01*
X219663Y331623D01*
X219644Y331604D01*
X219630Y331590D01*
X219619Y331576D01*
X219611Y331565D01*
X219608Y331560D01*
X219606Y331557D01*
X219581Y331519D01*
X219559Y331481D01*
X219540Y331440D01*
X219524Y331399D01*
X219499Y331317D01*
X219480Y331238D01*
X219475Y331205D01*
X219472Y331172D01*
X219469Y331142D01*
X219466Y331118D01*
X219464Y331096D01*
Y331022D01*
X219469Y330978D01*
X219483Y330897D01*
X219505Y330826D01*
X219516Y330796D01*
X219527Y330766D01*
X219537Y330738D01*
X219548Y330716D01*
X219559Y330697D01*
X219570Y330681D01*
X219579Y330667D01*
X219584Y330659D01*
X219587Y330654D01*
X219589Y330651D01*
X219614Y330621D01*
X219641Y330591D01*
X219704Y330542D01*
X219772Y330495D01*
X219838Y330460D01*
X219898Y330433D01*
X219922Y330419D01*
X219944Y330411D01*
X219963Y330402D01*
X219980Y330400D01*
X219988Y330394D01*
X219991D01*
X219914Y330067D01*
X219851Y330089D01*
X219791Y330113D01*
X219734Y330138D01*
X219682Y330168D01*
X219633Y330195D01*
X219589Y330225D01*
X219548Y330255D01*
X219513Y330285D01*
X219480Y330315D01*
X219453Y330340D01*
X219428Y330364D01*
X219409Y330386D01*
X219393Y330402D01*
X219382Y330416D01*
X219376Y330424D01*
X219374Y330427D01*
X219338Y330476D01*
X219311Y330528D01*
X219284Y330580D01*
X219262Y330635D01*
X219243Y330689D01*
X219226Y330741D01*
X219215Y330793D01*
X219204Y330842D01*
X219196Y330889D01*
X219191Y330929D01*
X219185Y330968D01*
X219183Y331000D01*
X219180Y331028D01*
Y331063D01*
X219183Y331126D01*
X219185Y331186D01*
X219204Y331298D01*
X219215Y331353D01*
X219229Y331402D01*
X219243Y331451D01*
X219256Y331494D01*
X219270Y331533D01*
X219284Y331568D01*
X219297Y331601D01*
X219308Y331626D01*
X219319Y331647D01*
X219327Y331661D01*
X219330Y331672D01*
X219333Y331675D01*
X219363Y331724D01*
X219395Y331773D01*
X219431Y331817D01*
X219466Y331858D01*
X219505Y331896D01*
X219540Y331931D01*
X219579Y331961D01*
X219611Y331991D01*
X219647Y332016D01*
X219677Y332038D01*
X219704Y332057D01*
X219729Y332073D01*
X219750Y332084D01*
X219764Y332092D01*
X219775Y332098D01*
X219778Y332101D01*
X219832Y332128D01*
X219892Y332150D01*
X219950Y332169D01*
X220007Y332188D01*
X220124Y332215D01*
X220179Y332223D01*
X220231Y332232D01*
X220280Y332237D01*
X220324Y332242D01*
X220365Y332245D01*
X220400Y332248D01*
X220427Y332251D01*
X220449D01*
X220460D01*
X220466D01*
X220531Y332248D01*
D02*
G37*
G36*
X220124Y329447D02*
X220100Y329390D01*
X220073Y329335D01*
X220048Y329286D01*
X220023Y329242D01*
X220015Y329223D01*
X220004Y329207D01*
X219999Y329193D01*
X219993Y329185D01*
X219988Y329180D01*
Y329177D01*
X219947Y329111D01*
X219909Y329054D01*
X219873Y329002D01*
X219841Y328961D01*
X219813Y328926D01*
X219794Y328901D01*
X219780Y328887D01*
X219775Y328882D01*
X221743D01*
Y328573D01*
X219215D01*
Y328773D01*
X219278Y328808D01*
X219338Y328849D01*
X219395Y328896D01*
X219445Y328942D01*
X219491Y328983D01*
X219508Y329002D01*
X219524Y329016D01*
X219537Y329029D01*
X219546Y329040D01*
X219551Y329046D01*
X219554Y329048D01*
X219617Y329122D01*
X219671Y329201D01*
X219723Y329278D01*
X219767Y329349D01*
X219783Y329379D01*
X219800Y329409D01*
X219816Y329436D01*
X219827Y329458D01*
X219835Y329477D01*
X219843Y329491D01*
X219846Y329499D01*
X219849Y329502D01*
X220146D01*
X220124Y329447D01*
D02*
G37*
G36*
X221140Y326788D02*
X221743D01*
Y326480D01*
X221140D01*
Y326138D01*
X220856D01*
Y326480D01*
X219223D01*
Y326733D01*
X220856Y327885D01*
X221140D01*
Y326788D01*
D02*
G37*
G36*
X307756Y299197D02*
X307824Y299192D01*
X307890Y299181D01*
X307952Y299167D01*
X308012Y299151D01*
X308067Y299132D01*
X308116Y299113D01*
X308162Y299094D01*
X308206Y299075D01*
X308242Y299055D01*
X308275Y299036D01*
X308299Y299020D01*
X308321Y299006D01*
X308334Y298995D01*
X308345Y298990D01*
X308348Y298987D01*
X308397Y298943D01*
X308444Y298897D01*
X308485Y298848D01*
X308523Y298799D01*
X308558Y298747D01*
X308588Y298692D01*
X308616Y298643D01*
X308640Y298591D01*
X308662Y298545D01*
X308679Y298501D01*
X308695Y298460D01*
X308706Y298427D01*
X308717Y298397D01*
X308722Y298378D01*
X308728Y298365D01*
Y298359D01*
X308395Y298275D01*
X308381Y298332D01*
X308362Y298387D01*
X308343Y298438D01*
X308324Y298485D01*
X308302Y298529D01*
X308280Y298567D01*
X308258Y298602D01*
X308236Y298635D01*
X308214Y298662D01*
X308195Y298687D01*
X308176Y298709D01*
X308162Y298725D01*
X308149Y298739D01*
X308138Y298747D01*
X308133Y298752D01*
X308130Y298755D01*
X308092Y298782D01*
X308053Y298807D01*
X308015Y298829D01*
X307974Y298848D01*
X307933Y298864D01*
X307895Y298878D01*
X307819Y298897D01*
X307786Y298903D01*
X307753Y298908D01*
X307726Y298911D01*
X307701Y298913D01*
X307682Y298916D01*
X307655D01*
X307611Y298913D01*
X307570Y298911D01*
X307491Y298897D01*
X307417Y298878D01*
X307354Y298856D01*
X307327Y298845D01*
X307303Y298837D01*
X307281Y298826D01*
X307262Y298818D01*
X307245Y298810D01*
X307234Y298804D01*
X307229Y298799D01*
X307226D01*
X307191Y298774D01*
X307158Y298750D01*
X307098Y298692D01*
X307049Y298635D01*
X307008Y298575D01*
X306978Y298523D01*
X306964Y298501D01*
X306953Y298479D01*
X306948Y298463D01*
X306942Y298452D01*
X306937Y298444D01*
Y298441D01*
X306907Y298348D01*
X306882Y298253D01*
X306866Y298157D01*
X306860Y298113D01*
X306855Y298070D01*
X306852Y298029D01*
X306849Y297993D01*
X306847Y297961D01*
Y297933D01*
X306844Y297909D01*
Y297892D01*
Y297881D01*
Y297879D01*
X306847Y297786D01*
X306855Y297698D01*
X306869Y297617D01*
X306874Y297578D01*
X306882Y297543D01*
X306890Y297513D01*
X306896Y297483D01*
X306904Y297458D01*
X306909Y297436D01*
X306912Y297420D01*
X306918Y297406D01*
X306920Y297398D01*
Y297395D01*
X306956Y297311D01*
X306997Y297237D01*
X307041Y297174D01*
X307065Y297147D01*
X307087Y297120D01*
X307109Y297098D01*
X307128Y297079D01*
X307147Y297060D01*
X307161Y297046D01*
X307174Y297035D01*
X307185Y297027D01*
X307191Y297024D01*
X307193Y297022D01*
X307232Y296997D01*
X307270Y296975D01*
X307311Y296956D01*
X307352Y296940D01*
X307434Y296915D01*
X307513Y296896D01*
X307546Y296890D01*
X307578Y296888D01*
X307608Y296885D01*
X307633Y296882D01*
X307655Y296880D01*
X307729D01*
X307772Y296885D01*
X307854Y296899D01*
X307925Y296920D01*
X307955Y296931D01*
X307985Y296942D01*
X308012Y296953D01*
X308034Y296964D01*
X308053Y296975D01*
X308070Y296986D01*
X308083Y296994D01*
X308092Y297000D01*
X308097Y297002D01*
X308100Y297005D01*
X308130Y297030D01*
X308160Y297057D01*
X308209Y297120D01*
X308255Y297188D01*
X308291Y297253D01*
X308318Y297314D01*
X308332Y297338D01*
X308340Y297360D01*
X308348Y297379D01*
X308351Y297395D01*
X308356Y297404D01*
Y297406D01*
X308684Y297330D01*
X308662Y297267D01*
X308638Y297207D01*
X308613Y297150D01*
X308583Y297098D01*
X308556Y297049D01*
X308526Y297005D01*
X308496Y296964D01*
X308466Y296929D01*
X308436Y296896D01*
X308411Y296869D01*
X308386Y296844D01*
X308365Y296825D01*
X308348Y296809D01*
X308334Y296798D01*
X308326Y296792D01*
X308324Y296789D01*
X308275Y296754D01*
X308223Y296727D01*
X308171Y296699D01*
X308116Y296677D01*
X308062Y296658D01*
X308010Y296642D01*
X307958Y296631D01*
X307909Y296620D01*
X307862Y296612D01*
X307821Y296606D01*
X307783Y296601D01*
X307750Y296598D01*
X307723Y296596D01*
X307687D01*
X307625Y296598D01*
X307565Y296601D01*
X307453Y296620D01*
X307398Y296631D01*
X307349Y296645D01*
X307300Y296658D01*
X307256Y296672D01*
X307218Y296686D01*
X307183Y296699D01*
X307150Y296713D01*
X307125Y296724D01*
X307103Y296735D01*
X307090Y296743D01*
X307079Y296746D01*
X307076Y296748D01*
X307027Y296778D01*
X306978Y296811D01*
X306934Y296847D01*
X306893Y296882D01*
X306855Y296920D01*
X306819Y296956D01*
X306789Y296994D01*
X306759Y297027D01*
X306735Y297062D01*
X306713Y297093D01*
X306694Y297120D01*
X306677Y297144D01*
X306666Y297166D01*
X306658Y297180D01*
X306653Y297191D01*
X306650Y297194D01*
X306623Y297248D01*
X306601Y297308D01*
X306582Y297365D01*
X306563Y297423D01*
X306535Y297540D01*
X306527Y297595D01*
X306519Y297647D01*
X306514Y297696D01*
X306508Y297740D01*
X306505Y297780D01*
X306503Y297816D01*
X306500Y297843D01*
Y297865D01*
Y297876D01*
Y297881D01*
X306503Y297947D01*
X306505Y298012D01*
X306522Y298138D01*
X306530Y298198D01*
X306541Y298253D01*
X306555Y298305D01*
X306565Y298354D01*
X306579Y298397D01*
X306590Y298438D01*
X306601Y298471D01*
X306612Y298501D01*
X306620Y298523D01*
X306626Y298542D01*
X306628Y298553D01*
X306631Y298556D01*
X306658Y298613D01*
X306686Y298668D01*
X306716Y298717D01*
X306748Y298763D01*
X306781Y298807D01*
X306811Y298845D01*
X306844Y298881D01*
X306874Y298913D01*
X306904Y298943D01*
X306931Y298968D01*
X306956Y298987D01*
X306978Y299006D01*
X306994Y299020D01*
X307008Y299028D01*
X307016Y299033D01*
X307019Y299036D01*
X307068Y299066D01*
X307120Y299091D01*
X307174Y299113D01*
X307232Y299132D01*
X307286Y299145D01*
X307341Y299159D01*
X307395Y299170D01*
X307447Y299178D01*
X307496Y299186D01*
X307540Y299192D01*
X307581Y299195D01*
X307614Y299197D01*
X307644Y299200D01*
X307682D01*
X307756Y299197D01*
D02*
G37*
G36*
X310177Y296631D02*
X309978D01*
X309943Y296694D01*
X309901Y296754D01*
X309855Y296811D01*
X309809Y296860D01*
X309768Y296907D01*
X309749Y296923D01*
X309735Y296940D01*
X309721Y296953D01*
X309710Y296961D01*
X309705Y296967D01*
X309702Y296970D01*
X309629Y297032D01*
X309549Y297087D01*
X309473Y297139D01*
X309402Y297183D01*
X309372Y297199D01*
X309342Y297215D01*
X309315Y297232D01*
X309293Y297243D01*
X309274Y297251D01*
X309260Y297259D01*
X309252Y297262D01*
X309249Y297265D01*
Y297562D01*
X309304Y297540D01*
X309361Y297516D01*
X309416Y297488D01*
X309465Y297464D01*
X309508Y297439D01*
X309527Y297431D01*
X309544Y297420D01*
X309558Y297415D01*
X309566Y297409D01*
X309571Y297404D01*
X309574D01*
X309640Y297363D01*
X309697Y297324D01*
X309749Y297289D01*
X309790Y297256D01*
X309825Y297229D01*
X309850Y297210D01*
X309863Y297196D01*
X309869Y297191D01*
Y299159D01*
X310177D01*
Y296631D01*
D02*
G37*
G36*
X311843Y299197D02*
X311889Y299195D01*
X311935Y299186D01*
X311979Y299178D01*
X312020Y299165D01*
X312055Y299154D01*
X312091Y299140D01*
X312121Y299126D01*
X312151Y299113D01*
X312176Y299099D01*
X312197Y299085D01*
X312214Y299075D01*
X312228Y299066D01*
X312238Y299058D01*
X312244Y299055D01*
X312247Y299053D01*
X312279Y299023D01*
X312312Y298993D01*
X312367Y298924D01*
X312413Y298856D01*
X312451Y298788D01*
X312468Y298755D01*
X312481Y298725D01*
X312492Y298700D01*
X312503Y298676D01*
X312511Y298659D01*
X312514Y298643D01*
X312520Y298635D01*
Y298632D01*
X312536Y298580D01*
X312550Y298523D01*
X312574Y298406D01*
X312591Y298286D01*
X312596Y298228D01*
X312601Y298171D01*
X312604Y298119D01*
X312607Y298070D01*
X312610Y298029D01*
X312612Y297991D01*
Y297961D01*
Y297936D01*
Y297922D01*
Y297917D01*
Y297849D01*
X312610Y297783D01*
X312607Y297723D01*
X312604Y297666D01*
X312599Y297614D01*
X312593Y297565D01*
X312588Y297521D01*
X312585Y297480D01*
X312580Y297445D01*
X312574Y297415D01*
X312569Y297387D01*
X312563Y297365D01*
X312561Y297346D01*
X312558Y297335D01*
X312555Y297327D01*
Y297324D01*
X312533Y297245D01*
X312506Y297172D01*
X312481Y297109D01*
X312457Y297054D01*
X312443Y297032D01*
X312435Y297011D01*
X312424Y296991D01*
X312416Y296978D01*
X312408Y296967D01*
X312405Y296959D01*
X312400Y296953D01*
Y296951D01*
X312361Y296896D01*
X312318Y296847D01*
X312277Y296806D01*
X312236Y296773D01*
X312200Y296746D01*
X312173Y296729D01*
X312162Y296721D01*
X312154Y296716D01*
X312148Y296713D01*
X312146D01*
X312086Y296686D01*
X312025Y296667D01*
X311965Y296650D01*
X311911Y296642D01*
X311862Y296637D01*
X311843Y296634D01*
X311824Y296631D01*
X311791D01*
X311742Y296634D01*
X311692Y296637D01*
X311646Y296645D01*
X311602Y296653D01*
X311564Y296664D01*
X311526Y296677D01*
X311490Y296691D01*
X311460Y296705D01*
X311430Y296719D01*
X311406Y296732D01*
X311384Y296743D01*
X311368Y296757D01*
X311354Y296765D01*
X311343Y296773D01*
X311337Y296776D01*
X311335Y296778D01*
X311302Y296809D01*
X311272Y296839D01*
X311217Y296907D01*
X311168Y296975D01*
X311130Y297043D01*
X311114Y297076D01*
X311100Y297103D01*
X311089Y297131D01*
X311078Y297152D01*
X311073Y297172D01*
X311067Y297188D01*
X311062Y297196D01*
Y297199D01*
X311045Y297251D01*
X311032Y297308D01*
X311010Y297426D01*
X310994Y297546D01*
X310988Y297603D01*
X310983Y297660D01*
X310980Y297712D01*
X310977Y297761D01*
X310974Y297805D01*
Y297843D01*
X310972Y297873D01*
Y297898D01*
Y297912D01*
Y297917D01*
X310974Y298045D01*
X310983Y298165D01*
X310994Y298275D01*
X311010Y298376D01*
X311029Y298468D01*
X311051Y298553D01*
X311073Y298627D01*
X311097Y298695D01*
X311119Y298752D01*
X311141Y298804D01*
X311163Y298845D01*
X311182Y298881D01*
X311198Y298908D01*
X311209Y298927D01*
X311217Y298938D01*
X311220Y298941D01*
X311261Y298987D01*
X311305Y299025D01*
X311351Y299061D01*
X311398Y299091D01*
X311444Y299115D01*
X311493Y299137D01*
X311540Y299154D01*
X311583Y299167D01*
X311627Y299178D01*
X311665Y299186D01*
X311701Y299192D01*
X311731Y299195D01*
X311755Y299197D01*
X311774Y299200D01*
X311791D01*
X311843Y299197D01*
D02*
G37*
G36*
X337756Y305497D02*
X337824Y305492D01*
X337890Y305481D01*
X337952Y305467D01*
X338012Y305451D01*
X338067Y305432D01*
X338116Y305413D01*
X338163Y305394D01*
X338206Y305374D01*
X338242Y305355D01*
X338275Y305336D01*
X338299Y305320D01*
X338321Y305306D01*
X338335Y305295D01*
X338346Y305290D01*
X338348Y305287D01*
X338397Y305243D01*
X338444Y305197D01*
X338485Y305148D01*
X338523Y305099D01*
X338558Y305047D01*
X338589Y304992D01*
X338616Y304943D01*
X338640Y304891D01*
X338662Y304845D01*
X338679Y304801D01*
X338695Y304760D01*
X338706Y304727D01*
X338717Y304697D01*
X338722Y304678D01*
X338728Y304665D01*
Y304659D01*
X338395Y304574D01*
X338381Y304632D01*
X338362Y304686D01*
X338343Y304738D01*
X338324Y304785D01*
X338302Y304828D01*
X338280Y304867D01*
X338258Y304902D01*
X338236Y304935D01*
X338214Y304962D01*
X338195Y304987D01*
X338176Y305009D01*
X338163Y305025D01*
X338149Y305039D01*
X338138Y305047D01*
X338133Y305052D01*
X338130Y305055D01*
X338092Y305082D01*
X338053Y305107D01*
X338015Y305129D01*
X337974Y305148D01*
X337933Y305164D01*
X337895Y305178D01*
X337819Y305197D01*
X337786Y305202D01*
X337753Y305208D01*
X337726Y305211D01*
X337701Y305213D01*
X337682Y305216D01*
X337655D01*
X337611Y305213D01*
X337570Y305211D01*
X337491Y305197D01*
X337417Y305178D01*
X337354Y305156D01*
X337327Y305145D01*
X337303Y305137D01*
X337281Y305126D01*
X337262Y305118D01*
X337245Y305110D01*
X337234Y305104D01*
X337229Y305099D01*
X337226D01*
X337191Y305074D01*
X337158Y305049D01*
X337098Y304992D01*
X337049Y304935D01*
X337008Y304875D01*
X336978Y304823D01*
X336964Y304801D01*
X336953Y304779D01*
X336948Y304763D01*
X336942Y304752D01*
X336937Y304744D01*
Y304741D01*
X336907Y304648D01*
X336882Y304553D01*
X336866Y304457D01*
X336860Y304414D01*
X336855Y304370D01*
X336852Y304329D01*
X336849Y304293D01*
X336847Y304261D01*
Y304233D01*
X336844Y304209D01*
Y304192D01*
Y304181D01*
Y304179D01*
X336847Y304086D01*
X336855Y303998D01*
X336869Y303917D01*
X336874Y303878D01*
X336882Y303843D01*
X336890Y303813D01*
X336896Y303783D01*
X336904Y303758D01*
X336910Y303736D01*
X336912Y303720D01*
X336918Y303706D01*
X336920Y303698D01*
Y303696D01*
X336956Y303611D01*
X336997Y303537D01*
X337040Y303474D01*
X337065Y303447D01*
X337087Y303420D01*
X337109Y303398D01*
X337128Y303379D01*
X337147Y303360D01*
X337161Y303346D01*
X337174Y303335D01*
X337185Y303327D01*
X337191Y303324D01*
X337193Y303322D01*
X337232Y303297D01*
X337270Y303275D01*
X337311Y303256D01*
X337352Y303240D01*
X337434Y303215D01*
X337513Y303196D01*
X337546Y303190D01*
X337578Y303188D01*
X337608Y303185D01*
X337633Y303182D01*
X337655Y303180D01*
X337729D01*
X337772Y303185D01*
X337854Y303199D01*
X337925Y303220D01*
X337955Y303231D01*
X337985Y303242D01*
X338012Y303253D01*
X338034Y303264D01*
X338053Y303275D01*
X338070Y303286D01*
X338083Y303294D01*
X338092Y303300D01*
X338097Y303302D01*
X338100Y303305D01*
X338130Y303330D01*
X338160Y303357D01*
X338209Y303420D01*
X338255Y303488D01*
X338291Y303554D01*
X338318Y303614D01*
X338332Y303638D01*
X338340Y303660D01*
X338348Y303679D01*
X338351Y303696D01*
X338356Y303704D01*
Y303706D01*
X338684Y303630D01*
X338662Y303567D01*
X338638Y303507D01*
X338613Y303450D01*
X338583Y303398D01*
X338556Y303349D01*
X338526Y303305D01*
X338496Y303264D01*
X338466Y303229D01*
X338436Y303196D01*
X338411Y303169D01*
X338386Y303144D01*
X338365Y303125D01*
X338348Y303109D01*
X338335Y303098D01*
X338326Y303092D01*
X338324Y303089D01*
X338275Y303054D01*
X338223Y303027D01*
X338171Y302999D01*
X338116Y302977D01*
X338062Y302958D01*
X338010Y302942D01*
X337958Y302931D01*
X337909Y302920D01*
X337862Y302912D01*
X337821Y302906D01*
X337783Y302901D01*
X337750Y302898D01*
X337723Y302896D01*
X337688D01*
X337625Y302898D01*
X337565Y302901D01*
X337453Y302920D01*
X337398Y302931D01*
X337349Y302945D01*
X337300Y302958D01*
X337256Y302972D01*
X337218Y302986D01*
X337182Y302999D01*
X337150Y303013D01*
X337125Y303024D01*
X337103Y303035D01*
X337090Y303043D01*
X337079Y303046D01*
X337076Y303048D01*
X337027Y303079D01*
X336978Y303111D01*
X336934Y303147D01*
X336893Y303182D01*
X336855Y303220D01*
X336819Y303256D01*
X336789Y303294D01*
X336759Y303327D01*
X336735Y303362D01*
X336713Y303392D01*
X336694Y303420D01*
X336677Y303444D01*
X336666Y303466D01*
X336658Y303480D01*
X336653Y303491D01*
X336650Y303493D01*
X336623Y303548D01*
X336601Y303608D01*
X336582Y303665D01*
X336563Y303723D01*
X336536Y303840D01*
X336527Y303895D01*
X336519Y303947D01*
X336514Y303996D01*
X336508Y304039D01*
X336506Y304080D01*
X336503Y304116D01*
X336500Y304143D01*
Y304165D01*
Y304176D01*
Y304181D01*
X336503Y304247D01*
X336506Y304312D01*
X336522Y304438D01*
X336530Y304498D01*
X336541Y304553D01*
X336555Y304605D01*
X336565Y304654D01*
X336579Y304697D01*
X336590Y304738D01*
X336601Y304771D01*
X336612Y304801D01*
X336620Y304823D01*
X336626Y304842D01*
X336628Y304853D01*
X336631Y304856D01*
X336658Y304913D01*
X336686Y304968D01*
X336716Y305017D01*
X336748Y305063D01*
X336781Y305107D01*
X336811Y305145D01*
X336844Y305181D01*
X336874Y305213D01*
X336904Y305243D01*
X336931Y305268D01*
X336956Y305287D01*
X336978Y305306D01*
X336994Y305320D01*
X337008Y305328D01*
X337016Y305333D01*
X337019Y305336D01*
X337068Y305366D01*
X337120Y305391D01*
X337174Y305413D01*
X337232Y305432D01*
X337286Y305445D01*
X337341Y305459D01*
X337395Y305470D01*
X337447Y305478D01*
X337496Y305486D01*
X337540Y305492D01*
X337581Y305494D01*
X337614Y305497D01*
X337644Y305500D01*
X337682D01*
X337756Y305497D01*
D02*
G37*
G36*
X342135Y302931D02*
X341935D01*
X341900Y302994D01*
X341859Y303054D01*
X341813Y303111D01*
X341766Y303160D01*
X341725Y303207D01*
X341706Y303223D01*
X341692Y303240D01*
X341679Y303253D01*
X341668Y303261D01*
X341662Y303267D01*
X341660Y303270D01*
X341586Y303332D01*
X341507Y303387D01*
X341430Y303439D01*
X341359Y303483D01*
X341329Y303499D01*
X341299Y303515D01*
X341272Y303532D01*
X341250Y303543D01*
X341231Y303551D01*
X341217Y303559D01*
X341209Y303562D01*
X341207Y303564D01*
Y303862D01*
X341261Y303840D01*
X341318Y303816D01*
X341373Y303788D01*
X341422Y303764D01*
X341466Y303739D01*
X341485Y303731D01*
X341501Y303720D01*
X341515Y303715D01*
X341523Y303709D01*
X341529Y303704D01*
X341531D01*
X341597Y303663D01*
X341654Y303625D01*
X341706Y303589D01*
X341747Y303556D01*
X341782Y303529D01*
X341807Y303510D01*
X341821Y303496D01*
X341826Y303491D01*
Y305459D01*
X342135D01*
Y302931D01*
D02*
G37*
G36*
X340177D02*
X339978D01*
X339943Y302994D01*
X339902Y303054D01*
X339855Y303111D01*
X339809Y303160D01*
X339768Y303207D01*
X339749Y303223D01*
X339735Y303240D01*
X339721Y303253D01*
X339710Y303261D01*
X339705Y303267D01*
X339702Y303270D01*
X339629Y303332D01*
X339549Y303387D01*
X339473Y303439D01*
X339402Y303483D01*
X339372Y303499D01*
X339342Y303515D01*
X339315Y303532D01*
X339293Y303543D01*
X339274Y303551D01*
X339260Y303559D01*
X339252Y303562D01*
X339249Y303564D01*
Y303862D01*
X339304Y303840D01*
X339361Y303816D01*
X339416Y303788D01*
X339465Y303764D01*
X339509Y303739D01*
X339528Y303731D01*
X339544Y303720D01*
X339558Y303715D01*
X339566Y303709D01*
X339571Y303704D01*
X339574D01*
X339639Y303663D01*
X339697Y303625D01*
X339749Y303589D01*
X339790Y303556D01*
X339825Y303529D01*
X339850Y303510D01*
X339863Y303496D01*
X339869Y303491D01*
Y305459D01*
X340177D01*
Y302931D01*
D02*
G37*
G36*
X307756Y292397D02*
X307824Y292392D01*
X307890Y292381D01*
X307952Y292367D01*
X308012Y292351D01*
X308067Y292332D01*
X308116Y292313D01*
X308162Y292294D01*
X308206Y292274D01*
X308242Y292255D01*
X308274Y292236D01*
X308299Y292220D01*
X308321Y292206D01*
X308334Y292195D01*
X308345Y292190D01*
X308348Y292187D01*
X308397Y292143D01*
X308444Y292097D01*
X308485Y292048D01*
X308523Y291999D01*
X308558Y291947D01*
X308588Y291892D01*
X308616Y291843D01*
X308640Y291791D01*
X308662Y291745D01*
X308679Y291701D01*
X308695Y291660D01*
X308706Y291627D01*
X308717Y291597D01*
X308722Y291578D01*
X308728Y291565D01*
Y291559D01*
X308395Y291475D01*
X308381Y291532D01*
X308362Y291586D01*
X308343Y291638D01*
X308324Y291685D01*
X308302Y291728D01*
X308280Y291767D01*
X308258Y291802D01*
X308236Y291835D01*
X308214Y291862D01*
X308195Y291887D01*
X308176Y291909D01*
X308162Y291925D01*
X308149Y291939D01*
X308138Y291947D01*
X308133Y291952D01*
X308130Y291955D01*
X308091Y291982D01*
X308053Y292007D01*
X308015Y292029D01*
X307974Y292048D01*
X307933Y292064D01*
X307895Y292078D01*
X307819Y292097D01*
X307786Y292103D01*
X307753Y292108D01*
X307726Y292111D01*
X307701Y292113D01*
X307682Y292116D01*
X307655D01*
X307611Y292113D01*
X307570Y292111D01*
X307491Y292097D01*
X307417Y292078D01*
X307354Y292056D01*
X307327Y292045D01*
X307303Y292037D01*
X307281Y292026D01*
X307262Y292018D01*
X307245Y292010D01*
X307234Y292004D01*
X307229Y291999D01*
X307226D01*
X307191Y291974D01*
X307158Y291950D01*
X307098Y291892D01*
X307049Y291835D01*
X307008Y291775D01*
X306978Y291723D01*
X306964Y291701D01*
X306953Y291679D01*
X306948Y291663D01*
X306942Y291652D01*
X306937Y291644D01*
Y291641D01*
X306907Y291548D01*
X306882Y291453D01*
X306866Y291357D01*
X306860Y291314D01*
X306855Y291270D01*
X306852Y291229D01*
X306849Y291193D01*
X306847Y291161D01*
Y291133D01*
X306844Y291109D01*
Y291092D01*
Y291081D01*
Y291079D01*
X306847Y290986D01*
X306855Y290898D01*
X306869Y290817D01*
X306874Y290778D01*
X306882Y290743D01*
X306890Y290713D01*
X306896Y290683D01*
X306904Y290658D01*
X306909Y290636D01*
X306912Y290620D01*
X306918Y290606D01*
X306920Y290598D01*
Y290596D01*
X306956Y290511D01*
X306997Y290437D01*
X307041Y290374D01*
X307065Y290347D01*
X307087Y290320D01*
X307109Y290298D01*
X307128Y290279D01*
X307147Y290260D01*
X307161Y290246D01*
X307174Y290235D01*
X307185Y290227D01*
X307191Y290224D01*
X307193Y290222D01*
X307232Y290197D01*
X307270Y290175D01*
X307311Y290156D01*
X307352Y290140D01*
X307434Y290115D01*
X307513Y290096D01*
X307545Y290090D01*
X307578Y290088D01*
X307608Y290085D01*
X307633Y290082D01*
X307655Y290079D01*
X307729D01*
X307772Y290085D01*
X307854Y290099D01*
X307925Y290121D01*
X307955Y290131D01*
X307985Y290142D01*
X308012Y290153D01*
X308034Y290164D01*
X308053Y290175D01*
X308070Y290186D01*
X308083Y290194D01*
X308091Y290200D01*
X308097Y290202D01*
X308100Y290205D01*
X308130Y290230D01*
X308160Y290257D01*
X308209Y290320D01*
X308255Y290388D01*
X308291Y290454D01*
X308318Y290514D01*
X308332Y290538D01*
X308340Y290560D01*
X308348Y290579D01*
X308351Y290596D01*
X308356Y290604D01*
Y290606D01*
X308684Y290530D01*
X308662Y290467D01*
X308637Y290407D01*
X308613Y290350D01*
X308583Y290298D01*
X308556Y290249D01*
X308526Y290205D01*
X308496Y290164D01*
X308466Y290129D01*
X308436Y290096D01*
X308411Y290069D01*
X308386Y290044D01*
X308365Y290025D01*
X308348Y290009D01*
X308334Y289998D01*
X308326Y289992D01*
X308324Y289989D01*
X308274Y289954D01*
X308223Y289927D01*
X308171Y289899D01*
X308116Y289878D01*
X308062Y289858D01*
X308010Y289842D01*
X307958Y289831D01*
X307909Y289820D01*
X307862Y289812D01*
X307821Y289807D01*
X307783Y289801D01*
X307750Y289798D01*
X307723Y289796D01*
X307687D01*
X307625Y289798D01*
X307565Y289801D01*
X307453Y289820D01*
X307398Y289831D01*
X307349Y289845D01*
X307300Y289858D01*
X307256Y289872D01*
X307218Y289886D01*
X307183Y289899D01*
X307150Y289913D01*
X307125Y289924D01*
X307103Y289935D01*
X307090Y289943D01*
X307079Y289946D01*
X307076Y289949D01*
X307027Y289979D01*
X306978Y290011D01*
X306934Y290047D01*
X306893Y290082D01*
X306855Y290121D01*
X306819Y290156D01*
X306789Y290194D01*
X306759Y290227D01*
X306735Y290262D01*
X306713Y290293D01*
X306694Y290320D01*
X306677Y290344D01*
X306666Y290366D01*
X306658Y290380D01*
X306653Y290391D01*
X306650Y290393D01*
X306623Y290448D01*
X306601Y290508D01*
X306582Y290565D01*
X306563Y290623D01*
X306535Y290740D01*
X306527Y290795D01*
X306519Y290847D01*
X306514Y290896D01*
X306508Y290939D01*
X306505Y290980D01*
X306503Y291016D01*
X306500Y291043D01*
Y291065D01*
Y291076D01*
Y291081D01*
X306503Y291147D01*
X306505Y291213D01*
X306522Y291338D01*
X306530Y291398D01*
X306541Y291453D01*
X306555Y291505D01*
X306565Y291554D01*
X306579Y291597D01*
X306590Y291638D01*
X306601Y291671D01*
X306612Y291701D01*
X306620Y291723D01*
X306626Y291742D01*
X306628Y291753D01*
X306631Y291756D01*
X306658Y291813D01*
X306686Y291868D01*
X306716Y291917D01*
X306748Y291963D01*
X306781Y292007D01*
X306811Y292045D01*
X306844Y292081D01*
X306874Y292113D01*
X306904Y292143D01*
X306931Y292168D01*
X306956Y292187D01*
X306978Y292206D01*
X306994Y292220D01*
X307008Y292228D01*
X307016Y292233D01*
X307019Y292236D01*
X307068Y292266D01*
X307120Y292291D01*
X307174Y292313D01*
X307232Y292332D01*
X307286Y292345D01*
X307341Y292359D01*
X307395Y292370D01*
X307447Y292378D01*
X307496Y292386D01*
X307540Y292392D01*
X307581Y292395D01*
X307614Y292397D01*
X307644Y292400D01*
X307682D01*
X307756Y292397D01*
D02*
G37*
G36*
X309713Y292223D02*
X309721Y292157D01*
X309732Y292094D01*
X309740Y292034D01*
X309751Y291977D01*
X309760Y291922D01*
X309770Y291873D01*
X309779Y291829D01*
X309790Y291789D01*
X309798Y291753D01*
X309806Y291723D01*
X309811Y291701D01*
X309817Y291682D01*
X309820Y291671D01*
Y291668D01*
X309872Y291502D01*
X309901Y291420D01*
X309932Y291341D01*
X309962Y291267D01*
X309992Y291193D01*
X310022Y291125D01*
X310049Y291062D01*
X310076Y291005D01*
X310101Y290953D01*
X310125Y290907D01*
X310144Y290868D01*
X310161Y290836D01*
X310172Y290814D01*
X310180Y290800D01*
X310183Y290795D01*
X310226Y290718D01*
X310273Y290645D01*
X310316Y290574D01*
X310357Y290511D01*
X310398Y290451D01*
X310439Y290393D01*
X310478Y290342D01*
X310513Y290295D01*
X310546Y290254D01*
X310573Y290219D01*
X310600Y290189D01*
X310622Y290161D01*
X310639Y290142D01*
X310652Y290126D01*
X310661Y290118D01*
X310663Y290115D01*
Y289872D01*
X309033D01*
Y290170D01*
X310267D01*
X310224Y290222D01*
X310180Y290276D01*
X310098Y290388D01*
X310022Y290497D01*
X309986Y290552D01*
X309953Y290601D01*
X309926Y290650D01*
X309899Y290694D01*
X309877Y290732D01*
X309855Y290765D01*
X309841Y290792D01*
X309830Y290814D01*
X309822Y290825D01*
X309820Y290830D01*
X309746Y290978D01*
X309683Y291122D01*
X309653Y291191D01*
X309629Y291259D01*
X309604Y291324D01*
X309582Y291385D01*
X309563Y291439D01*
X309547Y291488D01*
X309533Y291535D01*
X309522Y291573D01*
X309511Y291603D01*
X309506Y291625D01*
X309503Y291638D01*
X309500Y291644D01*
X309481Y291720D01*
X309462Y291794D01*
X309448Y291865D01*
X309435Y291933D01*
X309424Y291996D01*
X309416Y292056D01*
X309407Y292108D01*
X309402Y292160D01*
X309397Y292203D01*
X309394Y292244D01*
X309391Y292277D01*
X309388Y292307D01*
X309386Y292329D01*
Y292345D01*
Y292356D01*
Y292359D01*
X309702D01*
X309713Y292223D01*
D02*
G37*
G36*
X293447Y329097D02*
X293513Y329095D01*
X293638Y329078D01*
X293698Y329070D01*
X293753Y329059D01*
X293805Y329045D01*
X293854Y329034D01*
X293897Y329021D01*
X293938Y329010D01*
X293971Y328999D01*
X294001Y328988D01*
X294023Y328980D01*
X294042Y328975D01*
X294053Y328972D01*
X294056Y328969D01*
X294113Y328942D01*
X294168Y328914D01*
X294217Y328884D01*
X294263Y328852D01*
X294307Y328819D01*
X294345Y328789D01*
X294381Y328756D01*
X294413Y328726D01*
X294443Y328696D01*
X294468Y328669D01*
X294487Y328644D01*
X294506Y328622D01*
X294520Y328606D01*
X294528Y328592D01*
X294533Y328584D01*
X294536Y328581D01*
X294566Y328532D01*
X294591Y328480D01*
X294613Y328426D01*
X294632Y328368D01*
X294645Y328314D01*
X294659Y328259D01*
X294670Y328205D01*
X294678Y328153D01*
X294686Y328104D01*
X294692Y328060D01*
X294695Y328019D01*
X294697Y327986D01*
X294700Y327956D01*
Y327918D01*
X294697Y327844D01*
X294692Y327776D01*
X294681Y327711D01*
X294667Y327648D01*
X294651Y327588D01*
X294632Y327533D01*
X294613Y327484D01*
X294594Y327437D01*
X294574Y327394D01*
X294555Y327358D01*
X294536Y327326D01*
X294520Y327301D01*
X294506Y327279D01*
X294495Y327266D01*
X294490Y327255D01*
X294487Y327252D01*
X294443Y327203D01*
X294397Y327156D01*
X294348Y327115D01*
X294299Y327077D01*
X294247Y327042D01*
X294192Y327012D01*
X294143Y326984D01*
X294091Y326960D01*
X294045Y326938D01*
X294001Y326922D01*
X293960Y326905D01*
X293927Y326894D01*
X293897Y326883D01*
X293878Y326878D01*
X293865Y326872D01*
X293859D01*
X293775Y327205D01*
X293832Y327219D01*
X293886Y327238D01*
X293938Y327257D01*
X293985Y327276D01*
X294028Y327298D01*
X294067Y327320D01*
X294102Y327342D01*
X294135Y327364D01*
X294162Y327386D01*
X294187Y327405D01*
X294209Y327424D01*
X294225Y327437D01*
X294239Y327451D01*
X294247Y327462D01*
X294252Y327467D01*
X294255Y327470D01*
X294282Y327508D01*
X294307Y327547D01*
X294329Y327585D01*
X294348Y327626D01*
X294364Y327667D01*
X294378Y327705D01*
X294397Y327781D01*
X294403Y327814D01*
X294408Y327847D01*
X294411Y327874D01*
X294413Y327899D01*
X294416Y327918D01*
Y327945D01*
X294413Y327989D01*
X294411Y328030D01*
X294397Y328109D01*
X294378Y328183D01*
X294356Y328246D01*
X294345Y328273D01*
X294337Y328297D01*
X294326Y328319D01*
X294318Y328338D01*
X294310Y328355D01*
X294304Y328366D01*
X294299Y328371D01*
Y328374D01*
X294274Y328409D01*
X294250Y328442D01*
X294192Y328502D01*
X294135Y328551D01*
X294075Y328592D01*
X294023Y328622D01*
X294001Y328636D01*
X293979Y328647D01*
X293963Y328652D01*
X293952Y328658D01*
X293944Y328663D01*
X293941D01*
X293848Y328693D01*
X293753Y328718D01*
X293657Y328734D01*
X293614Y328740D01*
X293570Y328745D01*
X293529Y328748D01*
X293493Y328751D01*
X293461Y328753D01*
X293433D01*
X293409Y328756D01*
X293392D01*
X293381D01*
X293379D01*
X293286Y328753D01*
X293198Y328745D01*
X293117Y328731D01*
X293078Y328726D01*
X293043Y328718D01*
X293013Y328710D01*
X292983Y328704D01*
X292958Y328696D01*
X292936Y328691D01*
X292920Y328688D01*
X292906Y328682D01*
X292898Y328680D01*
X292896D01*
X292811Y328644D01*
X292737Y328603D01*
X292674Y328559D01*
X292647Y328535D01*
X292620Y328513D01*
X292598Y328491D01*
X292579Y328472D01*
X292560Y328453D01*
X292546Y328439D01*
X292535Y328426D01*
X292527Y328415D01*
X292524Y328409D01*
X292522Y328407D01*
X292497Y328368D01*
X292475Y328330D01*
X292456Y328289D01*
X292440Y328248D01*
X292415Y328166D01*
X292396Y328087D01*
X292390Y328054D01*
X292388Y328022D01*
X292385Y327992D01*
X292382Y327967D01*
X292379Y327945D01*
Y327871D01*
X292385Y327828D01*
X292399Y327746D01*
X292421Y327675D01*
X292431Y327645D01*
X292442Y327615D01*
X292453Y327588D01*
X292464Y327566D01*
X292475Y327547D01*
X292486Y327530D01*
X292494Y327517D01*
X292500Y327508D01*
X292502Y327503D01*
X292505Y327500D01*
X292530Y327470D01*
X292557Y327440D01*
X292620Y327391D01*
X292688Y327345D01*
X292754Y327309D01*
X292814Y327282D01*
X292838Y327268D01*
X292860Y327260D01*
X292879Y327252D01*
X292896Y327249D01*
X292904Y327244D01*
X292906D01*
X292830Y326916D01*
X292767Y326938D01*
X292707Y326962D01*
X292650Y326987D01*
X292598Y327017D01*
X292549Y327044D01*
X292505Y327074D01*
X292464Y327104D01*
X292429Y327134D01*
X292396Y327165D01*
X292369Y327189D01*
X292344Y327214D01*
X292325Y327235D01*
X292309Y327252D01*
X292298Y327266D01*
X292292Y327274D01*
X292289Y327276D01*
X292254Y327326D01*
X292227Y327377D01*
X292199Y327429D01*
X292178Y327484D01*
X292158Y327538D01*
X292142Y327590D01*
X292131Y327642D01*
X292120Y327691D01*
X292112Y327738D01*
X292107Y327779D01*
X292101Y327817D01*
X292098Y327850D01*
X292096Y327877D01*
Y327912D01*
X292098Y327975D01*
X292101Y328035D01*
X292120Y328147D01*
X292131Y328202D01*
X292145Y328251D01*
X292158Y328300D01*
X292172Y328344D01*
X292186Y328382D01*
X292199Y328417D01*
X292213Y328450D01*
X292224Y328475D01*
X292235Y328497D01*
X292243Y328510D01*
X292246Y328521D01*
X292249Y328524D01*
X292279Y328573D01*
X292311Y328622D01*
X292347Y328666D01*
X292382Y328707D01*
X292421Y328745D01*
X292456Y328781D01*
X292494Y328811D01*
X292527Y328841D01*
X292562Y328865D01*
X292593Y328887D01*
X292620Y328906D01*
X292644Y328923D01*
X292666Y328934D01*
X292680Y328942D01*
X292691Y328947D01*
X292693Y328950D01*
X292748Y328977D01*
X292808Y328999D01*
X292865Y329018D01*
X292923Y329037D01*
X293040Y329065D01*
X293095Y329073D01*
X293147Y329081D01*
X293196Y329086D01*
X293239Y329092D01*
X293280Y329095D01*
X293316Y329097D01*
X293343Y329100D01*
X293365D01*
X293376D01*
X293381D01*
X293447Y329097D01*
D02*
G37*
G36*
X293040Y326296D02*
X293016Y326239D01*
X292988Y326184D01*
X292964Y326135D01*
X292939Y326092D01*
X292931Y326073D01*
X292920Y326056D01*
X292915Y326042D01*
X292909Y326034D01*
X292904Y326029D01*
Y326026D01*
X292863Y325960D01*
X292825Y325903D01*
X292789Y325851D01*
X292756Y325810D01*
X292729Y325775D01*
X292710Y325750D01*
X292696Y325737D01*
X292691Y325731D01*
X294659D01*
Y325423D01*
X292131D01*
Y325622D01*
X292194Y325658D01*
X292254Y325698D01*
X292311Y325745D01*
X292360Y325791D01*
X292407Y325832D01*
X292423Y325851D01*
X292440Y325865D01*
X292453Y325879D01*
X292461Y325890D01*
X292467Y325895D01*
X292470Y325898D01*
X292532Y325972D01*
X292587Y326051D01*
X292639Y326127D01*
X292683Y326198D01*
X292699Y326228D01*
X292715Y326258D01*
X292732Y326285D01*
X292743Y326307D01*
X292751Y326326D01*
X292759Y326340D01*
X292762Y326348D01*
X292764Y326351D01*
X293062D01*
X293040Y326296D01*
D02*
G37*
G36*
X294659Y323004D02*
X294361D01*
Y324246D01*
X294302Y324202D01*
X294274Y324181D01*
X294250Y324159D01*
X294228Y324140D01*
X294211Y324126D01*
X294200Y324115D01*
X294198Y324112D01*
X294181Y324096D01*
X294160Y324074D01*
X294138Y324049D01*
X294113Y324022D01*
X294058Y323965D01*
X294007Y323905D01*
X293957Y323848D01*
X293936Y323823D01*
X293917Y323798D01*
X293900Y323782D01*
X293889Y323766D01*
X293881Y323757D01*
X293878Y323755D01*
X293826Y323695D01*
X293777Y323637D01*
X293734Y323585D01*
X293690Y323539D01*
X293652Y323495D01*
X293614Y323457D01*
X293581Y323422D01*
X293551Y323389D01*
X293526Y323362D01*
X293502Y323340D01*
X293482Y323321D01*
X293466Y323304D01*
X293452Y323293D01*
X293444Y323282D01*
X293439Y323280D01*
X293436Y323277D01*
X293376Y323225D01*
X293321Y323184D01*
X293269Y323149D01*
X293223Y323119D01*
X293185Y323097D01*
X293155Y323080D01*
X293144Y323075D01*
X293136Y323072D01*
X293133Y323070D01*
X293130D01*
X293076Y323048D01*
X293021Y323034D01*
X292972Y323023D01*
X292926Y323015D01*
X292887Y323009D01*
X292857Y323007D01*
X292846D01*
X292838D01*
X292835D01*
X292833D01*
X292778Y323009D01*
X292726Y323015D01*
X292677Y323026D01*
X292628Y323039D01*
X292584Y323056D01*
X292543Y323075D01*
X292505Y323094D01*
X292472Y323113D01*
X292440Y323132D01*
X292412Y323151D01*
X292388Y323170D01*
X292369Y323187D01*
X292355Y323200D01*
X292341Y323211D01*
X292336Y323217D01*
X292333Y323220D01*
X292298Y323261D01*
X292268Y323304D01*
X292240Y323351D01*
X292216Y323400D01*
X292197Y323446D01*
X292180Y323495D01*
X292167Y323542D01*
X292156Y323588D01*
X292147Y323629D01*
X292142Y323670D01*
X292137Y323706D01*
X292134Y323736D01*
X292131Y323760D01*
Y323796D01*
X292134Y323861D01*
X292139Y323924D01*
X292147Y323981D01*
X292161Y324036D01*
X292175Y324088D01*
X292191Y324134D01*
X292208Y324178D01*
X292224Y324216D01*
X292243Y324252D01*
X292259Y324282D01*
X292276Y324309D01*
X292289Y324331D01*
X292303Y324347D01*
X292311Y324358D01*
X292317Y324366D01*
X292319Y324369D01*
X292355Y324407D01*
X292396Y324440D01*
X292437Y324470D01*
X292483Y324497D01*
X292527Y324519D01*
X292571Y324541D01*
X292617Y324557D01*
X292658Y324571D01*
X292699Y324585D01*
X292737Y324593D01*
X292773Y324601D01*
X292803Y324606D01*
X292827Y324609D01*
X292844Y324612D01*
X292855Y324615D01*
X292860D01*
X292893Y324298D01*
X292849Y324295D01*
X292808Y324292D01*
X292737Y324276D01*
X292672Y324254D01*
X292644Y324243D01*
X292620Y324230D01*
X292598Y324219D01*
X292579Y324205D01*
X292562Y324194D01*
X292549Y324186D01*
X292538Y324175D01*
X292530Y324170D01*
X292527Y324167D01*
X292524Y324164D01*
X292500Y324137D01*
X292478Y324110D01*
X292461Y324080D01*
X292445Y324049D01*
X292421Y323990D01*
X292404Y323932D01*
X292396Y323883D01*
X292390Y323861D01*
Y323842D01*
X292388Y323826D01*
Y323766D01*
X292393Y323727D01*
X292407Y323659D01*
X292429Y323602D01*
X292450Y323550D01*
X292475Y323512D01*
X292486Y323495D01*
X292497Y323482D01*
X292505Y323471D01*
X292511Y323463D01*
X292513Y323460D01*
X292516Y323457D01*
X292541Y323433D01*
X292565Y323413D01*
X292590Y323394D01*
X292617Y323381D01*
X292669Y323356D01*
X292718Y323340D01*
X292759Y323332D01*
X292778Y323326D01*
X292794D01*
X292805Y323323D01*
X292816D01*
X292822D01*
X292825D01*
X292857Y323326D01*
X292890Y323329D01*
X292956Y323345D01*
X293018Y323370D01*
X293076Y323397D01*
X293125Y323424D01*
X293144Y323435D01*
X293163Y323449D01*
X293177Y323457D01*
X293188Y323465D01*
X293193Y323468D01*
X293196Y323471D01*
X293234Y323501D01*
X293275Y323536D01*
X293319Y323577D01*
X293362Y323621D01*
X293452Y323711D01*
X293537Y323804D01*
X293578Y323848D01*
X293614Y323891D01*
X293646Y323929D01*
X293674Y323962D01*
X293698Y323990D01*
X293714Y324009D01*
X293728Y324022D01*
X293731Y324028D01*
X293772Y324077D01*
X293810Y324120D01*
X293846Y324164D01*
X293881Y324202D01*
X293914Y324241D01*
X293947Y324273D01*
X293974Y324303D01*
X294001Y324331D01*
X294026Y324355D01*
X294048Y324374D01*
X294067Y324394D01*
X294080Y324407D01*
X294094Y324421D01*
X294102Y324429D01*
X294108Y324432D01*
X294110Y324434D01*
X294170Y324484D01*
X294231Y324525D01*
X294288Y324560D01*
X294340Y324587D01*
X294383Y324609D01*
X294403Y324617D01*
X294416Y324626D01*
X294430Y324631D01*
X294438Y324634D01*
X294443Y324637D01*
X294446D01*
X294484Y324650D01*
X294523Y324658D01*
X294558Y324667D01*
X294591Y324669D01*
X294618Y324672D01*
X294640D01*
X294654D01*
X294659D01*
Y323004D01*
D02*
G37*
G36*
X226219Y291466D02*
X226281Y291461D01*
X226339Y291453D01*
X226393Y291439D01*
X226445Y291425D01*
X226492Y291409D01*
X226535Y291392D01*
X226573Y291376D01*
X226609Y291357D01*
X226639Y291341D01*
X226666Y291324D01*
X226688Y291311D01*
X226705Y291297D01*
X226715Y291289D01*
X226724Y291283D01*
X226726Y291281D01*
X226765Y291245D01*
X226797Y291204D01*
X226827Y291163D01*
X226855Y291117D01*
X226876Y291073D01*
X226898Y291029D01*
X226915Y290983D01*
X226928Y290942D01*
X226942Y290901D01*
X226950Y290863D01*
X226958Y290827D01*
X226964Y290797D01*
X226967Y290773D01*
X226969Y290756D01*
X226972Y290745D01*
Y290740D01*
X226655Y290707D01*
X226653Y290751D01*
X226650Y290792D01*
X226634Y290863D01*
X226612Y290928D01*
X226601Y290956D01*
X226587Y290980D01*
X226576Y291002D01*
X226563Y291021D01*
X226552Y291038D01*
X226543Y291051D01*
X226533Y291062D01*
X226527Y291070D01*
X226524Y291073D01*
X226522Y291076D01*
X226494Y291100D01*
X226467Y291122D01*
X226437Y291139D01*
X226407Y291155D01*
X226347Y291179D01*
X226290Y291196D01*
X226240Y291204D01*
X226219Y291210D01*
X226200D01*
X226183Y291212D01*
X226123D01*
X226085Y291207D01*
X226017Y291193D01*
X225959Y291171D01*
X225907Y291149D01*
X225869Y291125D01*
X225853Y291114D01*
X225839Y291103D01*
X225828Y291095D01*
X225820Y291089D01*
X225817Y291087D01*
X225815Y291084D01*
X225790Y291059D01*
X225771Y291035D01*
X225752Y291010D01*
X225738Y290983D01*
X225713Y290931D01*
X225697Y290882D01*
X225689Y290841D01*
X225683Y290822D01*
Y290806D01*
X225681Y290795D01*
Y290784D01*
Y290778D01*
Y290775D01*
X225683Y290743D01*
X225686Y290710D01*
X225703Y290644D01*
X225727Y290582D01*
X225754Y290524D01*
X225782Y290475D01*
X225793Y290456D01*
X225806Y290437D01*
X225815Y290423D01*
X225823Y290412D01*
X225826Y290407D01*
X225828Y290404D01*
X225858Y290366D01*
X225894Y290325D01*
X225935Y290281D01*
X225978Y290238D01*
X226068Y290148D01*
X226161Y290063D01*
X226205Y290022D01*
X226249Y289986D01*
X226287Y289954D01*
X226320Y289926D01*
X226347Y289902D01*
X226366Y289885D01*
X226380Y289872D01*
X226385Y289869D01*
X226434Y289828D01*
X226478Y289790D01*
X226522Y289754D01*
X226560Y289719D01*
X226598Y289686D01*
X226631Y289653D01*
X226661Y289626D01*
X226688Y289599D01*
X226713Y289574D01*
X226732Y289552D01*
X226751Y289533D01*
X226765Y289520D01*
X226778Y289506D01*
X226786Y289498D01*
X226789Y289492D01*
X226792Y289490D01*
X226841Y289430D01*
X226882Y289370D01*
X226918Y289312D01*
X226945Y289260D01*
X226967Y289217D01*
X226975Y289197D01*
X226983Y289184D01*
X226989Y289170D01*
X226991Y289162D01*
X226994Y289157D01*
Y289154D01*
X227008Y289116D01*
X227016Y289077D01*
X227024Y289042D01*
X227027Y289009D01*
X227029Y288982D01*
Y288960D01*
Y288946D01*
Y288941D01*
X225361D01*
Y289239D01*
X226604D01*
X226560Y289299D01*
X226538Y289326D01*
X226516Y289350D01*
X226497Y289372D01*
X226483Y289389D01*
X226472Y289400D01*
X226470Y289402D01*
X226453Y289419D01*
X226431Y289440D01*
X226407Y289462D01*
X226380Y289487D01*
X226322Y289542D01*
X226262Y289593D01*
X226205Y289643D01*
X226180Y289664D01*
X226156Y289684D01*
X226139Y289700D01*
X226123Y289711D01*
X226115Y289719D01*
X226112Y289722D01*
X226052Y289774D01*
X225995Y289823D01*
X225943Y289866D01*
X225897Y289910D01*
X225853Y289948D01*
X225815Y289986D01*
X225779Y290019D01*
X225746Y290049D01*
X225719Y290074D01*
X225697Y290098D01*
X225678Y290118D01*
X225662Y290134D01*
X225651Y290148D01*
X225640Y290156D01*
X225637Y290161D01*
X225634Y290164D01*
X225583Y290224D01*
X225542Y290279D01*
X225506Y290331D01*
X225476Y290377D01*
X225454Y290415D01*
X225438Y290445D01*
X225432Y290456D01*
X225430Y290464D01*
X225427Y290467D01*
Y290470D01*
X225405Y290524D01*
X225391Y290579D01*
X225380Y290628D01*
X225372Y290674D01*
X225367Y290713D01*
X225364Y290743D01*
Y290754D01*
Y290762D01*
Y290764D01*
Y290767D01*
X225367Y290822D01*
X225372Y290874D01*
X225383Y290923D01*
X225397Y290972D01*
X225413Y291016D01*
X225432Y291057D01*
X225451Y291095D01*
X225471Y291128D01*
X225490Y291160D01*
X225509Y291188D01*
X225528Y291212D01*
X225544Y291231D01*
X225558Y291245D01*
X225569Y291259D01*
X225574Y291264D01*
X225577Y291267D01*
X225618Y291302D01*
X225662Y291332D01*
X225708Y291360D01*
X225757Y291384D01*
X225804Y291403D01*
X225853Y291420D01*
X225899Y291433D01*
X225946Y291444D01*
X225987Y291453D01*
X226027Y291458D01*
X226063Y291463D01*
X226093Y291466D01*
X226118Y291469D01*
X226153D01*
X226219Y291466D01*
D02*
G37*
G36*
X228375Y291502D02*
X228435Y291499D01*
X228547Y291480D01*
X228602Y291469D01*
X228651Y291455D01*
X228700Y291442D01*
X228744Y291428D01*
X228782Y291414D01*
X228818Y291401D01*
X228850Y291387D01*
X228875Y291376D01*
X228897Y291365D01*
X228910Y291357D01*
X228921Y291354D01*
X228924Y291352D01*
X228973Y291321D01*
X229022Y291289D01*
X229066Y291253D01*
X229107Y291218D01*
X229145Y291179D01*
X229181Y291144D01*
X229211Y291106D01*
X229241Y291073D01*
X229265Y291038D01*
X229287Y291007D01*
X229306Y290980D01*
X229323Y290956D01*
X229333Y290934D01*
X229342Y290920D01*
X229347Y290909D01*
X229350Y290907D01*
X229377Y290852D01*
X229399Y290792D01*
X229418Y290735D01*
X229437Y290677D01*
X229465Y290560D01*
X229473Y290505D01*
X229481Y290453D01*
X229486Y290404D01*
X229492Y290360D01*
X229495Y290319D01*
X229497Y290284D01*
X229500Y290257D01*
Y290235D01*
Y290224D01*
Y290218D01*
X229497Y290153D01*
X229495Y290088D01*
X229478Y289962D01*
X229470Y289902D01*
X229459Y289847D01*
X229445Y289795D01*
X229434Y289746D01*
X229421Y289703D01*
X229410Y289662D01*
X229399Y289629D01*
X229388Y289599D01*
X229380Y289577D01*
X229375Y289558D01*
X229372Y289547D01*
X229369Y289544D01*
X229342Y289487D01*
X229314Y289432D01*
X229284Y289383D01*
X229252Y289337D01*
X229219Y289293D01*
X229189Y289255D01*
X229156Y289219D01*
X229126Y289187D01*
X229096Y289157D01*
X229069Y289132D01*
X229044Y289113D01*
X229022Y289094D01*
X229006Y289080D01*
X228992Y289072D01*
X228984Y289067D01*
X228981Y289064D01*
X228932Y289034D01*
X228880Y289009D01*
X228826Y288987D01*
X228768Y288968D01*
X228714Y288955D01*
X228659Y288941D01*
X228605Y288930D01*
X228553Y288922D01*
X228504Y288914D01*
X228460Y288908D01*
X228419Y288905D01*
X228386Y288903D01*
X228356Y288900D01*
X228318D01*
X228244Y288903D01*
X228176Y288908D01*
X228111Y288919D01*
X228048Y288933D01*
X227988Y288949D01*
X227933Y288968D01*
X227884Y288987D01*
X227837Y289006D01*
X227794Y289025D01*
X227758Y289045D01*
X227726Y289064D01*
X227701Y289080D01*
X227679Y289094D01*
X227665Y289105D01*
X227655Y289110D01*
X227652Y289113D01*
X227603Y289157D01*
X227556Y289203D01*
X227515Y289252D01*
X227477Y289301D01*
X227442Y289353D01*
X227412Y289408D01*
X227384Y289457D01*
X227360Y289509D01*
X227338Y289555D01*
X227322Y289599D01*
X227305Y289640D01*
X227294Y289672D01*
X227283Y289703D01*
X227278Y289722D01*
X227272Y289735D01*
Y289741D01*
X227605Y289825D01*
X227619Y289768D01*
X227638Y289714D01*
X227657Y289662D01*
X227676Y289615D01*
X227698Y289571D01*
X227720Y289533D01*
X227742Y289498D01*
X227764Y289465D01*
X227786Y289438D01*
X227805Y289413D01*
X227824Y289391D01*
X227837Y289375D01*
X227851Y289361D01*
X227862Y289353D01*
X227868Y289348D01*
X227870Y289345D01*
X227908Y289318D01*
X227947Y289293D01*
X227985Y289271D01*
X228026Y289252D01*
X228067Y289236D01*
X228105Y289222D01*
X228182Y289203D01*
X228214Y289197D01*
X228247Y289192D01*
X228274Y289189D01*
X228299Y289187D01*
X228318Y289184D01*
X228345D01*
X228389Y289187D01*
X228430Y289189D01*
X228509Y289203D01*
X228583Y289222D01*
X228646Y289244D01*
X228673Y289255D01*
X228697Y289263D01*
X228719Y289274D01*
X228738Y289282D01*
X228755Y289290D01*
X228766Y289296D01*
X228771Y289301D01*
X228774D01*
X228809Y289326D01*
X228842Y289350D01*
X228902Y289408D01*
X228951Y289465D01*
X228992Y289525D01*
X229022Y289577D01*
X229036Y289599D01*
X229047Y289621D01*
X229052Y289637D01*
X229058Y289648D01*
X229063Y289656D01*
Y289659D01*
X229093Y289752D01*
X229118Y289847D01*
X229134Y289943D01*
X229140Y289986D01*
X229145Y290030D01*
X229148Y290071D01*
X229151Y290107D01*
X229153Y290139D01*
Y290167D01*
X229156Y290191D01*
Y290208D01*
Y290218D01*
Y290221D01*
X229153Y290314D01*
X229145Y290402D01*
X229132Y290483D01*
X229126Y290522D01*
X229118Y290557D01*
X229110Y290587D01*
X229104Y290617D01*
X229096Y290642D01*
X229090Y290664D01*
X229088Y290680D01*
X229082Y290694D01*
X229080Y290702D01*
Y290704D01*
X229044Y290789D01*
X229003Y290863D01*
X228959Y290926D01*
X228935Y290953D01*
X228913Y290980D01*
X228891Y291002D01*
X228872Y291021D01*
X228853Y291040D01*
X228839Y291054D01*
X228826Y291065D01*
X228815Y291073D01*
X228809Y291076D01*
X228807Y291078D01*
X228768Y291103D01*
X228730Y291125D01*
X228689Y291144D01*
X228648Y291160D01*
X228566Y291185D01*
X228487Y291204D01*
X228454Y291210D01*
X228422Y291212D01*
X228392Y291215D01*
X228367Y291218D01*
X228345Y291220D01*
X228272D01*
X228228Y291215D01*
X228146Y291201D01*
X228075Y291179D01*
X228045Y291169D01*
X228015Y291158D01*
X227988Y291147D01*
X227966Y291136D01*
X227947Y291125D01*
X227930Y291114D01*
X227917Y291106D01*
X227908Y291100D01*
X227903Y291098D01*
X227900Y291095D01*
X227870Y291070D01*
X227840Y291043D01*
X227791Y290980D01*
X227745Y290912D01*
X227709Y290846D01*
X227682Y290786D01*
X227668Y290762D01*
X227660Y290740D01*
X227652Y290721D01*
X227649Y290704D01*
X227644Y290696D01*
Y290694D01*
X227316Y290770D01*
X227338Y290833D01*
X227362Y290893D01*
X227387Y290950D01*
X227417Y291002D01*
X227444Y291051D01*
X227474Y291095D01*
X227504Y291136D01*
X227535Y291171D01*
X227565Y291204D01*
X227589Y291231D01*
X227614Y291256D01*
X227636Y291275D01*
X227652Y291291D01*
X227665Y291302D01*
X227674Y291308D01*
X227676Y291311D01*
X227726Y291346D01*
X227777Y291373D01*
X227829Y291401D01*
X227884Y291423D01*
X227939Y291442D01*
X227990Y291458D01*
X228042Y291469D01*
X228091Y291480D01*
X228138Y291488D01*
X228179Y291493D01*
X228217Y291499D01*
X228250Y291502D01*
X228277Y291504D01*
X228312D01*
X228375Y291502D01*
D02*
G37*
G36*
X252587Y306382D02*
X252524Y306347D01*
X252464Y306306D01*
X252407Y306260D01*
X252358Y306213D01*
X252311Y306172D01*
X252295Y306153D01*
X252278Y306139D01*
X252265Y306126D01*
X252256Y306115D01*
X252251Y306109D01*
X252248Y306107D01*
X252186Y306033D01*
X252131Y305954D01*
X252079Y305877D01*
X252035Y305806D01*
X252019Y305776D01*
X252003Y305746D01*
X251986Y305719D01*
X251975Y305697D01*
X251967Y305678D01*
X251959Y305664D01*
X251956Y305656D01*
X251954Y305654D01*
X251656D01*
X251678Y305708D01*
X251702Y305766D01*
X251730Y305820D01*
X251754Y305869D01*
X251779Y305913D01*
X251787Y305932D01*
X251798Y305948D01*
X251803Y305962D01*
X251809Y305970D01*
X251814Y305976D01*
Y305978D01*
X251855Y306044D01*
X251893Y306101D01*
X251929Y306153D01*
X251962Y306194D01*
X251989Y306230D01*
X252008Y306254D01*
X252022Y306268D01*
X252027Y306273D01*
X250059D01*
Y306582D01*
X252587D01*
Y306382D01*
D02*
G37*
G36*
X251454Y305078D02*
X251511Y305075D01*
X251566Y305067D01*
X251618Y305058D01*
X251667Y305050D01*
X251713Y305042D01*
X251757Y305034D01*
X251795Y305023D01*
X251828Y305015D01*
X251858Y305007D01*
X251883Y304998D01*
X251902Y304990D01*
X251918Y304987D01*
X251926Y304982D01*
X251929D01*
X252022Y304941D01*
X252106Y304895D01*
X252145Y304870D01*
X252180Y304845D01*
X252213Y304821D01*
X252243Y304796D01*
X252270Y304774D01*
X252292Y304753D01*
X252314Y304734D01*
X252330Y304717D01*
X252344Y304703D01*
X252352Y304693D01*
X252358Y304687D01*
X252360Y304684D01*
X252407Y304624D01*
X252445Y304562D01*
X252475Y304502D01*
X252500Y304444D01*
X252519Y304392D01*
X252524Y304370D01*
X252530Y304351D01*
X252535Y304338D01*
X252538Y304327D01*
X252540Y304319D01*
Y304316D01*
X252546Y304286D01*
X252554Y304253D01*
X252562Y304179D01*
X252571Y304106D01*
X252573Y304032D01*
X252576Y303999D01*
Y303966D01*
X252579Y303939D01*
Y303000D01*
X250059D01*
Y303909D01*
X250062Y303991D01*
X250064Y304067D01*
X250073Y304136D01*
X250081Y304196D01*
X250083Y304220D01*
X250086Y304242D01*
X250092Y304264D01*
X250094Y304280D01*
X250097Y304294D01*
Y304302D01*
X250100Y304308D01*
Y304310D01*
X250119Y304373D01*
X250138Y304433D01*
X250160Y304485D01*
X250179Y304529D01*
X250198Y304564D01*
X250212Y304592D01*
X250223Y304608D01*
X250225Y304611D01*
Y304613D01*
X250261Y304660D01*
X250296Y304703D01*
X250335Y304742D01*
X250373Y304774D01*
X250406Y304804D01*
X250430Y304824D01*
X250441Y304832D01*
X250449Y304837D01*
X250452Y304843D01*
X250455D01*
X250512Y304881D01*
X250572Y304914D01*
X250635Y304944D01*
X250692Y304968D01*
X250744Y304987D01*
X250766Y304996D01*
X250785Y305004D01*
X250799Y305007D01*
X250810Y305012D01*
X250818Y305015D01*
X250821D01*
X250908Y305037D01*
X250995Y305053D01*
X251080Y305067D01*
X251159Y305075D01*
X251195Y305078D01*
X251227Y305080D01*
X251257D01*
X251282Y305083D01*
X251304D01*
X251317D01*
X251328D01*
X251331D01*
X251454Y305078D01*
D02*
G37*
G36*
X224374Y312557D02*
X224453Y312543D01*
X224521Y312521D01*
X224551Y312510D01*
X224578Y312499D01*
X224606Y312489D01*
X224627Y312478D01*
X224647Y312467D01*
X224660Y312456D01*
X224674Y312448D01*
X224682Y312442D01*
X224688Y312439D01*
X224690Y312437D01*
X224748Y312387D01*
X224794Y312330D01*
X224830Y312273D01*
X224859Y312218D01*
X224881Y312166D01*
X224889Y312144D01*
X224895Y312128D01*
X224901Y312112D01*
X224903Y312101D01*
X224906Y312093D01*
Y312090D01*
X224939Y312150D01*
X224971Y312202D01*
X225007Y312248D01*
X225042Y312284D01*
X225072Y312314D01*
X225097Y312333D01*
X225113Y312347D01*
X225116Y312349D01*
X225119D01*
X225171Y312379D01*
X225223Y312401D01*
X225272Y312418D01*
X225318Y312428D01*
X225356Y312434D01*
X225389Y312439D01*
X225400D01*
X225408D01*
X225414D01*
X225416D01*
X225479Y312437D01*
X225539Y312426D01*
X225594Y312409D01*
X225643Y312393D01*
X225684Y312377D01*
X225700Y312368D01*
X225714Y312360D01*
X225725Y312355D01*
X225736Y312349D01*
X225739Y312347D01*
X225741D01*
X225796Y312308D01*
X225842Y312265D01*
X225883Y312221D01*
X225919Y312177D01*
X225946Y312139D01*
X225965Y312109D01*
X225973Y312095D01*
X225979Y312087D01*
X225981Y312082D01*
Y312079D01*
X226012Y312014D01*
X226033Y311948D01*
X226050Y311882D01*
X226061Y311825D01*
X226066Y311773D01*
X226069Y311754D01*
X226072Y311735D01*
Y311700D01*
X226069Y311645D01*
X226063Y311593D01*
X226055Y311544D01*
X226044Y311495D01*
X226031Y311451D01*
X226017Y311410D01*
X226001Y311372D01*
X225987Y311339D01*
X225971Y311306D01*
X225954Y311279D01*
X225941Y311257D01*
X225927Y311235D01*
X225916Y311222D01*
X225908Y311208D01*
X225902Y311203D01*
X225900Y311200D01*
X225867Y311164D01*
X225829Y311132D01*
X225790Y311102D01*
X225752Y311074D01*
X225711Y311050D01*
X225673Y311031D01*
X225594Y310995D01*
X225558Y310981D01*
X225526Y310971D01*
X225496Y310962D01*
X225471Y310954D01*
X225449Y310949D01*
X225433Y310946D01*
X225422Y310943D01*
X225419D01*
X225365Y311252D01*
X225444Y311268D01*
X225512Y311290D01*
X225572Y311315D01*
X225618Y311342D01*
X225657Y311364D01*
X225681Y311386D01*
X225698Y311399D01*
X225703Y311405D01*
X225741Y311454D01*
X225769Y311503D01*
X225790Y311555D01*
X225804Y311601D01*
X225812Y311645D01*
X225815Y311661D01*
Y311678D01*
X225818Y311691D01*
Y311708D01*
X225812Y311773D01*
X225801Y311831D01*
X225782Y311882D01*
X225763Y311926D01*
X225741Y311959D01*
X225722Y311983D01*
X225711Y312000D01*
X225706Y312005D01*
X225684Y312027D01*
X225662Y312043D01*
X225613Y312073D01*
X225567Y312095D01*
X225523Y312109D01*
X225482Y312117D01*
X225452Y312120D01*
X225438Y312123D01*
X225430D01*
X225425D01*
X225422D01*
X225384Y312120D01*
X225348Y312115D01*
X225313Y312109D01*
X225283Y312098D01*
X225228Y312071D01*
X225184Y312043D01*
X225149Y312014D01*
X225124Y311986D01*
X225116Y311975D01*
X225111Y311970D01*
X225105Y311964D01*
Y311962D01*
X225070Y311901D01*
X225045Y311839D01*
X225026Y311779D01*
X225015Y311724D01*
X225007Y311678D01*
X225004Y311659D01*
Y311639D01*
X225002Y311626D01*
Y311590D01*
X225004Y311574D01*
X225007Y311560D01*
Y311555D01*
X224737Y311522D01*
X224748Y311568D01*
X224756Y311612D01*
X224761Y311648D01*
X224767Y311680D01*
Y311705D01*
X224769Y311724D01*
Y311740D01*
X224767Y311779D01*
X224764Y311817D01*
X224748Y311885D01*
X224726Y311945D01*
X224701Y311997D01*
X224674Y312038D01*
X224663Y312054D01*
X224652Y312068D01*
X224644Y312079D01*
X224636Y312087D01*
X224633Y312090D01*
X224630Y312093D01*
X224603Y312117D01*
X224576Y312139D01*
X224548Y312158D01*
X224518Y312175D01*
X224461Y312199D01*
X224404Y312218D01*
X224354Y312226D01*
X224335Y312229D01*
X224316Y312232D01*
X224303Y312235D01*
X224289D01*
X224284D01*
X224281D01*
X224240Y312232D01*
X224202Y312229D01*
X224128Y312210D01*
X224065Y312188D01*
X224010Y312161D01*
X223986Y312144D01*
X223967Y312131D01*
X223948Y312120D01*
X223934Y312109D01*
X223923Y312098D01*
X223915Y312090D01*
X223909Y312087D01*
X223907Y312085D01*
X223879Y312054D01*
X223858Y312024D01*
X223838Y311994D01*
X223819Y311964D01*
X223792Y311901D01*
X223776Y311842D01*
X223765Y311792D01*
X223762Y311768D01*
X223759Y311751D01*
X223757Y311735D01*
Y311713D01*
X223762Y311648D01*
X223776Y311585D01*
X223792Y311533D01*
X223814Y311487D01*
X223836Y311448D01*
X223852Y311421D01*
X223860Y311413D01*
X223866Y311405D01*
X223871Y311402D01*
Y311399D01*
X223896Y311377D01*
X223920Y311355D01*
X223978Y311317D01*
X224041Y311287D01*
X224103Y311263D01*
X224161Y311244D01*
X224185Y311238D01*
X224207Y311233D01*
X224226Y311227D01*
X224240Y311225D01*
X224248Y311222D01*
X224251D01*
X224210Y310913D01*
X224152Y310922D01*
X224098Y310932D01*
X224046Y310949D01*
X223997Y310965D01*
X223950Y310984D01*
X223909Y311006D01*
X223868Y311028D01*
X223836Y311050D01*
X223803Y311072D01*
X223776Y311091D01*
X223751Y311110D01*
X223732Y311126D01*
X223716Y311143D01*
X223705Y311154D01*
X223699Y311159D01*
X223696Y311162D01*
X223661Y311203D01*
X223631Y311249D01*
X223606Y311293D01*
X223582Y311339D01*
X223563Y311386D01*
X223549Y311432D01*
X223535Y311476D01*
X223524Y311519D01*
X223516Y311560D01*
X223511Y311596D01*
X223505Y311629D01*
X223503Y311659D01*
Y311680D01*
X223500Y311700D01*
Y311713D01*
X223503Y311781D01*
X223511Y311844D01*
X223522Y311904D01*
X223535Y311962D01*
X223552Y312016D01*
X223571Y312065D01*
X223593Y312112D01*
X223615Y312153D01*
X223634Y312191D01*
X223656Y312224D01*
X223675Y312254D01*
X223691Y312276D01*
X223705Y312295D01*
X223716Y312308D01*
X223724Y312316D01*
X223727Y312319D01*
X223770Y312363D01*
X223817Y312398D01*
X223863Y312431D01*
X223912Y312458D01*
X223959Y312483D01*
X224005Y312502D01*
X224049Y312519D01*
X224092Y312532D01*
X224133Y312543D01*
X224169Y312548D01*
X224202Y312554D01*
X224232Y312560D01*
X224253D01*
X224273Y312562D01*
X224284D01*
X224286D01*
X224330D01*
X224374Y312557D01*
D02*
G37*
G36*
X226063Y310149D02*
X224608D01*
X224524Y310146D01*
X224445Y310143D01*
X224374Y310135D01*
X224308Y310124D01*
X224251Y310113D01*
X224199Y310100D01*
X224152Y310083D01*
X224112Y310070D01*
X224076Y310056D01*
X224046Y310040D01*
X224021Y310026D01*
X224002Y310015D01*
X223989Y310004D01*
X223978Y309999D01*
X223972Y309993D01*
X223970Y309991D01*
X223939Y309958D01*
X223915Y309922D01*
X223893Y309884D01*
X223874Y309843D01*
X223858Y309799D01*
X223844Y309756D01*
X223825Y309671D01*
X223817Y309630D01*
X223811Y309592D01*
X223808Y309557D01*
X223806Y309526D01*
X223803Y309502D01*
Y309466D01*
X223806Y309390D01*
X223817Y309319D01*
X223830Y309256D01*
X223844Y309202D01*
X223852Y309180D01*
X223860Y309161D01*
X223866Y309141D01*
X223871Y309128D01*
X223877Y309117D01*
X223882Y309109D01*
X223885Y309103D01*
Y309101D01*
X223920Y309049D01*
X223959Y309005D01*
X223997Y308969D01*
X224038Y308942D01*
X224071Y308920D01*
X224101Y308904D01*
X224112Y308898D01*
X224120Y308896D01*
X224122Y308893D01*
X224125D01*
X224155Y308882D01*
X224191Y308874D01*
X224267Y308858D01*
X224346Y308847D01*
X224425Y308841D01*
X224461Y308839D01*
X224496Y308836D01*
X224526D01*
X224554Y308833D01*
X224578D01*
X224595D01*
X224606D01*
X224608D01*
X226063D01*
Y308500D01*
X224608D01*
X224535D01*
X224466Y308505D01*
X224401Y308508D01*
X224341Y308516D01*
X224284Y308522D01*
X224232Y308530D01*
X224185Y308538D01*
X224142Y308549D01*
X224103Y308557D01*
X224071Y308565D01*
X224041Y308574D01*
X224019Y308582D01*
X224000Y308587D01*
X223986Y308593D01*
X223978Y308595D01*
X223975D01*
X223934Y308615D01*
X223893Y308636D01*
X223822Y308686D01*
X223762Y308737D01*
X223713Y308792D01*
X223691Y308817D01*
X223675Y308839D01*
X223658Y308860D01*
X223645Y308879D01*
X223637Y308893D01*
X223628Y308904D01*
X223625Y308912D01*
X223623Y308915D01*
X223601Y308959D01*
X223585Y309005D01*
X223555Y309101D01*
X223533Y309199D01*
X223519Y309292D01*
X223514Y309333D01*
X223508Y309374D01*
X223505Y309406D01*
Y309436D01*
X223503Y309461D01*
Y309496D01*
X223505Y309562D01*
X223508Y309625D01*
X223516Y309685D01*
X223524Y309742D01*
X223535Y309794D01*
X223546Y309843D01*
X223560Y309887D01*
X223574Y309925D01*
X223585Y309963D01*
X223598Y309993D01*
X223609Y310021D01*
X223620Y310042D01*
X223628Y310062D01*
X223637Y310072D01*
X223639Y310081D01*
X223642Y310083D01*
X223669Y310124D01*
X223696Y310162D01*
X223727Y310195D01*
X223757Y310228D01*
X223787Y310255D01*
X223819Y310283D01*
X223847Y310304D01*
X223877Y310324D01*
X223926Y310356D01*
X223948Y310367D01*
X223967Y310378D01*
X223983Y310386D01*
X223994Y310392D01*
X224002Y310395D01*
X224005D01*
X224049Y310411D01*
X224095Y310425D01*
X224193Y310447D01*
X224294Y310460D01*
X224390Y310471D01*
X224436Y310474D01*
X224477Y310476D01*
X224513Y310479D01*
X224546Y310482D01*
X224573D01*
X224592D01*
X224603D01*
X224608D01*
X226063D01*
Y310149D01*
D02*
G37*
G36*
X219756Y319495D02*
X219824Y319489D01*
X219889Y319478D01*
X219952Y319465D01*
X220012Y319448D01*
X220067Y319429D01*
X220116Y319410D01*
X220163Y319391D01*
X220206Y319372D01*
X220242Y319353D01*
X220274Y319334D01*
X220299Y319317D01*
X220321Y319303D01*
X220335Y319293D01*
X220345Y319287D01*
X220348Y319284D01*
X220397Y319241D01*
X220444Y319194D01*
X220485Y319145D01*
X220523Y319096D01*
X220558Y319044D01*
X220588Y318989D01*
X220616Y318940D01*
X220640Y318888D01*
X220662Y318842D01*
X220678Y318798D01*
X220695Y318758D01*
X220706Y318725D01*
X220717Y318695D01*
X220722Y318676D01*
X220728Y318662D01*
Y318656D01*
X220395Y318572D01*
X220381Y318629D01*
X220362Y318684D01*
X220343Y318736D01*
X220324Y318782D01*
X220302Y318826D01*
X220280Y318864D01*
X220258Y318899D01*
X220236Y318932D01*
X220214Y318959D01*
X220195Y318984D01*
X220176Y319006D01*
X220163Y319022D01*
X220149Y319036D01*
X220138Y319044D01*
X220132Y319050D01*
X220130Y319052D01*
X220092Y319080D01*
X220053Y319104D01*
X220015Y319126D01*
X219974Y319145D01*
X219933Y319162D01*
X219895Y319175D01*
X219819Y319194D01*
X219786Y319200D01*
X219753Y319205D01*
X219726Y319208D01*
X219701Y319211D01*
X219682Y319213D01*
X219655D01*
X219611Y319211D01*
X219570Y319208D01*
X219491Y319194D01*
X219417Y319175D01*
X219354Y319153D01*
X219327Y319142D01*
X219303Y319134D01*
X219281Y319123D01*
X219262Y319115D01*
X219245Y319107D01*
X219234Y319102D01*
X219229Y319096D01*
X219226D01*
X219191Y319071D01*
X219158Y319047D01*
X219098Y318989D01*
X219049Y318932D01*
X219008Y318872D01*
X218978Y318820D01*
X218964Y318798D01*
X218953Y318777D01*
X218948Y318760D01*
X218942Y318749D01*
X218937Y318741D01*
Y318738D01*
X218907Y318646D01*
X218882Y318550D01*
X218866Y318454D01*
X218860Y318411D01*
X218855Y318367D01*
X218852Y318326D01*
X218849Y318291D01*
X218847Y318258D01*
Y318231D01*
X218844Y318206D01*
Y318190D01*
Y318179D01*
Y318176D01*
X218847Y318083D01*
X218855Y317996D01*
X218868Y317914D01*
X218874Y317876D01*
X218882Y317840D01*
X218890Y317810D01*
X218896Y317780D01*
X218904Y317756D01*
X218910Y317734D01*
X218912Y317717D01*
X218918Y317704D01*
X218920Y317695D01*
Y317693D01*
X218956Y317608D01*
X218997Y317534D01*
X219040Y317472D01*
X219065Y317444D01*
X219087Y317417D01*
X219109Y317395D01*
X219128Y317376D01*
X219147Y317357D01*
X219161Y317343D01*
X219174Y317332D01*
X219185Y317324D01*
X219191Y317321D01*
X219193Y317319D01*
X219232Y317294D01*
X219270Y317272D01*
X219311Y317253D01*
X219352Y317237D01*
X219434Y317212D01*
X219513Y317193D01*
X219546Y317188D01*
X219578Y317185D01*
X219608Y317182D01*
X219633Y317179D01*
X219655Y317177D01*
X219728D01*
X219772Y317182D01*
X219854Y317196D01*
X219925Y317218D01*
X219955Y317229D01*
X219985Y317240D01*
X220012Y317250D01*
X220034Y317261D01*
X220053Y317272D01*
X220070Y317283D01*
X220083Y317291D01*
X220092Y317297D01*
X220097Y317300D01*
X220100Y317302D01*
X220130Y317327D01*
X220160Y317354D01*
X220209Y317417D01*
X220255Y317485D01*
X220291Y317551D01*
X220318Y317611D01*
X220332Y317635D01*
X220340Y317657D01*
X220348Y317676D01*
X220351Y317693D01*
X220356Y317701D01*
Y317704D01*
X220684Y317627D01*
X220662Y317565D01*
X220638Y317504D01*
X220613Y317447D01*
X220583Y317395D01*
X220556Y317346D01*
X220526Y317302D01*
X220496Y317261D01*
X220466Y317226D01*
X220436Y317193D01*
X220411Y317166D01*
X220386Y317141D01*
X220365Y317122D01*
X220348Y317106D01*
X220335Y317095D01*
X220326Y317089D01*
X220324Y317087D01*
X220274Y317051D01*
X220223Y317024D01*
X220171Y316997D01*
X220116Y316975D01*
X220061Y316956D01*
X220010Y316939D01*
X219958Y316928D01*
X219909Y316917D01*
X219862Y316909D01*
X219821Y316904D01*
X219783Y316898D01*
X219750Y316896D01*
X219723Y316893D01*
X219688D01*
X219625Y316896D01*
X219565Y316898D01*
X219453Y316917D01*
X219398Y316928D01*
X219349Y316942D01*
X219300Y316956D01*
X219256Y316969D01*
X219218Y316983D01*
X219182Y316997D01*
X219150Y317010D01*
X219125Y317021D01*
X219103Y317032D01*
X219090Y317040D01*
X219079Y317043D01*
X219076Y317046D01*
X219027Y317076D01*
X218978Y317109D01*
X218934Y317144D01*
X218893Y317179D01*
X218855Y317218D01*
X218819Y317253D01*
X218789Y317291D01*
X218759Y317324D01*
X218735Y317360D01*
X218713Y317390D01*
X218694Y317417D01*
X218677Y317442D01*
X218667Y317463D01*
X218658Y317477D01*
X218653Y317488D01*
X218650Y317491D01*
X218623Y317545D01*
X218601Y317605D01*
X218582Y317663D01*
X218563Y317720D01*
X218535Y317838D01*
X218527Y317892D01*
X218519Y317944D01*
X218514Y317993D01*
X218508Y318037D01*
X218505Y318078D01*
X218503Y318113D01*
X218500Y318141D01*
Y318162D01*
Y318173D01*
Y318179D01*
X218503Y318244D01*
X218505Y318310D01*
X218522Y318435D01*
X218530Y318495D01*
X218541Y318550D01*
X218555Y318602D01*
X218566Y318651D01*
X218579Y318695D01*
X218590Y318736D01*
X218601Y318768D01*
X218612Y318798D01*
X218620Y318820D01*
X218625Y318839D01*
X218628Y318850D01*
X218631Y318853D01*
X218658Y318910D01*
X218686Y318965D01*
X218716Y319014D01*
X218748Y319060D01*
X218781Y319104D01*
X218811Y319142D01*
X218844Y319178D01*
X218874Y319211D01*
X218904Y319241D01*
X218931Y319265D01*
X218956Y319284D01*
X218978Y319303D01*
X218994Y319317D01*
X219008Y319325D01*
X219016Y319331D01*
X219019Y319334D01*
X219068Y319363D01*
X219120Y319388D01*
X219174Y319410D01*
X219232Y319429D01*
X219286Y319443D01*
X219341Y319456D01*
X219395Y319467D01*
X219447Y319476D01*
X219496Y319484D01*
X219540Y319489D01*
X219581Y319492D01*
X219614Y319495D01*
X219644Y319497D01*
X219682D01*
X219756Y319495D01*
D02*
G37*
G36*
X221882Y319497D02*
X221945Y319489D01*
X222005Y319478D01*
X222063Y319465D01*
X222117Y319448D01*
X222166Y319429D01*
X222213Y319407D01*
X222254Y319385D01*
X222292Y319366D01*
X222325Y319344D01*
X222355Y319325D01*
X222377Y319309D01*
X222396Y319295D01*
X222409Y319284D01*
X222417Y319276D01*
X222420Y319273D01*
X222464Y319230D01*
X222499Y319183D01*
X222532Y319137D01*
X222559Y319088D01*
X222584Y319041D01*
X222603Y318995D01*
X222620Y318951D01*
X222633Y318908D01*
X222644Y318867D01*
X222650Y318831D01*
X222655Y318798D01*
X222660Y318768D01*
Y318747D01*
X222663Y318727D01*
Y318717D01*
Y318714D01*
Y318670D01*
X222658Y318626D01*
X222644Y318547D01*
X222622Y318479D01*
X222611Y318449D01*
X222600Y318422D01*
X222589Y318394D01*
X222579Y318373D01*
X222568Y318353D01*
X222557Y318340D01*
X222549Y318326D01*
X222543Y318318D01*
X222540Y318313D01*
X222538Y318310D01*
X222488Y318252D01*
X222431Y318206D01*
X222374Y318170D01*
X222319Y318141D01*
X222267Y318119D01*
X222246Y318110D01*
X222229Y318105D01*
X222213Y318099D01*
X222202Y318097D01*
X222194Y318094D01*
X222191D01*
X222251Y318061D01*
X222303Y318029D01*
X222349Y317993D01*
X222385Y317958D01*
X222415Y317928D01*
X222434Y317903D01*
X222447Y317887D01*
X222450Y317884D01*
Y317881D01*
X222480Y317829D01*
X222502Y317777D01*
X222518Y317728D01*
X222529Y317682D01*
X222535Y317644D01*
X222540Y317611D01*
Y317600D01*
Y317592D01*
Y317586D01*
Y317584D01*
X222538Y317521D01*
X222527Y317461D01*
X222510Y317406D01*
X222494Y317357D01*
X222478Y317316D01*
X222469Y317300D01*
X222461Y317286D01*
X222456Y317275D01*
X222450Y317264D01*
X222447Y317261D01*
Y317259D01*
X222409Y317204D01*
X222366Y317158D01*
X222322Y317117D01*
X222278Y317081D01*
X222240Y317054D01*
X222210Y317035D01*
X222196Y317027D01*
X222188Y317021D01*
X222183Y317019D01*
X222180D01*
X222114Y316988D01*
X222049Y316967D01*
X221983Y316950D01*
X221926Y316939D01*
X221874Y316934D01*
X221855Y316931D01*
X221836Y316928D01*
X221800D01*
X221746Y316931D01*
X221694Y316937D01*
X221645Y316945D01*
X221596Y316956D01*
X221552Y316969D01*
X221511Y316983D01*
X221473Y316999D01*
X221440Y317013D01*
X221407Y317029D01*
X221380Y317046D01*
X221358Y317059D01*
X221336Y317073D01*
X221323Y317084D01*
X221309Y317092D01*
X221304Y317098D01*
X221301Y317100D01*
X221266Y317133D01*
X221233Y317171D01*
X221203Y317210D01*
X221175Y317248D01*
X221151Y317289D01*
X221132Y317327D01*
X221096Y317406D01*
X221082Y317442D01*
X221072Y317474D01*
X221063Y317504D01*
X221055Y317529D01*
X221050Y317551D01*
X221047Y317567D01*
X221044Y317578D01*
Y317581D01*
X221353Y317635D01*
X221369Y317556D01*
X221391Y317488D01*
X221416Y317428D01*
X221443Y317382D01*
X221465Y317343D01*
X221487Y317319D01*
X221500Y317302D01*
X221506Y317297D01*
X221555Y317259D01*
X221604Y317231D01*
X221656Y317210D01*
X221702Y317196D01*
X221746Y317188D01*
X221762Y317185D01*
X221779D01*
X221792Y317182D01*
X221809D01*
X221874Y317188D01*
X221932Y317199D01*
X221983Y317218D01*
X222027Y317237D01*
X222060Y317259D01*
X222084Y317278D01*
X222101Y317289D01*
X222106Y317294D01*
X222128Y317316D01*
X222145Y317338D01*
X222175Y317387D01*
X222196Y317433D01*
X222210Y317477D01*
X222218Y317518D01*
X222221Y317548D01*
X222224Y317562D01*
Y317570D01*
Y317575D01*
Y317578D01*
X222221Y317616D01*
X222216Y317652D01*
X222210Y317687D01*
X222199Y317717D01*
X222172Y317772D01*
X222145Y317816D01*
X222114Y317851D01*
X222087Y317876D01*
X222076Y317884D01*
X222071Y317889D01*
X222065Y317895D01*
X222063D01*
X222003Y317930D01*
X221940Y317955D01*
X221880Y317974D01*
X221825Y317985D01*
X221779Y317993D01*
X221760Y317996D01*
X221741D01*
X221727Y317999D01*
X221691D01*
X221675Y317996D01*
X221661Y317993D01*
X221656D01*
X221623Y318263D01*
X221670Y318252D01*
X221713Y318244D01*
X221749Y318239D01*
X221781Y318233D01*
X221806D01*
X221825Y318231D01*
X221842D01*
X221880Y318233D01*
X221918Y318236D01*
X221986Y318252D01*
X222046Y318274D01*
X222098Y318299D01*
X222139Y318326D01*
X222155Y318337D01*
X222169Y318348D01*
X222180Y318356D01*
X222188Y318364D01*
X222191Y318367D01*
X222194Y318370D01*
X222218Y318397D01*
X222240Y318424D01*
X222259Y318452D01*
X222276Y318482D01*
X222300Y318539D01*
X222319Y318596D01*
X222327Y318646D01*
X222330Y318665D01*
X222333Y318684D01*
X222336Y318697D01*
Y318711D01*
Y318717D01*
Y318719D01*
X222333Y318760D01*
X222330Y318798D01*
X222311Y318872D01*
X222289Y318935D01*
X222262Y318989D01*
X222246Y319014D01*
X222232Y319033D01*
X222221Y319052D01*
X222210Y319066D01*
X222199Y319077D01*
X222191Y319085D01*
X222188Y319091D01*
X222185Y319093D01*
X222155Y319121D01*
X222125Y319142D01*
X222095Y319162D01*
X222065Y319181D01*
X222003Y319208D01*
X221942Y319224D01*
X221893Y319235D01*
X221869Y319238D01*
X221852Y319241D01*
X221836Y319243D01*
X221814D01*
X221749Y319238D01*
X221686Y319224D01*
X221634Y319208D01*
X221588Y319186D01*
X221549Y319164D01*
X221522Y319148D01*
X221514Y319140D01*
X221506Y319134D01*
X221503Y319129D01*
X221500D01*
X221478Y319104D01*
X221457Y319080D01*
X221418Y319022D01*
X221388Y318959D01*
X221364Y318897D01*
X221345Y318839D01*
X221339Y318815D01*
X221334Y318793D01*
X221328Y318774D01*
X221325Y318760D01*
X221323Y318752D01*
Y318749D01*
X221014Y318790D01*
X221023Y318848D01*
X221033Y318902D01*
X221050Y318954D01*
X221066Y319003D01*
X221085Y319050D01*
X221107Y319091D01*
X221129Y319131D01*
X221151Y319164D01*
X221173Y319197D01*
X221192Y319224D01*
X221211Y319249D01*
X221227Y319268D01*
X221244Y319284D01*
X221254Y319295D01*
X221260Y319301D01*
X221263Y319303D01*
X221304Y319339D01*
X221350Y319369D01*
X221394Y319394D01*
X221440Y319418D01*
X221487Y319437D01*
X221533Y319451D01*
X221577Y319465D01*
X221620Y319476D01*
X221661Y319484D01*
X221697Y319489D01*
X221730Y319495D01*
X221760Y319497D01*
X221781D01*
X221800Y319500D01*
X221814D01*
X221882Y319497D01*
D02*
G37*
G36*
X224557Y322006D02*
X224599Y321946D01*
X224645Y321889D01*
X224691Y321840D01*
X224732Y321793D01*
X224751Y321777D01*
X224765Y321760D01*
X224779Y321747D01*
X224790Y321739D01*
X224795Y321733D01*
X224798Y321730D01*
X224871Y321668D01*
X224951Y321613D01*
X225027Y321561D01*
X225098Y321517D01*
X225128Y321501D01*
X225158Y321485D01*
X225185Y321468D01*
X225207Y321457D01*
X225226Y321449D01*
X225240Y321441D01*
X225248Y321438D01*
X225251Y321435D01*
Y321138D01*
X225196Y321160D01*
X225139Y321184D01*
X225084Y321212D01*
X225035Y321236D01*
X224992Y321261D01*
X224973Y321269D01*
X224956Y321280D01*
X224942Y321285D01*
X224934Y321291D01*
X224929Y321296D01*
X224926D01*
X224861Y321337D01*
X224803Y321375D01*
X224751Y321411D01*
X224710Y321444D01*
X224675Y321471D01*
X224650Y321490D01*
X224637Y321504D01*
X224631Y321509D01*
Y319541D01*
X224323D01*
Y322069D01*
X224522D01*
X224557Y322006D01*
D02*
G37*
G36*
X222712Y322066D02*
X222780Y322055D01*
X222846Y322042D01*
X222906Y322023D01*
X222963Y322001D01*
X223015Y321976D01*
X223064Y321952D01*
X223108Y321924D01*
X223146Y321897D01*
X223179Y321872D01*
X223209Y321848D01*
X223231Y321826D01*
X223250Y321807D01*
X223264Y321793D01*
X223272Y321782D01*
X223274Y321779D01*
X223321Y321714D01*
X223364Y321640D01*
X223400Y321558D01*
X223430Y321474D01*
X223457Y321386D01*
X223479Y321299D01*
X223496Y321212D01*
X223512Y321124D01*
X223523Y321042D01*
X223531Y320966D01*
X223536Y320898D01*
X223539Y320838D01*
X223542Y320810D01*
Y320789D01*
X223545Y320767D01*
Y320750D01*
Y320737D01*
Y320726D01*
Y320720D01*
Y320718D01*
X223542Y320600D01*
X223534Y320491D01*
X223523Y320390D01*
X223506Y320297D01*
X223487Y320213D01*
X223468Y320136D01*
X223446Y320068D01*
X223422Y320008D01*
X223400Y319953D01*
X223378Y319907D01*
X223359Y319868D01*
X223340Y319839D01*
X223324Y319814D01*
X223313Y319797D01*
X223304Y319787D01*
X223302Y319784D01*
X223255Y319735D01*
X223203Y319691D01*
X223154Y319653D01*
X223100Y319620D01*
X223048Y319593D01*
X222996Y319568D01*
X222944Y319552D01*
X222895Y319535D01*
X222849Y319525D01*
X222808Y319516D01*
X222769Y319508D01*
X222737Y319505D01*
X222709Y319503D01*
X222688Y319500D01*
X222671D01*
X222589Y319505D01*
X222513Y319516D01*
X222442Y319533D01*
X222382Y319555D01*
X222357Y319563D01*
X222333Y319574D01*
X222313Y319582D01*
X222297Y319590D01*
X222283Y319596D01*
X222272Y319601D01*
X222267Y319606D01*
X222264D01*
X222201Y319650D01*
X222144Y319702D01*
X222095Y319754D01*
X222057Y319803D01*
X222024Y319849D01*
X222013Y319868D01*
X222002Y319885D01*
X221994Y319899D01*
X221989Y319910D01*
X221983Y319915D01*
Y319918D01*
X221948Y319997D01*
X221923Y320073D01*
X221904Y320147D01*
X221893Y320215D01*
X221888Y320245D01*
X221885Y320275D01*
X221882Y320300D01*
Y320319D01*
X221879Y320338D01*
Y320349D01*
Y320357D01*
Y320360D01*
X221882Y320425D01*
X221888Y320488D01*
X221899Y320548D01*
X221912Y320603D01*
X221931Y320655D01*
X221948Y320704D01*
X221970Y320748D01*
X221989Y320789D01*
X222008Y320824D01*
X222029Y320857D01*
X222046Y320884D01*
X222062Y320906D01*
X222079Y320925D01*
X222090Y320936D01*
X222095Y320944D01*
X222098Y320947D01*
X222139Y320988D01*
X222182Y321023D01*
X222226Y321053D01*
X222272Y321081D01*
X222316Y321102D01*
X222360Y321122D01*
X222404Y321135D01*
X222442Y321149D01*
X222480Y321157D01*
X222516Y321165D01*
X222546Y321168D01*
X222573Y321173D01*
X222595D01*
X222611Y321176D01*
X222625D01*
X222690Y321173D01*
X222753Y321163D01*
X222810Y321149D01*
X222862Y321135D01*
X222906Y321119D01*
X222922Y321111D01*
X222939Y321105D01*
X222950Y321100D01*
X222958Y321094D01*
X222963Y321092D01*
X222966D01*
X223023Y321056D01*
X223075Y321018D01*
X223122Y320977D01*
X223163Y320936D01*
X223193Y320898D01*
X223217Y320868D01*
X223225Y320857D01*
X223231Y320849D01*
X223236Y320843D01*
X223236Y320840D01*
Y320843D01*
X223236Y320843D01*
X223234Y320909D01*
X223231Y320974D01*
X223228Y321034D01*
X223223Y321089D01*
X223214Y321141D01*
X223206Y321190D01*
X223201Y321234D01*
X223193Y321272D01*
X223184Y321304D01*
X223176Y321335D01*
X223168Y321362D01*
X223163Y321381D01*
X223157Y321397D01*
X223152Y321411D01*
X223149Y321416D01*
Y321419D01*
X223113Y321490D01*
X223078Y321553D01*
X223040Y321607D01*
X223001Y321651D01*
X222969Y321687D01*
X222944Y321711D01*
X222933Y321719D01*
X222925Y321725D01*
X222922Y321730D01*
X222920D01*
X222876Y321758D01*
X222832Y321779D01*
X222789Y321793D01*
X222747Y321804D01*
X222712Y321810D01*
X222682Y321815D01*
X222657D01*
X222625Y321812D01*
X222592Y321810D01*
X222532Y321793D01*
X222477Y321774D01*
X222434Y321749D01*
X222395Y321725D01*
X222368Y321703D01*
X222360Y321695D01*
X222352Y321687D01*
X222349Y321684D01*
X222346Y321681D01*
X222319Y321646D01*
X222297Y321605D01*
X222275Y321561D01*
X222259Y321517D01*
X222245Y321479D01*
X222237Y321446D01*
X222234Y321433D01*
X222232Y321425D01*
X222229Y321419D01*
Y321416D01*
X221920Y321441D01*
X221929Y321496D01*
X221942Y321545D01*
X221956Y321591D01*
X221972Y321635D01*
X221991Y321676D01*
X222010Y321714D01*
X222029Y321749D01*
X222049Y321779D01*
X222068Y321807D01*
X222087Y321831D01*
X222103Y321853D01*
X222120Y321870D01*
X222130Y321883D01*
X222142Y321891D01*
X222147Y321897D01*
X222150Y321900D01*
X222188Y321930D01*
X222226Y321954D01*
X222264Y321979D01*
X222305Y321998D01*
X222349Y322014D01*
X222387Y322028D01*
X222466Y322047D01*
X222502Y322055D01*
X222535Y322061D01*
X222565Y322063D01*
X222589Y322066D01*
X222608Y322069D01*
X222638D01*
X222712Y322066D01*
D02*
G37*
G36*
X226875Y322102D02*
X226935Y322099D01*
X227047Y322080D01*
X227102Y322069D01*
X227151Y322055D01*
X227200Y322042D01*
X227244Y322028D01*
X227282Y322014D01*
X227318Y322001D01*
X227350Y321987D01*
X227375Y321976D01*
X227397Y321965D01*
X227410Y321957D01*
X227421Y321954D01*
X227424Y321952D01*
X227473Y321921D01*
X227522Y321889D01*
X227566Y321853D01*
X227607Y321818D01*
X227645Y321779D01*
X227681Y321744D01*
X227711Y321706D01*
X227741Y321673D01*
X227765Y321638D01*
X227787Y321607D01*
X227806Y321580D01*
X227823Y321556D01*
X227834Y321534D01*
X227842Y321520D01*
X227847Y321509D01*
X227850Y321507D01*
X227877Y321452D01*
X227899Y321392D01*
X227918Y321335D01*
X227937Y321277D01*
X227965Y321160D01*
X227973Y321105D01*
X227981Y321053D01*
X227986Y321004D01*
X227992Y320960D01*
X227995Y320919D01*
X227997Y320884D01*
X228000Y320857D01*
Y320835D01*
Y320824D01*
Y320818D01*
X227997Y320753D01*
X227995Y320688D01*
X227978Y320562D01*
X227970Y320502D01*
X227959Y320447D01*
X227945Y320395D01*
X227935Y320346D01*
X227921Y320303D01*
X227910Y320262D01*
X227899Y320229D01*
X227888Y320199D01*
X227880Y320177D01*
X227874Y320158D01*
X227872Y320147D01*
X227869Y320144D01*
X227842Y320087D01*
X227814Y320032D01*
X227784Y319983D01*
X227752Y319937D01*
X227719Y319893D01*
X227689Y319855D01*
X227656Y319819D01*
X227626Y319787D01*
X227596Y319757D01*
X227569Y319732D01*
X227544Y319713D01*
X227522Y319694D01*
X227506Y319680D01*
X227492Y319672D01*
X227484Y319667D01*
X227481Y319664D01*
X227432Y319634D01*
X227380Y319609D01*
X227326Y319587D01*
X227268Y319568D01*
X227214Y319555D01*
X227159Y319541D01*
X227105Y319530D01*
X227053Y319522D01*
X227004Y319514D01*
X226960Y319508D01*
X226919Y319505D01*
X226886Y319503D01*
X226856Y319500D01*
X226818D01*
X226744Y319503D01*
X226676Y319508D01*
X226610Y319519D01*
X226548Y319533D01*
X226488Y319549D01*
X226433Y319568D01*
X226384Y319587D01*
X226338Y319606D01*
X226294Y319625D01*
X226258Y319645D01*
X226226Y319664D01*
X226201Y319680D01*
X226179Y319694D01*
X226166Y319705D01*
X226155Y319710D01*
X226152Y319713D01*
X226103Y319757D01*
X226056Y319803D01*
X226015Y319852D01*
X225977Y319901D01*
X225942Y319953D01*
X225912Y320008D01*
X225884Y320057D01*
X225860Y320109D01*
X225838Y320155D01*
X225821Y320199D01*
X225805Y320240D01*
X225794Y320272D01*
X225783Y320303D01*
X225778Y320322D01*
X225772Y320335D01*
Y320341D01*
X226105Y320425D01*
X226119Y320368D01*
X226138Y320314D01*
X226157Y320262D01*
X226176Y320215D01*
X226198Y320171D01*
X226220Y320133D01*
X226242Y320098D01*
X226264Y320065D01*
X226286Y320038D01*
X226305Y320013D01*
X226324Y319991D01*
X226338Y319975D01*
X226351Y319961D01*
X226362Y319953D01*
X226367Y319948D01*
X226370Y319945D01*
X226409Y319918D01*
X226447Y319893D01*
X226485Y319871D01*
X226526Y319852D01*
X226567Y319836D01*
X226605Y319822D01*
X226681Y319803D01*
X226714Y319797D01*
X226747Y319792D01*
X226774Y319789D01*
X226799Y319787D01*
X226818Y319784D01*
X226845D01*
X226889Y319787D01*
X226930Y319789D01*
X227009Y319803D01*
X227083Y319822D01*
X227146Y319844D01*
X227173Y319855D01*
X227197Y319863D01*
X227219Y319874D01*
X227238Y319882D01*
X227255Y319890D01*
X227266Y319896D01*
X227271Y319901D01*
X227274D01*
X227309Y319926D01*
X227342Y319950D01*
X227402Y320008D01*
X227451Y320065D01*
X227492Y320125D01*
X227522Y320177D01*
X227536Y320199D01*
X227547Y320221D01*
X227552Y320237D01*
X227558Y320248D01*
X227563Y320256D01*
Y320259D01*
X227593Y320352D01*
X227618Y320447D01*
X227634Y320543D01*
X227640Y320586D01*
X227645Y320630D01*
X227648Y320671D01*
X227651Y320707D01*
X227653Y320739D01*
Y320767D01*
X227656Y320791D01*
Y320808D01*
Y320818D01*
Y320821D01*
X227653Y320914D01*
X227645Y321002D01*
X227631Y321083D01*
X227626Y321122D01*
X227618Y321157D01*
X227610Y321187D01*
X227604Y321217D01*
X227596Y321242D01*
X227590Y321264D01*
X227588Y321280D01*
X227582Y321294D01*
X227580Y321302D01*
Y321304D01*
X227544Y321389D01*
X227503Y321463D01*
X227460Y321526D01*
X227435Y321553D01*
X227413Y321580D01*
X227391Y321602D01*
X227372Y321621D01*
X227353Y321640D01*
X227339Y321654D01*
X227326Y321665D01*
X227315Y321673D01*
X227309Y321676D01*
X227307Y321678D01*
X227268Y321703D01*
X227230Y321725D01*
X227189Y321744D01*
X227148Y321760D01*
X227066Y321785D01*
X226987Y321804D01*
X226955Y321810D01*
X226922Y321812D01*
X226892Y321815D01*
X226867Y321818D01*
X226845Y321820D01*
X226771D01*
X226728Y321815D01*
X226646Y321801D01*
X226575Y321779D01*
X226545Y321769D01*
X226515Y321758D01*
X226488Y321747D01*
X226466Y321736D01*
X226447Y321725D01*
X226430Y321714D01*
X226417Y321706D01*
X226409Y321700D01*
X226403Y321698D01*
X226400Y321695D01*
X226370Y321670D01*
X226340Y321643D01*
X226291Y321580D01*
X226245Y321512D01*
X226209Y321446D01*
X226182Y321386D01*
X226168Y321362D01*
X226160Y321340D01*
X226152Y321321D01*
X226149Y321304D01*
X226144Y321296D01*
Y321294D01*
X225816Y321370D01*
X225838Y321433D01*
X225863Y321493D01*
X225887Y321550D01*
X225917Y321602D01*
X225944Y321651D01*
X225974Y321695D01*
X226004Y321736D01*
X226034Y321771D01*
X226064Y321804D01*
X226089Y321831D01*
X226114Y321856D01*
X226135Y321875D01*
X226152Y321891D01*
X226166Y321902D01*
X226174Y321908D01*
X226176Y321911D01*
X226226Y321946D01*
X226277Y321973D01*
X226329Y322001D01*
X226384Y322023D01*
X226438Y322042D01*
X226490Y322058D01*
X226542Y322069D01*
X226591Y322080D01*
X226638Y322088D01*
X226679Y322093D01*
X226717Y322099D01*
X226750Y322102D01*
X226777Y322104D01*
X226813D01*
X226875Y322102D01*
D02*
G37*
G36*
X221256Y288897D02*
X221324Y288892D01*
X221390Y288881D01*
X221452Y288867D01*
X221512Y288851D01*
X221567Y288832D01*
X221616Y288813D01*
X221662Y288794D01*
X221706Y288774D01*
X221742Y288755D01*
X221775Y288736D01*
X221799Y288720D01*
X221821Y288706D01*
X221834Y288695D01*
X221845Y288690D01*
X221848Y288687D01*
X221897Y288643D01*
X221944Y288597D01*
X221985Y288548D01*
X222023Y288499D01*
X222058Y288447D01*
X222088Y288392D01*
X222116Y288343D01*
X222140Y288291D01*
X222162Y288245D01*
X222179Y288201D01*
X222195Y288160D01*
X222206Y288127D01*
X222217Y288097D01*
X222222Y288078D01*
X222228Y288065D01*
Y288059D01*
X221895Y287975D01*
X221881Y288032D01*
X221862Y288087D01*
X221843Y288138D01*
X221824Y288185D01*
X221802Y288229D01*
X221780Y288267D01*
X221758Y288302D01*
X221736Y288335D01*
X221714Y288362D01*
X221695Y288387D01*
X221676Y288409D01*
X221662Y288425D01*
X221649Y288439D01*
X221638Y288447D01*
X221633Y288452D01*
X221630Y288455D01*
X221592Y288482D01*
X221553Y288507D01*
X221515Y288529D01*
X221474Y288548D01*
X221433Y288564D01*
X221395Y288578D01*
X221319Y288597D01*
X221286Y288602D01*
X221253Y288608D01*
X221226Y288611D01*
X221201Y288613D01*
X221182Y288616D01*
X221155D01*
X221111Y288613D01*
X221070Y288611D01*
X220991Y288597D01*
X220917Y288578D01*
X220854Y288556D01*
X220827Y288545D01*
X220803Y288537D01*
X220781Y288526D01*
X220762Y288518D01*
X220745Y288510D01*
X220734Y288504D01*
X220729Y288499D01*
X220726D01*
X220691Y288474D01*
X220658Y288450D01*
X220598Y288392D01*
X220549Y288335D01*
X220508Y288275D01*
X220478Y288223D01*
X220464Y288201D01*
X220453Y288179D01*
X220448Y288163D01*
X220442Y288152D01*
X220437Y288144D01*
Y288141D01*
X220407Y288048D01*
X220382Y287953D01*
X220366Y287857D01*
X220360Y287813D01*
X220355Y287770D01*
X220352Y287729D01*
X220349Y287693D01*
X220347Y287661D01*
Y287633D01*
X220344Y287609D01*
Y287592D01*
Y287581D01*
Y287579D01*
X220347Y287486D01*
X220355Y287399D01*
X220369Y287317D01*
X220374Y287278D01*
X220382Y287243D01*
X220390Y287213D01*
X220396Y287183D01*
X220404Y287158D01*
X220409Y287137D01*
X220412Y287120D01*
X220418Y287106D01*
X220420Y287098D01*
Y287095D01*
X220456Y287011D01*
X220497Y286937D01*
X220540Y286874D01*
X220565Y286847D01*
X220587Y286820D01*
X220609Y286798D01*
X220628Y286779D01*
X220647Y286760D01*
X220661Y286746D01*
X220674Y286735D01*
X220685Y286727D01*
X220691Y286724D01*
X220693Y286721D01*
X220732Y286697D01*
X220770Y286675D01*
X220811Y286656D01*
X220852Y286640D01*
X220934Y286615D01*
X221013Y286596D01*
X221046Y286591D01*
X221078Y286588D01*
X221108Y286585D01*
X221133Y286582D01*
X221155Y286579D01*
X221229D01*
X221272Y286585D01*
X221354Y286599D01*
X221425Y286620D01*
X221455Y286631D01*
X221485Y286642D01*
X221512Y286653D01*
X221534Y286664D01*
X221553Y286675D01*
X221570Y286686D01*
X221583Y286694D01*
X221592Y286700D01*
X221597Y286702D01*
X221600Y286705D01*
X221630Y286730D01*
X221660Y286757D01*
X221709Y286820D01*
X221755Y286888D01*
X221791Y286953D01*
X221818Y287014D01*
X221832Y287038D01*
X221840Y287060D01*
X221848Y287079D01*
X221851Y287095D01*
X221856Y287104D01*
Y287106D01*
X222184Y287030D01*
X222162Y286967D01*
X222138Y286907D01*
X222113Y286850D01*
X222083Y286798D01*
X222056Y286749D01*
X222026Y286705D01*
X221996Y286664D01*
X221966Y286629D01*
X221936Y286596D01*
X221911Y286569D01*
X221886Y286544D01*
X221865Y286525D01*
X221848Y286509D01*
X221834Y286498D01*
X221826Y286492D01*
X221824Y286489D01*
X221775Y286454D01*
X221723Y286427D01*
X221671Y286399D01*
X221616Y286378D01*
X221562Y286358D01*
X221510Y286342D01*
X221458Y286331D01*
X221409Y286320D01*
X221362Y286312D01*
X221321Y286307D01*
X221283Y286301D01*
X221250Y286298D01*
X221223Y286296D01*
X221187D01*
X221125Y286298D01*
X221065Y286301D01*
X220953Y286320D01*
X220898Y286331D01*
X220849Y286345D01*
X220800Y286358D01*
X220756Y286372D01*
X220718Y286386D01*
X220683Y286399D01*
X220650Y286413D01*
X220625Y286424D01*
X220603Y286435D01*
X220590Y286443D01*
X220579Y286446D01*
X220576Y286449D01*
X220527Y286478D01*
X220478Y286511D01*
X220434Y286547D01*
X220393Y286582D01*
X220355Y286620D01*
X220319Y286656D01*
X220289Y286694D01*
X220259Y286727D01*
X220235Y286762D01*
X220213Y286792D01*
X220194Y286820D01*
X220177Y286844D01*
X220166Y286866D01*
X220158Y286880D01*
X220153Y286891D01*
X220150Y286894D01*
X220123Y286948D01*
X220101Y287008D01*
X220082Y287066D01*
X220063Y287123D01*
X220035Y287240D01*
X220027Y287295D01*
X220019Y287347D01*
X220014Y287396D01*
X220008Y287439D01*
X220005Y287480D01*
X220003Y287516D01*
X220000Y287543D01*
Y287565D01*
Y287576D01*
Y287581D01*
X220003Y287647D01*
X220005Y287713D01*
X220022Y287838D01*
X220030Y287898D01*
X220041Y287953D01*
X220055Y288005D01*
X220065Y288054D01*
X220079Y288097D01*
X220090Y288138D01*
X220101Y288171D01*
X220112Y288201D01*
X220120Y288223D01*
X220126Y288242D01*
X220128Y288253D01*
X220131Y288256D01*
X220158Y288313D01*
X220186Y288368D01*
X220216Y288417D01*
X220248Y288463D01*
X220281Y288507D01*
X220311Y288545D01*
X220344Y288581D01*
X220374Y288613D01*
X220404Y288643D01*
X220431Y288668D01*
X220456Y288687D01*
X220478Y288706D01*
X220494Y288720D01*
X220508Y288728D01*
X220516Y288734D01*
X220519Y288736D01*
X220568Y288766D01*
X220620Y288791D01*
X220674Y288813D01*
X220732Y288832D01*
X220786Y288845D01*
X220841Y288859D01*
X220895Y288870D01*
X220947Y288878D01*
X220996Y288886D01*
X221040Y288892D01*
X221081Y288895D01*
X221114Y288897D01*
X221144Y288900D01*
X221182D01*
X221256Y288897D01*
D02*
G37*
G36*
X223677Y286331D02*
X223478D01*
X223443Y286394D01*
X223401Y286454D01*
X223355Y286511D01*
X223309Y286560D01*
X223268Y286607D01*
X223249Y286623D01*
X223235Y286640D01*
X223221Y286653D01*
X223210Y286661D01*
X223205Y286667D01*
X223202Y286670D01*
X223129Y286732D01*
X223049Y286787D01*
X222973Y286839D01*
X222902Y286883D01*
X222872Y286899D01*
X222842Y286915D01*
X222815Y286932D01*
X222793Y286943D01*
X222774Y286951D01*
X222760Y286959D01*
X222752Y286962D01*
X222749Y286965D01*
Y287262D01*
X222804Y287240D01*
X222861Y287216D01*
X222916Y287188D01*
X222965Y287164D01*
X223008Y287139D01*
X223027Y287131D01*
X223044Y287120D01*
X223058Y287115D01*
X223066Y287109D01*
X223071Y287104D01*
X223074D01*
X223140Y287063D01*
X223197Y287024D01*
X223249Y286989D01*
X223290Y286956D01*
X223325Y286929D01*
X223350Y286910D01*
X223363Y286896D01*
X223369Y286891D01*
Y288859D01*
X223677D01*
Y286331D01*
D02*
G37*
G36*
X238556Y305766D02*
X238616Y305809D01*
X238644Y305831D01*
X238668Y305853D01*
X238690Y305872D01*
X238707Y305886D01*
X238718Y305897D01*
X238720Y305899D01*
X238737Y305916D01*
X238758Y305938D01*
X238780Y305962D01*
X238805Y305989D01*
X238860Y306047D01*
X238911Y306107D01*
X238961Y306164D01*
X238982Y306189D01*
X239001Y306213D01*
X239018Y306230D01*
X239029Y306246D01*
X239037Y306254D01*
X239040Y306257D01*
X239091Y306317D01*
X239141Y306374D01*
X239184Y306426D01*
X239228Y306473D01*
X239266Y306516D01*
X239304Y306555D01*
X239337Y306590D01*
X239367Y306623D01*
X239392Y306650D01*
X239416Y306672D01*
X239436Y306691D01*
X239452Y306707D01*
X239465Y306718D01*
X239474Y306729D01*
X239479Y306732D01*
X239482Y306735D01*
X239542Y306787D01*
X239597Y306827D01*
X239649Y306863D01*
X239695Y306893D01*
X239733Y306915D01*
X239763Y306931D01*
X239774Y306937D01*
X239782Y306939D01*
X239785Y306942D01*
X239788D01*
X239842Y306964D01*
X239897Y306978D01*
X239946Y306989D01*
X239992Y306997D01*
X240031Y307002D01*
X240061Y307005D01*
X240072D01*
X240080D01*
X240083D01*
X240085D01*
X240140Y307002D01*
X240192Y306997D01*
X240241Y306986D01*
X240290Y306972D01*
X240334Y306956D01*
X240375Y306937D01*
X240413Y306918D01*
X240446Y306898D01*
X240478Y306879D01*
X240506Y306860D01*
X240530Y306841D01*
X240549Y306825D01*
X240563Y306811D01*
X240577Y306800D01*
X240582Y306795D01*
X240585Y306792D01*
X240620Y306751D01*
X240650Y306707D01*
X240678Y306661D01*
X240702Y306612D01*
X240721Y306565D01*
X240738Y306516D01*
X240751Y306470D01*
X240762Y306423D01*
X240771Y306382D01*
X240776Y306342D01*
X240781Y306306D01*
X240784Y306276D01*
X240787Y306252D01*
Y306216D01*
X240784Y306151D01*
X240779Y306088D01*
X240771Y306030D01*
X240757Y305976D01*
X240743Y305924D01*
X240727Y305877D01*
X240710Y305834D01*
X240694Y305796D01*
X240675Y305760D01*
X240659Y305730D01*
X240642Y305703D01*
X240629Y305681D01*
X240615Y305664D01*
X240607Y305654D01*
X240601Y305645D01*
X240599Y305643D01*
X240563Y305605D01*
X240522Y305572D01*
X240481Y305542D01*
X240435Y305514D01*
X240391Y305492D01*
X240347Y305471D01*
X240301Y305454D01*
X240260Y305441D01*
X240219Y305427D01*
X240181Y305419D01*
X240145Y305411D01*
X240115Y305405D01*
X240091Y305402D01*
X240074Y305400D01*
X240063Y305397D01*
X240058D01*
X240025Y305714D01*
X240069Y305716D01*
X240110Y305719D01*
X240181Y305735D01*
X240246Y305757D01*
X240274Y305768D01*
X240298Y305782D01*
X240320Y305793D01*
X240339Y305806D01*
X240355Y305817D01*
X240369Y305826D01*
X240380Y305837D01*
X240388Y305842D01*
X240391Y305845D01*
X240394Y305847D01*
X240418Y305875D01*
X240440Y305902D01*
X240457Y305932D01*
X240473Y305962D01*
X240497Y306022D01*
X240514Y306080D01*
X240522Y306129D01*
X240528Y306151D01*
Y306170D01*
X240530Y306186D01*
Y306246D01*
X240525Y306284D01*
X240511Y306352D01*
X240489Y306410D01*
X240468Y306462D01*
X240443Y306500D01*
X240432Y306516D01*
X240421Y306530D01*
X240413Y306541D01*
X240407Y306549D01*
X240405Y306552D01*
X240402Y306555D01*
X240377Y306579D01*
X240353Y306598D01*
X240328Y306617D01*
X240301Y306631D01*
X240249Y306656D01*
X240200Y306672D01*
X240159Y306680D01*
X240140Y306686D01*
X240124D01*
X240113Y306688D01*
X240102D01*
X240096D01*
X240093D01*
X240061Y306686D01*
X240028Y306683D01*
X239962Y306666D01*
X239900Y306642D01*
X239842Y306615D01*
X239793Y306587D01*
X239774Y306576D01*
X239755Y306563D01*
X239741Y306555D01*
X239730Y306546D01*
X239725Y306544D01*
X239722Y306541D01*
X239684Y306511D01*
X239643Y306475D01*
X239599Y306434D01*
X239556Y306391D01*
X239465Y306301D01*
X239381Y306208D01*
X239340Y306164D01*
X239304Y306120D01*
X239272Y306082D01*
X239244Y306049D01*
X239220Y306022D01*
X239204Y306003D01*
X239190Y305989D01*
X239187Y305984D01*
X239146Y305935D01*
X239108Y305891D01*
X239072Y305847D01*
X239037Y305809D01*
X239004Y305771D01*
X238971Y305738D01*
X238944Y305708D01*
X238917Y305681D01*
X238892Y305656D01*
X238870Y305637D01*
X238851Y305618D01*
X238838Y305605D01*
X238824Y305591D01*
X238816Y305583D01*
X238810Y305580D01*
X238808Y305577D01*
X238748Y305528D01*
X238687Y305487D01*
X238630Y305452D01*
X238578Y305424D01*
X238535Y305402D01*
X238515Y305394D01*
X238502Y305386D01*
X238488Y305381D01*
X238480Y305378D01*
X238474Y305375D01*
X238472D01*
X238434Y305362D01*
X238395Y305353D01*
X238360Y305345D01*
X238327Y305342D01*
X238300Y305340D01*
X238278D01*
X238264D01*
X238259D01*
Y307008D01*
X238556D01*
Y305766D01*
D02*
G37*
G36*
X239654Y305042D02*
X239711Y305039D01*
X239766Y305031D01*
X239818Y305023D01*
X239867Y305015D01*
X239913Y305007D01*
X239957Y304998D01*
X239995Y304988D01*
X240028Y304979D01*
X240058Y304971D01*
X240083Y304963D01*
X240102Y304955D01*
X240118Y304952D01*
X240126Y304946D01*
X240129D01*
X240222Y304906D01*
X240306Y304859D01*
X240345Y304835D01*
X240380Y304810D01*
X240413Y304785D01*
X240443Y304761D01*
X240470Y304739D01*
X240492Y304717D01*
X240514Y304698D01*
X240530Y304682D01*
X240544Y304668D01*
X240552Y304657D01*
X240558Y304652D01*
X240560Y304649D01*
X240607Y304589D01*
X240645Y304526D01*
X240675Y304466D01*
X240700Y304409D01*
X240719Y304357D01*
X240724Y304335D01*
X240729Y304316D01*
X240735Y304302D01*
X240738Y304291D01*
X240740Y304283D01*
Y304280D01*
X240746Y304250D01*
X240754Y304218D01*
X240762Y304144D01*
X240771Y304070D01*
X240773Y303996D01*
X240776Y303964D01*
Y303931D01*
X240779Y303904D01*
Y302965D01*
X238259D01*
Y303874D01*
X238262Y303956D01*
X238264Y304032D01*
X238273Y304100D01*
X238281Y304160D01*
X238283Y304185D01*
X238286Y304207D01*
X238292Y304229D01*
X238294Y304245D01*
X238297Y304259D01*
Y304267D01*
X238300Y304272D01*
Y304275D01*
X238319Y304338D01*
X238338Y304398D01*
X238360Y304450D01*
X238379Y304493D01*
X238398Y304529D01*
X238412Y304556D01*
X238423Y304573D01*
X238425Y304575D01*
Y304578D01*
X238461Y304624D01*
X238496Y304668D01*
X238535Y304706D01*
X238573Y304739D01*
X238606Y304769D01*
X238630Y304788D01*
X238641Y304796D01*
X238649Y304802D01*
X238652Y304807D01*
X238655D01*
X238712Y304845D01*
X238772Y304878D01*
X238835Y304908D01*
X238892Y304933D01*
X238944Y304952D01*
X238966Y304960D01*
X238985Y304968D01*
X238999Y304971D01*
X239010Y304977D01*
X239018Y304979D01*
X239021D01*
X239108Y305001D01*
X239195Y305017D01*
X239280Y305031D01*
X239359Y305039D01*
X239395Y305042D01*
X239427Y305045D01*
X239457D01*
X239482Y305048D01*
X239504D01*
X239517D01*
X239528D01*
X239531D01*
X239654Y305042D01*
D02*
G37*
G36*
X224756Y296497D02*
X224824Y296492D01*
X224889Y296481D01*
X224952Y296467D01*
X225012Y296451D01*
X225067Y296432D01*
X225116Y296413D01*
X225163Y296394D01*
X225206Y296374D01*
X225242Y296355D01*
X225274Y296336D01*
X225299Y296320D01*
X225321Y296306D01*
X225335Y296295D01*
X225345Y296290D01*
X225348Y296287D01*
X225397Y296243D01*
X225444Y296197D01*
X225485Y296148D01*
X225523Y296099D01*
X225558Y296047D01*
X225588Y295992D01*
X225616Y295943D01*
X225640Y295891D01*
X225662Y295845D01*
X225678Y295801D01*
X225695Y295760D01*
X225706Y295727D01*
X225717Y295697D01*
X225722Y295678D01*
X225728Y295665D01*
Y295659D01*
X225395Y295575D01*
X225381Y295632D01*
X225362Y295687D01*
X225343Y295738D01*
X225324Y295785D01*
X225302Y295829D01*
X225280Y295867D01*
X225258Y295902D01*
X225236Y295935D01*
X225214Y295962D01*
X225195Y295987D01*
X225176Y296009D01*
X225163Y296025D01*
X225149Y296039D01*
X225138Y296047D01*
X225132Y296052D01*
X225130Y296055D01*
X225092Y296082D01*
X225053Y296107D01*
X225015Y296129D01*
X224974Y296148D01*
X224933Y296164D01*
X224895Y296178D01*
X224818Y296197D01*
X224786Y296202D01*
X224753Y296208D01*
X224726Y296211D01*
X224701Y296213D01*
X224682Y296216D01*
X224655D01*
X224611Y296213D01*
X224570Y296211D01*
X224491Y296197D01*
X224417Y296178D01*
X224354Y296156D01*
X224327Y296145D01*
X224303Y296137D01*
X224281Y296126D01*
X224262Y296118D01*
X224245Y296110D01*
X224234Y296104D01*
X224229Y296099D01*
X224226D01*
X224191Y296074D01*
X224158Y296050D01*
X224098Y295992D01*
X224049Y295935D01*
X224008Y295875D01*
X223978Y295823D01*
X223964Y295801D01*
X223953Y295779D01*
X223948Y295763D01*
X223942Y295752D01*
X223937Y295744D01*
Y295741D01*
X223907Y295648D01*
X223882Y295553D01*
X223866Y295457D01*
X223860Y295413D01*
X223855Y295370D01*
X223852Y295329D01*
X223849Y295293D01*
X223847Y295261D01*
Y295233D01*
X223844Y295209D01*
Y295192D01*
Y295181D01*
Y295179D01*
X223847Y295086D01*
X223855Y294999D01*
X223868Y294917D01*
X223874Y294878D01*
X223882Y294843D01*
X223890Y294813D01*
X223896Y294783D01*
X223904Y294758D01*
X223909Y294737D01*
X223912Y294720D01*
X223918Y294706D01*
X223920Y294698D01*
Y294695D01*
X223956Y294611D01*
X223997Y294537D01*
X224041Y294474D01*
X224065Y294447D01*
X224087Y294420D01*
X224109Y294398D01*
X224128Y294379D01*
X224147Y294360D01*
X224161Y294346D01*
X224174Y294335D01*
X224185Y294327D01*
X224191Y294324D01*
X224193Y294321D01*
X224232Y294297D01*
X224270Y294275D01*
X224311Y294256D01*
X224352Y294240D01*
X224434Y294215D01*
X224513Y294196D01*
X224546Y294191D01*
X224578Y294188D01*
X224608Y294185D01*
X224633Y294182D01*
X224655Y294180D01*
X224728D01*
X224772Y294185D01*
X224854Y294199D01*
X224925Y294220D01*
X224955Y294231D01*
X224985Y294242D01*
X225012Y294253D01*
X225034Y294264D01*
X225053Y294275D01*
X225070Y294286D01*
X225083Y294294D01*
X225092Y294300D01*
X225097Y294302D01*
X225100Y294305D01*
X225130Y294330D01*
X225160Y294357D01*
X225209Y294420D01*
X225255Y294488D01*
X225291Y294553D01*
X225318Y294614D01*
X225332Y294638D01*
X225340Y294660D01*
X225348Y294679D01*
X225351Y294695D01*
X225356Y294704D01*
Y294706D01*
X225684Y294630D01*
X225662Y294567D01*
X225638Y294507D01*
X225613Y294450D01*
X225583Y294398D01*
X225556Y294349D01*
X225526Y294305D01*
X225496Y294264D01*
X225465Y294229D01*
X225435Y294196D01*
X225411Y294169D01*
X225386Y294144D01*
X225364Y294125D01*
X225348Y294109D01*
X225335Y294098D01*
X225326Y294092D01*
X225324Y294089D01*
X225274Y294054D01*
X225223Y294027D01*
X225171Y293999D01*
X225116Y293977D01*
X225061Y293958D01*
X225010Y293942D01*
X224958Y293931D01*
X224909Y293920D01*
X224862Y293912D01*
X224821Y293906D01*
X224783Y293901D01*
X224750Y293898D01*
X224723Y293896D01*
X224688D01*
X224625Y293898D01*
X224565Y293901D01*
X224453Y293920D01*
X224398Y293931D01*
X224349Y293945D01*
X224300Y293958D01*
X224256Y293972D01*
X224218Y293986D01*
X224182Y293999D01*
X224150Y294013D01*
X224125Y294024D01*
X224103Y294035D01*
X224090Y294043D01*
X224079Y294046D01*
X224076Y294049D01*
X224027Y294078D01*
X223978Y294111D01*
X223934Y294147D01*
X223893Y294182D01*
X223855Y294220D01*
X223819Y294256D01*
X223789Y294294D01*
X223759Y294327D01*
X223735Y294362D01*
X223713Y294392D01*
X223694Y294420D01*
X223677Y294444D01*
X223667Y294466D01*
X223658Y294480D01*
X223653Y294491D01*
X223650Y294494D01*
X223623Y294548D01*
X223601Y294608D01*
X223582Y294666D01*
X223563Y294723D01*
X223535Y294840D01*
X223527Y294895D01*
X223519Y294947D01*
X223514Y294996D01*
X223508Y295040D01*
X223505Y295080D01*
X223503Y295116D01*
X223500Y295143D01*
Y295165D01*
Y295176D01*
Y295181D01*
X223503Y295247D01*
X223505Y295312D01*
X223522Y295438D01*
X223530Y295498D01*
X223541Y295553D01*
X223554Y295605D01*
X223566Y295654D01*
X223579Y295697D01*
X223590Y295738D01*
X223601Y295771D01*
X223612Y295801D01*
X223620Y295823D01*
X223625Y295842D01*
X223628Y295853D01*
X223631Y295856D01*
X223658Y295913D01*
X223686Y295968D01*
X223716Y296017D01*
X223748Y296063D01*
X223781Y296107D01*
X223811Y296145D01*
X223844Y296181D01*
X223874Y296213D01*
X223904Y296243D01*
X223931Y296268D01*
X223956Y296287D01*
X223978Y296306D01*
X223994Y296320D01*
X224008Y296328D01*
X224016Y296334D01*
X224019Y296336D01*
X224068Y296366D01*
X224120Y296391D01*
X224174Y296413D01*
X224232Y296432D01*
X224286Y296445D01*
X224341Y296459D01*
X224395Y296470D01*
X224447Y296478D01*
X224496Y296486D01*
X224540Y296492D01*
X224581Y296495D01*
X224614Y296497D01*
X224644Y296500D01*
X224682D01*
X224756Y296497D01*
D02*
G37*
G36*
X227314Y295856D02*
X227655D01*
Y295572D01*
X227314D01*
Y293939D01*
X227060D01*
X225908Y295572D01*
Y295856D01*
X227005D01*
Y296459D01*
X227314D01*
Y295856D01*
D02*
G37*
%LPC*%
G36*
X263027Y303848D02*
X263019D01*
X263014D01*
X263011D01*
X262954Y303843D01*
X262902Y303829D01*
X262853Y303813D01*
X262814Y303791D01*
X262782Y303769D01*
X262757Y303753D01*
X262743Y303739D01*
X262738Y303734D01*
X262700Y303687D01*
X262672Y303638D01*
X262653Y303589D01*
X262640Y303542D01*
X262632Y303502D01*
X262629Y303485D01*
Y303469D01*
X262626Y303455D01*
Y303439D01*
X262632Y303373D01*
X262642Y303313D01*
X262662Y303261D01*
X262683Y303220D01*
X262702Y303185D01*
X262722Y303160D01*
X262733Y303144D01*
X262738Y303138D01*
X262782Y303100D01*
X262831Y303073D01*
X262880Y303054D01*
X262926Y303040D01*
X262967Y303032D01*
X262984Y303029D01*
X263000D01*
X263014Y303027D01*
X263022D01*
X263027D01*
X263030D01*
X263087Y303032D01*
X263139Y303046D01*
X263186Y303062D01*
X263224Y303084D01*
X263257Y303106D01*
X263281Y303122D01*
X263295Y303136D01*
X263300Y303141D01*
X263339Y303188D01*
X263366Y303237D01*
X263388Y303286D01*
X263401Y303332D01*
X263409Y303373D01*
X263412Y303392D01*
Y303406D01*
X263415Y303420D01*
Y303469D01*
X263409Y303499D01*
X263396Y303556D01*
X263377Y303608D01*
X263358Y303649D01*
X263336Y303684D01*
X263317Y303709D01*
X263303Y303725D01*
X263300Y303731D01*
X263298D01*
X263276Y303753D01*
X263251Y303769D01*
X263205Y303799D01*
X263156Y303821D01*
X263112Y303835D01*
X263071Y303843D01*
X263041Y303846D01*
X263027Y303848D01*
D02*
G37*
G36*
X261878Y303952D02*
X261867D01*
X261859D01*
X261856D01*
X261815Y303949D01*
X261777Y303946D01*
X261709Y303930D01*
X261646Y303906D01*
X261594Y303881D01*
X261572Y303867D01*
X261553Y303854D01*
X261537Y303840D01*
X261520Y303829D01*
X261509Y303821D01*
X261501Y303813D01*
X261498Y303810D01*
X261496Y303807D01*
X261471Y303780D01*
X261449Y303750D01*
X261430Y303720D01*
X261414Y303690D01*
X261389Y303627D01*
X261373Y303570D01*
X261362Y303518D01*
X261359Y303496D01*
X261357Y303477D01*
X261354Y303461D01*
Y303439D01*
X261357Y303387D01*
X261365Y303338D01*
X261376Y303291D01*
X261387Y303253D01*
X261398Y303218D01*
X261408Y303193D01*
X261417Y303177D01*
X261419Y303174D01*
Y303171D01*
X261447Y303128D01*
X261479Y303089D01*
X261509Y303059D01*
X261540Y303032D01*
X261567Y303013D01*
X261591Y302996D01*
X261605Y302988D01*
X261611Y302986D01*
X261657Y302966D01*
X261703Y302950D01*
X261747Y302939D01*
X261785Y302934D01*
X261818Y302928D01*
X261845Y302925D01*
X261862D01*
X261864D01*
X261867D01*
X261908Y302928D01*
X261944Y302931D01*
X262015Y302947D01*
X262077Y302969D01*
X262129Y302996D01*
X262151Y303010D01*
X262170Y303024D01*
X262187Y303035D01*
X262203Y303046D01*
X262214Y303054D01*
X262222Y303062D01*
X262225Y303065D01*
X262227Y303067D01*
X262252Y303095D01*
X262277Y303125D01*
X262296Y303155D01*
X262312Y303185D01*
X262337Y303245D01*
X262353Y303302D01*
X262364Y303354D01*
X262367Y303376D01*
X262369Y303395D01*
X262372Y303409D01*
Y303431D01*
X262369Y303471D01*
X262367Y303510D01*
X262350Y303583D01*
X262326Y303646D01*
X262298Y303701D01*
X262285Y303723D01*
X262271Y303745D01*
X262260Y303761D01*
X262247Y303774D01*
X262238Y303788D01*
X262230Y303796D01*
X262227Y303799D01*
X262225Y303802D01*
X262197Y303829D01*
X262167Y303851D01*
X262137Y303873D01*
X262107Y303889D01*
X262045Y303917D01*
X261987Y303933D01*
X261935Y303944D01*
X261913Y303946D01*
X261894Y303949D01*
X261878Y303952D01*
D02*
G37*
G36*
X298658Y305325D02*
X298644D01*
X298636D01*
X298634D01*
X298584Y305322D01*
X298538Y305319D01*
X298497Y305311D01*
X298456Y305303D01*
X298418Y305292D01*
X298385Y305281D01*
X298352Y305267D01*
X298325Y305256D01*
X298301Y305243D01*
X298279Y305229D01*
X298259Y305218D01*
X298243Y305207D01*
X298232Y305199D01*
X298224Y305191D01*
X298219Y305188D01*
X298216Y305186D01*
X298191Y305158D01*
X298167Y305131D01*
X298148Y305101D01*
X298131Y305071D01*
X298104Y305013D01*
X298088Y304956D01*
X298077Y304907D01*
X298074Y304888D01*
X298071Y304869D01*
X298068Y304855D01*
Y304833D01*
X298071Y304795D01*
X298074Y304757D01*
X298090Y304686D01*
X298115Y304626D01*
X298142Y304571D01*
X298156Y304549D01*
X298169Y304530D01*
X298183Y304514D01*
X298194Y304500D01*
X298202Y304487D01*
X298210Y304478D01*
X298213Y304476D01*
X298216Y304473D01*
X298246Y304448D01*
X298276Y304427D01*
X298309Y304407D01*
X298341Y304391D01*
X298404Y304366D01*
X298467Y304350D01*
X298522Y304339D01*
X298546Y304336D01*
X298565Y304334D01*
X298584Y304331D01*
X298595D01*
X298604D01*
X298606D01*
X298655Y304334D01*
X298702Y304336D01*
X298786Y304356D01*
X298827Y304366D01*
X298863Y304377D01*
X298896Y304391D01*
X298926Y304407D01*
X298953Y304421D01*
X298975Y304435D01*
X298997Y304446D01*
X299013Y304457D01*
X299027Y304468D01*
X299035Y304476D01*
X299040Y304478D01*
X299043Y304481D01*
X299073Y304511D01*
X299098Y304541D01*
X299122Y304571D01*
X299141Y304601D01*
X299158Y304631D01*
X299171Y304661D01*
X299190Y304719D01*
X299204Y304768D01*
X299207Y304790D01*
X299209Y304806D01*
X299212Y304822D01*
Y304841D01*
X299209Y304877D01*
X299207Y304912D01*
X299199Y304948D01*
X299188Y304978D01*
X299163Y305038D01*
X299133Y305087D01*
X299103Y305128D01*
X299089Y305145D01*
X299078Y305158D01*
X299068Y305169D01*
X299062Y305177D01*
X299057Y305180D01*
X299054Y305183D01*
X299024Y305207D01*
X298991Y305229D01*
X298958Y305248D01*
X298923Y305265D01*
X298852Y305289D01*
X298786Y305308D01*
X298754Y305314D01*
X298726Y305316D01*
X298699Y305319D01*
X298677Y305322D01*
X298658Y305325D01*
D02*
G37*
G36*
X220856Y327582D02*
X219720Y326788D01*
X220856D01*
Y327582D01*
D02*
G37*
G36*
X311799Y298946D02*
X311791D01*
X311753Y298943D01*
X311714Y298938D01*
X311679Y298927D01*
X311646Y298913D01*
X311583Y298883D01*
X311531Y298845D01*
X311490Y298807D01*
X311474Y298791D01*
X311460Y298777D01*
X311447Y298763D01*
X311438Y298752D01*
X311436Y298747D01*
X311433Y298744D01*
X311408Y298700D01*
X311387Y298649D01*
X311365Y298591D01*
X311348Y298529D01*
X311335Y298460D01*
X311324Y298392D01*
X311308Y298253D01*
X311299Y298187D01*
X311297Y298124D01*
X311294Y298067D01*
X311291Y298018D01*
X311288Y297977D01*
Y297958D01*
Y297944D01*
Y297933D01*
Y297925D01*
Y297920D01*
Y297917D01*
X311291Y297805D01*
X311297Y297704D01*
X311302Y297608D01*
X311313Y297524D01*
X311324Y297447D01*
X311337Y297376D01*
X311354Y297316D01*
X311368Y297262D01*
X311381Y297213D01*
X311398Y297174D01*
X311411Y297142D01*
X311422Y297114D01*
X311433Y297093D01*
X311441Y297079D01*
X311444Y297071D01*
X311447Y297068D01*
X311471Y297035D01*
X311499Y297008D01*
X311526Y296983D01*
X311553Y296964D01*
X311583Y296945D01*
X311611Y296931D01*
X311665Y296910D01*
X311714Y296896D01*
X311736Y296893D01*
X311753Y296890D01*
X311769Y296888D01*
X311788D01*
X311829Y296890D01*
X311864Y296896D01*
X311903Y296907D01*
X311935Y296920D01*
X311998Y296953D01*
X312050Y296989D01*
X312072Y297008D01*
X312091Y297027D01*
X312107Y297046D01*
X312124Y297060D01*
X312135Y297073D01*
X312143Y297084D01*
X312146Y297090D01*
X312148Y297093D01*
X312176Y297136D01*
X312197Y297185D01*
X312217Y297245D01*
X312233Y297308D01*
X312247Y297374D01*
X312260Y297442D01*
X312277Y297581D01*
X312285Y297647D01*
X312288Y297709D01*
X312290Y297767D01*
X312293Y297816D01*
X312296Y297860D01*
Y297876D01*
Y297890D01*
Y297901D01*
Y297909D01*
Y297914D01*
Y297917D01*
X312293Y298029D01*
X312290Y298130D01*
X312282Y298223D01*
X312274Y298307D01*
X312263Y298384D01*
X312249Y298449D01*
X312236Y298509D01*
X312222Y298561D01*
X312208Y298605D01*
X312195Y298643D01*
X312184Y298676D01*
X312170Y298700D01*
X312162Y298720D01*
X312154Y298730D01*
X312151Y298739D01*
X312148Y298741D01*
X312121Y298777D01*
X312091Y298810D01*
X312061Y298837D01*
X312031Y298859D01*
X312001Y298881D01*
X311971Y298897D01*
X311944Y298911D01*
X311916Y298922D01*
X311867Y298935D01*
X311845Y298941D01*
X311826Y298943D01*
X311812D01*
X311799Y298946D01*
D02*
G37*
G36*
X251375Y304739D02*
X251353D01*
X251342D01*
X251337D01*
X251233Y304736D01*
X251140Y304728D01*
X251096Y304723D01*
X251058Y304717D01*
X251020Y304712D01*
X250987Y304706D01*
X250957Y304698D01*
X250930Y304693D01*
X250905Y304687D01*
X250886Y304682D01*
X250870Y304676D01*
X250859Y304674D01*
X250853Y304671D01*
X250851D01*
X250780Y304644D01*
X250717Y304613D01*
X250662Y304583D01*
X250616Y304556D01*
X250580Y304529D01*
X250553Y304507D01*
X250537Y304493D01*
X250534Y304491D01*
X250531Y304488D01*
X250501Y304455D01*
X250474Y304417D01*
X250452Y304379D01*
X250433Y304343D01*
X250419Y304310D01*
X250408Y304286D01*
X250406Y304275D01*
X250403Y304267D01*
X250400Y304264D01*
Y304261D01*
X250387Y304204D01*
X250376Y304141D01*
X250367Y304076D01*
X250362Y304013D01*
X250359Y303958D01*
Y303934D01*
X250356Y303912D01*
Y303333D01*
X252281D01*
Y303915D01*
X252278Y303964D01*
X252276Y304010D01*
X252273Y304054D01*
X252270Y304092D01*
X252265Y304128D01*
X252259Y304160D01*
X252256Y304188D01*
X252251Y304212D01*
X252246Y304234D01*
X252240Y304250D01*
X252237Y304267D01*
X252235Y304278D01*
X252232Y304286D01*
X252229Y304289D01*
Y304291D01*
X252213Y304327D01*
X252197Y304360D01*
X252153Y304420D01*
X252106Y304474D01*
X252057Y304521D01*
X252014Y304556D01*
X251994Y304573D01*
X251978Y304583D01*
X251962Y304594D01*
X251951Y304603D01*
X251945Y304605D01*
X251943Y304608D01*
X251902Y304630D01*
X251855Y304652D01*
X251760Y304684D01*
X251659Y304706D01*
X251560Y304723D01*
X251514Y304728D01*
X251473Y304734D01*
X251435Y304736D01*
X251402D01*
X251375Y304739D01*
D02*
G37*
G36*
X222707Y320903D02*
X222688D01*
X222649Y320900D01*
X222611Y320898D01*
X222543Y320879D01*
X222483Y320854D01*
X222431Y320827D01*
X222390Y320799D01*
X222374Y320786D01*
X222360Y320775D01*
X222349Y320764D01*
X222341Y320756D01*
X222338Y320753D01*
X222335Y320750D01*
X222311Y320720D01*
X222289Y320690D01*
X222270Y320657D01*
X222253Y320622D01*
X222229Y320554D01*
X222212Y320488D01*
X222207Y320458D01*
X222204Y320431D01*
X222201Y320406D01*
X222199Y320385D01*
X222196Y320365D01*
Y320352D01*
Y320343D01*
Y320341D01*
X222199Y320292D01*
X222201Y320245D01*
X222210Y320199D01*
X222218Y320158D01*
X222229Y320120D01*
X222240Y320084D01*
X222253Y320051D01*
X222267Y320024D01*
X222281Y319997D01*
X222294Y319975D01*
X222305Y319956D01*
X222316Y319939D01*
X222324Y319926D01*
X222333Y319918D01*
X222335Y319912D01*
X222338Y319910D01*
X222365Y319882D01*
X222393Y319858D01*
X222420Y319839D01*
X222450Y319819D01*
X222477Y319806D01*
X222507Y319792D01*
X222559Y319773D01*
X222606Y319762D01*
X222625Y319759D01*
X222644Y319757D01*
X222657Y319754D01*
X222676D01*
X222726Y319757D01*
X222775Y319765D01*
X222818Y319778D01*
X222857Y319792D01*
X222889Y319806D01*
X222914Y319819D01*
X222930Y319828D01*
X222933Y319830D01*
X222936D01*
X222980Y319863D01*
X223015Y319899D01*
X223048Y319934D01*
X223075Y319970D01*
X223097Y320002D01*
X223111Y320027D01*
X223116Y320038D01*
X223122Y320046D01*
X223124Y320049D01*
Y320051D01*
X223146Y320106D01*
X223163Y320161D01*
X223173Y320213D01*
X223182Y320259D01*
X223187Y320300D01*
Y320316D01*
X223190Y320330D01*
Y320341D01*
Y320349D01*
Y320354D01*
Y320357D01*
X223187Y320401D01*
X223184Y320444D01*
X223168Y320521D01*
X223143Y320589D01*
X223130Y320619D01*
X223116Y320644D01*
X223105Y320668D01*
X223092Y320690D01*
X223078Y320709D01*
X223067Y320723D01*
X223059Y320734D01*
X223051Y320742D01*
X223048Y320748D01*
X223045Y320750D01*
X223018Y320778D01*
X222988Y320802D01*
X222958Y320821D01*
X222928Y320838D01*
X222868Y320865D01*
X222810Y320884D01*
X222761Y320895D01*
X222739Y320898D01*
X222723Y320900D01*
X222707Y320903D01*
D02*
G37*
G36*
X239575Y304704D02*
X239553D01*
X239542D01*
X239536D01*
X239433Y304701D01*
X239340Y304693D01*
X239296Y304687D01*
X239258Y304682D01*
X239220Y304676D01*
X239187Y304671D01*
X239157Y304663D01*
X239130Y304657D01*
X239105Y304652D01*
X239086Y304646D01*
X239070Y304641D01*
X239059Y304638D01*
X239053Y304635D01*
X239051D01*
X238980Y304608D01*
X238917Y304578D01*
X238862Y304548D01*
X238816Y304521D01*
X238780Y304493D01*
X238753Y304471D01*
X238737Y304458D01*
X238734Y304455D01*
X238731Y304452D01*
X238701Y304420D01*
X238674Y304381D01*
X238652Y304343D01*
X238633Y304308D01*
X238619Y304275D01*
X238608Y304250D01*
X238606Y304240D01*
X238603Y304231D01*
X238600Y304229D01*
Y304226D01*
X238586Y304169D01*
X238576Y304106D01*
X238567Y304040D01*
X238562Y303977D01*
X238559Y303923D01*
Y303898D01*
X238556Y303876D01*
Y303298D01*
X240481D01*
Y303879D01*
X240478Y303928D01*
X240476Y303975D01*
X240473Y304018D01*
X240470Y304057D01*
X240465Y304092D01*
X240459Y304125D01*
X240457Y304152D01*
X240451Y304177D01*
X240446Y304199D01*
X240440Y304215D01*
X240437Y304231D01*
X240435Y304242D01*
X240432Y304250D01*
X240429Y304253D01*
Y304256D01*
X240413Y304291D01*
X240396Y304324D01*
X240353Y304384D01*
X240306Y304439D01*
X240257Y304485D01*
X240214Y304521D01*
X240195Y304537D01*
X240178Y304548D01*
X240162Y304559D01*
X240151Y304567D01*
X240145Y304570D01*
X240143Y304573D01*
X240102Y304594D01*
X240055Y304616D01*
X239960Y304649D01*
X239859Y304671D01*
X239760Y304687D01*
X239714Y304693D01*
X239673Y304698D01*
X239635Y304701D01*
X239602D01*
X239575Y304704D01*
D02*
G37*
G36*
X227005Y295572D02*
X226211D01*
X227005Y294436D01*
Y295572D01*
D02*
G37*
%LPD*%
D12*
X371244Y338882D02*
X376756D01*
X371244D02*
Y349118D01*
X376756D01*
Y338882D02*
Y349118D01*
X344544Y338382D02*
Y348618D01*
Y338382D02*
X350056D01*
Y348618D01*
X344544D02*
X350056D01*
X382544Y259782D02*
Y270018D01*
Y259782D02*
X388056D01*
Y270018D01*
X382544D02*
X388056D01*
X253244Y230918D02*
X258756D01*
Y220682D02*
Y230918D01*
X253244Y220682D02*
X258756D01*
X253244D02*
Y230918D01*
X258738Y295376D02*
X263462D01*
X258738D02*
Y304824D01*
X263462D01*
Y295376D02*
Y304824D01*
X268244Y338382D02*
X273756D01*
X268244D02*
Y348618D01*
X273756D01*
Y338382D02*
Y348618D01*
X262244Y338382D02*
X267756D01*
X262244D02*
Y348618D01*
X267756D01*
Y338382D02*
Y348618D01*
X338462Y334476D02*
Y343924D01*
X333738D02*
X338462D01*
X333738Y334476D02*
Y343924D01*
Y334476D02*
X338462D01*
X339844Y221382D02*
Y231618D01*
Y221382D02*
X345356D01*
Y231618D01*
X339844D02*
X345356D01*
X345344Y221382D02*
Y231618D01*
Y221382D02*
X350856D01*
Y231618D01*
X345344D02*
X350856D01*
X294538Y296776D02*
X299262D01*
X294538D02*
Y306224D01*
X299262D01*
Y296776D02*
Y306224D01*
X247844Y230918D02*
X253356D01*
Y220682D02*
Y230918D01*
X247844Y220682D02*
X253356D01*
X247844D02*
Y230918D01*
X219434Y338502D02*
X224158D01*
X219434D02*
Y347951D01*
X224158D01*
Y338502D02*
Y347951D01*
X219422Y336975D02*
X224147D01*
Y327526D02*
Y336975D01*
X219422Y327526D02*
X224147D01*
X219422D02*
Y336975D01*
X214045Y338108D02*
Y348345D01*
X208533D02*
X214045D01*
X208533Y338108D02*
Y348345D01*
Y338108D02*
X214045D01*
X208533Y327133D02*
Y337369D01*
Y327133D02*
X214045D01*
Y337369D01*
X208533D02*
X214045D01*
X219642Y327133D02*
Y337369D01*
X214131D02*
X219642D01*
X214131Y327133D02*
Y337369D01*
Y327133D02*
X219642D01*
X214131Y338108D02*
Y348345D01*
Y338108D02*
X219642D01*
Y348345D01*
X214131D02*
X219642D01*
X301776Y296838D02*
X311224D01*
Y301562D01*
X301776D02*
X311224D01*
X301776Y296838D02*
Y301562D01*
X331776Y303138D02*
X341224D01*
Y307862D01*
X331776D02*
X341224D01*
X331776Y303138D02*
Y307862D01*
X302055Y290136D02*
X310945D01*
Y294664D01*
X302055D02*
X310945D01*
X302055Y290136D02*
Y294664D01*
X292338Y324376D02*
Y333824D01*
Y324376D02*
X297062D01*
Y333824D01*
X292338D02*
X297062D01*
X234224Y286538D02*
Y291262D01*
X224776Y286538D02*
X234224D01*
X224776D02*
Y291262D01*
X234224D01*
X244599Y288925D02*
X257001D01*
X244599D02*
Y317075D01*
X257001D01*
Y288925D02*
Y317075D01*
X217201Y301020D02*
X229799D01*
X217201D02*
Y315980D01*
X229799D01*
Y301020D02*
Y315980D01*
X214055Y317236D02*
Y321764D01*
X222945D01*
Y317236D02*
Y321764D01*
X214055Y317236D02*
X222945D01*
X232445D02*
Y321764D01*
X223555Y317236D02*
X232445D01*
X223555D02*
Y321764D01*
X232445D01*
X215276Y286538D02*
Y291262D01*
X224724D01*
Y286538D02*
Y291262D01*
X215276Y286538D02*
X224724D01*
X232799Y288890D02*
X245201D01*
X232799D02*
Y317039D01*
X245201D01*
Y288890D02*
Y317039D01*
X215811Y292563D02*
X231189D01*
Y300437D01*
X215811D02*
X231189D01*
X215811Y292563D02*
Y300437D01*
D112*
X372917Y339669D02*
X375279D01*
Y340850D01*
X374885Y341244D01*
X374098D01*
X373705Y340850D01*
Y339669D01*
Y340456D02*
X372917Y341244D01*
Y342031D02*
Y342818D01*
Y342424D01*
X375279D01*
X374885Y342031D01*
X372917Y345573D02*
Y343999D01*
X374492Y345573D01*
X374885D01*
X375279Y345179D01*
Y344392D01*
X374885Y343999D01*
X348383Y347831D02*
X346021D01*
Y346650D01*
X346415Y346256D01*
X347202D01*
X347596Y346650D01*
Y347831D01*
Y347044D02*
X348383Y346256D01*
Y345469D02*
Y344682D01*
Y345076D01*
X346021D01*
X346415Y345469D01*
X346021Y343501D02*
Y341927D01*
X346415D01*
X347989Y343501D01*
X348383D01*
X386383Y269231D02*
X384021D01*
Y268050D01*
X384415Y267656D01*
X385202D01*
X385595Y268050D01*
Y269231D01*
Y268444D02*
X386383Y267656D01*
Y266869D02*
Y266082D01*
Y266476D01*
X384021D01*
X384415Y266869D01*
Y264901D02*
X384021Y264508D01*
Y263721D01*
X384415Y263327D01*
X384808D01*
X385202Y263721D01*
Y264114D01*
Y263721D01*
X385595Y263327D01*
X385989D01*
X386383Y263721D01*
Y264508D01*
X385989Y264901D01*
X257083Y230131D02*
X254721D01*
Y228950D01*
X255115Y228556D01*
X255902D01*
X256295Y228950D01*
Y230131D01*
Y229344D02*
X257083Y228556D01*
X255115Y227769D02*
X254721Y227376D01*
Y226589D01*
X255115Y226195D01*
X255508D01*
X255902Y226589D01*
X256295Y226195D01*
X256689D01*
X257083Y226589D01*
Y227376D01*
X256689Y227769D01*
X256295D01*
X255902Y227376D01*
X255508Y227769D01*
X255115D01*
X255902Y227376D02*
Y226589D01*
X269917Y339169D02*
X272279D01*
Y340350D01*
X271885Y340744D01*
X271098D01*
X270705Y340350D01*
Y339169D01*
Y339956D02*
X269917Y340744D01*
X272279Y341531D02*
Y343105D01*
X271885D01*
X270311Y341531D01*
X269917D01*
X263917Y339169D02*
X266279D01*
Y340350D01*
X265885Y340744D01*
X265098D01*
X264704Y340350D01*
Y339169D01*
Y339956D02*
X263917Y340744D01*
Y342711D02*
X266279D01*
X265098Y341531D01*
Y343105D01*
X343683Y230831D02*
X341321D01*
Y229650D01*
X341715Y229256D01*
X342502D01*
X342896Y229650D01*
Y230831D01*
Y230044D02*
X343683Y229256D01*
Y226895D02*
Y228469D01*
X342108Y226895D01*
X341715D01*
X341321Y227289D01*
Y228076D01*
X341715Y228469D01*
X349183Y230831D02*
X346821D01*
Y229650D01*
X347215Y229256D01*
X348002D01*
X348395Y229650D01*
Y230831D01*
Y230044D02*
X349183Y229256D01*
X346821Y226895D02*
Y228469D01*
X348002D01*
X347608Y227682D01*
Y227289D01*
X348002Y226895D01*
X348789D01*
X349183Y227289D01*
Y228076D01*
X348789Y228469D01*
X251683Y230131D02*
X249321D01*
Y228950D01*
X249715Y228556D01*
X250502D01*
X250896Y228950D01*
Y230131D01*
Y229344D02*
X251683Y228556D01*
Y227769D02*
Y226982D01*
Y227376D01*
X249321D01*
X249715Y227769D01*
X210206Y338896D02*
X212568D01*
Y340076D01*
X212174Y340470D01*
X211387D01*
X210993Y340076D01*
Y338896D01*
Y339683D02*
X210206Y340470D01*
Y342831D02*
Y341257D01*
X211781Y342831D01*
X212174D01*
X212568Y342438D01*
Y341651D01*
X212174Y341257D01*
X210206Y345193D02*
Y343619D01*
X211781Y345193D01*
X212174D01*
X212568Y344799D01*
Y344012D01*
X212174Y343619D01*
X212372Y336581D02*
X210010D01*
Y335401D01*
X210404Y335007D01*
X211191D01*
X211584Y335401D01*
Y336581D01*
Y335794D02*
X212372Y335007D01*
X210404Y334220D02*
X210010Y333826D01*
Y333039D01*
X210404Y332646D01*
X210797D01*
X211191Y333039D01*
Y333433D01*
Y333039D01*
X211584Y332646D01*
X211978D01*
X212372Y333039D01*
Y333826D01*
X211978Y334220D01*
X215804Y327920D02*
X218165D01*
Y329101D01*
X217772Y329494D01*
X216985D01*
X216591Y329101D01*
Y327920D01*
Y328707D02*
X215804Y329494D01*
X218165Y331856D02*
X217772Y331069D01*
X216985Y330281D01*
X216197D01*
X215804Y330675D01*
Y331462D01*
X216197Y331856D01*
X216591D01*
X216985Y331462D01*
Y330281D01*
X217969Y347557D02*
X215608D01*
Y346376D01*
X216001Y345983D01*
X216789D01*
X217182Y346376D01*
Y347557D01*
Y346770D02*
X217969Y345983D01*
Y343621D02*
Y345196D01*
X216395Y343621D01*
X216001D01*
X215608Y344015D01*
Y344802D01*
X216001Y345196D01*
Y342834D02*
X215608Y342441D01*
Y341654D01*
X216001Y341260D01*
X216395D01*
X216789Y341654D01*
Y342047D01*
Y341654D01*
X217182Y341260D01*
X217576D01*
X217969Y341654D01*
Y342441D01*
X217576Y342834D01*
X326931Y298017D02*
Y300379D01*
X325750D01*
X325356Y299985D01*
Y299198D01*
X325750Y298804D01*
X326931D01*
X326144D02*
X325356Y298017D01*
X324569D02*
X323782D01*
X324176D01*
Y300379D01*
X324569Y299985D01*
X322601Y298017D02*
X321814D01*
X322208D01*
Y300379D01*
X322601Y299985D01*
M02*
