G04*
G04 #@! TF.GenerationSoftware,Altium Limited,Altium Designer,21.1.1 (26)*
G04*
G04 Layer_Color=16711935*
%FSLAX25Y25*%
%MOIN*%
G70*
G04*
G04 #@! TF.SameCoordinates,D6B6CD0C-24BE-41C4-A853-45D6888EAD6D*
G04*
G04*
G04 #@! TF.FilePolarity,Positive*
G04*
G01*
G75*
%ADD12C,0.00787*%
%ADD112C,0.00394*%
D12*
X391400Y239300D02*
X387464D01*
Y241268D01*
X388120Y241924D01*
X389432D01*
X390088Y241268D01*
Y239300D01*
X388120Y245860D02*
X387464Y245204D01*
Y243892D01*
X388120Y243236D01*
X390744D01*
X391400Y243892D01*
Y245204D01*
X390744Y245860D01*
X387464Y247171D02*
X391400D01*
Y249139D01*
X390744Y249795D01*
X390088D01*
X389432Y249139D01*
Y247171D01*
Y249139D01*
X388776Y249795D01*
X388120D01*
X387464Y249139D01*
Y247171D01*
Y257667D02*
Y255043D01*
X391400D01*
Y257667D01*
X389432Y255043D02*
Y256355D01*
X387464Y261602D02*
X391400D01*
Y259635D01*
X390744Y258979D01*
X389432D01*
X388776Y259635D01*
Y261602D01*
X392712Y264226D02*
Y264882D01*
X392056Y265538D01*
X388776D01*
Y263570D01*
X389432Y262914D01*
X390744D01*
X391400Y263570D01*
Y265538D01*
Y268818D02*
Y267506D01*
X390744Y266850D01*
X389432D01*
X388776Y267506D01*
Y268818D01*
X389432Y269474D01*
X390088D01*
Y266850D01*
D112*
X394109Y267678D02*
Y314922D01*
M02*
