G04*
G04 #@! TF.GenerationSoftware,Altium Limited,Altium Designer,21.1.1 (26)*
G04*
G04 Layer_Physical_Order=4*
G04 Layer_Color=16711680*
%FSLAX25Y25*%
%MOIN*%
G70*
G04*
G04 #@! TF.SameCoordinates,D6B6CD0C-24BE-41C4-A853-45D6888EAD6D*
G04*
G04*
G04 #@! TF.FilePolarity,Positive*
G04*
G01*
G75*
%ADD10C,0.00984*%
%ADD11C,0.01000*%
%ADD12C,0.00787*%
%ADD13C,0.00600*%
%ADD38C,0.01500*%
%ADD39C,0.00800*%
%ADD40C,0.03000*%
%ADD41C,0.01200*%
%ADD42C,0.00898*%
%ADD43C,0.02500*%
%ADD44C,0.02000*%
%ADD45R,0.05512X0.05512*%
%ADD46C,0.05512*%
%ADD47O,0.05512X0.10236*%
%ADD48O,0.10236X0.05512*%
%ADD49R,0.06000X0.04400*%
%ADD50O,0.06000X0.04400*%
%ADD51O,0.06000X0.07500*%
%ADD52O,0.07874X0.05906*%
%ADD53C,0.04134*%
%ADD54C,0.01772*%
%ADD55C,0.03937*%
%ADD56C,0.02362*%
%ADD57C,0.01968*%
%ADD71O,0.00984X0.07874*%
%ADD72O,0.07874X0.00984*%
%ADD73R,0.22047X0.22047*%
%ADD74R,0.03543X0.02559*%
%ADD75R,0.03543X0.04134*%
%ADD76R,0.03150X0.03937*%
%ADD77R,0.10236X0.07480*%
%ADD78R,0.03543X0.02953*%
%ADD79R,0.06102X0.02362*%
%ADD80R,0.02284X0.04646*%
%ADD81R,0.03740X0.04134*%
%ADD82R,0.02953X0.03543*%
%ADD83R,0.02559X0.03543*%
%ADD84R,0.03174X0.03379*%
%ADD85R,0.06890X0.10433*%
%ADD86R,0.12402X0.07008*%
%ADD87R,0.02598X0.03937*%
%ADD88R,0.42126X0.33858*%
%ADD89R,0.03937X0.13386*%
%ADD90R,0.04545X0.06717*%
%ADD91C,0.00819*%
%ADD92C,0.00700*%
%ADD93R,0.21700X0.26600*%
%ADD94R,0.14500X0.38300*%
%ADD95R,0.44100X0.46500*%
D10*
X335400Y224379D02*
Y242982D01*
X269341Y246065D02*
X332317D01*
X335400Y242982D01*
X251999Y222847D02*
X255999D01*
X342599Y223500D02*
X348024D01*
X336279D02*
X342599D01*
X255999Y222847D02*
X260399D01*
X266300Y243023D02*
X269341Y246065D01*
X266300Y228748D02*
Y243023D01*
X260399Y222847D02*
X266300Y228748D01*
X335400Y224379D02*
X336279Y223500D01*
X247400Y235450D02*
X247800Y235850D01*
Y236083D01*
X247400Y223726D02*
Y235450D01*
Y223726D02*
X248279Y222847D01*
X250599D01*
D11*
X265919Y306986D02*
Y307319D01*
X266600Y308000D02*
X268470D01*
X261395Y302462D02*
X265919Y306986D01*
Y307319D02*
X266600Y308000D01*
X261100Y302462D02*
X261395D01*
X296600Y335329D02*
Y337119D01*
Y335329D02*
X298772Y333157D01*
X295782Y337937D02*
X296600Y337119D01*
X295286Y329114D02*
X296845D01*
X294700Y329700D02*
X295286Y329114D01*
X294700Y329700D02*
Y331462D01*
X297372Y327838D02*
Y328587D01*
X296845Y329114D02*
X297372Y328587D01*
Y327838D02*
X297957Y327252D01*
X298772D01*
X300544Y342614D02*
X306918D01*
X307504Y341890D02*
Y342028D01*
X306918Y342614D02*
X307504Y342028D01*
X338781Y305419D02*
X339839Y306476D01*
X338069Y300304D02*
X338781Y301016D01*
Y305419D01*
X338069Y297835D02*
Y300304D01*
X377802Y350262D02*
X389486D01*
X374493Y346953D02*
X377802Y350262D01*
X389486D02*
X392100Y347648D01*
X374001Y346953D02*
X374493D01*
X374196Y263914D02*
X389168Y248942D01*
X309587Y286400D02*
X311452Y288265D01*
Y297684D01*
X302500Y286400D02*
X309587D01*
X310167Y285000D02*
X313500Y288333D01*
Y302200D01*
X301920Y285000D02*
X310167D01*
X334069Y300469D02*
Y305431D01*
X334138Y311496D02*
X334146Y311504D01*
X334000Y300400D02*
X334069Y300469D01*
Y305431D02*
X334138Y305500D01*
X338069Y297835D02*
X338069Y297835D01*
X334146Y311504D02*
X334177D01*
X349835Y264394D02*
X350314Y263914D01*
X374196D01*
X389168Y247885D02*
Y248942D01*
X313409Y302291D02*
Y306484D01*
Y302291D02*
X313500Y302200D01*
X299321Y345800D02*
X339295D01*
X296489Y348632D02*
X299321Y345800D01*
X301609Y347686D02*
X339389D01*
X339295Y345800D02*
X342300Y342795D01*
X339389Y347686D02*
X343700Y343375D01*
X327775Y343600D02*
X333767D01*
X334828Y342539D01*
Y342034D02*
Y342539D01*
X327189Y336110D02*
Y343014D01*
X327775Y343600D01*
X334828Y342034D02*
X335000Y341862D01*
X343700Y325700D02*
Y343375D01*
X339315Y323315D02*
X342300Y326300D01*
X339347Y321346D02*
X343700Y325700D01*
X342300Y326300D02*
Y342795D01*
X336219Y341681D02*
X339800D01*
X336319Y336619D02*
X339700D01*
X339919Y336400D01*
X339800Y341681D02*
X339919Y341800D01*
X392100Y328900D02*
Y347648D01*
Y328900D02*
X392200Y328800D01*
X388300Y322400D02*
X391614D01*
X392200Y322986D01*
Y328800D01*
X307504Y302933D02*
Y307756D01*
X304138Y293603D02*
Y299795D01*
X309000Y289100D02*
Y292365D01*
X308965Y292400D02*
X309000Y292365D01*
X308965Y293500D02*
Y299500D01*
X308862D02*
X309472Y300110D01*
Y302772D01*
X315964Y300772D02*
X318468D01*
X319247Y299993D02*
X319547D01*
X318468Y300772D02*
X319247Y299993D01*
X315378Y301358D02*
Y302772D01*
X319547Y296953D02*
Y299993D01*
X315378Y301358D02*
X315964Y300772D01*
X325553Y299101D02*
X326025Y298628D01*
X329228D01*
X339128Y313472D02*
X339966Y312634D01*
Y307358D02*
Y312634D01*
X332110Y313472D02*
X339128D01*
X290500Y328800D02*
X292741Y326559D01*
X294826D02*
X296101Y325284D01*
X292741Y326559D02*
X294226D01*
X283300Y329400D02*
Y335365D01*
X291354Y321346D02*
X302484D01*
X283300Y329400D02*
X291354Y321346D01*
X293058Y333519D02*
X295055Y331522D01*
X339839Y307230D02*
X339966Y307358D01*
X339839Y306476D02*
Y307230D01*
X319547Y296953D02*
X323000Y293500D01*
X324000D01*
X348099Y229769D02*
Y233201D01*
X348539Y229506D02*
Y229769D01*
Y229506D02*
X349371Y228673D01*
X349635D02*
X355708Y222600D01*
X385657D01*
X348099Y229453D02*
Y229769D01*
X349371Y228673D02*
X349635D01*
X383274Y286905D02*
Y287114D01*
Y286905D02*
X384000Y286179D01*
Y283253D02*
Y286179D01*
X382000Y297400D02*
X382866Y296534D01*
Y293686D02*
Y296534D01*
X382142Y281395D02*
X384000Y283253D01*
X382142Y281100D02*
Y281395D01*
X385657Y222600D02*
X387652Y224595D01*
Y226177D02*
X388117Y226641D01*
X387652Y224595D02*
Y226177D01*
X346600Y234700D02*
X348099Y233201D01*
X262856Y348632D02*
X296489D01*
X261218Y346994D02*
X262856Y348632D01*
X261218Y344453D02*
Y346994D01*
X259432Y342667D02*
X261218Y344453D01*
X244524Y342667D02*
X259432D01*
X257000Y346686D02*
X258713D01*
X259000Y346972D01*
X249287Y346686D02*
X251472D01*
X249000Y346972D02*
X249287Y346686D01*
X271027Y346426D02*
X276274D01*
X276300Y346400D01*
X244900Y318500D02*
X245161Y318761D01*
Y319575D02*
X245286Y319700D01*
X245161Y318761D02*
Y319575D01*
X239569Y319900D02*
X240769Y321100D01*
X239200Y319900D02*
X239569D01*
X245286Y319700D02*
X258600D01*
X240769Y321100D02*
X264647D01*
X262700Y315600D02*
X264647D01*
X258600Y319700D02*
X262700Y315600D01*
X234000Y329423D02*
X234942Y330365D01*
X234000Y326028D02*
Y329423D01*
X234942Y330365D02*
X235100D01*
X221500Y345835D02*
Y349000D01*
Y345835D02*
X221796Y345539D01*
X229942Y330365D02*
X230100D01*
X229000Y329423D02*
X229942Y330365D01*
X229000Y326028D02*
Y329423D01*
X227790Y322500D02*
X246654D01*
X225143Y325148D02*
X227790Y322500D01*
X282714Y326900D02*
X283300Y326314D01*
X280114Y326900D02*
X282714D01*
X279600Y326386D02*
X280114Y326900D01*
X283300Y318435D02*
Y326314D01*
X274168Y326386D02*
X279600D01*
X273654Y326900D02*
X274168Y326386D01*
X283300Y318435D02*
X284243Y319378D01*
X302484D01*
X297000Y303962D02*
Y307319D01*
X296469Y303431D02*
X297000Y303962D01*
X298914Y309500D02*
X300000Y308414D01*
X295426Y309500D02*
X298914D01*
X294081Y308155D02*
X295426Y309500D01*
X304535Y311504D02*
X304543Y311496D01*
X305437Y307764D02*
X307496D01*
X307504Y307756D01*
X304543Y308658D02*
X305437Y307764D01*
X304543Y308658D02*
Y311496D01*
X302484Y311504D02*
X304535D01*
X289730Y308000D02*
X289885Y308155D01*
X294081D01*
X300000Y288900D02*
Y308414D01*
X290161Y303431D02*
X296469D01*
X289730Y303000D02*
X290161Y303431D01*
X294181Y293000D02*
X298600Y288581D01*
X289730Y293000D02*
X294181D01*
X268470Y298000D02*
X270340D01*
X273517Y294823D01*
Y273643D02*
Y294823D01*
X261100Y302462D02*
X261500Y302862D01*
Y307500D01*
X261600Y297238D02*
X262076Y296761D01*
X261100Y297738D02*
X261600Y297238D01*
Y293500D02*
Y297238D01*
X262839Y296761D02*
X266600Y293000D01*
X268470D01*
X262076Y296761D02*
X262839D01*
X273600Y333900D02*
X281835D01*
X283300Y335365D01*
X256728Y329937D02*
X259602D01*
X254000Y327209D02*
X256728Y329937D01*
X259602D02*
X259614Y329925D01*
X229000Y343500D02*
X234900Y337600D01*
X260980Y339000D02*
X262527Y340547D01*
X234000Y342000D02*
X237000Y339000D01*
X267561Y337600D02*
X270509Y340547D01*
X234900Y337600D02*
X267561D01*
X237000Y339000D02*
X260980D01*
X262527Y340547D02*
X265001D01*
X299079Y342100D02*
X301131Y340047D01*
X301500D01*
X293058Y333519D02*
Y335142D01*
X293000Y335200D02*
X293058Y335142D01*
X296101Y325284D02*
X302484D01*
X334138Y305500D02*
Y311496D01*
X303092Y291457D02*
X304138Y292503D01*
X303092Y289931D02*
Y291457D01*
X298600Y288320D02*
X301920Y285000D01*
X298600Y288320D02*
Y288581D01*
X300000Y288900D02*
X302500Y286400D01*
X336100Y341562D02*
X336219Y341681D01*
X336100Y336838D02*
X336319Y336619D01*
X329157Y337130D02*
X329165Y337138D01*
X329157Y336110D02*
Y337130D01*
X329165Y337138D02*
X335000D01*
X311441Y297695D02*
Y306484D01*
Y297695D02*
X311452Y297684D01*
X305343Y300772D02*
X307504Y302933D01*
X305114Y300772D02*
X305343D01*
X304138Y299795D02*
X305114Y300772D01*
X295782Y337937D02*
X295782D01*
X293800Y339919D02*
X295782Y337937D01*
X270509Y340547D02*
X271493D01*
X299658Y343500D02*
X300544Y342614D01*
X272858Y342100D02*
X299079D01*
X272272Y341514D02*
X272858Y342100D01*
X272272Y341327D02*
Y341514D01*
X268445Y343500D02*
X299658D01*
X271493Y340547D02*
X272272Y341327D01*
X265445Y340500D02*
X268445Y343500D01*
X254000Y326028D02*
Y327209D01*
X267846Y334400D02*
X267946Y334500D01*
X263000Y334400D02*
X267846D01*
Y327000D02*
X267946Y326900D01*
X262300Y327000D02*
X267846D01*
X225143Y325148D02*
Y331550D01*
X222180Y334513D02*
X225143Y331550D01*
X221784Y325216D02*
Y329788D01*
Y325216D02*
X223158Y323842D01*
X246654Y322500D02*
X258414D01*
X259000Y323086D02*
Y326028D01*
X246654Y322500D02*
X249000Y324847D01*
X258414Y322500D02*
X259000Y323086D01*
X221476Y345859D02*
X221500Y345835D01*
X244000Y326028D02*
Y334531D01*
X234000Y342000D02*
Y346972D01*
X229000Y343500D02*
Y346972D01*
X334177Y323315D02*
X339315D01*
X334177Y321346D02*
X339347D01*
X249000Y324847D02*
Y326028D01*
X222079Y334613D02*
X222180Y334513D01*
X221784Y334613D02*
X222079D01*
X243414Y350500D02*
X251654D01*
X227586D02*
X243414D01*
X254000Y346972D02*
Y348153D01*
X251654Y350500D02*
X254000Y348153D01*
X221796Y340518D02*
X222091D01*
X244000Y346972D02*
Y349914D01*
X243414Y350500D02*
X244000Y349914D01*
X225500Y348414D02*
X227586Y350500D01*
X225500Y344273D02*
Y348414D01*
X221796Y340864D02*
X222091D01*
X225500Y344273D01*
X211290Y340222D02*
X211316Y340248D01*
X254000Y345791D02*
Y346972D01*
X217182Y329593D02*
X221489D01*
X221784Y329889D01*
X216887Y329298D02*
X217182Y329593D01*
X222052Y320689D02*
X223123D01*
X220965Y319603D02*
X222052Y320689D01*
X220965Y319500D02*
Y319603D01*
X216886Y346179D02*
X217206Y345859D01*
X221476D01*
X211316Y340248D02*
X216616D01*
X216912Y340544D02*
X221526D01*
X221796Y340814D01*
X216616Y340248D02*
X216912Y340544D01*
X222091Y340518D02*
X222387Y340222D01*
D12*
X355100Y268700D02*
X355898Y267902D01*
Y267368D02*
Y267902D01*
Y267368D02*
X357200Y266066D01*
Y265800D02*
Y266066D01*
X342411Y237089D02*
X342599Y236901D01*
X332850Y247350D02*
X342411Y237789D01*
X268809Y247350D02*
X332850D01*
X342411Y237089D02*
Y237789D01*
X342599Y229453D02*
Y236901D01*
X260261Y234151D02*
Y238802D01*
X268809Y247350D01*
X268317Y248538D02*
X335521D01*
X258981Y239202D02*
X268317Y248538D01*
X258981Y238079D02*
Y239202D01*
X256037Y233580D02*
Y235136D01*
X258981Y238079D01*
X257794Y239694D02*
X267825Y249725D01*
X251036Y234500D02*
X253723D01*
X267825Y249725D02*
X342075D01*
X257794Y238571D02*
Y239694D01*
X253723Y234500D02*
X257794Y238571D01*
X335521Y248538D02*
X357405Y226653D01*
X342075Y249725D02*
X345300Y246500D01*
X343401Y250913D02*
X345828Y248485D01*
X260524Y255187D02*
X264798Y250913D01*
X343401D01*
X354522Y252100D02*
X355281Y252859D01*
X264500Y252924D02*
X265324Y252100D01*
X354522D01*
X264500Y252924D02*
Y261843D01*
X263280Y263064D02*
X264500Y261843D01*
X260524Y255187D02*
Y258287D01*
X355281Y252859D02*
X363441D01*
X345300Y246500D02*
X354562D01*
X357067Y249006D02*
X358234D01*
X354562Y246500D02*
X357067Y249006D01*
X255857Y233400D02*
X256037Y233580D01*
X255857Y228895D02*
Y233400D01*
X345828Y248485D02*
X345982D01*
X353500Y268700D02*
X355100D01*
X363441Y252859D02*
X365794Y250506D01*
X377194D01*
X388102Y239598D01*
X260000Y233891D02*
X260261Y234151D01*
X357405Y226653D02*
X359069D01*
X263280Y263064D02*
Y272067D01*
X255857Y228895D02*
X255999Y228753D01*
X250599D02*
X251036Y229190D01*
Y234500D01*
D13*
X321284Y336110D02*
X321318Y336145D01*
Y342632D02*
X322386Y343700D01*
X322600D01*
X321318Y336145D02*
Y342632D01*
X221850Y242750D02*
X223050D01*
X237800Y242800D02*
X246150Y251150D01*
Y252200D01*
X220700Y243900D02*
Y245200D01*
Y243900D02*
X221850Y242750D01*
X355491Y342144D02*
X361944D01*
X353895Y340547D02*
X355491Y342144D01*
X361944D02*
X365400Y345600D01*
X347299Y340547D02*
X353895D01*
X370000Y342300D02*
X371253Y341047D01*
X374001D01*
X243250Y265250D02*
X244350D01*
X244800Y265700D01*
Y279468D01*
X245524Y280192D01*
X381947Y267853D02*
X385299D01*
X380300Y269500D02*
X381947Y267853D01*
D38*
X272647Y310581D02*
X284000Y299229D01*
X258174Y310581D02*
X272647D01*
X284000Y289479D02*
Y299229D01*
X343200Y282400D02*
X347272Y286472D01*
X341364Y282400D02*
X343200D01*
X347272Y286472D02*
X355972D01*
X310147Y281300D02*
X316500Y287653D01*
X316500D01*
X292179Y281300D02*
X310147D01*
X355972Y286472D02*
X359700Y290200D01*
X358700Y255500D02*
X369200D01*
X357103Y257097D02*
Y257350D01*
X340053Y259863D02*
X354337D01*
X354562Y259638D01*
X354815D02*
X357103Y257350D01*
Y257097D02*
X358700Y255500D01*
X354562Y259638D02*
X354815D01*
X346000Y268700D02*
X353500D01*
X329041Y265400D02*
X342700D01*
X346000Y268700D01*
X359700Y290200D02*
X369600D01*
X374800Y285000D01*
X381686D01*
X202000Y328000D02*
Y343864D01*
Y328000D02*
X215411Y314589D01*
Y307621D02*
Y314589D01*
X321154Y259267D02*
X323007Y261121D01*
X324762D01*
X321154Y258287D02*
Y259267D01*
X324762Y261121D02*
X329041Y265400D01*
X220664Y310500D02*
X223164Y308000D01*
X217984Y310500D02*
X220664D01*
X217311Y311173D02*
Y316289D01*
X216035Y317565D02*
Y319500D01*
Y317565D02*
X217311Y316289D01*
Y311173D02*
X217984Y310500D01*
X216954Y298023D02*
Y306077D01*
X215411Y307621D02*
X216954Y306077D01*
X273434Y312481D02*
X279008Y306908D01*
X257295Y304985D02*
Y309703D01*
X255395Y305772D02*
Y310621D01*
X257255Y312481D01*
X273434D01*
X257295Y309703D02*
X258174Y310581D01*
X231862Y288795D02*
X233100Y290034D01*
X236305D01*
X255053Y302743D02*
X257295Y304985D01*
X295243Y300500D02*
X296605Y299138D01*
X279008Y306908D02*
X285416Y300500D01*
X295243D01*
X295467Y298000D02*
X296605Y299138D01*
X289730Y298000D02*
X295467D01*
X239000Y294500D02*
Y296227D01*
X241695Y298922D02*
X243422D01*
X249143Y304643D01*
X239000Y296227D02*
X241695Y298922D01*
X249143Y304643D02*
X254267D01*
X239000Y292728D02*
Y294500D01*
X231862Y288500D02*
Y288795D01*
X232181Y277819D02*
Y288181D01*
Y277819D02*
X232500Y277500D01*
X254267Y304643D02*
X255395Y305772D01*
X236305Y290034D02*
X239000Y292728D01*
X279008Y306908D02*
Y306908D01*
X231862Y288500D02*
X232181Y288181D01*
X216887Y334513D02*
X222180D01*
X284000Y289479D02*
X292179Y281300D01*
X250800Y300502D02*
X253041Y302743D01*
X250800Y294535D02*
Y300502D01*
X253041Y302743D02*
X255053D01*
X212265Y268665D02*
Y277565D01*
X212500Y277800D01*
X212100Y268500D02*
X212265Y268665D01*
X223123Y320689D02*
Y323342D01*
X210687Y334513D02*
X216887D01*
X210917Y346500D02*
X211290Y346127D01*
X239000Y342000D02*
Y346972D01*
X204636Y346500D02*
X210917D01*
X202000Y343864D02*
X204636Y346500D01*
X216954Y298023D02*
X218477Y296500D01*
Y289634D02*
Y296500D01*
X217638Y288500D02*
Y288795D01*
X218477Y289634D01*
X210451Y288500D02*
X217638D01*
X210451D02*
X212500Y286451D01*
X208705Y289000D02*
X210451D01*
X208000Y289705D02*
X208705Y289000D01*
X212500Y277500D02*
Y286451D01*
D39*
X304516Y313437D02*
X304551Y313472D01*
X276700Y312100D02*
X296672D01*
X298009Y313437D01*
X304516D01*
X341353Y319378D02*
X343442Y321468D01*
X334177Y319378D02*
X341353D01*
X344768Y320268D02*
X355068D01*
X341910Y317409D02*
X344768Y320268D01*
X334177Y317409D02*
X341910D01*
X368174Y325600D02*
X373269Y320506D01*
X367677Y324400D02*
X373543Y318534D01*
X355068Y320268D02*
X359200Y324400D01*
X367677D01*
X358703Y325600D02*
X368174D01*
X354571Y321468D02*
X358703Y325600D01*
X373269Y320506D02*
X374097D01*
X374283Y320320D01*
X375023Y318534D02*
X375265Y318776D01*
X375976D01*
X373543Y318534D02*
X375023D01*
X375976Y318776D02*
X376162Y318962D01*
X373692Y312983D02*
X374945D01*
X374994Y313032D01*
X372282Y311574D02*
X373692Y312983D01*
X374036Y315024D02*
Y315268D01*
X371082Y312070D02*
X374036Y315024D01*
X371082Y294521D02*
Y312070D01*
X372282Y295018D02*
Y311574D01*
X386900Y281658D02*
Y288431D01*
X375000Y267200D02*
Y270200D01*
X379300Y274500D01*
X379000Y313500D02*
X379809Y314310D01*
X385800D01*
X390900Y309209D01*
Y276301D02*
Y309209D01*
X389099Y274500D02*
X390900Y276301D01*
X379300Y274500D02*
X389099D01*
X329157Y301942D02*
X333110Y297990D01*
X334884D01*
X299200Y349500D02*
X369531D01*
X370000Y349031D01*
X345586Y329100D02*
X354431D01*
X370000Y342300D02*
Y349031D01*
X374153Y341200D02*
X381198D01*
X374001Y341047D02*
X374153Y341200D01*
X382398Y342400D02*
X383300D01*
X381198Y341200D02*
X382398Y342400D01*
X387315Y297400D02*
Y303100D01*
X329157Y301942D02*
Y306484D01*
X290842Y324942D02*
X292470Y323315D01*
X302484D01*
X354431Y329100D02*
X359031Y333700D01*
X377000D02*
X383300Y327400D01*
X359031Y333700D02*
X377000D01*
X377200Y290100D02*
X385900D01*
X387315Y291515D01*
Y297400D01*
X386900Y281658D02*
X387457Y281100D01*
X376703Y288900D02*
X386431D01*
X386900Y288431D01*
X371082Y294521D02*
X376703Y288900D01*
X372282Y295018D02*
X377200Y290100D01*
X343442Y321468D02*
X354571D01*
X276300Y267764D02*
Y299900D01*
X270761Y262225D02*
X276300Y267764D01*
X270761Y259863D02*
Y262225D01*
X273100Y303100D02*
X276300Y299900D01*
X270553Y320706D02*
X277959Y313300D01*
X295803D01*
X297944Y315441D02*
X302484D01*
X295803Y313300D02*
X297944Y315441D01*
X273200Y315600D02*
X276700Y312100D01*
X270553Y320706D02*
Y321100D01*
Y315600D02*
X273200D01*
X268470Y303000D02*
X268570Y303100D01*
X273100D01*
D40*
X227100Y283700D02*
X227138Y283738D01*
X222700Y283700D02*
X227100D01*
X222500Y283500D02*
X222700Y283700D01*
X227138Y283738D02*
Y288500D01*
X227161Y288524D01*
Y289734D01*
X222386Y282339D02*
Y288476D01*
X379800Y263500D02*
X381353Y261947D01*
X385299D01*
X226596Y299513D02*
X228523Y297586D01*
X225154Y299513D02*
X226596D01*
X224041Y300626D02*
X225154Y299513D01*
X223500Y303114D02*
X224041Y302573D01*
X223500Y303114D02*
Y303382D01*
X228523Y296500D02*
Y297586D01*
X224041Y300626D02*
Y302573D01*
X208000Y310295D02*
Y315500D01*
X204500Y319000D02*
X208000Y315500D01*
X225448Y319689D02*
X225535Y319603D01*
X222776Y319689D02*
X225448D01*
X225535Y319500D02*
Y319603D01*
X222500Y261800D02*
Y268300D01*
X222386Y282339D02*
X222500Y282224D01*
X222362Y288500D02*
X222386Y288476D01*
X222500Y268300D02*
Y282524D01*
X228523Y291096D02*
Y296500D01*
X227161Y289734D02*
X228523Y291096D01*
X222500Y261800D02*
X223000Y261300D01*
D41*
X344147Y346453D02*
X347299D01*
X343000Y347600D02*
X344147Y346453D01*
X239000Y326028D02*
Y331300D01*
X237000Y333300D02*
X239000Y331300D01*
D42*
X340098Y290762D02*
Y294500D01*
X342500Y296902D02*
Y300800D01*
X340098Y294500D02*
X342500Y296902D01*
X338800Y291300D02*
Y295038D01*
X341202Y297440D01*
Y301338D01*
X306458Y262028D02*
X306458D01*
X311100Y266670D02*
Y276100D01*
X306458Y262028D02*
X311100Y266670D01*
X303831Y259401D02*
X306458Y262028D01*
X303831Y258287D02*
Y259401D01*
X306587Y273181D02*
Y273422D01*
Y272067D02*
Y273181D01*
X312363Y279198D02*
X322463Y289298D01*
X306587Y273422D02*
X312363Y279198D01*
X312363D01*
X322463Y289298D02*
X336798D01*
X337335Y288000D02*
X340098Y290762D01*
X336798Y289298D02*
X338800Y291300D01*
X353363Y303400D02*
X353600D01*
X352963Y303000D02*
X353363Y303400D01*
X346590Y305070D02*
Y305569D01*
X344163Y304298D02*
X345818D01*
X348721Y307701D02*
X349835D01*
X346590Y305569D02*
X348721Y307701D01*
X345818Y304298D02*
X346590Y305070D01*
X312900Y277900D02*
X323000Y288000D01*
X312900Y277900D02*
X312900D01*
X311100Y276100D02*
X312900Y277900D01*
X341202Y301338D02*
X344163Y304298D01*
X344700Y303000D02*
X352963D01*
X342500Y300800D02*
X344700Y303000D01*
X323000Y288000D02*
X337335D01*
D43*
X328523Y279223D02*
X343113D01*
X323910Y274610D02*
X328523Y279223D01*
X323910Y272067D02*
Y274610D01*
D44*
X381500Y310000D02*
X382000Y309500D01*
Y303100D02*
Y309500D01*
X271001Y346453D02*
X271027Y346426D01*
X265001Y346453D02*
X271001D01*
X211361Y325139D02*
X211431Y325069D01*
X211361Y325139D02*
Y329225D01*
X211288Y329298D02*
X211361Y329225D01*
X239000Y311429D02*
X248500D01*
X227539Y313917D02*
Y314587D01*
X228954Y316001D01*
X230465Y319500D02*
X234626D01*
X228954Y316001D02*
X229120D01*
X227240Y313618D02*
X227539Y313917D01*
X229120Y316001D02*
X230430Y317311D01*
Y319500D01*
X265000Y346453D02*
X265001Y346453D01*
X223164Y308000D02*
X225327D01*
X221000D02*
X223164D01*
X227240Y303382D02*
Y306087D01*
X232724Y303382D02*
X239000Y309658D01*
X227240Y303382D02*
X232724D01*
X239000Y309658D02*
Y311429D01*
X219760Y304051D02*
Y306760D01*
Y303382D02*
Y304051D01*
X225327Y308000D02*
X227240Y306087D01*
X219760Y306760D02*
X221000Y308000D01*
D45*
X355400Y345800D02*
D03*
D46*
X365400D02*
D03*
D47*
X303831Y258287D02*
D03*
X306587Y272067D02*
D03*
X332571D02*
D03*
X323910D02*
D03*
X315248D02*
D03*
X297926D02*
D03*
X289264D02*
D03*
X271941D02*
D03*
X263280D02*
D03*
X254619D02*
D03*
X280603D02*
D03*
X260524Y258287D02*
D03*
X269185D02*
D03*
X277847D02*
D03*
X286508D02*
D03*
X295170D02*
D03*
X312493D02*
D03*
X321154D02*
D03*
X329815D02*
D03*
X338477D02*
D03*
D48*
X363614Y303370D02*
D03*
X349835Y307701D02*
D03*
X363614Y260063D02*
D03*
Y268724D02*
D03*
Y277386D02*
D03*
Y286047D02*
D03*
Y294709D02*
D03*
Y312032D02*
D03*
Y320693D02*
D03*
Y329354D02*
D03*
Y338016D02*
D03*
X350835Y255732D02*
D03*
Y264394D02*
D03*
Y273055D02*
D03*
Y281716D02*
D03*
Y290378D02*
D03*
X349835Y299039D02*
D03*
Y316362D02*
D03*
Y325024D02*
D03*
Y333685D02*
D03*
D49*
X334000Y293500D02*
D03*
D50*
X324000D02*
D03*
D51*
X388366Y248994D02*
D03*
Y238994D02*
D03*
Y228994D02*
D03*
D52*
X358234Y249006D02*
D03*
Y239006D02*
D03*
Y229006D02*
D03*
D53*
X383300Y342400D02*
D03*
X388300D02*
D03*
Y332400D02*
D03*
X383300Y327400D02*
D03*
Y322400D02*
D03*
X388300Y327400D02*
D03*
Y322400D02*
D03*
D54*
X374994Y313032D02*
D03*
X374036Y315268D02*
D03*
X376162Y318962D02*
D03*
X374283Y320320D02*
D03*
X343000Y347600D02*
D03*
X357200Y265800D02*
D03*
X375000Y267200D02*
D03*
X379000Y313500D02*
D03*
X341364Y282400D02*
D03*
X345982Y248485D02*
D03*
X353600Y303400D02*
D03*
X343113Y279223D02*
D03*
X356709Y310137D02*
D03*
X316500Y287653D02*
D03*
X334884Y297990D02*
D03*
X374068Y298587D02*
D03*
X322600Y343700D02*
D03*
X345586Y329100D02*
D03*
X301609Y347686D02*
D03*
X381500Y310000D02*
D03*
X380300Y269500D02*
D03*
X383274Y287114D02*
D03*
X382866Y293686D02*
D03*
X381686Y285000D02*
D03*
X369200Y255500D02*
D03*
X342599Y236901D02*
D03*
X346600Y234700D02*
D03*
X237000Y333300D02*
D03*
X244524Y342667D02*
D03*
X257000Y346686D02*
D03*
X251472D02*
D03*
X276300Y346400D02*
D03*
X379800Y263500D02*
D03*
X235100Y330365D02*
D03*
X230100D02*
D03*
X259614Y329925D02*
D03*
X299200Y349500D02*
D03*
X301500Y340047D02*
D03*
X239000Y342000D02*
D03*
X244000Y334531D02*
D03*
D55*
X237800Y242800D02*
D03*
X220700Y245200D02*
D03*
X245524Y280192D02*
D03*
X210400Y249100D02*
D03*
X241800Y229800D02*
D03*
X223100Y234800D02*
D03*
X240500Y279000D02*
D03*
X241400Y270300D02*
D03*
X252200Y260200D02*
D03*
X252100Y247600D02*
D03*
X238100Y260600D02*
D03*
X232900Y249900D02*
D03*
X223700Y259000D02*
D03*
X214100Y245500D02*
D03*
D56*
X334000Y300400D02*
D03*
X338069Y297835D02*
D03*
X339919Y341800D02*
D03*
Y336400D02*
D03*
X309000Y289100D02*
D03*
X329228Y298628D02*
D03*
X290500Y328800D02*
D03*
X290842Y324942D02*
D03*
X227100Y283700D02*
D03*
X247800Y236083D02*
D03*
X260000Y233891D02*
D03*
X255857Y233400D02*
D03*
X251036Y234500D02*
D03*
X244900Y318500D02*
D03*
X239200Y319900D02*
D03*
X221500Y349000D02*
D03*
X211431Y325069D02*
D03*
X297000Y307319D02*
D03*
X261500Y307500D02*
D03*
X261600Y293500D02*
D03*
X293800Y339919D02*
D03*
X293000Y335200D02*
D03*
X303092Y289931D02*
D03*
X263000Y334400D02*
D03*
X262300Y327000D02*
D03*
X212100Y268500D02*
D03*
X234626Y319500D02*
D03*
X222965Y323500D02*
D03*
X204500Y319000D02*
D03*
X204636Y346500D02*
D03*
X222500Y268300D02*
D03*
D57*
X309669Y313669D02*
D03*
X314000D02*
D03*
X318331D02*
D03*
X322661D02*
D03*
X326992D02*
D03*
X309669Y318000D02*
D03*
X314000D02*
D03*
X318331D02*
D03*
X322661D02*
D03*
X326992D02*
D03*
X309669Y322331D02*
D03*
X314000D02*
D03*
X318331D02*
D03*
X322661D02*
D03*
X326992D02*
D03*
X309669Y326661D02*
D03*
X314000D02*
D03*
X318331D02*
D03*
X322661D02*
D03*
X326992D02*
D03*
X309669Y330992D02*
D03*
X314000D02*
D03*
X318331D02*
D03*
X322661D02*
D03*
X326992D02*
D03*
D71*
X307504Y338453D02*
D03*
X309472D02*
D03*
X311441D02*
D03*
X313409D02*
D03*
X315378D02*
D03*
X317347D02*
D03*
X319315D02*
D03*
X321284D02*
D03*
X323252D02*
D03*
X325220D02*
D03*
X327189D02*
D03*
X329157D02*
D03*
Y306209D02*
D03*
X327189D02*
D03*
X325220D02*
D03*
X323252D02*
D03*
X321284D02*
D03*
X319315D02*
D03*
X317347D02*
D03*
X315378D02*
D03*
X313409D02*
D03*
X311441D02*
D03*
X309472D02*
D03*
X307504D02*
D03*
D72*
X334453Y333157D02*
D03*
Y331189D02*
D03*
Y329221D02*
D03*
Y327252D02*
D03*
Y325284D02*
D03*
Y323315D02*
D03*
Y321346D02*
D03*
Y319378D02*
D03*
Y317409D02*
D03*
Y315441D02*
D03*
Y313472D02*
D03*
Y311504D02*
D03*
X302209D02*
D03*
Y313472D02*
D03*
Y315441D02*
D03*
Y317409D02*
D03*
Y319378D02*
D03*
Y321346D02*
D03*
Y323315D02*
D03*
Y325284D02*
D03*
Y327252D02*
D03*
Y329221D02*
D03*
Y331189D02*
D03*
Y333157D02*
D03*
D73*
X318331Y322331D02*
D03*
D74*
X374001Y341047D02*
D03*
Y346953D02*
D03*
X347299Y340547D02*
D03*
Y346453D02*
D03*
X385299Y261947D02*
D03*
Y267853D02*
D03*
X255999Y228753D02*
D03*
Y222847D02*
D03*
X271001Y340547D02*
D03*
Y346453D02*
D03*
X265001Y340547D02*
D03*
Y346453D02*
D03*
X342599Y223547D02*
D03*
Y229453D02*
D03*
X348099Y223547D02*
D03*
Y229453D02*
D03*
X250599Y228753D02*
D03*
Y222847D02*
D03*
X211290Y346179D02*
D03*
Y340274D02*
D03*
X211288Y329298D02*
D03*
Y335203D02*
D03*
X216887D02*
D03*
Y329298D02*
D03*
X216886Y340274D02*
D03*
Y346179D02*
D03*
D75*
X387315Y303100D02*
D03*
X382000D02*
D03*
X387315Y297400D02*
D03*
X382000D02*
D03*
X387457Y281100D02*
D03*
X382142D02*
D03*
D76*
X270553Y315600D02*
D03*
X264647D02*
D03*
Y321100D02*
D03*
X270553D02*
D03*
D77*
X283300Y335365D02*
D03*
Y318435D02*
D03*
D78*
X261100Y302462D02*
D03*
Y297738D02*
D03*
X336100Y336838D02*
D03*
Y341562D02*
D03*
X296900Y303862D02*
D03*
Y299138D02*
D03*
X221796Y345589D02*
D03*
Y340864D02*
D03*
X221784Y329889D02*
D03*
Y334613D02*
D03*
X294700Y331462D02*
D03*
Y326738D02*
D03*
D79*
X268470Y308000D02*
D03*
X289730Y303000D02*
D03*
X268470Y293000D02*
D03*
X289730Y308000D02*
D03*
Y298000D02*
D03*
Y293000D02*
D03*
X268470Y298000D02*
D03*
Y303000D02*
D03*
D80*
X229000Y346972D02*
D03*
X234000D02*
D03*
X239000D02*
D03*
X244000D02*
D03*
X249000D02*
D03*
X254000D02*
D03*
X259000D02*
D03*
Y326028D02*
D03*
X254000D02*
D03*
X249000D02*
D03*
X244000D02*
D03*
X239000D02*
D03*
X234000D02*
D03*
X229000D02*
D03*
D81*
X267946Y334500D02*
D03*
X273654D02*
D03*
X267946Y326900D02*
D03*
X273654D02*
D03*
D82*
X304138Y299200D02*
D03*
X308862D02*
D03*
X334138Y305500D02*
D03*
X338862D02*
D03*
X227138Y288900D02*
D03*
X231862D02*
D03*
X222362D02*
D03*
X217638D02*
D03*
D83*
X319647Y299101D02*
D03*
X325553D02*
D03*
D84*
X304035Y292400D02*
D03*
X308965D02*
D03*
X220965Y319500D02*
D03*
X216035D02*
D03*
X225535D02*
D03*
X230465D02*
D03*
D85*
X250800Y311465D02*
D03*
Y294535D02*
D03*
X239000Y311429D02*
D03*
Y294500D02*
D03*
D86*
X208000Y289705D02*
D03*
Y310295D02*
D03*
D87*
X227240Y313618D02*
D03*
X219760D02*
D03*
Y303382D02*
D03*
X223500D02*
D03*
X227240D02*
D03*
D88*
X222500Y236868D02*
D03*
D89*
Y278600D02*
D03*
X212500D02*
D03*
X232500D02*
D03*
D90*
X218477Y296500D02*
D03*
X228523D02*
D03*
D91*
X356377Y309181D02*
X356527Y309330D01*
Y309954D01*
X356377Y297476D02*
Y309181D01*
X356527Y309954D02*
X356709Y310137D01*
X343681Y292505D02*
X346429Y295253D01*
X342195Y287119D02*
X343681Y288605D01*
Y292505D01*
X344900Y288100D02*
Y292000D01*
X342700Y285900D02*
X344900Y288100D01*
Y292000D02*
X346934Y294034D01*
X320200Y268300D02*
Y277500D01*
X314054Y259878D02*
Y262154D01*
X320200Y268300D01*
X315248Y274271D02*
X318981Y278005D01*
X315248Y272067D02*
Y274271D01*
X318981Y278005D02*
X326495Y285519D01*
X318981Y278005D02*
Y278005D01*
X340595Y285519D02*
X342195Y287119D01*
X342195D01*
X326495Y285519D02*
X340595D01*
X327000Y284300D02*
X341100D01*
X342700Y285900D01*
X342700D01*
X346429Y295253D02*
X354154D01*
X346934Y294034D02*
X354659D01*
X320200Y277500D02*
X327000Y284300D01*
X354154Y295253D02*
X356377Y297476D01*
X359889Y309398D02*
X361538Y311047D01*
X357596Y307106D02*
X359889Y309398D01*
X357596Y296971D02*
Y307106D01*
X359889Y309398D02*
Y309398D01*
X361538Y311047D02*
X363614D01*
X354659Y294034D02*
X357596Y296971D01*
D92*
X358804Y317004D02*
X377904D01*
X353200Y311400D02*
X358804Y317004D01*
X377904D02*
X383300Y322400D01*
X339359Y315441D02*
X343400Y311400D01*
X353200D01*
X334177Y315441D02*
X339359D01*
D93*
X246150Y252200D02*
D03*
D94*
X243250Y265250D02*
D03*
D95*
X223050Y242750D02*
D03*
M02*
