G04*
G04 #@! TF.GenerationSoftware,Altium Limited,Altium Designer,21.1.1 (26)*
G04*
G04 Layer_Color=32896*
%FSLAX25Y25*%
%MOIN*%
G70*
G04*
G04 #@! TF.SameCoordinates,D6B6CD0C-24BE-41C4-A853-45D6888EAD6D*
G04*
G04*
G04 #@! TF.FilePolarity,Positive*
G04*
G01*
G75*
%ADD10C,0.00984*%
%ADD11C,0.01000*%
%ADD12C,0.00787*%
%ADD13C,0.00600*%
%ADD111C,0.00500*%
D10*
X355892Y338635D02*
G03*
X355892Y338635I-492J0D01*
G01*
X301697Y308354D02*
G03*
X301697Y308354I-492J0D01*
G01*
X334492Y300665D02*
G03*
X334492Y300665I-492J0D01*
G01*
X277292Y341165D02*
G03*
X277292Y341165I-492J0D01*
G01*
X226185Y346972D02*
G03*
X226185Y346972I-492J0D01*
G01*
X256392Y315865D02*
G03*
X256392Y315865I-492J0D01*
G01*
X230291Y302921D02*
G03*
X230291Y302921I-492J0D01*
G01*
X208858Y278600D02*
G03*
X208858Y278600I-492J0D01*
G01*
X234392Y314665D02*
G03*
X234392Y314665I-492J0D01*
G01*
D11*
X295100Y311800D02*
G03*
X295100Y311800I-1000J0D01*
G01*
X245524Y224287D02*
X348524D01*
X245524D02*
Y287287D01*
X348524D01*
Y224287D02*
Y287287D01*
X291200Y290200D02*
Y291100D01*
X266800Y290200D02*
X291200D01*
X266800D02*
Y291200D01*
X266600Y310100D02*
Y311000D01*
X291600D01*
Y309800D02*
Y311000D01*
D12*
X351207Y350406D02*
X369593D01*
X351207Y341194D02*
X369593D01*
X371244Y338882D02*
Y349118D01*
Y338882D02*
X376756D01*
X371244Y349118D02*
X376756D01*
Y338882D02*
Y349118D01*
X344544Y338382D02*
Y348618D01*
Y338382D02*
X350056D01*
X344544Y348618D02*
X350056D01*
Y338382D02*
Y348618D01*
X303764Y307764D02*
Y309437D01*
Y307764D02*
X305437D01*
X331224D02*
X332898D01*
Y309437D01*
Y335224D02*
Y336898D01*
X331224D02*
X332898D01*
X303764Y335224D02*
Y336898D01*
X305437D01*
X276410Y315089D02*
Y338711D01*
X290190Y315089D02*
Y338711D01*
X382544Y259782D02*
Y270018D01*
Y259782D02*
X388056D01*
X382544Y270018D02*
X388056D01*
Y259782D02*
Y270018D01*
X258756Y220682D02*
Y230918D01*
X253244D02*
X258756D01*
X253244Y220682D02*
X258756D01*
X253244D02*
Y230918D01*
X257742Y296676D02*
Y303566D01*
X264446Y296655D02*
Y303545D01*
X268244Y338382D02*
Y348618D01*
Y338382D02*
X273756D01*
X268244Y348618D02*
X273756D01*
Y338382D02*
Y348618D01*
X262244Y338382D02*
Y348618D01*
Y338382D02*
X267756D01*
X262244Y348618D02*
X267756D01*
Y338382D02*
Y348618D01*
X339446Y335755D02*
Y342645D01*
X332742Y335776D02*
Y342666D01*
X226776Y329925D02*
Y343075D01*
X261224D01*
X226776Y329925D02*
X261224D01*
Y343075D01*
X339844Y221382D02*
Y231618D01*
Y221382D02*
X345356D01*
X339844Y231618D02*
X345356D01*
Y221382D02*
Y231618D01*
X345344Y221382D02*
Y231618D01*
Y221382D02*
X350856D01*
X345344Y231618D02*
X350856D01*
Y221382D02*
Y231618D01*
X293542Y298076D02*
Y304966D01*
X300247Y298055D02*
Y304945D01*
X253356Y220682D02*
Y230918D01*
X247844D02*
X253356D01*
X247844Y220682D02*
X253356D01*
X247844D02*
Y230918D01*
X218438Y339803D02*
Y346692D01*
X225143Y339782D02*
Y346671D01*
Y328785D02*
Y335675D01*
X218438Y328806D02*
Y335696D01*
X214045Y338108D02*
Y348345D01*
X208533D02*
X214045D01*
X208533Y338108D02*
X214045D01*
X208533D02*
Y348345D01*
Y327133D02*
Y337369D01*
Y327133D02*
X214045D01*
X208533Y337369D02*
X214045D01*
Y327133D02*
Y337369D01*
X219642Y327133D02*
Y337369D01*
X214131D02*
X219642D01*
X214131Y327133D02*
X219642D01*
X214131D02*
Y337369D01*
Y338108D02*
Y348345D01*
Y338108D02*
X219642D01*
X214131Y348345D02*
X219642D01*
Y338108D02*
Y348345D01*
X333055Y302153D02*
X339945D01*
X333076Y308858D02*
X339966D01*
X302448Y288955D02*
X310552D01*
X291354Y325655D02*
Y332545D01*
X298058Y325634D02*
Y332524D01*
X226034Y285542D02*
X232924D01*
X226055Y292247D02*
X232945D01*
X245288Y304378D02*
X256312D01*
X255721Y293650D02*
X256607D01*
X244993D02*
X245879D01*
X244993D02*
Y312350D01*
X255721D02*
X256607D01*
X244993D02*
X245879D01*
X256607Y293650D02*
Y312350D01*
X214378Y294783D02*
Y305217D01*
X201622Y294783D02*
Y305217D01*
X217595Y307122D02*
X229405D01*
X217595D02*
Y309878D01*
X229405D01*
Y307122D02*
Y309878D01*
X214448Y316055D02*
X222552D01*
X214448Y322945D02*
X222552D01*
X201437Y255372D02*
Y266395D01*
X243563D01*
Y255372D02*
Y266395D01*
X223948Y322945D02*
X232052D01*
X223948Y316055D02*
X232052D01*
X216576Y292258D02*
X223466D01*
X216555Y285554D02*
X223445D01*
X233488Y304343D02*
X244512D01*
X243921Y293614D02*
X244807D01*
X233193D02*
X234079D01*
X233193D02*
Y312315D01*
X243921D02*
X244807D01*
X233193D02*
X234079D01*
X244807Y293614D02*
Y312315D01*
X222226Y293350D02*
X224774D01*
X222226Y299650D02*
X224774D01*
D13*
X376099Y329401D02*
Y332999D01*
X374300D01*
X373700Y332400D01*
Y331200D01*
X374300Y330600D01*
X376099D01*
X372500Y332400D02*
X371900Y332999D01*
X370701D01*
X370101Y332400D01*
Y331800D01*
X370701Y331200D01*
X371301D01*
X370701D01*
X370101Y330600D01*
Y330000D01*
X370701Y329401D01*
X371900D01*
X372500Y330000D01*
X377499Y334001D02*
Y337599D01*
X375699D01*
X375099Y337000D01*
Y335800D01*
X375699Y335200D01*
X377499D01*
X376299D02*
X375099Y334001D01*
X373900D02*
X372700D01*
X373300D01*
Y337599D01*
X373900Y337000D01*
X368501Y334001D02*
X370901D01*
X368501Y336400D01*
Y337000D01*
X369101Y337599D01*
X370301D01*
X370901Y337000D01*
X339101Y324801D02*
X342699D01*
Y326601D01*
X342100Y327201D01*
X340900D01*
X340300Y326601D01*
Y324801D01*
Y326001D02*
X339101Y327201D01*
Y328400D02*
Y329600D01*
Y329000D01*
X342699D01*
X342100Y328400D01*
X342699Y331399D02*
Y333799D01*
X342100D01*
X339700Y331399D01*
X339101D01*
X391898Y311601D02*
Y315199D01*
X390099D01*
X389499Y314600D01*
Y313400D01*
X390099Y312800D01*
X391898D01*
X390699D02*
X389499Y311601D01*
X388300D02*
X387100D01*
X387700D01*
Y315199D01*
X388300Y314600D01*
X382902Y315199D02*
X384101Y314600D01*
X385301Y313400D01*
Y312200D01*
X384701Y311601D01*
X383501D01*
X382902Y312200D01*
Y312800D01*
X383501Y313400D01*
X385301D01*
X340900Y299500D02*
X340301Y300099D01*
Y301299D01*
X340900Y301899D01*
X343300D01*
X343899Y301299D01*
Y300099D01*
X343300Y299500D01*
X343899Y298300D02*
Y297100D01*
Y297700D01*
X340301D01*
X340900Y298300D01*
X343899Y295301D02*
Y294101D01*
Y294701D01*
X340301D01*
X340900Y295301D01*
X203801Y268301D02*
Y271300D01*
X204401Y271899D01*
X205600D01*
X206200Y271300D01*
Y268301D01*
X207400Y271899D02*
X208599D01*
X207999D01*
Y268301D01*
X207400Y268900D01*
X391999Y306501D02*
Y310099D01*
X390199D01*
X389599Y309500D01*
Y308300D01*
X390199Y307700D01*
X391999D01*
X390799D02*
X389599Y306501D01*
X388400D02*
X387200D01*
X387800D01*
Y310099D01*
X388400Y309500D01*
X383001Y310099D02*
X385401D01*
Y308300D01*
X384201Y308900D01*
X383601D01*
X383001Y308300D01*
Y307100D01*
X383601Y306501D01*
X384801D01*
X385401Y307100D01*
X389198Y274401D02*
Y277999D01*
X387399D01*
X386799Y277400D01*
Y276200D01*
X387399Y275600D01*
X389198D01*
X387999D02*
X386799Y274401D01*
X385600D02*
X384400D01*
X385000D01*
Y277999D01*
X385600Y277400D01*
X380801Y274401D02*
Y277999D01*
X382601Y276200D01*
X380202D01*
X389401Y260301D02*
X392999D01*
Y262101D01*
X392400Y262701D01*
X391200D01*
X390600Y262101D01*
Y260301D01*
Y261501D02*
X389401Y262701D01*
Y263900D02*
Y265100D01*
Y264500D01*
X392999D01*
X392400Y263900D01*
Y266899D02*
X392999Y267499D01*
Y268699D01*
X392400Y269299D01*
X391800D01*
X391200Y268699D01*
Y268099D01*
Y268699D01*
X390600Y269299D01*
X390000D01*
X389401Y268699D01*
Y267499D01*
X390000Y266899D01*
X235701Y288199D02*
X239299D01*
Y286400D01*
X238700Y285800D01*
X236300D01*
X235701Y286400D01*
Y288199D01*
X239299Y282201D02*
Y284600D01*
X236900Y282201D01*
X236300D01*
X235701Y282801D01*
Y284000D01*
X236300Y284600D01*
X240701Y288199D02*
X244299D01*
Y286400D01*
X243700Y285800D01*
X241300D01*
X240701Y286400D01*
Y288199D01*
X244299Y284600D02*
Y283401D01*
Y284001D01*
X240701D01*
X241300Y284600D01*
X292599Y343999D02*
X290200Y340401D01*
Y343999D02*
X292599Y340401D01*
X289000D02*
X287801D01*
X288401D01*
Y343999D01*
X289000Y343400D01*
X239999Y321300D02*
X240599Y321899D01*
X241799D01*
X242399Y321300D01*
Y318900D01*
X241799Y318301D01*
X240599D01*
X239999Y318900D01*
X238800Y318301D02*
X237600D01*
X238200D01*
Y321899D01*
X238800Y321300D01*
X233401Y321899D02*
X234601Y321300D01*
X235801Y320100D01*
Y318900D01*
X235201Y318301D01*
X234001D01*
X233401Y318900D01*
Y319500D01*
X234001Y320100D01*
X235801D01*
X321099Y296499D02*
X317501D01*
Y294699D01*
X318100Y294099D01*
X319300D01*
X319900Y294699D01*
Y296499D01*
Y295299D02*
X321099Y294099D01*
Y292900D02*
Y291700D01*
Y292300D01*
X317501D01*
X318100Y292900D01*
X321099Y289901D02*
Y288701D01*
Y289301D01*
X317501D01*
X318100Y289901D01*
X261898Y318701D02*
Y322299D01*
X260099D01*
X259499Y321700D01*
Y320500D01*
X260099Y319900D01*
X261898D01*
X260699D02*
X259499Y318701D01*
X258300D02*
X257100D01*
X257700D01*
Y322299D01*
X258300Y321700D01*
X255301D02*
X254701Y322299D01*
X253501D01*
X252902Y321700D01*
Y319300D01*
X253501Y318701D01*
X254701D01*
X255301Y319300D01*
Y321700D01*
X262299Y313601D02*
Y317199D01*
X260500D01*
X259900Y316600D01*
Y315400D01*
X260500Y314800D01*
X262299D01*
X261099D02*
X259900Y313601D01*
X258700Y314200D02*
X258100Y313601D01*
X256901D01*
X256301Y314200D01*
Y316600D01*
X256901Y317199D01*
X258100D01*
X258700Y316600D01*
Y316000D01*
X258100Y315400D01*
X256301D01*
X338699Y347000D02*
X339299Y347599D01*
X340499D01*
X341098Y347000D01*
Y344600D01*
X340499Y344001D01*
X339299D01*
X338699Y344600D01*
X337500Y344001D02*
X336300D01*
X336900D01*
Y347599D01*
X337500Y347000D01*
X332101Y347599D02*
X334501D01*
Y345800D01*
X333301Y346400D01*
X332701D01*
X332101Y345800D01*
Y344600D01*
X332701Y344001D01*
X333901D01*
X334501Y344600D01*
X226500Y280100D02*
X225901Y280700D01*
Y281899D01*
X226500Y282499D01*
X228900D01*
X229499Y281899D01*
Y280700D01*
X228900Y280100D01*
X229499Y276501D02*
Y278900D01*
X227100Y276501D01*
X226500D01*
X225901Y277101D01*
Y278300D01*
X226500Y278900D01*
X248999Y322799D02*
Y319800D01*
X248399Y319201D01*
X247200D01*
X246600Y319800D01*
Y322799D01*
X243601Y319201D02*
Y322799D01*
X245400Y321000D01*
X243001D01*
X264499Y228499D02*
X260901D01*
Y226700D01*
X261500Y226100D01*
X262700D01*
X263300Y226700D01*
Y228499D01*
Y227299D02*
X264499Y226100D01*
X261500Y224900D02*
X260901Y224300D01*
Y223101D01*
X261500Y222501D01*
X262100D01*
X262700Y223101D01*
X263300Y222501D01*
X263900D01*
X264499Y223101D01*
Y224300D01*
X263900Y224900D01*
X263300D01*
X262700Y224300D01*
X262100Y224900D01*
X261500D01*
X262700Y224300D02*
Y223101D01*
X203899Y329299D02*
X200301D01*
Y327500D01*
X200900Y326900D01*
X202100D01*
X202700Y327500D01*
Y329299D01*
Y328099D02*
X203899Y326900D01*
X200900Y325700D02*
X200301Y325100D01*
Y323901D01*
X200900Y323301D01*
X201500D01*
X202100Y323901D01*
Y324501D01*
Y323901D01*
X202700Y323301D01*
X203300D01*
X203899Y323901D01*
Y325100D01*
X203300Y325700D01*
X247299Y237199D02*
X243701D01*
Y235400D01*
X244300Y234800D01*
X245500D01*
X246100Y235400D01*
Y237199D01*
Y236000D02*
X247299Y234800D01*
Y233600D02*
Y232401D01*
Y233001D01*
X243701D01*
X244300Y233600D01*
X208099Y329299D02*
X204501D01*
Y327500D01*
X205100Y326900D01*
X206300D01*
X206900Y327500D01*
Y329299D01*
Y328099D02*
X208099Y326900D01*
X204501Y323301D02*
X205100Y324501D01*
X206300Y325700D01*
X207500D01*
X208099Y325100D01*
Y323901D01*
X207500Y323301D01*
X206900D01*
X206300Y323901D01*
Y325700D01*
X222899Y326700D02*
X223499Y327299D01*
X224699D01*
X225299Y326700D01*
Y324300D01*
X224699Y323701D01*
X223499D01*
X222899Y324300D01*
X221700Y323701D02*
X220500D01*
X221100D01*
Y327299D01*
X221700Y326700D01*
X216901Y323701D02*
Y327299D01*
X218701Y325500D01*
X216301D01*
X314700Y294601D02*
X315299Y294001D01*
Y292801D01*
X314700Y292201D01*
X312300D01*
X311701Y292801D01*
Y294001D01*
X312300Y294601D01*
X311701Y295800D02*
Y297000D01*
Y296400D01*
X315299D01*
X314700Y295800D01*
Y298799D02*
X315299Y299399D01*
Y300599D01*
X314700Y301199D01*
X312300D01*
X311701Y300599D01*
Y299399D01*
X312300Y298799D01*
X314700D01*
X297800Y296000D02*
X298400Y296599D01*
X299599D01*
X300199Y296000D01*
Y293600D01*
X299599Y293001D01*
X298400D01*
X297800Y293600D01*
X296600D02*
X296000Y293001D01*
X294801D01*
X294201Y293600D01*
Y296000D01*
X294801Y296599D01*
X296000D01*
X296600Y296000D01*
Y295400D01*
X296000Y294800D01*
X294201D01*
X278001Y344701D02*
X281599D01*
Y346500D01*
X281000Y347100D01*
X279800D01*
X279200Y346500D01*
Y344701D01*
Y345901D02*
X278001Y347100D01*
Y350099D02*
X281599D01*
X279800Y348300D01*
Y350699D01*
X361199Y222301D02*
Y225899D01*
X359400D01*
X358800Y225300D01*
Y224100D01*
X359400Y223500D01*
X361199D01*
X359999D02*
X358800Y222301D01*
X355201D02*
X357600D01*
X355201Y224700D01*
Y225300D01*
X355801Y225899D01*
X357000D01*
X357600Y225300D01*
X282601Y344901D02*
X286199D01*
Y346700D01*
X285600Y347300D01*
X284400D01*
X283800Y346700D01*
Y344901D01*
Y346101D02*
X282601Y347300D01*
X286199Y348500D02*
Y350899D01*
X285600D01*
X283200Y348500D01*
X282601D01*
X369499Y222801D02*
Y226399D01*
X367700D01*
X367100Y225800D01*
Y224600D01*
X367700Y224000D01*
X369499D01*
X368299D02*
X367100Y222801D01*
X363501Y226399D02*
X365900D01*
Y224600D01*
X364701Y225200D01*
X364101D01*
X363501Y224600D01*
Y223400D01*
X364101Y222801D01*
X365300D01*
X365900Y223400D01*
X208399Y350600D02*
X208999Y351199D01*
X210199D01*
X210799Y350600D01*
Y348200D01*
X210199Y347601D01*
X208999D01*
X208399Y348200D01*
X207200Y347601D02*
X206000D01*
X206600D01*
Y351199D01*
X207200Y350600D01*
X204201D02*
X203601Y351199D01*
X202401D01*
X201801Y350600D01*
Y350000D01*
X202401Y349400D01*
X203001D01*
X202401D01*
X201801Y348800D01*
Y348200D01*
X202401Y347601D01*
X203601D01*
X204201Y348200D01*
X213699Y317599D02*
Y314600D01*
X213099Y314001D01*
X211900D01*
X211300Y314600D01*
Y317599D01*
X210100Y317000D02*
X209500Y317599D01*
X208301D01*
X207701Y317000D01*
Y316400D01*
X208301Y315800D01*
X208901D01*
X208301D01*
X207701Y315200D01*
Y314600D01*
X208301Y314001D01*
X209500D01*
X210100Y314600D01*
X264299Y312599D02*
Y309600D01*
X263699Y309001D01*
X262500D01*
X261900Y309600D01*
Y312599D01*
X258301Y309001D02*
X260700D01*
X258301Y311400D01*
Y312000D01*
X258901Y312599D01*
X260100D01*
X260700Y312000D01*
X208199Y344299D02*
X204601D01*
Y342499D01*
X205200Y341899D01*
X206400D01*
X207000Y342499D01*
Y344299D01*
Y343099D02*
X208199Y341899D01*
Y338300D02*
Y340700D01*
X205800Y338300D01*
X205200D01*
X204601Y338900D01*
Y340100D01*
X205200Y340700D01*
Y337101D02*
X204601Y336501D01*
Y335301D01*
X205200Y334702D01*
X205800D01*
X206400Y335301D01*
Y335901D01*
Y335301D01*
X207000Y334702D01*
X207600D01*
X208199Y335301D01*
Y336501D01*
X207600Y337101D01*
X203999Y344198D02*
X200401D01*
Y342399D01*
X201000Y341799D01*
X202200D01*
X202800Y342399D01*
Y344198D01*
Y342999D02*
X203999Y341799D01*
Y338200D02*
Y340600D01*
X201600Y338200D01*
X201000D01*
X200401Y338800D01*
Y340000D01*
X201000Y340600D01*
X203999Y334602D02*
Y337001D01*
X201600Y334602D01*
X201000D01*
X200401Y335201D01*
Y336401D01*
X201000Y337001D01*
X252696Y284687D02*
X253895D01*
X253296D01*
Y281688D01*
X253895Y281088D01*
X254495D01*
X255095Y281688D01*
X251496Y281088D02*
X250297D01*
X250896D01*
Y284687D01*
X251496Y284087D01*
X216201Y303000D02*
Y305399D01*
X218000D01*
Y304200D01*
Y305399D01*
X219799D01*
Y301800D02*
Y300601D01*
Y301201D01*
X216201D01*
X216800Y301800D01*
X293600Y322199D02*
X293001Y322799D01*
Y323999D01*
X293600Y324599D01*
X296000D01*
X296599Y323999D01*
Y322799D01*
X296000Y322199D01*
X296599Y321000D02*
Y319800D01*
Y320400D01*
X293001D01*
X293600Y321000D01*
X296599Y315601D02*
Y318001D01*
X294200Y315601D01*
X293600D01*
X293001Y316201D01*
Y317401D01*
X293600Y318001D01*
X261600Y291500D02*
X262200Y292099D01*
X263399D01*
X263999Y291500D01*
Y289100D01*
X263399Y288501D01*
X262200D01*
X261600Y289100D01*
X260400Y291500D02*
X259800Y292099D01*
X258601D01*
X258001Y291500D01*
Y290900D01*
X258601Y290300D01*
X258001Y289700D01*
Y289100D01*
X258601Y288501D01*
X259800D01*
X260400Y289100D01*
Y289700D01*
X259800Y290300D01*
X260400Y290900D01*
Y291500D01*
X259800Y290300D02*
X258601D01*
X299000Y291100D02*
X299600Y291699D01*
X300799D01*
X301399Y291100D01*
Y288700D01*
X300799Y288101D01*
X299600D01*
X299000Y288700D01*
X297800Y291699D02*
X295401D01*
Y291100D01*
X297800Y288700D01*
Y288101D01*
X282100Y343000D02*
X282700Y343599D01*
X283899D01*
X284499Y343000D01*
Y340600D01*
X283899Y340001D01*
X282700D01*
X282100Y340600D01*
X278501Y343599D02*
X279701Y343000D01*
X280900Y341800D01*
Y340600D01*
X280300Y340001D01*
X279101D01*
X278501Y340600D01*
Y341200D01*
X279101Y341800D01*
X280900D01*
X262500Y327700D02*
X261901Y328300D01*
Y329499D01*
X262500Y330099D01*
X264900D01*
X265499Y329499D01*
Y328300D01*
X264900Y327700D01*
X261901Y324101D02*
Y326500D01*
X263700D01*
X263100Y325301D01*
Y324701D01*
X263700Y324101D01*
X264900D01*
X265499Y324701D01*
Y325900D01*
X264900Y326500D01*
X229900Y303900D02*
X229301Y304500D01*
Y305699D01*
X229900Y306299D01*
X232300D01*
X232899Y305699D01*
Y304500D01*
X232300Y303900D01*
X232899Y300901D02*
X229301D01*
X231100Y302700D01*
Y300301D01*
X210500Y322000D02*
X209901Y322600D01*
Y323799D01*
X210500Y324399D01*
X212900D01*
X213499Y323799D01*
Y322600D01*
X212900Y322000D01*
X210500Y320800D02*
X209901Y320200D01*
Y319001D01*
X210500Y318401D01*
X211100D01*
X211700Y319001D01*
Y319601D01*
Y319001D01*
X212300Y318401D01*
X212900D01*
X213499Y319001D01*
Y320200D01*
X212900Y320800D01*
X216000Y281800D02*
X215401Y282400D01*
Y283599D01*
X216000Y284199D01*
X218400D01*
X218999Y283599D01*
Y282400D01*
X218400Y281800D01*
X218999Y280600D02*
Y279401D01*
Y280001D01*
X215401D01*
X216000Y280600D01*
D111*
X315984Y346051D02*
Y348966D01*
X316567Y349549D01*
X317734D01*
X318317Y348966D01*
Y346051D01*
X321816D02*
X320649Y346634D01*
X319483Y347800D01*
Y348966D01*
X320066Y349549D01*
X321233D01*
X321816Y348966D01*
Y348383D01*
X321233Y347800D01*
X319483D01*
M02*
