G04*
G04 #@! TF.GenerationSoftware,Altium Limited,Altium Designer,21.1.1 (26)*
G04*
G04 Layer_Physical_Order=2*
G04 Layer_Color=32768*
%FSLAX25Y25*%
%MOIN*%
G70*
G04*
G04 #@! TF.SameCoordinates,D6B6CD0C-24BE-41C4-A853-45D6888EAD6D*
G04*
G04*
G04 #@! TF.FilePolarity,Negative*
G04*
G01*
G75*
%ADD58C,0.04000*%
%ADD59C,0.04304*%
%ADD60C,0.05131*%
%ADD61C,0.05131*%
G04:AMPARAMS|DCode=62|XSize=74.929mil|YSize=74.929mil|CornerRadius=0mil|HoleSize=0mil|Usage=FLASHONLY|Rotation=0.000|XOffset=0mil|YOffset=0mil|HoleType=Round|Shape=Relief|Width=4mil|Gap=4mil|Entries=4|*
%AMTHD62*
7,0,0,0.07493,0.06693,0.00400,45*
%
%ADD62THD62*%
G04:AMPARAMS|DCode=63|XSize=74.932mil|YSize=74.932mil|CornerRadius=0mil|HoleSize=0mil|Usage=FLASHONLY|Rotation=0.000|XOffset=0mil|YOffset=0mil|HoleType=Round|Shape=Relief|Width=4mil|Gap=4mil|Entries=4|*
%AMTHD63*
7,0,0,0.07493,0.06693,0.00400,45*
%
%ADD63THD63*%
%ADD64C,0.03595*%
%ADD65C,0.03556*%
G04:AMPARAMS|DCode=66|XSize=59.181mil|YSize=59.181mil|CornerRadius=0mil|HoleSize=0mil|Usage=FLASHONLY|Rotation=0.000|XOffset=0mil|YOffset=0mil|HoleType=Round|Shape=Relief|Width=4mil|Gap=4mil|Entries=4|*
%AMTHD66*
7,0,0,0.05918,0.05118,0.00400,45*
%
%ADD66THD66*%
%ADD67C,0.01587*%
%ADD68C,0.02000*%
D58*
X200000Y218500D02*
X200000Y352000D01*
X394500Y352000D01*
X394500Y218500D01*
X330800Y218500D02*
X394500Y218500D01*
X330800Y241000D02*
X330800Y218500D01*
X270500Y241000D02*
X330800Y241000D01*
X270500Y241000D02*
X270500Y218500D01*
X200000Y218500D02*
X270500Y218500D01*
D59*
X355400Y345800D02*
D03*
X365400D02*
D03*
X334000Y293500D02*
D03*
X324000D02*
D03*
D60*
X303831Y258287D02*
D03*
X306587Y272067D02*
D03*
X332571D02*
D03*
X323910D02*
D03*
X315248D02*
D03*
X297926D02*
D03*
X289264D02*
D03*
X271941D02*
D03*
X263280D02*
D03*
X254619D02*
D03*
X260524Y258287D02*
D03*
X269185D02*
D03*
X277847D02*
D03*
X286508D02*
D03*
X295170D02*
D03*
X312493D02*
D03*
X321154D02*
D03*
X329815D02*
D03*
X338477D02*
D03*
D61*
X363614Y303370D02*
D03*
X349835Y307701D02*
D03*
X363614Y260063D02*
D03*
Y268724D02*
D03*
Y277386D02*
D03*
Y286047D02*
D03*
Y294709D02*
D03*
Y312032D02*
D03*
Y320693D02*
D03*
Y329354D02*
D03*
Y338016D02*
D03*
X349835Y255732D02*
D03*
Y264394D02*
D03*
Y273055D02*
D03*
Y290378D02*
D03*
Y299039D02*
D03*
Y316362D02*
D03*
Y325024D02*
D03*
Y333685D02*
D03*
D62*
Y281716D02*
D03*
D63*
X280603Y272067D02*
D03*
D64*
X388366Y248994D02*
D03*
Y238994D02*
D03*
Y228994D02*
D03*
X358234Y249006D02*
D03*
Y239006D02*
D03*
Y229006D02*
D03*
D65*
X383300Y347400D02*
D03*
Y342400D02*
D03*
Y337400D02*
D03*
X388300Y347400D02*
D03*
Y337400D02*
D03*
X383300Y332400D02*
D03*
Y327400D02*
D03*
Y322400D02*
D03*
X388300D02*
D03*
X383300Y317400D02*
D03*
X388300D02*
D03*
D66*
Y342400D02*
D03*
Y332400D02*
D03*
Y327400D02*
D03*
D67*
X374994Y313032D02*
D03*
X374036Y315268D02*
D03*
X376162Y318962D02*
D03*
X374283Y320320D02*
D03*
X357200Y265800D02*
D03*
X375000Y267200D02*
D03*
X379000Y313500D02*
D03*
X341364Y282400D02*
D03*
X345982Y248485D02*
D03*
X353600Y303400D02*
D03*
X343113Y279223D02*
D03*
X356709Y310137D02*
D03*
X316500Y287653D02*
D03*
X334884Y297990D02*
D03*
X322600Y343700D02*
D03*
X345586Y329100D02*
D03*
X301609Y347686D02*
D03*
X381500Y310000D02*
D03*
X380300Y269500D02*
D03*
X383274Y287114D02*
D03*
X382866Y293686D02*
D03*
X381686Y285000D02*
D03*
X369200Y255500D02*
D03*
X342599Y236901D02*
D03*
X346600Y234700D02*
D03*
X244524Y342667D02*
D03*
X257000Y346686D02*
D03*
X251472D02*
D03*
X276300Y346400D02*
D03*
X235100Y330365D02*
D03*
X230100D02*
D03*
X259614Y329925D02*
D03*
X299200Y349500D02*
D03*
X301500Y340047D02*
D03*
X239000Y342000D02*
D03*
X244000Y334531D02*
D03*
D68*
X334000Y300400D02*
D03*
X339919Y336400D02*
D03*
X290842Y324942D02*
D03*
X247800Y236083D02*
D03*
X260000Y233891D02*
D03*
X255857Y233400D02*
D03*
X251036Y234500D02*
D03*
X244900Y318500D02*
D03*
X239200Y319900D02*
D03*
X211431Y325069D02*
D03*
X261600Y293500D02*
D03*
X293800Y339919D02*
D03*
X293000Y335200D02*
D03*
X303092Y289931D02*
D03*
X212100Y268500D02*
D03*
X234626Y319500D02*
D03*
X204500Y319000D02*
D03*
X204636Y346500D02*
D03*
M02*
