G04*
G04 #@! TF.GenerationSoftware,Altium Limited,Altium Designer,21.1.1 (26)*
G04*
G04 Layer_Color=128*
%FSLAX25Y25*%
%MOIN*%
G70*
G04*
G04 #@! TF.SameCoordinates,D6B6CD0C-24BE-41C4-A853-45D6888EAD6D*
G04*
G04*
G04 #@! TF.FilePolarity,Positive*
G04*
G01*
G75*
%ADD71O,0.00984X0.07874*%
%ADD72O,0.07874X0.00984*%
%ADD73R,0.22047X0.22047*%
%ADD74R,0.03543X0.02559*%
%ADD75R,0.03543X0.04134*%
%ADD76R,0.03150X0.03937*%
%ADD77R,0.10236X0.07480*%
%ADD78R,0.03543X0.02953*%
%ADD79R,0.06102X0.02362*%
%ADD80R,0.02284X0.04646*%
%ADD81R,0.03740X0.04134*%
%ADD82R,0.02953X0.03543*%
%ADD83R,0.02559X0.03543*%
%ADD84R,0.03174X0.03379*%
%ADD85R,0.06890X0.10433*%
%ADD86R,0.12402X0.07008*%
%ADD87R,0.02598X0.03937*%
%ADD88R,0.42126X0.33858*%
%ADD89R,0.03937X0.13386*%
%ADD90R,0.04545X0.06717*%
D71*
X307504Y338453D02*
D03*
X309472D02*
D03*
X311441D02*
D03*
X313409D02*
D03*
X315378D02*
D03*
X317347D02*
D03*
X319315D02*
D03*
X321284D02*
D03*
X323252D02*
D03*
X325220D02*
D03*
X327189D02*
D03*
X329157D02*
D03*
Y306209D02*
D03*
X327189D02*
D03*
X325220D02*
D03*
X323252D02*
D03*
X321284D02*
D03*
X319315D02*
D03*
X317347D02*
D03*
X315378D02*
D03*
X313409D02*
D03*
X311441D02*
D03*
X309472D02*
D03*
X307504D02*
D03*
D72*
X334453Y333157D02*
D03*
Y331189D02*
D03*
Y329221D02*
D03*
Y327252D02*
D03*
Y325284D02*
D03*
Y323315D02*
D03*
Y321346D02*
D03*
Y319378D02*
D03*
Y317409D02*
D03*
Y315441D02*
D03*
Y313472D02*
D03*
Y311504D02*
D03*
X302209D02*
D03*
Y313472D02*
D03*
Y315441D02*
D03*
Y317409D02*
D03*
Y319378D02*
D03*
Y321346D02*
D03*
Y323315D02*
D03*
Y325284D02*
D03*
Y327252D02*
D03*
Y329221D02*
D03*
Y331189D02*
D03*
Y333157D02*
D03*
D73*
X318331Y322331D02*
D03*
D74*
X374001Y341047D02*
D03*
Y346953D02*
D03*
X347299Y340547D02*
D03*
Y346453D02*
D03*
X385299Y261947D02*
D03*
Y267853D02*
D03*
X255999Y228753D02*
D03*
Y222847D02*
D03*
X271001Y340547D02*
D03*
Y346453D02*
D03*
X265001Y340547D02*
D03*
Y346453D02*
D03*
X342599Y223547D02*
D03*
Y229453D02*
D03*
X348099Y223547D02*
D03*
Y229453D02*
D03*
X250599Y228753D02*
D03*
Y222847D02*
D03*
X211290Y346179D02*
D03*
Y340274D02*
D03*
X211288Y329298D02*
D03*
Y335203D02*
D03*
X216887D02*
D03*
Y329298D02*
D03*
X216886Y340274D02*
D03*
Y346179D02*
D03*
D75*
X387315Y303100D02*
D03*
X382000D02*
D03*
X387315Y297400D02*
D03*
X382000D02*
D03*
X387457Y281100D02*
D03*
X382142D02*
D03*
D76*
X270553Y315600D02*
D03*
X264647D02*
D03*
Y321100D02*
D03*
X270553D02*
D03*
D77*
X283300Y335365D02*
D03*
Y318435D02*
D03*
D78*
X261100Y302462D02*
D03*
Y297738D02*
D03*
X336100Y336838D02*
D03*
Y341562D02*
D03*
X296900Y303862D02*
D03*
Y299138D02*
D03*
X221796Y345589D02*
D03*
Y340864D02*
D03*
X221784Y329889D02*
D03*
Y334613D02*
D03*
X294700Y331462D02*
D03*
Y326738D02*
D03*
D79*
X268470Y308000D02*
D03*
X289730Y303000D02*
D03*
X268470Y293000D02*
D03*
X289730Y308000D02*
D03*
Y298000D02*
D03*
Y293000D02*
D03*
X268470Y298000D02*
D03*
Y303000D02*
D03*
D80*
X229000Y346972D02*
D03*
X234000D02*
D03*
X239000D02*
D03*
X244000D02*
D03*
X249000D02*
D03*
X254000D02*
D03*
X259000D02*
D03*
Y326028D02*
D03*
X254000D02*
D03*
X249000D02*
D03*
X244000D02*
D03*
X239000D02*
D03*
X234000D02*
D03*
X229000D02*
D03*
D81*
X267946Y334500D02*
D03*
X273654D02*
D03*
X267946Y326900D02*
D03*
X273654D02*
D03*
D82*
X304138Y299200D02*
D03*
X308862D02*
D03*
X334138Y305500D02*
D03*
X338862D02*
D03*
X227138Y288900D02*
D03*
X231862D02*
D03*
X222362D02*
D03*
X217638D02*
D03*
D83*
X319647Y299101D02*
D03*
X325553D02*
D03*
D84*
X304035Y292400D02*
D03*
X308965D02*
D03*
X220965Y319500D02*
D03*
X216035D02*
D03*
X225535D02*
D03*
X230465D02*
D03*
D85*
X250800Y311465D02*
D03*
Y294535D02*
D03*
X239000Y311429D02*
D03*
Y294500D02*
D03*
D86*
X208000Y289705D02*
D03*
Y310295D02*
D03*
D87*
X227240Y313618D02*
D03*
X219760D02*
D03*
Y303382D02*
D03*
X223500D02*
D03*
X227240D02*
D03*
D88*
X222500Y236868D02*
D03*
D89*
Y278600D02*
D03*
X212500D02*
D03*
X232500D02*
D03*
D90*
X218477Y296500D02*
D03*
X228523D02*
D03*
M02*
