G04*
G04 #@! TF.GenerationSoftware,Altium Limited,Altium Designer,21.1.1 (26)*
G04*
G04 Layer_Physical_Order=1*
G04 Layer_Color=255*
%FSLAX25Y25*%
%MOIN*%
G70*
G04*
G04 #@! TF.SameCoordinates,D6B6CD0C-24BE-41C4-A853-45D6888EAD6D*
G04*
G04*
G04 #@! TF.FilePolarity,Positive*
G04*
G01*
G75*
%ADD10C,0.00984*%
%ADD11C,0.01000*%
%ADD12C,0.00787*%
%ADD13C,0.00600*%
%ADD14R,0.04724X0.04331*%
%ADD15R,0.06102X0.05118*%
%ADD16R,0.07480X0.07480*%
%ADD17R,0.07480X0.07087*%
%ADD18R,0.06496X0.01575*%
%ADD19R,0.06299X0.08268*%
%ADD38C,0.01500*%
%ADD39C,0.00800*%
%ADD40C,0.03000*%
%ADD41C,0.01200*%
%ADD42C,0.00898*%
%ADD43C,0.02500*%
%ADD44C,0.02000*%
%ADD45R,0.05512X0.05512*%
%ADD46C,0.05512*%
%ADD47O,0.05512X0.10236*%
%ADD48O,0.10236X0.05512*%
%ADD49R,0.06000X0.04400*%
%ADD50O,0.06000X0.04400*%
%ADD51O,0.06000X0.07500*%
%ADD52O,0.07874X0.05906*%
%ADD53C,0.04134*%
%ADD54C,0.01772*%
%ADD55C,0.03937*%
%ADD56C,0.02362*%
%ADD57C,0.01968*%
D10*
X217061Y243697D02*
Y250473D01*
X210917Y256617D02*
X217061Y250473D01*
X215900Y242536D02*
X217061Y243697D01*
X215900Y238034D02*
Y242536D01*
X215700Y237834D02*
X215900Y238034D01*
D11*
X252436Y236820D02*
Y236820D01*
X232445Y256811D02*
X252436Y236820D01*
X232445Y256811D02*
Y328345D01*
X252436Y236820D02*
X255857Y233400D01*
X230100Y256898D02*
Y330365D01*
X250871Y234729D02*
X251100Y234500D01*
X250871Y234729D02*
Y236127D01*
X230100Y256898D02*
X250871Y236127D01*
X248500Y255714D02*
Y275461D01*
Y255714D02*
X260500Y243714D01*
Y236400D02*
Y243714D01*
X260000Y235900D02*
X260500Y236400D01*
X260000Y233891D02*
Y235900D01*
X208533Y259001D02*
X210917Y256617D01*
X209803Y237834D02*
X210000D01*
X208138Y239499D02*
X209803Y237834D01*
X208138Y239499D02*
Y239696D01*
X207000Y240834D02*
X208138Y239696D01*
X264700Y255240D02*
X269040Y250900D01*
X264000Y265100D02*
X264700Y264400D01*
Y255240D02*
Y264400D01*
X340200Y241800D02*
X342600Y244200D01*
X340200Y231852D02*
Y241800D01*
Y231852D02*
X342599Y229453D01*
X349835Y255732D02*
X350600Y254967D01*
Y231200D02*
Y254967D01*
X348853Y229453D02*
X350600Y231200D01*
X342599Y229453D02*
X348853D01*
X342600Y259139D02*
X343600Y260139D01*
X342600Y244200D02*
Y259139D01*
X347144Y261844D02*
X349693Y264394D01*
X344000Y240700D02*
Y258559D01*
X347144Y261703D02*
Y261844D01*
X344000Y258559D02*
X347144Y261703D01*
X349693Y264394D02*
X349835D01*
X342599Y239299D02*
X344000Y240700D01*
X342599Y236901D02*
Y239299D01*
X343600Y260139D02*
Y269500D01*
X322100Y278900D02*
X334200D01*
X343600Y269500D01*
X319700Y276500D02*
X322100Y278900D01*
X335800Y280500D02*
X347812Y268489D01*
X280424Y280500D02*
X335800D01*
X275813Y275888D02*
X280424Y280500D01*
X279800Y281900D02*
X336900D01*
X271941Y274041D02*
X279800Y281900D01*
X336900D02*
X345099Y273701D01*
X347812Y268489D02*
X363002D01*
X317000Y263200D02*
X319700Y265900D01*
X269040Y250900D02*
X314300D01*
X317000Y253600D01*
Y263200D01*
X319700Y265900D02*
Y276500D01*
X261586Y265100D02*
X264000D01*
X254619Y270961D02*
Y272067D01*
Y270961D02*
X256703Y268877D01*
X257809D01*
X261586Y265100D01*
X346700Y234800D02*
Y247558D01*
X345982Y248276D02*
Y248485D01*
Y248276D02*
X346700Y247558D01*
X345099Y273701D02*
X348205D01*
X374356Y296418D02*
X377869D01*
X374068Y296706D02*
X374356Y296418D01*
X374068Y296706D02*
Y298587D01*
X363002Y268489D02*
Y268724D01*
X363614D01*
X270274Y262114D02*
X275813Y267653D01*
Y275888D01*
X270274Y259376D02*
Y262114D01*
X269185Y258287D02*
X270274Y259376D01*
X271941Y272067D02*
Y274041D01*
X301500Y347577D02*
X301609Y347686D01*
X301500Y340047D02*
Y347577D01*
X258100Y259863D02*
X262100D01*
X348205Y273701D02*
X349835Y272071D01*
X380300Y269500D02*
X384574D01*
X385160Y270086D02*
Y273296D01*
X384574Y269500D02*
X385160Y270086D01*
X381647Y288741D02*
X383274Y287114D01*
X377869Y288741D02*
X381647D01*
X382718Y293538D02*
X382866Y293686D01*
X382718Y292793D02*
Y293538D01*
X381226Y291300D02*
X382718Y292793D01*
X377869Y291300D02*
X381226D01*
X346600Y234700D02*
X346700Y234800D01*
X312493Y258287D02*
Y261693D01*
X250800Y267163D02*
Y278880D01*
X249400Y344613D02*
X251472Y346686D01*
X252900Y280980D02*
Y339081D01*
X250800Y278880D02*
X252900Y280980D01*
X248500Y275461D02*
X249400Y276361D01*
Y344613D01*
X250800Y267163D02*
X258100Y259863D01*
X238328Y335186D02*
X239100Y334414D01*
X209305Y335186D02*
X238328D01*
X208533Y334414D02*
X209305Y335186D01*
X207772Y336586D02*
X239728D01*
X242114Y334200D01*
X207000Y335814D02*
X207772Y336586D01*
X257000Y343181D02*
Y346686D01*
X244524Y340257D02*
X245000Y339781D01*
X244524Y340257D02*
Y342667D01*
X245000Y337500D02*
Y339781D01*
X388203Y276339D02*
X388400D01*
X385160Y273296D02*
X388203Y276339D01*
X385644Y279095D02*
X388400Y276339D01*
X378361Y279095D02*
X385644D01*
X388400Y286576D02*
Y296024D01*
Y276339D02*
Y286576D01*
Y296024D02*
Y306261D01*
X385644Y303505D02*
X388400Y306261D01*
X378361Y303505D02*
X385644D01*
X242114Y321286D02*
Y334200D01*
Y321286D02*
X244900Y318500D01*
X239100Y320000D02*
Y334414D01*
Y320000D02*
X239200Y319900D01*
X207000Y240834D02*
Y335814D01*
X208533Y259001D02*
Y334414D01*
X232445Y328345D02*
X233449Y329349D01*
X233875D01*
X234891Y330365D01*
X235100D01*
X284400Y330600D02*
X293719Y339919D01*
X293800D01*
X260498Y330600D02*
X284400D01*
X259823Y329925D02*
X260498Y330600D01*
X259614Y329925D02*
X259823D01*
X252900Y339081D02*
X257000Y343181D01*
X244000Y334531D02*
Y336500D01*
X245000Y337500D01*
D12*
X357200Y265800D02*
X357323D01*
X358723Y264400D01*
X367800D01*
X369900Y266500D02*
Y317256D01*
X367800Y264400D02*
X369900Y266500D01*
X366463Y320693D02*
X369900Y317256D01*
X363614Y320693D02*
X366463D01*
D13*
X347900Y342000D02*
X358700D01*
X346119Y343781D02*
X347900Y342000D01*
X358700D02*
X361744Y345044D01*
X322681Y343781D02*
X346119D01*
X361744Y345044D02*
X364644D01*
X365400Y345800D01*
X322600Y343700D02*
X322681Y343781D01*
D14*
X209500Y229566D02*
D03*
Y237834D02*
D03*
X215700Y229566D02*
D03*
Y237834D02*
D03*
D15*
X256250Y240558D02*
D03*
Y222842D02*
D03*
X224950D02*
D03*
Y240558D02*
D03*
D16*
X388400Y296024D02*
D03*
Y286576D02*
D03*
D17*
Y306261D02*
D03*
Y276339D02*
D03*
D18*
X376687Y291300D02*
D03*
Y288741D02*
D03*
Y286182D02*
D03*
Y293859D02*
D03*
Y296418D02*
D03*
D19*
X378361Y279095D02*
D03*
Y303505D02*
D03*
D38*
X369200Y255574D02*
X371900Y258274D01*
Y332092D01*
X367287Y336705D02*
X371900Y332092D01*
X336068Y287696D02*
X341364Y282400D01*
X316543Y287696D02*
X336068D01*
X316500Y287653D02*
X316543Y287696D01*
X369200Y255500D02*
Y255574D01*
X366302Y336705D02*
X367287D01*
X365976Y337032D02*
X366302Y336705D01*
X381613Y285000D02*
X381686D01*
X381368Y285244D02*
X381613Y285000D01*
X380676Y285244D02*
X381368D01*
X379776Y286144D02*
X380676Y285244D01*
X377906Y286144D02*
X379776D01*
X377869Y286182D02*
X377906Y286144D01*
X363614Y260063D02*
X364156Y259521D01*
Y240756D02*
Y259521D01*
X239417Y236083D02*
X247800D01*
X212100Y263400D02*
X239417Y236083D01*
X212100Y263400D02*
Y268200D01*
X234500Y346500D02*
X239000Y342000D01*
X204636Y346500D02*
X234500D01*
X359069Y236653D02*
X360053D01*
X364156Y240756D01*
D39*
X374036Y315268D02*
Y319810D01*
X374283Y320057D02*
Y320320D01*
X374036Y319810D02*
X374283Y320057D01*
X374036Y315268D02*
X374036Y315268D01*
X375976Y318162D02*
Y318776D01*
X375822Y318008D02*
X375976Y318162D01*
X375822Y314123D02*
Y318008D01*
X375976Y318776D02*
X376162Y318962D01*
X374994Y313295D02*
X375822Y314123D01*
X374994Y313032D02*
Y313295D01*
X383100Y342200D02*
X383300Y342400D01*
X373557Y229157D02*
Y265693D01*
X375000Y267136D01*
Y267200D01*
X379000Y313500D02*
Y338100D01*
X383100Y342200D01*
X369200Y224800D02*
X373557Y229157D01*
X382900Y342400D02*
X383300D01*
X339700Y224800D02*
X369200D01*
X337450Y227050D02*
Y239950D01*
Y227050D02*
X339700Y224800D01*
X332700Y244700D02*
X337450Y239950D01*
X269000Y244700D02*
X332700D01*
X265600Y241300D02*
X269000Y244700D01*
X256742Y222842D02*
X260200Y226300D01*
X260995D02*
X265600Y230905D01*
Y241300D01*
X256250Y222842D02*
X256742D01*
X260200Y226300D02*
X260995D01*
X334884Y297990D02*
X335062D01*
X337088Y300015D01*
Y321088D01*
X344891Y328668D02*
X345323Y329100D01*
X345586D01*
X344668Y328668D02*
X344891D01*
X337088Y321088D02*
X344668Y328668D01*
X290842Y324942D02*
X299200Y333300D01*
Y349500D01*
D40*
X208137Y222700D02*
X216048D01*
X204500Y226337D02*
Y318500D01*
X204500Y226337D02*
X208137Y222700D01*
X260043Y228600D02*
X263181Y231738D01*
X250900Y228600D02*
X260043D01*
X263181Y231738D02*
Y243224D01*
X268057Y248100D01*
X247800Y225500D02*
X250900Y228600D01*
X235500Y225500D02*
X247800D01*
X233699Y227301D02*
X235500Y225500D01*
X216048Y222700D02*
X220649Y227301D01*
X233699D01*
X268057Y248100D02*
X322874D01*
X325500Y250726D01*
D41*
X221224Y243793D02*
Y244676D01*
Y243793D02*
X224458Y240558D01*
X224950D01*
X220700Y245200D02*
X221224Y244676D01*
X215897Y229566D02*
X220607Y234276D01*
X222576D01*
X215700Y229566D02*
X215897D01*
X222576Y234276D02*
X223100Y234800D01*
X209500Y229566D02*
X215700D01*
D42*
X363584Y303400D02*
X363614Y303370D01*
X353600Y303400D02*
X363584D01*
X356709Y310137D02*
Y312491D01*
X352838Y316362D02*
X356709Y312491D01*
X349835Y316362D02*
X352838D01*
D43*
X343113Y279223D02*
X344000Y280111D01*
Y295800D01*
X341000Y298800D02*
Y317567D01*
Y298800D02*
X344000Y295800D01*
X341000Y317567D02*
X347472Y324039D01*
X349835D01*
D44*
X325500Y250726D02*
Y267164D01*
X324582Y268083D02*
X325500Y267164D01*
X324582Y268083D02*
Y272739D01*
D45*
X355400Y345800D02*
D03*
D46*
X365400D02*
D03*
D47*
X303831Y258287D02*
D03*
X306587Y272067D02*
D03*
X332571D02*
D03*
X323910D02*
D03*
X315248D02*
D03*
X297926D02*
D03*
X289264D02*
D03*
X271941D02*
D03*
X263280D02*
D03*
X254619D02*
D03*
X280603D02*
D03*
X260524Y258287D02*
D03*
X269185D02*
D03*
X277847D02*
D03*
X286508D02*
D03*
X295170D02*
D03*
X312493D02*
D03*
X321154D02*
D03*
X329815D02*
D03*
X338477D02*
D03*
D48*
X363614Y303370D02*
D03*
X349835Y307701D02*
D03*
X363614Y260063D02*
D03*
Y268724D02*
D03*
Y277386D02*
D03*
Y286047D02*
D03*
Y294709D02*
D03*
Y312032D02*
D03*
Y320693D02*
D03*
Y329354D02*
D03*
Y338016D02*
D03*
X350835Y255732D02*
D03*
Y264394D02*
D03*
Y273055D02*
D03*
Y281716D02*
D03*
Y290378D02*
D03*
X349835Y299039D02*
D03*
Y316362D02*
D03*
Y325024D02*
D03*
Y333685D02*
D03*
D49*
X334000Y293500D02*
D03*
D50*
X324000D02*
D03*
D51*
X388366Y248994D02*
D03*
Y238994D02*
D03*
Y228994D02*
D03*
D52*
X358234Y249006D02*
D03*
Y239006D02*
D03*
Y229006D02*
D03*
D53*
X383300Y342400D02*
D03*
X388300D02*
D03*
Y332400D02*
D03*
X383300Y327400D02*
D03*
Y322400D02*
D03*
X388300Y327400D02*
D03*
Y322400D02*
D03*
D54*
X374994Y313032D02*
D03*
X374036Y315268D02*
D03*
X376162Y318962D02*
D03*
X374283Y320320D02*
D03*
X343000Y347600D02*
D03*
X357200Y265800D02*
D03*
X375000Y267200D02*
D03*
X379000Y313500D02*
D03*
X341364Y282400D02*
D03*
X345982Y248485D02*
D03*
X353600Y303400D02*
D03*
X343113Y279223D02*
D03*
X356709Y310137D02*
D03*
X316500Y287653D02*
D03*
X334884Y297990D02*
D03*
X374068Y298587D02*
D03*
X322600Y343700D02*
D03*
X345586Y329100D02*
D03*
X301609Y347686D02*
D03*
X381500Y310000D02*
D03*
X380300Y269500D02*
D03*
X383274Y287114D02*
D03*
X382866Y293686D02*
D03*
X381686Y285000D02*
D03*
X369200Y255500D02*
D03*
X342599Y236901D02*
D03*
X346600Y234700D02*
D03*
X237000Y333300D02*
D03*
X244524Y342667D02*
D03*
X257000Y346686D02*
D03*
X251472D02*
D03*
X276300Y346400D02*
D03*
X379800Y263500D02*
D03*
X235100Y330365D02*
D03*
X230100D02*
D03*
X259614Y329925D02*
D03*
X299200Y349500D02*
D03*
X301500Y340047D02*
D03*
X239000Y342000D02*
D03*
X244000Y334531D02*
D03*
D55*
X237800Y242800D02*
D03*
X220700Y245200D02*
D03*
X245524Y280192D02*
D03*
X210400Y249100D02*
D03*
X241800Y229800D02*
D03*
X223100Y234800D02*
D03*
X240500Y279000D02*
D03*
X241400Y270300D02*
D03*
X252200Y260200D02*
D03*
X252100Y247600D02*
D03*
X238100Y260600D02*
D03*
X232900Y249900D02*
D03*
X223700Y259000D02*
D03*
X214100Y245500D02*
D03*
D56*
X334000Y300400D02*
D03*
X338069Y297835D02*
D03*
X339919Y341800D02*
D03*
Y336400D02*
D03*
X309000Y289100D02*
D03*
X329228Y298628D02*
D03*
X290500Y328800D02*
D03*
X290842Y324942D02*
D03*
X227100Y283700D02*
D03*
X247800Y236083D02*
D03*
X260000Y233891D02*
D03*
X255857Y233400D02*
D03*
X251036Y234500D02*
D03*
X244900Y318500D02*
D03*
X239200Y319900D02*
D03*
X221500Y349000D02*
D03*
X211431Y325069D02*
D03*
X297000Y307319D02*
D03*
X261500Y307500D02*
D03*
X261600Y293500D02*
D03*
X293800Y339919D02*
D03*
X293000Y335200D02*
D03*
X303092Y289931D02*
D03*
X263000Y334400D02*
D03*
X262300Y327000D02*
D03*
X212100Y268500D02*
D03*
X234626Y319500D02*
D03*
X222965Y323500D02*
D03*
X204500Y319000D02*
D03*
X204636Y346500D02*
D03*
X222500Y268300D02*
D03*
D57*
X309669Y313669D02*
D03*
X314000D02*
D03*
X318331D02*
D03*
X322661D02*
D03*
X326992D02*
D03*
X309669Y318000D02*
D03*
X314000D02*
D03*
X318331D02*
D03*
X322661D02*
D03*
X326992D02*
D03*
X309669Y322331D02*
D03*
X314000D02*
D03*
X318331D02*
D03*
X322661D02*
D03*
X326992D02*
D03*
X309669Y326661D02*
D03*
X314000D02*
D03*
X318331D02*
D03*
X322661D02*
D03*
X326992D02*
D03*
X309669Y330992D02*
D03*
X314000D02*
D03*
X318331D02*
D03*
X322661D02*
D03*
X326992D02*
D03*
M02*
