G04*
G04 #@! TF.GenerationSoftware,Altium Limited,Altium Designer,21.1.1 (26)*
G04*
G04 Layer_Color=32768*
%FSLAX25Y25*%
%MOIN*%
G70*
G04*
G04 #@! TF.SameCoordinates,D6B6CD0C-24BE-41C4-A853-45D6888EAD6D*
G04*
G04*
G04 #@! TF.FilePolarity,Positive*
G04*
G01*
G75*
%ADD12C,0.00787*%
D12*
X259230Y296655D02*
X262970D01*
X259230D02*
Y303545D01*
X262970D01*
Y296655D02*
Y303545D01*
X337970Y335755D02*
Y342645D01*
X334230D02*
X337970D01*
X334230Y335755D02*
Y342645D01*
Y335755D02*
X337970D01*
X295030Y298055D02*
X298770D01*
X295030D02*
Y304945D01*
X298770D01*
Y298055D02*
Y304945D01*
X219926Y339782D02*
X223666D01*
X219926D02*
Y346671D01*
X223666D01*
Y339782D02*
Y346671D01*
X219914Y335696D02*
X223654D01*
Y328806D02*
Y335696D01*
X219914Y328806D02*
X223654D01*
X219914D02*
Y335696D01*
X303055Y297330D02*
X309945D01*
Y301070D01*
X303055D02*
X309945D01*
X303055Y297330D02*
Y301070D01*
X333055Y303630D02*
X339945D01*
Y307370D01*
X333055D02*
X339945D01*
X333055Y303630D02*
Y307370D01*
X303350Y290825D02*
X309650D01*
Y293975D01*
X303350D02*
X309650D01*
X303350Y290825D02*
Y293975D01*
X292830Y325655D02*
Y332545D01*
Y325655D02*
X296570D01*
Y332545D01*
X292830D02*
X296570D01*
X232945Y287030D02*
Y290770D01*
X226055Y287030D02*
X232945D01*
X226055D02*
Y290770D01*
X232945D01*
X244993Y293650D02*
X256607D01*
X244993D02*
Y312350D01*
X256607D01*
Y293650D02*
Y312350D01*
X217595Y305153D02*
X229405D01*
X217595D02*
Y311846D01*
X229405D01*
Y305153D02*
Y311846D01*
X215350Y317925D02*
Y321075D01*
X221650D01*
Y317925D02*
Y321075D01*
X215350Y317925D02*
X221650D01*
X231150D02*
Y321075D01*
X224850Y317925D02*
X231150D01*
X224850D02*
Y321075D01*
X231150D01*
X216555Y287030D02*
Y290770D01*
X223445D01*
Y287030D02*
Y290770D01*
X216555Y287030D02*
X223445D01*
X233193Y293614D02*
X244807D01*
X233193D02*
Y312315D01*
X244807D01*
Y293614D02*
Y312315D01*
X217201Y293350D02*
X229799D01*
Y299650D01*
X217201D02*
X229799D01*
X217201Y293350D02*
Y299650D01*
M02*
