G04*
G04 #@! TF.GenerationSoftware,Altium Limited,Altium Designer,21.1.1 (26)*
G04*
G04 Layer_Color=12632256*
%FSLAX25Y25*%
%MOIN*%
G70*
G04*
G04 #@! TF.SameCoordinates,D6B6CD0C-24BE-41C4-A853-45D6888EAD6D*
G04*
G04*
G04 #@! TF.FilePolarity,Positive*
G04*
G01*
G75*
%ADD45R,0.05512X0.05512*%
%ADD46C,0.05512*%
%ADD47O,0.05512X0.10236*%
%ADD48O,0.10236X0.05512*%
%ADD49R,0.06000X0.04400*%
%ADD50O,0.06000X0.04400*%
%ADD51O,0.06000X0.07500*%
%ADD52O,0.07874X0.05906*%
%ADD53C,0.04134*%
D45*
X355400Y345800D02*
D03*
D46*
X365400D02*
D03*
D47*
X303831Y258287D02*
D03*
X306587Y272067D02*
D03*
X332571D02*
D03*
X323910D02*
D03*
X315248D02*
D03*
X297926D02*
D03*
X289264D02*
D03*
X271941D02*
D03*
X263280D02*
D03*
X254619D02*
D03*
X280603D02*
D03*
X260524Y258287D02*
D03*
X269185D02*
D03*
X277847D02*
D03*
X286508D02*
D03*
X295170D02*
D03*
X312493D02*
D03*
X321154D02*
D03*
X329815D02*
D03*
X338477D02*
D03*
D48*
X363614Y303370D02*
D03*
X349835Y307701D02*
D03*
X363614Y260063D02*
D03*
Y268724D02*
D03*
Y277386D02*
D03*
Y286047D02*
D03*
Y294709D02*
D03*
Y312032D02*
D03*
Y320693D02*
D03*
Y329354D02*
D03*
Y338016D02*
D03*
X350835Y255732D02*
D03*
Y264394D02*
D03*
Y273055D02*
D03*
Y281716D02*
D03*
Y290378D02*
D03*
X349835Y299039D02*
D03*
Y316362D02*
D03*
Y325024D02*
D03*
Y333685D02*
D03*
D49*
X334000Y293500D02*
D03*
D50*
X324000D02*
D03*
D51*
X388366Y248994D02*
D03*
Y238994D02*
D03*
Y228994D02*
D03*
D52*
X358234Y249006D02*
D03*
Y239006D02*
D03*
Y229006D02*
D03*
D53*
X383300Y342400D02*
D03*
X388300D02*
D03*
Y332400D02*
D03*
X383300Y327400D02*
D03*
Y322400D02*
D03*
X388300Y327400D02*
D03*
Y322400D02*
D03*
M02*
