G04*
G04 #@! TF.GenerationSoftware,Altium Limited,Altium Designer,21.0.8 (223)*
G04*
G04 Layer_Physical_Order=2*
G04 Layer_Color=16711680*
%FSLAX25Y25*%
%MOIN*%
G70*
G04*
G04 #@! TF.SameCoordinates,128E1E45-F731-4E68-84EB-4EEBB871E250*
G04*
G04*
G04 #@! TF.FilePolarity,Positive*
G04*
G01*
G75*
%ADD10C,0.01000*%
%ADD58C,0.03000*%
%ADD60C,0.01500*%
%ADD61C,0.02000*%
%ADD64C,0.08661*%
%ADD65C,0.07874*%
%ADD66O,0.05906X0.11811*%
%ADD67O,0.11811X0.05906*%
%ADD68O,0.08661X0.05906*%
%ADD69O,0.05512X0.10236*%
%ADD70O,0.07874X0.05906*%
%ADD71C,0.09449*%
%ADD72C,0.03000*%
%ADD73C,0.07000*%
%ADD74C,0.04000*%
%ADD75C,0.02500*%
G36*
X374980Y218720D02*
X196420Y218720D01*
Y282200D01*
X196342Y282590D01*
X196121Y282921D01*
X195790Y283142D01*
X195400Y283220D01*
X195200D01*
Y284980D01*
X196278D01*
X197380Y283878D01*
Y240639D01*
X197458Y240249D01*
X197679Y239918D01*
X207651Y229947D01*
X207352Y229225D01*
X207233Y228324D01*
X207352Y227422D01*
X207700Y226582D01*
X208253Y225861D01*
X208975Y225308D01*
X209814Y224960D01*
X210716Y224841D01*
X212684D01*
X213586Y224960D01*
X214425Y225308D01*
X215147Y225861D01*
X215700Y226582D01*
X216048Y227422D01*
X216167Y228324D01*
X216048Y229225D01*
X215700Y230065D01*
X215147Y230786D01*
X214425Y231340D01*
X213586Y231688D01*
X212684Y231806D01*
X210716D01*
X209814Y231688D01*
X209093Y231389D01*
X199420Y241062D01*
Y254331D01*
X199920Y254538D01*
X207575Y246883D01*
X207700Y246582D01*
X208253Y245861D01*
X208975Y245308D01*
X209814Y244960D01*
X210716Y244841D01*
X212684D01*
X213586Y244960D01*
X214425Y245308D01*
X215147Y245861D01*
X215700Y246582D01*
X216048Y247422D01*
X216167Y248324D01*
X216048Y249225D01*
X215700Y250065D01*
X215147Y250786D01*
X214425Y251340D01*
X213586Y251688D01*
X212684Y251806D01*
X210716D01*
X209814Y251688D01*
X208975Y251340D01*
X208253Y250786D01*
X207823Y250226D01*
X207233Y250109D01*
X201239Y256103D01*
Y270283D01*
X201739Y270550D01*
X201939Y270416D01*
X202720Y270261D01*
X203147Y270346D01*
X204133Y269360D01*
Y266596D01*
X204210Y266205D01*
X204431Y265875D01*
X210827Y259479D01*
X211157Y259258D01*
X211547Y259180D01*
X217794D01*
X219113Y257862D01*
Y257807D01*
X218900Y257339D01*
X218120Y257184D01*
X217458Y256742D01*
X217016Y256080D01*
X216861Y255300D01*
X217016Y254520D01*
X217458Y253858D01*
X218120Y253416D01*
X218900Y253261D01*
X219680Y253416D01*
X220342Y253858D01*
X220784Y254520D01*
X220939Y255300D01*
X220828Y255858D01*
X221029Y256079D01*
X221075Y256093D01*
X221610Y256041D01*
X221933Y255558D01*
X222594Y255116D01*
X223375Y254961D01*
X224155Y255116D01*
X224817Y255558D01*
X225259Y256220D01*
X225414Y257000D01*
X225259Y257780D01*
X224817Y258442D01*
X224155Y258884D01*
X223375Y259039D01*
X223143Y258993D01*
X222353Y259783D01*
X222353Y259783D01*
X219605Y262532D01*
X219274Y262753D01*
X218884Y262830D01*
X212637D01*
X210496Y264972D01*
X210658Y265300D01*
X210757Y265418D01*
X212684D01*
X213586Y265536D01*
X214425Y265884D01*
X215147Y266438D01*
X215700Y267159D01*
X216048Y267999D01*
X216167Y268900D01*
X216048Y269801D01*
X215700Y270641D01*
X215502Y270900D01*
X225701Y281099D01*
X225977Y281512D01*
X226075Y282000D01*
Y287046D01*
X226242Y287158D01*
X226684Y287820D01*
X226839Y288600D01*
X226684Y289380D01*
X226242Y290042D01*
X225580Y290484D01*
X224800Y290639D01*
X224020Y290484D01*
X223358Y290042D01*
X222916Y289380D01*
X222761Y288600D01*
X222916Y287820D01*
X223358Y287158D01*
X223526Y287046D01*
Y282528D01*
X213299Y272302D01*
X212684Y272382D01*
X210716D01*
X209814Y272264D01*
X208975Y271916D01*
X208253Y271362D01*
X208242Y271348D01*
X207708Y271473D01*
X207705Y271486D01*
X207484Y271817D01*
X207102Y272199D01*
Y273232D01*
X207142Y273258D01*
X207584Y273920D01*
X207739Y274700D01*
X207584Y275480D01*
X207142Y276142D01*
X206480Y276584D01*
X205700Y276739D01*
X204920Y276584D01*
X204258Y276142D01*
X203816Y275480D01*
X203661Y274700D01*
X203676Y274622D01*
X203243Y274235D01*
X202720Y274339D01*
X201939Y274184D01*
X201739Y274050D01*
X201239Y274318D01*
Y284602D01*
X201162Y284992D01*
X200941Y285323D01*
X198042Y288221D01*
X197712Y288442D01*
X197321Y288520D01*
X84844D01*
X76705Y296658D01*
Y314678D01*
X83621Y321593D01*
X83842Y321924D01*
X83920Y322314D01*
Y332178D01*
X84473Y332731D01*
X84694Y333062D01*
X84772Y333452D01*
Y334853D01*
X84900Y334965D01*
X85944Y335103D01*
X86917Y335506D01*
X87753Y336147D01*
X88394Y336983D01*
X88797Y337956D01*
X88934Y339000D01*
X88797Y340044D01*
X88394Y341017D01*
X87753Y341853D01*
X86917Y342494D01*
X85944Y342897D01*
X84900Y343035D01*
X83856Y342897D01*
X82883Y342494D01*
X82047Y341853D01*
X81406Y341017D01*
X81003Y340044D01*
X80866Y339000D01*
X81003Y337956D01*
X81406Y336983D01*
X82047Y336147D01*
X82732Y335621D01*
Y333874D01*
X82179Y333321D01*
X81958Y332990D01*
X81880Y332600D01*
Y331438D01*
X81380Y331339D01*
X81316Y331494D01*
X80762Y332215D01*
X80041Y332769D01*
X79201Y333117D01*
X78300Y333235D01*
X77399Y333117D01*
X76559Y332769D01*
X75837Y332215D01*
X75284Y331494D01*
X75120Y331097D01*
X74620Y331196D01*
Y332478D01*
X74637Y332495D01*
X74858Y332826D01*
X74935Y333216D01*
Y334902D01*
X75064Y335015D01*
X76108Y335153D01*
X77081Y335556D01*
X77917Y336197D01*
X78558Y337032D01*
X78961Y338005D01*
X79098Y339050D01*
X78961Y340094D01*
X78558Y341067D01*
X77917Y341902D01*
X77081Y342544D01*
X76108Y342947D01*
X75064Y343084D01*
X74020Y342947D01*
X73046Y342544D01*
X72211Y341902D01*
X71570Y341067D01*
X71167Y340094D01*
X71029Y339050D01*
X71167Y338005D01*
X71570Y337032D01*
X72211Y336197D01*
X72896Y335671D01*
Y333638D01*
X72879Y333621D01*
X72658Y333290D01*
X72580Y332900D01*
Y296200D01*
X72658Y295810D01*
X72879Y295479D01*
X81662Y286696D01*
X81472Y286234D01*
X20047Y285922D01*
X-826Y285816D01*
X-1180Y286168D01*
Y401697D01*
X143189D01*
X143340Y401197D01*
X142958Y400942D01*
X142516Y400280D01*
X142361Y399500D01*
X142516Y398720D01*
X142958Y398058D01*
X143620Y397616D01*
X144400Y397461D01*
X231647D01*
X232013Y397216D01*
X232794Y397061D01*
X232947Y397091D01*
X233100Y397061D01*
X252655D01*
X253758Y395958D01*
X254420Y395516D01*
X255200Y395361D01*
X255980Y395516D01*
X256642Y395958D01*
X257084Y396620D01*
X257239Y397400D01*
X257084Y398180D01*
X256642Y398842D01*
X254942Y400542D01*
X254280Y400984D01*
X253500Y401139D01*
X233959D01*
X233907Y401197D01*
X234132Y401697D01*
X374980D01*
Y218720D01*
D02*
G37*
%LPC*%
G36*
X20268Y392594D02*
Y388769D01*
X21782D01*
Y389753D01*
X21664Y390654D01*
X21316Y391494D01*
X20763Y392215D01*
X20268Y392594D01*
D02*
G37*
G36*
X16331D02*
X15837Y392215D01*
X15284Y391494D01*
X14936Y390654D01*
X14818Y389753D01*
Y388769D01*
X16331D01*
Y392594D01*
D02*
G37*
G36*
X118300Y391275D02*
X117142Y391123D01*
X116062Y390676D01*
X115136Y389965D01*
X114424Y389038D01*
X113977Y387958D01*
X113825Y386800D01*
X113977Y385642D01*
X114424Y384562D01*
X115136Y383635D01*
X116062Y382924D01*
X117142Y382477D01*
X118300Y382325D01*
X119458Y382477D01*
X120538Y382924D01*
X121465Y383635D01*
X122176Y384562D01*
X122623Y385642D01*
X122775Y386800D01*
X122623Y387958D01*
X122176Y389038D01*
X121465Y389965D01*
X120538Y390676D01*
X119458Y391123D01*
X118300Y391275D01*
D02*
G37*
G36*
X108300D02*
X107142Y391123D01*
X106062Y390676D01*
X105136Y389965D01*
X104424Y389038D01*
X103977Y387958D01*
X103825Y386800D01*
X103977Y385642D01*
X104424Y384562D01*
X105136Y383635D01*
X106062Y382924D01*
X107142Y382477D01*
X108300Y382325D01*
X109458Y382477D01*
X110538Y382924D01*
X111465Y383635D01*
X112176Y384562D01*
X112623Y385642D01*
X112775Y386800D01*
X112623Y387958D01*
X112176Y389038D01*
X111465Y389965D01*
X110538Y390676D01*
X109458Y391123D01*
X108300Y391275D01*
D02*
G37*
G36*
X138300Y391672D02*
X137039Y391506D01*
X135864Y391020D01*
X134855Y390245D01*
X134080Y389236D01*
X133594Y388061D01*
X133428Y386800D01*
X133594Y385539D01*
X134080Y384364D01*
X134855Y383355D01*
X135864Y382580D01*
X137039Y382094D01*
X138300Y381928D01*
X139561Y382094D01*
X140736Y382580D01*
X141745Y383355D01*
X142520Y384364D01*
X143006Y385539D01*
X143172Y386800D01*
X143006Y388061D01*
X142520Y389236D01*
X141745Y390245D01*
X140736Y391020D01*
X139561Y391506D01*
X138300Y391672D01*
D02*
G37*
G36*
X21782Y384832D02*
X20268D01*
Y381006D01*
X20763Y381385D01*
X21316Y382106D01*
X21664Y382946D01*
X21782Y383847D01*
Y384832D01*
D02*
G37*
G36*
X16331D02*
X14818D01*
Y383847D01*
X14936Y382946D01*
X15284Y382106D01*
X15837Y381385D01*
X16331Y381006D01*
Y384832D01*
D02*
G37*
G36*
X128300Y393235D02*
X127399Y393117D01*
X126559Y392769D01*
X125838Y392215D01*
X125284Y391494D01*
X124936Y390654D01*
X124818Y389753D01*
Y383847D01*
X124936Y382946D01*
X125284Y382106D01*
X125838Y381385D01*
X126559Y380831D01*
X127399Y380483D01*
X128300Y380365D01*
X129201Y380483D01*
X130041Y380831D01*
X130763Y381385D01*
X131316Y382106D01*
X131664Y382946D01*
X131782Y383847D01*
Y389753D01*
X131664Y390654D01*
X131316Y391494D01*
X130763Y392215D01*
X130041Y392769D01*
X129201Y393117D01*
X128300Y393235D01*
D02*
G37*
G36*
X98300D02*
X97399Y393117D01*
X96559Y392769D01*
X95837Y392215D01*
X95284Y391494D01*
X94936Y390654D01*
X94818Y389753D01*
Y383847D01*
X94936Y382946D01*
X95284Y382106D01*
X95837Y381385D01*
X96559Y380831D01*
X97399Y380483D01*
X98300Y380365D01*
X99201Y380483D01*
X100041Y380831D01*
X100762Y381385D01*
X101316Y382106D01*
X101664Y382946D01*
X101783Y383847D01*
Y389753D01*
X101664Y390654D01*
X101316Y391494D01*
X100762Y392215D01*
X100041Y392769D01*
X99201Y393117D01*
X98300Y393235D01*
D02*
G37*
G36*
X88300D02*
X87399Y393117D01*
X86559Y392769D01*
X85838Y392215D01*
X85284Y391494D01*
X84936Y390654D01*
X84817Y389753D01*
Y383847D01*
X84936Y382946D01*
X85284Y382106D01*
X85838Y381385D01*
X86559Y380831D01*
X87399Y380483D01*
X88300Y380365D01*
X89201Y380483D01*
X90041Y380831D01*
X90763Y381385D01*
X91316Y382106D01*
X91664Y382946D01*
X91782Y383847D01*
Y389753D01*
X91664Y390654D01*
X91316Y391494D01*
X90763Y392215D01*
X90041Y392769D01*
X89201Y393117D01*
X88300Y393235D01*
D02*
G37*
G36*
X78300D02*
X77399Y393117D01*
X76559Y392769D01*
X75837Y392215D01*
X75284Y391494D01*
X74936Y390654D01*
X74818Y389753D01*
Y383847D01*
X74936Y382946D01*
X75284Y382106D01*
X75837Y381385D01*
X76559Y380831D01*
X77399Y380483D01*
X78300Y380365D01*
X79201Y380483D01*
X80041Y380831D01*
X80762Y381385D01*
X81316Y382106D01*
X81664Y382946D01*
X81783Y383847D01*
Y389753D01*
X81664Y390654D01*
X81316Y391494D01*
X80762Y392215D01*
X80041Y392769D01*
X79201Y393117D01*
X78300Y393235D01*
D02*
G37*
G36*
X68300D02*
X67399Y393117D01*
X66559Y392769D01*
X65838Y392215D01*
X65284Y391494D01*
X64936Y390654D01*
X64818Y389753D01*
Y383847D01*
X64936Y382946D01*
X65284Y382106D01*
X65838Y381385D01*
X66559Y380831D01*
X67399Y380483D01*
X68300Y380365D01*
X69201Y380483D01*
X70041Y380831D01*
X70762Y381385D01*
X71316Y382106D01*
X71664Y382946D01*
X71782Y383847D01*
Y389753D01*
X71664Y390654D01*
X71316Y391494D01*
X70762Y392215D01*
X70041Y392769D01*
X69201Y393117D01*
X68300Y393235D01*
D02*
G37*
G36*
X58300D02*
X57399Y393117D01*
X56559Y392769D01*
X55838Y392215D01*
X55284Y391494D01*
X54936Y390654D01*
X54817Y389753D01*
Y383847D01*
X54936Y382946D01*
X55284Y382106D01*
X55838Y381385D01*
X56559Y380831D01*
X57399Y380483D01*
X58300Y380365D01*
X59201Y380483D01*
X60041Y380831D01*
X60763Y381385D01*
X61316Y382106D01*
X61664Y382946D01*
X61782Y383847D01*
Y389753D01*
X61664Y390654D01*
X61316Y391494D01*
X60763Y392215D01*
X60041Y392769D01*
X59201Y393117D01*
X58300Y393235D01*
D02*
G37*
G36*
X44800Y397349D02*
X43824Y397155D01*
X42998Y396602D01*
X42474Y395820D01*
X30885D01*
X30494Y395742D01*
X30164Y395521D01*
X28480Y393838D01*
X28259Y393507D01*
X28203Y393222D01*
X27399Y393117D01*
X26559Y392769D01*
X25837Y392215D01*
X25284Y391494D01*
X24936Y390654D01*
X24817Y389753D01*
Y383847D01*
X24936Y382946D01*
X25284Y382106D01*
X25837Y381385D01*
X26559Y380831D01*
X27399Y380483D01*
X28300Y380365D01*
X29201Y380483D01*
X30041Y380831D01*
X30762Y381385D01*
X31316Y382106D01*
X31664Y382946D01*
X31782Y383847D01*
Y389753D01*
X31664Y390654D01*
X31316Y391494D01*
X30762Y392215D01*
X30585Y392351D01*
X30542Y393015D01*
X31307Y393780D01*
X42474D01*
X42998Y392998D01*
X43824Y392445D01*
X44800Y392251D01*
X45313Y392353D01*
X45595Y391899D01*
X45284Y391494D01*
X44936Y390654D01*
X44818Y389753D01*
Y383847D01*
X44936Y382946D01*
X45284Y382106D01*
X45838Y381385D01*
X46559Y380831D01*
X47399Y380483D01*
X48300Y380365D01*
X49201Y380483D01*
X50041Y380831D01*
X50762Y381385D01*
X51316Y382106D01*
X51664Y382946D01*
X51783Y383847D01*
Y389753D01*
X51664Y390654D01*
X51316Y391494D01*
X50762Y392215D01*
X50041Y392769D01*
X49201Y393117D01*
X48300Y393235D01*
X47399Y393117D01*
X47239Y393051D01*
X46908Y393455D01*
X47155Y393825D01*
X47349Y394800D01*
X47155Y395776D01*
X46602Y396602D01*
X45775Y397155D01*
X44800Y397349D01*
D02*
G37*
G36*
X38300Y393235D02*
X37399Y393117D01*
X36559Y392769D01*
X35838Y392215D01*
X35284Y391494D01*
X34936Y390654D01*
X34817Y389753D01*
Y383847D01*
X34936Y382946D01*
X35284Y382106D01*
X35838Y381385D01*
X36559Y380831D01*
X37399Y380483D01*
X38300Y380365D01*
X39201Y380483D01*
X40041Y380831D01*
X40762Y381385D01*
X41316Y382106D01*
X41664Y382946D01*
X41783Y383847D01*
Y389753D01*
X41664Y390654D01*
X41316Y391494D01*
X40762Y392215D01*
X40041Y392769D01*
X39201Y393117D01*
X38300Y393235D01*
D02*
G37*
G36*
X8300D02*
X7399Y393117D01*
X6559Y392769D01*
X5838Y392215D01*
X5284Y391494D01*
X4936Y390654D01*
X4817Y389753D01*
Y383847D01*
X4936Y382946D01*
X5284Y382106D01*
X5838Y381385D01*
X6559Y380831D01*
X7399Y380483D01*
X8300Y380365D01*
X9201Y380483D01*
X10041Y380831D01*
X10763Y381385D01*
X11316Y382106D01*
X11664Y382946D01*
X11783Y383847D01*
Y389753D01*
X11664Y390654D01*
X11316Y391494D01*
X10763Y392215D01*
X10041Y392769D01*
X9201Y393117D01*
X8300Y393235D01*
D02*
G37*
G36*
X119678Y380282D02*
X116922D01*
X116021Y380164D01*
X115181Y379816D01*
X114460Y379262D01*
X113906Y378541D01*
X113558Y377701D01*
X113552Y377656D01*
X113048D01*
X113042Y377701D01*
X112694Y378541D01*
X112141Y379262D01*
X111419Y379816D01*
X110579Y380164D01*
X109678Y380282D01*
X106922D01*
X106021Y380164D01*
X105181Y379816D01*
X104460Y379262D01*
X103906Y378541D01*
X103558Y377701D01*
X103439Y376800D01*
X103558Y375899D01*
X103906Y375059D01*
X104460Y374338D01*
X105181Y373784D01*
X106021Y373436D01*
X106922Y373318D01*
X109678D01*
X110579Y373436D01*
X111419Y373784D01*
X112141Y374338D01*
X112694Y375059D01*
X113042Y375899D01*
X113048Y375944D01*
X113552D01*
X113558Y375899D01*
X113906Y375059D01*
X114460Y374338D01*
X115181Y373784D01*
X116021Y373436D01*
X116922Y373318D01*
X119678D01*
X120579Y373436D01*
X121419Y373784D01*
X122141Y374338D01*
X122694Y375059D01*
X123042Y375899D01*
X123161Y376800D01*
X123042Y377701D01*
X122694Y378541D01*
X122141Y379262D01*
X121419Y379816D01*
X120579Y380164D01*
X119678Y380282D01*
D02*
G37*
G36*
X141253D02*
X135347D01*
X134446Y380164D01*
X133606Y379816D01*
X132885Y379262D01*
X132331Y378541D01*
X131983Y377701D01*
X131865Y376800D01*
X131983Y375899D01*
X132331Y375059D01*
X132885Y374338D01*
X133606Y373784D01*
X134446Y373436D01*
X135347Y373318D01*
X141253D01*
X142154Y373436D01*
X142994Y373784D01*
X143715Y374338D01*
X144269Y375059D01*
X144617Y375899D01*
X144735Y376800D01*
X144617Y377701D01*
X144269Y378541D01*
X143715Y379262D01*
X142994Y379816D01*
X142154Y380164D01*
X141253Y380282D01*
D02*
G37*
G36*
X119678Y370283D02*
X116922D01*
X116021Y370164D01*
X115181Y369816D01*
X114460Y369263D01*
X113906Y368541D01*
X113558Y367701D01*
X113552Y367656D01*
X113048D01*
X113042Y367701D01*
X112694Y368541D01*
X112141Y369263D01*
X111419Y369816D01*
X110579Y370164D01*
X109678Y370283D01*
X106922D01*
X106021Y370164D01*
X105181Y369816D01*
X104460Y369263D01*
X103906Y368541D01*
X103558Y367701D01*
X103439Y366800D01*
X103558Y365899D01*
X103906Y365059D01*
X104460Y364337D01*
X105181Y363784D01*
X106021Y363436D01*
X106922Y363317D01*
X109678D01*
X110579Y363436D01*
X111419Y363784D01*
X112141Y364337D01*
X112694Y365059D01*
X113042Y365899D01*
X113048Y365944D01*
X113552D01*
X113558Y365899D01*
X113906Y365059D01*
X114460Y364337D01*
X115181Y363784D01*
X116021Y363436D01*
X116922Y363317D01*
X119678D01*
X120579Y363436D01*
X121419Y363784D01*
X122141Y364337D01*
X122694Y365059D01*
X123042Y365899D01*
X123161Y366800D01*
X123042Y367701D01*
X122694Y368541D01*
X122141Y369263D01*
X121419Y369816D01*
X120579Y370164D01*
X119678Y370283D01*
D02*
G37*
G36*
X141253D02*
X135347D01*
X134446Y370164D01*
X133606Y369816D01*
X132885Y369263D01*
X132331Y368541D01*
X131983Y367701D01*
X131865Y366800D01*
X131983Y365899D01*
X132331Y365059D01*
X132885Y364337D01*
X133606Y363784D01*
X134446Y363436D01*
X135347Y363317D01*
X141253D01*
X142154Y363436D01*
X142994Y363784D01*
X143715Y364337D01*
X144269Y365059D01*
X144617Y365899D01*
X144735Y366800D01*
X144617Y367701D01*
X144269Y368541D01*
X143715Y369263D01*
X142994Y369816D01*
X142154Y370164D01*
X141253Y370283D01*
D02*
G37*
G36*
Y360282D02*
X140269D01*
Y358769D01*
X144094D01*
X143715Y359262D01*
X142994Y359816D01*
X142154Y360164D01*
X141253Y360282D01*
D02*
G37*
G36*
X136331D02*
X135347D01*
X134446Y360164D01*
X133606Y359816D01*
X132885Y359262D01*
X132506Y358769D01*
X136331D01*
Y360282D01*
D02*
G37*
G36*
X119678D02*
X116922D01*
X116021Y360164D01*
X115181Y359816D01*
X114460Y359262D01*
X113906Y358541D01*
X113558Y357701D01*
X113552Y357656D01*
X113048D01*
X113042Y357701D01*
X112694Y358541D01*
X112141Y359262D01*
X111419Y359816D01*
X110579Y360164D01*
X109678Y360282D01*
X106922D01*
X106021Y360164D01*
X105181Y359816D01*
X104460Y359262D01*
X103906Y358541D01*
X103558Y357701D01*
X103439Y356800D01*
X103558Y355899D01*
X103906Y355059D01*
X104460Y354338D01*
X105181Y353784D01*
X106021Y353436D01*
X106922Y353317D01*
X109678D01*
X110579Y353436D01*
X111419Y353784D01*
X112141Y354338D01*
X112694Y355059D01*
X113042Y355899D01*
X113048Y355944D01*
X113552D01*
X113558Y355899D01*
X113906Y355059D01*
X114460Y354338D01*
X115181Y353784D01*
X116021Y353436D01*
X116922Y353317D01*
X119678D01*
X120579Y353436D01*
X121419Y353784D01*
X122141Y354338D01*
X122694Y355059D01*
X123042Y355899D01*
X123161Y356800D01*
X123042Y357701D01*
X122694Y358541D01*
X122141Y359262D01*
X121419Y359816D01*
X120579Y360164D01*
X119678Y360282D01*
D02*
G37*
G36*
X144094Y354832D02*
X140269D01*
Y353317D01*
X141253D01*
X142154Y353436D01*
X142994Y353784D01*
X143715Y354338D01*
X144094Y354832D01*
D02*
G37*
G36*
X136331D02*
X132506D01*
X132885Y354338D01*
X133606Y353784D01*
X134446Y353436D01*
X135347Y353317D01*
X136331D01*
Y354832D01*
D02*
G37*
G36*
X119678Y350283D02*
X116922D01*
X116021Y350164D01*
X115181Y349816D01*
X114460Y349262D01*
X113906Y348541D01*
X113558Y347701D01*
X113552Y347656D01*
X113048D01*
X113042Y347701D01*
X112694Y348541D01*
X112141Y349262D01*
X111419Y349816D01*
X110579Y350164D01*
X109678Y350283D01*
X106922D01*
X106021Y350164D01*
X105181Y349816D01*
X104460Y349262D01*
X103906Y348541D01*
X103558Y347701D01*
X103439Y346800D01*
X103558Y345899D01*
X103906Y345059D01*
X104460Y344338D01*
X105181Y343784D01*
X106021Y343436D01*
X106922Y343318D01*
X109678D01*
X110579Y343436D01*
X111419Y343784D01*
X112141Y344338D01*
X112694Y345059D01*
X113042Y345899D01*
X113048Y345944D01*
X113552D01*
X113558Y345899D01*
X113906Y345059D01*
X114460Y344338D01*
X115181Y343784D01*
X116021Y343436D01*
X116922Y343318D01*
X119678D01*
X120579Y343436D01*
X121419Y343784D01*
X122141Y344338D01*
X122694Y345059D01*
X123042Y345899D01*
X123161Y346800D01*
X123042Y347701D01*
X122694Y348541D01*
X122141Y349262D01*
X121419Y349816D01*
X120579Y350164D01*
X119678Y350283D01*
D02*
G37*
G36*
X188100Y350039D02*
X187320Y349884D01*
X186658Y349442D01*
X186216Y348780D01*
X186061Y348000D01*
X186216Y347220D01*
X186658Y346558D01*
X187320Y346116D01*
X187880Y346005D01*
Y345151D01*
X187380Y344883D01*
X187080Y345084D01*
X186300Y345239D01*
X185520Y345084D01*
X184858Y344642D01*
X184416Y343980D01*
X184261Y343200D01*
X184416Y342420D01*
X184858Y341758D01*
X185520Y341316D01*
X186300Y341161D01*
X187080Y341316D01*
X187177Y341381D01*
X204874Y323684D01*
Y309430D01*
X204452Y309148D01*
X204010Y308487D01*
X203855Y307706D01*
X204010Y306926D01*
X204452Y306264D01*
X205113Y305822D01*
X205894Y305667D01*
X206674Y305822D01*
X207336Y306264D01*
X207778Y306926D01*
X207933Y307706D01*
X207778Y308487D01*
X207336Y309148D01*
X206913Y309430D01*
Y323766D01*
X207413Y323973D01*
X208480Y322906D01*
Y305824D01*
X208058Y305542D01*
X207616Y304880D01*
X207461Y304100D01*
X207616Y303320D01*
X208058Y302658D01*
X208720Y302216D01*
X209500Y302061D01*
X210280Y302216D01*
X210942Y302658D01*
X211384Y303320D01*
X211539Y304100D01*
X211384Y304880D01*
X210942Y305542D01*
X210520Y305824D01*
Y323328D01*
X210442Y323719D01*
X210221Y324049D01*
X189920Y344351D01*
Y346800D01*
X189870Y347049D01*
X189984Y347220D01*
X190139Y348000D01*
X189984Y348780D01*
X189542Y349442D01*
X188880Y349884D01*
X188100Y350039D01*
D02*
G37*
G36*
X141253Y350283D02*
X135347D01*
X134446Y350164D01*
X133606Y349816D01*
X132885Y349262D01*
X132331Y348541D01*
X131983Y347701D01*
X131865Y346800D01*
X131983Y345899D01*
X132331Y345059D01*
X132885Y344338D01*
X133606Y343784D01*
X134446Y343436D01*
X135347Y343318D01*
X141253D01*
X142154Y343436D01*
X142994Y343784D01*
X143715Y344338D01*
X144269Y345059D01*
X144617Y345899D01*
X144735Y346800D01*
X144617Y347701D01*
X144269Y348541D01*
X143715Y349262D01*
X142994Y349816D01*
X142154Y350164D01*
X141253Y350283D01*
D02*
G37*
G36*
X119678Y340283D02*
X116922D01*
X116021Y340164D01*
X115181Y339816D01*
X114460Y339263D01*
X113906Y338541D01*
X113558Y337701D01*
X113552Y337656D01*
X113048D01*
X113042Y337701D01*
X112694Y338541D01*
X112141Y339263D01*
X111419Y339816D01*
X110579Y340164D01*
X109678Y340283D01*
X106922D01*
X106021Y340164D01*
X105181Y339816D01*
X104460Y339263D01*
X103906Y338541D01*
X103558Y337701D01*
X103439Y336800D01*
X103558Y335899D01*
X103906Y335059D01*
X104460Y334337D01*
X105181Y333784D01*
X106021Y333436D01*
X106922Y333317D01*
X109678D01*
X110579Y333436D01*
X111419Y333784D01*
X112141Y334337D01*
X112694Y335059D01*
X113042Y335899D01*
X113048Y335944D01*
X113552D01*
X113558Y335899D01*
X113906Y335059D01*
X114460Y334337D01*
X115181Y333784D01*
X116021Y333436D01*
X116922Y333317D01*
X119678D01*
X120579Y333436D01*
X121419Y333784D01*
X122141Y334337D01*
X122694Y335059D01*
X123042Y335899D01*
X123161Y336800D01*
X123042Y337701D01*
X122694Y338541D01*
X122141Y339263D01*
X121419Y339816D01*
X120579Y340164D01*
X119678Y340283D01*
D02*
G37*
G36*
X141253D02*
X135347D01*
X134446Y340164D01*
X133606Y339816D01*
X132885Y339263D01*
X132331Y338541D01*
X131983Y337701D01*
X131865Y336800D01*
X131983Y335899D01*
X132331Y335059D01*
X132885Y334337D01*
X133606Y333784D01*
X134446Y333436D01*
X135347Y333317D01*
X141253D01*
X142154Y333436D01*
X142994Y333784D01*
X143715Y334337D01*
X144269Y335059D01*
X144617Y335899D01*
X144735Y336800D01*
X144617Y337701D01*
X144269Y338541D01*
X143715Y339263D01*
X142994Y339816D01*
X142154Y340164D01*
X141253Y340283D01*
D02*
G37*
G36*
X148900Y349239D02*
X148120Y349084D01*
X147458Y348642D01*
X147016Y347980D01*
X146861Y347200D01*
X147016Y346420D01*
X147458Y345758D01*
X147880Y345476D01*
Y337222D01*
X145579Y334921D01*
X145358Y334590D01*
X145280Y334200D01*
Y331488D01*
X144875Y331218D01*
X144433Y330556D01*
X144278Y329776D01*
X144433Y328995D01*
X144875Y328334D01*
X145537Y327892D01*
X146317Y327736D01*
X147098Y327892D01*
X147759Y328334D01*
X148201Y328995D01*
X148338Y329681D01*
X148384Y329793D01*
X148810Y330058D01*
X149300Y329961D01*
X150080Y330116D01*
X150742Y330558D01*
X151184Y331220D01*
X151339Y332000D01*
X151184Y332780D01*
X150742Y333442D01*
X150735Y333447D01*
X150686Y333944D01*
X152921Y336179D01*
X153142Y336510D01*
X153220Y336900D01*
Y341804D01*
X153280Y341816D01*
X153942Y342258D01*
X154384Y342920D01*
X154539Y343700D01*
X154384Y344480D01*
X153942Y345142D01*
X153280Y345584D01*
X152500Y345739D01*
X151720Y345584D01*
X151058Y345142D01*
X150616Y344480D01*
X150461Y343700D01*
X150616Y342920D01*
X151058Y342258D01*
X151180Y342176D01*
Y337322D01*
X150373Y336514D01*
X149912Y336761D01*
X149920Y336800D01*
Y345476D01*
X150342Y345758D01*
X150784Y346420D01*
X150939Y347200D01*
X150784Y347980D01*
X150342Y348642D01*
X149680Y349084D01*
X148900Y349239D01*
D02*
G37*
G36*
X10268Y332594D02*
Y328768D01*
X11783D01*
Y329753D01*
X11664Y330654D01*
X11316Y331494D01*
X10763Y332215D01*
X10268Y332594D01*
D02*
G37*
G36*
X6331D02*
X5838Y332215D01*
X5284Y331494D01*
X4936Y330654D01*
X4817Y329753D01*
Y328768D01*
X6331D01*
Y332594D01*
D02*
G37*
G36*
X118300Y331275D02*
X117142Y331123D01*
X116062Y330676D01*
X115136Y329964D01*
X114424Y329038D01*
X113977Y327958D01*
X113825Y326800D01*
X113977Y325642D01*
X114424Y324562D01*
X115136Y323636D01*
X116062Y322924D01*
X117142Y322477D01*
X118300Y322325D01*
X119458Y322477D01*
X120538Y322924D01*
X121465Y323636D01*
X122176Y324562D01*
X122623Y325642D01*
X122775Y326800D01*
X122623Y327958D01*
X122176Y329038D01*
X121465Y329964D01*
X120538Y330676D01*
X119458Y331123D01*
X118300Y331275D01*
D02*
G37*
G36*
X108300D02*
X107142Y331123D01*
X106062Y330676D01*
X105136Y329964D01*
X104424Y329038D01*
X103977Y327958D01*
X103825Y326800D01*
X103977Y325642D01*
X104424Y324562D01*
X105136Y323636D01*
X106062Y322924D01*
X107142Y322477D01*
X108300Y322325D01*
X109458Y322477D01*
X110538Y322924D01*
X111465Y323636D01*
X112176Y324562D01*
X112623Y325642D01*
X112775Y326800D01*
X112623Y327958D01*
X112176Y329038D01*
X111465Y329964D01*
X110538Y330676D01*
X109458Y331123D01*
X108300Y331275D01*
D02*
G37*
G36*
X138300Y331672D02*
X137039Y331506D01*
X135864Y331020D01*
X134855Y330245D01*
X134080Y329236D01*
X133594Y328061D01*
X133428Y326800D01*
X133594Y325539D01*
X134080Y324364D01*
X134855Y323355D01*
X135864Y322580D01*
X137039Y322094D01*
X138300Y321928D01*
X139561Y322094D01*
X140736Y322580D01*
X141745Y323355D01*
X142520Y324364D01*
X143006Y325539D01*
X143172Y326800D01*
X143006Y328061D01*
X142520Y329236D01*
X141745Y330245D01*
X140736Y331020D01*
X139561Y331506D01*
X138300Y331672D01*
D02*
G37*
G36*
X11783Y324832D02*
X10268D01*
Y321006D01*
X10763Y321385D01*
X11316Y322106D01*
X11664Y322946D01*
X11783Y323847D01*
Y324832D01*
D02*
G37*
G36*
X6331D02*
X4817D01*
Y323847D01*
X4936Y322946D01*
X5284Y322106D01*
X5838Y321385D01*
X6331Y321006D01*
Y324832D01*
D02*
G37*
G36*
X187400Y324939D02*
X186620Y324784D01*
X185958Y324342D01*
X185757Y324040D01*
X185399Y323801D01*
X179222Y317624D01*
X179020Y317584D01*
X178358Y317142D01*
X177916Y316480D01*
X177761Y315700D01*
X177916Y314920D01*
X178358Y314258D01*
X179020Y313816D01*
X179800Y313661D01*
X180580Y313816D01*
X181242Y314258D01*
X181684Y314920D01*
X181839Y315700D01*
X181684Y316480D01*
X181684Y316481D01*
X186379Y321177D01*
X186620Y321016D01*
X187400Y320861D01*
X188180Y321016D01*
X188842Y321458D01*
X189284Y322120D01*
X189439Y322900D01*
X189284Y323680D01*
X188842Y324342D01*
X188180Y324784D01*
X187400Y324939D01*
D02*
G37*
G36*
X128300Y333235D02*
X127399Y333117D01*
X126559Y332769D01*
X125838Y332215D01*
X125284Y331494D01*
X124936Y330654D01*
X124818Y329753D01*
Y323847D01*
X124936Y322946D01*
X125284Y322106D01*
X125838Y321385D01*
X126559Y320831D01*
X127399Y320483D01*
X128300Y320365D01*
X129201Y320483D01*
X130041Y320831D01*
X130763Y321385D01*
X131316Y322106D01*
X131664Y322946D01*
X131782Y323847D01*
Y329753D01*
X131664Y330654D01*
X131316Y331494D01*
X130763Y332215D01*
X130041Y332769D01*
X129201Y333117D01*
X128300Y333235D01*
D02*
G37*
G36*
X98300D02*
X97399Y333117D01*
X96559Y332769D01*
X95837Y332215D01*
X95284Y331494D01*
X94936Y330654D01*
X94818Y329753D01*
Y323847D01*
X94936Y322946D01*
X95284Y322106D01*
X95837Y321385D01*
X96559Y320831D01*
X97399Y320483D01*
X98300Y320365D01*
X99201Y320483D01*
X100041Y320831D01*
X100762Y321385D01*
X101316Y322106D01*
X101664Y322946D01*
X101783Y323847D01*
Y329753D01*
X101664Y330654D01*
X101316Y331494D01*
X100762Y332215D01*
X100041Y332769D01*
X99201Y333117D01*
X98300Y333235D01*
D02*
G37*
G36*
X88300D02*
X87399Y333117D01*
X86559Y332769D01*
X85838Y332215D01*
X85284Y331494D01*
X84936Y330654D01*
X84817Y329753D01*
Y323847D01*
X84936Y322946D01*
X85284Y322106D01*
X85838Y321385D01*
X86559Y320831D01*
X87399Y320483D01*
X88300Y320365D01*
X89201Y320483D01*
X90041Y320831D01*
X90763Y321385D01*
X91316Y322106D01*
X91664Y322946D01*
X91782Y323847D01*
Y329753D01*
X91664Y330654D01*
X91316Y331494D01*
X90763Y332215D01*
X90041Y332769D01*
X89201Y333117D01*
X88300Y333235D01*
D02*
G37*
G36*
X68300D02*
X67399Y333117D01*
X66559Y332769D01*
X65838Y332215D01*
X65284Y331494D01*
X64936Y330654D01*
X64818Y329753D01*
Y323847D01*
X64936Y322946D01*
X65284Y322106D01*
X65838Y321385D01*
X66559Y320831D01*
X67399Y320483D01*
X68300Y320365D01*
X69201Y320483D01*
X70041Y320831D01*
X70762Y321385D01*
X71316Y322106D01*
X71664Y322946D01*
X71782Y323847D01*
Y329753D01*
X71664Y330654D01*
X71316Y331494D01*
X70762Y332215D01*
X70041Y332769D01*
X69201Y333117D01*
X68300Y333235D01*
D02*
G37*
G36*
X58300D02*
X57399Y333117D01*
X56559Y332769D01*
X55838Y332215D01*
X55284Y331494D01*
X54936Y330654D01*
X54817Y329753D01*
Y323847D01*
X54936Y322946D01*
X55284Y322106D01*
X55838Y321385D01*
X56559Y320831D01*
X57399Y320483D01*
X58300Y320365D01*
X59201Y320483D01*
X60041Y320831D01*
X60763Y321385D01*
X61316Y322106D01*
X61664Y322946D01*
X61782Y323847D01*
Y329753D01*
X61664Y330654D01*
X61316Y331494D01*
X60763Y332215D01*
X60041Y332769D01*
X59201Y333117D01*
X58300Y333235D01*
D02*
G37*
G36*
X48300D02*
X47399Y333117D01*
X46559Y332769D01*
X45838Y332215D01*
X45284Y331494D01*
X44936Y330654D01*
X44818Y329753D01*
Y323847D01*
X44936Y322946D01*
X45284Y322106D01*
X45838Y321385D01*
X46559Y320831D01*
X47399Y320483D01*
X48300Y320365D01*
X49201Y320483D01*
X50041Y320831D01*
X50762Y321385D01*
X51316Y322106D01*
X51664Y322946D01*
X51783Y323847D01*
Y329753D01*
X51664Y330654D01*
X51316Y331494D01*
X50762Y332215D01*
X50041Y332769D01*
X49201Y333117D01*
X48300Y333235D01*
D02*
G37*
G36*
X38300D02*
X37399Y333117D01*
X36559Y332769D01*
X35838Y332215D01*
X35284Y331494D01*
X34936Y330654D01*
X34817Y329753D01*
Y323847D01*
X34936Y322946D01*
X35284Y322106D01*
X35838Y321385D01*
X36559Y320831D01*
X37399Y320483D01*
X38300Y320365D01*
X39201Y320483D01*
X40041Y320831D01*
X40762Y321385D01*
X41316Y322106D01*
X41664Y322946D01*
X41783Y323847D01*
Y329753D01*
X41664Y330654D01*
X41316Y331494D01*
X40762Y332215D01*
X40041Y332769D01*
X39201Y333117D01*
X38300Y333235D01*
D02*
G37*
G36*
X28300D02*
X27399Y333117D01*
X26559Y332769D01*
X25837Y332215D01*
X25284Y331494D01*
X24936Y330654D01*
X24817Y329753D01*
Y323847D01*
X24936Y322946D01*
X25284Y322106D01*
X25837Y321385D01*
X26559Y320831D01*
X27399Y320483D01*
X28300Y320365D01*
X29201Y320483D01*
X30041Y320831D01*
X30762Y321385D01*
X31316Y322106D01*
X31664Y322946D01*
X31782Y323847D01*
Y329753D01*
X31664Y330654D01*
X31316Y331494D01*
X30762Y332215D01*
X30041Y332769D01*
X29201Y333117D01*
X28300Y333235D01*
D02*
G37*
G36*
X18300D02*
X17399Y333117D01*
X16559Y332769D01*
X15837Y332215D01*
X15284Y331494D01*
X14936Y330654D01*
X14818Y329753D01*
Y323847D01*
X14936Y322946D01*
X15284Y322106D01*
X15837Y321385D01*
X16559Y320831D01*
X17399Y320483D01*
X18300Y320365D01*
X19201Y320483D01*
X20041Y320831D01*
X20763Y321385D01*
X21316Y322106D01*
X21664Y322946D01*
X21782Y323847D01*
Y329753D01*
X21664Y330654D01*
X21316Y331494D01*
X20763Y332215D01*
X20041Y332769D01*
X19201Y333117D01*
X18300Y333235D01*
D02*
G37*
G36*
X294475Y319354D02*
Y316367D01*
X295791D01*
Y316760D01*
X295679Y317610D01*
X295351Y318402D01*
X294829Y319082D01*
X294475Y319354D01*
D02*
G37*
G36*
X290538D02*
X290185Y319082D01*
X289663Y318402D01*
X289335Y317610D01*
X289223Y316760D01*
Y316367D01*
X290538D01*
Y319354D01*
D02*
G37*
G36*
X295791Y312430D02*
X294475D01*
Y309442D01*
X294829Y309714D01*
X295351Y310394D01*
X295679Y311186D01*
X295791Y312036D01*
Y312430D01*
D02*
G37*
G36*
X290538D02*
X289223D01*
Y312036D01*
X289335Y311186D01*
X289663Y310394D01*
X290185Y309714D01*
X290538Y309442D01*
Y312430D01*
D02*
G37*
G36*
X344475Y320044D02*
X343625Y319932D01*
X342833Y319604D01*
X342153Y319082D01*
X341631Y318402D01*
X341303Y317610D01*
X341191Y316760D01*
Y312036D01*
X341303Y311186D01*
X341631Y310394D01*
X342153Y309714D01*
X342833Y309192D01*
X343625Y308864D01*
X344475Y308752D01*
X345325Y308864D01*
X346117Y309192D01*
X346797Y309714D01*
X347319Y310394D01*
X347647Y311186D01*
X347759Y312036D01*
Y316760D01*
X347647Y317610D01*
X347319Y318402D01*
X346797Y319082D01*
X346117Y319604D01*
X345325Y319932D01*
X344475Y320044D01*
D02*
G37*
G36*
X335814D02*
X334964Y319932D01*
X334172Y319604D01*
X333492Y319082D01*
X332970Y318402D01*
X332642Y317610D01*
X332530Y316760D01*
Y312036D01*
X332642Y311186D01*
X332970Y310394D01*
X333492Y309714D01*
X334172Y309192D01*
X334964Y308864D01*
X335814Y308752D01*
X336664Y308864D01*
X337456Y309192D01*
X338136Y309714D01*
X338658Y310394D01*
X338986Y311186D01*
X339098Y312036D01*
Y316760D01*
X338986Y317610D01*
X338658Y318402D01*
X338136Y319082D01*
X337456Y319604D01*
X336664Y319932D01*
X335814Y320044D01*
D02*
G37*
G36*
X327152D02*
X326302Y319932D01*
X325510Y319604D01*
X324830Y319082D01*
X324308Y318402D01*
X323980Y317610D01*
X323868Y316760D01*
Y312036D01*
X323980Y311186D01*
X324308Y310394D01*
X324830Y309714D01*
X325510Y309192D01*
X326302Y308864D01*
X327152Y308752D01*
X328002Y308864D01*
X328794Y309192D01*
X329474Y309714D01*
X329996Y310394D01*
X330324Y311186D01*
X330436Y312036D01*
Y316760D01*
X330324Y317610D01*
X329996Y318402D01*
X329474Y319082D01*
X328794Y319604D01*
X328002Y319932D01*
X327152Y320044D01*
D02*
G37*
G36*
X318491D02*
X317641Y319932D01*
X316849Y319604D01*
X316169Y319082D01*
X315647Y318402D01*
X315319Y317610D01*
X315207Y316760D01*
Y312036D01*
X315319Y311186D01*
X315647Y310394D01*
X316169Y309714D01*
X316849Y309192D01*
X317641Y308864D01*
X318491Y308752D01*
X319341Y308864D01*
X320133Y309192D01*
X320813Y309714D01*
X321335Y310394D01*
X321663Y311186D01*
X321775Y312036D01*
Y316760D01*
X321663Y317610D01*
X321335Y318402D01*
X320813Y319082D01*
X320133Y319604D01*
X319341Y319932D01*
X318491Y320044D01*
D02*
G37*
G36*
X309830D02*
X308980Y319932D01*
X308188Y319604D01*
X307508Y319082D01*
X306986Y318402D01*
X306658Y317610D01*
X306546Y316760D01*
Y312036D01*
X306658Y311186D01*
X306986Y310394D01*
X307508Y309714D01*
X308188Y309192D01*
X308980Y308864D01*
X309830Y308752D01*
X310680Y308864D01*
X311472Y309192D01*
X312152Y309714D01*
X312674Y310394D01*
X313002Y311186D01*
X313114Y312036D01*
Y316760D01*
X313002Y317610D01*
X312674Y318402D01*
X312152Y319082D01*
X311472Y319604D01*
X310680Y319932D01*
X309830Y320044D01*
D02*
G37*
G36*
X301168D02*
X300318Y319932D01*
X299526Y319604D01*
X298846Y319082D01*
X298324Y318402D01*
X297996Y317610D01*
X297884Y316760D01*
Y312036D01*
X297996Y311186D01*
X298324Y310394D01*
X298846Y309714D01*
X299526Y309192D01*
X300318Y308864D01*
X301168Y308752D01*
X302018Y308864D01*
X302810Y309192D01*
X303490Y309714D01*
X304012Y310394D01*
X304340Y311186D01*
X304452Y312036D01*
Y316760D01*
X304340Y317610D01*
X304012Y318402D01*
X303490Y319082D01*
X302810Y319604D01*
X302018Y319932D01*
X301168Y320044D01*
D02*
G37*
G36*
X283845D02*
X282995Y319932D01*
X282203Y319604D01*
X281523Y319082D01*
X281001Y318402D01*
X280673Y317610D01*
X280561Y316760D01*
Y312036D01*
X280673Y311186D01*
X281001Y310394D01*
X281523Y309714D01*
X282203Y309192D01*
X282995Y308864D01*
X283845Y308752D01*
X284695Y308864D01*
X285487Y309192D01*
X286167Y309714D01*
X286689Y310394D01*
X287017Y311186D01*
X287129Y312036D01*
Y316760D01*
X287017Y317610D01*
X286689Y318402D01*
X286167Y319082D01*
X285487Y319604D01*
X284695Y319932D01*
X283845Y320044D01*
D02*
G37*
G36*
X275184D02*
X274334Y319932D01*
X273542Y319604D01*
X272862Y319082D01*
X272340Y318402D01*
X272012Y317610D01*
X271900Y316760D01*
Y312036D01*
X272012Y311186D01*
X272340Y310394D01*
X272862Y309714D01*
X273542Y309192D01*
X274334Y308864D01*
X275184Y308752D01*
X276034Y308864D01*
X276826Y309192D01*
X277506Y309714D01*
X278028Y310394D01*
X278356Y311186D01*
X278468Y312036D01*
Y316760D01*
X278356Y317610D01*
X278028Y318402D01*
X277506Y319082D01*
X276826Y319604D01*
X276034Y319932D01*
X275184Y320044D01*
D02*
G37*
G36*
X266523D02*
X265673Y319932D01*
X264881Y319604D01*
X264201Y319082D01*
X263679Y318402D01*
X263351Y317610D01*
X263239Y316760D01*
Y312036D01*
X263351Y311186D01*
X263679Y310394D01*
X264201Y309714D01*
X264881Y309192D01*
X265673Y308864D01*
X266523Y308752D01*
X267373Y308864D01*
X268165Y309192D01*
X268845Y309714D01*
X269367Y310394D01*
X269695Y311186D01*
X269807Y312036D01*
Y316760D01*
X269695Y317610D01*
X269367Y318402D01*
X268845Y319082D01*
X268165Y319604D01*
X267373Y319932D01*
X266523Y320044D01*
D02*
G37*
G36*
X341719Y306264D02*
X340869Y306152D01*
X340077Y305824D01*
X339397Y305302D01*
X338875Y304622D01*
X338547Y303830D01*
X338435Y302980D01*
Y298256D01*
X338547Y297406D01*
X338875Y296614D01*
X339397Y295934D01*
X340077Y295412D01*
X340869Y295084D01*
X341719Y294972D01*
X342569Y295084D01*
X343361Y295412D01*
X344041Y295934D01*
X344563Y296614D01*
X344891Y297406D01*
X345003Y298256D01*
Y302980D01*
X344891Y303830D01*
X344563Y304622D01*
X344041Y305302D01*
X343361Y305824D01*
X342569Y306152D01*
X341719Y306264D01*
D02*
G37*
G36*
X333058D02*
X332208Y306152D01*
X331416Y305824D01*
X330736Y305302D01*
X330214Y304622D01*
X329886Y303830D01*
X329774Y302980D01*
Y298256D01*
X329886Y297406D01*
X330214Y296614D01*
X330736Y295934D01*
X331416Y295412D01*
X332208Y295084D01*
X333058Y294972D01*
X333908Y295084D01*
X334700Y295412D01*
X335380Y295934D01*
X335902Y296614D01*
X336230Y297406D01*
X336342Y298256D01*
Y302980D01*
X336230Y303830D01*
X335902Y304622D01*
X335380Y305302D01*
X334700Y305824D01*
X333908Y306152D01*
X333058Y306264D01*
D02*
G37*
G36*
X324397D02*
X323547Y306152D01*
X322755Y305824D01*
X322075Y305302D01*
X321553Y304622D01*
X321225Y303830D01*
X321113Y302980D01*
Y298256D01*
X321225Y297406D01*
X321553Y296614D01*
X322075Y295934D01*
X322755Y295412D01*
X323547Y295084D01*
X324397Y294972D01*
X325247Y295084D01*
X326039Y295412D01*
X326719Y295934D01*
X327241Y296614D01*
X327569Y297406D01*
X327681Y298256D01*
Y302980D01*
X327569Y303830D01*
X327241Y304622D01*
X326719Y305302D01*
X326039Y305824D01*
X325247Y306152D01*
X324397Y306264D01*
D02*
G37*
G36*
X315735D02*
X314885Y306152D01*
X314093Y305824D01*
X313413Y305302D01*
X312891Y304622D01*
X312563Y303830D01*
X312451Y302980D01*
Y298256D01*
X312563Y297406D01*
X312891Y296614D01*
X313413Y295934D01*
X314093Y295412D01*
X314885Y295084D01*
X315735Y294972D01*
X316585Y295084D01*
X317377Y295412D01*
X318057Y295934D01*
X318579Y296614D01*
X318907Y297406D01*
X319019Y298256D01*
Y302980D01*
X318907Y303830D01*
X318579Y304622D01*
X318057Y305302D01*
X317377Y305824D01*
X316585Y306152D01*
X315735Y306264D01*
D02*
G37*
G36*
X307074D02*
X306224Y306152D01*
X305432Y305824D01*
X304752Y305302D01*
X304230Y304622D01*
X303902Y303830D01*
X303790Y302980D01*
Y298256D01*
X303902Y297406D01*
X304230Y296614D01*
X304752Y295934D01*
X305432Y295412D01*
X306224Y295084D01*
X307074Y294972D01*
X307924Y295084D01*
X308716Y295412D01*
X309396Y295934D01*
X309918Y296614D01*
X310246Y297406D01*
X310358Y298256D01*
Y302980D01*
X310246Y303830D01*
X309918Y304622D01*
X309396Y305302D01*
X308716Y305824D01*
X307924Y306152D01*
X307074Y306264D01*
D02*
G37*
G36*
X298412D02*
X297562Y306152D01*
X296770Y305824D01*
X296090Y305302D01*
X295568Y304622D01*
X295240Y303830D01*
X295128Y302980D01*
Y298256D01*
X295240Y297406D01*
X295568Y296614D01*
X296090Y295934D01*
X296770Y295412D01*
X297562Y295084D01*
X298412Y294972D01*
X299262Y295084D01*
X300054Y295412D01*
X300734Y295934D01*
X301256Y296614D01*
X301584Y297406D01*
X301696Y298256D01*
Y302980D01*
X301584Y303830D01*
X301256Y304622D01*
X300734Y305302D01*
X300054Y305824D01*
X299262Y306152D01*
X298412Y306264D01*
D02*
G37*
G36*
X289751D02*
X288901Y306152D01*
X288109Y305824D01*
X287429Y305302D01*
X286907Y304622D01*
X286579Y303830D01*
X286467Y302980D01*
Y298256D01*
X286579Y297406D01*
X286907Y296614D01*
X287429Y295934D01*
X288109Y295412D01*
X288901Y295084D01*
X289751Y294972D01*
X290601Y295084D01*
X291393Y295412D01*
X292073Y295934D01*
X292595Y296614D01*
X292923Y297406D01*
X293035Y298256D01*
Y302980D01*
X292923Y303830D01*
X292595Y304622D01*
X292073Y305302D01*
X291393Y305824D01*
X290601Y306152D01*
X289751Y306264D01*
D02*
G37*
G36*
X281089D02*
X280239Y306152D01*
X279447Y305824D01*
X278767Y305302D01*
X278245Y304622D01*
X277917Y303830D01*
X277805Y302980D01*
Y298256D01*
X277917Y297406D01*
X278245Y296614D01*
X278767Y295934D01*
X279447Y295412D01*
X280239Y295084D01*
X281089Y294972D01*
X281939Y295084D01*
X282731Y295412D01*
X283411Y295934D01*
X283933Y296614D01*
X284261Y297406D01*
X284373Y298256D01*
Y302980D01*
X284261Y303830D01*
X283933Y304622D01*
X283411Y305302D01*
X282731Y305824D01*
X281939Y306152D01*
X281089Y306264D01*
D02*
G37*
G36*
X272428D02*
X271578Y306152D01*
X270786Y305824D01*
X270106Y305302D01*
X269584Y304622D01*
X269256Y303830D01*
X269144Y302980D01*
Y298256D01*
X269256Y297406D01*
X269584Y296614D01*
X270106Y295934D01*
X270786Y295412D01*
X271578Y295084D01*
X272428Y294972D01*
X273278Y295084D01*
X274070Y295412D01*
X274750Y295934D01*
X275272Y296614D01*
X275600Y297406D01*
X275712Y298256D01*
Y302980D01*
X275600Y303830D01*
X275272Y304622D01*
X274750Y305302D01*
X274070Y305824D01*
X273278Y306152D01*
X272428Y306264D01*
D02*
G37*
G36*
X212684Y292383D02*
X210716D01*
X209814Y292264D01*
X208975Y291916D01*
X208253Y291363D01*
X207700Y290641D01*
X207352Y289801D01*
X207233Y288900D01*
X207352Y287999D01*
X207700Y287159D01*
X208253Y286438D01*
X208975Y285884D01*
X209814Y285536D01*
X210716Y285418D01*
X212684D01*
X213586Y285536D01*
X214425Y285884D01*
X215147Y286438D01*
X215700Y287159D01*
X216048Y287999D01*
X216167Y288900D01*
X216048Y289801D01*
X215700Y290641D01*
X215147Y291363D01*
X214425Y291916D01*
X213586Y292264D01*
X212684Y292383D01*
D02*
G37*
G36*
X242817Y292371D02*
X240848D01*
X239947Y292252D01*
X239107Y291904D01*
X238386Y291351D01*
X237832Y290629D01*
X237484Y289790D01*
X237366Y288888D01*
X237484Y287987D01*
X237832Y287147D01*
X238386Y286426D01*
X239107Y285872D01*
X239947Y285524D01*
X240848Y285406D01*
X242817D01*
X243718Y285524D01*
X244558Y285872D01*
X245279Y286426D01*
X245833Y287147D01*
X246181Y287987D01*
X246299Y288888D01*
X246181Y289790D01*
X245833Y290629D01*
X245279Y291351D01*
X244558Y291904D01*
X243718Y292252D01*
X242817Y292371D01*
D02*
G37*
G36*
X212684Y282382D02*
X210716D01*
X209814Y282264D01*
X208975Y281916D01*
X208253Y281363D01*
X207700Y280641D01*
X207352Y279801D01*
X207233Y278900D01*
X207352Y277999D01*
X207700Y277159D01*
X208253Y276437D01*
X208975Y275884D01*
X209814Y275536D01*
X210716Y275417D01*
X212684D01*
X213586Y275536D01*
X214425Y275884D01*
X215147Y276437D01*
X215700Y277159D01*
X216048Y277999D01*
X216167Y278900D01*
X216048Y279801D01*
X215700Y280641D01*
X215147Y281363D01*
X214425Y281916D01*
X213586Y282264D01*
X212684Y282382D01*
D02*
G37*
G36*
X242817Y282371D02*
X240848D01*
X239947Y282252D01*
X239107Y281904D01*
X238386Y281351D01*
X237832Y280629D01*
X237484Y279789D01*
X237366Y278888D01*
X237484Y277987D01*
X237832Y277147D01*
X238386Y276426D01*
X239107Y275872D01*
X239947Y275524D01*
X240848Y275406D01*
X242817D01*
X243718Y275524D01*
X244558Y275872D01*
X245279Y276426D01*
X245833Y277147D01*
X246181Y277987D01*
X246299Y278888D01*
X246181Y279789D01*
X245833Y280629D01*
X245279Y281351D01*
X244558Y281904D01*
X243718Y282252D01*
X242817Y282371D01*
D02*
G37*
G36*
Y272371D02*
X240848D01*
X239947Y272252D01*
X239107Y271904D01*
X238386Y271351D01*
X237832Y270629D01*
X237484Y269790D01*
X237366Y268888D01*
X237484Y267987D01*
X237832Y267147D01*
X238386Y266426D01*
X239107Y265872D01*
X239947Y265524D01*
X240848Y265406D01*
X242817D01*
X243718Y265524D01*
X244558Y265872D01*
X245279Y266426D01*
X245833Y267147D01*
X246181Y267987D01*
X246299Y268888D01*
X246181Y269790D01*
X245833Y270629D01*
X245279Y271351D01*
X244558Y271904D01*
X243718Y272252D01*
X242817Y272371D01*
D02*
G37*
G36*
X352891Y267893D02*
X351400Y267696D01*
X350012Y267121D01*
X348819Y266206D01*
X347904Y265014D01*
X347329Y263625D01*
X347133Y262135D01*
X347329Y260644D01*
X347904Y259256D01*
X348819Y258063D01*
X350012Y257148D01*
X351400Y256573D01*
X352891Y256377D01*
X354381Y256573D01*
X355770Y257148D01*
X356962Y258063D01*
X357877Y259256D01*
X358452Y260644D01*
X358648Y262135D01*
X358452Y263625D01*
X357877Y265014D01*
X356962Y266206D01*
X355770Y267121D01*
X354381Y267696D01*
X352891Y267893D01*
D02*
G37*
G36*
X266276D02*
X264786Y267696D01*
X263397Y267121D01*
X262205Y266206D01*
X261290Y265014D01*
X260715Y263625D01*
X260519Y262135D01*
X260715Y260644D01*
X261290Y259256D01*
X262205Y258063D01*
X263397Y257148D01*
X264786Y256573D01*
X266276Y256377D01*
X267767Y256573D01*
X269155Y257148D01*
X270348Y258063D01*
X271263Y259256D01*
X271838Y260644D01*
X272034Y262135D01*
X271838Y263625D01*
X271263Y265014D01*
X270348Y266206D01*
X269155Y267121D01*
X267767Y267696D01*
X266276Y267893D01*
D02*
G37*
G36*
X296591Y244256D02*
Y241268D01*
X297907D01*
Y241662D01*
X297795Y242512D01*
X297467Y243304D01*
X296945Y243984D01*
X296591Y244256D01*
D02*
G37*
G36*
X292654D02*
X292301Y243984D01*
X291779Y243304D01*
X291451Y242512D01*
X291339Y241662D01*
Y241268D01*
X292654D01*
Y244256D01*
D02*
G37*
G36*
X297907Y237332D02*
X296591D01*
Y234344D01*
X296945Y234616D01*
X297467Y235296D01*
X297795Y236088D01*
X297907Y236938D01*
Y237332D01*
D02*
G37*
G36*
X292654D02*
X291339D01*
Y236938D01*
X291451Y236088D01*
X291779Y235296D01*
X292301Y234616D01*
X292654Y234344D01*
Y237332D01*
D02*
G37*
G36*
X346591Y244946D02*
X345741Y244834D01*
X344949Y244506D01*
X344269Y243984D01*
X343747Y243304D01*
X343419Y242512D01*
X343307Y241662D01*
Y236938D01*
X343419Y236088D01*
X343747Y235296D01*
X344269Y234616D01*
X344949Y234094D01*
X345741Y233766D01*
X346591Y233654D01*
X347441Y233766D01*
X348233Y234094D01*
X348914Y234616D01*
X349435Y235296D01*
X349763Y236088D01*
X349875Y236938D01*
Y241662D01*
X349763Y242512D01*
X349435Y243304D01*
X348914Y243984D01*
X348233Y244506D01*
X347441Y244834D01*
X346591Y244946D01*
D02*
G37*
G36*
X337930D02*
X337080Y244834D01*
X336288Y244506D01*
X335608Y243984D01*
X335086Y243304D01*
X334758Y242512D01*
X334646Y241662D01*
Y236938D01*
X334758Y236088D01*
X335086Y235296D01*
X335608Y234616D01*
X336288Y234094D01*
X337080Y233766D01*
X337930Y233654D01*
X338780Y233766D01*
X339572Y234094D01*
X340252Y234616D01*
X340774Y235296D01*
X341102Y236088D01*
X341214Y236938D01*
Y241662D01*
X341102Y242512D01*
X340774Y243304D01*
X340252Y243984D01*
X339572Y244506D01*
X338780Y244834D01*
X337930Y244946D01*
D02*
G37*
G36*
X329269D02*
X328419Y244834D01*
X327627Y244506D01*
X326946Y243984D01*
X326425Y243304D01*
X326097Y242512D01*
X325985Y241662D01*
Y236938D01*
X326097Y236088D01*
X326425Y235296D01*
X326946Y234616D01*
X327627Y234094D01*
X328419Y233766D01*
X329269Y233654D01*
X330119Y233766D01*
X330911Y234094D01*
X331591Y234616D01*
X332113Y235296D01*
X332441Y236088D01*
X332553Y236938D01*
Y241662D01*
X332441Y242512D01*
X332113Y243304D01*
X331591Y243984D01*
X330911Y244506D01*
X330119Y244834D01*
X329269Y244946D01*
D02*
G37*
G36*
X320607D02*
X319757Y244834D01*
X318965Y244506D01*
X318285Y243984D01*
X317763Y243304D01*
X317435Y242512D01*
X317323Y241662D01*
Y236938D01*
X317435Y236088D01*
X317763Y235296D01*
X318285Y234616D01*
X318965Y234094D01*
X319757Y233766D01*
X320607Y233654D01*
X321457Y233766D01*
X322249Y234094D01*
X322929Y234616D01*
X323451Y235296D01*
X323779Y236088D01*
X323891Y236938D01*
Y241662D01*
X323779Y242512D01*
X323451Y243304D01*
X322929Y243984D01*
X322249Y244506D01*
X321457Y244834D01*
X320607Y244946D01*
D02*
G37*
G36*
X311946D02*
X311096Y244834D01*
X310304Y244506D01*
X309624Y243984D01*
X309102Y243304D01*
X308774Y242512D01*
X308662Y241662D01*
Y236938D01*
X308774Y236088D01*
X309102Y235296D01*
X309624Y234616D01*
X310304Y234094D01*
X311096Y233766D01*
X311946Y233654D01*
X312796Y233766D01*
X313588Y234094D01*
X314268Y234616D01*
X314790Y235296D01*
X315118Y236088D01*
X315230Y236938D01*
Y241662D01*
X315118Y242512D01*
X314790Y243304D01*
X314268Y243984D01*
X313588Y244506D01*
X312796Y244834D01*
X311946Y244946D01*
D02*
G37*
G36*
X303284D02*
X302434Y244834D01*
X301642Y244506D01*
X300962Y243984D01*
X300440Y243304D01*
X300112Y242512D01*
X300000Y241662D01*
Y236938D01*
X300112Y236088D01*
X300440Y235296D01*
X300962Y234616D01*
X301642Y234094D01*
X302434Y233766D01*
X303284Y233654D01*
X304134Y233766D01*
X304926Y234094D01*
X305607Y234616D01*
X306128Y235296D01*
X306456Y236088D01*
X306568Y236938D01*
Y241662D01*
X306456Y242512D01*
X306128Y243304D01*
X305607Y243984D01*
X304926Y244506D01*
X304134Y244834D01*
X303284Y244946D01*
D02*
G37*
G36*
X242817Y251794D02*
X240848D01*
X239947Y251676D01*
X239107Y251328D01*
X238386Y250774D01*
X237832Y250053D01*
X237484Y249213D01*
X237366Y248312D01*
X237484Y247410D01*
X237832Y246571D01*
X238386Y245849D01*
X239004Y245374D01*
X238908Y244934D01*
X238875Y244875D01*
X216976D01*
X216489Y244777D01*
X216075Y244501D01*
X213299Y241725D01*
X212684Y241806D01*
X210716D01*
X209814Y241688D01*
X208975Y241340D01*
X208253Y240786D01*
X207700Y240065D01*
X207352Y239225D01*
X207233Y238324D01*
X207352Y237422D01*
X207700Y236582D01*
X208253Y235861D01*
X208975Y235308D01*
X209814Y234960D01*
X210716Y234841D01*
X212684D01*
X213586Y234960D01*
X214425Y235308D01*
X215147Y235861D01*
X215700Y236582D01*
X216048Y237422D01*
X216167Y238324D01*
X216048Y239225D01*
X215700Y240065D01*
X215502Y240323D01*
X217504Y242325D01*
X263300D01*
X263788Y242423D01*
X264201Y242699D01*
X266459Y244957D01*
X266748Y244918D01*
X266857Y244399D01*
X266317Y243984D01*
X265795Y243304D01*
X265466Y242512D01*
X265355Y241662D01*
Y236938D01*
X265466Y236088D01*
X265795Y235296D01*
X266317Y234616D01*
X266689Y234329D01*
X266520Y233829D01*
X265734D01*
X260170Y239393D01*
X259673Y239725D01*
X259088Y239841D01*
X245920D01*
X245833Y240053D01*
X245279Y240774D01*
X244558Y241328D01*
X243718Y241676D01*
X242817Y241794D01*
X240848D01*
X239947Y241676D01*
X239107Y241328D01*
X238386Y240774D01*
X237832Y240053D01*
X237484Y239213D01*
X237366Y238312D01*
X237484Y237410D01*
X237832Y236571D01*
X238386Y235849D01*
X239107Y235296D01*
X239947Y234948D01*
X240848Y234829D01*
X242817D01*
X243718Y234948D01*
X244558Y235296D01*
X245279Y235849D01*
X245833Y236571D01*
X245920Y236783D01*
X258455D01*
X264019Y231219D01*
X264515Y230887D01*
X265100Y230771D01*
X270563D01*
X270733Y230271D01*
X270647Y230205D01*
X270125Y229525D01*
X269797Y228733D01*
X269685Y227883D01*
Y223158D01*
X269797Y222308D01*
X270125Y221516D01*
X270647Y220836D01*
X271327Y220314D01*
X272119Y219986D01*
X272969Y219874D01*
X273819Y219986D01*
X274611Y220314D01*
X275291Y220836D01*
X275813Y221516D01*
X276142Y222308D01*
X276253Y223158D01*
Y227883D01*
X276231Y228050D01*
X276705Y228283D01*
X277298Y227690D01*
X277794Y227359D01*
X278015Y227315D01*
X278274Y227142D01*
X278347Y227127D01*
Y223158D01*
X278459Y222308D01*
X278787Y221516D01*
X279309Y220836D01*
X279989Y220314D01*
X280781Y219986D01*
X281631Y219874D01*
X282481Y219986D01*
X283273Y220314D01*
X283953Y220836D01*
X284475Y221516D01*
X284803Y222308D01*
X284915Y223158D01*
Y227883D01*
X284803Y228733D01*
X284475Y229525D01*
X283953Y230205D01*
X283273Y230727D01*
X282481Y231055D01*
X281631Y231167D01*
X280781Y231055D01*
X279989Y230727D01*
X279309Y230205D01*
X278870Y230444D01*
X275933Y233381D01*
X275732Y233516D01*
X275707Y233532D01*
X275944Y233975D01*
X275951Y233973D01*
X276450Y233766D01*
X277300Y233654D01*
X278150Y233766D01*
X278942Y234094D01*
X279622Y234616D01*
X280144Y235296D01*
X280472Y236088D01*
X280584Y236938D01*
Y241662D01*
X280472Y242512D01*
X280144Y243304D01*
X279622Y243984D01*
X278942Y244506D01*
X278895Y244526D01*
X278995Y245025D01*
X279710D01*
X282478Y242258D01*
X282478Y242258D01*
X282723Y242012D01*
X282677Y241662D01*
Y236938D01*
X282789Y236088D01*
X283117Y235296D01*
X283639Y234616D01*
X284319Y234094D01*
X285111Y233766D01*
X285961Y233654D01*
X286811Y233766D01*
X287603Y234094D01*
X288283Y234616D01*
X288805Y235296D01*
X289134Y236088D01*
X289245Y236938D01*
Y241662D01*
X289134Y242512D01*
X288805Y243304D01*
X288283Y243984D01*
X287603Y244506D01*
X286811Y244834D01*
X285961Y244946D01*
X285111Y244834D01*
X284319Y244506D01*
X284045Y244296D01*
X281139Y247201D01*
X280726Y247478D01*
X280238Y247574D01*
X266000D01*
X265512Y247478D01*
X265099Y247201D01*
X262772Y244875D01*
X244790D01*
X244757Y244934D01*
X244660Y245374D01*
X245279Y245849D01*
X245833Y246571D01*
X246181Y247410D01*
X246299Y248312D01*
X246181Y249213D01*
X245833Y250053D01*
X245279Y250774D01*
X244558Y251328D01*
X243718Y251676D01*
X242817Y251794D01*
D02*
G37*
G36*
X350381Y306264D02*
X349531Y306152D01*
X348739Y305824D01*
X348059Y305302D01*
X347537Y304622D01*
X347209Y303830D01*
X347097Y302980D01*
Y298256D01*
X347209Y297406D01*
X347537Y296614D01*
X348059Y295934D01*
X348739Y295412D01*
X349531Y295084D01*
X350381Y294972D01*
X351053Y295060D01*
X360916Y285198D01*
Y240488D01*
X351516Y231088D01*
X350922Y231167D01*
X350072Y231055D01*
X349280Y230727D01*
X348600Y230205D01*
X348078Y229525D01*
X347750Y228733D01*
X347638Y227883D01*
Y223158D01*
X347750Y222308D01*
X348078Y221516D01*
X348600Y220836D01*
X349280Y220314D01*
X350072Y219986D01*
X350922Y219874D01*
X351772Y219986D01*
X352564Y220314D01*
X353244Y220836D01*
X353766Y221516D01*
X354094Y222308D01*
X354206Y223158D01*
Y227883D01*
X354107Y228633D01*
X363962Y238487D01*
X364349Y239066D01*
X364484Y239749D01*
Y285937D01*
X364484Y285937D01*
X364349Y286619D01*
X363962Y287198D01*
X353576Y297584D01*
X353665Y298256D01*
Y302980D01*
X353553Y303830D01*
X353225Y304622D01*
X352703Y305302D01*
X352023Y305824D01*
X351231Y306152D01*
X350381Y306264D01*
D02*
G37*
G36*
X242817Y231794D02*
X240848D01*
X239947Y231676D01*
X239107Y231328D01*
X238386Y230774D01*
X237832Y230053D01*
X237484Y229213D01*
X237366Y228312D01*
X237484Y227411D01*
X237832Y226571D01*
X238386Y225849D01*
X239107Y225296D01*
X239947Y224948D01*
X240848Y224829D01*
X242817D01*
X243718Y224948D01*
X244558Y225296D01*
X245279Y225849D01*
X245833Y226571D01*
X246181Y227411D01*
X246299Y228312D01*
X246181Y229213D01*
X245833Y230053D01*
X245279Y230774D01*
X244558Y231328D01*
X243718Y231676D01*
X242817Y231794D01*
D02*
G37*
G36*
X342261Y231167D02*
X341411Y231055D01*
X340619Y230727D01*
X339938Y230205D01*
X339417Y229525D01*
X339089Y228733D01*
X338977Y227883D01*
Y223158D01*
X339089Y222308D01*
X339417Y221516D01*
X339938Y220836D01*
X340619Y220314D01*
X341411Y219986D01*
X342261Y219874D01*
X343111Y219986D01*
X343903Y220314D01*
X344583Y220836D01*
X345105Y221516D01*
X345433Y222308D01*
X345545Y223158D01*
Y227883D01*
X345433Y228733D01*
X345105Y229525D01*
X344583Y230205D01*
X343903Y230727D01*
X343111Y231055D01*
X342261Y231167D01*
D02*
G37*
G36*
X333599D02*
X332749Y231055D01*
X331957Y230727D01*
X331277Y230205D01*
X330755Y229525D01*
X330427Y228733D01*
X330315Y227883D01*
Y223158D01*
X330427Y222308D01*
X330755Y221516D01*
X331277Y220836D01*
X331957Y220314D01*
X332749Y219986D01*
X333599Y219874D01*
X334449Y219986D01*
X335241Y220314D01*
X335921Y220836D01*
X336443Y221516D01*
X336771Y222308D01*
X336883Y223158D01*
Y227883D01*
X336771Y228733D01*
X336443Y229525D01*
X335921Y230205D01*
X335241Y230727D01*
X334449Y231055D01*
X333599Y231167D01*
D02*
G37*
G36*
X324938D02*
X324088Y231055D01*
X323296Y230727D01*
X322616Y230205D01*
X322094Y229525D01*
X321766Y228733D01*
X321654Y227883D01*
Y223158D01*
X321766Y222308D01*
X322094Y221516D01*
X322616Y220836D01*
X323296Y220314D01*
X324088Y219986D01*
X324938Y219874D01*
X325788Y219986D01*
X326580Y220314D01*
X327260Y220836D01*
X327782Y221516D01*
X328110Y222308D01*
X328222Y223158D01*
Y227883D01*
X328110Y228733D01*
X327782Y229525D01*
X327260Y230205D01*
X326580Y230727D01*
X325788Y231055D01*
X324938Y231167D01*
D02*
G37*
G36*
X316276D02*
X315426Y231055D01*
X314634Y230727D01*
X313954Y230205D01*
X313432Y229525D01*
X313104Y228733D01*
X312992Y227883D01*
Y223158D01*
X313104Y222308D01*
X313432Y221516D01*
X313954Y220836D01*
X314634Y220314D01*
X315426Y219986D01*
X316276Y219874D01*
X317126Y219986D01*
X317918Y220314D01*
X318599Y220836D01*
X319120Y221516D01*
X319448Y222308D01*
X319560Y223158D01*
Y227883D01*
X319448Y228733D01*
X319120Y229525D01*
X318599Y230205D01*
X317918Y230727D01*
X317126Y231055D01*
X316276Y231167D01*
D02*
G37*
G36*
X307615D02*
X306765Y231055D01*
X305973Y230727D01*
X305293Y230205D01*
X304771Y229525D01*
X304443Y228733D01*
X304331Y227883D01*
Y223158D01*
X304443Y222308D01*
X304771Y221516D01*
X305293Y220836D01*
X305973Y220314D01*
X306765Y219986D01*
X307615Y219874D01*
X308465Y219986D01*
X309257Y220314D01*
X309937Y220836D01*
X310459Y221516D01*
X310787Y222308D01*
X310899Y223158D01*
Y227883D01*
X310787Y228733D01*
X310459Y229525D01*
X309937Y230205D01*
X309257Y230727D01*
X308465Y231055D01*
X307615Y231167D01*
D02*
G37*
G36*
X298954D02*
X298104Y231055D01*
X297312Y230727D01*
X296632Y230205D01*
X296110Y229525D01*
X295781Y228733D01*
X295670Y227883D01*
Y223158D01*
X295781Y222308D01*
X296110Y221516D01*
X296632Y220836D01*
X297312Y220314D01*
X298104Y219986D01*
X298954Y219874D01*
X299804Y219986D01*
X300596Y220314D01*
X301276Y220836D01*
X301798Y221516D01*
X302126Y222308D01*
X302238Y223158D01*
Y227883D01*
X302126Y228733D01*
X301798Y229525D01*
X301276Y230205D01*
X300596Y230727D01*
X299804Y231055D01*
X298954Y231167D01*
D02*
G37*
G36*
X290292D02*
X289442Y231055D01*
X288650Y230727D01*
X287970Y230205D01*
X287448Y229525D01*
X287120Y228733D01*
X287008Y227883D01*
Y223158D01*
X287120Y222308D01*
X287448Y221516D01*
X287970Y220836D01*
X288650Y220314D01*
X289442Y219986D01*
X290292Y219874D01*
X291142Y219986D01*
X291934Y220314D01*
X292614Y220836D01*
X293136Y221516D01*
X293464Y222308D01*
X293576Y223158D01*
Y227883D01*
X293464Y228733D01*
X293136Y229525D01*
X292614Y230205D01*
X291934Y230727D01*
X291142Y231055D01*
X290292Y231167D01*
D02*
G37*
%LPD*%
G36*
X275705Y244526D02*
X275658Y244506D01*
X274978Y243984D01*
X274456Y243304D01*
X274128Y242512D01*
X274016Y241662D01*
Y236938D01*
X274128Y236088D01*
X274456Y235296D01*
X274978Y234616D01*
X275509Y234208D01*
X275297Y233741D01*
X275264Y233747D01*
X274851Y233829D01*
X270757D01*
X270588Y234329D01*
X270961Y234616D01*
X271483Y235296D01*
X271811Y236088D01*
X271923Y236938D01*
Y241662D01*
X271811Y242512D01*
X271483Y243304D01*
X270961Y243984D01*
X270281Y244506D01*
X270234Y244526D01*
X270334Y245025D01*
X275605D01*
X275705Y244526D01*
D02*
G37*
D10*
X83800Y286000D02*
X196700D01*
X73600Y296200D02*
X83800Y286000D01*
X197321Y287500D02*
X200220Y284602D01*
X84421Y287500D02*
X197321D01*
X75686Y296235D02*
X84421Y287500D01*
X196700Y286000D02*
X198400Y284300D01*
Y240639D02*
Y284300D01*
Y240639D02*
X210439Y228600D01*
X205700Y274700D02*
X206083Y274317D01*
X202720Y272215D02*
X205152Y269783D01*
X206763Y267263D02*
Y271096D01*
X202720Y272215D02*
Y272300D01*
X200220Y255680D02*
X208300Y247600D01*
X200220Y255680D02*
Y284602D01*
X205152Y266596D02*
Y269783D01*
X206083Y271776D02*
Y274317D01*
Y271776D02*
X206763Y271096D01*
X210439Y228600D02*
X210900D01*
X212215Y261811D02*
X218884D01*
X221632Y259062D01*
X205152Y266596D02*
X211547Y260200D01*
X218216D01*
X206763Y267263D02*
X212215Y261811D01*
X218216Y260200D02*
X220132Y258284D01*
X223375Y257000D02*
Y257320D01*
X221632Y259062D02*
Y259062D01*
X218900Y255654D02*
X220132Y256886D01*
X218900Y255300D02*
Y255654D01*
X220132Y256886D02*
Y258284D01*
X221632Y259062D02*
X223375Y257320D01*
X83752Y337852D02*
X84900Y339000D01*
X83752Y333452D02*
Y337852D01*
X82900Y332600D02*
X83752Y333452D01*
X82900Y322314D02*
Y332600D01*
X75686Y315100D02*
X82900Y322314D01*
X75686Y296235D02*
Y315100D01*
X73916Y337902D02*
X75064Y339050D01*
X73916Y333216D02*
Y337902D01*
X73600Y332900D02*
X73916Y333216D01*
X73600Y296200D02*
Y332900D01*
X30885Y394800D02*
X44800D01*
X29201Y393117D02*
X30885Y394800D01*
X28300Y386800D02*
X29201Y387701D01*
Y393117D01*
X148900Y336800D02*
Y347200D01*
X152200Y336900D02*
Y343400D01*
X152500Y343700D01*
X146300Y329793D02*
Y334200D01*
X148900Y336800D01*
X146300Y329793D02*
X146317Y329776D01*
X149300Y332000D02*
Y333600D01*
X149100Y333800D02*
X149300Y333600D01*
X187700Y348000D02*
X188900Y346800D01*
X187700Y348000D02*
X188100D01*
X188900Y343928D02*
Y346800D01*
X186300Y343200D02*
X186600D01*
X186700Y343300D01*
X205894Y324106D01*
Y307706D02*
Y324106D01*
X188900Y343928D02*
X209500Y323328D01*
Y304100D02*
Y323328D01*
X149100Y333800D02*
X152200Y336900D01*
D58*
X232394Y399500D02*
X232794Y399100D01*
X144400Y399500D02*
X232394D01*
X253500Y399100D02*
X255200Y397400D01*
X232947Y399253D02*
X233100Y399100D01*
X253500D01*
X232794D02*
X232947Y399253D01*
D60*
X211700Y268900D02*
X224800Y282000D01*
Y288600D01*
X216976Y243600D02*
X263300D01*
X266000Y246300D01*
X179800Y316400D02*
X186300Y322900D01*
X187400D01*
X179800Y315700D02*
Y316400D01*
X266000Y246300D02*
X280238D01*
X283379Y243159D02*
X285961Y240577D01*
X283379Y243159D02*
X283379D01*
X280238Y246300D02*
X283379Y243159D01*
X211700Y238324D02*
X216976Y243600D01*
X285961Y239300D02*
Y240577D01*
D61*
X241832Y238312D02*
X259088D01*
X265100Y232300D01*
X274851D01*
X281631Y225520D02*
Y226932D01*
X278860Y228555D02*
X280009D01*
X281631Y226932D01*
X278380Y228771D02*
X278643D01*
X278860Y228555D01*
X274851Y232300D02*
X278380Y228771D01*
D64*
X138300Y386800D02*
D03*
Y326800D02*
D03*
D65*
X118300D02*
D03*
X108300D02*
D03*
X118300Y386800D02*
D03*
X108300D02*
D03*
D66*
X78300D02*
D03*
X18300D02*
D03*
X8300Y326800D02*
D03*
X28300Y386800D02*
D03*
X18300Y326800D02*
D03*
X28300D02*
D03*
X38300D02*
D03*
X48300D02*
D03*
X58300D02*
D03*
X68300D02*
D03*
X78300D02*
D03*
X88300D02*
D03*
X98300D02*
D03*
X128300D02*
D03*
Y386800D02*
D03*
X98300D02*
D03*
X88300D02*
D03*
X68300D02*
D03*
X58300D02*
D03*
X48300D02*
D03*
X38300D02*
D03*
X8300D02*
D03*
D67*
X138300Y356800D02*
D03*
Y346800D02*
D03*
Y336800D02*
D03*
Y366800D02*
D03*
Y376800D02*
D03*
D68*
X108300Y336800D02*
D03*
X118300D02*
D03*
X108300Y346800D02*
D03*
X118300D02*
D03*
X108300Y356800D02*
D03*
X118300D02*
D03*
X108300Y366800D02*
D03*
X118300D02*
D03*
X108300Y376800D02*
D03*
X118300D02*
D03*
D69*
X350381Y300618D02*
D03*
X341719D02*
D03*
X333058D02*
D03*
X324397D02*
D03*
X315735D02*
D03*
X307074D02*
D03*
X298412D02*
D03*
X289751D02*
D03*
X281089D02*
D03*
X272428D02*
D03*
X292507Y314398D02*
D03*
X318491D02*
D03*
X266523D02*
D03*
X275184D02*
D03*
X283845D02*
D03*
X301168D02*
D03*
X309830D02*
D03*
X327152D02*
D03*
X335814D02*
D03*
X344475D02*
D03*
X272969Y225520D02*
D03*
X281631D02*
D03*
X290292D02*
D03*
X298954D02*
D03*
X307615D02*
D03*
X316276D02*
D03*
X324938D02*
D03*
X333599D02*
D03*
X342261D02*
D03*
X350922D02*
D03*
X268639Y239300D02*
D03*
X277300D02*
D03*
X285961D02*
D03*
X294623D02*
D03*
X303284D02*
D03*
X311946D02*
D03*
X320607D02*
D03*
X329269D02*
D03*
X337930D02*
D03*
X346591D02*
D03*
D70*
X241832Y248312D02*
D03*
Y228312D02*
D03*
X211700Y248324D02*
D03*
Y228324D02*
D03*
X241832Y238312D02*
D03*
X211700Y238324D02*
D03*
Y268900D02*
D03*
Y278900D02*
D03*
Y288900D02*
D03*
X241832Y268888D02*
D03*
Y278888D02*
D03*
Y288888D02*
D03*
D71*
X352891Y262135D02*
D03*
X266276D02*
D03*
D72*
X202720Y272300D02*
D03*
X205700Y274700D02*
D03*
X223375Y257000D02*
D03*
X218900Y255300D02*
D03*
X97500Y312800D02*
D03*
X144400Y399500D02*
D03*
X148900Y347200D02*
D03*
X152500Y343700D02*
D03*
X149300Y332000D02*
D03*
X146317Y329776D02*
D03*
X132966Y295966D02*
D03*
X160750Y295950D02*
D03*
X224800Y288600D02*
D03*
X188100Y348000D02*
D03*
X186300Y343200D02*
D03*
X205894Y307706D02*
D03*
X209500Y304100D02*
D03*
X206500Y348200D02*
D03*
X187400Y322900D02*
D03*
X179800Y315700D02*
D03*
X185400Y328000D02*
D03*
X255200Y397400D02*
D03*
X107273Y297073D02*
D03*
X120200Y293800D02*
D03*
X93400Y338700D02*
D03*
X31700Y359600D02*
D03*
X62400Y341500D02*
D03*
X62500Y374600D02*
D03*
D73*
X84900Y339000D02*
D03*
X75064Y339050D02*
D03*
D74*
X44800Y394800D02*
D03*
X231000Y389000D02*
D03*
X234500Y382000D02*
D03*
X231000Y375000D02*
D03*
X234500Y368000D02*
D03*
X231000Y361000D02*
D03*
X224000Y389000D02*
D03*
X227500Y382000D02*
D03*
X224000Y375000D02*
D03*
X227500Y368000D02*
D03*
X224000Y361000D02*
D03*
X182000Y389000D02*
D03*
Y375000D02*
D03*
Y361000D02*
D03*
X175000Y389000D02*
D03*
X178500Y382000D02*
D03*
X175000Y375000D02*
D03*
X178500Y368000D02*
D03*
X175000Y361000D02*
D03*
X168000Y389000D02*
D03*
X171500Y382000D02*
D03*
X168000Y375000D02*
D03*
X171500Y368000D02*
D03*
X168000Y361000D02*
D03*
X161000Y389000D02*
D03*
X164500Y382000D02*
D03*
X161000Y375000D02*
D03*
X164500Y368000D02*
D03*
X161000Y361000D02*
D03*
D75*
X350381Y298256D02*
Y300618D01*
Y298256D02*
X362700Y285937D01*
X350932Y225618D02*
Y227980D01*
X362700Y239749D01*
Y285937D01*
M02*
