G04*
G04 #@! TF.GenerationSoftware,Altium Limited,Altium Designer,21.0.8 (223)*
G04*
G04 Layer_Color=32768*
%FSLAX25Y25*%
%MOIN*%
G70*
G04*
G04 #@! TF.SameCoordinates,128E1E45-F731-4E68-84EB-4EEBB871E250*
G04*
G04*
G04 #@! TF.FilePolarity,Positive*
G04*
G01*
G75*
%ADD12C,0.00394*%
%ADD76C,0.00197*%
D12*
X174761Y297525D02*
Y301462D01*
X172792Y299494D02*
X176729D01*
X164592Y300084D02*
X168529D01*
X166561Y298116D02*
Y302053D01*
X169907Y293293D02*
Y306876D01*
X163214Y293293D02*
Y306876D01*
X169907D01*
X163214Y293293D02*
X169907D01*
X146900Y297541D02*
Y301478D01*
X144931Y299510D02*
X148869D01*
X137031Y300100D02*
X140969D01*
X139000Y298131D02*
Y302068D01*
X142347Y293309D02*
Y306891D01*
X135653Y293309D02*
Y306891D01*
X142347D01*
X135653Y293309D02*
X142347D01*
X328931Y347800D02*
X332868D01*
X330900Y345831D02*
Y349768D01*
X207032Y332372D02*
X210969D01*
X209000Y330404D02*
Y334341D01*
X217232Y379400D02*
X221169D01*
X219200Y377431D02*
Y381368D01*
D76*
X170824Y306187D02*
X178698D01*
X170824Y292801D02*
X178698D01*
Y306187D01*
X170824Y292801D02*
Y306187D01*
X142963Y292816D02*
X150837D01*
X142963Y306202D02*
X150837D01*
X142963Y292816D02*
Y306202D01*
X150837Y292816D02*
Y306202D01*
X192130Y351700D02*
X195870D01*
X194000Y349830D02*
Y353570D01*
X196953Y345794D02*
Y357605D01*
X191047Y345794D02*
Y357605D01*
X196953D01*
X191047Y345794D02*
X196953D01*
X191047Y319006D02*
X196953D01*
X191047Y307195D02*
X196953D01*
Y319006D01*
X191047Y307195D02*
Y319006D01*
X194000Y311230D02*
Y314970D01*
X192130Y313100D02*
X195870D01*
X337672Y333607D02*
Y361993D01*
X324128Y333607D02*
Y361993D01*
X337672D01*
X324128Y333607D02*
X337672D01*
X305630Y351500D02*
X309370D01*
X307500Y349630D02*
Y353370D01*
X310453Y345594D02*
Y357406D01*
X304547Y345594D02*
Y357406D01*
X310453D01*
X304547Y345594D02*
X310453D01*
X222130Y313100D02*
X225870D01*
X224000Y311230D02*
Y314970D01*
X221047Y307194D02*
Y319006D01*
X226953Y307194D02*
Y319006D01*
X221047Y307194D02*
X226953D01*
X221047Y319006D02*
X226953D01*
X198530Y351700D02*
X202270D01*
X200400Y349830D02*
Y353570D01*
X203353Y345794D02*
Y357605D01*
X197447Y345794D02*
Y357605D01*
X203353D01*
X197447Y345794D02*
X203353D01*
X168930Y327500D02*
X172670D01*
X170800Y325630D02*
Y329370D01*
X173753Y321594D02*
Y333406D01*
X167847Y321594D02*
Y333406D01*
X173753D01*
X167847Y321594D02*
X173753D01*
X166436Y333630D02*
Y337370D01*
X164566Y335500D02*
X168306D01*
X160530Y338453D02*
X172341D01*
X160530Y332547D02*
X172341D01*
X160530D02*
Y338453D01*
X172341Y332547D02*
Y338453D01*
X191382Y345561D02*
X226618D01*
Y319183D02*
Y345561D01*
X191382Y319183D02*
X226618D01*
X191382D02*
Y345561D01*
X212030Y313100D02*
X215770D01*
X213900Y311230D02*
Y314970D01*
X210947Y307194D02*
Y319006D01*
X216853Y307194D02*
Y319006D01*
X210947Y307194D02*
X216853D01*
X210947Y319006D02*
X216853D01*
X305530Y338109D02*
X309270D01*
X307400Y336239D02*
Y339979D01*
X310353Y332204D02*
Y344015D01*
X304447Y332204D02*
Y344015D01*
X310353D01*
X304447Y332204D02*
X310353D01*
X198530Y313100D02*
X202270D01*
X200400Y311230D02*
Y314970D01*
X197447Y307195D02*
Y319006D01*
X203353Y307195D02*
Y319006D01*
X197447Y307195D02*
X203353D01*
X197447Y319006D02*
X203353D01*
X22872Y282309D02*
Y311246D01*
Y282309D02*
X105550D01*
Y311246D01*
X22872D02*
X105550D01*
X62243Y294711D02*
X66180D01*
X64211Y292743D02*
Y296680D01*
X252271Y357943D02*
Y400857D01*
X186129Y357943D02*
Y400857D01*
Y357943D02*
X252271D01*
X186129Y400857D02*
X252271D01*
M02*
