G04*
G04 #@! TF.GenerationSoftware,Altium Limited,Altium Designer,21.0.8 (223)*
G04*
G04 Layer_Color=32896*
%FSLAX25Y25*%
%MOIN*%
G70*
G04*
G04 #@! TF.SameCoordinates,E158979E-E8F5-4E42-ABDF-87379EC9601E*
G04*
G04*
G04 #@! TF.FilePolarity,Positive*
G04*
G01*
G75*
%ADD10C,0.01000*%
%ADD11C,0.00787*%
%ADD12C,0.00600*%
%ADD98C,0.00984*%
D10*
X295100Y311800D02*
G03*
X295100Y311800I-1000J0D01*
G01*
X291200Y290200D02*
Y291100D01*
X266800Y290200D02*
X291200D01*
X266800D02*
Y291200D01*
X266600Y310100D02*
Y311000D01*
X291600D01*
Y309800D02*
Y311000D01*
X350100Y225863D02*
Y288863D01*
X247100D02*
X350100D01*
X247100Y225863D02*
Y288863D01*
Y225863D02*
X350100D01*
X282002Y269501D02*
Y274499D01*
X283001Y275499D01*
X285001D01*
X286000Y274499D01*
Y269501D01*
X291998D02*
X289999Y270501D01*
X288000Y272500D01*
Y274499D01*
X288999Y275499D01*
X290999D01*
X291998Y274499D01*
Y273500D01*
X290999Y272500D01*
X288000D01*
D11*
X276410Y315089D02*
Y338711D01*
X290190Y315089D02*
Y338711D01*
X382544Y259782D02*
Y270018D01*
Y259782D02*
X388056D01*
X382544Y270018D02*
X388056D01*
Y259782D02*
Y270018D01*
X303764Y307764D02*
Y309437D01*
Y307764D02*
X305437D01*
X331224D02*
X332898D01*
Y309437D01*
Y335224D02*
Y336898D01*
X331224D02*
X332898D01*
X303764Y335224D02*
Y336898D01*
X305437D01*
X265356Y220682D02*
Y230918D01*
X259844D02*
X265356D01*
X259844Y220682D02*
X265356D01*
X259844D02*
Y230918D01*
X257742Y296676D02*
Y303566D01*
X264446Y296655D02*
Y303545D01*
X268244Y338382D02*
Y348618D01*
Y338382D02*
X273756D01*
X268244Y348618D02*
X273756D01*
Y338382D02*
Y348618D01*
X262244Y338382D02*
Y348618D01*
Y338382D02*
X267756D01*
X262244Y348618D02*
X267756D01*
Y338382D02*
Y348618D01*
X338347Y336055D02*
Y342945D01*
X331642Y336076D02*
Y342966D01*
X226776Y329925D02*
Y343075D01*
X261224D01*
X226776Y329925D02*
X261224D01*
Y343075D01*
X339844Y219882D02*
Y230118D01*
Y219882D02*
X345356D01*
X339844Y230118D02*
X345356D01*
Y219882D02*
Y230118D01*
X345244Y219982D02*
Y230218D01*
Y219982D02*
X350756D01*
X345244Y230218D02*
X350756D01*
Y219982D02*
Y230218D01*
X293542Y298076D02*
Y304966D01*
X300247Y298055D02*
Y304945D01*
X259456Y220782D02*
Y231018D01*
X253944D02*
X259456D01*
X253944Y220782D02*
X259456D01*
X253944D02*
Y231018D01*
X218438Y339803D02*
Y346692D01*
X225143Y339782D02*
Y346671D01*
Y328785D02*
Y335675D01*
X218438Y328806D02*
Y335696D01*
X214045Y338108D02*
Y348345D01*
X208533D02*
X214045D01*
X208533Y338108D02*
X214045D01*
X208533D02*
Y348345D01*
Y327133D02*
Y337369D01*
Y327133D02*
X214045D01*
X208533Y337369D02*
X214045D01*
Y327133D02*
Y337369D01*
X219642Y327133D02*
Y337369D01*
X214131D02*
X219642D01*
X214131Y327133D02*
X219642D01*
X214131D02*
Y337369D01*
Y338108D02*
Y348345D01*
Y338108D02*
X219642D01*
X214131Y348345D02*
X219642D01*
Y338108D02*
Y348345D01*
X303055Y296153D02*
X309945D01*
X303076Y302858D02*
X309966D01*
X333055Y302153D02*
X339945D01*
X333076Y308858D02*
X339966D01*
X317382Y302256D02*
X327618D01*
X317382Y296744D02*
Y302256D01*
X327618Y296744D02*
Y302256D01*
X317382Y296744D02*
X327618D01*
X302448Y296945D02*
X310552D01*
X302448Y290055D02*
X310552D01*
X291953Y325655D02*
Y332545D01*
X298658Y325634D02*
Y332524D01*
X226034Y285142D02*
X232924D01*
X226055Y291846D02*
X232945D01*
X245288Y304378D02*
X256312D01*
X255721Y293650D02*
X256607D01*
X244993D02*
X245879D01*
X244993D02*
Y312350D01*
X255721D02*
X256607D01*
X244993D02*
X245879D01*
X256607Y293650D02*
Y312350D01*
X214378Y294283D02*
Y304717D01*
X201622Y294283D02*
Y304717D01*
X217595Y307122D02*
X229405D01*
X217595D02*
Y309878D01*
X229405D01*
Y307122D02*
Y309878D01*
X214448Y316055D02*
X222552D01*
X214448Y322945D02*
X222552D01*
X201437Y254272D02*
Y265295D01*
X243563D01*
Y254272D02*
Y265295D01*
X223948Y322945D02*
X232052D01*
X223948Y316055D02*
X232052D01*
X216576Y291858D02*
X223466D01*
X216555Y285154D02*
X223445D01*
X233488Y304343D02*
X244512D01*
X243921Y293614D02*
X244807D01*
X233193D02*
X234079D01*
X233193D02*
Y312315D01*
X243921D02*
X244807D01*
X233193D02*
X234079D01*
X244807Y293614D02*
Y312315D01*
X222226Y293350D02*
X224774D01*
X222226Y299650D02*
X224774D01*
X376756Y338882D02*
Y349118D01*
X371244D02*
X376756D01*
X371244Y338882D02*
X376756D01*
X371244D02*
Y349118D01*
D12*
X273544Y317592D02*
Y313994D01*
X275344D01*
X275943Y314593D01*
Y315793D01*
X275344Y316393D01*
X273544D01*
X274744D02*
X275943Y317592D01*
X277143Y316992D02*
X277743Y317592D01*
X278942D01*
X279542Y316992D01*
Y314593D01*
X278942Y313994D01*
X277743D01*
X277143Y314593D01*
Y315193D01*
X277743Y315793D01*
X279542D01*
X333762Y337498D02*
X330763D01*
X330163Y338098D01*
Y339297D01*
X330763Y339897D01*
X333762D01*
Y343496D02*
Y341097D01*
X331962D01*
X332562Y342296D01*
Y342896D01*
X331962Y343496D01*
X330763D01*
X330163Y342896D01*
Y341697D01*
X330763Y341097D01*
X347507Y303469D02*
X348107Y304069D01*
X349307D01*
X349907Y303469D01*
Y301070D01*
X349307Y300470D01*
X348107D01*
X347507Y301070D01*
X346308Y300470D02*
X345108D01*
X345708D01*
Y304069D01*
X346308Y303469D01*
X343309Y300470D02*
X342109D01*
X342709D01*
Y304069D01*
X343309Y303469D01*
X205401Y272415D02*
X208400D01*
X208999Y271815D01*
Y270616D01*
X208400Y270016D01*
X205401D01*
X208999Y268816D02*
Y267617D01*
Y268216D01*
X205401D01*
X206000Y268816D01*
X374195Y288612D02*
Y292211D01*
X372396D01*
X371796Y291611D01*
Y290412D01*
X372396Y289812D01*
X374195D01*
X372996D02*
X371796Y288612D01*
X370597D02*
X369397D01*
X369997D01*
Y292211D01*
X370597Y291611D01*
X365198Y292211D02*
X367598D01*
Y290412D01*
X366398Y291012D01*
X365798D01*
X365198Y290412D01*
Y289212D01*
X365798Y288612D01*
X366998D01*
X367598Y289212D01*
X377487Y279694D02*
Y283293D01*
X375688D01*
X375088Y282693D01*
Y281494D01*
X375688Y280894D01*
X377487D01*
X376288D02*
X375088Y279694D01*
X373889D02*
X372689D01*
X373289D01*
Y283293D01*
X373889Y282693D01*
X369090Y279694D02*
Y283293D01*
X370890Y281494D01*
X368490D01*
X390501Y259401D02*
X394099D01*
Y261201D01*
X393500Y261801D01*
X392300D01*
X391700Y261201D01*
Y259401D01*
Y260601D02*
X390501Y261801D01*
Y263000D02*
Y264200D01*
Y263600D01*
X394099D01*
X393500Y263000D01*
Y265999D02*
X394099Y266599D01*
Y267799D01*
X393500Y268398D01*
X392900D01*
X392300Y267799D01*
Y267199D01*
Y267799D01*
X391700Y268398D01*
X391100D01*
X390501Y267799D01*
Y266599D01*
X391100Y265999D01*
X241799Y287864D02*
Y284265D01*
X240000D01*
X239400Y284865D01*
Y287264D01*
X240000Y287864D01*
X241799D01*
X235801Y284265D02*
X238200D01*
X235801Y286664D01*
Y287264D01*
X236401Y287864D01*
X237600D01*
X238200Y287264D01*
X247701Y284201D02*
Y287799D01*
X249500D01*
X250100Y287200D01*
Y284800D01*
X249500Y284201D01*
X247701D01*
X251300Y287799D02*
X252499D01*
X251899D01*
Y284201D01*
X251300Y284800D01*
X285699Y328699D02*
X283300Y325101D01*
Y328699D02*
X285699Y325101D01*
X282100D02*
X280901D01*
X281501D01*
Y328699D01*
X282100Y328100D01*
X234935Y319399D02*
X234336Y319999D01*
Y321199D01*
X234935Y321798D01*
X237335D01*
X237934Y321199D01*
Y319999D01*
X237335Y319399D01*
X237934Y318200D02*
Y317000D01*
Y317600D01*
X234336D01*
X234935Y318200D01*
X234336Y312802D02*
X234935Y314001D01*
X236135Y315201D01*
X237335D01*
X237934Y314601D01*
Y313401D01*
X237335Y312802D01*
X236735D01*
X236135Y313401D01*
Y315201D01*
X377499Y334001D02*
Y337599D01*
X375699D01*
X375099Y337000D01*
Y335800D01*
X375699Y335200D01*
X377499D01*
X376299D02*
X375099Y334001D01*
X373900D02*
X372700D01*
X373300D01*
Y337599D01*
X373900Y337000D01*
X368501Y334001D02*
X370901D01*
X368501Y336400D01*
Y337000D01*
X369101Y337599D01*
X370301D01*
X370901Y337000D01*
X318601Y295299D02*
Y291701D01*
X320401D01*
X321001Y292300D01*
Y293500D01*
X320401Y294100D01*
X318601D01*
X319801D02*
X321001Y295299D01*
X322200D02*
X323400D01*
X322800D01*
Y291701D01*
X322200Y292300D01*
X325199Y295299D02*
X326399D01*
X325799D01*
Y291701D01*
X325199Y292300D01*
X273401Y323399D02*
Y319801D01*
X275201D01*
X275801Y320400D01*
Y321600D01*
X275201Y322200D01*
X273401D01*
X274601D02*
X275801Y323399D01*
X277000D02*
X278200D01*
X277600D01*
Y319801D01*
X277000Y320400D01*
X279999D02*
X280599Y319801D01*
X281799D01*
X282399Y320400D01*
Y322800D01*
X281799Y323399D01*
X280599D01*
X279999Y322800D01*
Y320400D01*
X336700Y346601D02*
X337299Y346001D01*
Y344801D01*
X336700Y344201D01*
X334300D01*
X333701Y344801D01*
Y346001D01*
X334300Y346601D01*
X333701Y347800D02*
Y349000D01*
Y348400D01*
X337299D01*
X336700Y347800D01*
X337299Y353199D02*
Y350799D01*
X335500D01*
X336100Y351999D01*
Y352599D01*
X335500Y353199D01*
X334300D01*
X333701Y352599D01*
Y351399D01*
X334300Y350799D01*
X226700Y280700D02*
X226101Y281300D01*
Y282499D01*
X226700Y283099D01*
X229100D01*
X229699Y282499D01*
Y281300D01*
X229100Y280700D01*
X229699Y277101D02*
Y279500D01*
X227300Y277101D01*
X226700D01*
X226101Y277701D01*
Y278900D01*
X226700Y279500D01*
X242370Y316173D02*
X239371D01*
X238771Y316773D01*
Y317972D01*
X239371Y318572D01*
X242370D01*
X238771Y321571D02*
X242370D01*
X240570Y319772D01*
Y322171D01*
X264199Y219582D02*
X260600D01*
Y217782D01*
X261200Y217182D01*
X262400D01*
X263000Y217782D01*
Y219582D01*
Y218382D02*
X264199Y217182D01*
X261200Y215983D02*
X260600Y215383D01*
Y214183D01*
X261200Y213583D01*
X261800D01*
X262400Y214183D01*
X263000Y213583D01*
X263599D01*
X264199Y214183D01*
Y215383D01*
X263599Y215983D01*
X263000D01*
X262400Y215383D01*
X261800Y215983D01*
X261200D01*
X262400Y215383D02*
Y214183D01*
X218397Y315365D02*
X214798D01*
Y313565D01*
X215398Y312965D01*
X216598D01*
X217198Y313565D01*
Y315365D01*
Y314165D02*
X218397Y312965D01*
X215398Y311766D02*
X214798Y311166D01*
Y309966D01*
X215398Y309366D01*
X215998D01*
X216598Y309966D01*
Y310566D01*
Y309966D01*
X217198Y309366D01*
X217797D01*
X218397Y309966D01*
Y311166D01*
X217797Y311766D01*
X257666Y219782D02*
X254067D01*
Y217982D01*
X254667Y217383D01*
X255866D01*
X256466Y217982D01*
Y219782D01*
Y218582D02*
X257666Y217383D01*
Y216183D02*
Y214983D01*
Y215583D01*
X254067D01*
X254667Y216183D01*
X225558Y315465D02*
X221959D01*
Y313665D01*
X222559Y313065D01*
X223758D01*
X224358Y313665D01*
Y315465D01*
Y314265D02*
X225558Y313065D01*
X221959Y309467D02*
X222559Y310666D01*
X223758Y311866D01*
X224958D01*
X225558Y311266D01*
Y310066D01*
X224958Y309467D01*
X224358D01*
X223758Y310066D01*
Y311866D01*
X229326Y313090D02*
X228726Y313690D01*
Y314890D01*
X229326Y315489D01*
X231725D01*
X232325Y314890D01*
Y313690D01*
X231725Y313090D01*
X232325Y311890D02*
Y310691D01*
Y311291D01*
X228726D01*
X229326Y311890D01*
X232325Y307092D02*
X228726D01*
X230525Y308891D01*
Y306492D01*
X296900Y298499D02*
X296301Y299099D01*
Y300299D01*
X296900Y300899D01*
X299300D01*
X299899Y300299D01*
Y299099D01*
X299300Y298499D01*
X299899Y297300D02*
Y296100D01*
Y296700D01*
X296301D01*
X296900Y297300D01*
Y294301D02*
X296301Y293701D01*
Y292501D01*
X296900Y291901D01*
X299300D01*
X299899Y292501D01*
Y293701D01*
X299300Y294301D01*
X296900D01*
X305429Y300700D02*
X306029Y300101D01*
Y298901D01*
X305429Y298301D01*
X303030D01*
X302430Y298901D01*
Y300101D01*
X303030Y300700D01*
Y301900D02*
X302430Y302500D01*
Y303699D01*
X303030Y304299D01*
X305429D01*
X306029Y303699D01*
Y302500D01*
X305429Y301900D01*
X304830D01*
X304230Y302500D01*
Y304299D01*
X277094Y340379D02*
X280693D01*
Y342178D01*
X280093Y342778D01*
X278894D01*
X278294Y342178D01*
Y340379D01*
Y341579D02*
X277094Y342778D01*
Y345777D02*
X280693D01*
X278894Y343978D01*
Y346377D01*
X332432Y227574D02*
X328833D01*
Y225774D01*
X329433Y225174D01*
X330633D01*
X331233Y225774D01*
Y227574D01*
Y226374D02*
X332432Y225174D01*
Y221576D02*
Y223975D01*
X330033Y221576D01*
X329433D01*
X328833Y222176D01*
Y223375D01*
X329433Y223975D01*
X273097Y355145D02*
X269499D01*
Y353345D01*
X270098Y352745D01*
X271298D01*
X271898Y353345D01*
Y355145D01*
Y353945D02*
X273097Y352745D01*
X269499Y351546D02*
Y349146D01*
X270098D01*
X272498Y351546D01*
X273097D01*
X339271Y227350D02*
X335672D01*
Y225551D01*
X336272Y224951D01*
X337471D01*
X338071Y225551D01*
Y227350D01*
Y226150D02*
X339271Y224951D01*
X335672Y221352D02*
Y223751D01*
X337471D01*
X336872Y222552D01*
Y221952D01*
X337471Y221352D01*
X338671D01*
X339271Y221952D01*
Y223151D01*
X338671Y223751D01*
X220383Y312646D02*
X219784Y313246D01*
Y314446D01*
X220383Y315046D01*
X222783D01*
X223382Y314446D01*
Y313246D01*
X222783Y312646D01*
X223382Y311447D02*
Y310247D01*
Y310847D01*
X219784D01*
X220383Y311447D01*
Y308448D02*
X219784Y307848D01*
Y306648D01*
X220383Y306048D01*
X220983D01*
X221583Y306648D01*
Y307248D01*
Y306648D01*
X222183Y306048D01*
X222783D01*
X223382Y306648D01*
Y307848D01*
X222783Y308448D01*
X221801Y317899D02*
X224800D01*
X225399Y317299D01*
Y316100D01*
X224800Y315500D01*
X221801D01*
X222400Y314300D02*
X221801Y313700D01*
Y312501D01*
X222400Y311901D01*
X223000D01*
X223600Y312501D01*
Y313101D01*
Y312501D01*
X224200Y311901D01*
X224800D01*
X225399Y312501D01*
Y313700D01*
X224800Y314300D01*
X257597Y306575D02*
Y309574D01*
X258197Y310173D01*
X259396D01*
X259996Y309574D01*
Y306575D01*
X263595Y310173D02*
X261196D01*
X263595Y307774D01*
Y307174D01*
X262995Y306575D01*
X261796D01*
X261196Y307174D01*
X216704Y315346D02*
X213105D01*
Y313546D01*
X213705Y312946D01*
X214904D01*
X215504Y313546D01*
Y315346D01*
Y314146D02*
X216704Y312946D01*
Y309347D02*
Y311747D01*
X214304Y309347D01*
X213705D01*
X213105Y309947D01*
Y311147D01*
X213705Y311747D01*
Y308148D02*
X213105Y307548D01*
Y306348D01*
X213705Y305749D01*
X214304D01*
X214904Y306348D01*
Y306948D01*
Y306348D01*
X215504Y305749D01*
X216104D01*
X216704Y306348D01*
Y307548D01*
X216104Y308148D01*
X209837Y315246D02*
X206238D01*
Y313446D01*
X206838Y312846D01*
X208037D01*
X208637Y313446D01*
Y315246D01*
Y314046D02*
X209837Y312846D01*
Y309247D02*
Y311647D01*
X207438Y309247D01*
X206838D01*
X206238Y309847D01*
Y311047D01*
X206838Y311647D01*
X209837Y305649D02*
Y308048D01*
X207438Y305649D01*
X206838D01*
X206238Y306248D01*
Y307448D01*
X206838Y308048D01*
X254272Y286262D02*
X255472D01*
X254872D01*
Y283263D01*
X255472Y282664D01*
X256072D01*
X256671Y283263D01*
X253073Y282664D02*
X251873D01*
X252473D01*
Y286262D01*
X253073Y285663D01*
X216201Y302500D02*
Y304899D01*
X218000D01*
Y303700D01*
Y304899D01*
X219799D01*
Y301300D02*
Y300101D01*
Y300701D01*
X216201D01*
X216800Y301300D01*
X288000Y326399D02*
X287401Y326999D01*
Y328199D01*
X288000Y328799D01*
X290400D01*
X290999Y328199D01*
Y326999D01*
X290400Y326399D01*
X290999Y325200D02*
Y324000D01*
Y324600D01*
X287401D01*
X288000Y325200D01*
X290999Y319801D02*
Y322201D01*
X288600Y319801D01*
X288000D01*
X287401Y320401D01*
Y321601D01*
X288000Y322201D01*
X266100Y300800D02*
X265501Y301400D01*
Y302599D01*
X266100Y303199D01*
X268500D01*
X269099Y302599D01*
Y301400D01*
X268500Y300800D01*
X266100Y299600D02*
X265501Y299000D01*
Y297801D01*
X266100Y297201D01*
X266700D01*
X267300Y297801D01*
X267900Y297201D01*
X268500D01*
X269099Y297801D01*
Y299000D01*
X268500Y299600D01*
X267900D01*
X267300Y299000D01*
X266700Y299600D01*
X266100D01*
X267300Y299000D02*
Y297801D01*
X306365Y286200D02*
X305765Y285601D01*
X304566D01*
X303966Y286200D01*
Y288600D01*
X304566Y289199D01*
X305765D01*
X306365Y288600D01*
X307565Y285601D02*
X309964D01*
Y286200D01*
X307565Y288600D01*
Y289199D01*
X270889Y338419D02*
X270289Y337819D01*
X269090D01*
X268490Y338419D01*
Y340818D01*
X269090Y341418D01*
X270289D01*
X270889Y340818D01*
X274488Y337819D02*
X273288Y338419D01*
X272089Y339618D01*
Y340818D01*
X272689Y341418D01*
X273888D01*
X274488Y340818D01*
Y340218D01*
X273888Y339618D01*
X272089D01*
X260900Y327600D02*
X261500Y328199D01*
X262699D01*
X263299Y327600D01*
Y325200D01*
X262699Y324601D01*
X261500D01*
X260900Y325200D01*
X257301Y328199D02*
X259700D01*
Y326400D01*
X258501Y327000D01*
X257901D01*
X257301Y326400D01*
Y325200D01*
X257901Y324601D01*
X259100D01*
X259700Y325200D01*
X232324Y297100D02*
X231724Y297700D01*
Y298899D01*
X232324Y299499D01*
X234723D01*
X235323Y298899D01*
Y297700D01*
X234723Y297100D01*
X235323Y294101D02*
X231724D01*
X233523Y295900D01*
Y293501D01*
X213164Y318400D02*
X213764Y317800D01*
Y316601D01*
X213164Y316001D01*
X210765D01*
X210166Y316601D01*
Y317800D01*
X210765Y318400D01*
X213164Y319600D02*
X213764Y320200D01*
Y321399D01*
X213164Y321999D01*
X212565D01*
X211965Y321399D01*
Y320799D01*
Y321399D01*
X211365Y321999D01*
X210765D01*
X210166Y321399D01*
Y320200D01*
X210765Y319600D01*
X226938Y288000D02*
X226338Y288600D01*
Y289799D01*
X226938Y290399D01*
X229337D01*
X229937Y289799D01*
Y288600D01*
X229337Y288000D01*
X229937Y286800D02*
Y285601D01*
Y286201D01*
X226338D01*
X226938Y286800D01*
D98*
X277292Y341165D02*
G03*
X277292Y341165I-492J0D01*
G01*
X301697Y308354D02*
G03*
X301697Y308354I-492J0D01*
G01*
X226185Y346972D02*
G03*
X226185Y346972I-492J0D01*
G01*
X256392Y315865D02*
G03*
X256392Y315865I-492J0D01*
G01*
X230291Y302921D02*
G03*
X230291Y302921I-492J0D01*
G01*
X208858Y277500D02*
G03*
X208858Y277500I-492J0D01*
G01*
X234392Y314665D02*
G03*
X234392Y314665I-492J0D01*
G01*
M02*
