G04*
G04 #@! TF.GenerationSoftware,Altium Limited,Altium Designer,21.0.8 (223)*
G04*
G04 Layer_Color=8388736*
%FSLAX25Y25*%
%MOIN*%
G70*
G04*
G04 #@! TF.SameCoordinates,CF28ABD0-DF4C-4253-A353-1030560CAA2A*
G04*
G04*
G04 #@! TF.FilePolarity,Negative*
G04*
G01*
G75*
%ADD18R,0.08071X0.08071*%
%ADD19R,0.08071X0.07677*%
%ADD20R,0.07087X0.02165*%
%ADD21R,0.06890X0.08858*%
%ADD22R,0.05315X0.04921*%
%ADD23O,0.10827X0.06102*%
%ADD24R,0.06591X0.04991*%
%ADD25O,0.06591X0.04991*%
%ADD26O,0.06102X0.10827*%
%ADD27O,0.06591X0.08091*%
%ADD28O,0.08465X0.06496*%
%ADD29C,0.00591*%
%ADD30C,0.04724*%
%ADD31C,0.02559*%
D18*
X388400Y296024D02*
D03*
Y286576D02*
D03*
D19*
Y306261D02*
D03*
Y276339D02*
D03*
D20*
X376687Y291300D02*
D03*
Y288741D02*
D03*
Y286182D02*
D03*
Y293859D02*
D03*
Y296418D02*
D03*
D21*
X378361Y279095D02*
D03*
Y303505D02*
D03*
D22*
X215700Y228166D02*
D03*
Y236434D02*
D03*
X231100Y228166D02*
D03*
Y236434D02*
D03*
D23*
X363614Y260063D02*
D03*
Y268724D02*
D03*
Y277386D02*
D03*
Y286047D02*
D03*
Y294709D02*
D03*
Y303370D02*
D03*
Y312032D02*
D03*
Y320693D02*
D03*
Y329354D02*
D03*
Y338016D02*
D03*
X350835Y255732D02*
D03*
Y264394D02*
D03*
Y273055D02*
D03*
Y281716D02*
D03*
Y290378D02*
D03*
X349835Y299039D02*
D03*
Y307701D02*
D03*
Y316362D02*
D03*
Y325024D02*
D03*
Y333685D02*
D03*
D24*
X334000Y293500D02*
D03*
D25*
X324000D02*
D03*
D26*
X332571Y272067D02*
D03*
X323910D02*
D03*
X315248D02*
D03*
X297926D02*
D03*
X289264D02*
D03*
X271941D02*
D03*
X263280D02*
D03*
X254619D02*
D03*
X306587D02*
D03*
X280603D02*
D03*
X260524Y258287D02*
D03*
X269185D02*
D03*
X277847D02*
D03*
X286508D02*
D03*
X295170D02*
D03*
X303831D02*
D03*
X312493D02*
D03*
X321154D02*
D03*
X329815D02*
D03*
X338477D02*
D03*
D27*
X388366Y248994D02*
D03*
Y238994D02*
D03*
Y228994D02*
D03*
D28*
X358234Y249006D02*
D03*
Y239006D02*
D03*
Y229006D02*
D03*
D29*
X383300Y347400D02*
D03*
Y337400D02*
D03*
X388300Y347400D02*
D03*
Y337400D02*
D03*
X383300Y332400D02*
D03*
Y317400D02*
D03*
X388300D02*
D03*
D30*
X383300Y342400D02*
D03*
X388300D02*
D03*
Y332400D02*
D03*
X383300Y327400D02*
D03*
Y322400D02*
D03*
X388300Y327400D02*
D03*
Y322400D02*
D03*
D31*
X309669Y313669D02*
D03*
X314000D02*
D03*
X318331D02*
D03*
X322661D02*
D03*
X326992D02*
D03*
X309669Y318000D02*
D03*
X314000D02*
D03*
X318331D02*
D03*
X322661D02*
D03*
X326992D02*
D03*
X309669Y322331D02*
D03*
X314000D02*
D03*
X318331D02*
D03*
X322661D02*
D03*
X326992D02*
D03*
X309669Y326661D02*
D03*
X314000D02*
D03*
X318331D02*
D03*
X322661D02*
D03*
X326992D02*
D03*
X309669Y330992D02*
D03*
X314000D02*
D03*
X318331D02*
D03*
X322661D02*
D03*
X326992D02*
D03*
M02*
