G04*
G04 #@! TF.GenerationSoftware,Altium Limited,Altium Designer,21.0.8 (223)*
G04*
G04 Layer_Physical_Order=4*
G04 Layer_Color=16711680*
%FSLAX25Y25*%
%MOIN*%
G70*
G04*
G04 #@! TF.SameCoordinates,E158979E-E8F5-4E42-ABDF-87379EC9601E*
G04*
G04*
G04 #@! TF.FilePolarity,Positive*
G04*
G01*
G75*
%ADD10C,0.01000*%
%ADD13C,0.01200*%
%ADD33C,0.01500*%
%ADD34C,0.00800*%
%ADD35C,0.02000*%
%ADD36C,0.03000*%
%ADD37O,0.06000X0.07500*%
%ADD38O,0.07874X0.05906*%
%ADD39O,0.10236X0.05512*%
%ADD40C,0.04134*%
%ADD41O,0.05512X0.10236*%
%ADD42C,0.01772*%
%ADD43C,0.02362*%
%ADD44C,0.01968*%
%ADD55R,0.03150X0.03937*%
%ADD56R,0.10236X0.07480*%
%ADD57R,0.03543X0.02559*%
%ADD58O,0.03937X0.00984*%
%ADD59O,0.00984X0.03937*%
%ADD60R,0.22047X0.22047*%
%ADD61R,0.03543X0.02953*%
%ADD62R,0.06102X0.02362*%
%ADD63R,0.02284X0.04646*%
%ADD64R,0.03740X0.04134*%
%ADD65O,0.06102X0.00984*%
%ADD66O,0.00984X0.06102*%
%ADD67R,0.02953X0.03543*%
%ADD68R,0.02559X0.03543*%
%ADD69R,0.03174X0.03379*%
%ADD70R,0.06890X0.10433*%
%ADD71R,0.12402X0.07008*%
%ADD72R,0.02598X0.03937*%
%ADD73R,0.42126X0.33858*%
%ADD74R,0.03937X0.13386*%
%ADD75R,0.04545X0.06717*%
%ADD76R,0.03543X0.04134*%
%ADD77C,0.00700*%
%ADD78R,0.22500X0.26600*%
%ADD79R,0.15800X0.38300*%
%ADD80R,0.47500X0.46500*%
D10*
X262856Y348632D02*
X296489D01*
X261218Y346994D02*
X262856Y348632D01*
X261218Y344453D02*
Y346994D01*
X259432Y342667D02*
X261218Y344453D01*
X244524Y342667D02*
X259432D01*
X257000Y346686D02*
X258713D01*
X259000Y346972D01*
X249287Y346686D02*
X251472D01*
X249000Y346972D02*
X249287Y346686D01*
X271027Y346426D02*
X276274D01*
X276300Y346400D01*
X374001Y346953D02*
X378805D01*
X382114Y350262D01*
X389486D02*
X392100Y347648D01*
X382114Y350262D02*
X389486D01*
X392100Y328900D02*
Y347648D01*
Y328900D02*
X392200Y328800D01*
X388300Y322400D02*
X391614D01*
X392200Y322986D01*
Y328800D01*
X380009Y268700D02*
X380856Y267853D01*
X385299D01*
X379800Y268700D02*
X380009D01*
X244900Y318500D02*
X245161Y318761D01*
Y319575D02*
X245286Y319700D01*
X245161Y318761D02*
Y319575D01*
X239569Y319900D02*
X240769Y321100D01*
X239200Y319900D02*
X239569D01*
X245286Y319700D02*
X258600D01*
X240769Y321100D02*
X264647D01*
X381435Y285765D02*
Y286056D01*
X379374Y288118D02*
X381435Y286056D01*
Y285765D02*
X382142Y285057D01*
X321300Y286200D02*
X326650Y291550D01*
X341514D02*
X342100Y292136D01*
X326650Y291550D02*
X341514D01*
X342100Y292136D02*
Y299714D01*
X321300Y270500D02*
Y286200D01*
X378769Y293266D02*
X378917Y293414D01*
Y294021D01*
X382000Y297105D01*
Y297400D01*
X382142Y281100D02*
Y285057D01*
X334177Y313472D02*
X334185Y313465D01*
X336744D02*
X338862Y311347D01*
Y305500D02*
Y311347D01*
X334185Y313465D02*
X336744D01*
X262700Y315600D02*
X264647D01*
X258600Y319700D02*
X262700Y315600D01*
X234000Y329423D02*
X234942Y330365D01*
X234000Y326028D02*
Y329423D01*
X234942Y330365D02*
X235100D01*
X221500Y345835D02*
Y349000D01*
Y345835D02*
X221796Y345539D01*
X229942Y330365D02*
X230100D01*
X229000Y329423D02*
X229942Y330365D01*
X229000Y326028D02*
Y329423D01*
X227790Y322500D02*
X246654D01*
X225143Y325148D02*
X227790Y322500D01*
X282714Y326900D02*
X283300Y326314D01*
X280114Y326900D02*
X282714D01*
X279600Y326386D02*
X280114Y326900D01*
X283300Y318435D02*
Y326314D01*
X274168Y326386D02*
X279600D01*
X273654Y326900D02*
X274168Y326386D01*
X283300Y318435D02*
X284243Y319378D01*
X302484D01*
X283300Y330324D02*
X292278Y321346D01*
X302484D01*
X283300Y330324D02*
Y335365D01*
X297000Y303962D02*
Y307319D01*
X296469Y303431D02*
X297000Y303962D01*
X298914Y309500D02*
X300000Y308414D01*
X295426Y309500D02*
X298914D01*
X294081Y308155D02*
X295426Y309500D01*
X304535Y311504D02*
X304543Y311496D01*
X305437Y307764D02*
X307496D01*
X307504Y307756D01*
Y306484D02*
Y307756D01*
X304543Y308658D02*
X305437Y307764D01*
X304543Y308658D02*
Y311496D01*
X302484Y311504D02*
X304535D01*
X289730Y308000D02*
X289885Y308155D01*
X294081D01*
X300000Y288900D02*
Y308414D01*
X290161Y303431D02*
X296469D01*
X289730Y303000D02*
X290161Y303431D01*
X294181Y293000D02*
X298600Y288581D01*
X289730Y293000D02*
X294181D01*
X268470Y298000D02*
X270340D01*
X273517Y294823D01*
Y273643D02*
Y294823D01*
X261100Y302462D02*
X261500Y302862D01*
Y307500D01*
X261600Y297238D02*
X262076Y296761D01*
X261100Y297738D02*
X261600Y297238D01*
Y293500D02*
Y297238D01*
X262839Y296761D02*
X266600Y293000D01*
X268470D01*
X262076Y296761D02*
X262839D01*
X268020Y308450D02*
X268470Y308900D01*
X262372Y303772D02*
X266600Y308000D01*
X268470D01*
X262372Y303439D02*
Y303772D01*
X261395Y302462D02*
X262372Y303439D01*
X261100Y302462D02*
X261395D01*
X273600Y333900D02*
X281835D01*
X283300Y335365D01*
X256728Y329937D02*
X259602D01*
X254000Y327209D02*
X256728Y329937D01*
X259602D02*
X259614Y329925D01*
X229000Y343500D02*
X234900Y337600D01*
X260980Y339000D02*
X262527Y340547D01*
X234000Y342000D02*
X237000Y339000D01*
X267561Y337600D02*
X270509Y340547D01*
X234900Y337600D02*
X267561D01*
X237000Y339000D02*
X260980D01*
X262527Y340547D02*
X265001D01*
X361649Y250506D02*
X362155Y250000D01*
X346621Y250506D02*
X361649D01*
X301743Y346462D02*
X340613D01*
X301609Y346597D02*
X301743Y346462D01*
X299079Y342100D02*
X301131Y340047D01*
X301500D01*
X293658Y333519D02*
Y335142D01*
X293600Y335200D02*
X293658Y335142D01*
Y333519D02*
X299349Y327828D01*
X299365D01*
X299941Y327252D02*
X302484D01*
X299365Y327828D02*
X299941Y327252D01*
X291935Y329449D02*
X296101Y325284D01*
X302484D01*
X377700Y250000D02*
X389202Y238498D01*
X362155Y250000D02*
X377700D01*
X345634Y249519D02*
X346621Y250506D01*
X373184Y263409D02*
X389202Y247391D01*
X351751Y263409D02*
X373184D01*
X389202Y246641D02*
Y247391D01*
X351751Y263409D02*
X351751Y263409D01*
X314069Y263269D02*
X321300Y270500D01*
X314069Y259863D02*
Y263269D01*
X342100Y299714D02*
X344486Y302100D01*
X352750D01*
X361698Y311047D01*
X363614D01*
X337500Y299800D02*
X338781Y301081D01*
Y305419D01*
X338862Y305500D01*
X334000Y300400D02*
X334069Y300469D01*
X325553Y299400D02*
X329500D01*
X334069Y300469D02*
Y305431D01*
X341400Y325400D02*
Y343695D01*
X339315Y323315D02*
X341400Y325400D01*
X340814Y344281D02*
X341400Y343695D01*
X300857Y344281D02*
X340814D01*
X325453Y299501D02*
X325553Y299400D01*
X334069Y305431D02*
X334138Y305500D01*
Y311496D01*
X334146Y311504D01*
X334177D01*
X303092Y292557D02*
X304138Y293603D01*
X303092Y291031D02*
Y292557D01*
X308965Y293500D02*
Y303433D01*
X309271Y288581D02*
Y293194D01*
X298600Y288320D02*
X301920Y285000D01*
X298600Y288320D02*
Y288581D01*
X301920Y285000D02*
X311446D01*
X300000Y288900D02*
X302500Y286400D01*
X310866D01*
X339347Y321346D02*
X342800Y324800D01*
Y344275D01*
X340613Y346462D02*
X342800Y344275D01*
X335000Y341862D02*
X335119Y341981D01*
X338700D01*
X338819Y342100D01*
X328400Y342500D02*
X334362D01*
X335000Y341862D01*
X327189Y341289D02*
X328400Y342500D01*
X327189Y338177D02*
Y341289D01*
X335000Y337138D02*
X335219Y336919D01*
X338600D01*
X338819Y336700D01*
X329157Y337130D02*
X329165Y337138D01*
X329157Y336110D02*
Y337130D01*
X329165Y337138D02*
X335000D01*
X315954Y303349D02*
X318531Y300772D01*
X319547Y299501D02*
Y299993D01*
X315378Y303941D02*
Y306484D01*
Y303941D02*
X315954Y303365D01*
Y303349D02*
Y303365D01*
X318531Y300772D02*
X318768D01*
X319547Y299993D01*
X308965Y293500D02*
X309271Y293194D01*
X311452Y286986D02*
Y297684D01*
X310866Y286400D02*
X311452Y286986D01*
X311446Y285000D02*
X313500Y287054D01*
Y302200D01*
X313409Y302291D02*
X313500Y302200D01*
X313409Y302291D02*
Y306484D01*
X311441Y297695D02*
Y306484D01*
Y297695D02*
X311452Y297684D01*
X309472Y303941D02*
Y306484D01*
X308965Y303433D02*
X309472Y303941D01*
X305343Y300772D02*
X307504Y302933D01*
Y306484D01*
X305114Y300772D02*
X305343D01*
X304138Y299795D02*
X305114Y300772D01*
X304138Y299500D02*
Y299795D01*
Y293603D02*
Y299500D01*
X299542Y333157D02*
X302484D01*
X297836Y334864D02*
X299542Y333157D01*
X297836Y334864D02*
Y335883D01*
X295782Y337937D02*
X297836Y335883D01*
X295782Y337937D02*
X295782D01*
X293800Y339919D02*
X295782Y337937D01*
X270509Y340547D02*
X271493D01*
X300544Y342614D02*
X306618D01*
X299658Y343500D02*
X300544Y342614D01*
X272858Y342100D02*
X299079D01*
X272272Y341514D02*
X272858Y342100D01*
X300221Y344900D02*
X300238D01*
X296489Y348632D02*
X300221Y344900D01*
X300238D02*
X300857Y344281D01*
X272272Y341327D02*
Y341514D01*
X268445Y343500D02*
X299658D01*
X271493Y340547D02*
X272272Y341327D01*
X265445Y340500D02*
X268445Y343500D01*
X306618Y342614D02*
X307504Y341728D01*
X254000Y326028D02*
Y327209D01*
X267846Y334400D02*
X267946Y334500D01*
X263000Y334400D02*
X267846D01*
Y327000D02*
X267946Y326900D01*
X262300Y327000D02*
X267846D01*
X268081Y249519D02*
X345634D01*
X266600Y251000D02*
X268081Y249519D01*
X271900Y243900D02*
X335600D01*
X338758Y245300D02*
X357405Y226653D01*
X346539Y247861D02*
X346800Y247600D01*
X255300Y233000D02*
X269000Y246700D01*
X270600Y245300D02*
X338758D01*
X269000Y246700D02*
X339338D01*
X340619Y245419D01*
X263700Y248100D02*
X345533D01*
X262000Y236700D02*
X270600Y245300D01*
X265319Y237319D02*
X271900Y243900D01*
X335600D02*
X342599Y236901D01*
X345773Y247861D02*
X346539D01*
X345533Y248100D02*
X345773Y247861D01*
X347703Y245419D02*
X348985Y246700D01*
X359022D01*
X340619Y245419D02*
X347703D01*
X266600Y251000D02*
Y262400D01*
X265719Y263281D02*
Y272780D01*
X264856Y273643D02*
X265719Y272780D01*
Y263281D02*
X266600Y262400D01*
X262100Y249700D02*
X263700Y248100D01*
X389202Y236641D02*
Y238498D01*
Y225891D02*
Y226641D01*
X385910Y222600D02*
X389202Y225891D01*
X356000Y222600D02*
X385910D01*
X350547Y228053D02*
X356000Y222600D01*
X347999Y228053D02*
X350547D01*
X342599Y227953D02*
Y236901D01*
X357405Y226653D02*
X359069D01*
X346500Y233100D02*
X347999Y231601D01*
Y228053D02*
Y231601D01*
X262100Y249700D02*
Y259863D01*
X359022Y246700D02*
X359069Y246653D01*
X265319Y233934D02*
Y237319D01*
X262000Y233700D02*
Y236700D01*
Y229352D02*
Y233700D01*
Y229352D02*
X262599Y228753D01*
X255428Y229632D02*
Y232872D01*
X255300Y233000D02*
X255428Y232872D01*
Y229632D02*
X256207Y228853D01*
X256699D01*
X225143Y325148D02*
Y331550D01*
X222180Y334513D02*
X225143Y331550D01*
X221784Y325216D02*
Y329788D01*
Y325216D02*
X223158Y323842D01*
X246654Y322500D02*
X258414D01*
X259000Y323086D02*
Y326028D01*
X246654Y322500D02*
X249000Y324847D01*
X258414Y322500D02*
X259000Y323086D01*
X221476Y345859D02*
X221500Y345835D01*
X244000Y326028D02*
Y334531D01*
X234000Y342000D02*
Y346972D01*
X229000Y343500D02*
Y346972D01*
X307504Y338177D02*
Y341728D01*
X334177Y323315D02*
X339315D01*
X334177Y321346D02*
X339347D01*
X249000Y324847D02*
Y326028D01*
X222079Y334613D02*
X222180Y334513D01*
X221784Y334613D02*
X222079D01*
X243414Y350500D02*
X251654D01*
X227586D02*
X243414D01*
X254000Y346972D02*
Y348153D01*
X251654Y350500D02*
X254000Y348153D01*
X221796Y340518D02*
X222091D01*
X244000Y346972D02*
Y349914D01*
X243414Y350500D02*
X244000Y349914D01*
X225500Y348414D02*
X227586Y350500D01*
X225500Y344273D02*
Y348414D01*
X221796Y340864D02*
X222091D01*
X225500Y344273D01*
X211290Y340222D02*
X211316Y340248D01*
X254000Y345791D02*
Y346972D01*
X217182Y329593D02*
X221489D01*
X221784Y329889D01*
X216887Y329298D02*
X217182Y329593D01*
X222052Y320689D02*
X223123D01*
X220965Y319603D02*
X222052Y320689D01*
X220965Y319500D02*
Y319603D01*
X216886Y346179D02*
X217206Y345859D01*
X221476D01*
X211316Y340248D02*
X216616D01*
X216912Y340544D02*
X221526D01*
X221796Y340814D01*
X216616Y340248D02*
X216912Y340544D01*
X222091Y340518D02*
X222387Y340222D01*
D13*
X239000Y326028D02*
Y331300D01*
X237000Y333300D02*
X239000Y331300D01*
D33*
X220664Y310500D02*
X223164Y308000D01*
X217984Y310500D02*
X220664D01*
X217311Y311173D02*
Y316289D01*
X216035Y317565D02*
Y319500D01*
Y317565D02*
X217311Y316289D01*
Y311173D02*
X217984Y310500D01*
X215411Y307621D02*
Y314589D01*
X216954Y298023D02*
Y306077D01*
X202000Y328000D02*
X215411Y314589D01*
Y307621D02*
X216954Y306077D01*
X273434Y312481D02*
X279008Y306908D01*
X257295Y304985D02*
Y309703D01*
X272647Y310581D02*
X284000Y299229D01*
X255395Y305772D02*
Y310621D01*
X257255Y312481D01*
X273434D01*
X257295Y309703D02*
X258174Y310581D01*
X272647D01*
X344400Y285300D02*
X354800D01*
X358600Y289100D02*
X371669D01*
X354800Y285300D02*
X358600Y289100D01*
X371669D02*
X375050Y285719D01*
X375214D02*
X376033Y284900D01*
X375050Y285719D02*
X375214D01*
X376033Y284900D02*
X379100D01*
X339800Y289900D02*
X344400Y285300D01*
X328300Y289900D02*
X339800D01*
X325000Y286600D02*
X328300Y289900D01*
X315406Y284705D02*
Y286105D01*
X318400Y289100D01*
X312000Y281300D02*
X315406Y284705D01*
X231862Y288795D02*
X233100Y290034D01*
X236305D01*
X255053Y302743D02*
X257295Y304985D01*
X295243Y300500D02*
X296605Y299138D01*
X279008Y306908D02*
X285416Y300500D01*
X295243D01*
X295467Y298000D02*
X296605Y299138D01*
X289730Y298000D02*
X295467D01*
X239000Y294500D02*
Y296227D01*
X241695Y298922D02*
X243422D01*
X249143Y304643D01*
X239000Y296227D02*
X241695Y298922D01*
X249143Y304643D02*
X254267D01*
X239000Y292728D02*
Y294500D01*
X231862Y288500D02*
Y288795D01*
X232181Y277819D02*
Y288181D01*
Y277819D02*
X232500Y277500D01*
X254267Y304643D02*
X255395Y305772D01*
X236305Y290034D02*
X239000Y292728D01*
X279008Y306908D02*
Y306908D01*
X231862Y288500D02*
X232181Y288181D01*
X216887Y334513D02*
X222180D01*
X284000Y289479D02*
Y299229D01*
X353815Y258654D02*
X360288Y252181D01*
X367000D01*
X346704Y258654D02*
X353815D01*
X345495Y259863D02*
X346704Y258654D01*
X340053Y259863D02*
X345495D01*
X339100Y266800D02*
X340000Y267700D01*
X353350D02*
X357390Y271741D01*
X340000Y267700D02*
X353350D01*
X328789Y266800D02*
X339100D01*
X357390Y271741D02*
Y271898D01*
X322730Y259863D02*
Y261140D01*
X325113Y263523D02*
X325512D01*
X326728Y264739D02*
X328789Y266800D01*
X322730Y261140D02*
X325113Y263523D01*
X325512D02*
X326728Y264739D01*
Y264739D01*
X292179Y281300D02*
X312000D01*
X284000Y289479D02*
X292179Y281300D01*
X250800Y300502D02*
X253041Y302743D01*
X250800Y294535D02*
Y300502D01*
X253041Y302743D02*
X255053D01*
X327974Y242200D02*
X332500Y237674D01*
X272926Y242200D02*
X327974D01*
X269300Y238574D02*
X272926Y242200D01*
X332500Y226379D02*
Y237674D01*
X269300Y227400D02*
Y238574D01*
X332500Y226379D02*
X336831Y222047D01*
X342599D01*
X342649Y222097D02*
X347949D01*
X342599Y222047D02*
X342649Y222097D01*
X347949D02*
X347999Y222147D01*
X256699Y222947D02*
X262599D01*
X264747Y222847D02*
X269300Y227400D01*
X262599Y222847D02*
X264747D01*
X212265Y268365D02*
Y277265D01*
X212500Y277500D01*
X212100Y268200D02*
X212265Y268365D01*
X252786Y222947D02*
X256699D01*
X251833Y223900D02*
X252786Y222947D01*
X251600Y223900D02*
X251833D01*
X223123Y320689D02*
Y323342D01*
X210687Y334513D02*
X216887D01*
X202000Y328000D02*
Y343864D01*
X210917Y346500D02*
X211290Y346127D01*
X239000Y342000D02*
Y346972D01*
X204636Y346500D02*
X210917D01*
X202000Y343864D02*
X204636Y346500D01*
X216954Y298023D02*
X218477Y296500D01*
Y289634D02*
Y296500D01*
X217638Y288500D02*
Y288795D01*
X218477Y289634D01*
X210451Y288500D02*
X217638D01*
X210451D02*
X212500Y286451D01*
X208705Y288500D02*
X210451D01*
X208000Y289205D02*
X208705Y288500D01*
X212500Y277500D02*
Y286451D01*
D34*
X334787Y296670D02*
X337213D01*
X331581Y299876D02*
X334787Y296670D01*
X316824Y273643D02*
Y283103D01*
X318560Y284840D01*
X373300Y292303D02*
Y313363D01*
X374500Y292800D02*
Y310872D01*
X375086Y311458D01*
Y311721D01*
X373580Y322879D02*
X375212Y324510D01*
Y324667D01*
X370166Y323500D02*
X370787Y322879D01*
X357803Y324700D02*
X372804D01*
X372840Y324664D01*
X370787Y322879D02*
X373580D01*
X342072Y318400D02*
X342955Y319284D01*
X355881D01*
X337008Y319600D02*
X341575D01*
X342458Y320483D01*
X341600Y318400D02*
X342072D01*
X342458Y320483D02*
X355384D01*
X355881Y319284D02*
X357100Y320502D01*
X355900Y322797D02*
X357803Y324700D01*
X355384Y320483D02*
X355900Y320999D01*
X357100Y320502D02*
Y322300D01*
X355900Y320999D02*
Y322797D01*
X340610Y317409D02*
X341600Y318400D01*
X336786Y319378D02*
X337008Y319600D01*
X334177Y319378D02*
X336786D01*
X334177Y317409D02*
X340610D01*
X381700Y289707D02*
X384500D01*
X387457Y286750D01*
X381504Y289903D02*
X381700Y289707D01*
X387457Y281100D02*
Y286750D01*
X375699Y289903D02*
X381504D01*
X373300Y292303D02*
X375699Y289903D01*
X387315Y294491D02*
Y297400D01*
X384124Y291300D02*
X387315Y294491D01*
X381700Y291300D02*
X384124D01*
X381504Y291104D02*
X381700Y291300D01*
X376197Y291104D02*
X381504D01*
X358300Y323500D02*
X370166D01*
X357100Y322300D02*
X358300Y323500D01*
X374500Y292800D02*
X376197Y291104D01*
X353831Y328500D02*
X358230Y332900D01*
X344981Y328500D02*
X353831D01*
X358230Y332900D02*
X377800D01*
X383300Y327400D01*
X270553Y320706D02*
X277959Y313300D01*
X295803D01*
X276700Y312100D02*
X296300D01*
X297612Y313412D01*
X302424D01*
X297944Y315441D02*
X302484D01*
X295803Y313300D02*
X297944Y315441D01*
X302424Y313412D02*
X302484Y313472D01*
X273200Y315600D02*
X276700Y312100D01*
X270553Y320706D02*
Y321100D01*
Y315600D02*
X273200D01*
X277600Y269064D02*
Y298600D01*
X268470Y303000D02*
X268570Y303100D01*
X273100D01*
X277600Y298600D01*
X374880Y341927D02*
X382827D01*
X374001Y341047D02*
X374880Y341927D01*
X382827D02*
X383300Y342400D01*
X371253Y341047D02*
X374001D01*
X362800Y349500D02*
X371253Y341047D01*
X299200Y349500D02*
X362800D01*
X291847Y325466D02*
Y325655D01*
Y325466D02*
X293713Y323600D01*
X293900D01*
X294185Y323315D02*
X302484D01*
X293900Y323600D02*
X294185Y323315D01*
X331581Y299876D02*
Y301502D01*
X329157Y303925D02*
X331581Y301502D01*
X329157Y303925D02*
Y306484D01*
X270761Y262225D02*
X277600Y269064D01*
X270761Y259863D02*
Y262225D01*
D35*
X271001Y346453D02*
X271027Y346426D01*
X265001Y346453D02*
X271001D01*
X328900Y279419D02*
Y286981D01*
X211361Y325139D02*
X211431Y325069D01*
X211361Y325139D02*
Y329225D01*
X211288Y329298D02*
X211361Y329225D01*
X239000Y311429D02*
X248500D01*
X325486Y273643D02*
Y276005D01*
X328900Y279419D01*
X347593Y254748D02*
X349835D01*
X269300Y251700D02*
X344545D01*
X347593Y254748D01*
X227539Y313917D02*
Y314587D01*
X228954Y316001D01*
X230465Y319500D02*
X234626D01*
X228954Y316001D02*
X229120D01*
X227240Y313618D02*
X227539Y313917D01*
X229120Y316001D02*
X230430Y317311D01*
Y319500D01*
X265000Y346453D02*
X265001Y346453D01*
X223164Y308000D02*
X225327D01*
X221000D02*
X223164D01*
X227240Y303382D02*
Y306087D01*
X232724Y303382D02*
X239000Y309658D01*
X227240Y303382D02*
X232724D01*
X239000Y309658D02*
Y311429D01*
X219760Y304051D02*
Y306760D01*
Y303382D02*
Y304051D01*
X225327Y308000D02*
X227240Y306087D01*
X219760Y306760D02*
X221000Y308000D01*
D36*
X379800Y263500D02*
X381353Y261947D01*
X385299D01*
X226596Y299513D02*
X228523Y297586D01*
X225154Y299513D02*
X226596D01*
X224041Y300626D02*
X225154Y299513D01*
X223500Y303114D02*
X224041Y302573D01*
X223500Y303114D02*
Y303382D01*
X228523Y296500D02*
Y297586D01*
X224041Y300626D02*
Y302573D01*
X208000Y309795D02*
Y315000D01*
X204500Y318500D02*
X208000Y315000D01*
X225448Y319689D02*
X225535Y319603D01*
X222776Y319689D02*
X225448D01*
X225535Y319500D02*
Y319603D01*
X222500Y283500D02*
X225410D01*
X225909Y284000D02*
X227000D01*
X227138Y284138D02*
Y288500D01*
X225410Y283500D02*
X225909Y284000D01*
X227000D02*
X227138Y284138D01*
X222500Y268000D02*
Y277500D01*
Y261500D02*
Y268000D01*
X222386Y282339D02*
Y288476D01*
Y282339D02*
X222500Y282224D01*
X222362Y288500D02*
X222386Y288476D01*
X222500Y277500D02*
Y282224D01*
X227138Y288500D02*
X227161Y288524D01*
X228523Y291096D02*
Y296500D01*
X227161Y289734D02*
X228523Y291096D01*
X227161Y288524D02*
Y289734D01*
X222500Y261500D02*
X223000Y261000D01*
D37*
X389202Y246641D02*
D03*
Y236641D02*
D03*
Y226641D02*
D03*
D38*
X359069Y246653D02*
D03*
Y236653D02*
D03*
Y226653D02*
D03*
D39*
X363614Y259079D02*
D03*
Y267740D02*
D03*
Y276402D02*
D03*
Y285063D02*
D03*
Y293724D02*
D03*
Y302386D02*
D03*
Y311047D02*
D03*
Y319709D02*
D03*
Y328370D02*
D03*
Y337032D02*
D03*
X349835Y254748D02*
D03*
Y263409D02*
D03*
Y272071D02*
D03*
Y280732D02*
D03*
Y289394D02*
D03*
Y298055D02*
D03*
Y306716D02*
D03*
Y315378D02*
D03*
Y324039D02*
D03*
Y332701D02*
D03*
D40*
X383300Y342400D02*
D03*
X388300D02*
D03*
Y332400D02*
D03*
X383300Y327400D02*
D03*
Y322400D02*
D03*
X388300Y327400D02*
D03*
Y322400D02*
D03*
D41*
X340053Y259863D02*
D03*
X331391D02*
D03*
X322730D02*
D03*
X314069D02*
D03*
X305407D02*
D03*
X296746D02*
D03*
X288084D02*
D03*
X279423D02*
D03*
X270761D02*
D03*
X262100D02*
D03*
X282179Y273643D02*
D03*
X308163D02*
D03*
X256195D02*
D03*
X264856D02*
D03*
X273517D02*
D03*
X290840D02*
D03*
X299502D02*
D03*
X316824D02*
D03*
X325486D02*
D03*
X334147D02*
D03*
D42*
X237000Y333300D02*
D03*
X244524Y342667D02*
D03*
X257000Y346686D02*
D03*
X251472D02*
D03*
X276300Y346400D02*
D03*
X379800Y263500D02*
D03*
Y268700D02*
D03*
X379100Y284900D02*
D03*
X379374Y288118D02*
D03*
X325000Y286600D02*
D03*
X318400Y289100D02*
D03*
X337213Y296670D02*
D03*
X318560Y284840D02*
D03*
X373300Y313363D02*
D03*
X375212Y324667D02*
D03*
X372840Y324664D02*
D03*
X375086Y311721D02*
D03*
X378769Y293266D02*
D03*
X378161Y297400D02*
D03*
X235100Y330365D02*
D03*
X230100D02*
D03*
X259614Y329925D02*
D03*
X367000Y252181D02*
D03*
X299200Y349500D02*
D03*
X301609Y346597D02*
D03*
X301500Y340047D02*
D03*
X346800Y247600D02*
D03*
X357390Y271898D02*
D03*
X344981Y328500D02*
D03*
X342599Y236901D02*
D03*
X346500Y233100D02*
D03*
X239000Y342000D02*
D03*
X244000Y334531D02*
D03*
D43*
X244900Y318500D02*
D03*
X239200Y319900D02*
D03*
X328900Y286981D02*
D03*
X223400Y228166D02*
D03*
X221500Y349000D02*
D03*
X211431Y325069D02*
D03*
X297000Y307319D02*
D03*
X261500Y307500D02*
D03*
X261600Y293500D02*
D03*
X293800Y339919D02*
D03*
X293600Y335200D02*
D03*
X291847Y325655D02*
D03*
X291935Y329449D02*
D03*
X337500Y299800D02*
D03*
X334000Y300400D02*
D03*
X329500Y299400D02*
D03*
X303092Y291031D02*
D03*
X309271Y288581D02*
D03*
X338819Y342100D02*
D03*
Y336700D02*
D03*
X263000Y334400D02*
D03*
X262300Y327000D02*
D03*
X269300Y251700D02*
D03*
X265319Y233934D02*
D03*
X262000Y233700D02*
D03*
X212100Y268200D02*
D03*
X251600Y223900D02*
D03*
X255300Y233000D02*
D03*
X234626Y319500D02*
D03*
X222965Y323500D02*
D03*
X204500Y318500D02*
D03*
X204636Y346500D02*
D03*
X227000Y284000D02*
D03*
X222500Y268000D02*
D03*
D44*
X309669Y313669D02*
D03*
X314000D02*
D03*
X318331D02*
D03*
X322661D02*
D03*
X326992D02*
D03*
X309669Y318000D02*
D03*
X314000D02*
D03*
X318331D02*
D03*
X322661D02*
D03*
X326992D02*
D03*
X309669Y322331D02*
D03*
X314000D02*
D03*
X318331D02*
D03*
X322661D02*
D03*
X326992D02*
D03*
X309669Y326661D02*
D03*
X314000D02*
D03*
X318331D02*
D03*
X322661D02*
D03*
X326992D02*
D03*
X309669Y330992D02*
D03*
X314000D02*
D03*
X318331D02*
D03*
X322661D02*
D03*
X326992D02*
D03*
D55*
X270553Y315600D02*
D03*
X264647D02*
D03*
Y321100D02*
D03*
X270553D02*
D03*
D56*
X283300Y335365D02*
D03*
Y318435D02*
D03*
D57*
X385299Y261947D02*
D03*
Y267853D02*
D03*
X262599Y228753D02*
D03*
Y222847D02*
D03*
X271001Y340547D02*
D03*
Y346453D02*
D03*
X265001Y340547D02*
D03*
Y346453D02*
D03*
X342599Y222047D02*
D03*
Y227953D02*
D03*
X347999Y222147D02*
D03*
Y228053D02*
D03*
X256699Y228853D02*
D03*
Y222947D02*
D03*
X211290Y346179D02*
D03*
Y340274D02*
D03*
X211288Y329298D02*
D03*
Y335203D02*
D03*
X216887D02*
D03*
Y329298D02*
D03*
X216886Y340274D02*
D03*
Y346179D02*
D03*
X374001Y346953D02*
D03*
Y341047D02*
D03*
D58*
X304551Y311504D02*
D03*
Y313472D02*
D03*
Y315441D02*
D03*
Y317409D02*
D03*
Y319378D02*
D03*
Y321346D02*
D03*
Y323315D02*
D03*
Y325284D02*
D03*
Y327252D02*
D03*
Y329221D02*
D03*
Y331189D02*
D03*
Y333157D02*
D03*
X332110D02*
D03*
Y331189D02*
D03*
Y329221D02*
D03*
Y327252D02*
D03*
Y325284D02*
D03*
Y323315D02*
D03*
Y321346D02*
D03*
Y319378D02*
D03*
Y317409D02*
D03*
Y315441D02*
D03*
Y313472D02*
D03*
Y311504D02*
D03*
D59*
X307504Y336110D02*
D03*
X309472D02*
D03*
X311441D02*
D03*
X313409D02*
D03*
X315378D02*
D03*
X317347D02*
D03*
X319315D02*
D03*
X321284D02*
D03*
X323252D02*
D03*
X325220D02*
D03*
X327189D02*
D03*
X329157D02*
D03*
Y308551D02*
D03*
X327189D02*
D03*
X325220D02*
D03*
X323252D02*
D03*
X321284D02*
D03*
X319315D02*
D03*
X317347D02*
D03*
X315378D02*
D03*
X313409D02*
D03*
X311441D02*
D03*
X309472D02*
D03*
X307504D02*
D03*
D60*
X318331Y322331D02*
D03*
D61*
X261100Y302462D02*
D03*
Y297738D02*
D03*
X335000Y337138D02*
D03*
Y341862D02*
D03*
X296900Y303862D02*
D03*
Y299138D02*
D03*
X221796Y345589D02*
D03*
Y340864D02*
D03*
X221784Y329889D02*
D03*
Y334613D02*
D03*
X295300Y331462D02*
D03*
Y326738D02*
D03*
D62*
X268470Y308000D02*
D03*
X289730Y303000D02*
D03*
X268470Y293000D02*
D03*
X289730Y308000D02*
D03*
Y298000D02*
D03*
Y293000D02*
D03*
X268470Y298000D02*
D03*
Y303000D02*
D03*
D63*
X229000Y346972D02*
D03*
X234000D02*
D03*
X239000D02*
D03*
X244000D02*
D03*
X249000D02*
D03*
X254000D02*
D03*
X259000D02*
D03*
Y326028D02*
D03*
X254000D02*
D03*
X249000D02*
D03*
X244000D02*
D03*
X239000D02*
D03*
X234000D02*
D03*
X229000D02*
D03*
D64*
X267946Y334500D02*
D03*
X273654D02*
D03*
X267946Y326900D02*
D03*
X273654D02*
D03*
D65*
X302484Y311504D02*
D03*
Y313472D02*
D03*
Y315441D02*
D03*
Y317409D02*
D03*
Y319378D02*
D03*
Y321346D02*
D03*
Y323315D02*
D03*
Y325284D02*
D03*
Y327252D02*
D03*
Y329221D02*
D03*
Y331189D02*
D03*
Y333157D02*
D03*
X334177D02*
D03*
Y331189D02*
D03*
Y329221D02*
D03*
Y327252D02*
D03*
Y325284D02*
D03*
Y323315D02*
D03*
Y321346D02*
D03*
Y319378D02*
D03*
Y317409D02*
D03*
Y315441D02*
D03*
Y313472D02*
D03*
Y311504D02*
D03*
D66*
X307504Y338177D02*
D03*
X309472D02*
D03*
X311441D02*
D03*
X313409D02*
D03*
X315378D02*
D03*
X317347D02*
D03*
X319315D02*
D03*
X321284D02*
D03*
X323252D02*
D03*
X325220D02*
D03*
X327189D02*
D03*
X329157D02*
D03*
Y306484D02*
D03*
X327189D02*
D03*
X325220D02*
D03*
X323252D02*
D03*
X321284D02*
D03*
X319315D02*
D03*
X317347D02*
D03*
X315378D02*
D03*
X313409D02*
D03*
X311441D02*
D03*
X309472D02*
D03*
X307504D02*
D03*
D67*
X304138Y299500D02*
D03*
X308862D02*
D03*
X334138Y305500D02*
D03*
X338862D02*
D03*
X227138Y288500D02*
D03*
X231862D02*
D03*
X222362D02*
D03*
X217638D02*
D03*
D68*
X319547Y299501D02*
D03*
X325453D02*
D03*
D69*
X304035Y293500D02*
D03*
X308965D02*
D03*
X220965Y319500D02*
D03*
X216035D02*
D03*
X225535D02*
D03*
X230465D02*
D03*
D70*
X250800Y311465D02*
D03*
Y294535D02*
D03*
X239000Y311429D02*
D03*
Y294500D02*
D03*
D71*
X208000Y289205D02*
D03*
Y309795D02*
D03*
D72*
X227240Y313618D02*
D03*
X219760D02*
D03*
Y303382D02*
D03*
X223500D02*
D03*
X227240D02*
D03*
D73*
X222500Y235768D02*
D03*
D74*
Y277500D02*
D03*
X212500D02*
D03*
X232500D02*
D03*
D75*
X218477Y296500D02*
D03*
X228523D02*
D03*
D76*
X387315Y297400D02*
D03*
X382000D02*
D03*
X387457Y281100D02*
D03*
X382142D02*
D03*
D77*
X334177Y315441D02*
X337009D01*
X341050Y311400D02*
X353200D01*
X337009Y315441D02*
X341050Y311400D01*
X357200Y315400D02*
X376300D01*
X353200Y311400D02*
X357200Y315400D01*
X376300D02*
X383300Y322400D01*
D78*
X246550Y252200D02*
D03*
D79*
X243900Y265250D02*
D03*
D80*
X224750Y242750D02*
D03*
M02*
