G04*
G04 #@! TF.GenerationSoftware,Altium Limited,Altium Designer,21.0.8 (223)*
G04*
G04 Layer_Physical_Order=3*
G04 Layer_Color=128*
%FSLAX25Y25*%
%MOIN*%
G70*
G04*
G04 #@! TF.SameCoordinates,CF28ABD0-DF4C-4253-A353-1030560CAA2A*
G04*
G04*
G04 #@! TF.FilePolarity,Negative*
G04*
G01*
G75*
%ADD48C,0.04000*%
%ADD49C,0.05131*%
%ADD51C,0.04304*%
%ADD52C,0.05131*%
%ADD54C,0.03595*%
%ADD55C,0.03556*%
G04:AMPARAMS|DCode=56|XSize=59.181mil|YSize=59.181mil|CornerRadius=0mil|HoleSize=0mil|Usage=FLASHONLY|Rotation=0.000|XOffset=0mil|YOffset=0mil|HoleType=Round|Shape=Relief|Width=4mil|Gap=4mil|Entries=4|*
%AMTHD56*
7,0,0,0.05918,0.05118,0.00400,45*
%
%ADD56THD56*%
%ADD57C,0.01587*%
%ADD58C,0.02000*%
G04:AMPARAMS|DCode=59|XSize=66.661mil|YSize=66.661mil|CornerRadius=0mil|HoleSize=0mil|Usage=FLASHONLY|Rotation=0.000|XOffset=0mil|YOffset=0mil|HoleType=Round|Shape=Relief|Width=4mil|Gap=4mil|Entries=4|*
%AMTHD59*
7,0,0,0.06666,0.05866,0.00400,45*
%
%ADD59THD59*%
%ADD60C,0.02769*%
D48*
X200000Y218500D02*
X200000Y352000D01*
X394500Y352000D01*
X394500Y218500D01*
X328300Y218500D02*
X394500Y218500D01*
X328300Y239700D02*
X328300Y218500D01*
X272600Y239700D02*
X328300Y239700D01*
X272600Y239700D02*
X272600Y218500D01*
X200000Y218500D02*
X272600Y218500D01*
D49*
X363614Y260063D02*
D03*
Y268724D02*
D03*
Y277386D02*
D03*
Y286047D02*
D03*
Y294709D02*
D03*
Y303370D02*
D03*
Y312032D02*
D03*
Y320693D02*
D03*
Y329354D02*
D03*
Y338016D02*
D03*
X349835Y255732D02*
D03*
Y264394D02*
D03*
Y273055D02*
D03*
Y281716D02*
D03*
Y290378D02*
D03*
Y299039D02*
D03*
Y307701D02*
D03*
Y316362D02*
D03*
Y325024D02*
D03*
Y333685D02*
D03*
D51*
X324000Y293500D02*
D03*
D52*
X332571Y272067D02*
D03*
X323910D02*
D03*
X315248D02*
D03*
X297926D02*
D03*
X289264D02*
D03*
X271941D02*
D03*
X263280D02*
D03*
X254619D02*
D03*
X306587D02*
D03*
X280603D02*
D03*
X260524Y258287D02*
D03*
X269185D02*
D03*
X277847D02*
D03*
X286508D02*
D03*
X295170D02*
D03*
X303831D02*
D03*
X312493D02*
D03*
X321154D02*
D03*
X329815D02*
D03*
X338477D02*
D03*
D54*
X388366Y248994D02*
D03*
Y238994D02*
D03*
Y228994D02*
D03*
X358234Y249006D02*
D03*
Y239006D02*
D03*
Y229006D02*
D03*
D55*
X383300Y347400D02*
D03*
Y342400D02*
D03*
Y337400D02*
D03*
X388300Y347400D02*
D03*
Y342400D02*
D03*
Y337400D02*
D03*
X383300Y332400D02*
D03*
X388300D02*
D03*
X383300Y327400D02*
D03*
Y322400D02*
D03*
X388300Y327400D02*
D03*
X383300Y317400D02*
D03*
X388300D02*
D03*
D56*
Y322400D02*
D03*
D57*
X374068Y298587D02*
D03*
X334884Y297990D02*
D03*
X301609Y346886D02*
D03*
X309669Y313669D02*
D03*
X314000D02*
D03*
X318331D02*
D03*
X322661D02*
D03*
X326992D02*
D03*
X309669Y318000D02*
D03*
X314000D02*
D03*
X318331D02*
D03*
X322661D02*
D03*
X326992D02*
D03*
X309669Y322331D02*
D03*
X314000D02*
D03*
X318331D02*
D03*
X322661D02*
D03*
X326992D02*
D03*
X309669Y326661D02*
D03*
X314000D02*
D03*
X318331D02*
D03*
X322661D02*
D03*
X326992D02*
D03*
X309669Y330992D02*
D03*
X314000D02*
D03*
X318331D02*
D03*
X322661D02*
D03*
X326992D02*
D03*
X344686Y329100D02*
D03*
X318926Y287926D02*
D03*
X325000Y286600D02*
D03*
X377136Y326361D02*
D03*
X374514Y326490D02*
D03*
X357623Y271550D02*
D03*
X380300Y269500D02*
D03*
X383274Y287114D02*
D03*
X382866Y293686D02*
D03*
X381686Y285000D02*
D03*
X369200Y255500D02*
D03*
X342599Y236901D02*
D03*
X346600Y234700D02*
D03*
X318314Y284894D02*
D03*
X237000Y333300D02*
D03*
X244524Y342667D02*
D03*
X257000Y346686D02*
D03*
X251472D02*
D03*
X379800Y263500D02*
D03*
X373300Y313363D02*
D03*
X375086Y311721D02*
D03*
X235100Y330365D02*
D03*
X230100D02*
D03*
X259614Y329925D02*
D03*
X299200Y349500D02*
D03*
X301500Y340047D02*
D03*
X346800Y247600D02*
D03*
X239000Y342000D02*
D03*
X244000Y334531D02*
D03*
D58*
X309000Y289100D02*
D03*
X329228Y298628D02*
D03*
X290500Y328800D02*
D03*
X290842Y324942D02*
D03*
X338069Y297835D02*
D03*
X337000Y286183D02*
D03*
X227100Y283700D02*
D03*
X247800Y236083D02*
D03*
X266499Y252393D02*
D03*
X260000Y233891D02*
D03*
X255857Y233400D02*
D03*
X251036Y234500D02*
D03*
X244900Y318500D02*
D03*
X239200Y319900D02*
D03*
X223400Y228466D02*
D03*
X221500Y349000D02*
D03*
X297000Y307319D02*
D03*
X261500Y307500D02*
D03*
X293800Y339919D02*
D03*
X338819Y342100D02*
D03*
X263000Y334400D02*
D03*
X262300Y327000D02*
D03*
X212100Y268500D02*
D03*
X222965Y323500D02*
D03*
X204500Y319000D02*
D03*
X204636Y346500D02*
D03*
X222500Y268300D02*
D03*
D59*
X334000Y293500D02*
D03*
D60*
X245524Y280192D02*
D03*
X210400Y249100D02*
D03*
X241800Y229800D02*
D03*
X223100Y234800D02*
D03*
X220800Y241500D02*
D03*
X240500Y279000D02*
D03*
X241400Y270300D02*
D03*
X252200Y260200D02*
D03*
X252100Y247600D02*
D03*
X239700Y244000D02*
D03*
X238100Y260600D02*
D03*
X232900Y249900D02*
D03*
X223700Y259000D02*
D03*
X214100Y245500D02*
D03*
M02*
