G04*
G04 #@! TF.GenerationSoftware,Altium Limited,Altium Designer,21.0.8 (223)*
G04*
G04 Layer_Color=16711935*
%FSLAX25Y25*%
%MOIN*%
G70*
G04*
G04 #@! TF.SameCoordinates,CF28ABD0-DF4C-4253-A353-1030560CAA2A*
G04*
G04*
G04 #@! TF.FilePolarity,Negative*
G04*
G01*
G75*
%ADD23O,0.10827X0.06102*%
%ADD24R,0.06591X0.04991*%
%ADD25O,0.06591X0.04991*%
%ADD26O,0.06102X0.10827*%
%ADD27O,0.06591X0.08091*%
%ADD28O,0.08465X0.06496*%
%ADD29C,0.00591*%
%ADD30C,0.04724*%
%ADD31C,0.02559*%
%ADD67R,0.03543X0.02953*%
%ADD71R,0.02953X0.03543*%
%ADD73R,0.03174X0.03379*%
%ADD74R,0.06890X0.10433*%
%ADD76R,0.02598X0.03937*%
%ADD86O,0.01575X0.08465*%
%ADD87O,0.08465X0.01575*%
%ADD88R,0.22638X0.22638*%
%ADD89R,0.03740X0.04528*%
%ADD90R,0.10827X0.08071*%
%ADD91R,0.04134X0.03150*%
%ADD92R,0.06693X0.02953*%
%ADD93R,0.02874X0.05236*%
%ADD94R,0.04331X0.04724*%
%ADD95R,0.03150X0.04134*%
%ADD96R,0.12992X0.07598*%
%ADD97R,0.42717X0.34449*%
%ADD98R,0.04528X0.13976*%
%ADD99R,0.05136X0.07308*%
%ADD100R,0.04134X0.04724*%
D23*
X363614Y260063D02*
D03*
Y268724D02*
D03*
Y277386D02*
D03*
Y286047D02*
D03*
Y294709D02*
D03*
Y303370D02*
D03*
Y312032D02*
D03*
Y320693D02*
D03*
Y329354D02*
D03*
Y338016D02*
D03*
X350835Y255732D02*
D03*
Y264394D02*
D03*
Y273055D02*
D03*
Y281716D02*
D03*
Y290378D02*
D03*
X349835Y299039D02*
D03*
Y307701D02*
D03*
Y316362D02*
D03*
Y325024D02*
D03*
Y333685D02*
D03*
D24*
X334000Y293500D02*
D03*
D25*
X324000D02*
D03*
D26*
X332571Y272067D02*
D03*
X323910D02*
D03*
X315248D02*
D03*
X297926D02*
D03*
X289264D02*
D03*
X271941D02*
D03*
X263280D02*
D03*
X254619D02*
D03*
X306587D02*
D03*
X280603D02*
D03*
X260524Y258287D02*
D03*
X269185D02*
D03*
X277847D02*
D03*
X286508D02*
D03*
X295170D02*
D03*
X303831D02*
D03*
X312493D02*
D03*
X321154D02*
D03*
X329815D02*
D03*
X338477D02*
D03*
D27*
X388366Y248994D02*
D03*
Y238994D02*
D03*
Y228994D02*
D03*
D28*
X358234Y249006D02*
D03*
Y239006D02*
D03*
Y229006D02*
D03*
D29*
X383300Y347400D02*
D03*
Y337400D02*
D03*
X388300Y347400D02*
D03*
Y337400D02*
D03*
X383300Y332400D02*
D03*
Y317400D02*
D03*
X388300D02*
D03*
D30*
X383300Y342400D02*
D03*
X388300D02*
D03*
Y332400D02*
D03*
X383300Y327400D02*
D03*
Y322400D02*
D03*
X388300Y327400D02*
D03*
Y322400D02*
D03*
D31*
X309669Y313669D02*
D03*
X314000D02*
D03*
X318331D02*
D03*
X322661D02*
D03*
X326992D02*
D03*
X309669Y318000D02*
D03*
X314000D02*
D03*
X318331D02*
D03*
X322661D02*
D03*
X326992D02*
D03*
X309669Y322331D02*
D03*
X314000D02*
D03*
X318331D02*
D03*
X322661D02*
D03*
X326992D02*
D03*
X309669Y326661D02*
D03*
X314000D02*
D03*
X318331D02*
D03*
X322661D02*
D03*
X326992D02*
D03*
X309669Y330992D02*
D03*
X314000D02*
D03*
X318331D02*
D03*
X322661D02*
D03*
X326992D02*
D03*
D67*
X261100Y302462D02*
D03*
Y297738D02*
D03*
X335000Y337138D02*
D03*
Y341862D02*
D03*
X296900Y303862D02*
D03*
Y299138D02*
D03*
X221796Y345589D02*
D03*
Y340864D02*
D03*
X221784Y329889D02*
D03*
Y334613D02*
D03*
X294700Y331462D02*
D03*
Y326738D02*
D03*
D71*
X304138Y299200D02*
D03*
X308862D02*
D03*
X334138Y305500D02*
D03*
X338862D02*
D03*
X227138Y288900D02*
D03*
X231862D02*
D03*
X222362D02*
D03*
X217638D02*
D03*
D73*
X304035Y292400D02*
D03*
X308965D02*
D03*
X220965Y319500D02*
D03*
X216035D02*
D03*
X225535D02*
D03*
X230465D02*
D03*
D74*
X250800Y311465D02*
D03*
Y294535D02*
D03*
X239000Y311429D02*
D03*
Y294500D02*
D03*
D76*
X227240Y313618D02*
D03*
X219760D02*
D03*
Y303382D02*
D03*
X223500D02*
D03*
X227240D02*
D03*
D86*
X307504Y338453D02*
D03*
X309472D02*
D03*
X311441D02*
D03*
X313409D02*
D03*
X315378D02*
D03*
X317347D02*
D03*
X319315D02*
D03*
X321284D02*
D03*
X323252D02*
D03*
X325220D02*
D03*
X327189D02*
D03*
X329157D02*
D03*
Y306209D02*
D03*
X327189D02*
D03*
X325220D02*
D03*
X323252D02*
D03*
X321284D02*
D03*
X319315D02*
D03*
X317347D02*
D03*
X315378D02*
D03*
X313409D02*
D03*
X311441D02*
D03*
X309472D02*
D03*
X307504D02*
D03*
D87*
X334453Y333157D02*
D03*
Y331189D02*
D03*
Y329221D02*
D03*
Y327252D02*
D03*
Y325284D02*
D03*
Y323315D02*
D03*
Y321346D02*
D03*
Y319378D02*
D03*
Y317409D02*
D03*
Y315441D02*
D03*
Y313472D02*
D03*
Y311504D02*
D03*
X302209D02*
D03*
Y313472D02*
D03*
Y315441D02*
D03*
Y317409D02*
D03*
Y319378D02*
D03*
Y321346D02*
D03*
Y323315D02*
D03*
Y325284D02*
D03*
Y327252D02*
D03*
Y329221D02*
D03*
Y331189D02*
D03*
Y333157D02*
D03*
D88*
X318331Y322331D02*
D03*
D89*
X270553Y315600D02*
D03*
X264647D02*
D03*
Y321100D02*
D03*
X270553D02*
D03*
D90*
X283300Y335365D02*
D03*
Y318435D02*
D03*
D91*
X385299Y261947D02*
D03*
Y267853D02*
D03*
X255999Y228753D02*
D03*
Y222847D02*
D03*
X271001Y340547D02*
D03*
Y346453D02*
D03*
X265001Y340547D02*
D03*
Y346453D02*
D03*
X342599Y223547D02*
D03*
Y229453D02*
D03*
X348099Y223547D02*
D03*
Y229453D02*
D03*
X250599Y228753D02*
D03*
Y222847D02*
D03*
X211290Y346179D02*
D03*
Y340274D02*
D03*
X211288Y329298D02*
D03*
Y335203D02*
D03*
X216887D02*
D03*
Y329298D02*
D03*
X216886Y340274D02*
D03*
Y346179D02*
D03*
X374001Y346953D02*
D03*
Y341047D02*
D03*
D92*
X268470Y308000D02*
D03*
X289730Y303000D02*
D03*
X268470Y293000D02*
D03*
X289730Y308000D02*
D03*
Y298000D02*
D03*
Y293000D02*
D03*
X268470Y298000D02*
D03*
Y303000D02*
D03*
D93*
X229000Y346972D02*
D03*
X234000D02*
D03*
X239000D02*
D03*
X244000D02*
D03*
X249000D02*
D03*
X254000D02*
D03*
X259000D02*
D03*
Y326028D02*
D03*
X254000D02*
D03*
X249000D02*
D03*
X244000D02*
D03*
X239000D02*
D03*
X234000D02*
D03*
X229000D02*
D03*
D94*
X267946Y334500D02*
D03*
X273654D02*
D03*
X267946Y326900D02*
D03*
X273654D02*
D03*
D95*
X319647Y299101D02*
D03*
X325553D02*
D03*
D96*
X208000Y289705D02*
D03*
Y310295D02*
D03*
D97*
X222500Y236868D02*
D03*
D98*
Y278600D02*
D03*
X212500D02*
D03*
X232500D02*
D03*
D99*
X218477Y296500D02*
D03*
X228523D02*
D03*
D100*
X387315Y297400D02*
D03*
X382000D02*
D03*
X387457Y281100D02*
D03*
X382142D02*
D03*
M02*
