G04*
G04 #@! TF.GenerationSoftware,Altium Limited,Altium Designer,21.0.8 (223)*
G04*
G04 Layer_Color=32896*
%FSLAX25Y25*%
%MOIN*%
G70*
G04*
G04 #@! TF.SameCoordinates,CF28ABD0-DF4C-4253-A353-1030560CAA2A*
G04*
G04*
G04 #@! TF.FilePolarity,Positive*
G04*
G01*
G75*
%ADD103C,0.00394*%
D103*
X259132Y300100D02*
X263069D01*
X261100Y298131D02*
Y302068D01*
X335000Y337531D02*
Y341469D01*
X333032Y339500D02*
X336968D01*
X294932Y301500D02*
X298868D01*
X296900Y299532D02*
Y303468D01*
X219828Y343227D02*
X223765D01*
X221796Y341258D02*
Y345195D01*
X219816Y332251D02*
X223753D01*
X221784Y330282D02*
Y334219D01*
X304532Y299200D02*
X308469D01*
X306500Y297232D02*
Y301168D01*
X334531Y305500D02*
X338469D01*
X336500Y303532D02*
Y307469D01*
X304532Y292400D02*
X308469D01*
X306500Y290431D02*
Y294369D01*
X294700Y327132D02*
Y331068D01*
X292731Y329100D02*
X296669D01*
X229500Y286931D02*
Y290868D01*
X227532Y288900D02*
X231469D01*
X248832Y303000D02*
X252768D01*
X250800Y301031D02*
Y304969D01*
X221532Y308500D02*
X225468D01*
X223500Y306532D02*
Y310469D01*
X218500Y317531D02*
Y321468D01*
X216531Y319500D02*
X220468D01*
X228000Y317531D02*
Y321468D01*
X226031Y319500D02*
X229969D01*
X220000Y286931D02*
Y290868D01*
X218032Y288900D02*
X221969D01*
X237032Y302965D02*
X240968D01*
X239000Y300996D02*
Y304933D01*
X221531Y296500D02*
X225468D01*
X223500Y294531D02*
Y298468D01*
M02*
