G04*
G04 #@! TF.GenerationSoftware,Altium Limited,Altium Designer,21.0.8 (223)*
G04*
G04 Layer_Color=16711935*
%FSLAX25Y25*%
%MOIN*%
G70*
G04*
G04 #@! TF.SameCoordinates,E158979E-E8F5-4E42-ABDF-87379EC9601E*
G04*
G04*
G04 #@! TF.FilePolarity,Positive*
G04*
G01*
G75*
%ADD11C,0.00787*%
%ADD99C,0.00394*%
D11*
X387500Y239676D02*
X383564D01*
Y241644D01*
X384220Y242299D01*
X385532D01*
X386188Y241644D01*
Y239676D01*
X384220Y246235D02*
X383564Y245579D01*
Y244267D01*
X384220Y243611D01*
X386844D01*
X387500Y244267D01*
Y245579D01*
X386844Y246235D01*
X383564Y247547D02*
X387500D01*
Y249515D01*
X386844Y250171D01*
X386188D01*
X385532Y249515D01*
Y247547D01*
Y249515D01*
X384876Y250171D01*
X384220D01*
X383564Y249515D01*
Y247547D01*
Y258042D02*
Y255419D01*
X387500D01*
Y258042D01*
X385532Y255419D02*
Y256731D01*
X383564Y261978D02*
X387500D01*
Y260010D01*
X386844Y259354D01*
X385532D01*
X384876Y260010D01*
Y261978D01*
X388812Y264602D02*
Y265258D01*
X388156Y265914D01*
X384876D01*
Y263946D01*
X385532Y263290D01*
X386844D01*
X387500Y263946D01*
Y265914D01*
Y269194D02*
Y267882D01*
X386844Y267226D01*
X385532D01*
X384876Y267882D01*
Y269194D01*
X385532Y269850D01*
X386188D01*
Y267226D01*
D99*
X390209Y268054D02*
Y315298D01*
M02*
