G04*
G04 #@! TF.GenerationSoftware,Altium Limited,Altium Designer,21.0.8 (223)*
G04*
G04 Layer_Color=8388736*
%FSLAX25Y25*%
%MOIN*%
G70*
G04*
G04 #@! TF.SameCoordinates,E158979E-E8F5-4E42-ABDF-87379EC9601E*
G04*
G04*
G04 #@! TF.FilePolarity,Positive*
G04*
G01*
G75*
%ADD11C,0.00787*%
%ADD99C,0.00394*%
G36*
X261904Y304266D02*
X261946Y304262D01*
X261984Y304257D01*
X262023Y304250D01*
X262057Y304239D01*
X262092Y304229D01*
X262121Y304219D01*
X262150Y304208D01*
X262176Y304195D01*
X262197Y304184D01*
X262217Y304175D01*
X262234Y304166D01*
X262247Y304157D01*
X262256Y304151D01*
X262261Y304148D01*
X262263Y304146D01*
X262294Y304122D01*
X262321Y304095D01*
X262349Y304068D01*
X262372Y304038D01*
X262394Y304009D01*
X262414Y303980D01*
X262432Y303951D01*
X262449Y303922D01*
X262463Y303896D01*
X262474Y303871D01*
X262485Y303849D01*
X262492Y303829D01*
X262499Y303813D01*
X262503Y303802D01*
X262507Y303793D01*
Y303791D01*
X262521Y303825D01*
X262536Y303856D01*
X262552Y303886D01*
X262569Y303915D01*
X262585Y303938D01*
X262601Y303962D01*
X262618Y303982D01*
X262634Y304002D01*
X262649Y304018D01*
X262663Y304031D01*
X262674Y304044D01*
X262685Y304053D01*
X262694Y304062D01*
X262702Y304068D01*
X262705Y304069D01*
X262707Y304071D01*
X262733Y304088D01*
X262758Y304102D01*
X262784Y304115D01*
X262809Y304126D01*
X262860Y304142D01*
X262907Y304153D01*
X262929Y304157D01*
X262949Y304159D01*
X262967Y304160D01*
X262982Y304162D01*
X262995Y304164D01*
X263004D01*
X263009D01*
X263011D01*
X263062Y304162D01*
X263109Y304155D01*
X263157Y304146D01*
X263200Y304133D01*
X263240Y304117D01*
X263279Y304100D01*
X263315Y304082D01*
X263348Y304064D01*
X263377Y304044D01*
X263402Y304026D01*
X263424Y304009D01*
X263442Y303993D01*
X263457Y303980D01*
X263468Y303971D01*
X263475Y303964D01*
X263477Y303962D01*
X263511Y303924D01*
X263541Y303882D01*
X263566Y303838D01*
X263588Y303795D01*
X263608Y303751D01*
X263622Y303707D01*
X263635Y303663D01*
X263646Y303622D01*
X263653Y303583D01*
X263659Y303547D01*
X263664Y303514D01*
X263666Y303487D01*
X263668Y303463D01*
X263670Y303447D01*
Y303432D01*
X263668Y303372D01*
X263663Y303316D01*
X263653Y303261D01*
X263641Y303212D01*
X263626Y303165D01*
X263610Y303121D01*
X263593Y303081D01*
X263577Y303046D01*
X263559Y303014D01*
X263542Y302987D01*
X263526Y302963D01*
X263511Y302943D01*
X263500Y302926D01*
X263490Y302916D01*
X263484Y302908D01*
X263482Y302906D01*
X263446Y302872D01*
X263409Y302841D01*
X263369Y302815D01*
X263331Y302794D01*
X263291Y302773D01*
X263253Y302757D01*
X263217Y302744D01*
X263180Y302735D01*
X263147Y302726D01*
X263117Y302721D01*
X263089Y302715D01*
X263066Y302713D01*
X263047Y302712D01*
X263033Y302710D01*
X263024D01*
X263020D01*
X262987Y302712D01*
X262954Y302713D01*
X262895Y302724D01*
X262867Y302732D01*
X262842Y302739D01*
X262818Y302748D01*
X262796Y302757D01*
X262776Y302764D01*
X262758Y302773D01*
X262743Y302781D01*
X262731Y302788D01*
X262720Y302794D01*
X262713Y302799D01*
X262709Y302801D01*
X262707Y302803D01*
X262683Y302821D01*
X262662Y302841D01*
X262621Y302886D01*
X262587Y302934D01*
X262558Y302981D01*
X262547Y303003D01*
X262536Y303023D01*
X262527Y303041D01*
X262520Y303058D01*
X262514Y303070D01*
X262510Y303079D01*
X262507Y303087D01*
Y303088D01*
X262494Y303046D01*
X262479Y303007D01*
X262463Y302970D01*
X262447Y302936D01*
X262429Y302903D01*
X262408Y302874D01*
X262390Y302848D01*
X262372Y302823D01*
X262354Y302803D01*
X262338Y302784D01*
X262321Y302768D01*
X262308Y302755D01*
X262298Y302744D01*
X262288Y302737D01*
X262283Y302733D01*
X262281Y302732D01*
X262248Y302710D01*
X262216Y302692D01*
X262181Y302675D01*
X262146Y302661D01*
X262112Y302648D01*
X262079Y302639D01*
X262045Y302630D01*
X262014Y302624D01*
X261984Y302619D01*
X261957Y302615D01*
X261932Y302612D01*
X261912Y302610D01*
X261894Y302608D01*
X261881D01*
X261874D01*
X261870D01*
X261810Y302610D01*
X261752Y302617D01*
X261697Y302630D01*
X261644Y302644D01*
X261597Y302661D01*
X261551Y302681D01*
X261509Y302701D01*
X261471Y302723D01*
X261437Y302743D01*
X261407Y302763D01*
X261382Y302783D01*
X261360Y302801D01*
X261342Y302814D01*
X261331Y302826D01*
X261322Y302834D01*
X261320Y302835D01*
X261282Y302881D01*
X261247Y302926D01*
X261218Y302976D01*
X261193Y303027D01*
X261171Y303078D01*
X261155Y303127D01*
X261140Y303176D01*
X261127Y303223D01*
X261118Y303267D01*
X261111Y303309D01*
X261107Y303345D01*
X261104Y303376D01*
X261102Y303401D01*
X261100Y303421D01*
Y303438D01*
X261102Y303505D01*
X261109Y303571D01*
X261120Y303631D01*
X261135Y303689D01*
X261151Y303742D01*
X261169Y303791D01*
X261189Y303836D01*
X261209Y303878D01*
X261229Y303915D01*
X261249Y303946D01*
X261267Y303975D01*
X261284Y303997D01*
X261298Y304015D01*
X261309Y304028D01*
X261316Y304037D01*
X261318Y304038D01*
X261360Y304079D01*
X261406Y304115D01*
X261449Y304144D01*
X261497Y304171D01*
X261542Y304193D01*
X261586Y304211D01*
X261630Y304228D01*
X261671Y304239D01*
X261712Y304248D01*
X261748Y304255D01*
X261779Y304260D01*
X261806Y304264D01*
X261830Y304266D01*
X261846Y304268D01*
X261857D01*
X261861D01*
X261904Y304266D01*
D02*
G37*
G36*
X262024Y301995D02*
X261966Y301980D01*
X261913Y301964D01*
X261862Y301945D01*
X261817Y301924D01*
X261773Y301904D01*
X261733Y301880D01*
X261699Y301858D01*
X261666Y301836D01*
X261639Y301816D01*
X261613Y301796D01*
X261593Y301778D01*
X261577Y301762D01*
X261562Y301749D01*
X261553Y301740D01*
X261548Y301732D01*
X261546Y301731D01*
X261519Y301693D01*
X261493Y301654D01*
X261471Y301614D01*
X261453Y301574D01*
X261438Y301534D01*
X261426Y301494D01*
X261415Y301456D01*
X261406Y301419D01*
X261398Y301387D01*
X261395Y301354D01*
X261391Y301327D01*
X261387Y301303D01*
Y301283D01*
X261386Y301268D01*
Y301256D01*
X261387Y301214D01*
X261391Y301172D01*
X261397Y301132D01*
X261404Y301092D01*
X261413Y301056D01*
X261424Y301019D01*
X261433Y300986D01*
X261446Y300955D01*
X261457Y300928D01*
X261466Y300903D01*
X261477Y300881D01*
X261486Y300863D01*
X261493Y300848D01*
X261498Y300837D01*
X261502Y300830D01*
X261504Y300828D01*
X261528Y300792D01*
X261553Y300759D01*
X261580Y300728D01*
X261610Y300699D01*
X261639Y300673D01*
X261670Y300650D01*
X261699Y300628D01*
X261726Y300608D01*
X261753Y300591D01*
X261779Y300577D01*
X261803Y300564D01*
X261823Y300555D01*
X261839Y300546D01*
X261850Y300540D01*
X261859Y300539D01*
X261861Y300537D01*
X261906Y300520D01*
X261953Y300506D01*
X262001Y300493D01*
X262050Y300484D01*
X262143Y300466D01*
X262188Y300460D01*
X262232Y300455D01*
X262270Y300451D01*
X262307Y300449D01*
X262339Y300448D01*
X262367Y300446D01*
X262390Y300444D01*
X262407D01*
X262418D01*
X262421D01*
X262469Y300446D01*
X262514Y300448D01*
X262601Y300457D01*
X262643Y300462D01*
X262683Y300469D01*
X262722Y300477D01*
X262756Y300484D01*
X262789Y300491D01*
X262818Y300497D01*
X262843Y300504D01*
X262865Y300510D01*
X262882Y300515D01*
X262895Y300519D01*
X262904Y300522D01*
X262905D01*
X262949Y300539D01*
X262989Y300557D01*
X263027Y300577D01*
X263062Y300599D01*
X263096Y300621D01*
X263127Y300642D01*
X263155Y300666D01*
X263180Y300688D01*
X263202Y300710D01*
X263222Y300730D01*
X263239Y300748D01*
X263253Y300764D01*
X263264Y300777D01*
X263273Y300786D01*
X263277Y300793D01*
X263279Y300795D01*
X263304Y300833D01*
X263324Y300873D01*
X263344Y300914D01*
X263360Y300954D01*
X263373Y300995D01*
X263384Y301035D01*
X263393Y301074D01*
X263400Y301112D01*
X263408Y301147D01*
X263411Y301179D01*
X263415Y301208D01*
X263417Y301234D01*
X263419Y301254D01*
Y301281D01*
X263417Y301328D01*
X263413Y301372D01*
X263408Y301414D01*
X263399Y301454D01*
X263389Y301490D01*
X263379Y301525D01*
X263368Y301556D01*
X263357Y301585D01*
X263344Y301611D01*
X263333Y301634D01*
X263322Y301654D01*
X263313Y301671D01*
X263304Y301683D01*
X263299Y301693D01*
X263295Y301698D01*
X263293Y301700D01*
X263268Y301731D01*
X263240Y301760D01*
X263209Y301785D01*
X263178Y301811D01*
X263144Y301834D01*
X263111Y301854D01*
X263078Y301874D01*
X263046Y301891D01*
X263015Y301905D01*
X262985Y301920D01*
X262960Y301931D01*
X262938Y301940D01*
X262918Y301947D01*
X262905Y301953D01*
X262896Y301955D01*
X262893Y301956D01*
X262969Y302284D01*
X263033Y302264D01*
X263093Y302238D01*
X263149Y302213D01*
X263202Y302184D01*
X263249Y302155D01*
X263295Y302126D01*
X263335Y302095D01*
X263371Y302066D01*
X263404Y302036D01*
X263431Y302011D01*
X263457Y301987D01*
X263475Y301965D01*
X263491Y301949D01*
X263502Y301935D01*
X263510Y301927D01*
X263511Y301924D01*
X263546Y301874D01*
X263575Y301823D01*
X263601Y301769D01*
X263622Y301716D01*
X263643Y301663D01*
X263657Y301611D01*
X263670Y301560D01*
X263681Y301511D01*
X263688Y301463D01*
X263693Y301421D01*
X263699Y301385D01*
X263701Y301352D01*
X263703Y301325D01*
X263704Y301314D01*
Y301288D01*
X263703Y301226D01*
X263697Y301167D01*
X263690Y301108D01*
X263681Y301052D01*
X263670Y300999D01*
X263655Y300948D01*
X263643Y300901D01*
X263628Y300857D01*
X263613Y300819D01*
X263601Y300782D01*
X263588Y300751D01*
X263575Y300726D01*
X263566Y300704D01*
X263559Y300690D01*
X263553Y300680D01*
X263551Y300677D01*
X263521Y300626D01*
X263488Y300579D01*
X263453Y300535D01*
X263417Y300493D01*
X263380Y300455D01*
X263344Y300420D01*
X263306Y300388D01*
X263271Y300360D01*
X263239Y300335D01*
X263206Y300311D01*
X263178Y300293D01*
X263155Y300276D01*
X263133Y300266D01*
X263118Y300256D01*
X263109Y300251D01*
X263106Y300249D01*
X263049Y300224D01*
X262993Y300200D01*
X262934Y300180D01*
X262876Y300164D01*
X262818Y300149D01*
X262760Y300136D01*
X262705Y300127D01*
X262654Y300118D01*
X262605Y300113D01*
X262560Y300107D01*
X262520Y300105D01*
X262485Y300102D01*
X262458D01*
X262447Y300100D01*
X262438D01*
X262430D01*
X262425D01*
X262421D01*
X262420D01*
X262352Y300102D01*
X262287Y300105D01*
X262223Y300113D01*
X262163Y300120D01*
X262103Y300131D01*
X262048Y300142D01*
X261995Y300155D01*
X261946Y300167D01*
X261903Y300178D01*
X261862Y300191D01*
X261828Y300202D01*
X261799Y300213D01*
X261775Y300220D01*
X261759Y300227D01*
X261748Y300231D01*
X261746Y300233D01*
X261744D01*
X261688Y300258D01*
X261633Y300287D01*
X261584Y300318D01*
X261537Y300349D01*
X261495Y300382D01*
X261455Y300415D01*
X261420Y300446D01*
X261387Y300477D01*
X261358Y300506D01*
X261335Y300533D01*
X261313Y300557D01*
X261297Y300579D01*
X261284Y300597D01*
X261273Y300610D01*
X261267Y300617D01*
X261266Y300621D01*
X261237Y300670D01*
X261211Y300722D01*
X261189Y300777D01*
X261169Y300832D01*
X261155Y300886D01*
X261140Y300943D01*
X261129Y300995D01*
X261120Y301048D01*
X261115Y301096D01*
X261109Y301141D01*
X261105Y301181D01*
X261102Y301216D01*
Y301243D01*
X261100Y301256D01*
Y301283D01*
X261102Y301356D01*
X261109Y301425D01*
X261120Y301490D01*
X261133Y301554D01*
X261149Y301612D01*
X261167Y301667D01*
X261187Y301718D01*
X261207Y301763D01*
X261227Y301805D01*
X261247Y301842D01*
X261266Y301874D01*
X261282Y301900D01*
X261295Y301922D01*
X261306Y301936D01*
X261313Y301945D01*
X261315Y301949D01*
X261358Y301998D01*
X261404Y302044D01*
X261453Y302086D01*
X261504Y302124D01*
X261557Y302158D01*
X261608Y302189D01*
X261659Y302217D01*
X261710Y302240D01*
X261757Y302262D01*
X261801Y302280D01*
X261839Y302295D01*
X261874Y302308D01*
X261901Y302317D01*
X261913Y302320D01*
X261923Y302322D01*
X261930Y302324D01*
X261935Y302326D01*
X261939Y302328D01*
X261941D01*
X262024Y301995D01*
D02*
G37*
G36*
X335961Y345637D02*
X336023Y345630D01*
X336083Y345617D01*
X336139Y345604D01*
X336190Y345586D01*
X336239Y345566D01*
X336283Y345546D01*
X336323Y345526D01*
X336360Y345504D01*
X336392Y345484D01*
X336420Y345464D01*
X336441Y345448D01*
X336460Y345433D01*
X336472Y345420D01*
X336481Y345413D01*
X336483Y345411D01*
X336523Y345368D01*
X336560Y345322D01*
X336589Y345275D01*
X336616Y345228D01*
X336638Y345180D01*
X336656Y345135D01*
X336672Y345089D01*
X336683Y345047D01*
X336693Y345007D01*
X336700Y344969D01*
X336705Y344936D01*
X336709Y344907D01*
X336711Y344885D01*
X336713Y344867D01*
Y344853D01*
X336711Y344807D01*
X336705Y344760D01*
X336698Y344716D01*
X336687Y344672D01*
X336676Y344632D01*
X336663Y344592D01*
X336649Y344556D01*
X336634Y344521D01*
X336618Y344490D01*
X336605Y344461D01*
X336591Y344438D01*
X336580Y344418D01*
X336569Y344399D01*
X336561Y344389D01*
X336556Y344379D01*
X336554Y344377D01*
X337233Y344512D01*
Y345520D01*
X337528D01*
Y344267D01*
X336234Y344023D01*
X336196Y344314D01*
X336234Y344341D01*
X336268Y344372D01*
X336298Y344403D01*
X336323Y344432D01*
X336343Y344459D01*
X336358Y344481D01*
X336363Y344490D01*
X336367Y344496D01*
X336370Y344499D01*
Y344501D01*
X336394Y344547D01*
X336410Y344594D01*
X336423Y344640D01*
X336431Y344682D01*
X336434Y344702D01*
X336436Y344718D01*
X336438Y344734D01*
Y344747D01*
X336440Y344758D01*
Y344773D01*
X336438Y344816D01*
X336432Y344858D01*
X336425Y344898D01*
X336416Y344936D01*
X336405Y344971D01*
X336390Y345002D01*
X336378Y345031D01*
X336363Y345058D01*
X336349Y345082D01*
X336336Y345102D01*
X336323Y345120D01*
X336310Y345135D01*
X336301Y345147D01*
X336294Y345155D01*
X336288Y345160D01*
X336287Y345162D01*
X336258Y345187D01*
X336225Y345211D01*
X336192Y345231D01*
X336157Y345248D01*
X336121Y345262D01*
X336087Y345275D01*
X336054Y345284D01*
X336021Y345293D01*
X335988Y345299D01*
X335961Y345304D01*
X335934Y345307D01*
X335912Y345309D01*
X335894D01*
X335879Y345311D01*
X335872D01*
X335868D01*
X335817Y345309D01*
X335770Y345304D01*
X335724Y345297D01*
X335681Y345287D01*
X335641Y345275D01*
X335604Y345262D01*
X335571Y345248D01*
X335541Y345235D01*
X335513Y345220D01*
X335490Y345206D01*
X335470Y345193D01*
X335453Y345180D01*
X335440Y345171D01*
X335430Y345164D01*
X335424Y345158D01*
X335422Y345157D01*
X335393Y345127D01*
X335368Y345096D01*
X335344Y345064D01*
X335326Y345033D01*
X335309Y345000D01*
X335295Y344969D01*
X335284Y344938D01*
X335277Y344909D01*
X335269Y344882D01*
X335264Y344856D01*
X335260Y344832D01*
X335257Y344814D01*
Y344798D01*
X335255Y344787D01*
Y344776D01*
X335257Y344742D01*
X335260Y344709D01*
X335266Y344678D01*
X335273Y344649D01*
X335282Y344620D01*
X335293Y344594D01*
X335302Y344569D01*
X335315Y344547D01*
X335326Y344527D01*
X335335Y344510D01*
X335346Y344494D01*
X335355Y344481D01*
X335362Y344470D01*
X335368Y344463D01*
X335371Y344459D01*
X335373Y344458D01*
X335397Y344434D01*
X335422Y344412D01*
X335450Y344394D01*
X335479Y344376D01*
X335508Y344361D01*
X335539Y344348D01*
X335595Y344327D01*
X335622Y344318D01*
X335648Y344310D01*
X335671Y344305D01*
X335692Y344299D01*
X335708Y344296D01*
X335719Y344294D01*
X335728Y344292D01*
X335730D01*
X335702Y343968D01*
X335644Y343975D01*
X335590Y343988D01*
X335537Y344003D01*
X335488Y344019D01*
X335442Y344039D01*
X335400Y344061D01*
X335362Y344081D01*
X335328Y344103D01*
X335297Y344125D01*
X335269Y344145D01*
X335246Y344165D01*
X335226Y344181D01*
X335211Y344196D01*
X335200Y344206D01*
X335193Y344214D01*
X335191Y344215D01*
X335158Y344257D01*
X335127Y344301D01*
X335102Y344348D01*
X335080Y344394D01*
X335062Y344441D01*
X335047Y344489D01*
X335034Y344534D01*
X335024Y344578D01*
X335016Y344618D01*
X335011Y344656D01*
X335005Y344691D01*
X335004Y344720D01*
X335002Y344743D01*
X335000Y344761D01*
Y344776D01*
X335004Y344853D01*
X335013Y344925D01*
X335029Y344993D01*
X335047Y345056D01*
X335071Y345116D01*
X335096Y345171D01*
X335124Y345220D01*
X335153Y345266D01*
X335182Y345306D01*
X335209Y345340D01*
X335235Y345369D01*
X335258Y345395D01*
X335278Y345413D01*
X335293Y345428D01*
X335302Y345435D01*
X335306Y345439D01*
X335353Y345473D01*
X335402Y345504D01*
X335451Y345531D01*
X335502Y345555D01*
X335551Y345573D01*
X335601Y345590D01*
X335648Y345602D01*
X335693Y345613D01*
X335735Y345622D01*
X335773Y345628D01*
X335808Y345633D01*
X335839Y345635D01*
X335863Y345637D01*
X335881Y345639D01*
X335886D01*
X335892D01*
X335894D01*
X335895D01*
X335961Y345637D01*
D02*
G37*
G36*
X337570Y342976D02*
X337539Y342960D01*
X337508Y342942D01*
X337448Y342900D01*
X337391Y342854D01*
X337364Y342830D01*
X337339Y342809D01*
X337317Y342787D01*
X337295Y342767D01*
X337277Y342749D01*
X337260Y342732D01*
X337248Y342720D01*
X337239Y342710D01*
X337233Y342703D01*
X337231Y342701D01*
X337169Y342627D01*
X337113Y342548D01*
X337062Y342472D01*
X337040Y342436D01*
X337018Y342401D01*
X337000Y342370D01*
X336984Y342341D01*
X336969Y342314D01*
X336958Y342292D01*
X336949Y342274D01*
X336942Y342259D01*
X336938Y342252D01*
X336936Y342248D01*
X336638D01*
X336660Y342303D01*
X336685Y342359D01*
X336711Y342414D01*
X336736Y342465D01*
X336749Y342487D01*
X336760Y342508D01*
X336771Y342527D01*
X336780Y342541D01*
X336785Y342554D01*
X336791Y342565D01*
X336794Y342570D01*
X336796Y342572D01*
X336836Y342638D01*
X336856Y342667D01*
X336875Y342696D01*
X336895Y342721D01*
X336911Y342745D01*
X336929Y342767D01*
X336944Y342789D01*
X336958Y342805D01*
X336971Y342821D01*
X336984Y342836D01*
X336993Y342847D01*
X337000Y342856D01*
X337006Y342862D01*
X337009Y342865D01*
X337011Y342867D01*
X335042D01*
Y343176D01*
X337570D01*
Y342976D01*
D02*
G37*
G36*
X335925Y341394D02*
X335866Y341380D01*
X335813Y341364D01*
X335763Y341345D01*
X335717Y341324D01*
X335673Y341303D01*
X335633Y341280D01*
X335599Y341258D01*
X335566Y341236D01*
X335539Y341216D01*
X335513Y341196D01*
X335493Y341178D01*
X335477Y341162D01*
X335462Y341149D01*
X335453Y341140D01*
X335448Y341132D01*
X335446Y341131D01*
X335419Y341092D01*
X335393Y341054D01*
X335371Y341014D01*
X335353Y340974D01*
X335338Y340934D01*
X335326Y340894D01*
X335315Y340856D01*
X335306Y340819D01*
X335298Y340787D01*
X335295Y340754D01*
X335291Y340727D01*
X335287Y340703D01*
Y340683D01*
X335286Y340668D01*
Y340656D01*
X335287Y340614D01*
X335291Y340572D01*
X335297Y340532D01*
X335304Y340492D01*
X335313Y340455D01*
X335324Y340419D01*
X335333Y340386D01*
X335346Y340355D01*
X335357Y340328D01*
X335366Y340303D01*
X335377Y340281D01*
X335386Y340263D01*
X335393Y340248D01*
X335399Y340237D01*
X335402Y340230D01*
X335404Y340228D01*
X335428Y340192D01*
X335453Y340159D01*
X335480Y340128D01*
X335509Y340099D01*
X335539Y340073D01*
X335570Y340050D01*
X335599Y340028D01*
X335626Y340008D01*
X335653Y339991D01*
X335679Y339977D01*
X335702Y339964D01*
X335722Y339955D01*
X335739Y339946D01*
X335750Y339940D01*
X335759Y339938D01*
X335761Y339937D01*
X335806Y339920D01*
X335854Y339906D01*
X335901Y339893D01*
X335950Y339884D01*
X336043Y339866D01*
X336088Y339860D01*
X336132Y339855D01*
X336170Y339851D01*
X336207Y339849D01*
X336239Y339848D01*
X336267Y339846D01*
X336290Y339844D01*
X336307D01*
X336318D01*
X336321D01*
X336369Y339846D01*
X336414Y339848D01*
X336502Y339857D01*
X336543Y339862D01*
X336583Y339869D01*
X336622Y339877D01*
X336656Y339884D01*
X336689Y339891D01*
X336718Y339897D01*
X336743Y339904D01*
X336765Y339909D01*
X336782Y339915D01*
X336794Y339918D01*
X336804Y339922D01*
X336805D01*
X336849Y339938D01*
X336889Y339957D01*
X336927Y339977D01*
X336962Y339999D01*
X336997Y340020D01*
X337027Y340042D01*
X337055Y340066D01*
X337080Y340088D01*
X337102Y340110D01*
X337122Y340130D01*
X337139Y340148D01*
X337153Y340164D01*
X337164Y340177D01*
X337173Y340186D01*
X337177Y340193D01*
X337178Y340195D01*
X337204Y340233D01*
X337224Y340273D01*
X337244Y340314D01*
X337260Y340353D01*
X337273Y340395D01*
X337284Y340435D01*
X337293Y340474D01*
X337300Y340512D01*
X337308Y340546D01*
X337311Y340579D01*
X337315Y340608D01*
X337317Y340634D01*
X337319Y340654D01*
Y340681D01*
X337317Y340728D01*
X337313Y340772D01*
X337308Y340814D01*
X337299Y340854D01*
X337290Y340890D01*
X337279Y340925D01*
X337268Y340956D01*
X337257Y340985D01*
X337244Y341010D01*
X337233Y341034D01*
X337222Y341054D01*
X337213Y341071D01*
X337204Y341083D01*
X337198Y341092D01*
X337195Y341098D01*
X337193Y341100D01*
X337168Y341131D01*
X337140Y341160D01*
X337109Y341185D01*
X337078Y341211D01*
X337044Y341234D01*
X337011Y341254D01*
X336978Y341274D01*
X336946Y341291D01*
X336915Y341305D01*
X336885Y341320D01*
X336860Y341331D01*
X336838Y341340D01*
X336818Y341347D01*
X336805Y341353D01*
X336796Y341354D01*
X336793Y341356D01*
X336869Y341684D01*
X336933Y341664D01*
X336993Y341638D01*
X337049Y341613D01*
X337102Y341584D01*
X337149Y341555D01*
X337195Y341526D01*
X337235Y341495D01*
X337271Y341465D01*
X337304Y341436D01*
X337331Y341411D01*
X337357Y341387D01*
X337375Y341365D01*
X337391Y341349D01*
X337402Y341335D01*
X337410Y341327D01*
X337411Y341324D01*
X337446Y341274D01*
X337475Y341224D01*
X337501Y341169D01*
X337523Y341116D01*
X337543Y341063D01*
X337557Y341010D01*
X337570Y340960D01*
X337581Y340910D01*
X337588Y340863D01*
X337593Y340821D01*
X337599Y340785D01*
X337601Y340752D01*
X337603Y340725D01*
X337604Y340714D01*
Y340688D01*
X337603Y340627D01*
X337597Y340566D01*
X337590Y340508D01*
X337581Y340452D01*
X337570Y340399D01*
X337555Y340348D01*
X337543Y340301D01*
X337528Y340257D01*
X337513Y340219D01*
X337501Y340182D01*
X337488Y340152D01*
X337475Y340126D01*
X337466Y340104D01*
X337459Y340090D01*
X337453Y340080D01*
X337452Y340077D01*
X337421Y340026D01*
X337388Y339979D01*
X337353Y339935D01*
X337317Y339893D01*
X337280Y339855D01*
X337244Y339820D01*
X337206Y339788D01*
X337171Y339760D01*
X337139Y339735D01*
X337106Y339711D01*
X337078Y339693D01*
X337055Y339676D01*
X337033Y339666D01*
X337018Y339656D01*
X337009Y339651D01*
X337006Y339649D01*
X336949Y339624D01*
X336893Y339600D01*
X336835Y339580D01*
X336776Y339564D01*
X336718Y339549D01*
X336660Y339536D01*
X336605Y339527D01*
X336554Y339518D01*
X336505Y339513D01*
X336460Y339507D01*
X336420Y339505D01*
X336385Y339502D01*
X336358D01*
X336347Y339500D01*
X336338D01*
X336330D01*
X336325D01*
X336321D01*
X336319D01*
X336252Y339502D01*
X336187Y339505D01*
X336123Y339513D01*
X336063Y339520D01*
X336003Y339531D01*
X335948Y339542D01*
X335895Y339555D01*
X335846Y339567D01*
X335803Y339578D01*
X335763Y339591D01*
X335728Y339602D01*
X335699Y339613D01*
X335675Y339620D01*
X335659Y339627D01*
X335648Y339631D01*
X335646Y339633D01*
X335644D01*
X335588Y339658D01*
X335533Y339687D01*
X335484Y339718D01*
X335437Y339749D01*
X335395Y339782D01*
X335355Y339815D01*
X335320Y339846D01*
X335287Y339877D01*
X335258Y339906D01*
X335235Y339933D01*
X335213Y339957D01*
X335196Y339979D01*
X335184Y339997D01*
X335173Y340009D01*
X335167Y340017D01*
X335166Y340020D01*
X335137Y340070D01*
X335111Y340122D01*
X335089Y340177D01*
X335069Y340232D01*
X335055Y340286D01*
X335040Y340343D01*
X335029Y340395D01*
X335020Y340448D01*
X335015Y340495D01*
X335009Y340541D01*
X335005Y340581D01*
X335002Y340616D01*
Y340643D01*
X335000Y340656D01*
Y340683D01*
X335002Y340756D01*
X335009Y340825D01*
X335020Y340890D01*
X335033Y340954D01*
X335049Y341012D01*
X335067Y341067D01*
X335087Y341118D01*
X335107Y341163D01*
X335127Y341205D01*
X335147Y341242D01*
X335166Y341274D01*
X335182Y341300D01*
X335195Y341322D01*
X335206Y341336D01*
X335213Y341345D01*
X335215Y341349D01*
X335258Y341398D01*
X335304Y341444D01*
X335353Y341486D01*
X335404Y341524D01*
X335457Y341558D01*
X335508Y341589D01*
X335559Y341617D01*
X335610Y341640D01*
X335657Y341662D01*
X335701Y341680D01*
X335739Y341695D01*
X335773Y341708D01*
X335801Y341717D01*
X335813Y341720D01*
X335823Y341722D01*
X335830Y341724D01*
X335835Y341726D01*
X335839Y341728D01*
X335841D01*
X335925Y341394D01*
D02*
G37*
G36*
X298336Y305666D02*
X298416Y305662D01*
X298489Y305659D01*
X298558Y305651D01*
X298622Y305642D01*
X298678Y305633D01*
X298731Y305624D01*
X298778Y305615D01*
X298820Y305604D01*
X298856Y305595D01*
X298887Y305586D01*
X298913Y305577D01*
X298933Y305570D01*
X298948Y305566D01*
X298955Y305562D01*
X298958Y305560D01*
X299004Y305540D01*
X299046Y305517D01*
X299084Y305493D01*
X299120Y305468D01*
X299155Y305442D01*
X299186Y305417D01*
X299215Y305391D01*
X299240Y305366D01*
X299262Y305342D01*
X299282Y305322D01*
X299299Y305302D01*
X299313Y305284D01*
X299322Y305271D01*
X299331Y305260D01*
X299335Y305253D01*
X299337Y305251D01*
X299361Y305213D01*
X299381Y305174D01*
X299399Y305135D01*
X299413Y305096D01*
X299426Y305058D01*
X299437Y305020D01*
X299446Y304985D01*
X299453Y304951D01*
X299459Y304920D01*
X299463Y304892D01*
X299466Y304867D01*
X299468Y304845D01*
X299470Y304827D01*
Y304803D01*
X299468Y304741D01*
X299459Y304681D01*
X299448Y304625D01*
X299433Y304572D01*
X299415Y304521D01*
X299395Y304474D01*
X299375Y304432D01*
X299353Y304392D01*
X299331Y304357D01*
X299310Y304326D01*
X299290Y304299D01*
X299271Y304277D01*
X299257Y304261D01*
X299246Y304248D01*
X299237Y304239D01*
X299235Y304237D01*
X299189Y304197D01*
X299142Y304163D01*
X299091Y304134D01*
X299040Y304106D01*
X298989Y304084D01*
X298938Y304066D01*
X298887Y304052D01*
X298840Y304041D01*
X298795Y304030D01*
X298753Y304024D01*
X298714Y304019D01*
X298682Y304015D01*
X298654Y304013D01*
X298643D01*
X298634Y304012D01*
X298627D01*
X298622D01*
X298620D01*
X298618D01*
X298551Y304013D01*
X298487Y304021D01*
X298425Y304032D01*
X298369Y304044D01*
X298316Y304061D01*
X298267Y304079D01*
X298221Y304099D01*
X298181Y304119D01*
X298145Y304139D01*
X298112Y304159D01*
X298085Y304177D01*
X298063Y304194D01*
X298045Y304206D01*
X298032Y304217D01*
X298023Y304224D01*
X298021Y304226D01*
X297981Y304268D01*
X297947Y304312D01*
X297917Y304356D01*
X297890Y304401D01*
X297868Y304445D01*
X297850Y304488D01*
X297835Y304532D01*
X297825Y304572D01*
X297814Y304610D01*
X297808Y304645D01*
X297803Y304678D01*
X297799Y304703D01*
X297797Y304725D01*
X297795Y304741D01*
Y304756D01*
X297797Y304790D01*
X297799Y304825D01*
X297810Y304889D01*
X297825Y304949D01*
X297832Y304974D01*
X297841Y305000D01*
X297850Y305024D01*
X297857Y305044D01*
X297865Y305060D01*
X297872Y305076D01*
X297877Y305087D01*
X297883Y305096D01*
X297885Y305102D01*
X297886Y305104D01*
X297923Y305162D01*
X297963Y305211D01*
X297983Y305235D01*
X298003Y305255D01*
X298021Y305275D01*
X298041Y305291D01*
X298058Y305307D01*
X298074Y305320D01*
X298088Y305331D01*
X298101Y305342D01*
X298112Y305349D01*
X298119Y305355D01*
X298125Y305357D01*
X298127Y305358D01*
X298112D01*
X298099D01*
X298088D01*
X298079D01*
X298074D01*
X298068D01*
X298067D01*
X298065D01*
X297994Y305357D01*
X297925Y305351D01*
X297861Y305344D01*
X297830Y305338D01*
X297803Y305335D01*
X297777Y305331D01*
X297755Y305326D01*
X297735Y305322D01*
X297719Y305318D01*
X297704Y305315D01*
X297695Y305313D01*
X297688Y305311D01*
X297686D01*
X297653Y305302D01*
X297621Y305293D01*
X297592Y305284D01*
X297562Y305275D01*
X297537Y305264D01*
X297513Y305255D01*
X297492Y305245D01*
X297471Y305236D01*
X297453Y305229D01*
X297437Y305220D01*
X297424Y305215D01*
X297413Y305207D01*
X297404Y305204D01*
X297399Y305200D01*
X297395Y305196D01*
X297393D01*
X297355Y305169D01*
X297320Y305140D01*
X297289Y305111D01*
X297266Y305083D01*
X297246Y305060D01*
X297231Y305040D01*
X297226Y305033D01*
X297222Y305027D01*
X297218Y305024D01*
Y305022D01*
X297197Y304980D01*
X297182Y304938D01*
X297171Y304894D01*
X297162Y304856D01*
X297158Y304821D01*
X297157Y304807D01*
Y304794D01*
X297155Y304785D01*
Y304770D01*
X297157Y304740D01*
X297158Y304710D01*
X297169Y304658D01*
X297184Y304612D01*
X297193Y304590D01*
X297202Y304572D01*
X297209Y304556D01*
X297218Y304539D01*
X297226Y304527D01*
X297233Y304518D01*
X297238Y304508D01*
X297244Y304503D01*
X297246Y304499D01*
X297248Y304498D01*
X297266Y304478D01*
X297288Y304461D01*
X297335Y304430D01*
X297386Y304405D01*
X297437Y304385D01*
X297459Y304377D01*
X297482Y304370D01*
X297502Y304365D01*
X297519Y304361D01*
X297533Y304357D01*
X297544Y304356D01*
X297551Y304354D01*
X297553D01*
X297526Y304057D01*
X297471Y304066D01*
X297421Y304077D01*
X297373Y304092D01*
X297328Y304108D01*
X297286Y304124D01*
X297249Y304144D01*
X297215Y304163D01*
X297184Y304183D01*
X297155Y304201D01*
X297131Y304219D01*
X297111Y304237D01*
X297095Y304252D01*
X297080Y304263D01*
X297071Y304274D01*
X297066Y304279D01*
X297064Y304281D01*
X297035Y304317D01*
X297009Y304356D01*
X296987Y304396D01*
X296969Y304436D01*
X296953Y304476D01*
X296940Y304516D01*
X296929Y304556D01*
X296920Y304594D01*
X296915Y304628D01*
X296909Y304661D01*
X296905Y304690D01*
X296902Y304716D01*
Y304736D01*
X296900Y304752D01*
Y304765D01*
X296902Y304816D01*
X296907Y304865D01*
X296915Y304912D01*
X296924Y304958D01*
X296935Y305002D01*
X296947Y305040D01*
X296960Y305078D01*
X296975Y305111D01*
X296989Y305142D01*
X297002Y305169D01*
X297015Y305193D01*
X297025Y305213D01*
X297035Y305229D01*
X297044Y305240D01*
X297047Y305247D01*
X297049Y305249D01*
X297078Y305287D01*
X297111Y305322D01*
X297146Y305355D01*
X297180Y305386D01*
X297217Y305413D01*
X297253Y305440D01*
X297288Y305462D01*
X297322Y305484D01*
X297355Y305502D01*
X297386Y305519D01*
X297413Y305531D01*
X297437Y305542D01*
X297457Y305551D01*
X297471Y305557D01*
X297481Y305560D01*
X297484Y305562D01*
X297541Y305580D01*
X297599Y305597D01*
X297661Y305611D01*
X297724Y305624D01*
X297788Y305633D01*
X297854Y305642D01*
X297916Y305650D01*
X297976Y305655D01*
X298032Y305659D01*
X298085Y305662D01*
X298132Y305664D01*
X298152Y305666D01*
X298172D01*
X298190D01*
X298207Y305668D01*
X298219D01*
X298230D01*
X298239D01*
X298247D01*
X298250D01*
X298252D01*
X298336Y305666D01*
D02*
G37*
G36*
X297825Y303395D02*
X297766Y303380D01*
X297713Y303364D01*
X297662Y303345D01*
X297617Y303324D01*
X297573Y303304D01*
X297533Y303280D01*
X297499Y303258D01*
X297466Y303236D01*
X297439Y303216D01*
X297413Y303196D01*
X297393Y303178D01*
X297377Y303162D01*
X297362Y303149D01*
X297353Y303140D01*
X297348Y303133D01*
X297346Y303131D01*
X297319Y303093D01*
X297293Y303054D01*
X297271Y303014D01*
X297253Y302974D01*
X297238Y302934D01*
X297226Y302894D01*
X297215Y302856D01*
X297206Y302819D01*
X297198Y302787D01*
X297195Y302754D01*
X297191Y302727D01*
X297187Y302703D01*
Y302683D01*
X297186Y302668D01*
Y302656D01*
X297187Y302614D01*
X297191Y302572D01*
X297197Y302532D01*
X297204Y302492D01*
X297213Y302455D01*
X297224Y302419D01*
X297233Y302386D01*
X297246Y302355D01*
X297257Y302328D01*
X297266Y302303D01*
X297277Y302281D01*
X297286Y302262D01*
X297293Y302248D01*
X297299Y302237D01*
X297302Y302230D01*
X297304Y302228D01*
X297328Y302192D01*
X297353Y302159D01*
X297380Y302128D01*
X297410Y302099D01*
X297439Y302073D01*
X297470Y302050D01*
X297499Y302028D01*
X297526Y302008D01*
X297553Y301991D01*
X297579Y301977D01*
X297603Y301964D01*
X297622Y301955D01*
X297639Y301946D01*
X297650Y301940D01*
X297659Y301939D01*
X297661Y301937D01*
X297706Y301920D01*
X297754Y301906D01*
X297801Y301893D01*
X297850Y301884D01*
X297943Y301866D01*
X297988Y301860D01*
X298032Y301855D01*
X298070Y301851D01*
X298107Y301849D01*
X298139Y301848D01*
X298167Y301846D01*
X298190Y301844D01*
X298207D01*
X298218D01*
X298221D01*
X298269Y301846D01*
X298314Y301848D01*
X298401Y301857D01*
X298443Y301862D01*
X298483Y301869D01*
X298522Y301877D01*
X298556Y301884D01*
X298589Y301891D01*
X298618Y301897D01*
X298643Y301904D01*
X298665Y301909D01*
X298682Y301915D01*
X298694Y301919D01*
X298704Y301922D01*
X298705D01*
X298749Y301939D01*
X298789Y301957D01*
X298827Y301977D01*
X298862Y301999D01*
X298897Y302021D01*
X298927Y302042D01*
X298955Y302066D01*
X298980Y302088D01*
X299002Y302110D01*
X299022Y302130D01*
X299039Y302148D01*
X299053Y302164D01*
X299064Y302177D01*
X299073Y302186D01*
X299077Y302193D01*
X299078Y302195D01*
X299104Y302233D01*
X299124Y302274D01*
X299144Y302313D01*
X299160Y302354D01*
X299173Y302395D01*
X299184Y302435D01*
X299193Y302474D01*
X299200Y302512D01*
X299208Y302547D01*
X299211Y302579D01*
X299215Y302608D01*
X299217Y302634D01*
X299219Y302654D01*
Y302681D01*
X299217Y302729D01*
X299213Y302772D01*
X299208Y302814D01*
X299199Y302854D01*
X299189Y302890D01*
X299179Y302925D01*
X299168Y302956D01*
X299157Y302985D01*
X299144Y303011D01*
X299133Y303034D01*
X299122Y303054D01*
X299113Y303071D01*
X299104Y303083D01*
X299098Y303093D01*
X299095Y303098D01*
X299093Y303100D01*
X299068Y303131D01*
X299040Y303160D01*
X299009Y303185D01*
X298978Y303211D01*
X298944Y303234D01*
X298911Y303254D01*
X298878Y303274D01*
X298846Y303291D01*
X298815Y303305D01*
X298785Y303320D01*
X298760Y303331D01*
X298738Y303340D01*
X298718Y303347D01*
X298705Y303353D01*
X298696Y303355D01*
X298693Y303356D01*
X298769Y303684D01*
X298833Y303664D01*
X298893Y303639D01*
X298949Y303613D01*
X299002Y303584D01*
X299049Y303555D01*
X299095Y303526D01*
X299135Y303495D01*
X299171Y303466D01*
X299204Y303436D01*
X299231Y303411D01*
X299257Y303387D01*
X299275Y303365D01*
X299291Y303349D01*
X299302Y303334D01*
X299310Y303327D01*
X299311Y303324D01*
X299346Y303274D01*
X299375Y303223D01*
X299401Y303169D01*
X299423Y303116D01*
X299443Y303063D01*
X299457Y303011D01*
X299470Y302960D01*
X299481Y302910D01*
X299488Y302863D01*
X299494Y302821D01*
X299499Y302785D01*
X299501Y302752D01*
X299503Y302725D01*
X299504Y302714D01*
Y302688D01*
X299503Y302626D01*
X299497Y302567D01*
X299490Y302508D01*
X299481Y302452D01*
X299470Y302399D01*
X299455Y302348D01*
X299443Y302301D01*
X299428Y302257D01*
X299413Y302219D01*
X299401Y302183D01*
X299388Y302151D01*
X299375Y302126D01*
X299366Y302104D01*
X299359Y302090D01*
X299353Y302080D01*
X299352Y302077D01*
X299321Y302026D01*
X299288Y301979D01*
X299253Y301935D01*
X299217Y301893D01*
X299180Y301855D01*
X299144Y301820D01*
X299106Y301787D01*
X299071Y301760D01*
X299039Y301735D01*
X299006Y301711D01*
X298978Y301693D01*
X298955Y301677D01*
X298933Y301666D01*
X298918Y301657D01*
X298909Y301651D01*
X298906Y301649D01*
X298849Y301624D01*
X298793Y301600D01*
X298734Y301580D01*
X298676Y301564D01*
X298618Y301549D01*
X298560Y301536D01*
X298505Y301527D01*
X298454Y301518D01*
X298405Y301513D01*
X298360Y301507D01*
X298320Y301505D01*
X298285Y301502D01*
X298258D01*
X298247Y301500D01*
X298238D01*
X298230D01*
X298225D01*
X298221D01*
X298219D01*
X298152Y301502D01*
X298087Y301505D01*
X298023Y301513D01*
X297963Y301520D01*
X297903Y301531D01*
X297848Y301542D01*
X297795Y301555D01*
X297746Y301567D01*
X297703Y301578D01*
X297662Y301591D01*
X297628Y301602D01*
X297599Y301613D01*
X297575Y301620D01*
X297559Y301627D01*
X297548Y301631D01*
X297546Y301633D01*
X297544D01*
X297488Y301658D01*
X297433Y301687D01*
X297384Y301718D01*
X297337Y301749D01*
X297295Y301782D01*
X297255Y301815D01*
X297220Y301846D01*
X297187Y301877D01*
X297158Y301906D01*
X297135Y301933D01*
X297113Y301957D01*
X297096Y301979D01*
X297084Y301997D01*
X297073Y302010D01*
X297067Y302017D01*
X297066Y302021D01*
X297037Y302070D01*
X297011Y302122D01*
X296989Y302177D01*
X296969Y302232D01*
X296955Y302286D01*
X296940Y302343D01*
X296929Y302395D01*
X296920Y302448D01*
X296915Y302496D01*
X296909Y302541D01*
X296905Y302581D01*
X296902Y302616D01*
Y302643D01*
X296900Y302656D01*
Y302683D01*
X296902Y302756D01*
X296909Y302825D01*
X296920Y302890D01*
X296933Y302954D01*
X296949Y303012D01*
X296967Y303067D01*
X296987Y303118D01*
X297007Y303163D01*
X297027Y303205D01*
X297047Y303242D01*
X297066Y303274D01*
X297082Y303300D01*
X297095Y303322D01*
X297106Y303336D01*
X297113Y303345D01*
X297115Y303349D01*
X297158Y303398D01*
X297204Y303444D01*
X297253Y303486D01*
X297304Y303524D01*
X297357Y303558D01*
X297408Y303589D01*
X297459Y303617D01*
X297510Y303640D01*
X297557Y303662D01*
X297601Y303680D01*
X297639Y303695D01*
X297674Y303708D01*
X297701Y303717D01*
X297713Y303720D01*
X297723Y303722D01*
X297730Y303724D01*
X297735Y303726D01*
X297739Y303728D01*
X297741D01*
X297825Y303395D01*
D02*
G37*
G36*
X222630Y349343D02*
X222671Y349340D01*
X222711Y349334D01*
X222750Y349325D01*
X222786Y349316D01*
X222819Y349307D01*
X222850Y349294D01*
X222879Y349283D01*
X222904Y349272D01*
X222926Y349262D01*
X222944Y349251D01*
X222961Y349241D01*
X222974Y349232D01*
X222983Y349227D01*
X222988Y349223D01*
X222990Y349221D01*
X223019Y349198D01*
X223046Y349171D01*
X223070Y349143D01*
X223092Y349116D01*
X223112Y349087D01*
X223128Y349058D01*
X223145Y349029D01*
X223157Y349001D01*
X223170Y348976D01*
X223179Y348952D01*
X223188Y348930D01*
X223194Y348910D01*
X223199Y348896D01*
X223203Y348883D01*
X223205Y348876D01*
Y348874D01*
X223219Y348905D01*
X223236Y348934D01*
X223254Y348961D01*
X223270Y348987D01*
X223288Y349010D01*
X223307Y349030D01*
X223323Y349050D01*
X223339Y349067D01*
X223356Y349083D01*
X223370Y349096D01*
X223383Y349107D01*
X223394Y349116D01*
X223403Y349123D01*
X223410Y349129D01*
X223414Y349131D01*
X223416Y349132D01*
X223441Y349149D01*
X223467Y349162D01*
X223494Y349174D01*
X223520Y349183D01*
X223569Y349200D01*
X223616Y349211D01*
X223636Y349214D01*
X223656Y349216D01*
X223672Y349220D01*
X223687D01*
X223698Y349221D01*
X223707D01*
X223712D01*
X223714D01*
X223747Y349220D01*
X223778Y349218D01*
X223838Y349207D01*
X223893Y349192D01*
X223916Y349183D01*
X223940Y349176D01*
X223962Y349167D01*
X223980Y349158D01*
X223998Y349150D01*
X224011Y349143D01*
X224024Y349138D01*
X224031Y349132D01*
X224036Y349131D01*
X224038Y349129D01*
X224066Y349111D01*
X224093Y349091D01*
X224140Y349049D01*
X224182Y349005D01*
X224217Y348961D01*
X224231Y348941D01*
X224244Y348923D01*
X224255Y348907D01*
X224264Y348892D01*
X224271Y348879D01*
X224277Y348870D01*
X224278Y348865D01*
X224280Y348863D01*
X224297Y348830D01*
X224309Y348797D01*
X224322Y348765D01*
X224331Y348730D01*
X224348Y348666D01*
X224353Y348637D01*
X224359Y348608D01*
X224362Y348583D01*
X224364Y348559D01*
X224368Y348537D01*
Y348519D01*
X224370Y348504D01*
Y348484D01*
X224368Y348430D01*
X224362Y348377D01*
X224353Y348326D01*
X224342Y348279D01*
X224329Y348235D01*
X224315Y348195D01*
X224300Y348157D01*
X224284Y348122D01*
X224268Y348091D01*
X224253Y348064D01*
X224238Y348040D01*
X224226Y348020D01*
X224215Y348004D01*
X224206Y347993D01*
X224200Y347986D01*
X224198Y347984D01*
X224166Y347948D01*
X224129Y347915D01*
X224091Y347886D01*
X224051Y347860D01*
X224011Y347836D01*
X223971Y347815D01*
X223931Y347797D01*
X223893Y347780D01*
X223856Y347767D01*
X223823Y347756D01*
X223794Y347747D01*
X223767Y347740D01*
X223745Y347735D01*
X223731Y347731D01*
X223720Y347727D01*
X223718D01*
X223716D01*
X223661Y348037D01*
X223703Y348044D01*
X223742Y348053D01*
X223776Y348062D01*
X223809Y348075D01*
X223840Y348086D01*
X223867Y348100D01*
X223893Y348113D01*
X223916Y348126D01*
X223935Y348139D01*
X223953Y348149D01*
X223967Y348161D01*
X223978Y348170D01*
X223987Y348179D01*
X223995Y348184D01*
X223998Y348188D01*
X224000Y348190D01*
X224020Y348213D01*
X224038Y348237D01*
X224053Y348262D01*
X224066Y348288D01*
X224078Y348313D01*
X224087Y348337D01*
X224100Y348384D01*
X224106Y348406D01*
X224109Y348426D01*
X224111Y348444D01*
X224113Y348461D01*
X224115Y348472D01*
Y348490D01*
X224113Y348523D01*
X224109Y348555D01*
X224104Y348585D01*
X224096Y348614D01*
X224089Y348639D01*
X224078Y348665D01*
X224069Y348686D01*
X224058Y348707D01*
X224047Y348725D01*
X224038Y348741D01*
X224027Y348754D01*
X224020Y348766D01*
X224013Y348776D01*
X224007Y348781D01*
X224004Y348785D01*
X224002Y348786D01*
X223980Y348807D01*
X223958Y348825D01*
X223935Y348841D01*
X223911Y348854D01*
X223887Y348865D01*
X223864Y348874D01*
X223820Y348888D01*
X223800Y348894D01*
X223782Y348898D01*
X223763Y348899D01*
X223751Y348901D01*
X223738Y348903D01*
X223729D01*
X223723D01*
X223722D01*
X223683Y348901D01*
X223647Y348896D01*
X223612Y348888D01*
X223581Y348878D01*
X223552Y348867D01*
X223527Y348854D01*
X223503Y348839D01*
X223481Y348825D01*
X223463Y348808D01*
X223447Y348796D01*
X223434Y348781D01*
X223423Y348770D01*
X223414Y348759D01*
X223409Y348752D01*
X223405Y348746D01*
X223403Y348745D01*
X223385Y348716D01*
X223370Y348685D01*
X223356Y348654D01*
X223345Y348623D01*
X223327Y348563D01*
X223319Y348535D01*
X223314Y348508D01*
X223310Y348483D01*
X223307Y348461D01*
X223305Y348441D01*
X223303Y348423D01*
X223301Y348410D01*
Y348375D01*
X223303Y348359D01*
Y348352D01*
X223305Y348346D01*
Y348341D01*
X223034Y348306D01*
X223044Y348353D01*
X223052Y348395D01*
X223059Y348432D01*
X223063Y348464D01*
X223065Y348490D01*
X223066Y348508D01*
Y348524D01*
X223065Y348565D01*
X223061Y348601D01*
X223054Y348637D01*
X223044Y348670D01*
X223034Y348701D01*
X223023Y348730D01*
X223010Y348757D01*
X222997Y348781D01*
X222985Y348803D01*
X222972Y348823D01*
X222961Y348839D01*
X222950Y348852D01*
X222941Y348863D01*
X222934Y348872D01*
X222930Y348876D01*
X222928Y348878D01*
X222901Y348903D01*
X222873Y348923D01*
X222844Y348943D01*
X222815Y348959D01*
X222786Y348972D01*
X222757Y348983D01*
X222728Y348992D01*
X222701Y349000D01*
X222675Y349007D01*
X222651Y349010D01*
X222630Y349014D01*
X222613Y349016D01*
X222597Y349018D01*
X222586D01*
X222579D01*
X222577D01*
X222537Y349016D01*
X222497Y349010D01*
X222460Y349003D01*
X222426Y348994D01*
X222391Y348983D01*
X222362Y348970D01*
X222333Y348956D01*
X222307Y348943D01*
X222284Y348928D01*
X222264Y348914D01*
X222246Y348901D01*
X222231Y348890D01*
X222218Y348881D01*
X222211Y348874D01*
X222205Y348868D01*
X222204Y348867D01*
X222176Y348837D01*
X222155Y348808D01*
X222134Y348777D01*
X222116Y348746D01*
X222102Y348716D01*
X222089Y348685D01*
X222080Y348654D01*
X222071Y348626D01*
X222065Y348599D01*
X222060Y348575D01*
X222058Y348554D01*
X222055Y348534D01*
Y348519D01*
X222053Y348506D01*
Y348497D01*
X222055Y348463D01*
X222058Y348432D01*
X222064Y348401D01*
X222071Y348372D01*
X222080Y348344D01*
X222089Y348319D01*
X222100Y348295D01*
X222111Y348273D01*
X222120Y348253D01*
X222131Y348237D01*
X222140Y348220D01*
X222149Y348210D01*
X222156Y348199D01*
X222162Y348191D01*
X222165Y348188D01*
X222167Y348186D01*
X222191Y348162D01*
X222216Y348142D01*
X222246Y348122D01*
X222276Y348104D01*
X222338Y348073D01*
X222402Y348048D01*
X222431Y348039D01*
X222459Y348029D01*
X222482Y348022D01*
X222504Y348017D01*
X222522Y348011D01*
X222537Y348008D01*
X222544Y348006D01*
X222548D01*
X222506Y347696D01*
X222448Y347704D01*
X222393Y347715D01*
X222342Y347731D01*
X222293Y347747D01*
X222247Y347767D01*
X222205Y347787D01*
X222165Y347809D01*
X222131Y347831D01*
X222100Y347853D01*
X222073Y347873D01*
X222049Y347893D01*
X222029Y347909D01*
X222013Y347924D01*
X222002Y347935D01*
X221994Y347942D01*
X221993Y347944D01*
X221958Y347986D01*
X221927Y348031D01*
X221902Y348077D01*
X221880Y348122D01*
X221860Y348170D01*
X221843Y348215D01*
X221831Y348261D01*
X221821Y348302D01*
X221812Y348342D01*
X221807Y348379D01*
X221801Y348412D01*
X221800Y348441D01*
X221798Y348463D01*
X221796Y348481D01*
Y348495D01*
X221798Y348563D01*
X221805Y348626D01*
X221818Y348688D01*
X221832Y348745D01*
X221849Y348799D01*
X221869Y348848D01*
X221889Y348896D01*
X221911Y348938D01*
X221933Y348974D01*
X221953Y349009D01*
X221973Y349036D01*
X221989Y349060D01*
X222004Y349080D01*
X222016Y349092D01*
X222024Y349100D01*
X222025Y349103D01*
X222069Y349145D01*
X222114Y349183D01*
X222162Y349216D01*
X222209Y349243D01*
X222256Y349267D01*
X222304Y349287D01*
X222347Y349302D01*
X222391Y349314D01*
X222431Y349325D01*
X222468Y349332D01*
X222500Y349338D01*
X222530Y349342D01*
X222551Y349343D01*
X222569Y349345D01*
X222580D01*
X222584D01*
X222630Y349343D01*
D02*
G37*
G36*
X224370Y346703D02*
X224339Y346686D01*
X224308Y346668D01*
X224248Y346626D01*
X224191Y346581D01*
X224164Y346557D01*
X224138Y346535D01*
X224116Y346513D01*
X224095Y346493D01*
X224077Y346475D01*
X224060Y346459D01*
X224047Y346446D01*
X224038Y346437D01*
X224033Y346430D01*
X224031Y346428D01*
X223969Y346353D01*
X223913Y346275D01*
X223862Y346199D01*
X223840Y346162D01*
X223818Y346128D01*
X223800Y346097D01*
X223783Y346068D01*
X223769Y346040D01*
X223758Y346018D01*
X223749Y346000D01*
X223742Y345986D01*
X223738Y345978D01*
X223736Y345975D01*
X223438D01*
X223460Y346029D01*
X223485Y346086D01*
X223511Y346140D01*
X223536Y346191D01*
X223549Y346213D01*
X223560Y346235D01*
X223570Y346253D01*
X223580Y346268D01*
X223585Y346280D01*
X223590Y346291D01*
X223594Y346297D01*
X223596Y346299D01*
X223636Y346364D01*
X223656Y346393D01*
X223674Y346422D01*
X223694Y346448D01*
X223711Y346472D01*
X223729Y346493D01*
X223743Y346515D01*
X223758Y346532D01*
X223771Y346548D01*
X223783Y346563D01*
X223793Y346573D01*
X223800Y346583D01*
X223805Y346588D01*
X223809Y346592D01*
X223811Y346593D01*
X221842D01*
Y346903D01*
X224370D01*
Y346703D01*
D02*
G37*
G36*
X222724Y345121D02*
X222666Y345107D01*
X222613Y345090D01*
X222562Y345072D01*
X222517Y345050D01*
X222473Y345030D01*
X222433Y345006D01*
X222398Y344985D01*
X222366Y344963D01*
X222338Y344943D01*
X222313Y344923D01*
X222293Y344904D01*
X222276Y344888D01*
X222262Y344875D01*
X222253Y344866D01*
X222247Y344859D01*
X222246Y344857D01*
X222218Y344819D01*
X222193Y344781D01*
X222171Y344741D01*
X222153Y344701D01*
X222138Y344661D01*
X222125Y344621D01*
X222114Y344582D01*
X222105Y344546D01*
X222098Y344513D01*
X222094Y344480D01*
X222091Y344453D01*
X222087Y344429D01*
Y344409D01*
X222085Y344395D01*
Y344382D01*
X222087Y344340D01*
X222091Y344298D01*
X222096Y344258D01*
X222104Y344218D01*
X222113Y344182D01*
X222124Y344145D01*
X222133Y344113D01*
X222146Y344082D01*
X222156Y344055D01*
X222165Y344029D01*
X222176Y344007D01*
X222185Y343989D01*
X222193Y343974D01*
X222198Y343964D01*
X222202Y343956D01*
X222204Y343954D01*
X222227Y343918D01*
X222253Y343885D01*
X222280Y343854D01*
X222309Y343825D01*
X222338Y343800D01*
X222369Y343776D01*
X222398Y343754D01*
X222426Y343734D01*
X222453Y343718D01*
X222479Y343703D01*
X222502Y343690D01*
X222522Y343681D01*
X222539Y343672D01*
X222550Y343667D01*
X222559Y343665D01*
X222560Y343663D01*
X222606Y343647D01*
X222653Y343632D01*
X222701Y343620D01*
X222750Y343611D01*
X222843Y343592D01*
X222888Y343587D01*
X222932Y343581D01*
X222970Y343578D01*
X223006Y343576D01*
X223039Y343574D01*
X223066Y343572D01*
X223090Y343570D01*
X223106D01*
X223117D01*
X223121D01*
X223168Y343572D01*
X223214Y343574D01*
X223301Y343583D01*
X223343Y343589D01*
X223383Y343596D01*
X223421Y343603D01*
X223456Y343611D01*
X223489Y343618D01*
X223518Y343623D01*
X223543Y343631D01*
X223565Y343636D01*
X223581Y343641D01*
X223594Y343645D01*
X223603Y343649D01*
X223605D01*
X223649Y343665D01*
X223689Y343683D01*
X223727Y343703D01*
X223762Y343725D01*
X223796Y343747D01*
X223827Y343769D01*
X223854Y343793D01*
X223880Y343814D01*
X223902Y343836D01*
X223922Y343856D01*
X223938Y343874D01*
X223953Y343891D01*
X223964Y343903D01*
X223973Y343913D01*
X223976Y343920D01*
X223978Y343922D01*
X224004Y343960D01*
X224024Y344000D01*
X224044Y344040D01*
X224060Y344080D01*
X224073Y344122D01*
X224084Y344162D01*
X224093Y344200D01*
X224100Y344238D01*
X224107Y344273D01*
X224111Y344306D01*
X224115Y344335D01*
X224116Y344360D01*
X224118Y344380D01*
Y344408D01*
X224116Y344455D01*
X224113Y344499D01*
X224107Y344541D01*
X224098Y344581D01*
X224089Y344617D01*
X224078Y344652D01*
X224067Y344682D01*
X224057Y344712D01*
X224044Y344737D01*
X224033Y344761D01*
X224022Y344781D01*
X224013Y344797D01*
X224004Y344810D01*
X223998Y344819D01*
X223995Y344824D01*
X223993Y344826D01*
X223967Y344857D01*
X223940Y344886D01*
X223909Y344912D01*
X223878Y344937D01*
X223844Y344961D01*
X223811Y344981D01*
X223778Y345001D01*
X223745Y345017D01*
X223714Y345032D01*
X223685Y345046D01*
X223660Y345057D01*
X223638Y345066D01*
X223618Y345074D01*
X223605Y345079D01*
X223596Y345081D01*
X223592Y345083D01*
X223669Y345410D01*
X223732Y345390D01*
X223793Y345365D01*
X223849Y345339D01*
X223902Y345310D01*
X223949Y345281D01*
X223995Y345252D01*
X224035Y345221D01*
X224071Y345192D01*
X224104Y345163D01*
X224131Y345137D01*
X224157Y345114D01*
X224175Y345092D01*
X224191Y345076D01*
X224202Y345061D01*
X224209Y345054D01*
X224211Y345050D01*
X224246Y345001D01*
X224275Y344950D01*
X224300Y344895D01*
X224322Y344843D01*
X224342Y344790D01*
X224357Y344737D01*
X224370Y344686D01*
X224380Y344637D01*
X224388Y344590D01*
X224393Y344548D01*
X224399Y344511D01*
X224400Y344479D01*
X224402Y344451D01*
X224404Y344440D01*
Y344415D01*
X224402Y344353D01*
X224397Y344293D01*
X224390Y344235D01*
X224380Y344178D01*
X224370Y344126D01*
X224355Y344075D01*
X224342Y344027D01*
X224328Y343984D01*
X224313Y343945D01*
X224300Y343909D01*
X224288Y343878D01*
X224275Y343852D01*
X224266Y343831D01*
X224258Y343816D01*
X224253Y343807D01*
X224251Y343803D01*
X224220Y343752D01*
X224187Y343705D01*
X224153Y343661D01*
X224116Y343620D01*
X224080Y343581D01*
X224044Y343547D01*
X224006Y343514D01*
X223971Y343487D01*
X223938Y343461D01*
X223905Y343438D01*
X223878Y343419D01*
X223854Y343403D01*
X223833Y343392D01*
X223818Y343383D01*
X223809Y343377D01*
X223805Y343376D01*
X223749Y343350D01*
X223692Y343326D01*
X223634Y343306D01*
X223576Y343290D01*
X223518Y343276D01*
X223460Y343263D01*
X223405Y343254D01*
X223354Y343245D01*
X223305Y343239D01*
X223259Y343234D01*
X223219Y343232D01*
X223185Y343228D01*
X223157D01*
X223147Y343226D01*
X223137D01*
X223130D01*
X223125D01*
X223121D01*
X223119D01*
X223052Y343228D01*
X222986Y343232D01*
X222923Y343239D01*
X222863Y343247D01*
X222802Y343257D01*
X222748Y343268D01*
X222695Y343281D01*
X222646Y343294D01*
X222602Y343305D01*
X222562Y343317D01*
X222528Y343328D01*
X222498Y343339D01*
X222475Y343347D01*
X222459Y343354D01*
X222448Y343357D01*
X222446Y343359D01*
X222444D01*
X222388Y343385D01*
X222333Y343414D01*
X222284Y343445D01*
X222236Y343476D01*
X222195Y343509D01*
X222155Y343541D01*
X222120Y343572D01*
X222087Y343603D01*
X222058Y343632D01*
X222034Y343660D01*
X222013Y343683D01*
X221996Y343705D01*
X221984Y343723D01*
X221973Y343736D01*
X221967Y343743D01*
X221965Y343747D01*
X221936Y343796D01*
X221911Y343849D01*
X221889Y343903D01*
X221869Y343958D01*
X221854Y344013D01*
X221840Y344069D01*
X221829Y344122D01*
X221820Y344175D01*
X221814Y344222D01*
X221809Y344268D01*
X221805Y344307D01*
X221801Y344342D01*
Y344369D01*
X221800Y344382D01*
Y344409D01*
X221801Y344482D01*
X221809Y344551D01*
X221820Y344617D01*
X221832Y344681D01*
X221849Y344739D01*
X221867Y344794D01*
X221887Y344844D01*
X221907Y344890D01*
X221927Y344932D01*
X221947Y344968D01*
X221965Y345001D01*
X221982Y345026D01*
X221994Y345048D01*
X222005Y345063D01*
X222013Y345072D01*
X222014Y345076D01*
X222058Y345125D01*
X222104Y345170D01*
X222153Y345212D01*
X222204Y345250D01*
X222256Y345285D01*
X222307Y345316D01*
X222358Y345343D01*
X222409Y345367D01*
X222457Y345389D01*
X222500Y345407D01*
X222539Y345421D01*
X222573Y345434D01*
X222601Y345443D01*
X222613Y345447D01*
X222622Y345449D01*
X222630Y345450D01*
X222635Y345452D01*
X222639Y345454D01*
X222640D01*
X222724Y345121D01*
D02*
G37*
G36*
X220532Y332249D02*
X220598Y332245D01*
X220661Y332238D01*
X220721Y332231D01*
X220781Y332220D01*
X220836Y332209D01*
X220889Y332196D01*
X220938Y332183D01*
X220982Y332172D01*
X221022Y332160D01*
X221056Y332149D01*
X221085Y332138D01*
X221109Y332131D01*
X221125Y332123D01*
X221136Y332120D01*
X221138Y332118D01*
X221140D01*
X221196Y332092D01*
X221251Y332063D01*
X221300Y332032D01*
X221347Y332001D01*
X221389Y331969D01*
X221429Y331936D01*
X221464Y331905D01*
X221497Y331874D01*
X221526Y331845D01*
X221550Y331818D01*
X221571Y331794D01*
X221588Y331772D01*
X221601Y331754D01*
X221611Y331741D01*
X221617Y331734D01*
X221619Y331730D01*
X221648Y331681D01*
X221673Y331628D01*
X221695Y331574D01*
X221715Y331519D01*
X221730Y331465D01*
X221744Y331408D01*
X221755Y331355D01*
X221764Y331302D01*
X221770Y331255D01*
X221775Y331210D01*
X221779Y331170D01*
X221782Y331135D01*
Y331108D01*
X221784Y331095D01*
Y331068D01*
X221782Y330995D01*
X221775Y330926D01*
X221764Y330860D01*
X221751Y330797D01*
X221735Y330738D01*
X221717Y330684D01*
X221697Y330633D01*
X221677Y330587D01*
X221657Y330545D01*
X221637Y330509D01*
X221619Y330476D01*
X221602Y330451D01*
X221589Y330429D01*
X221579Y330414D01*
X221571Y330405D01*
X221569Y330402D01*
X221526Y330352D01*
X221480Y330307D01*
X221431Y330265D01*
X221380Y330227D01*
X221327Y330192D01*
X221276Y330161D01*
X221226Y330134D01*
X221175Y330110D01*
X221127Y330088D01*
X221084Y330070D01*
X221045Y330056D01*
X221011Y330043D01*
X220984Y330034D01*
X220971Y330030D01*
X220962Y330029D01*
X220954Y330027D01*
X220949Y330025D01*
X220945Y330023D01*
X220943D01*
X220860Y330356D01*
X220918Y330371D01*
X220971Y330387D01*
X221022Y330405D01*
X221067Y330427D01*
X221111Y330447D01*
X221151Y330471D01*
X221185Y330493D01*
X221218Y330514D01*
X221246Y330535D01*
X221271Y330555D01*
X221291Y330573D01*
X221307Y330589D01*
X221322Y330602D01*
X221331Y330611D01*
X221337Y330618D01*
X221338Y330620D01*
X221366Y330658D01*
X221391Y330696D01*
X221413Y330736D01*
X221431Y330777D01*
X221446Y330817D01*
X221459Y330857D01*
X221469Y330895D01*
X221479Y330931D01*
X221486Y330964D01*
X221489Y330997D01*
X221493Y331024D01*
X221497Y331048D01*
Y331068D01*
X221498Y331082D01*
Y331095D01*
X221497Y331137D01*
X221493Y331179D01*
X221488Y331219D01*
X221480Y331259D01*
X221471Y331295D01*
X221460Y331332D01*
X221451Y331364D01*
X221439Y331395D01*
X221428Y331423D01*
X221418Y331448D01*
X221408Y331470D01*
X221398Y331488D01*
X221391Y331503D01*
X221386Y331514D01*
X221382Y331521D01*
X221380Y331523D01*
X221357Y331559D01*
X221331Y331592D01*
X221304Y331623D01*
X221275Y331652D01*
X221246Y331677D01*
X221215Y331701D01*
X221185Y331723D01*
X221158Y331743D01*
X221131Y331759D01*
X221105Y331774D01*
X221082Y331787D01*
X221062Y331796D01*
X221045Y331805D01*
X221034Y331810D01*
X221025Y331812D01*
X221024Y331814D01*
X220978Y331830D01*
X220931Y331845D01*
X220883Y331858D01*
X220834Y331867D01*
X220741Y331885D01*
X220696Y331890D01*
X220652Y331896D01*
X220614Y331899D01*
X220578Y331901D01*
X220545Y331903D01*
X220518Y331905D01*
X220494Y331907D01*
X220478D01*
X220467D01*
X220463D01*
X220416Y331905D01*
X220370Y331903D01*
X220283Y331894D01*
X220241Y331889D01*
X220201Y331881D01*
X220163Y331874D01*
X220128Y331867D01*
X220095Y331859D01*
X220066Y331854D01*
X220041Y331847D01*
X220019Y331841D01*
X220003Y331836D01*
X219990Y331832D01*
X219981Y331828D01*
X219979D01*
X219935Y331812D01*
X219895Y331794D01*
X219857Y331774D01*
X219822Y331752D01*
X219788Y331730D01*
X219757Y331708D01*
X219729Y331685D01*
X219704Y331663D01*
X219682Y331641D01*
X219662Y331621D01*
X219646Y331603D01*
X219631Y331586D01*
X219620Y331574D01*
X219611Y331565D01*
X219608Y331557D01*
X219606Y331556D01*
X219580Y331517D01*
X219560Y331477D01*
X219540Y331437D01*
X219524Y331397D01*
X219511Y331355D01*
X219500Y331315D01*
X219491Y331277D01*
X219484Y331239D01*
X219477Y331204D01*
X219473Y331171D01*
X219469Y331142D01*
X219467Y331117D01*
X219466Y331097D01*
Y331069D01*
X219467Y331022D01*
X219471Y330978D01*
X219477Y330937D01*
X219486Y330897D01*
X219495Y330860D01*
X219506Y330826D01*
X219517Y330795D01*
X219528Y330766D01*
X219540Y330740D01*
X219551Y330716D01*
X219562Y330696D01*
X219571Y330680D01*
X219580Y330667D01*
X219586Y330658D01*
X219589Y330653D01*
X219591Y330651D01*
X219617Y330620D01*
X219644Y330591D01*
X219675Y330565D01*
X219706Y330540D01*
X219740Y330516D01*
X219773Y330496D01*
X219806Y330476D01*
X219839Y330460D01*
X219870Y330445D01*
X219899Y330431D01*
X219924Y330420D01*
X219946Y330411D01*
X219966Y330403D01*
X219979Y330398D01*
X219988Y330396D01*
X219992Y330394D01*
X219915Y330067D01*
X219851Y330087D01*
X219791Y330112D01*
X219735Y330138D01*
X219682Y330167D01*
X219635Y330196D01*
X219589Y330225D01*
X219549Y330256D01*
X219513Y330285D01*
X219480Y330314D01*
X219453Y330340D01*
X219427Y330363D01*
X219409Y330385D01*
X219393Y330402D01*
X219382Y330416D01*
X219375Y330423D01*
X219373Y330427D01*
X219338Y330476D01*
X219309Y330527D01*
X219284Y330582D01*
X219262Y330634D01*
X219242Y330687D01*
X219227Y330740D01*
X219214Y330791D01*
X219203Y330840D01*
X219196Y330888D01*
X219191Y330929D01*
X219185Y330966D01*
X219183Y330998D01*
X219182Y331026D01*
X219180Y331037D01*
Y331062D01*
X219182Y331124D01*
X219187Y331184D01*
X219194Y331242D01*
X219203Y331299D01*
X219214Y331352D01*
X219229Y331403D01*
X219242Y331450D01*
X219256Y331494D01*
X219271Y331532D01*
X219284Y331568D01*
X219296Y331599D01*
X219309Y331625D01*
X219318Y331646D01*
X219325Y331661D01*
X219331Y331670D01*
X219333Y331674D01*
X219364Y331725D01*
X219396Y331772D01*
X219431Y331816D01*
X219467Y331858D01*
X219504Y331896D01*
X219540Y331930D01*
X219578Y331963D01*
X219613Y331991D01*
X219646Y332016D01*
X219678Y332040D01*
X219706Y332058D01*
X219729Y332074D01*
X219751Y332085D01*
X219766Y332094D01*
X219775Y332100D01*
X219779Y332101D01*
X219835Y332127D01*
X219892Y332151D01*
X219950Y332171D01*
X220008Y332187D01*
X220066Y332202D01*
X220124Y332214D01*
X220179Y332223D01*
X220230Y332232D01*
X220279Y332238D01*
X220325Y332243D01*
X220365Y332245D01*
X220399Y332249D01*
X220427D01*
X220438Y332251D01*
X220447D01*
X220454D01*
X220459D01*
X220463D01*
X220465D01*
X220532Y332249D01*
D02*
G37*
G36*
X220124Y329448D02*
X220099Y329392D01*
X220074Y329337D01*
X220048Y329286D01*
X220035Y329264D01*
X220024Y329242D01*
X220013Y329224D01*
X220004Y329209D01*
X219999Y329197D01*
X219993Y329186D01*
X219990Y329180D01*
X219988Y329179D01*
X219948Y329113D01*
X219928Y329084D01*
X219910Y329055D01*
X219890Y329029D01*
X219873Y329006D01*
X219855Y328984D01*
X219841Y328962D01*
X219826Y328946D01*
X219813Y328929D01*
X219800Y328915D01*
X219791Y328904D01*
X219784Y328895D01*
X219779Y328889D01*
X219775Y328886D01*
X219773Y328884D01*
X221742D01*
Y328574D01*
X219214D01*
Y328774D01*
X219245Y328791D01*
X219276Y328809D01*
X219336Y328851D01*
X219393Y328896D01*
X219420Y328920D01*
X219446Y328942D01*
X219467Y328964D01*
X219489Y328984D01*
X219508Y329002D01*
X219524Y329018D01*
X219537Y329031D01*
X219546Y329040D01*
X219551Y329047D01*
X219553Y329049D01*
X219615Y329124D01*
X219671Y329202D01*
X219722Y329279D01*
X219744Y329315D01*
X219766Y329350D01*
X219784Y329381D01*
X219800Y329410D01*
X219815Y329437D01*
X219826Y329459D01*
X219835Y329477D01*
X219842Y329492D01*
X219846Y329499D01*
X219848Y329503D01*
X220146D01*
X220124Y329448D01*
D02*
G37*
G36*
X221140Y326791D02*
X221742D01*
Y326481D01*
X221140D01*
Y326141D01*
X220856D01*
Y326481D01*
X219223D01*
Y326734D01*
X220856Y327883D01*
X221140D01*
Y326791D01*
D02*
G37*
G36*
X307756Y299498D02*
X307825Y299491D01*
X307890Y299480D01*
X307954Y299467D01*
X308012Y299451D01*
X308067Y299433D01*
X308118Y299413D01*
X308163Y299393D01*
X308205Y299373D01*
X308242Y299353D01*
X308275Y299334D01*
X308300Y299318D01*
X308322Y299305D01*
X308336Y299294D01*
X308345Y299287D01*
X308349Y299285D01*
X308398Y299242D01*
X308444Y299196D01*
X308486Y299147D01*
X308524Y299096D01*
X308558Y299043D01*
X308589Y298992D01*
X308617Y298941D01*
X308640Y298890D01*
X308662Y298843D01*
X308680Y298799D01*
X308695Y298761D01*
X308708Y298727D01*
X308717Y298699D01*
X308720Y298687D01*
X308722Y298677D01*
X308724Y298670D01*
X308726Y298665D01*
X308728Y298661D01*
Y298659D01*
X308395Y298575D01*
X308380Y298634D01*
X308364Y298687D01*
X308345Y298738D01*
X308324Y298783D01*
X308304Y298827D01*
X308280Y298867D01*
X308258Y298901D01*
X308236Y298934D01*
X308216Y298961D01*
X308196Y298987D01*
X308178Y299007D01*
X308162Y299023D01*
X308149Y299038D01*
X308140Y299047D01*
X308133Y299052D01*
X308131Y299054D01*
X308092Y299081D01*
X308054Y299107D01*
X308014Y299129D01*
X307974Y299147D01*
X307934Y299162D01*
X307894Y299174D01*
X307856Y299185D01*
X307820Y299194D01*
X307787Y299202D01*
X307754Y299205D01*
X307727Y299209D01*
X307703Y299213D01*
X307683D01*
X307668Y299214D01*
X307656D01*
X307614Y299213D01*
X307572Y299209D01*
X307532Y299203D01*
X307492Y299196D01*
X307455Y299187D01*
X307419Y299176D01*
X307386Y299167D01*
X307355Y299154D01*
X307328Y299143D01*
X307303Y299134D01*
X307281Y299123D01*
X307262Y299114D01*
X307248Y299107D01*
X307237Y299101D01*
X307230Y299098D01*
X307228Y299096D01*
X307192Y299072D01*
X307159Y299047D01*
X307128Y299020D01*
X307099Y298990D01*
X307073Y298961D01*
X307050Y298930D01*
X307028Y298901D01*
X307008Y298874D01*
X306991Y298847D01*
X306977Y298821D01*
X306964Y298797D01*
X306955Y298778D01*
X306946Y298761D01*
X306940Y298750D01*
X306939Y298741D01*
X306937Y298739D01*
X306920Y298694D01*
X306906Y298646D01*
X306893Y298599D01*
X306884Y298550D01*
X306866Y298457D01*
X306860Y298412D01*
X306855Y298368D01*
X306851Y298330D01*
X306849Y298293D01*
X306848Y298261D01*
X306846Y298233D01*
X306844Y298210D01*
Y298193D01*
Y298182D01*
Y298179D01*
X306846Y298131D01*
X306848Y298086D01*
X306857Y297998D01*
X306862Y297957D01*
X306869Y297917D01*
X306877Y297878D01*
X306884Y297844D01*
X306891Y297811D01*
X306897Y297782D01*
X306904Y297757D01*
X306909Y297735D01*
X306915Y297718D01*
X306919Y297706D01*
X306922Y297696D01*
Y297695D01*
X306939Y297651D01*
X306957Y297611D01*
X306977Y297573D01*
X306999Y297538D01*
X307020Y297503D01*
X307042Y297473D01*
X307066Y297445D01*
X307088Y297420D01*
X307110Y297398D01*
X307130Y297378D01*
X307148Y297361D01*
X307164Y297347D01*
X307177Y297336D01*
X307186Y297327D01*
X307193Y297323D01*
X307195Y297322D01*
X307233Y297296D01*
X307274Y297276D01*
X307313Y297256D01*
X307353Y297240D01*
X307395Y297227D01*
X307435Y297216D01*
X307474Y297207D01*
X307512Y297200D01*
X307546Y297192D01*
X307579Y297189D01*
X307608Y297185D01*
X307634Y297183D01*
X307654Y297181D01*
X307681D01*
X307729Y297183D01*
X307772Y297187D01*
X307814Y297192D01*
X307854Y297201D01*
X307890Y297211D01*
X307925Y297221D01*
X307956Y297232D01*
X307985Y297243D01*
X308011Y297256D01*
X308034Y297267D01*
X308054Y297278D01*
X308071Y297287D01*
X308083Y297296D01*
X308092Y297302D01*
X308098Y297305D01*
X308100Y297307D01*
X308131Y297332D01*
X308160Y297360D01*
X308185Y297391D01*
X308211Y297422D01*
X308234Y297456D01*
X308254Y297489D01*
X308275Y297522D01*
X308291Y297554D01*
X308305Y297585D01*
X308320Y297615D01*
X308331Y297640D01*
X308340Y297662D01*
X308347Y297682D01*
X308353Y297695D01*
X308354Y297704D01*
X308356Y297707D01*
X308684Y297631D01*
X308664Y297567D01*
X308639Y297507D01*
X308613Y297451D01*
X308584Y297398D01*
X308555Y297351D01*
X308526Y297305D01*
X308495Y297265D01*
X308466Y297229D01*
X308436Y297196D01*
X308411Y297169D01*
X308387Y297143D01*
X308366Y297125D01*
X308349Y297109D01*
X308334Y297098D01*
X308327Y297090D01*
X308324Y297089D01*
X308275Y297054D01*
X308224Y297025D01*
X308169Y296999D01*
X308116Y296977D01*
X308063Y296957D01*
X308011Y296943D01*
X307960Y296930D01*
X307910Y296919D01*
X307863Y296912D01*
X307821Y296906D01*
X307785Y296901D01*
X307752Y296899D01*
X307725Y296897D01*
X307714Y296896D01*
X307688D01*
X307627Y296897D01*
X307566Y296903D01*
X307508Y296910D01*
X307452Y296919D01*
X307399Y296930D01*
X307348Y296945D01*
X307301Y296957D01*
X307257Y296972D01*
X307219Y296987D01*
X307183Y296999D01*
X307152Y297012D01*
X307126Y297025D01*
X307104Y297034D01*
X307090Y297041D01*
X307081Y297047D01*
X307077Y297048D01*
X307026Y297079D01*
X306979Y297112D01*
X306935Y297147D01*
X306893Y297183D01*
X306855Y297220D01*
X306820Y297256D01*
X306787Y297294D01*
X306760Y297329D01*
X306735Y297361D01*
X306711Y297394D01*
X306693Y297422D01*
X306677Y297445D01*
X306666Y297467D01*
X306657Y297482D01*
X306651Y297491D01*
X306649Y297494D01*
X306624Y297551D01*
X306600Y297607D01*
X306580Y297666D01*
X306564Y297724D01*
X306549Y297782D01*
X306536Y297840D01*
X306527Y297895D01*
X306518Y297946D01*
X306513Y297995D01*
X306507Y298040D01*
X306505Y298080D01*
X306502Y298115D01*
Y298142D01*
X306500Y298153D01*
Y298162D01*
Y298170D01*
Y298175D01*
Y298179D01*
Y298181D01*
X306502Y298248D01*
X306505Y298313D01*
X306513Y298377D01*
X306520Y298437D01*
X306531Y298497D01*
X306542Y298552D01*
X306555Y298605D01*
X306567Y298654D01*
X306578Y298697D01*
X306591Y298738D01*
X306602Y298772D01*
X306613Y298801D01*
X306620Y298825D01*
X306627Y298841D01*
X306631Y298852D01*
X306633Y298854D01*
Y298856D01*
X306658Y298912D01*
X306687Y298967D01*
X306718Y299016D01*
X306749Y299063D01*
X306782Y299105D01*
X306815Y299145D01*
X306846Y299180D01*
X306877Y299213D01*
X306906Y299242D01*
X306933Y299265D01*
X306957Y299287D01*
X306979Y299304D01*
X306997Y299316D01*
X307010Y299327D01*
X307017Y299333D01*
X307020Y299334D01*
X307070Y299363D01*
X307122Y299389D01*
X307177Y299411D01*
X307232Y299431D01*
X307286Y299445D01*
X307343Y299460D01*
X307395Y299471D01*
X307448Y299480D01*
X307495Y299485D01*
X307541Y299491D01*
X307581Y299495D01*
X307616Y299498D01*
X307643D01*
X307656Y299500D01*
X307683D01*
X307756Y299498D01*
D02*
G37*
G36*
X310176Y296930D02*
X309976D01*
X309960Y296961D01*
X309942Y296992D01*
X309900Y297052D01*
X309854Y297109D01*
X309831Y297136D01*
X309809Y297161D01*
X309787Y297183D01*
X309767Y297205D01*
X309749Y297223D01*
X309732Y297240D01*
X309719Y297252D01*
X309710Y297261D01*
X309703Y297267D01*
X309701Y297269D01*
X309627Y297331D01*
X309548Y297387D01*
X309472Y297438D01*
X309436Y297460D01*
X309401Y297482D01*
X309370Y297500D01*
X309341Y297516D01*
X309314Y297531D01*
X309292Y297542D01*
X309274Y297551D01*
X309259Y297558D01*
X309252Y297562D01*
X309248Y297564D01*
Y297862D01*
X309303Y297840D01*
X309359Y297815D01*
X309414Y297789D01*
X309465Y297764D01*
X309487Y297751D01*
X309508Y297740D01*
X309527Y297729D01*
X309541Y297720D01*
X309554Y297715D01*
X309565Y297709D01*
X309570Y297706D01*
X309572Y297704D01*
X309638Y297664D01*
X309667Y297644D01*
X309696Y297625D01*
X309721Y297605D01*
X309745Y297589D01*
X309767Y297571D01*
X309789Y297556D01*
X309805Y297542D01*
X309822Y297529D01*
X309836Y297516D01*
X309847Y297507D01*
X309856Y297500D01*
X309861Y297494D01*
X309865Y297491D01*
X309867Y297489D01*
Y299458D01*
X310176D01*
Y296930D01*
D02*
G37*
G36*
X311840Y299498D02*
X311887Y299493D01*
X311933Y299485D01*
X311976Y299476D01*
X312016Y299465D01*
X312053Y299453D01*
X312087Y299440D01*
X312120Y299425D01*
X312147Y299413D01*
X312173Y299400D01*
X312193Y299387D01*
X312211Y299376D01*
X312226Y299365D01*
X312235Y299358D01*
X312242Y299354D01*
X312244Y299353D01*
X312277Y299324D01*
X312308Y299293D01*
X312337Y299260D01*
X312364Y299225D01*
X312388Y299189D01*
X312409Y299154D01*
X312431Y299120D01*
X312450Y299087D01*
X312464Y299056D01*
X312479Y299027D01*
X312490Y299000D01*
X312501Y298978D01*
X312508Y298958D01*
X312513Y298945D01*
X312515Y298936D01*
X312517Y298932D01*
X312533Y298879D01*
X312548Y298823D01*
X312561Y298765D01*
X312572Y298705D01*
X312588Y298586D01*
X312593Y298528D01*
X312599Y298472D01*
X312602Y298419D01*
X312604Y298372D01*
X312606Y298328D01*
X312608Y298290D01*
Y298273D01*
X312610Y298259D01*
Y298246D01*
Y298237D01*
Y298228D01*
Y298222D01*
Y298219D01*
Y298217D01*
Y298148D01*
X312608Y298084D01*
X312604Y298022D01*
X312601Y297966D01*
X312597Y297913D01*
X312592Y297864D01*
X312586Y297818D01*
X312581Y297778D01*
X312575Y297742D01*
X312570Y297711D01*
X312564Y297684D01*
X312561Y297662D01*
X312557Y297644D01*
X312553Y297633D01*
X312551Y297624D01*
Y297622D01*
X312541Y297582D01*
X312528Y297542D01*
X312517Y297505D01*
X312504Y297471D01*
X312490Y297438D01*
X312477Y297407D01*
X312464Y297378D01*
X312451Y297352D01*
X312440Y297329D01*
X312429Y297309D01*
X312420Y297291D01*
X312411Y297276D01*
X312404Y297265D01*
X312399Y297256D01*
X312397Y297251D01*
X312395Y297249D01*
X312357Y297194D01*
X312315Y297147D01*
X312273Y297105D01*
X312233Y297072D01*
X312215Y297058D01*
X312197Y297047D01*
X312182Y297036D01*
X312169Y297027D01*
X312158Y297021D01*
X312151Y297016D01*
X312146Y297012D01*
X312144D01*
X312115Y296997D01*
X312086Y296985D01*
X312024Y296965D01*
X311964Y296950D01*
X311909Y296941D01*
X311883Y296937D01*
X311862Y296934D01*
X311840Y296932D01*
X311824D01*
X311809Y296930D01*
X311789D01*
X311738Y296932D01*
X311691Y296936D01*
X311645Y296943D01*
X311601Y296954D01*
X311561Y296965D01*
X311523Y296977D01*
X311489Y296990D01*
X311458Y297003D01*
X311428Y297018D01*
X311405Y297030D01*
X311383Y297043D01*
X311365Y297054D01*
X311350Y297063D01*
X311341Y297070D01*
X311334Y297076D01*
X311332Y297078D01*
X311299Y297107D01*
X311268Y297138D01*
X311239Y297170D01*
X311212Y297205D01*
X311188Y297240D01*
X311166Y297276D01*
X311145Y297311D01*
X311128Y297343D01*
X311112Y297374D01*
X311097Y297403D01*
X311086Y297431D01*
X311075Y297452D01*
X311068Y297473D01*
X311063Y297485D01*
X311061Y297494D01*
X311059Y297498D01*
X311043Y297551D01*
X311030Y297607D01*
X311017Y297666D01*
X311006Y297726D01*
X310990Y297846D01*
X310984Y297904D01*
X310979Y297960D01*
X310975Y298013D01*
X310974Y298062D01*
X310972Y298106D01*
X310970Y298142D01*
Y298159D01*
X310968Y298173D01*
Y298186D01*
Y298197D01*
Y298206D01*
Y298212D01*
Y298215D01*
Y298217D01*
Y298283D01*
X310972Y298346D01*
X310974Y298406D01*
X310979Y298464D01*
X310984Y298521D01*
X310992Y298575D01*
X310999Y298626D01*
X311006Y298676D01*
X311015Y298725D01*
X311026Y298768D01*
X311035Y298812D01*
X311046Y298852D01*
X311057Y298892D01*
X311068Y298929D01*
X311081Y298963D01*
X311092Y298996D01*
X311103Y299025D01*
X311116Y299054D01*
X311126Y299080D01*
X311137Y299105D01*
X311148Y299127D01*
X311157Y299147D01*
X311168Y299165D01*
X311177Y299182D01*
X311185Y299196D01*
X311192Y299207D01*
X311199Y299218D01*
X311205Y299227D01*
X311210Y299233D01*
X311214Y299238D01*
X311216Y299240D01*
Y299242D01*
X311256Y299287D01*
X311299Y299327D01*
X311345Y299362D01*
X311392Y299391D01*
X311441Y299416D01*
X311489Y299436D01*
X311534Y299454D01*
X311580Y299467D01*
X311623Y299478D01*
X311662Y299485D01*
X311698Y299493D01*
X311729Y299496D01*
X311754Y299498D01*
X311772Y299500D01*
X311789D01*
X311840Y299498D01*
D02*
G37*
G36*
X337756Y305498D02*
X337825Y305491D01*
X337891Y305480D01*
X337954Y305467D01*
X338012Y305451D01*
X338067Y305433D01*
X338118Y305413D01*
X338163Y305393D01*
X338205Y305373D01*
X338242Y305353D01*
X338275Y305334D01*
X338300Y305318D01*
X338322Y305305D01*
X338336Y305294D01*
X338346Y305287D01*
X338349Y305285D01*
X338398Y305242D01*
X338444Y305196D01*
X338486Y305147D01*
X338524Y305096D01*
X338558Y305043D01*
X338589Y304992D01*
X338617Y304941D01*
X338640Y304890D01*
X338662Y304843D01*
X338680Y304799D01*
X338695Y304761D01*
X338708Y304727D01*
X338717Y304699D01*
X338720Y304686D01*
X338722Y304677D01*
X338724Y304670D01*
X338726Y304665D01*
X338728Y304661D01*
Y304659D01*
X338395Y304575D01*
X338380Y304634D01*
X338364Y304686D01*
X338346Y304737D01*
X338324Y304783D01*
X338304Y304827D01*
X338280Y304867D01*
X338258Y304901D01*
X338236Y304934D01*
X338216Y304961D01*
X338196Y304987D01*
X338178Y305007D01*
X338162Y305023D01*
X338149Y305038D01*
X338140Y305047D01*
X338133Y305052D01*
X338131Y305054D01*
X338092Y305081D01*
X338054Y305107D01*
X338014Y305129D01*
X337974Y305147D01*
X337934Y305161D01*
X337894Y305174D01*
X337856Y305185D01*
X337820Y305194D01*
X337787Y305202D01*
X337754Y305205D01*
X337727Y305209D01*
X337703Y305212D01*
X337683D01*
X337668Y305214D01*
X337656D01*
X337614Y305212D01*
X337572Y305209D01*
X337532Y305203D01*
X337492Y305196D01*
X337456Y305187D01*
X337419Y305176D01*
X337386Y305167D01*
X337355Y305154D01*
X337328Y305143D01*
X337303Y305134D01*
X337281Y305123D01*
X337263Y305114D01*
X337248Y305107D01*
X337237Y305101D01*
X337230Y305098D01*
X337228Y305096D01*
X337192Y305072D01*
X337159Y305047D01*
X337128Y305019D01*
X337099Y304990D01*
X337073Y304961D01*
X337050Y304930D01*
X337028Y304901D01*
X337008Y304874D01*
X336991Y304847D01*
X336977Y304821D01*
X336964Y304798D01*
X336955Y304778D01*
X336946Y304761D01*
X336940Y304750D01*
X336939Y304741D01*
X336937Y304739D01*
X336920Y304694D01*
X336906Y304646D01*
X336893Y304599D01*
X336884Y304550D01*
X336866Y304457D01*
X336860Y304412D01*
X336855Y304368D01*
X336851Y304330D01*
X336849Y304293D01*
X336848Y304261D01*
X336846Y304233D01*
X336844Y304210D01*
Y304193D01*
Y304182D01*
Y304179D01*
X336846Y304131D01*
X336848Y304086D01*
X336857Y303998D01*
X336862Y303957D01*
X336870Y303917D01*
X336877Y303878D01*
X336884Y303844D01*
X336891Y303811D01*
X336897Y303782D01*
X336904Y303756D01*
X336910Y303735D01*
X336915Y303718D01*
X336919Y303706D01*
X336922Y303696D01*
Y303695D01*
X336939Y303651D01*
X336957Y303611D01*
X336977Y303573D01*
X336999Y303538D01*
X337020Y303503D01*
X337042Y303472D01*
X337066Y303445D01*
X337088Y303420D01*
X337110Y303398D01*
X337130Y303378D01*
X337148Y303362D01*
X337164Y303347D01*
X337177Y303336D01*
X337186Y303327D01*
X337193Y303323D01*
X337195Y303322D01*
X337233Y303296D01*
X337274Y303276D01*
X337314Y303256D01*
X337354Y303240D01*
X337395Y303227D01*
X337436Y303216D01*
X337474Y303207D01*
X337512Y303200D01*
X337546Y303192D01*
X337579Y303189D01*
X337608Y303185D01*
X337634Y303183D01*
X337654Y303181D01*
X337681D01*
X337729Y303183D01*
X337772Y303187D01*
X337814Y303192D01*
X337854Y303201D01*
X337891Y303210D01*
X337925Y303221D01*
X337956Y303232D01*
X337985Y303243D01*
X338011Y303256D01*
X338034Y303267D01*
X338054Y303278D01*
X338071Y303287D01*
X338083Y303296D01*
X338092Y303301D01*
X338098Y303305D01*
X338100Y303307D01*
X338131Y303332D01*
X338160Y303360D01*
X338185Y303391D01*
X338211Y303422D01*
X338234Y303456D01*
X338254Y303489D01*
X338275Y303522D01*
X338291Y303554D01*
X338305Y303585D01*
X338320Y303614D01*
X338331Y303640D01*
X338340Y303662D01*
X338347Y303682D01*
X338353Y303695D01*
X338355Y303704D01*
X338356Y303707D01*
X338684Y303631D01*
X338664Y303567D01*
X338638Y303507D01*
X338613Y303451D01*
X338584Y303398D01*
X338555Y303351D01*
X338526Y303305D01*
X338495Y303265D01*
X338466Y303229D01*
X338437Y303196D01*
X338411Y303169D01*
X338387Y303143D01*
X338366Y303125D01*
X338349Y303109D01*
X338335Y303098D01*
X338327Y303090D01*
X338324Y303088D01*
X338275Y303054D01*
X338224Y303025D01*
X338169Y302999D01*
X338116Y302977D01*
X338063Y302958D01*
X338011Y302943D01*
X337960Y302930D01*
X337911Y302919D01*
X337863Y302912D01*
X337821Y302906D01*
X337785Y302901D01*
X337752Y302899D01*
X337725Y302897D01*
X337714Y302896D01*
X337688D01*
X337627Y302897D01*
X337566Y302903D01*
X337508Y302910D01*
X337452Y302919D01*
X337399Y302930D01*
X337348Y302945D01*
X337301Y302958D01*
X337257Y302972D01*
X337219Y302987D01*
X337182Y302999D01*
X337152Y303012D01*
X337126Y303025D01*
X337104Y303034D01*
X337090Y303041D01*
X337081Y303047D01*
X337077Y303048D01*
X337026Y303079D01*
X336979Y303112D01*
X336935Y303147D01*
X336893Y303183D01*
X336855Y303220D01*
X336820Y303256D01*
X336788Y303294D01*
X336760Y303329D01*
X336735Y303362D01*
X336711Y303394D01*
X336693Y303422D01*
X336677Y303445D01*
X336666Y303467D01*
X336656Y303482D01*
X336651Y303491D01*
X336649Y303494D01*
X336624Y303551D01*
X336600Y303607D01*
X336580Y303665D01*
X336564Y303724D01*
X336549Y303782D01*
X336536Y303840D01*
X336527Y303895D01*
X336518Y303946D01*
X336513Y303995D01*
X336507Y304040D01*
X336506Y304080D01*
X336502Y304115D01*
Y304142D01*
X336500Y304153D01*
Y304162D01*
Y304170D01*
Y304175D01*
Y304179D01*
Y304181D01*
X336502Y304248D01*
X336506Y304313D01*
X336513Y304377D01*
X336520Y304437D01*
X336531Y304497D01*
X336542Y304552D01*
X336555Y304605D01*
X336567Y304654D01*
X336578Y304697D01*
X336591Y304737D01*
X336602Y304772D01*
X336613Y304801D01*
X336620Y304825D01*
X336627Y304841D01*
X336631Y304852D01*
X336633Y304854D01*
Y304856D01*
X336658Y304912D01*
X336687Y304967D01*
X336718Y305016D01*
X336749Y305063D01*
X336782Y305105D01*
X336815Y305145D01*
X336846Y305180D01*
X336877Y305212D01*
X336906Y305242D01*
X336933Y305265D01*
X336957Y305287D01*
X336979Y305303D01*
X336997Y305316D01*
X337010Y305327D01*
X337017Y305333D01*
X337020Y305334D01*
X337070Y305363D01*
X337122Y305389D01*
X337177Y305411D01*
X337232Y305431D01*
X337286Y305445D01*
X337343Y305460D01*
X337395Y305471D01*
X337448Y305480D01*
X337495Y305485D01*
X337541Y305491D01*
X337581Y305494D01*
X337616Y305498D01*
X337643D01*
X337656Y305500D01*
X337683D01*
X337756Y305498D01*
D02*
G37*
G36*
X342133Y302930D02*
X341933D01*
X341916Y302961D01*
X341898Y302992D01*
X341856Y303052D01*
X341811Y303109D01*
X341787Y303136D01*
X341765Y303161D01*
X341743Y303183D01*
X341723Y303205D01*
X341705Y303223D01*
X341689Y303240D01*
X341676Y303252D01*
X341667Y303261D01*
X341660Y303267D01*
X341658Y303269D01*
X341583Y303331D01*
X341505Y303387D01*
X341429Y303438D01*
X341392Y303460D01*
X341358Y303482D01*
X341327Y303500D01*
X341298Y303516D01*
X341270Y303531D01*
X341248Y303542D01*
X341230Y303551D01*
X341216Y303558D01*
X341208Y303562D01*
X341205Y303563D01*
Y303862D01*
X341259Y303840D01*
X341316Y303815D01*
X341370Y303789D01*
X341421Y303764D01*
X341443Y303751D01*
X341465Y303740D01*
X341483Y303729D01*
X341498Y303720D01*
X341511Y303715D01*
X341521Y303709D01*
X341527Y303706D01*
X341529Y303704D01*
X341594Y303664D01*
X341623Y303644D01*
X341652Y303625D01*
X341678Y303605D01*
X341702Y303589D01*
X341723Y303571D01*
X341745Y303556D01*
X341762Y303542D01*
X341778Y303529D01*
X341793Y303516D01*
X341804Y303507D01*
X341813Y303500D01*
X341818Y303494D01*
X341822Y303491D01*
X341824Y303489D01*
Y305458D01*
X342133D01*
Y302930D01*
D02*
G37*
G36*
X340176D02*
X339976D01*
X339960Y302961D01*
X339942Y302992D01*
X339900Y303052D01*
X339854Y303109D01*
X339831Y303136D01*
X339809Y303161D01*
X339787Y303183D01*
X339767Y303205D01*
X339749Y303223D01*
X339732Y303240D01*
X339720Y303252D01*
X339710Y303261D01*
X339703Y303267D01*
X339701Y303269D01*
X339627Y303331D01*
X339548Y303387D01*
X339472Y303438D01*
X339436Y303460D01*
X339401Y303482D01*
X339370Y303500D01*
X339341Y303516D01*
X339314Y303531D01*
X339292Y303542D01*
X339274Y303551D01*
X339259Y303558D01*
X339252Y303562D01*
X339248Y303563D01*
Y303862D01*
X339303Y303840D01*
X339359Y303815D01*
X339414Y303789D01*
X339465Y303764D01*
X339487Y303751D01*
X339509Y303740D01*
X339527Y303729D01*
X339541Y303720D01*
X339554Y303715D01*
X339565Y303709D01*
X339570Y303706D01*
X339572Y303704D01*
X339638Y303664D01*
X339667Y303644D01*
X339696Y303625D01*
X339721Y303605D01*
X339745Y303589D01*
X339767Y303571D01*
X339789Y303556D01*
X339805Y303542D01*
X339822Y303529D01*
X339836Y303516D01*
X339847Y303507D01*
X339856Y303500D01*
X339861Y303494D01*
X339865Y303491D01*
X339867Y303489D01*
Y305458D01*
X340176D01*
Y302930D01*
D02*
G37*
G36*
X307756Y293498D02*
X307825Y293491D01*
X307890Y293480D01*
X307954Y293467D01*
X308012Y293451D01*
X308067Y293433D01*
X308118Y293413D01*
X308163Y293393D01*
X308205Y293373D01*
X308242Y293353D01*
X308274Y293334D01*
X308300Y293318D01*
X308322Y293305D01*
X308336Y293294D01*
X308345Y293287D01*
X308349Y293285D01*
X308398Y293242D01*
X308444Y293196D01*
X308486Y293147D01*
X308524Y293096D01*
X308558Y293043D01*
X308589Y292992D01*
X308617Y292941D01*
X308640Y292890D01*
X308662Y292843D01*
X308680Y292799D01*
X308695Y292761D01*
X308708Y292726D01*
X308717Y292699D01*
X308720Y292687D01*
X308722Y292677D01*
X308724Y292670D01*
X308726Y292665D01*
X308728Y292661D01*
Y292659D01*
X308395Y292576D01*
X308380Y292634D01*
X308364Y292687D01*
X308345Y292737D01*
X308324Y292783D01*
X308303Y292827D01*
X308280Y292867D01*
X308258Y292901D01*
X308236Y292934D01*
X308216Y292961D01*
X308196Y292987D01*
X308178Y293007D01*
X308162Y293023D01*
X308149Y293038D01*
X308140Y293047D01*
X308133Y293052D01*
X308131Y293054D01*
X308092Y293081D01*
X308054Y293107D01*
X308014Y293129D01*
X307974Y293147D01*
X307934Y293162D01*
X307894Y293174D01*
X307856Y293185D01*
X307819Y293194D01*
X307787Y293201D01*
X307754Y293205D01*
X307727Y293209D01*
X307703Y293213D01*
X307683D01*
X307668Y293214D01*
X307656D01*
X307614Y293213D01*
X307572Y293209D01*
X307532Y293203D01*
X307492Y293196D01*
X307455Y293187D01*
X307419Y293176D01*
X307386Y293167D01*
X307355Y293154D01*
X307328Y293143D01*
X307303Y293134D01*
X307281Y293123D01*
X307262Y293114D01*
X307248Y293107D01*
X307237Y293102D01*
X307230Y293098D01*
X307228Y293096D01*
X307191Y293072D01*
X307159Y293047D01*
X307128Y293020D01*
X307099Y292990D01*
X307073Y292961D01*
X307050Y292930D01*
X307028Y292901D01*
X307008Y292874D01*
X306991Y292847D01*
X306977Y292821D01*
X306964Y292797D01*
X306955Y292777D01*
X306946Y292761D01*
X306940Y292750D01*
X306939Y292741D01*
X306937Y292739D01*
X306920Y292694D01*
X306906Y292647D01*
X306893Y292599D01*
X306884Y292550D01*
X306866Y292457D01*
X306860Y292412D01*
X306855Y292368D01*
X306851Y292330D01*
X306849Y292293D01*
X306848Y292261D01*
X306846Y292233D01*
X306844Y292210D01*
Y292193D01*
Y292182D01*
Y292179D01*
X306846Y292131D01*
X306848Y292086D01*
X306857Y291999D01*
X306862Y291957D01*
X306869Y291917D01*
X306877Y291878D01*
X306884Y291844D01*
X306891Y291811D01*
X306897Y291782D01*
X306904Y291757D01*
X306909Y291735D01*
X306915Y291718D01*
X306919Y291705D01*
X306922Y291696D01*
Y291695D01*
X306939Y291651D01*
X306957Y291611D01*
X306977Y291573D01*
X306999Y291538D01*
X307020Y291504D01*
X307042Y291473D01*
X307066Y291445D01*
X307088Y291420D01*
X307110Y291398D01*
X307130Y291378D01*
X307148Y291361D01*
X307164Y291347D01*
X307177Y291336D01*
X307186Y291327D01*
X307193Y291323D01*
X307195Y291321D01*
X307233Y291296D01*
X307273Y291276D01*
X307313Y291256D01*
X307353Y291240D01*
X307395Y291227D01*
X307435Y291216D01*
X307474Y291207D01*
X307512Y291199D01*
X307546Y291192D01*
X307579Y291189D01*
X307608Y291185D01*
X307634Y291183D01*
X307654Y291181D01*
X307681D01*
X307728Y291183D01*
X307772Y291187D01*
X307814Y291192D01*
X307854Y291201D01*
X307890Y291211D01*
X307925Y291221D01*
X307956Y291232D01*
X307985Y291243D01*
X308011Y291256D01*
X308034Y291267D01*
X308054Y291278D01*
X308071Y291287D01*
X308083Y291296D01*
X308092Y291301D01*
X308098Y291305D01*
X308100Y291307D01*
X308131Y291332D01*
X308160Y291360D01*
X308185Y291391D01*
X308211Y291422D01*
X308234Y291456D01*
X308254Y291489D01*
X308274Y291522D01*
X308291Y291554D01*
X308305Y291585D01*
X308320Y291615D01*
X308331Y291640D01*
X308340Y291662D01*
X308347Y291682D01*
X308353Y291695D01*
X308354Y291704D01*
X308356Y291707D01*
X308684Y291631D01*
X308664Y291567D01*
X308638Y291507D01*
X308613Y291451D01*
X308584Y291398D01*
X308555Y291351D01*
X308526Y291305D01*
X308495Y291265D01*
X308466Y291229D01*
X308436Y291196D01*
X308411Y291169D01*
X308387Y291143D01*
X308365Y291125D01*
X308349Y291109D01*
X308334Y291098D01*
X308327Y291090D01*
X308324Y291089D01*
X308274Y291054D01*
X308224Y291025D01*
X308169Y290999D01*
X308116Y290978D01*
X308063Y290957D01*
X308011Y290943D01*
X307960Y290930D01*
X307910Y290919D01*
X307863Y290912D01*
X307821Y290907D01*
X307785Y290901D01*
X307752Y290899D01*
X307725Y290897D01*
X307714Y290896D01*
X307688D01*
X307627Y290897D01*
X307566Y290903D01*
X307508Y290910D01*
X307452Y290919D01*
X307399Y290930D01*
X307348Y290945D01*
X307301Y290957D01*
X307257Y290972D01*
X307219Y290987D01*
X307182Y290999D01*
X307152Y291012D01*
X307126Y291025D01*
X307104Y291034D01*
X307090Y291041D01*
X307081Y291047D01*
X307077Y291049D01*
X307026Y291079D01*
X306979Y291112D01*
X306935Y291147D01*
X306893Y291183D01*
X306855Y291220D01*
X306820Y291256D01*
X306787Y291294D01*
X306760Y291329D01*
X306735Y291361D01*
X306711Y291394D01*
X306693Y291422D01*
X306677Y291445D01*
X306665Y291467D01*
X306656Y291482D01*
X306651Y291491D01*
X306649Y291494D01*
X306624Y291551D01*
X306600Y291607D01*
X306580Y291666D01*
X306564Y291724D01*
X306549Y291782D01*
X306536Y291840D01*
X306527Y291895D01*
X306518Y291946D01*
X306513Y291995D01*
X306507Y292040D01*
X306505Y292080D01*
X306502Y292115D01*
Y292142D01*
X306500Y292153D01*
Y292162D01*
Y292170D01*
Y292175D01*
Y292179D01*
Y292180D01*
X306502Y292248D01*
X306505Y292313D01*
X306513Y292377D01*
X306520Y292437D01*
X306531Y292497D01*
X306542Y292552D01*
X306555Y292605D01*
X306567Y292654D01*
X306578Y292697D01*
X306591Y292737D01*
X306602Y292772D01*
X306613Y292801D01*
X306620Y292825D01*
X306627Y292841D01*
X306631Y292852D01*
X306633Y292854D01*
Y292856D01*
X306658Y292912D01*
X306687Y292967D01*
X306718Y293016D01*
X306749Y293063D01*
X306782Y293105D01*
X306815Y293145D01*
X306846Y293180D01*
X306877Y293213D01*
X306906Y293242D01*
X306933Y293265D01*
X306957Y293287D01*
X306979Y293303D01*
X306997Y293316D01*
X307010Y293327D01*
X307017Y293333D01*
X307020Y293334D01*
X307070Y293363D01*
X307122Y293389D01*
X307177Y293411D01*
X307232Y293431D01*
X307286Y293445D01*
X307343Y293460D01*
X307395Y293471D01*
X307448Y293480D01*
X307495Y293485D01*
X307541Y293491D01*
X307581Y293495D01*
X307616Y293498D01*
X307643D01*
X307656Y293500D01*
X307683D01*
X307756Y293498D01*
D02*
G37*
G36*
X309709Y293389D02*
X309716Y293320D01*
X309723Y293254D01*
X309732Y293193D01*
X309741Y293132D01*
X309752Y293074D01*
X309761Y293021D01*
X309772Y292972D01*
X309781Y292927D01*
X309790Y292887D01*
X309800Y292852D01*
X309807Y292821D01*
X309812Y292797D01*
X309818Y292781D01*
X309820Y292770D01*
X309821Y292767D01*
X309847Y292683D01*
X309874Y292599D01*
X309901Y292519D01*
X309932Y292441D01*
X309962Y292364D01*
X309993Y292293D01*
X310022Y292224D01*
X310051Y292161D01*
X310078Y292102D01*
X310104Y292051D01*
X310127Y292006D01*
X310136Y291984D01*
X310147Y291966D01*
X310155Y291949D01*
X310164Y291935D01*
X310169Y291922D01*
X310174Y291911D01*
X310180Y291904D01*
X310184Y291898D01*
X310185Y291895D01*
Y291893D01*
X310229Y291815D01*
X310275Y291742D01*
X310316Y291673D01*
X310360Y291607D01*
X310400Y291547D01*
X310440Y291491D01*
X310478Y291440D01*
X310513Y291394D01*
X310544Y291352D01*
X310573Y291316D01*
X310599Y291285D01*
X310620Y291260D01*
X310639Y291240D01*
X310651Y291223D01*
X310660Y291216D01*
X310662Y291212D01*
Y290972D01*
X309032D01*
Y291269D01*
X310265D01*
X310222Y291320D01*
X310178Y291374D01*
X310096Y291485D01*
X310058Y291542D01*
X310020Y291596D01*
X309985Y291649D01*
X309954Y291700D01*
X309925Y291747D01*
X309898Y291791D01*
X309876Y291831D01*
X309856Y291864D01*
X309841Y291891D01*
X309834Y291902D01*
X309829Y291911D01*
X309825Y291920D01*
X309821Y291926D01*
X309820Y291928D01*
Y291929D01*
X309781Y292002D01*
X309747Y292077D01*
X309712Y292150D01*
X309681Y292221D01*
X309654Y292290D01*
X309627Y292357D01*
X309603Y292421D01*
X309581Y292481D01*
X309563Y292537D01*
X309547Y292586D01*
X309532Y292632D01*
X309521Y292668D01*
X309516Y292685D01*
X309512Y292699D01*
X309508Y292712D01*
X309505Y292723D01*
X309503Y292730D01*
X309501Y292736D01*
X309499Y292739D01*
Y292741D01*
X309479Y292817D01*
X309463Y292892D01*
X309448Y292963D01*
X309434Y293031D01*
X309423Y293094D01*
X309414Y293152D01*
X309406Y293207D01*
X309401Y293258D01*
X309396Y293302D01*
X309392Y293342D01*
X309388Y293376D01*
X309386Y293405D01*
Y293427D01*
X309385Y293445D01*
Y293455D01*
Y293458D01*
X309703D01*
X309709Y293389D01*
D02*
G37*
G36*
X294048Y329098D02*
X294113Y329095D01*
X294177Y329087D01*
X294237Y329080D01*
X294297Y329069D01*
X294352Y329058D01*
X294405Y329045D01*
X294454Y329033D01*
X294497Y329022D01*
X294537Y329009D01*
X294572Y328998D01*
X294601Y328987D01*
X294625Y328980D01*
X294641Y328973D01*
X294652Y328969D01*
X294654Y328967D01*
X294656D01*
X294712Y328942D01*
X294767Y328913D01*
X294816Y328882D01*
X294863Y328851D01*
X294905Y328818D01*
X294945Y328785D01*
X294980Y328754D01*
X295012Y328723D01*
X295042Y328694D01*
X295065Y328667D01*
X295087Y328643D01*
X295104Y328621D01*
X295116Y328603D01*
X295127Y328590D01*
X295133Y328583D01*
X295134Y328579D01*
X295163Y328530D01*
X295189Y328478D01*
X295211Y328423D01*
X295231Y328368D01*
X295245Y328314D01*
X295260Y328257D01*
X295271Y328205D01*
X295280Y328152D01*
X295286Y328104D01*
X295291Y328059D01*
X295295Y328019D01*
X295298Y327984D01*
Y327957D01*
X295300Y327944D01*
Y327917D01*
X295298Y327844D01*
X295291Y327775D01*
X295280Y327710D01*
X295267Y327646D01*
X295251Y327588D01*
X295233Y327533D01*
X295213Y327482D01*
X295193Y327437D01*
X295173Y327395D01*
X295153Y327358D01*
X295134Y327326D01*
X295118Y327300D01*
X295105Y327278D01*
X295094Y327264D01*
X295087Y327255D01*
X295085Y327251D01*
X295042Y327202D01*
X294996Y327156D01*
X294947Y327114D01*
X294896Y327076D01*
X294843Y327042D01*
X294792Y327011D01*
X294741Y326983D01*
X294690Y326960D01*
X294643Y326938D01*
X294599Y326920D01*
X294561Y326905D01*
X294527Y326892D01*
X294499Y326883D01*
X294486Y326880D01*
X294477Y326878D01*
X294470Y326876D01*
X294465Y326874D01*
X294461Y326872D01*
X294459D01*
X294375Y327205D01*
X294434Y327220D01*
X294486Y327236D01*
X294537Y327255D01*
X294583Y327276D01*
X294627Y327296D01*
X294667Y327320D01*
X294701Y327342D01*
X294734Y327364D01*
X294761Y327384D01*
X294787Y327404D01*
X294807Y327422D01*
X294823Y327438D01*
X294838Y327451D01*
X294847Y327460D01*
X294852Y327467D01*
X294854Y327469D01*
X294881Y327507D01*
X294907Y327546D01*
X294929Y327586D01*
X294947Y327626D01*
X294962Y327666D01*
X294974Y327706D01*
X294985Y327744D01*
X294994Y327781D01*
X295002Y327813D01*
X295005Y327846D01*
X295009Y327873D01*
X295012Y327897D01*
Y327917D01*
X295014Y327932D01*
Y327944D01*
X295012Y327986D01*
X295009Y328028D01*
X295003Y328068D01*
X294996Y328108D01*
X294987Y328145D01*
X294976Y328181D01*
X294967Y328214D01*
X294954Y328245D01*
X294943Y328272D01*
X294934Y328297D01*
X294923Y328319D01*
X294914Y328338D01*
X294907Y328352D01*
X294901Y328363D01*
X294898Y328370D01*
X294896Y328372D01*
X294872Y328408D01*
X294847Y328441D01*
X294820Y328472D01*
X294790Y328501D01*
X294761Y328527D01*
X294730Y328550D01*
X294701Y328572D01*
X294674Y328592D01*
X294647Y328609D01*
X294621Y328623D01*
X294598Y328636D01*
X294578Y328645D01*
X294561Y328654D01*
X294550Y328660D01*
X294541Y328661D01*
X294539Y328663D01*
X294494Y328680D01*
X294446Y328694D01*
X294399Y328707D01*
X294350Y328716D01*
X294257Y328734D01*
X294212Y328740D01*
X294168Y328745D01*
X294130Y328749D01*
X294093Y328751D01*
X294061Y328752D01*
X294033Y328754D01*
X294010Y328756D01*
X293993D01*
X293982D01*
X293979D01*
X293931Y328754D01*
X293886Y328752D01*
X293798Y328743D01*
X293757Y328738D01*
X293717Y328731D01*
X293678Y328723D01*
X293644Y328716D01*
X293611Y328709D01*
X293582Y328703D01*
X293556Y328696D01*
X293535Y328691D01*
X293518Y328685D01*
X293506Y328681D01*
X293496Y328678D01*
X293495D01*
X293451Y328661D01*
X293411Y328643D01*
X293373Y328623D01*
X293338Y328601D01*
X293303Y328579D01*
X293273Y328558D01*
X293245Y328534D01*
X293220Y328512D01*
X293198Y328490D01*
X293178Y328470D01*
X293162Y328452D01*
X293147Y328436D01*
X293136Y328423D01*
X293127Y328414D01*
X293123Y328407D01*
X293122Y328405D01*
X293096Y328367D01*
X293076Y328327D01*
X293056Y328287D01*
X293040Y328246D01*
X293027Y328205D01*
X293016Y328165D01*
X293007Y328126D01*
X293000Y328088D01*
X292992Y328053D01*
X292989Y328021D01*
X292985Y327992D01*
X292983Y327966D01*
X292981Y327946D01*
Y327919D01*
X292983Y327871D01*
X292987Y327828D01*
X292992Y327786D01*
X293001Y327746D01*
X293010Y327710D01*
X293021Y327675D01*
X293032Y327644D01*
X293043Y327615D01*
X293056Y327589D01*
X293067Y327566D01*
X293078Y327546D01*
X293087Y327529D01*
X293096Y327517D01*
X293102Y327507D01*
X293105Y327502D01*
X293107Y327500D01*
X293132Y327469D01*
X293160Y327440D01*
X293191Y327415D01*
X293222Y327389D01*
X293256Y327366D01*
X293289Y327346D01*
X293322Y327326D01*
X293355Y327309D01*
X293385Y327295D01*
X293414Y327280D01*
X293440Y327269D01*
X293462Y327260D01*
X293482Y327253D01*
X293495Y327247D01*
X293504Y327245D01*
X293507Y327244D01*
X293431Y326916D01*
X293367Y326936D01*
X293307Y326961D01*
X293251Y326987D01*
X293198Y327016D01*
X293151Y327045D01*
X293105Y327074D01*
X293065Y327105D01*
X293029Y327134D01*
X292996Y327164D01*
X292969Y327189D01*
X292943Y327213D01*
X292925Y327235D01*
X292909Y327251D01*
X292898Y327266D01*
X292890Y327273D01*
X292888Y327276D01*
X292854Y327326D01*
X292825Y327377D01*
X292799Y327431D01*
X292777Y327484D01*
X292758Y327537D01*
X292743Y327589D01*
X292730Y327640D01*
X292719Y327690D01*
X292712Y327737D01*
X292706Y327779D01*
X292701Y327815D01*
X292699Y327848D01*
X292697Y327875D01*
X292696Y327886D01*
Y327912D01*
X292697Y327974D01*
X292703Y328033D01*
X292710Y328092D01*
X292719Y328148D01*
X292730Y328201D01*
X292745Y328252D01*
X292758Y328299D01*
X292772Y328343D01*
X292787Y328381D01*
X292799Y328417D01*
X292812Y328449D01*
X292825Y328474D01*
X292834Y328496D01*
X292841Y328510D01*
X292847Y328520D01*
X292848Y328523D01*
X292879Y328574D01*
X292912Y328621D01*
X292947Y328665D01*
X292983Y328707D01*
X293020Y328745D01*
X293056Y328780D01*
X293094Y328813D01*
X293129Y328840D01*
X293162Y328865D01*
X293194Y328889D01*
X293222Y328907D01*
X293245Y328924D01*
X293267Y328934D01*
X293282Y328943D01*
X293291Y328949D01*
X293294Y328951D01*
X293351Y328976D01*
X293407Y329000D01*
X293465Y329020D01*
X293524Y329036D01*
X293582Y329051D01*
X293640Y329064D01*
X293695Y329073D01*
X293746Y329082D01*
X293795Y329087D01*
X293840Y329093D01*
X293880Y329095D01*
X293915Y329098D01*
X293942D01*
X293953Y329100D01*
X293962D01*
X293970D01*
X293975D01*
X293979D01*
X293981D01*
X294048Y329098D01*
D02*
G37*
G36*
X293640Y326297D02*
X293615Y326241D01*
X293589Y326186D01*
X293564Y326135D01*
X293551Y326113D01*
X293540Y326092D01*
X293529Y326073D01*
X293520Y326059D01*
X293515Y326046D01*
X293509Y326035D01*
X293506Y326030D01*
X293504Y326028D01*
X293464Y325962D01*
X293444Y325933D01*
X293425Y325904D01*
X293405Y325879D01*
X293389Y325855D01*
X293371Y325833D01*
X293356Y325811D01*
X293342Y325795D01*
X293329Y325779D01*
X293316Y325764D01*
X293307Y325753D01*
X293300Y325744D01*
X293294Y325739D01*
X293291Y325735D01*
X293289Y325733D01*
X295258D01*
Y325424D01*
X292730D01*
Y325624D01*
X292761Y325640D01*
X292792Y325658D01*
X292852Y325700D01*
X292909Y325746D01*
X292936Y325769D01*
X292961Y325791D01*
X292983Y325813D01*
X293005Y325833D01*
X293023Y325851D01*
X293040Y325868D01*
X293052Y325881D01*
X293061Y325890D01*
X293067Y325897D01*
X293069Y325899D01*
X293131Y325973D01*
X293187Y326051D01*
X293238Y326128D01*
X293260Y326164D01*
X293282Y326199D01*
X293300Y326230D01*
X293316Y326259D01*
X293331Y326286D01*
X293342Y326308D01*
X293351Y326326D01*
X293358Y326341D01*
X293362Y326348D01*
X293364Y326352D01*
X293662D01*
X293640Y326297D01*
D02*
G37*
G36*
X295258Y323007D02*
X294962D01*
Y324241D01*
X294931Y324221D01*
X294900Y324199D01*
X294872Y324177D01*
X294847Y324157D01*
X294827Y324139D01*
X294811Y324124D01*
X294799Y324115D01*
X294796Y324111D01*
X294778Y324095D01*
X294758Y324073D01*
X294736Y324049D01*
X294710Y324022D01*
X294685Y323993D01*
X294658Y323964D01*
X294605Y323902D01*
X294579Y323873D01*
X294556Y323846D01*
X294534Y323822D01*
X294516Y323798D01*
X294499Y323780D01*
X294488Y323767D01*
X294479Y323758D01*
X294477Y323755D01*
X294426Y323695D01*
X294377Y323638D01*
X294332Y323587D01*
X294290Y323540D01*
X294250Y323496D01*
X294214Y323458D01*
X294181Y323422D01*
X294152Y323391D01*
X294124Y323363D01*
X294101Y323342D01*
X294081Y323322D01*
X294064Y323305D01*
X294052Y323292D01*
X294042Y323285D01*
X294037Y323280D01*
X294035Y323278D01*
X294004Y323252D01*
X293975Y323227D01*
X293946Y323205D01*
X293919Y323185D01*
X293866Y323149D01*
X293842Y323134D01*
X293820Y323121D01*
X293800Y323109D01*
X293782Y323099D01*
X293766Y323090D01*
X293753Y323085D01*
X293742Y323079D01*
X293735Y323076D01*
X293729Y323072D01*
X293728D01*
X293673Y323052D01*
X293620Y323036D01*
X293569Y323025D01*
X293524Y323018D01*
X293504Y323016D01*
X293485Y323014D01*
X293471Y323012D01*
X293456Y323010D01*
X293445D01*
X293438D01*
X293433D01*
X293431D01*
X293376Y323012D01*
X293323Y323019D01*
X293274Y323030D01*
X293227Y323043D01*
X293183Y323060D01*
X293142Y323078D01*
X293103Y323098D01*
X293069Y323116D01*
X293038Y323136D01*
X293010Y323156D01*
X292987Y323174D01*
X292969Y323190D01*
X292952Y323203D01*
X292941Y323214D01*
X292934Y323221D01*
X292932Y323223D01*
X292896Y323265D01*
X292865Y323309D01*
X292839Y323354D01*
X292816Y323402D01*
X292796Y323449D01*
X292779Y323498D01*
X292767Y323544D01*
X292756Y323589D01*
X292747Y323631D01*
X292741Y323671D01*
X292736Y323706D01*
X292734Y323737D01*
X292732Y323762D01*
X292730Y323780D01*
Y323797D01*
X292732Y323862D01*
X292738Y323924D01*
X292747Y323982D01*
X292759Y324037D01*
X292774Y324088D01*
X292790Y324135D01*
X292807Y324177D01*
X292823Y324217D01*
X292841Y324252D01*
X292858Y324283D01*
X292874Y324308D01*
X292888Y324330D01*
X292899Y324346D01*
X292910Y324359D01*
X292916Y324366D01*
X292918Y324368D01*
X292954Y324406D01*
X292994Y324439D01*
X293036Y324470D01*
X293080Y324495D01*
X293125Y324519D01*
X293171Y324539D01*
X293214Y324555D01*
X293258Y324570D01*
X293298Y324581D01*
X293336Y324590D01*
X293371Y324597D01*
X293400Y324603D01*
X293424Y324608D01*
X293442Y324610D01*
X293449D01*
X293455Y324612D01*
X293456D01*
X293458D01*
X293491Y324293D01*
X293447Y324292D01*
X293407Y324288D01*
X293369Y324281D01*
X293333Y324273D01*
X293300Y324262D01*
X293271Y324252D01*
X293242Y324239D01*
X293218Y324226D01*
X293196Y324215D01*
X293176Y324202D01*
X293160Y324191D01*
X293145Y324181D01*
X293136Y324173D01*
X293127Y324166D01*
X293123Y324162D01*
X293122Y324161D01*
X293098Y324135D01*
X293078Y324106D01*
X293060Y324077D01*
X293043Y324048D01*
X293031Y324017D01*
X293020Y323988D01*
X293010Y323958D01*
X293003Y323931D01*
X292998Y323904D01*
X292994Y323880D01*
X292990Y323858D01*
X292989Y323838D01*
X292987Y323824D01*
Y323802D01*
X292989Y323764D01*
X292992Y323727D01*
X292998Y323693D01*
X293007Y323660D01*
X293016Y323631D01*
X293027Y323602D01*
X293038Y323576D01*
X293051Y323553D01*
X293061Y323533D01*
X293074Y323515D01*
X293085Y323498D01*
X293094Y323485D01*
X293103Y323474D01*
X293109Y323467D01*
X293112Y323464D01*
X293114Y323462D01*
X293138Y323438D01*
X293163Y323418D01*
X293189Y323400D01*
X293216Y323385D01*
X293242Y323373D01*
X293267Y323362D01*
X293293Y323353D01*
X293316Y323345D01*
X293338Y323340D01*
X293358Y323336D01*
X293376Y323333D01*
X293393Y323331D01*
X293405Y323329D01*
X293414D01*
X293422D01*
X293424D01*
X293456Y323331D01*
X293489Y323334D01*
X293522Y323342D01*
X293555Y323351D01*
X293618Y323374D01*
X293648Y323389D01*
X293675Y323402D01*
X293700Y323414D01*
X293724Y323429D01*
X293744Y323440D01*
X293762Y323451D01*
X293775Y323462D01*
X293786Y323469D01*
X293793Y323473D01*
X293795Y323474D01*
X293833Y323503D01*
X293875Y323540D01*
X293917Y323578D01*
X293960Y323622D01*
X294006Y323665D01*
X294050Y323713D01*
X294093Y323758D01*
X294135Y323806D01*
X294175Y323849D01*
X294212Y323891D01*
X294246Y323928D01*
X294274Y323962D01*
X294297Y323990D01*
X294306Y324000D01*
X294315Y324009D01*
X294321Y324017D01*
X294326Y324022D01*
X294328Y324026D01*
X294330Y324028D01*
X294370Y324075D01*
X294408Y324120D01*
X294445Y324162D01*
X294479Y324202D01*
X294514Y324239D01*
X294545Y324272D01*
X294574Y324301D01*
X294601Y324328D01*
X294625Y324354D01*
X294647Y324374D01*
X294665Y324392D01*
X294681Y324406D01*
X294694Y324417D01*
X294703Y324425D01*
X294708Y324430D01*
X294710Y324432D01*
X294772Y324481D01*
X294832Y324523D01*
X294889Y324557D01*
X294914Y324574D01*
X294940Y324586D01*
X294962Y324597D01*
X294982Y324608D01*
X295000Y324617D01*
X295016Y324623D01*
X295029Y324628D01*
X295038Y324632D01*
X295043Y324636D01*
X295045D01*
X295083Y324648D01*
X295122Y324657D01*
X295158Y324663D01*
X295189Y324667D01*
X295218Y324668D01*
X295229Y324670D01*
X295240D01*
X295247D01*
X295253D01*
X295256D01*
X295258D01*
Y323007D01*
D02*
G37*
G36*
X226219Y291068D02*
X226280Y291062D01*
X226339Y291053D01*
X226393Y291041D01*
X226444Y291026D01*
X226492Y291010D01*
X226533Y290993D01*
X226573Y290977D01*
X226608Y290959D01*
X226639Y290942D01*
X226664Y290926D01*
X226686Y290912D01*
X226703Y290900D01*
X226715Y290890D01*
X226723Y290884D01*
X226725Y290882D01*
X226763Y290846D01*
X226796Y290806D01*
X226827Y290764D01*
X226852Y290720D01*
X226876Y290675D01*
X226896Y290629D01*
X226912Y290586D01*
X226927Y290542D01*
X226938Y290502D01*
X226947Y290464D01*
X226954Y290429D01*
X226959Y290400D01*
X226965Y290376D01*
X226967Y290358D01*
Y290351D01*
X226968Y290345D01*
Y290344D01*
Y290342D01*
X226650Y290309D01*
X226648Y290353D01*
X226644Y290393D01*
X226637Y290431D01*
X226630Y290467D01*
X226619Y290500D01*
X226608Y290529D01*
X226595Y290558D01*
X226583Y290582D01*
X226572Y290604D01*
X226559Y290624D01*
X226548Y290640D01*
X226537Y290655D01*
X226530Y290664D01*
X226522Y290673D01*
X226519Y290677D01*
X226517Y290679D01*
X226492Y290702D01*
X226463Y290722D01*
X226433Y290740D01*
X226404Y290757D01*
X226373Y290770D01*
X226344Y290780D01*
X226315Y290790D01*
X226288Y290797D01*
X226260Y290802D01*
X226237Y290806D01*
X226215Y290809D01*
X226195Y290811D01*
X226180Y290813D01*
X226158D01*
X226120Y290811D01*
X226084Y290808D01*
X226049Y290802D01*
X226017Y290793D01*
X225987Y290784D01*
X225958Y290773D01*
X225933Y290762D01*
X225909Y290750D01*
X225889Y290739D01*
X225871Y290726D01*
X225855Y290715D01*
X225842Y290706D01*
X225831Y290697D01*
X225824Y290691D01*
X225820Y290688D01*
X225818Y290686D01*
X225795Y290662D01*
X225775Y290637D01*
X225756Y290611D01*
X225742Y290584D01*
X225729Y290558D01*
X225718Y290533D01*
X225709Y290507D01*
X225702Y290484D01*
X225696Y290462D01*
X225693Y290442D01*
X225689Y290424D01*
X225687Y290407D01*
X225685Y290395D01*
Y290386D01*
Y290378D01*
Y290376D01*
X225687Y290344D01*
X225691Y290311D01*
X225698Y290278D01*
X225707Y290245D01*
X225731Y290182D01*
X225745Y290153D01*
X225758Y290125D01*
X225771Y290100D01*
X225785Y290076D01*
X225796Y290056D01*
X225807Y290038D01*
X225818Y290025D01*
X225826Y290014D01*
X225829Y290007D01*
X225831Y290005D01*
X225860Y289967D01*
X225897Y289925D01*
X225935Y289883D01*
X225978Y289840D01*
X226022Y289794D01*
X226069Y289750D01*
X226115Y289707D01*
X226162Y289665D01*
X226206Y289625D01*
X226248Y289588D01*
X226284Y289554D01*
X226319Y289526D01*
X226346Y289503D01*
X226357Y289494D01*
X226366Y289485D01*
X226373Y289479D01*
X226379Y289474D01*
X226382Y289472D01*
X226384Y289470D01*
X226431Y289430D01*
X226477Y289392D01*
X226519Y289355D01*
X226559Y289321D01*
X226595Y289286D01*
X226628Y289255D01*
X226657Y289226D01*
X226684Y289199D01*
X226710Y289175D01*
X226730Y289153D01*
X226748Y289135D01*
X226763Y289119D01*
X226774Y289106D01*
X226781Y289097D01*
X226786Y289091D01*
X226788Y289090D01*
X226837Y289028D01*
X226879Y288968D01*
X226914Y288911D01*
X226930Y288886D01*
X226943Y288860D01*
X226954Y288839D01*
X226965Y288818D01*
X226974Y288800D01*
X226979Y288784D01*
X226985Y288771D01*
X226989Y288762D01*
X226992Y288757D01*
Y288755D01*
X227005Y288717D01*
X227014Y288678D01*
X227019Y288642D01*
X227023Y288611D01*
X227025Y288582D01*
X227027Y288571D01*
Y288560D01*
Y288553D01*
Y288547D01*
Y288544D01*
Y288542D01*
X225363D01*
Y288839D01*
X226597D01*
X226577Y288869D01*
X226555Y288900D01*
X226533Y288928D01*
X226513Y288953D01*
X226495Y288973D01*
X226481Y288989D01*
X226472Y289001D01*
X226468Y289004D01*
X226451Y289022D01*
X226430Y289042D01*
X226406Y289064D01*
X226379Y289090D01*
X226350Y289115D01*
X226321Y289142D01*
X226259Y289195D01*
X226230Y289221D01*
X226202Y289244D01*
X226179Y289266D01*
X226155Y289284D01*
X226137Y289301D01*
X226124Y289312D01*
X226115Y289321D01*
X226111Y289323D01*
X226051Y289373D01*
X225995Y289423D01*
X225944Y289468D01*
X225897Y289510D01*
X225853Y289550D01*
X225815Y289586D01*
X225778Y289619D01*
X225747Y289648D01*
X225720Y289676D01*
X225698Y289699D01*
X225678Y289719D01*
X225662Y289736D01*
X225649Y289749D01*
X225642Y289758D01*
X225636Y289763D01*
X225634Y289765D01*
X225609Y289796D01*
X225583Y289825D01*
X225562Y289854D01*
X225542Y289881D01*
X225505Y289934D01*
X225491Y289958D01*
X225478Y289980D01*
X225465Y290000D01*
X225456Y290018D01*
X225447Y290034D01*
X225441Y290047D01*
X225436Y290058D01*
X225432Y290065D01*
X225429Y290071D01*
Y290072D01*
X225409Y290127D01*
X225392Y290180D01*
X225381Y290231D01*
X225374Y290276D01*
X225372Y290296D01*
X225371Y290315D01*
X225369Y290329D01*
X225367Y290344D01*
Y290354D01*
Y290362D01*
Y290367D01*
Y290369D01*
X225369Y290424D01*
X225376Y290476D01*
X225387Y290526D01*
X225400Y290573D01*
X225416Y290617D01*
X225434Y290658D01*
X225454Y290697D01*
X225472Y290731D01*
X225492Y290762D01*
X225512Y290790D01*
X225531Y290813D01*
X225547Y290831D01*
X225560Y290848D01*
X225571Y290859D01*
X225578Y290866D01*
X225580Y290868D01*
X225622Y290904D01*
X225665Y290935D01*
X225711Y290961D01*
X225758Y290984D01*
X225805Y291004D01*
X225855Y291021D01*
X225900Y291033D01*
X225946Y291044D01*
X225987Y291053D01*
X226027Y291059D01*
X226062Y291064D01*
X226093Y291066D01*
X226118Y291068D01*
X226137Y291070D01*
X226153D01*
X226219Y291068D01*
D02*
G37*
G36*
X228374Y291103D02*
X228433Y291097D01*
X228492Y291090D01*
X228548Y291081D01*
X228601Y291070D01*
X228652Y291055D01*
X228699Y291042D01*
X228743Y291028D01*
X228781Y291013D01*
X228818Y291001D01*
X228849Y290988D01*
X228874Y290975D01*
X228896Y290966D01*
X228910Y290959D01*
X228920Y290953D01*
X228923Y290951D01*
X228974Y290921D01*
X229021Y290888D01*
X229065Y290853D01*
X229107Y290817D01*
X229145Y290780D01*
X229180Y290744D01*
X229212Y290706D01*
X229240Y290671D01*
X229265Y290638D01*
X229289Y290606D01*
X229307Y290578D01*
X229324Y290555D01*
X229334Y290533D01*
X229344Y290518D01*
X229349Y290509D01*
X229351Y290506D01*
X229376Y290449D01*
X229400Y290393D01*
X229420Y290335D01*
X229436Y290276D01*
X229451Y290218D01*
X229464Y290160D01*
X229473Y290105D01*
X229482Y290054D01*
X229487Y290005D01*
X229493Y289960D01*
X229495Y289919D01*
X229498Y289885D01*
Y289858D01*
X229500Y289847D01*
Y289838D01*
Y289830D01*
Y289825D01*
Y289821D01*
Y289820D01*
X229498Y289752D01*
X229495Y289687D01*
X229487Y289623D01*
X229480Y289563D01*
X229469Y289503D01*
X229458Y289448D01*
X229445Y289395D01*
X229433Y289346D01*
X229422Y289303D01*
X229409Y289263D01*
X229398Y289228D01*
X229387Y289199D01*
X229380Y289175D01*
X229373Y289159D01*
X229369Y289148D01*
X229367Y289146D01*
Y289144D01*
X229342Y289088D01*
X229313Y289033D01*
X229282Y288984D01*
X229251Y288937D01*
X229218Y288895D01*
X229185Y288855D01*
X229154Y288820D01*
X229123Y288788D01*
X229094Y288758D01*
X229067Y288735D01*
X229043Y288713D01*
X229021Y288697D01*
X229003Y288684D01*
X228991Y288673D01*
X228983Y288667D01*
X228979Y288666D01*
X228930Y288636D01*
X228878Y288611D01*
X228823Y288589D01*
X228768Y288569D01*
X228714Y288555D01*
X228657Y288540D01*
X228605Y288529D01*
X228552Y288520D01*
X228504Y288514D01*
X228459Y288509D01*
X228419Y288505D01*
X228384Y288502D01*
X228357D01*
X228344Y288500D01*
X228317D01*
X228244Y288502D01*
X228175Y288509D01*
X228110Y288520D01*
X228046Y288533D01*
X227988Y288549D01*
X227933Y288567D01*
X227882Y288587D01*
X227837Y288607D01*
X227795Y288627D01*
X227758Y288647D01*
X227726Y288666D01*
X227700Y288682D01*
X227678Y288695D01*
X227664Y288706D01*
X227655Y288713D01*
X227651Y288715D01*
X227602Y288758D01*
X227556Y288804D01*
X227514Y288853D01*
X227476Y288904D01*
X227442Y288957D01*
X227411Y289008D01*
X227383Y289059D01*
X227360Y289110D01*
X227338Y289157D01*
X227320Y289201D01*
X227305Y289239D01*
X227292Y289274D01*
X227283Y289301D01*
X227280Y289314D01*
X227278Y289323D01*
X227276Y289330D01*
X227274Y289335D01*
X227272Y289339D01*
Y289341D01*
X227605Y289424D01*
X227620Y289366D01*
X227636Y289314D01*
X227655Y289263D01*
X227676Y289217D01*
X227696Y289173D01*
X227720Y289133D01*
X227742Y289099D01*
X227764Y289066D01*
X227784Y289039D01*
X227804Y289013D01*
X227822Y288993D01*
X227838Y288977D01*
X227851Y288962D01*
X227860Y288953D01*
X227868Y288948D01*
X227869Y288946D01*
X227907Y288919D01*
X227946Y288893D01*
X227986Y288871D01*
X228026Y288853D01*
X228066Y288839D01*
X228106Y288826D01*
X228144Y288815D01*
X228181Y288806D01*
X228213Y288798D01*
X228246Y288795D01*
X228273Y288791D01*
X228297Y288788D01*
X228317D01*
X228332Y288786D01*
X228344D01*
X228386Y288788D01*
X228428Y288791D01*
X228468Y288797D01*
X228508Y288804D01*
X228544Y288813D01*
X228581Y288824D01*
X228614Y288833D01*
X228645Y288846D01*
X228672Y288857D01*
X228697Y288866D01*
X228719Y288877D01*
X228737Y288886D01*
X228752Y288893D01*
X228763Y288898D01*
X228770Y288902D01*
X228772Y288904D01*
X228808Y288928D01*
X228841Y288953D01*
X228872Y288980D01*
X228901Y289009D01*
X228927Y289039D01*
X228950Y289070D01*
X228972Y289099D01*
X228992Y289126D01*
X229009Y289153D01*
X229023Y289179D01*
X229036Y289202D01*
X229045Y289223D01*
X229054Y289239D01*
X229060Y289250D01*
X229061Y289259D01*
X229063Y289261D01*
X229080Y289306D01*
X229094Y289353D01*
X229107Y289401D01*
X229116Y289450D01*
X229134Y289543D01*
X229140Y289588D01*
X229145Y289632D01*
X229149Y289670D01*
X229151Y289707D01*
X229152Y289739D01*
X229154Y289767D01*
X229156Y289790D01*
Y289807D01*
Y289818D01*
Y289821D01*
X229154Y289869D01*
X229152Y289914D01*
X229143Y290002D01*
X229138Y290043D01*
X229131Y290083D01*
X229123Y290122D01*
X229116Y290156D01*
X229109Y290189D01*
X229103Y290218D01*
X229096Y290244D01*
X229090Y290265D01*
X229085Y290282D01*
X229081Y290295D01*
X229078Y290304D01*
Y290305D01*
X229061Y290349D01*
X229043Y290389D01*
X229023Y290427D01*
X229001Y290462D01*
X228979Y290496D01*
X228958Y290527D01*
X228934Y290555D01*
X228912Y290580D01*
X228890Y290602D01*
X228870Y290622D01*
X228852Y290638D01*
X228836Y290653D01*
X228823Y290664D01*
X228814Y290673D01*
X228807Y290677D01*
X228805Y290679D01*
X228767Y290704D01*
X228727Y290724D01*
X228686Y290744D01*
X228646Y290760D01*
X228605Y290773D01*
X228565Y290784D01*
X228526Y290793D01*
X228488Y290800D01*
X228453Y290808D01*
X228421Y290811D01*
X228392Y290815D01*
X228366Y290817D01*
X228346Y290819D01*
X228319D01*
X228272Y290817D01*
X228228Y290813D01*
X228186Y290808D01*
X228146Y290799D01*
X228110Y290790D01*
X228075Y290779D01*
X228044Y290768D01*
X228015Y290757D01*
X227989Y290744D01*
X227966Y290733D01*
X227946Y290722D01*
X227929Y290713D01*
X227917Y290704D01*
X227907Y290699D01*
X227902Y290695D01*
X227900Y290693D01*
X227869Y290668D01*
X227840Y290640D01*
X227815Y290609D01*
X227789Y290578D01*
X227766Y290544D01*
X227746Y290511D01*
X227726Y290478D01*
X227709Y290445D01*
X227695Y290415D01*
X227680Y290386D01*
X227669Y290360D01*
X227660Y290338D01*
X227653Y290318D01*
X227647Y290305D01*
X227645Y290296D01*
X227644Y290293D01*
X227316Y290369D01*
X227336Y290433D01*
X227361Y290493D01*
X227387Y290549D01*
X227416Y290602D01*
X227445Y290649D01*
X227474Y290695D01*
X227505Y290735D01*
X227535Y290771D01*
X227564Y290804D01*
X227589Y290831D01*
X227613Y290857D01*
X227635Y290875D01*
X227651Y290891D01*
X227665Y290902D01*
X227673Y290910D01*
X227676Y290912D01*
X227726Y290946D01*
X227777Y290975D01*
X227831Y291001D01*
X227884Y291022D01*
X227937Y291042D01*
X227989Y291057D01*
X228040Y291070D01*
X228090Y291081D01*
X228137Y291088D01*
X228179Y291093D01*
X228215Y291099D01*
X228248Y291101D01*
X228275Y291103D01*
X228286Y291104D01*
X228312D01*
X228374Y291103D01*
D02*
G37*
G36*
X252587Y306380D02*
X252556Y306363D01*
X252525Y306345D01*
X252465Y306303D01*
X252409Y306258D01*
X252381Y306234D01*
X252356Y306212D01*
X252334Y306190D01*
X252312Y306170D01*
X252294Y306152D01*
X252277Y306136D01*
X252265Y306123D01*
X252256Y306114D01*
X252250Y306107D01*
X252248Y306105D01*
X252186Y306030D01*
X252130Y305952D01*
X252079Y305876D01*
X252057Y305839D01*
X252035Y305805D01*
X252017Y305774D01*
X252001Y305745D01*
X251986Y305717D01*
X251975Y305695D01*
X251966Y305677D01*
X251959Y305663D01*
X251955Y305655D01*
X251954Y305652D01*
X251655D01*
X251677Y305706D01*
X251702Y305763D01*
X251728Y305817D01*
X251753Y305868D01*
X251766Y305890D01*
X251777Y305912D01*
X251788Y305930D01*
X251797Y305945D01*
X251802Y305958D01*
X251808Y305968D01*
X251812Y305974D01*
X251813Y305976D01*
X251853Y306041D01*
X251873Y306070D01*
X251892Y306100D01*
X251912Y306125D01*
X251928Y306149D01*
X251946Y306170D01*
X251961Y306192D01*
X251975Y306209D01*
X251988Y306225D01*
X252001Y306240D01*
X252010Y306251D01*
X252017Y306260D01*
X252023Y306265D01*
X252026Y306269D01*
X252028Y306271D01*
X250059D01*
Y306580D01*
X252587D01*
Y306380D01*
D02*
G37*
G36*
X251393Y305080D02*
X251453Y305078D01*
X251511Y305073D01*
X251566Y305066D01*
X251619Y305058D01*
X251668Y305051D01*
X251715Y305042D01*
X251757Y305033D01*
X251795Y305022D01*
X251830Y305013D01*
X251859Y305006D01*
X251884Y304998D01*
X251904Y304991D01*
X251917Y304986D01*
X251926Y304984D01*
X251930Y304982D01*
X251977Y304962D01*
X252025Y304940D01*
X252066Y304918D01*
X252108Y304895D01*
X252146Y304869D01*
X252181Y304844D01*
X252214Y304820D01*
X252245Y304796D01*
X252270Y304773D01*
X252294Y304753D01*
X252314Y304733D01*
X252330Y304716D01*
X252343Y304703D01*
X252354Y304693D01*
X252359Y304685D01*
X252361Y304683D01*
X252385Y304654D01*
X252407Y304623D01*
X252443Y304562D01*
X252476Y304500D01*
X252500Y304443D01*
X252510Y304416D01*
X252518Y304392D01*
X252525Y304370D01*
X252532Y304352D01*
X252536Y304336D01*
X252539Y304325D01*
X252541Y304318D01*
Y304316D01*
X252549Y304285D01*
X252554Y304252D01*
X252558Y304218D01*
X252563Y304181D01*
X252569Y304107D01*
X252574Y304034D01*
Y303999D01*
X252576Y303968D01*
Y303939D01*
X252578Y303916D01*
Y303000D01*
X250059D01*
Y303908D01*
X250061Y303990D01*
X250062Y304030D01*
X250066Y304066D01*
X250068Y304103D01*
X250072Y304136D01*
X250075Y304167D01*
X250081Y304196D01*
X250084Y304221D01*
X250088Y304245D01*
X250092Y304265D01*
X250094Y304281D01*
X250097Y304294D01*
X250099Y304305D01*
X250101Y304310D01*
Y304312D01*
X250119Y304376D01*
X250139Y304434D01*
X250150Y304460D01*
X250159Y304485D01*
X250170Y304507D01*
X250181Y304529D01*
X250190Y304547D01*
X250199Y304563D01*
X250206Y304578D01*
X250214Y304591D01*
X250219Y304600D01*
X250223Y304607D01*
X250226Y304611D01*
Y304612D01*
X250261Y304658D01*
X250297Y304702D01*
X250336Y304740D01*
X250372Y304774D01*
X250405Y304802D01*
X250419Y304815D01*
X250432Y304824D01*
X250441Y304831D01*
X250450Y304836D01*
X250454Y304840D01*
X250456Y304842D01*
X250514Y304880D01*
X250574Y304913D01*
X250636Y304944D01*
X250694Y304967D01*
X250719Y304978D01*
X250745Y304987D01*
X250767Y304996D01*
X250785Y305002D01*
X250800Y305008D01*
X250812Y305011D01*
X250820Y305015D01*
X250821D01*
X250907Y305037D01*
X250994Y305053D01*
X251080Y305066D01*
X251122Y305069D01*
X251160Y305073D01*
X251196Y305077D01*
X251229Y305078D01*
X251258Y305080D01*
X251282D01*
X251304Y305082D01*
X251318D01*
X251327D01*
X251331D01*
X251393Y305080D01*
D02*
G37*
G36*
X224334Y312559D02*
X224375Y312555D01*
X224415Y312549D01*
X224454Y312540D01*
X224490Y312531D01*
X224523Y312522D01*
X224554Y312509D01*
X224583Y312498D01*
X224608Y312488D01*
X224630Y312477D01*
X224648Y312466D01*
X224665Y312457D01*
X224677Y312448D01*
X224687Y312442D01*
X224692Y312438D01*
X224694Y312437D01*
X224723Y312413D01*
X224750Y312386D01*
X224774Y312358D01*
X224796Y312331D01*
X224816Y312302D01*
X224832Y312273D01*
X224849Y312244D01*
X224861Y312216D01*
X224874Y312191D01*
X224883Y312167D01*
X224892Y312145D01*
X224898Y312125D01*
X224903Y312111D01*
X224907Y312098D01*
X224909Y312091D01*
Y312089D01*
X224923Y312120D01*
X224940Y312149D01*
X224958Y312176D01*
X224974Y312202D01*
X224992Y312226D01*
X225011Y312245D01*
X225027Y312265D01*
X225043Y312282D01*
X225060Y312298D01*
X225074Y312311D01*
X225087Y312322D01*
X225098Y312331D01*
X225107Y312338D01*
X225114Y312344D01*
X225118Y312346D01*
X225120Y312347D01*
X225145Y312364D01*
X225171Y312377D01*
X225198Y312389D01*
X225223Y312398D01*
X225273Y312415D01*
X225320Y312426D01*
X225340Y312429D01*
X225360Y312431D01*
X225376Y312435D01*
X225391D01*
X225402Y312437D01*
X225411D01*
X225416D01*
X225418D01*
X225451Y312435D01*
X225482Y312433D01*
X225542Y312422D01*
X225597Y312407D01*
X225620Y312398D01*
X225644Y312391D01*
X225666Y312382D01*
X225684Y312373D01*
X225702Y312366D01*
X225715Y312358D01*
X225728Y312353D01*
X225735Y312347D01*
X225740Y312346D01*
X225742Y312344D01*
X225769Y312326D01*
X225797Y312306D01*
X225844Y312264D01*
X225886Y312220D01*
X225921Y312176D01*
X225935Y312156D01*
X225948Y312138D01*
X225959Y312122D01*
X225968Y312107D01*
X225975Y312094D01*
X225981Y312085D01*
X225982Y312080D01*
X225984Y312078D01*
X226001Y312045D01*
X226013Y312013D01*
X226026Y311980D01*
X226035Y311945D01*
X226052Y311881D01*
X226057Y311852D01*
X226062Y311823D01*
X226066Y311798D01*
X226068Y311774D01*
X226072Y311752D01*
Y311734D01*
X226073Y311719D01*
Y311700D01*
X226072Y311645D01*
X226066Y311592D01*
X226057Y311541D01*
X226046Y311494D01*
X226033Y311450D01*
X226019Y311410D01*
X226004Y311372D01*
X225988Y311337D01*
X225972Y311306D01*
X225957Y311279D01*
X225942Y311255D01*
X225930Y311235D01*
X225919Y311219D01*
X225910Y311208D01*
X225904Y311201D01*
X225902Y311199D01*
X225870Y311163D01*
X225833Y311130D01*
X225795Y311101D01*
X225755Y311075D01*
X225715Y311052D01*
X225675Y311030D01*
X225635Y311012D01*
X225597Y310995D01*
X225560Y310982D01*
X225527Y310971D01*
X225498Y310962D01*
X225471Y310955D01*
X225449Y310950D01*
X225435Y310946D01*
X225424Y310942D01*
X225422D01*
X225420D01*
X225365Y311252D01*
X225407Y311259D01*
X225446Y311268D01*
X225480Y311277D01*
X225513Y311290D01*
X225544Y311301D01*
X225571Y311315D01*
X225597Y311328D01*
X225620Y311341D01*
X225639Y311354D01*
X225657Y311365D01*
X225671Y311376D01*
X225682Y311385D01*
X225691Y311394D01*
X225698Y311399D01*
X225702Y311403D01*
X225704Y311405D01*
X225724Y311428D01*
X225742Y311452D01*
X225757Y311477D01*
X225769Y311503D01*
X225782Y311528D01*
X225791Y311552D01*
X225804Y311599D01*
X225810Y311621D01*
X225813Y311641D01*
X225815Y311660D01*
X225817Y311676D01*
X225819Y311687D01*
Y311705D01*
X225817Y311738D01*
X225813Y311771D01*
X225808Y311800D01*
X225800Y311829D01*
X225793Y311854D01*
X225782Y311880D01*
X225773Y311901D01*
X225762Y311922D01*
X225751Y311940D01*
X225742Y311956D01*
X225731Y311969D01*
X225724Y311982D01*
X225717Y311991D01*
X225711Y311996D01*
X225708Y312000D01*
X225706Y312002D01*
X225684Y312022D01*
X225662Y312040D01*
X225639Y312056D01*
X225615Y312069D01*
X225591Y312080D01*
X225568Y312089D01*
X225524Y312104D01*
X225504Y312109D01*
X225486Y312113D01*
X225467Y312115D01*
X225455Y312116D01*
X225442Y312118D01*
X225433D01*
X225427D01*
X225426D01*
X225387Y312116D01*
X225351Y312111D01*
X225316Y312104D01*
X225285Y312093D01*
X225256Y312082D01*
X225231Y312069D01*
X225207Y312054D01*
X225185Y312040D01*
X225167Y312023D01*
X225151Y312011D01*
X225138Y311996D01*
X225127Y311985D01*
X225118Y311974D01*
X225113Y311967D01*
X225109Y311962D01*
X225107Y311960D01*
X225089Y311931D01*
X225074Y311900D01*
X225060Y311869D01*
X225049Y311838D01*
X225031Y311778D01*
X225023Y311751D01*
X225018Y311723D01*
X225014Y311698D01*
X225011Y311676D01*
X225009Y311656D01*
X225007Y311638D01*
X225005Y311625D01*
Y311590D01*
X225007Y311574D01*
Y311567D01*
X225009Y311561D01*
Y311556D01*
X224738Y311521D01*
X224748Y311568D01*
X224756Y311610D01*
X224763Y311647D01*
X224767Y311680D01*
X224768Y311705D01*
X224770Y311723D01*
Y311740D01*
X224768Y311780D01*
X224765Y311816D01*
X224758Y311852D01*
X224748Y311885D01*
X224738Y311916D01*
X224727Y311945D01*
X224714Y311972D01*
X224701Y311996D01*
X224688Y312018D01*
X224676Y312038D01*
X224665Y312054D01*
X224654Y312067D01*
X224645Y312078D01*
X224638Y312087D01*
X224634Y312091D01*
X224632Y312093D01*
X224605Y312118D01*
X224577Y312138D01*
X224548Y312158D01*
X224519Y312175D01*
X224490Y312187D01*
X224461Y312198D01*
X224432Y312207D01*
X224405Y312215D01*
X224379Y312222D01*
X224355Y312226D01*
X224334Y312229D01*
X224317Y312231D01*
X224301Y312233D01*
X224290D01*
X224283D01*
X224281D01*
X224241Y312231D01*
X224201Y312226D01*
X224164Y312218D01*
X224130Y312209D01*
X224095Y312198D01*
X224066Y312186D01*
X224037Y312171D01*
X224011Y312158D01*
X223988Y312144D01*
X223968Y312129D01*
X223950Y312116D01*
X223935Y312105D01*
X223922Y312096D01*
X223915Y312089D01*
X223909Y312084D01*
X223908Y312082D01*
X223880Y312053D01*
X223858Y312023D01*
X223838Y311993D01*
X223820Y311962D01*
X223806Y311931D01*
X223793Y311900D01*
X223784Y311869D01*
X223775Y311842D01*
X223769Y311814D01*
X223764Y311790D01*
X223762Y311769D01*
X223758Y311749D01*
Y311734D01*
X223757Y311721D01*
Y311712D01*
X223758Y311678D01*
X223762Y311647D01*
X223767Y311616D01*
X223775Y311587D01*
X223784Y311559D01*
X223793Y311534D01*
X223804Y311510D01*
X223815Y311488D01*
X223824Y311468D01*
X223835Y311452D01*
X223844Y311436D01*
X223853Y311425D01*
X223860Y311414D01*
X223866Y311406D01*
X223869Y311403D01*
X223871Y311401D01*
X223895Y311377D01*
X223920Y311357D01*
X223950Y311337D01*
X223980Y311319D01*
X224042Y311288D01*
X224106Y311263D01*
X224135Y311254D01*
X224162Y311245D01*
X224186Y311237D01*
X224208Y311232D01*
X224226Y311226D01*
X224241Y311223D01*
X224248Y311221D01*
X224252D01*
X224210Y310911D01*
X224151Y310919D01*
X224097Y310930D01*
X224046Y310946D01*
X223997Y310962D01*
X223951Y310982D01*
X223909Y311002D01*
X223869Y311024D01*
X223835Y311046D01*
X223804Y311068D01*
X223777Y311088D01*
X223753Y311108D01*
X223733Y311124D01*
X223716Y311139D01*
X223706Y311150D01*
X223698Y311157D01*
X223696Y311159D01*
X223662Y311201D01*
X223631Y311246D01*
X223605Y311292D01*
X223584Y311337D01*
X223564Y311385D01*
X223547Y311430D01*
X223534Y311476D01*
X223525Y311518D01*
X223516Y311558D01*
X223511Y311594D01*
X223505Y311627D01*
X223504Y311656D01*
X223502Y311678D01*
X223500Y311696D01*
Y311710D01*
X223502Y311778D01*
X223509Y311842D01*
X223522Y311903D01*
X223536Y311960D01*
X223553Y312014D01*
X223573Y312064D01*
X223593Y312111D01*
X223615Y312153D01*
X223637Y312189D01*
X223657Y312224D01*
X223676Y312251D01*
X223693Y312275D01*
X223707Y312295D01*
X223720Y312307D01*
X223727Y312315D01*
X223729Y312318D01*
X223773Y312360D01*
X223818Y312398D01*
X223866Y312431D01*
X223913Y312458D01*
X223960Y312482D01*
X224008Y312502D01*
X224051Y312517D01*
X224095Y312529D01*
X224135Y312540D01*
X224171Y312548D01*
X224204Y312553D01*
X224233Y312557D01*
X224255Y312559D01*
X224273Y312560D01*
X224284D01*
X224288D01*
X224334Y312559D01*
D02*
G37*
G36*
X226064Y310147D02*
X224610D01*
X224525Y310145D01*
X224446Y310140D01*
X224375Y310133D01*
X224310Y310123D01*
X224252Y310111D01*
X224199Y310098D01*
X224153Y310083D01*
X224113Y310069D01*
X224077Y310054D01*
X224048Y310040D01*
X224022Y310027D01*
X224002Y310014D01*
X223988Y310005D01*
X223977Y309998D01*
X223971Y309992D01*
X223970Y309991D01*
X223940Y309960D01*
X223915Y309923D01*
X223893Y309885D01*
X223873Y309843D01*
X223858Y309799D01*
X223844Y309756D01*
X223833Y309712D01*
X223824Y309670D01*
X223818Y309628D01*
X223813Y309590D01*
X223809Y309557D01*
X223806Y309526D01*
Y309501D01*
X223804Y309483D01*
Y309466D01*
X223806Y309426D01*
X223808Y309390D01*
X223811Y309353D01*
X223817Y309319D01*
X223824Y309286D01*
X223831Y309257D01*
X223838Y309230D01*
X223846Y309204D01*
X223853Y309181D01*
X223860Y309161D01*
X223868Y309144D01*
X223875Y309130D01*
X223880Y309117D01*
X223884Y309110D01*
X223888Y309104D01*
Y309102D01*
X223904Y309075D01*
X223922Y309051D01*
X223940Y309028D01*
X223960Y309008D01*
X223980Y308988D01*
X224001Y308971D01*
X224039Y308942D01*
X224073Y308920D01*
X224088Y308911D01*
X224101Y308906D01*
X224112Y308900D01*
X224119Y308897D01*
X224124Y308893D01*
X224126D01*
X224157Y308882D01*
X224192Y308873D01*
X224230Y308866D01*
X224268Y308858D01*
X224348Y308848D01*
X224388Y308844D01*
X224426Y308840D01*
X224465Y308839D01*
X224499Y308837D01*
X224530Y308835D01*
X224557D01*
X224579Y308833D01*
X224596D01*
X224606D01*
X224610D01*
X226064D01*
Y308500D01*
X224608D01*
X224535Y308502D01*
X224466Y308504D01*
X224401Y308509D01*
X224341Y308514D01*
X224284Y308522D01*
X224233Y308529D01*
X224186Y308538D01*
X224142Y308547D01*
X224104Y308556D01*
X224071Y308565D01*
X224042Y308573D01*
X224019Y308580D01*
X224001Y308586D01*
X223988Y308591D01*
X223980Y308593D01*
X223977Y308595D01*
X223935Y308615D01*
X223897Y308636D01*
X223858Y308660D01*
X223826Y308686D01*
X223793Y308711D01*
X223766Y308738D01*
X223738Y308766D01*
X223715Y308791D01*
X223695Y308817D01*
X223676Y308839D01*
X223660Y308860D01*
X223647Y308878D01*
X223638Y308893D01*
X223631Y308906D01*
X223627Y308913D01*
X223625Y308915D01*
X223604Y308959D01*
X223586Y309004D01*
X223569Y309053D01*
X223555Y309101D01*
X223544Y309150D01*
X223533Y309197D01*
X223525Y309244D01*
X223518Y309290D01*
X223515Y309332D01*
X223511Y309372D01*
X223507Y309406D01*
X223505Y309437D01*
X223504Y309461D01*
Y309495D01*
X223505Y309563D01*
X223509Y309625D01*
X223516Y309685D01*
X223525Y309741D01*
X223536Y309794D01*
X223547Y309841D01*
X223560Y309885D01*
X223573Y309927D01*
X223586Y309961D01*
X223598Y309994D01*
X223609Y310020D01*
X223620Y310043D01*
X223629Y310060D01*
X223637Y310072D01*
X223640Y310082D01*
X223642Y310083D01*
X223669Y310123D01*
X223698Y310162D01*
X223727Y310194D01*
X223758Y310225D01*
X223789Y310254D01*
X223818Y310280D01*
X223848Y310302D01*
X223877Y310322D01*
X223904Y310340D01*
X223928Y310354D01*
X223950Y310366D01*
X223970Y310376D01*
X223984Y310384D01*
X223997Y310389D01*
X224004Y310391D01*
X224006Y310393D01*
X224050Y310407D01*
X224097Y310422D01*
X224144Y310433D01*
X224195Y310444D01*
X224295Y310458D01*
X224344Y310464D01*
X224392Y310469D01*
X224435Y310473D01*
X224477Y310476D01*
X224514Y310478D01*
X224547D01*
X224572Y310480D01*
X224583D01*
X224592D01*
X224599D01*
X224605D01*
X224606D01*
X224608D01*
X226064D01*
Y310147D01*
D02*
G37*
G36*
X219756Y319495D02*
X219825Y319487D01*
X219890Y319476D01*
X219954Y319464D01*
X220012Y319447D01*
X220067Y319429D01*
X220118Y319409D01*
X220163Y319389D01*
X220205Y319369D01*
X220242Y319349D01*
X220274Y319331D01*
X220300Y319314D01*
X220322Y319302D01*
X220336Y319291D01*
X220345Y319284D01*
X220349Y319282D01*
X220398Y319238D01*
X220444Y319193D01*
X220486Y319143D01*
X220524Y319092D01*
X220558Y319040D01*
X220589Y318989D01*
X220617Y318938D01*
X220640Y318887D01*
X220662Y318839D01*
X220680Y318796D01*
X220695Y318758D01*
X220708Y318723D01*
X220717Y318696D01*
X220720Y318683D01*
X220722Y318674D01*
X220724Y318667D01*
X220726Y318661D01*
X220728Y318657D01*
Y318656D01*
X220395Y318572D01*
X220380Y318630D01*
X220364Y318683D01*
X220345Y318734D01*
X220324Y318779D01*
X220304Y318823D01*
X220280Y318863D01*
X220258Y318898D01*
X220236Y318930D01*
X220216Y318958D01*
X220196Y318983D01*
X220178Y319003D01*
X220162Y319020D01*
X220149Y319034D01*
X220140Y319043D01*
X220132Y319049D01*
X220131Y319051D01*
X220093Y319078D01*
X220054Y319103D01*
X220014Y319125D01*
X219974Y319143D01*
X219934Y319158D01*
X219894Y319171D01*
X219856Y319181D01*
X219819Y319191D01*
X219787Y319198D01*
X219754Y319202D01*
X219727Y319205D01*
X219703Y319209D01*
X219683D01*
X219668Y319211D01*
X219656D01*
X219614Y319209D01*
X219572Y319205D01*
X219532Y319200D01*
X219492Y319193D01*
X219456Y319183D01*
X219419Y319172D01*
X219386Y319163D01*
X219355Y319151D01*
X219328Y319140D01*
X219303Y319131D01*
X219281Y319120D01*
X219263Y319111D01*
X219248Y319103D01*
X219237Y319098D01*
X219230Y319094D01*
X219228Y319092D01*
X219192Y319069D01*
X219159Y319043D01*
X219128Y319016D01*
X219099Y318987D01*
X219073Y318958D01*
X219050Y318927D01*
X219028Y318898D01*
X219008Y318870D01*
X218991Y318843D01*
X218977Y318817D01*
X218964Y318794D01*
X218955Y318774D01*
X218946Y318758D01*
X218940Y318747D01*
X218939Y318738D01*
X218937Y318736D01*
X218920Y318690D01*
X218906Y318643D01*
X218893Y318596D01*
X218884Y318546D01*
X218866Y318454D01*
X218860Y318408D01*
X218855Y318364D01*
X218851Y318326D01*
X218849Y318290D01*
X218848Y318257D01*
X218846Y318230D01*
X218844Y318206D01*
Y318190D01*
Y318179D01*
Y318175D01*
X218846Y318128D01*
X218848Y318082D01*
X218857Y317995D01*
X218862Y317953D01*
X218869Y317913D01*
X218877Y317875D01*
X218884Y317840D01*
X218891Y317807D01*
X218897Y317778D01*
X218904Y317753D01*
X218910Y317731D01*
X218915Y317715D01*
X218919Y317702D01*
X218922Y317693D01*
Y317691D01*
X218939Y317647D01*
X218957Y317607D01*
X218977Y317569D01*
X218999Y317534D01*
X219021Y317500D01*
X219042Y317469D01*
X219066Y317442D01*
X219088Y317416D01*
X219110Y317394D01*
X219130Y317374D01*
X219148Y317358D01*
X219164Y317343D01*
X219177Y317332D01*
X219186Y317323D01*
X219193Y317320D01*
X219195Y317318D01*
X219233Y317292D01*
X219273Y317272D01*
X219314Y317252D01*
X219354Y317236D01*
X219395Y317223D01*
X219435Y317212D01*
X219474Y317203D01*
X219512Y317196D01*
X219547Y317189D01*
X219579Y317185D01*
X219608Y317181D01*
X219634Y317179D01*
X219654Y317178D01*
X219681D01*
X219728Y317179D01*
X219772Y317183D01*
X219814Y317189D01*
X219854Y317198D01*
X219890Y317207D01*
X219925Y317218D01*
X219956Y317229D01*
X219985Y317240D01*
X220011Y317252D01*
X220034Y317263D01*
X220054Y317274D01*
X220071Y317283D01*
X220083Y317292D01*
X220093Y317298D01*
X220098Y317302D01*
X220100Y317303D01*
X220131Y317329D01*
X220160Y317356D01*
X220185Y317387D01*
X220211Y317418D01*
X220234Y317453D01*
X220254Y317485D01*
X220274Y317518D01*
X220291Y317551D01*
X220305Y317582D01*
X220320Y317611D01*
X220331Y317636D01*
X220340Y317658D01*
X220347Y317678D01*
X220353Y317691D01*
X220355Y317700D01*
X220356Y317704D01*
X220684Y317627D01*
X220664Y317564D01*
X220638Y317503D01*
X220613Y317447D01*
X220584Y317394D01*
X220555Y317347D01*
X220526Y317302D01*
X220495Y317261D01*
X220466Y317225D01*
X220436Y317192D01*
X220411Y317165D01*
X220387Y317140D01*
X220366Y317121D01*
X220349Y317105D01*
X220335Y317094D01*
X220327Y317087D01*
X220324Y317085D01*
X220274Y317050D01*
X220223Y317021D01*
X220169Y316996D01*
X220116Y316974D01*
X220063Y316954D01*
X220011Y316939D01*
X219960Y316927D01*
X219911Y316916D01*
X219863Y316908D01*
X219821Y316903D01*
X219785Y316897D01*
X219752Y316896D01*
X219725Y316894D01*
X219714Y316892D01*
X219688D01*
X219626Y316894D01*
X219566Y316899D01*
X219508Y316906D01*
X219452Y316916D01*
X219399Y316927D01*
X219348Y316941D01*
X219301Y316954D01*
X219257Y316968D01*
X219219Y316983D01*
X219182Y316996D01*
X219151Y317008D01*
X219126Y317021D01*
X219104Y317030D01*
X219090Y317038D01*
X219080Y317043D01*
X219077Y317045D01*
X219026Y317076D01*
X218979Y317109D01*
X218935Y317143D01*
X218893Y317179D01*
X218855Y317216D01*
X218820Y317252D01*
X218788Y317291D01*
X218760Y317325D01*
X218735Y317358D01*
X218711Y317391D01*
X218693Y317418D01*
X218676Y317442D01*
X218666Y317463D01*
X218656Y317478D01*
X218651Y317487D01*
X218649Y317491D01*
X218624Y317547D01*
X218600Y317604D01*
X218580Y317662D01*
X218564Y317720D01*
X218549Y317778D01*
X218536Y317837D01*
X218527Y317891D01*
X218518Y317942D01*
X218513Y317991D01*
X218507Y318037D01*
X218505Y318077D01*
X218502Y318111D01*
Y318139D01*
X218500Y318150D01*
Y318159D01*
Y318166D01*
Y318171D01*
Y318175D01*
Y318177D01*
X218502Y318244D01*
X218505Y318310D01*
X218513Y318373D01*
X218520Y318433D01*
X218531Y318494D01*
X218542Y318548D01*
X218555Y318601D01*
X218567Y318650D01*
X218578Y318694D01*
X218591Y318734D01*
X218602Y318768D01*
X218613Y318797D01*
X218620Y318821D01*
X218627Y318838D01*
X218631Y318848D01*
X218633Y318850D01*
Y318852D01*
X218658Y318909D01*
X218687Y318963D01*
X218718Y319012D01*
X218749Y319060D01*
X218782Y319102D01*
X218815Y319142D01*
X218846Y319176D01*
X218877Y319209D01*
X218906Y319238D01*
X218933Y319262D01*
X218957Y319284D01*
X218979Y319300D01*
X218997Y319313D01*
X219010Y319323D01*
X219017Y319329D01*
X219021Y319331D01*
X219070Y319360D01*
X219122Y319385D01*
X219177Y319407D01*
X219232Y319427D01*
X219286Y319442D01*
X219343Y319456D01*
X219395Y319467D01*
X219448Y319476D01*
X219496Y319482D01*
X219541Y319487D01*
X219581Y319491D01*
X219616Y319495D01*
X219643D01*
X219656Y319496D01*
X219683D01*
X219756Y319495D01*
D02*
G37*
G36*
X221880Y319498D02*
X221943Y319491D01*
X222005Y319478D01*
X222062Y319464D01*
X222116Y319447D01*
X222165Y319427D01*
X222213Y319407D01*
X222255Y319385D01*
X222291Y319363D01*
X222326Y319343D01*
X222353Y319323D01*
X222377Y319307D01*
X222397Y319293D01*
X222409Y319280D01*
X222417Y319272D01*
X222420Y319271D01*
X222462Y319227D01*
X222500Y319181D01*
X222533Y319134D01*
X222560Y319087D01*
X222584Y319040D01*
X222604Y318992D01*
X222619Y318949D01*
X222631Y318905D01*
X222642Y318865D01*
X222650Y318829D01*
X222655Y318796D01*
X222659Y318767D01*
X222660Y318745D01*
X222662Y318726D01*
Y318716D01*
Y318712D01*
X222660Y318667D01*
X222657Y318625D01*
X222651Y318585D01*
X222642Y318546D01*
X222633Y318510D01*
X222624Y318477D01*
X222611Y318446D01*
X222600Y318417D01*
X222589Y318392D01*
X222579Y318370D01*
X222568Y318352D01*
X222559Y318335D01*
X222550Y318322D01*
X222544Y318313D01*
X222540Y318308D01*
X222538Y318306D01*
X222515Y318277D01*
X222488Y318250D01*
X222460Y318226D01*
X222433Y318204D01*
X222404Y318184D01*
X222375Y318168D01*
X222346Y318151D01*
X222318Y318139D01*
X222293Y318126D01*
X222269Y318117D01*
X222247Y318108D01*
X222227Y318102D01*
X222213Y318097D01*
X222200Y318093D01*
X222193Y318091D01*
X222191D01*
X222222Y318077D01*
X222251Y318060D01*
X222278Y318042D01*
X222304Y318026D01*
X222327Y318008D01*
X222347Y317989D01*
X222368Y317973D01*
X222384Y317957D01*
X222400Y317940D01*
X222413Y317926D01*
X222424Y317913D01*
X222433Y317902D01*
X222440Y317893D01*
X222446Y317886D01*
X222447Y317882D01*
X222449Y317880D01*
X222466Y317855D01*
X222479Y317829D01*
X222491Y317802D01*
X222500Y317776D01*
X222517Y317727D01*
X222528Y317680D01*
X222531Y317660D01*
X222533Y317640D01*
X222537Y317624D01*
Y317609D01*
X222538Y317598D01*
Y317589D01*
Y317584D01*
Y317582D01*
X222537Y317549D01*
X222535Y317518D01*
X222524Y317458D01*
X222509Y317403D01*
X222500Y317380D01*
X222493Y317356D01*
X222484Y317334D01*
X222475Y317316D01*
X222468Y317298D01*
X222460Y317285D01*
X222455Y317272D01*
X222449Y317265D01*
X222447Y317260D01*
X222446Y317258D01*
X222428Y317231D01*
X222408Y317203D01*
X222366Y317156D01*
X222322Y317114D01*
X222278Y317079D01*
X222258Y317065D01*
X222240Y317052D01*
X222224Y317041D01*
X222209Y317032D01*
X222196Y317025D01*
X222187Y317019D01*
X222182Y317018D01*
X222180Y317016D01*
X222147Y316999D01*
X222114Y316987D01*
X222082Y316974D01*
X222047Y316965D01*
X221983Y316948D01*
X221954Y316943D01*
X221925Y316937D01*
X221900Y316934D01*
X221876Y316932D01*
X221854Y316928D01*
X221836D01*
X221821Y316927D01*
X221801D01*
X221747Y316928D01*
X221694Y316934D01*
X221643Y316943D01*
X221596Y316954D01*
X221552Y316967D01*
X221512Y316981D01*
X221474Y316996D01*
X221439Y317012D01*
X221408Y317028D01*
X221381Y317043D01*
X221357Y317058D01*
X221337Y317070D01*
X221321Y317081D01*
X221310Y317090D01*
X221303Y317096D01*
X221301Y317098D01*
X221265Y317130D01*
X221232Y317167D01*
X221203Y317205D01*
X221177Y317245D01*
X221153Y317285D01*
X221132Y317325D01*
X221113Y317365D01*
X221097Y317403D01*
X221084Y317440D01*
X221073Y317473D01*
X221064Y317502D01*
X221057Y317529D01*
X221052Y317551D01*
X221048Y317565D01*
X221044Y317576D01*
Y317578D01*
Y317580D01*
X221354Y317635D01*
X221361Y317593D01*
X221370Y317554D01*
X221379Y317520D01*
X221392Y317487D01*
X221403Y317456D01*
X221417Y317429D01*
X221430Y317403D01*
X221443Y317380D01*
X221456Y317361D01*
X221467Y317343D01*
X221478Y317329D01*
X221487Y317318D01*
X221496Y317309D01*
X221501Y317302D01*
X221505Y317298D01*
X221507Y317296D01*
X221530Y317276D01*
X221554Y317258D01*
X221579Y317243D01*
X221605Y317231D01*
X221630Y317218D01*
X221654Y317209D01*
X221701Y317196D01*
X221723Y317191D01*
X221743Y317187D01*
X221761Y317185D01*
X221778Y317183D01*
X221789Y317181D01*
X221807D01*
X221840Y317183D01*
X221872Y317187D01*
X221901Y317192D01*
X221931Y317200D01*
X221956Y317207D01*
X221982Y317218D01*
X222004Y317227D01*
X222024Y317238D01*
X222042Y317249D01*
X222058Y317258D01*
X222071Y317269D01*
X222083Y317276D01*
X222093Y317283D01*
X222098Y317289D01*
X222102Y317292D01*
X222104Y317294D01*
X222124Y317316D01*
X222142Y317338D01*
X222158Y317361D01*
X222171Y317385D01*
X222182Y317409D01*
X222191Y317432D01*
X222205Y317476D01*
X222211Y317496D01*
X222215Y317514D01*
X222216Y317533D01*
X222218Y317545D01*
X222220Y317558D01*
Y317567D01*
Y317573D01*
Y317575D01*
X222218Y317613D01*
X222213Y317649D01*
X222205Y317684D01*
X222195Y317715D01*
X222184Y317744D01*
X222171Y317769D01*
X222156Y317793D01*
X222142Y317815D01*
X222125Y317833D01*
X222113Y317849D01*
X222098Y317862D01*
X222087Y317873D01*
X222076Y317882D01*
X222069Y317887D01*
X222063Y317891D01*
X222062Y317893D01*
X222033Y317911D01*
X222002Y317926D01*
X221971Y317940D01*
X221940Y317951D01*
X221880Y317969D01*
X221852Y317977D01*
X221825Y317982D01*
X221800Y317986D01*
X221778Y317989D01*
X221758Y317991D01*
X221740Y317993D01*
X221727Y317995D01*
X221692D01*
X221676Y317993D01*
X221669D01*
X221663Y317991D01*
X221658D01*
X221623Y318262D01*
X221670Y318251D01*
X221712Y318244D01*
X221749Y318237D01*
X221781Y318233D01*
X221807Y318232D01*
X221825Y318230D01*
X221842D01*
X221882Y318232D01*
X221918Y318235D01*
X221954Y318242D01*
X221987Y318251D01*
X222018Y318262D01*
X222047Y318273D01*
X222074Y318286D01*
X222098Y318299D01*
X222120Y318312D01*
X222140Y318324D01*
X222156Y318335D01*
X222169Y318346D01*
X222180Y318355D01*
X222189Y318362D01*
X222193Y318366D01*
X222195Y318368D01*
X222220Y318395D01*
X222240Y318423D01*
X222260Y318452D01*
X222276Y318481D01*
X222289Y318510D01*
X222300Y318539D01*
X222309Y318568D01*
X222317Y318596D01*
X222324Y318621D01*
X222327Y318645D01*
X222331Y318667D01*
X222333Y318683D01*
X222335Y318699D01*
Y318710D01*
Y318717D01*
Y318719D01*
X222333Y318759D01*
X222327Y318799D01*
X222320Y318836D01*
X222311Y318870D01*
X222300Y318905D01*
X222287Y318934D01*
X222273Y318963D01*
X222260Y318989D01*
X222246Y319012D01*
X222231Y319032D01*
X222218Y319051D01*
X222207Y319065D01*
X222198Y319078D01*
X222191Y319085D01*
X222185Y319091D01*
X222184Y319092D01*
X222154Y319120D01*
X222125Y319142D01*
X222094Y319162D01*
X222063Y319180D01*
X222033Y319194D01*
X222002Y319207D01*
X221971Y319216D01*
X221943Y319225D01*
X221916Y319231D01*
X221892Y319236D01*
X221871Y319238D01*
X221851Y319242D01*
X221836D01*
X221823Y319243D01*
X221814D01*
X221780Y319242D01*
X221749Y319238D01*
X221718Y319233D01*
X221689Y319225D01*
X221661Y319216D01*
X221636Y319207D01*
X221612Y319196D01*
X221590Y319185D01*
X221570Y319176D01*
X221554Y319165D01*
X221537Y319156D01*
X221527Y319147D01*
X221516Y319140D01*
X221508Y319134D01*
X221505Y319131D01*
X221503Y319129D01*
X221479Y319105D01*
X221459Y319080D01*
X221439Y319051D01*
X221421Y319020D01*
X221390Y318958D01*
X221365Y318894D01*
X221356Y318865D01*
X221346Y318838D01*
X221339Y318814D01*
X221334Y318792D01*
X221328Y318774D01*
X221325Y318759D01*
X221323Y318752D01*
Y318748D01*
X221013Y318790D01*
X221021Y318848D01*
X221032Y318903D01*
X221048Y318954D01*
X221064Y319003D01*
X221084Y319049D01*
X221104Y319091D01*
X221126Y319131D01*
X221148Y319165D01*
X221170Y319196D01*
X221190Y319223D01*
X221210Y319247D01*
X221226Y319267D01*
X221241Y319284D01*
X221252Y319294D01*
X221259Y319302D01*
X221261Y319303D01*
X221303Y319338D01*
X221348Y319369D01*
X221394Y319394D01*
X221439Y319416D01*
X221487Y319436D01*
X221532Y319453D01*
X221578Y319465D01*
X221619Y319475D01*
X221659Y319484D01*
X221696Y319489D01*
X221729Y319495D01*
X221758Y319496D01*
X221780Y319498D01*
X221798Y319500D01*
X221812D01*
X221880Y319498D01*
D02*
G37*
G36*
X224540Y322039D02*
X224558Y322008D01*
X224600Y321948D01*
X224646Y321891D01*
X224670Y321864D01*
X224691Y321839D01*
X224713Y321817D01*
X224733Y321795D01*
X224751Y321777D01*
X224768Y321760D01*
X224781Y321748D01*
X224790Y321739D01*
X224797Y321733D01*
X224799Y321731D01*
X224873Y321669D01*
X224952Y321613D01*
X225028Y321562D01*
X225064Y321540D01*
X225099Y321518D01*
X225130Y321500D01*
X225159Y321484D01*
X225186Y321469D01*
X225208Y321458D01*
X225226Y321449D01*
X225241Y321442D01*
X225248Y321438D01*
X225252Y321436D01*
Y321138D01*
X225197Y321160D01*
X225141Y321185D01*
X225086Y321211D01*
X225035Y321236D01*
X225013Y321249D01*
X224992Y321260D01*
X224973Y321271D01*
X224959Y321280D01*
X224946Y321285D01*
X224935Y321291D01*
X224930Y321294D01*
X224928Y321296D01*
X224862Y321336D01*
X224833Y321356D01*
X224804Y321375D01*
X224779Y321395D01*
X224755Y321411D01*
X224733Y321429D01*
X224711Y321444D01*
X224695Y321458D01*
X224678Y321471D01*
X224664Y321484D01*
X224653Y321493D01*
X224644Y321500D01*
X224639Y321506D01*
X224635Y321509D01*
X224633Y321511D01*
Y319542D01*
X224324D01*
Y322070D01*
X224524D01*
X224540Y322039D01*
D02*
G37*
G36*
X222715Y322066D02*
X222784Y322057D01*
X222848Y322042D01*
X222909Y322024D01*
X222966Y322002D01*
X223017Y321979D01*
X223064Y321952D01*
X223108Y321926D01*
X223146Y321899D01*
X223181Y321871D01*
X223208Y321848D01*
X223232Y321826D01*
X223252Y321808D01*
X223264Y321793D01*
X223272Y321784D01*
X223275Y321780D01*
X223299Y321748D01*
X223323Y321713D01*
X223344Y321678D01*
X223364Y321640D01*
X223401Y321560D01*
X223432Y321475D01*
X223457Y321387D01*
X223479Y321300D01*
X223497Y321211D01*
X223510Y321125D01*
X223523Y321043D01*
X223530Y320969D01*
X223534Y320932D01*
X223536Y320900D01*
X223539Y320867D01*
X223541Y320840D01*
Y320812D01*
X223543Y320789D01*
Y320768D01*
X223545Y320752D01*
Y320738D01*
Y320728D01*
Y320721D01*
Y320719D01*
Y320659D01*
X223541Y320601D01*
X223539Y320547D01*
X223534Y320492D01*
X223528Y320441D01*
X223523Y320392D01*
X223516Y320344D01*
X223506Y320299D01*
X223497Y320255D01*
X223488Y320213D01*
X223477Y320175D01*
X223468Y320137D01*
X223457Y320102D01*
X223445Y320068D01*
X223434Y320037D01*
X223423Y320008D01*
X223412Y319980D01*
X223399Y319953D01*
X223388Y319930D01*
X223377Y319908D01*
X223368Y319888D01*
X223357Y319869D01*
X223339Y319839D01*
X223323Y319815D01*
X223312Y319797D01*
X223303Y319788D01*
X223301Y319784D01*
X223253Y319735D01*
X223204Y319691D01*
X223152Y319653D01*
X223099Y319620D01*
X223046Y319593D01*
X222995Y319569D01*
X222944Y319551D01*
X222895Y319536D01*
X222848Y319524D01*
X222806Y319514D01*
X222767Y319509D01*
X222735Y319504D01*
X222708Y319502D01*
X222697D01*
X222688Y319500D01*
X222671D01*
X222629Y319502D01*
X222587Y319505D01*
X222549Y319509D01*
X222511Y319516D01*
X222476Y319525D01*
X222442Y319534D01*
X222411Y319544D01*
X222383Y319555D01*
X222356Y319564D01*
X222334Y319573D01*
X222314Y319582D01*
X222296Y319591D01*
X222283Y319598D01*
X222272Y319602D01*
X222267Y319605D01*
X222265Y319607D01*
X222233Y319629D01*
X222201Y319651D01*
X222172Y319676D01*
X222147Y319702D01*
X222122Y319727D01*
X222098Y319753D01*
X222078Y319778D01*
X222058Y319804D01*
X222041Y319828D01*
X222027Y319848D01*
X222014Y319868D01*
X222003Y319886D01*
X221996Y319899D01*
X221990Y319910D01*
X221987Y319917D01*
X221985Y319919D01*
X221967Y319957D01*
X221950Y319997D01*
X221938Y320035D01*
X221925Y320073D01*
X221914Y320111D01*
X221907Y320148D01*
X221899Y320182D01*
X221894Y320215D01*
X221890Y320246D01*
X221887Y320273D01*
X221885Y320297D01*
X221883Y320319D01*
X221881Y320335D01*
Y320348D01*
Y320357D01*
Y320359D01*
X221883Y320425D01*
X221890Y320488D01*
X221901Y320547D01*
X221916Y320603D01*
X221932Y320656D01*
X221950Y320703D01*
X221970Y320748D01*
X221990Y320789D01*
X222010Y320825D01*
X222030Y320856D01*
X222049Y320883D01*
X222065Y320905D01*
X222080Y320923D01*
X222091Y320936D01*
X222098Y320945D01*
X222100Y320947D01*
X222142Y320987D01*
X222185Y321023D01*
X222229Y321052D01*
X222272Y321080D01*
X222318Y321101D01*
X222362Y321120D01*
X222404Y321136D01*
X222444Y321147D01*
X222482Y321156D01*
X222516Y321163D01*
X222547Y321169D01*
X222575Y321172D01*
X222595Y321174D01*
X222611Y321176D01*
X222658D01*
X222691Y321172D01*
X222755Y321163D01*
X222811Y321149D01*
X222838Y321142D01*
X222862Y321134D01*
X222886Y321127D01*
X222906Y321120D01*
X222922Y321112D01*
X222939Y321105D01*
X222950Y321100D01*
X222959Y321096D01*
X222964Y321094D01*
X222966Y321093D01*
X222995Y321076D01*
X223024Y321058D01*
X223075Y321018D01*
X223122Y320976D01*
X223143Y320956D01*
X223161Y320936D01*
X223179Y320916D01*
X223193Y320898D01*
X223206Y320881D01*
X223217Y320867D01*
X223226Y320856D01*
X223232Y320847D01*
X223235Y320841D01*
X223237Y320840D01*
X223235Y320909D01*
X223234Y320974D01*
X223228Y321034D01*
X223223Y321091D01*
X223217Y321142D01*
X223210Y321191D01*
X223201Y321234D01*
X223193Y321273D01*
X223186Y321307D01*
X223179Y321338D01*
X223172Y321364D01*
X223164Y321384D01*
X223159Y321400D01*
X223155Y321413D01*
X223152Y321420D01*
Y321422D01*
X223135Y321458D01*
X223117Y321493D01*
X223099Y321526D01*
X223079Y321557D01*
X223061Y321584D01*
X223041Y321609D01*
X223022Y321633D01*
X223004Y321653D01*
X222986Y321671D01*
X222971Y321688D01*
X222957Y321700D01*
X222944Y321711D01*
X222935Y321720D01*
X222926Y321726D01*
X222922Y321729D01*
X222920Y321731D01*
X222899Y321746D01*
X222877Y321759D01*
X222833Y321780D01*
X222789Y321795D01*
X222749Y321804D01*
X222729Y321808D01*
X222713Y321811D01*
X222698Y321813D01*
X222686D01*
X222675Y321815D01*
X222660D01*
X222627Y321813D01*
X222595Y321810D01*
X222564Y321802D01*
X222535Y321795D01*
X222507Y321784D01*
X222484Y321773D01*
X222460Y321760D01*
X222438Y321749D01*
X222418Y321737D01*
X222402Y321724D01*
X222387Y321713D01*
X222374Y321702D01*
X222365Y321695D01*
X222358Y321688D01*
X222354Y321684D01*
X222353Y321682D01*
X222338Y321666D01*
X222325Y321648D01*
X222302Y321606D01*
X222282Y321562D01*
X222265Y321520D01*
X222251Y321480D01*
X222247Y321464D01*
X222242Y321447D01*
X222238Y321436D01*
X222236Y321426D01*
X222234Y321420D01*
Y321418D01*
X221927Y321442D01*
X221936Y321495D01*
X221947Y321546D01*
X221961Y321593D01*
X221979Y321637D01*
X221996Y321678D01*
X222016Y321717D01*
X222036Y321751D01*
X222056Y321782D01*
X222076Y321810D01*
X222094Y321833D01*
X222111Y321855D01*
X222125Y321871D01*
X222138Y321884D01*
X222147Y321895D01*
X222154Y321901D01*
X222156Y321902D01*
X222192Y321932D01*
X222231Y321957D01*
X222271Y321981D01*
X222313Y321999D01*
X222353Y322015D01*
X222393Y322030D01*
X222433Y322041D01*
X222469Y322050D01*
X222505Y322055D01*
X222538Y322061D01*
X222567Y322064D01*
X222593Y322068D01*
X222613D01*
X222629Y322070D01*
X222642D01*
X222715Y322066D01*
D02*
G37*
G36*
X226873Y322103D02*
X226934Y322097D01*
X226992Y322090D01*
X227048Y322081D01*
X227101Y322070D01*
X227152Y322055D01*
X227199Y322042D01*
X227243Y322028D01*
X227281Y322013D01*
X227318Y322001D01*
X227348Y321988D01*
X227374Y321975D01*
X227396Y321966D01*
X227410Y321959D01*
X227419Y321953D01*
X227423Y321952D01*
X227474Y321921D01*
X227521Y321888D01*
X227565Y321853D01*
X227607Y321817D01*
X227645Y321780D01*
X227680Y321744D01*
X227712Y321706D01*
X227740Y321671D01*
X227765Y321638D01*
X227789Y321606D01*
X227807Y321578D01*
X227823Y321555D01*
X227834Y321533D01*
X227843Y321518D01*
X227849Y321509D01*
X227851Y321506D01*
X227876Y321449D01*
X227900Y321393D01*
X227920Y321335D01*
X227936Y321276D01*
X227951Y321218D01*
X227964Y321160D01*
X227973Y321105D01*
X227982Y321054D01*
X227987Y321005D01*
X227993Y320960D01*
X227995Y320919D01*
X227998Y320885D01*
Y320858D01*
X228000Y320847D01*
Y320838D01*
Y320830D01*
Y320825D01*
Y320821D01*
Y320819D01*
X227998Y320752D01*
X227995Y320687D01*
X227987Y320623D01*
X227980Y320563D01*
X227969Y320503D01*
X227958Y320448D01*
X227945Y320395D01*
X227933Y320346D01*
X227922Y320303D01*
X227909Y320263D01*
X227898Y320228D01*
X227887Y320199D01*
X227880Y320175D01*
X227873Y320159D01*
X227869Y320148D01*
X227867Y320146D01*
Y320144D01*
X227842Y320088D01*
X227813Y320033D01*
X227782Y319984D01*
X227751Y319937D01*
X227718Y319895D01*
X227685Y319855D01*
X227654Y319820D01*
X227623Y319788D01*
X227594Y319758D01*
X227567Y319735D01*
X227543Y319713D01*
X227521Y319696D01*
X227503Y319684D01*
X227490Y319673D01*
X227483Y319667D01*
X227480Y319666D01*
X227430Y319637D01*
X227378Y319611D01*
X227323Y319589D01*
X227268Y319569D01*
X227214Y319555D01*
X227157Y319540D01*
X227105Y319529D01*
X227052Y319520D01*
X227005Y319514D01*
X226959Y319509D01*
X226919Y319505D01*
X226884Y319502D01*
X226857D01*
X226844Y319500D01*
X226817D01*
X226744Y319502D01*
X226675Y319509D01*
X226610Y319520D01*
X226546Y319533D01*
X226488Y319549D01*
X226433Y319567D01*
X226382Y319587D01*
X226337Y319607D01*
X226295Y319627D01*
X226258Y319647D01*
X226226Y319666D01*
X226200Y319682D01*
X226178Y319695D01*
X226164Y319706D01*
X226155Y319713D01*
X226151Y319715D01*
X226102Y319758D01*
X226056Y319804D01*
X226014Y319853D01*
X225976Y319904D01*
X225942Y319957D01*
X225911Y320008D01*
X225883Y320059D01*
X225860Y320110D01*
X225838Y320157D01*
X225820Y320201D01*
X225805Y320239D01*
X225792Y320273D01*
X225783Y320301D01*
X225780Y320314D01*
X225778Y320323D01*
X225776Y320330D01*
X225774Y320335D01*
X225772Y320339D01*
Y320341D01*
X226105Y320425D01*
X226120Y320366D01*
X226136Y320314D01*
X226155Y320263D01*
X226176Y320217D01*
X226196Y320173D01*
X226220Y320133D01*
X226242Y320099D01*
X226264Y320066D01*
X226284Y320039D01*
X226304Y320013D01*
X226322Y319993D01*
X226338Y319977D01*
X226351Y319962D01*
X226360Y319953D01*
X226367Y319948D01*
X226369Y319946D01*
X226408Y319919D01*
X226446Y319893D01*
X226486Y319871D01*
X226526Y319853D01*
X226566Y319839D01*
X226606Y319826D01*
X226644Y319815D01*
X226680Y319806D01*
X226713Y319798D01*
X226746Y319795D01*
X226773Y319791D01*
X226797Y319788D01*
X226817D01*
X226832Y319786D01*
X226844D01*
X226886Y319788D01*
X226928Y319791D01*
X226968Y319797D01*
X227008Y319804D01*
X227045Y319813D01*
X227081Y319824D01*
X227114Y319833D01*
X227145Y319846D01*
X227172Y319857D01*
X227197Y319866D01*
X227219Y319877D01*
X227238Y319886D01*
X227252Y319893D01*
X227263Y319899D01*
X227270Y319902D01*
X227272Y319904D01*
X227308Y319928D01*
X227341Y319953D01*
X227372Y319980D01*
X227401Y320009D01*
X227427Y320039D01*
X227450Y320070D01*
X227472Y320099D01*
X227492Y320126D01*
X227509Y320153D01*
X227523Y320179D01*
X227536Y320202D01*
X227545Y320222D01*
X227554Y320239D01*
X227560Y320250D01*
X227561Y320259D01*
X227563Y320261D01*
X227580Y320306D01*
X227594Y320354D01*
X227607Y320401D01*
X227616Y320450D01*
X227634Y320543D01*
X227640Y320588D01*
X227645Y320632D01*
X227649Y320670D01*
X227651Y320707D01*
X227652Y320739D01*
X227654Y320767D01*
X227656Y320790D01*
Y320807D01*
Y320818D01*
Y320821D01*
X227654Y320869D01*
X227652Y320914D01*
X227643Y321002D01*
X227638Y321043D01*
X227631Y321083D01*
X227623Y321122D01*
X227616Y321156D01*
X227609Y321189D01*
X227603Y321218D01*
X227596Y321244D01*
X227590Y321265D01*
X227585Y321282D01*
X227581Y321294D01*
X227578Y321304D01*
Y321305D01*
X227561Y321349D01*
X227543Y321389D01*
X227523Y321427D01*
X227501Y321462D01*
X227480Y321497D01*
X227458Y321527D01*
X227434Y321555D01*
X227412Y321580D01*
X227390Y321602D01*
X227370Y321622D01*
X227352Y321638D01*
X227336Y321653D01*
X227323Y321664D01*
X227314Y321673D01*
X227307Y321677D01*
X227305Y321678D01*
X227267Y321704D01*
X227226Y321724D01*
X227186Y321744D01*
X227147Y321760D01*
X227105Y321773D01*
X227065Y321784D01*
X227026Y321793D01*
X226988Y321800D01*
X226954Y321808D01*
X226921Y321811D01*
X226892Y321815D01*
X226866Y321817D01*
X226846Y321819D01*
X226819D01*
X226771Y321817D01*
X226728Y321813D01*
X226686Y321808D01*
X226646Y321799D01*
X226610Y321790D01*
X226575Y321779D01*
X226544Y321768D01*
X226515Y321757D01*
X226489Y321744D01*
X226466Y321733D01*
X226446Y321722D01*
X226429Y321713D01*
X226417Y321704D01*
X226408Y321698D01*
X226402Y321695D01*
X226400Y321693D01*
X226369Y321668D01*
X226340Y321640D01*
X226315Y321609D01*
X226289Y321578D01*
X226266Y321544D01*
X226246Y321511D01*
X226226Y321478D01*
X226209Y321445D01*
X226195Y321415D01*
X226180Y321386D01*
X226169Y321360D01*
X226160Y321338D01*
X226153Y321318D01*
X226147Y321305D01*
X226146Y321296D01*
X226144Y321293D01*
X225816Y321369D01*
X225836Y321433D01*
X225862Y321493D01*
X225887Y321549D01*
X225916Y321602D01*
X225945Y321649D01*
X225974Y321695D01*
X226005Y321735D01*
X226034Y321771D01*
X226064Y321804D01*
X226089Y321831D01*
X226113Y321857D01*
X226134Y321875D01*
X226151Y321891D01*
X226166Y321902D01*
X226173Y321910D01*
X226176Y321912D01*
X226226Y321946D01*
X226276Y321975D01*
X226331Y322001D01*
X226384Y322023D01*
X226437Y322042D01*
X226489Y322057D01*
X226540Y322070D01*
X226590Y322081D01*
X226637Y322088D01*
X226679Y322093D01*
X226715Y322099D01*
X226748Y322101D01*
X226775Y322103D01*
X226786Y322104D01*
X226812D01*
X226873Y322103D01*
D02*
G37*
G36*
X221256Y288498D02*
X221325Y288491D01*
X221390Y288480D01*
X221454Y288467D01*
X221512Y288451D01*
X221567Y288433D01*
X221618Y288413D01*
X221663Y288393D01*
X221705Y288373D01*
X221742Y288353D01*
X221775Y288334D01*
X221800Y288318D01*
X221822Y288305D01*
X221836Y288294D01*
X221845Y288287D01*
X221849Y288285D01*
X221898Y288242D01*
X221944Y288196D01*
X221986Y288147D01*
X222024Y288096D01*
X222058Y288043D01*
X222089Y287992D01*
X222117Y287941D01*
X222140Y287890D01*
X222162Y287843D01*
X222180Y287799D01*
X222195Y287761D01*
X222208Y287726D01*
X222217Y287699D01*
X222220Y287686D01*
X222222Y287677D01*
X222224Y287670D01*
X222226Y287665D01*
X222228Y287661D01*
Y287659D01*
X221895Y287576D01*
X221880Y287634D01*
X221864Y287686D01*
X221845Y287737D01*
X221824Y287783D01*
X221804Y287827D01*
X221780Y287867D01*
X221758Y287901D01*
X221736Y287934D01*
X221716Y287961D01*
X221696Y287987D01*
X221678Y288007D01*
X221662Y288023D01*
X221649Y288038D01*
X221640Y288047D01*
X221633Y288052D01*
X221631Y288054D01*
X221592Y288081D01*
X221554Y288107D01*
X221514Y288129D01*
X221474Y288147D01*
X221434Y288161D01*
X221394Y288174D01*
X221356Y288185D01*
X221320Y288194D01*
X221287Y288202D01*
X221254Y288205D01*
X221227Y288209D01*
X221203Y288212D01*
X221183D01*
X221168Y288214D01*
X221156D01*
X221114Y288212D01*
X221072Y288209D01*
X221032Y288203D01*
X220992Y288196D01*
X220955Y288187D01*
X220919Y288176D01*
X220886Y288167D01*
X220855Y288154D01*
X220828Y288143D01*
X220803Y288134D01*
X220781Y288123D01*
X220762Y288114D01*
X220748Y288107D01*
X220737Y288102D01*
X220730Y288098D01*
X220728Y288096D01*
X220692Y288072D01*
X220659Y288047D01*
X220628Y288020D01*
X220599Y287990D01*
X220573Y287961D01*
X220550Y287930D01*
X220528Y287901D01*
X220508Y287874D01*
X220491Y287847D01*
X220477Y287821D01*
X220464Y287797D01*
X220455Y287777D01*
X220446Y287761D01*
X220440Y287750D01*
X220439Y287741D01*
X220437Y287739D01*
X220420Y287694D01*
X220406Y287647D01*
X220393Y287599D01*
X220384Y287550D01*
X220366Y287457D01*
X220360Y287412D01*
X220355Y287368D01*
X220351Y287330D01*
X220349Y287293D01*
X220348Y287261D01*
X220346Y287233D01*
X220344Y287210D01*
Y287193D01*
Y287182D01*
Y287179D01*
X220346Y287131D01*
X220348Y287086D01*
X220357Y286999D01*
X220362Y286957D01*
X220369Y286917D01*
X220377Y286878D01*
X220384Y286844D01*
X220391Y286811D01*
X220397Y286782D01*
X220404Y286756D01*
X220409Y286735D01*
X220415Y286718D01*
X220419Y286705D01*
X220422Y286696D01*
Y286695D01*
X220439Y286651D01*
X220457Y286611D01*
X220477Y286573D01*
X220499Y286538D01*
X220520Y286504D01*
X220542Y286473D01*
X220566Y286445D01*
X220588Y286420D01*
X220610Y286398D01*
X220630Y286378D01*
X220648Y286362D01*
X220664Y286347D01*
X220677Y286336D01*
X220686Y286327D01*
X220693Y286323D01*
X220695Y286321D01*
X220733Y286296D01*
X220774Y286276D01*
X220813Y286256D01*
X220853Y286240D01*
X220895Y286227D01*
X220935Y286216D01*
X220974Y286207D01*
X221012Y286200D01*
X221046Y286192D01*
X221079Y286189D01*
X221108Y286185D01*
X221134Y286183D01*
X221154Y286181D01*
X221181D01*
X221229Y286183D01*
X221272Y286187D01*
X221314Y286192D01*
X221354Y286201D01*
X221390Y286210D01*
X221425Y286221D01*
X221456Y286232D01*
X221485Y286243D01*
X221511Y286256D01*
X221534Y286267D01*
X221554Y286278D01*
X221571Y286287D01*
X221583Y286296D01*
X221592Y286301D01*
X221598Y286305D01*
X221600Y286307D01*
X221631Y286332D01*
X221660Y286360D01*
X221685Y286391D01*
X221711Y286422D01*
X221734Y286456D01*
X221754Y286489D01*
X221775Y286522D01*
X221791Y286555D01*
X221805Y286585D01*
X221820Y286614D01*
X221831Y286640D01*
X221840Y286662D01*
X221847Y286682D01*
X221853Y286695D01*
X221854Y286704D01*
X221856Y286707D01*
X222184Y286631D01*
X222164Y286567D01*
X222139Y286507D01*
X222113Y286451D01*
X222084Y286398D01*
X222055Y286351D01*
X222026Y286305D01*
X221995Y286265D01*
X221966Y286229D01*
X221936Y286196D01*
X221911Y286169D01*
X221887Y286143D01*
X221866Y286125D01*
X221849Y286109D01*
X221834Y286098D01*
X221827Y286090D01*
X221824Y286088D01*
X221775Y286054D01*
X221724Y286025D01*
X221669Y285999D01*
X221616Y285978D01*
X221563Y285958D01*
X221511Y285943D01*
X221460Y285930D01*
X221410Y285919D01*
X221363Y285912D01*
X221321Y285907D01*
X221285Y285901D01*
X221252Y285899D01*
X221225Y285897D01*
X221214Y285896D01*
X221188D01*
X221127Y285897D01*
X221066Y285903D01*
X221008Y285910D01*
X220952Y285919D01*
X220899Y285930D01*
X220848Y285945D01*
X220801Y285958D01*
X220757Y285972D01*
X220719Y285987D01*
X220683Y285999D01*
X220652Y286012D01*
X220626Y286025D01*
X220604Y286034D01*
X220590Y286041D01*
X220581Y286047D01*
X220577Y286049D01*
X220526Y286079D01*
X220479Y286112D01*
X220435Y286147D01*
X220393Y286183D01*
X220355Y286220D01*
X220320Y286256D01*
X220287Y286294D01*
X220260Y286329D01*
X220235Y286362D01*
X220211Y286394D01*
X220193Y286422D01*
X220177Y286445D01*
X220166Y286467D01*
X220157Y286482D01*
X220151Y286491D01*
X220149Y286494D01*
X220124Y286551D01*
X220100Y286607D01*
X220080Y286666D01*
X220064Y286724D01*
X220049Y286782D01*
X220036Y286840D01*
X220027Y286895D01*
X220018Y286946D01*
X220013Y286995D01*
X220007Y287040D01*
X220005Y287080D01*
X220002Y287115D01*
Y287142D01*
X220000Y287153D01*
Y287162D01*
Y287170D01*
Y287175D01*
Y287179D01*
Y287180D01*
X220002Y287248D01*
X220005Y287313D01*
X220013Y287377D01*
X220020Y287437D01*
X220031Y287497D01*
X220042Y287552D01*
X220055Y287605D01*
X220067Y287654D01*
X220078Y287697D01*
X220091Y287737D01*
X220102Y287772D01*
X220113Y287801D01*
X220120Y287825D01*
X220127Y287841D01*
X220131Y287852D01*
X220133Y287854D01*
Y287856D01*
X220158Y287912D01*
X220187Y287967D01*
X220218Y288016D01*
X220249Y288063D01*
X220282Y288105D01*
X220315Y288145D01*
X220346Y288180D01*
X220377Y288212D01*
X220406Y288242D01*
X220433Y288265D01*
X220457Y288287D01*
X220479Y288303D01*
X220497Y288316D01*
X220510Y288327D01*
X220517Y288333D01*
X220520Y288334D01*
X220570Y288364D01*
X220622Y288389D01*
X220677Y288411D01*
X220732Y288431D01*
X220786Y288445D01*
X220843Y288460D01*
X220895Y288471D01*
X220948Y288480D01*
X220995Y288486D01*
X221041Y288491D01*
X221081Y288495D01*
X221116Y288498D01*
X221143D01*
X221156Y288500D01*
X221183D01*
X221256Y288498D01*
D02*
G37*
G36*
X223676Y285930D02*
X223476D01*
X223460Y285961D01*
X223442Y285992D01*
X223400Y286052D01*
X223354Y286109D01*
X223331Y286136D01*
X223309Y286161D01*
X223287Y286183D01*
X223267Y286205D01*
X223249Y286223D01*
X223232Y286240D01*
X223219Y286252D01*
X223210Y286261D01*
X223203Y286267D01*
X223201Y286269D01*
X223127Y286331D01*
X223048Y286387D01*
X222972Y286438D01*
X222936Y286460D01*
X222901Y286482D01*
X222870Y286500D01*
X222841Y286516D01*
X222814Y286531D01*
X222792Y286542D01*
X222774Y286551D01*
X222759Y286558D01*
X222752Y286562D01*
X222748Y286564D01*
Y286862D01*
X222803Y286840D01*
X222859Y286815D01*
X222914Y286789D01*
X222965Y286764D01*
X222987Y286751D01*
X223008Y286740D01*
X223027Y286729D01*
X223041Y286720D01*
X223054Y286715D01*
X223065Y286709D01*
X223070Y286705D01*
X223072Y286704D01*
X223138Y286664D01*
X223167Y286644D01*
X223196Y286625D01*
X223221Y286605D01*
X223245Y286589D01*
X223267Y286571D01*
X223289Y286556D01*
X223305Y286542D01*
X223322Y286529D01*
X223336Y286516D01*
X223347Y286507D01*
X223356Y286500D01*
X223361Y286494D01*
X223365Y286491D01*
X223367Y286489D01*
Y288458D01*
X223676D01*
Y285930D01*
D02*
G37*
G36*
X238556Y305771D02*
X238586Y305791D01*
X238617Y305813D01*
X238645Y305835D01*
X238670Y305855D01*
X238690Y305873D01*
X238707Y305888D01*
X238718Y305897D01*
X238721Y305900D01*
X238739Y305917D01*
X238759Y305938D01*
X238781Y305962D01*
X238807Y305989D01*
X238832Y306018D01*
X238860Y306048D01*
X238912Y306109D01*
X238938Y306139D01*
X238961Y306166D01*
X238983Y306190D01*
X239001Y306213D01*
X239018Y306231D01*
X239029Y306244D01*
X239038Y306253D01*
X239040Y306257D01*
X239091Y306317D01*
X239140Y306373D01*
X239185Y306424D01*
X239227Y306472D01*
X239267Y306515D01*
X239303Y306554D01*
X239336Y306590D01*
X239365Y306621D01*
X239393Y306648D01*
X239416Y306670D01*
X239436Y306690D01*
X239453Y306707D01*
X239465Y306719D01*
X239475Y306727D01*
X239480Y306732D01*
X239482Y306734D01*
X239513Y306759D01*
X239542Y306785D01*
X239571Y306807D01*
X239598Y306827D01*
X239651Y306863D01*
X239675Y306878D01*
X239697Y306890D01*
X239717Y306903D01*
X239735Y306912D01*
X239751Y306921D01*
X239764Y306927D01*
X239775Y306932D01*
X239782Y306936D01*
X239788Y306939D01*
X239790D01*
X239844Y306960D01*
X239897Y306976D01*
X239948Y306987D01*
X239993Y306994D01*
X240013Y306996D01*
X240032Y306998D01*
X240046Y306999D01*
X240061Y307001D01*
X240072D01*
X240079D01*
X240084D01*
X240086D01*
X240141Y306999D01*
X240194Y306992D01*
X240243Y306981D01*
X240290Y306969D01*
X240334Y306952D01*
X240375Y306934D01*
X240414Y306914D01*
X240448Y306896D01*
X240479Y306876D01*
X240507Y306856D01*
X240530Y306838D01*
X240548Y306821D01*
X240565Y306808D01*
X240576Y306798D01*
X240583Y306790D01*
X240585Y306788D01*
X240621Y306747D01*
X240652Y306703D01*
X240678Y306657D01*
X240701Y306610D01*
X240721Y306563D01*
X240738Y306514D01*
X240751Y306468D01*
X240761Y306423D01*
X240771Y306381D01*
X240776Y306341D01*
X240781Y306306D01*
X240783Y306275D01*
X240785Y306250D01*
X240787Y306231D01*
Y306215D01*
X240785Y306150D01*
X240780Y306088D01*
X240771Y306029D01*
X240758Y305975D01*
X240743Y305924D01*
X240727Y305877D01*
X240710Y305835D01*
X240694Y305795D01*
X240676Y305760D01*
X240659Y305729D01*
X240643Y305704D01*
X240629Y305682D01*
X240618Y305665D01*
X240607Y305653D01*
X240601Y305645D01*
X240599Y305644D01*
X240563Y305605D01*
X240523Y305573D01*
X240481Y305542D01*
X240437Y305516D01*
X240392Y305492D01*
X240346Y305472D01*
X240303Y305456D01*
X240259Y305442D01*
X240219Y305431D01*
X240181Y305422D01*
X240146Y305414D01*
X240117Y305409D01*
X240093Y305403D01*
X240075Y305401D01*
X240068D01*
X240062Y305400D01*
X240061D01*
X240059D01*
X240026Y305718D01*
X240070Y305720D01*
X240110Y305724D01*
X240148Y305731D01*
X240184Y305738D01*
X240217Y305749D01*
X240246Y305760D01*
X240275Y305773D01*
X240299Y305786D01*
X240321Y305797D01*
X240341Y305809D01*
X240357Y305820D01*
X240372Y305831D01*
X240381Y305838D01*
X240390Y305846D01*
X240394Y305849D01*
X240396Y305851D01*
X240419Y305877D01*
X240439Y305906D01*
X240457Y305935D01*
X240474Y305964D01*
X240487Y305995D01*
X240497Y306024D01*
X240507Y306053D01*
X240514Y306080D01*
X240519Y306108D01*
X240523Y306131D01*
X240527Y306153D01*
X240528Y306173D01*
X240530Y306188D01*
Y306210D01*
X240528Y306248D01*
X240525Y306284D01*
X240519Y306319D01*
X240510Y306352D01*
X240501Y306381D01*
X240490Y306410D01*
X240479Y306435D01*
X240466Y306459D01*
X240456Y306479D01*
X240443Y306497D01*
X240432Y306514D01*
X240423Y306526D01*
X240414Y306537D01*
X240408Y306544D01*
X240405Y306548D01*
X240403Y306550D01*
X240379Y306574D01*
X240354Y306594D01*
X240328Y306612D01*
X240301Y306626D01*
X240275Y306639D01*
X240250Y306650D01*
X240225Y306659D01*
X240201Y306666D01*
X240179Y306672D01*
X240159Y306676D01*
X240141Y306679D01*
X240124Y306681D01*
X240112Y306683D01*
X240103D01*
X240095D01*
X240093D01*
X240061Y306681D01*
X240028Y306677D01*
X239995Y306670D01*
X239962Y306661D01*
X239899Y306637D01*
X239870Y306623D01*
X239842Y306610D01*
X239817Y306597D01*
X239793Y306583D01*
X239773Y306572D01*
X239755Y306561D01*
X239742Y306550D01*
X239731Y306543D01*
X239724Y306539D01*
X239722Y306537D01*
X239684Y306508D01*
X239642Y306472D01*
X239600Y306434D01*
X239557Y306390D01*
X239511Y306346D01*
X239467Y306299D01*
X239424Y306253D01*
X239382Y306206D01*
X239342Y306162D01*
X239305Y306120D01*
X239271Y306084D01*
X239244Y306049D01*
X239220Y306022D01*
X239211Y306011D01*
X239202Y306002D01*
X239196Y305995D01*
X239191Y305989D01*
X239189Y305986D01*
X239187Y305984D01*
X239147Y305937D01*
X239109Y305891D01*
X239072Y305849D01*
X239038Y305809D01*
X239003Y305773D01*
X238972Y305740D01*
X238943Y305711D01*
X238916Y305684D01*
X238892Y305658D01*
X238870Y305638D01*
X238852Y305620D01*
X238836Y305605D01*
X238823Y305594D01*
X238814Y305587D01*
X238808Y305582D01*
X238807Y305580D01*
X238745Y305531D01*
X238685Y305489D01*
X238628Y305454D01*
X238603Y305438D01*
X238577Y305425D01*
X238556Y305414D01*
X238535Y305403D01*
X238517Y305394D01*
X238501Y305389D01*
X238488Y305383D01*
X238479Y305380D01*
X238474Y305376D01*
X238472D01*
X238434Y305363D01*
X238395Y305354D01*
X238359Y305349D01*
X238328Y305345D01*
X238299Y305343D01*
X238288Y305342D01*
X238277D01*
X238270D01*
X238264D01*
X238261D01*
X238259D01*
Y307005D01*
X238556D01*
Y305771D01*
D02*
G37*
G36*
X239593Y305045D02*
X239653Y305043D01*
X239711Y305037D01*
X239766Y305030D01*
X239819Y305023D01*
X239868Y305016D01*
X239915Y305007D01*
X239957Y304997D01*
X239995Y304987D01*
X240030Y304977D01*
X240059Y304970D01*
X240084Y304963D01*
X240104Y304956D01*
X240117Y304950D01*
X240126Y304948D01*
X240130Y304946D01*
X240177Y304926D01*
X240225Y304905D01*
X240266Y304883D01*
X240308Y304859D01*
X240346Y304834D01*
X240381Y304808D01*
X240414Y304785D01*
X240445Y304761D01*
X240470Y304737D01*
X240494Y304717D01*
X240514Y304697D01*
X240530Y304681D01*
X240543Y304668D01*
X240554Y304657D01*
X240559Y304650D01*
X240561Y304648D01*
X240585Y304619D01*
X240607Y304588D01*
X240643Y304526D01*
X240676Y304464D01*
X240700Y304408D01*
X240710Y304380D01*
X240718Y304357D01*
X240725Y304335D01*
X240732Y304317D01*
X240736Y304300D01*
X240739Y304290D01*
X240741Y304282D01*
Y304280D01*
X240749Y304250D01*
X240754Y304217D01*
X240758Y304182D01*
X240763Y304146D01*
X240769Y304071D01*
X240774Y303998D01*
Y303964D01*
X240776Y303933D01*
Y303904D01*
X240778Y303880D01*
Y302965D01*
X238259D01*
Y303873D01*
X238261Y303955D01*
X238263Y303995D01*
X238266Y304031D01*
X238268Y304067D01*
X238272Y304100D01*
X238275Y304131D01*
X238281Y304160D01*
X238284Y304186D01*
X238288Y304209D01*
X238292Y304229D01*
X238293Y304246D01*
X238297Y304259D01*
X238299Y304270D01*
X238301Y304275D01*
Y304277D01*
X238319Y304341D01*
X238339Y304399D01*
X238350Y304424D01*
X238359Y304450D01*
X238370Y304471D01*
X238381Y304493D01*
X238390Y304512D01*
X238399Y304528D01*
X238406Y304542D01*
X238414Y304555D01*
X238419Y304564D01*
X238423Y304572D01*
X238426Y304575D01*
Y304577D01*
X238461Y304623D01*
X238497Y304666D01*
X238535Y304704D01*
X238572Y304739D01*
X238605Y304766D01*
X238619Y304779D01*
X238632Y304788D01*
X238641Y304796D01*
X238650Y304801D01*
X238654Y304805D01*
X238656Y304806D01*
X238714Y304845D01*
X238774Y304877D01*
X238836Y304908D01*
X238894Y304932D01*
X238919Y304943D01*
X238945Y304952D01*
X238967Y304961D01*
X238985Y304967D01*
X239000Y304972D01*
X239012Y304976D01*
X239020Y304979D01*
X239021D01*
X239107Y305001D01*
X239194Y305017D01*
X239280Y305030D01*
X239322Y305034D01*
X239360Y305037D01*
X239396Y305041D01*
X239429Y305043D01*
X239458Y305045D01*
X239482D01*
X239504Y305047D01*
X239518D01*
X239527D01*
X239531D01*
X239593Y305045D01*
D02*
G37*
G36*
X224756Y296498D02*
X224825Y296491D01*
X224890Y296480D01*
X224954Y296467D01*
X225012Y296451D01*
X225067Y296433D01*
X225118Y296413D01*
X225163Y296393D01*
X225205Y296373D01*
X225242Y296353D01*
X225274Y296334D01*
X225300Y296318D01*
X225322Y296305D01*
X225336Y296294D01*
X225345Y296287D01*
X225349Y296285D01*
X225398Y296242D01*
X225444Y296196D01*
X225486Y296147D01*
X225524Y296096D01*
X225558Y296043D01*
X225589Y295992D01*
X225617Y295941D01*
X225640Y295890D01*
X225662Y295843D01*
X225680Y295799D01*
X225695Y295761D01*
X225708Y295726D01*
X225717Y295699D01*
X225720Y295687D01*
X225722Y295677D01*
X225724Y295670D01*
X225726Y295665D01*
X225728Y295661D01*
Y295659D01*
X225395Y295575D01*
X225380Y295634D01*
X225364Y295687D01*
X225345Y295737D01*
X225324Y295783D01*
X225304Y295827D01*
X225280Y295867D01*
X225258Y295901D01*
X225236Y295934D01*
X225216Y295961D01*
X225196Y295987D01*
X225178Y296007D01*
X225162Y296023D01*
X225149Y296038D01*
X225140Y296047D01*
X225132Y296052D01*
X225131Y296054D01*
X225092Y296081D01*
X225054Y296107D01*
X225014Y296129D01*
X224974Y296147D01*
X224934Y296162D01*
X224894Y296174D01*
X224856Y296185D01*
X224819Y296194D01*
X224787Y296201D01*
X224754Y296205D01*
X224727Y296209D01*
X224703Y296213D01*
X224683D01*
X224668Y296214D01*
X224656D01*
X224614Y296213D01*
X224572Y296209D01*
X224532Y296203D01*
X224492Y296196D01*
X224455Y296187D01*
X224419Y296176D01*
X224386Y296167D01*
X224355Y296154D01*
X224328Y296143D01*
X224303Y296134D01*
X224281Y296123D01*
X224262Y296114D01*
X224248Y296107D01*
X224237Y296101D01*
X224230Y296098D01*
X224228Y296096D01*
X224191Y296072D01*
X224159Y296047D01*
X224128Y296020D01*
X224099Y295990D01*
X224073Y295961D01*
X224050Y295930D01*
X224028Y295901D01*
X224008Y295874D01*
X223991Y295847D01*
X223977Y295821D01*
X223964Y295797D01*
X223955Y295778D01*
X223946Y295761D01*
X223940Y295750D01*
X223938Y295741D01*
X223937Y295739D01*
X223920Y295694D01*
X223906Y295647D01*
X223893Y295599D01*
X223884Y295550D01*
X223866Y295457D01*
X223860Y295412D01*
X223855Y295368D01*
X223851Y295330D01*
X223849Y295293D01*
X223848Y295261D01*
X223846Y295233D01*
X223844Y295210D01*
Y295193D01*
Y295182D01*
Y295179D01*
X223846Y295131D01*
X223848Y295086D01*
X223857Y294999D01*
X223862Y294957D01*
X223869Y294917D01*
X223877Y294878D01*
X223884Y294844D01*
X223891Y294811D01*
X223897Y294782D01*
X223904Y294757D01*
X223909Y294735D01*
X223915Y294718D01*
X223919Y294706D01*
X223922Y294696D01*
Y294695D01*
X223938Y294651D01*
X223957Y294611D01*
X223977Y294573D01*
X223999Y294538D01*
X224020Y294503D01*
X224042Y294473D01*
X224066Y294445D01*
X224088Y294420D01*
X224110Y294398D01*
X224130Y294378D01*
X224148Y294361D01*
X224164Y294347D01*
X224177Y294336D01*
X224186Y294327D01*
X224193Y294323D01*
X224195Y294321D01*
X224233Y294296D01*
X224273Y294276D01*
X224313Y294256D01*
X224354Y294240D01*
X224395Y294227D01*
X224435Y294216D01*
X224474Y294207D01*
X224512Y294199D01*
X224546Y294192D01*
X224579Y294189D01*
X224608Y294185D01*
X224634Y294183D01*
X224654Y294181D01*
X224681D01*
X224728Y294183D01*
X224772Y294187D01*
X224814Y294192D01*
X224854Y294201D01*
X224890Y294211D01*
X224925Y294221D01*
X224956Y294232D01*
X224985Y294243D01*
X225010Y294256D01*
X225034Y294267D01*
X225054Y294278D01*
X225071Y294287D01*
X225083Y294296D01*
X225092Y294302D01*
X225098Y294305D01*
X225100Y294307D01*
X225131Y294332D01*
X225160Y294360D01*
X225185Y294391D01*
X225211Y294422D01*
X225234Y294456D01*
X225254Y294489D01*
X225274Y294522D01*
X225291Y294554D01*
X225305Y294585D01*
X225320Y294615D01*
X225331Y294640D01*
X225340Y294662D01*
X225347Y294682D01*
X225353Y294695D01*
X225355Y294704D01*
X225356Y294707D01*
X225684Y294631D01*
X225664Y294567D01*
X225638Y294507D01*
X225613Y294451D01*
X225584Y294398D01*
X225555Y294351D01*
X225526Y294305D01*
X225495Y294265D01*
X225465Y294229D01*
X225436Y294196D01*
X225411Y294169D01*
X225387Y294143D01*
X225365Y294125D01*
X225349Y294109D01*
X225335Y294098D01*
X225327Y294090D01*
X225324Y294089D01*
X225274Y294054D01*
X225223Y294025D01*
X225169Y293999D01*
X225116Y293977D01*
X225063Y293957D01*
X225010Y293943D01*
X224960Y293930D01*
X224910Y293919D01*
X224863Y293912D01*
X224821Y293906D01*
X224785Y293901D01*
X224752Y293899D01*
X224725Y293897D01*
X224714Y293896D01*
X224688D01*
X224626Y293897D01*
X224566Y293903D01*
X224508Y293910D01*
X224452Y293919D01*
X224399Y293930D01*
X224348Y293945D01*
X224301Y293957D01*
X224257Y293972D01*
X224219Y293987D01*
X224182Y293999D01*
X224151Y294012D01*
X224126Y294025D01*
X224104Y294034D01*
X224090Y294041D01*
X224080Y294047D01*
X224077Y294049D01*
X224026Y294079D01*
X223979Y294112D01*
X223935Y294147D01*
X223893Y294183D01*
X223855Y294220D01*
X223820Y294256D01*
X223787Y294294D01*
X223760Y294329D01*
X223735Y294361D01*
X223711Y294394D01*
X223693Y294422D01*
X223676Y294445D01*
X223665Y294467D01*
X223656Y294482D01*
X223651Y294491D01*
X223649Y294494D01*
X223624Y294551D01*
X223600Y294607D01*
X223580Y294666D01*
X223564Y294724D01*
X223549Y294782D01*
X223536Y294840D01*
X223527Y294895D01*
X223518Y294946D01*
X223513Y294995D01*
X223507Y295040D01*
X223505Y295080D01*
X223502Y295115D01*
Y295142D01*
X223500Y295153D01*
Y295162D01*
Y295170D01*
Y295175D01*
Y295179D01*
Y295181D01*
X223502Y295248D01*
X223505Y295313D01*
X223513Y295377D01*
X223520Y295437D01*
X223531Y295497D01*
X223542Y295552D01*
X223554Y295605D01*
X223567Y295654D01*
X223578Y295697D01*
X223591Y295737D01*
X223602Y295772D01*
X223613Y295801D01*
X223620Y295825D01*
X223627Y295841D01*
X223631Y295852D01*
X223633Y295854D01*
Y295856D01*
X223658Y295912D01*
X223687Y295967D01*
X223718Y296016D01*
X223749Y296063D01*
X223782Y296105D01*
X223815Y296145D01*
X223846Y296180D01*
X223877Y296213D01*
X223906Y296242D01*
X223933Y296265D01*
X223957Y296287D01*
X223979Y296304D01*
X223997Y296316D01*
X224009Y296327D01*
X224017Y296333D01*
X224020Y296334D01*
X224070Y296363D01*
X224122Y296389D01*
X224177Y296411D01*
X224232Y296431D01*
X224286Y296445D01*
X224343Y296460D01*
X224395Y296471D01*
X224448Y296480D01*
X224496Y296485D01*
X224541Y296491D01*
X224581Y296495D01*
X224616Y296498D01*
X224643D01*
X224656Y296500D01*
X224683D01*
X224756Y296498D01*
D02*
G37*
G36*
X227313Y295856D02*
X227653D01*
Y295572D01*
X227313D01*
Y293939D01*
X227060D01*
X225911Y295572D01*
Y295856D01*
X227003D01*
Y296458D01*
X227313D01*
Y295856D01*
D02*
G37*
%LPC*%
G36*
X263029Y303846D02*
X263020D01*
X263015D01*
X263013D01*
X262984Y303844D01*
X262954Y303840D01*
X262927Y303835D01*
X262902Y303827D01*
X262854Y303809D01*
X262834Y303798D01*
X262814Y303789D01*
X262798Y303778D01*
X262782Y303767D01*
X262769Y303758D01*
X262758Y303749D01*
X262749Y303742D01*
X262743Y303736D01*
X262740Y303733D01*
X262738Y303731D01*
X262718Y303709D01*
X262702Y303685D01*
X262687Y303662D01*
X262674Y303638D01*
X262663Y303613D01*
X262654Y303589D01*
X262642Y303543D01*
X262636Y303522D01*
X262632Y303502D01*
X262631Y303485D01*
X262629Y303469D01*
X262627Y303456D01*
Y303440D01*
X262629Y303407D01*
X262632Y303374D01*
X262638Y303343D01*
X262645Y303316D01*
X262652Y303289D01*
X262663Y303265D01*
X262672Y303241D01*
X262683Y303221D01*
X262694Y303203D01*
X262703Y303187D01*
X262714Y303174D01*
X262722Y303161D01*
X262729Y303154D01*
X262734Y303147D01*
X262738Y303143D01*
X262740Y303141D01*
X262762Y303121D01*
X262785Y303105D01*
X262809Y303088D01*
X262833Y303076D01*
X262858Y303065D01*
X262882Y303056D01*
X262927Y303043D01*
X262949Y303037D01*
X262969Y303034D01*
X262985Y303032D01*
X263002Y303030D01*
X263015Y303028D01*
X263024D01*
X263029D01*
X263031D01*
X263060Y303030D01*
X263087Y303034D01*
X263115Y303039D01*
X263138Y303046D01*
X263186Y303065D01*
X263206Y303076D01*
X263224Y303087D01*
X263242Y303096D01*
X263257Y303107D01*
X263269Y303116D01*
X263280Y303125D01*
X263289Y303132D01*
X263295Y303137D01*
X263299Y303141D01*
X263300Y303143D01*
X263320Y303165D01*
X263339Y303188D01*
X263353Y303214D01*
X263366Y303238D01*
X263379Y303263D01*
X263388Y303287D01*
X263400Y303334D01*
X263406Y303354D01*
X263409Y303374D01*
X263411Y303392D01*
X263413Y303407D01*
X263415Y303420D01*
Y303436D01*
X263413Y303469D01*
X263409Y303498D01*
X263404Y303527D01*
X263397Y303556D01*
X263388Y303582D01*
X263379Y303605D01*
X263368Y303627D01*
X263357Y303647D01*
X263346Y303665D01*
X263335Y303682D01*
X263326Y303695D01*
X263317Y303707D01*
X263309Y303714D01*
X263304Y303722D01*
X263300Y303725D01*
X263299Y303727D01*
X263277Y303747D01*
X263253Y303765D01*
X263229Y303782D01*
X263206Y303796D01*
X263180Y303807D01*
X263157Y303816D01*
X263113Y303831D01*
X263091Y303836D01*
X263073Y303840D01*
X263056Y303842D01*
X263042Y303844D01*
X263029Y303846D01*
D02*
G37*
G36*
X261868Y303949D02*
X261861D01*
X261859D01*
X261819Y303947D01*
X261781Y303944D01*
X261744Y303937D01*
X261710Y303927D01*
X261677Y303917D01*
X261648Y303904D01*
X261620Y303891D01*
X261595Y303878D01*
X261573Y303864D01*
X261553Y303851D01*
X261537Y303838D01*
X261522Y303827D01*
X261511Y303818D01*
X261504Y303811D01*
X261498Y303807D01*
X261497Y303805D01*
X261471Y303778D01*
X261449Y303749D01*
X261431Y303718D01*
X261415Y303687D01*
X261400Y303656D01*
X261389Y303627D01*
X261380Y303596D01*
X261373Y303569D01*
X261368Y303542D01*
X261362Y303518D01*
X261358Y303496D01*
X261357Y303476D01*
Y303462D01*
X261355Y303449D01*
Y303440D01*
X261358Y303387D01*
X261366Y303338D01*
X261377Y303294D01*
X261389Y303254D01*
X261395Y303236D01*
X261400Y303221D01*
X261406Y303207D01*
X261411Y303196D01*
X261417Y303187D01*
X261419Y303179D01*
X261422Y303176D01*
Y303174D01*
X261449Y303130D01*
X261480Y303092D01*
X261513Y303061D01*
X261542Y303036D01*
X261571Y303014D01*
X261582Y303007D01*
X261593Y302999D01*
X261602Y302996D01*
X261608Y302992D01*
X261611Y302988D01*
X261613D01*
X261661Y302968D01*
X261706Y302952D01*
X261748Y302941D01*
X261788Y302934D01*
X261804Y302932D01*
X261821Y302930D01*
X261833Y302928D01*
X261846D01*
X261855Y302926D01*
X261862D01*
X261866D01*
X261868D01*
X261908Y302928D01*
X261946Y302932D01*
X261981Y302939D01*
X262015Y302948D01*
X262048Y302959D01*
X262077Y302972D01*
X262105Y302985D01*
X262130Y302997D01*
X262152Y303010D01*
X262172Y303023D01*
X262188Y303036D01*
X262203Y303046D01*
X262214Y303056D01*
X262221Y303063D01*
X262227Y303067D01*
X262228Y303068D01*
X262254Y303096D01*
X262276Y303125D01*
X262296Y303154D01*
X262312Y303185D01*
X262327Y303216D01*
X262339Y303245D01*
X262349Y303274D01*
X262356Y303301D01*
X262361Y303329D01*
X262367Y303352D01*
X262370Y303374D01*
X262372Y303392D01*
X262374Y303407D01*
Y303429D01*
X262372Y303471D01*
X262368Y303509D01*
X262361Y303547D01*
X262350Y303582D01*
X262339Y303614D01*
X262327Y303645D01*
X262314Y303673D01*
X262301Y303698D01*
X262287Y303722D01*
X262274Y303742D01*
X262261Y303758D01*
X262250Y303773D01*
X262241Y303785D01*
X262234Y303793D01*
X262228Y303798D01*
X262227Y303800D01*
X262199Y303825D01*
X262168Y303849D01*
X262139Y303869D01*
X262108Y303886D01*
X262077Y303900D01*
X262046Y303913D01*
X262017Y303922D01*
X261988Y303931D01*
X261961Y303937D01*
X261937Y303942D01*
X261915Y303946D01*
X261895Y303947D01*
X261881D01*
X261868Y303949D01*
D02*
G37*
G36*
X298660Y305324D02*
X298645D01*
X298638D01*
X298634D01*
X298585Y305322D01*
X298540Y305318D01*
X298498Y305311D01*
X298458Y305302D01*
X298420Y305291D01*
X298385Y305280D01*
X298354Y305267D01*
X298327Y305255D01*
X298301Y305242D01*
X298280Y305229D01*
X298261Y305218D01*
X298245Y305207D01*
X298234Y305198D01*
X298225Y305191D01*
X298219Y305187D01*
X298218Y305186D01*
X298192Y305158D01*
X298168Y305131D01*
X298148Y305102D01*
X298132Y305073D01*
X298117Y305042D01*
X298105Y305013D01*
X298096Y304985D01*
X298087Y304958D01*
X298081Y304931D01*
X298076Y304907D01*
X298074Y304887D01*
X298070Y304869D01*
Y304852D01*
X298068Y304841D01*
Y304832D01*
X298070Y304792D01*
X298076Y304756D01*
X298083Y304719D01*
X298092Y304685D01*
X298103Y304654D01*
X298116Y304625D01*
X298129Y304598D01*
X298143Y304572D01*
X298158Y304550D01*
X298170Y304530D01*
X298183Y304514D01*
X298194Y304499D01*
X298203Y304488D01*
X298212Y304481D01*
X298216Y304476D01*
X298218Y304474D01*
X298247Y304448D01*
X298278Y304427D01*
X298310Y304406D01*
X298343Y304390D01*
X298376Y304377D01*
X298409Y304365D01*
X298440Y304356D01*
X298471Y304348D01*
X298498Y304343D01*
X298525Y304337D01*
X298549Y304334D01*
X298569Y304332D01*
X298585D01*
X298598Y304330D01*
X298607D01*
X298609D01*
X298658Y304332D01*
X298705Y304337D01*
X298749Y304345D01*
X298789Y304354D01*
X298829Y304365D01*
X298864Y304377D01*
X298897Y304392D01*
X298927Y304406D01*
X298953Y304419D01*
X298977Y304434D01*
X298997Y304447D01*
X299013Y304457D01*
X299027Y304467D01*
X299037Y304474D01*
X299042Y304479D01*
X299044Y304481D01*
X299073Y304510D01*
X299100Y304541D01*
X299122Y304570D01*
X299142Y304601D01*
X299159Y304632D01*
X299171Y304663D01*
X299182Y304690D01*
X299191Y304719D01*
X299199Y304745D01*
X299204Y304769D01*
X299208Y304789D01*
X299211Y304807D01*
Y304821D01*
X299213Y304832D01*
Y304841D01*
X299211Y304878D01*
X299206Y304912D01*
X299199Y304947D01*
X299189Y304978D01*
X299177Y305009D01*
X299164Y305036D01*
X299149Y305062D01*
X299135Y305085D01*
X299120Y305107D01*
X299106Y305127D01*
X299093Y305144D01*
X299080Y305156D01*
X299071Y305167D01*
X299064Y305174D01*
X299059Y305180D01*
X299057Y305182D01*
X299026Y305207D01*
X298993Y305229D01*
X298960Y305247D01*
X298926Y305264D01*
X298889Y305278D01*
X298855Y305289D01*
X298820Y305298D01*
X298787Y305306D01*
X298756Y305311D01*
X298727Y305316D01*
X298702Y305320D01*
X298678Y305322D01*
X298660Y305324D01*
D02*
G37*
G36*
X220856Y327581D02*
X219720Y326791D01*
X220856D01*
Y327581D01*
D02*
G37*
G36*
X311798Y299245D02*
X311789D01*
X311751Y299243D01*
X311712Y299236D01*
X311676Y299227D01*
X311643Y299213D01*
X311611Y299198D01*
X311581Y299182D01*
X311554Y299162D01*
X311530Y299143D01*
X311507Y299125D01*
X311489Y299105D01*
X311470Y299089D01*
X311456Y299072D01*
X311445Y299060D01*
X311438Y299050D01*
X311432Y299043D01*
X311430Y299041D01*
X311418Y299021D01*
X311405Y298998D01*
X311394Y298974D01*
X311383Y298947D01*
X311363Y298890D01*
X311347Y298827D01*
X311334Y298759D01*
X311321Y298690D01*
X311312Y298621D01*
X311305Y298552D01*
X311299Y298486D01*
X311294Y298424D01*
X311290Y298366D01*
Y298341D01*
X311288Y298317D01*
Y298295D01*
Y298275D01*
X311287Y298259D01*
Y298244D01*
Y298232D01*
Y298224D01*
Y298219D01*
Y298217D01*
Y298161D01*
X311288Y298106D01*
X311290Y298053D01*
X311294Y298002D01*
X311297Y297955D01*
X311301Y297909D01*
X311307Y297866D01*
X311312Y297824D01*
X311317Y297784D01*
X311323Y297746D01*
X311330Y297709D01*
X311337Y297676D01*
X311343Y297644D01*
X311350Y297615D01*
X311357Y297585D01*
X311367Y297560D01*
X311381Y297513D01*
X311396Y297473D01*
X311408Y297440D01*
X311419Y297412D01*
X311430Y297393D01*
X311438Y297378D01*
X311443Y297369D01*
X311445Y297367D01*
X311470Y297336D01*
X311496Y297307D01*
X311523Y297283D01*
X311552Y297263D01*
X311580Y297245D01*
X311609Y297231D01*
X311636Y297220D01*
X311663Y297209D01*
X311689Y297201D01*
X311711Y297196D01*
X311733Y297192D01*
X311751Y297190D01*
X311765Y297189D01*
X311776Y297187D01*
X311785D01*
X311825Y297189D01*
X311863Y297196D01*
X311898Y297205D01*
X311933Y297220D01*
X311965Y297234D01*
X311995Y297252D01*
X312022Y297270D01*
X312047Y297289D01*
X312069Y297309D01*
X312089Y297327D01*
X312106Y297345D01*
X312120Y297360D01*
X312131Y297374D01*
X312138Y297383D01*
X312144Y297391D01*
X312146Y297393D01*
X312158Y297412D01*
X312171Y297436D01*
X312182Y297460D01*
X312193Y297487D01*
X312213Y297544D01*
X312229Y297607D01*
X312244Y297675D01*
X312257Y297744D01*
X312266Y297813D01*
X312273Y297880D01*
X312279Y297948D01*
X312284Y298009D01*
X312288Y298066D01*
Y298093D01*
X312289Y298117D01*
Y298139D01*
X312291Y298159D01*
Y298175D01*
Y298190D01*
Y298201D01*
Y298210D01*
Y298215D01*
Y298217D01*
Y298273D01*
X312289Y298328D01*
X312288Y298381D01*
X312286Y298430D01*
X312282Y298477D01*
X312279Y298523D01*
X312273Y298566D01*
X312269Y298606D01*
X312264Y298646D01*
X312257Y298683D01*
X312251Y298717D01*
X312246Y298750D01*
X312238Y298781D01*
X312231Y298808D01*
X312226Y298836D01*
X312218Y298861D01*
X312206Y298907D01*
X312191Y298943D01*
X312180Y298974D01*
X312169Y299000D01*
X312158Y299018D01*
X312151Y299030D01*
X312147Y299040D01*
X312146Y299041D01*
X312118Y299078D01*
X312089Y299109D01*
X312058Y299136D01*
X312029Y299160D01*
X311998Y299180D01*
X311969Y299196D01*
X311940Y299209D01*
X311913Y299220D01*
X311887Y299229D01*
X311863Y299234D01*
X311842Y299240D01*
X311824Y299242D01*
X311809Y299243D01*
X311798Y299245D01*
D02*
G37*
G36*
X251375Y304738D02*
X251364D01*
X251355D01*
X251346D01*
X251340D01*
X251338D01*
X251337D01*
X251284D01*
X251233Y304734D01*
X251185Y304733D01*
X251140Y304727D01*
X251098Y304722D01*
X251058Y304716D01*
X251020Y304711D01*
X250987Y304705D01*
X250956Y304698D01*
X250929Y304693D01*
X250905Y304687D01*
X250887Y304682D01*
X250871Y304676D01*
X250860Y304674D01*
X250852Y304671D01*
X250851D01*
X250814Y304658D01*
X250780Y304644D01*
X250747Y304629D01*
X250716Y304614D01*
X250689Y304600D01*
X250661Y304583D01*
X250638Y304569D01*
X250616Y304554D01*
X250598Y304540D01*
X250579Y304527D01*
X250565Y304516D01*
X250554Y304507D01*
X250545Y304498D01*
X250537Y304492D01*
X250534Y304489D01*
X250532Y304487D01*
X250503Y304452D01*
X250476Y304416D01*
X250454Y304378D01*
X250436Y304341D01*
X250421Y304309D01*
X250414Y304296D01*
X250410Y304283D01*
X250407Y304274D01*
X250403Y304265D01*
X250401Y304261D01*
Y304259D01*
X250394Y304232D01*
X250387Y304203D01*
X250376Y304139D01*
X250366Y304074D01*
X250361Y304012D01*
X250359Y303983D01*
X250357Y303956D01*
Y303932D01*
X250356Y303912D01*
Y303333D01*
X252281D01*
Y303916D01*
X252279Y303965D01*
X252276Y304010D01*
X252274Y304054D01*
X252268Y304092D01*
X252265Y304128D01*
X252259Y304159D01*
X252256Y304188D01*
X252250Y304212D01*
X252245Y304234D01*
X252241Y304252D01*
X252237Y304267D01*
X252234Y304278D01*
X252230Y304287D01*
X252228Y304290D01*
Y304292D01*
X252214Y304327D01*
X252196Y304360D01*
X252175Y304391D01*
X252154Y304420D01*
X252130Y304447D01*
X252106Y304474D01*
X252083Y304498D01*
X252059Y304520D01*
X252035Y304540D01*
X252014Y304556D01*
X251993Y304571D01*
X251977Y304583D01*
X251963Y304594D01*
X251952Y304602D01*
X251944Y304605D01*
X251943Y304607D01*
X251901Y304631D01*
X251855Y304651D01*
X251808Y304667D01*
X251759Y304683D01*
X251708Y304696D01*
X251659Y304705D01*
X251608Y304714D01*
X251560Y304722D01*
X251515Y304727D01*
X251473Y304731D01*
X251435Y304734D01*
X251402Y304736D01*
X251375Y304738D01*
D02*
G37*
G36*
X222698Y320903D02*
X222689D01*
X222651Y320901D01*
X222613Y320896D01*
X222578Y320889D01*
X222546Y320880D01*
X222515Y320869D01*
X222485Y320856D01*
X222460Y320841D01*
X222434Y320829D01*
X222414Y320814D01*
X222394Y320799D01*
X222378Y320787D01*
X222365Y320776D01*
X222354Y320767D01*
X222345Y320759D01*
X222342Y320754D01*
X222340Y320752D01*
X222314Y320723D01*
X222294Y320690D01*
X222274Y320657D01*
X222258Y320625D01*
X222245Y320590D01*
X222234Y320555D01*
X222225Y320523D01*
X222218Y320490D01*
X222211Y320459D01*
X222207Y320432D01*
X222203Y320406D01*
X222201Y320385D01*
X222200Y320366D01*
Y320352D01*
Y320344D01*
Y320341D01*
X222201Y320292D01*
X222205Y320244D01*
X222212Y320201D01*
X222221Y320159D01*
X222233Y320121D01*
X222245Y320086D01*
X222258Y320053D01*
X222271Y320024D01*
X222283Y319999D01*
X222296Y319975D01*
X222309Y319957D01*
X222320Y319940D01*
X222329Y319928D01*
X222336Y319919D01*
X222340Y319913D01*
X222342Y319911D01*
X222369Y319884D01*
X222396Y319860D01*
X222425Y319839D01*
X222453Y319820D01*
X222482Y319806D01*
X222509Y319793D01*
X222536Y319782D01*
X222562Y319775D01*
X222587Y319767D01*
X222609Y319764D01*
X222629Y319760D01*
X222646Y319757D01*
X222658D01*
X222669Y319755D01*
X222678D01*
X222727Y319758D01*
X222775Y319766D01*
X222818Y319778D01*
X222857Y319793D01*
X222875Y319798D01*
X222889Y319806D01*
X222902Y319813D01*
X222913Y319818D01*
X222922Y319822D01*
X222930Y319826D01*
X222933Y319829D01*
X222935D01*
X222977Y319860D01*
X223015Y319897D01*
X223048Y319933D01*
X223073Y319970D01*
X223095Y320002D01*
X223102Y320015D01*
X223110Y320028D01*
X223115Y320037D01*
X223119Y320046D01*
X223122Y320050D01*
Y320051D01*
X223144Y320108D01*
X223161Y320162D01*
X223173Y320213D01*
X223181Y320261D01*
X223184Y320281D01*
X223186Y320301D01*
X223188Y320317D01*
Y320332D01*
X223190Y320343D01*
Y320352D01*
Y320357D01*
Y320359D01*
X223188Y320403D01*
X223184Y320444D01*
X223177Y320485D01*
X223166Y320523D01*
X223155Y320557D01*
X223144Y320590D01*
X223130Y320619D01*
X223117Y320647D01*
X223104Y320670D01*
X223090Y320692D01*
X223079Y320710D01*
X223066Y320725D01*
X223057Y320736D01*
X223050Y320745D01*
X223046Y320750D01*
X223044Y320752D01*
X223017Y320779D01*
X222988Y320801D01*
X222957Y320823D01*
X222928Y320840D01*
X222897Y320854D01*
X222868Y320867D01*
X222838Y320876D01*
X222811Y320885D01*
X222786Y320890D01*
X222764Y320896D01*
X222742Y320898D01*
X222724Y320901D01*
X222709D01*
X222698Y320903D01*
D02*
G37*
G36*
X239575Y304703D02*
X239564D01*
X239555D01*
X239546D01*
X239540D01*
X239538D01*
X239536D01*
X239484D01*
X239433Y304699D01*
X239385Y304697D01*
X239340Y304692D01*
X239298Y304686D01*
X239258Y304681D01*
X239220Y304675D01*
X239187Y304670D01*
X239156Y304663D01*
X239129Y304657D01*
X239105Y304652D01*
X239087Y304646D01*
X239071Y304641D01*
X239060Y304639D01*
X239052Y304635D01*
X239051D01*
X239014Y304623D01*
X238980Y304608D01*
X238947Y304593D01*
X238916Y304579D01*
X238889Y304564D01*
X238861Y304548D01*
X238838Y304533D01*
X238816Y304519D01*
X238798Y304504D01*
X238779Y304491D01*
X238765Y304481D01*
X238754Y304471D01*
X238745Y304462D01*
X238738Y304457D01*
X238734Y304453D01*
X238732Y304451D01*
X238703Y304417D01*
X238676Y304380D01*
X238654Y304342D01*
X238636Y304306D01*
X238621Y304273D01*
X238614Y304260D01*
X238610Y304248D01*
X238607Y304239D01*
X238603Y304229D01*
X238601Y304226D01*
Y304224D01*
X238594Y304197D01*
X238586Y304168D01*
X238576Y304104D01*
X238566Y304038D01*
X238561Y303976D01*
X238559Y303947D01*
X238557Y303920D01*
Y303896D01*
X238556Y303876D01*
Y303298D01*
X240481D01*
Y303880D01*
X240479Y303929D01*
X240476Y303975D01*
X240474Y304018D01*
X240468Y304057D01*
X240465Y304093D01*
X240459Y304124D01*
X240456Y304153D01*
X240450Y304177D01*
X240445Y304199D01*
X240441Y304217D01*
X240437Y304231D01*
X240434Y304242D01*
X240430Y304251D01*
X240428Y304255D01*
Y304257D01*
X240414Y304291D01*
X240396Y304324D01*
X240375Y304355D01*
X240354Y304384D01*
X240330Y304412D01*
X240306Y304439D01*
X240283Y304462D01*
X240259Y304484D01*
X240235Y304504D01*
X240213Y304521D01*
X240194Y304535D01*
X240177Y304548D01*
X240163Y304559D01*
X240152Y304566D01*
X240144Y304570D01*
X240143Y304572D01*
X240101Y304595D01*
X240055Y304615D01*
X240008Y304632D01*
X239959Y304648D01*
X239908Y304661D01*
X239859Y304670D01*
X239808Y304679D01*
X239760Y304686D01*
X239715Y304692D01*
X239673Y304695D01*
X239635Y304699D01*
X239602Y304701D01*
X239575Y304703D01*
D02*
G37*
G36*
X227003Y295572D02*
X226214D01*
X227003Y294436D01*
Y295572D01*
D02*
G37*
%LPD*%
D11*
X382544Y259782D02*
Y270018D01*
Y259782D02*
X388056D01*
Y270018D01*
X382544D02*
X388056D01*
X259844Y230918D02*
X265356D01*
Y220682D02*
Y230918D01*
X259844Y220682D02*
X265356D01*
X259844D02*
Y230918D01*
X258738Y295376D02*
X263462D01*
X258738D02*
Y304824D01*
X263462D01*
Y295376D02*
Y304824D01*
X268244Y338382D02*
X273756D01*
X268244D02*
Y348618D01*
X273756D01*
Y338382D02*
Y348618D01*
X262244Y338382D02*
X267756D01*
X262244D02*
Y348618D01*
X267756D01*
Y338382D02*
Y348618D01*
X337362Y334776D02*
Y344224D01*
X332638D02*
X337362D01*
X332638Y334776D02*
Y344224D01*
Y334776D02*
X337362D01*
X339844Y219882D02*
Y230118D01*
Y219882D02*
X345356D01*
Y230118D01*
X339844D02*
X345356D01*
X345244Y219982D02*
Y230218D01*
Y219982D02*
X350756D01*
Y230218D01*
X345244D02*
X350756D01*
X294538Y296776D02*
X299262D01*
X294538D02*
Y306224D01*
X299262D01*
Y296776D02*
Y306224D01*
X253944Y231018D02*
X259456D01*
Y220782D02*
Y231018D01*
X253944Y220782D02*
X259456D01*
X253944D02*
Y231018D01*
X219434Y338502D02*
X224158D01*
X219434D02*
Y347951D01*
X224158D01*
Y338502D02*
Y347951D01*
X219422Y336975D02*
X224147D01*
Y327526D02*
Y336975D01*
X219422Y327526D02*
X224147D01*
X219422D02*
Y336975D01*
X214045Y338108D02*
Y348345D01*
X208533D02*
X214045D01*
X208533Y338108D02*
Y348345D01*
Y338108D02*
X214045D01*
X208533Y327133D02*
Y337369D01*
Y327133D02*
X214045D01*
Y337369D01*
X208533D02*
X214045D01*
X219642Y327133D02*
Y337369D01*
X214131D02*
X219642D01*
X214131Y327133D02*
Y337369D01*
Y327133D02*
X219642D01*
X214131Y338108D02*
Y348345D01*
Y338108D02*
X219642D01*
Y348345D01*
X214131D02*
X219642D01*
X301776Y297138D02*
X311224D01*
Y301862D01*
X301776D02*
X311224D01*
X301776Y297138D02*
Y301862D01*
X331776Y303138D02*
X341224D01*
Y307862D01*
X331776D02*
X341224D01*
X331776Y303138D02*
Y307862D01*
X317382Y302256D02*
X327618D01*
X317382Y296744D02*
Y302256D01*
Y296744D02*
X327618D01*
Y302256D01*
X302055Y291236D02*
X310945D01*
Y295764D01*
X302055D02*
X310945D01*
X302055Y291236D02*
Y295764D01*
X292938Y324376D02*
Y333824D01*
Y324376D02*
X297662D01*
Y333824D01*
X292938D02*
X297662D01*
X234224Y286138D02*
Y290862D01*
X224776Y286138D02*
X234224D01*
X224776D02*
Y290862D01*
X234224D01*
X244599Y288925D02*
X257001D01*
X244599D02*
Y317075D01*
X257001D01*
Y288925D02*
Y317075D01*
X217201Y301020D02*
X229799D01*
X217201D02*
Y315980D01*
X229799D01*
Y301020D02*
Y315980D01*
X214055Y317236D02*
Y321764D01*
X222945D01*
Y317236D02*
Y321764D01*
X214055Y317236D02*
X222945D01*
X232445D02*
Y321764D01*
X223555Y317236D02*
X232445D01*
X223555D02*
Y321764D01*
X232445D01*
X215276Y286138D02*
Y290862D01*
X224724D01*
Y286138D02*
Y290862D01*
X215276Y286138D02*
X224724D01*
X232799Y288890D02*
X245201D01*
X232799D02*
Y317039D01*
X245201D01*
Y288890D02*
Y317039D01*
X215811Y292563D02*
X231189D01*
Y300437D01*
X215811D02*
X231189D01*
X215811Y292563D02*
Y300437D01*
X376756Y338882D02*
Y349118D01*
X371244D02*
X376756D01*
X371244Y338882D02*
Y349118D01*
Y338882D02*
X376756D01*
D99*
X386383Y269231D02*
X384021D01*
Y268050D01*
X384415Y267656D01*
X385202D01*
X385595Y268050D01*
Y269231D01*
Y268444D02*
X386383Y267656D01*
Y266869D02*
Y266082D01*
Y266476D01*
X384021D01*
X384415Y266869D01*
Y264901D02*
X384021Y264508D01*
Y263721D01*
X384415Y263327D01*
X384808D01*
X385202Y263721D01*
Y264114D01*
Y263721D01*
X385595Y263327D01*
X385989D01*
X386383Y263721D01*
Y264508D01*
X385989Y264901D01*
X263683Y230131D02*
X261321D01*
Y228950D01*
X261715Y228556D01*
X262502D01*
X262895Y228950D01*
Y230131D01*
Y229344D02*
X263683Y228556D01*
X261715Y227769D02*
X261321Y227376D01*
Y226589D01*
X261715Y226195D01*
X262108D01*
X262502Y226589D01*
X262895Y226195D01*
X263289D01*
X263683Y226589D01*
Y227376D01*
X263289Y227769D01*
X262895D01*
X262502Y227376D01*
X262108Y227769D01*
X261715D01*
X262502Y227376D02*
Y226589D01*
X269917Y339169D02*
X272279D01*
Y340350D01*
X271885Y340744D01*
X271098D01*
X270705Y340350D01*
Y339169D01*
Y339956D02*
X269917Y340744D01*
X272279Y341531D02*
Y343105D01*
X271885D01*
X270311Y341531D01*
X269917D01*
X263917Y339169D02*
X266279D01*
Y340350D01*
X265885Y340744D01*
X265098D01*
X264704Y340350D01*
Y339169D01*
Y339956D02*
X263917Y340744D01*
Y342711D02*
X266279D01*
X265098Y341531D01*
Y343105D01*
X343683Y229331D02*
X341321D01*
Y228150D01*
X341715Y227756D01*
X342502D01*
X342896Y228150D01*
Y229331D01*
Y228544D02*
X343683Y227756D01*
Y225395D02*
Y226969D01*
X342108Y225395D01*
X341715D01*
X341321Y225788D01*
Y226576D01*
X341715Y226969D01*
X349083Y229431D02*
X346721D01*
Y228250D01*
X347115Y227856D01*
X347902D01*
X348295Y228250D01*
Y229431D01*
Y228644D02*
X349083Y227856D01*
X346721Y225495D02*
Y227069D01*
X347902D01*
X347508Y226282D01*
Y225888D01*
X347902Y225495D01*
X348689D01*
X349083Y225888D01*
Y226676D01*
X348689Y227069D01*
X257783Y230231D02*
X255421D01*
Y229050D01*
X255815Y228656D01*
X256602D01*
X256996Y229050D01*
Y230231D01*
Y229444D02*
X257783Y228656D01*
Y227869D02*
Y227082D01*
Y227476D01*
X255421D01*
X255815Y227869D01*
X210206Y338896D02*
X212568D01*
Y340076D01*
X212174Y340470D01*
X211387D01*
X210993Y340076D01*
Y338896D01*
Y339683D02*
X210206Y340470D01*
Y342831D02*
Y341257D01*
X211781Y342831D01*
X212174D01*
X212568Y342438D01*
Y341651D01*
X212174Y341257D01*
X210206Y345193D02*
Y343619D01*
X211781Y345193D01*
X212174D01*
X212568Y344799D01*
Y344012D01*
X212174Y343619D01*
X212372Y336581D02*
X210010D01*
Y335401D01*
X210404Y335007D01*
X211191D01*
X211584Y335401D01*
Y336581D01*
Y335794D02*
X212372Y335007D01*
X210404Y334220D02*
X210010Y333826D01*
Y333039D01*
X210404Y332646D01*
X210797D01*
X211191Y333039D01*
Y333433D01*
Y333039D01*
X211584Y332646D01*
X211978D01*
X212372Y333039D01*
Y333826D01*
X211978Y334220D01*
X215804Y327920D02*
X218165D01*
Y329101D01*
X217772Y329494D01*
X216985D01*
X216591Y329101D01*
Y327920D01*
Y328707D02*
X215804Y329494D01*
X218165Y331856D02*
X217772Y331069D01*
X216985Y330281D01*
X216197D01*
X215804Y330675D01*
Y331462D01*
X216197Y331856D01*
X216591D01*
X216985Y331462D01*
Y330281D01*
X217969Y347557D02*
X215608D01*
Y346376D01*
X216001Y345983D01*
X216789D01*
X217182Y346376D01*
Y347557D01*
Y346770D02*
X217969Y345983D01*
Y343621D02*
Y345196D01*
X216395Y343621D01*
X216001D01*
X215608Y344015D01*
Y344802D01*
X216001Y345196D01*
Y342834D02*
X215608Y342441D01*
Y341654D01*
X216001Y341260D01*
X216395D01*
X216789Y341654D01*
Y342047D01*
Y341654D01*
X217182Y341260D01*
X217576D01*
X217969Y341654D01*
Y342441D01*
X217576Y342834D01*
X326831Y298417D02*
Y300779D01*
X325650D01*
X325256Y300385D01*
Y299598D01*
X325650Y299204D01*
X326831D01*
X326044D02*
X325256Y298417D01*
X324469D02*
X323682D01*
X324076D01*
Y300779D01*
X324469Y300385D01*
X322501Y298417D02*
X321714D01*
X322108D01*
Y300779D01*
X322501Y300385D01*
X372917Y339669D02*
X375279D01*
Y340850D01*
X374885Y341244D01*
X374098D01*
X373705Y340850D01*
Y339669D01*
Y340456D02*
X372917Y341244D01*
Y342031D02*
Y342818D01*
Y342424D01*
X375279D01*
X374885Y342031D01*
X372917Y345573D02*
Y343999D01*
X374492Y345573D01*
X374885D01*
X375279Y345179D01*
Y344392D01*
X374885Y343999D01*
M02*
