G04*
G04 #@! TF.GenerationSoftware,Altium Limited,Altium Designer,21.0.8 (223)*
G04*
G04 Layer_Physical_Order=3*
G04 Layer_Color=128*
%FSLAX25Y25*%
%MOIN*%
G70*
G04*
G04 #@! TF.SameCoordinates,E158979E-E8F5-4E42-ABDF-87379EC9601E*
G04*
G04*
G04 #@! TF.FilePolarity,Negative*
G04*
G01*
G75*
%ADD45C,0.04000*%
%ADD46C,0.03595*%
%ADD47C,0.05131*%
%ADD49C,0.03556*%
G04:AMPARAMS|DCode=50|XSize=59.181mil|YSize=59.181mil|CornerRadius=0mil|HoleSize=0mil|Usage=FLASHONLY|Rotation=0.000|XOffset=0mil|YOffset=0mil|HoleType=Round|Shape=Relief|Width=4mil|Gap=4mil|Entries=4|*
%AMTHD50*
7,0,0,0.05918,0.05118,0.00400,45*
%
%ADD50THD50*%
%ADD51C,0.05131*%
%ADD53C,0.01587*%
%ADD54C,0.02000*%
D45*
X200000Y217000D02*
X200000Y352000D01*
X394500Y352000D01*
X394500Y217000D01*
X328300Y217000D02*
X394500Y217000D01*
X328300Y239700D02*
X328300Y217000D01*
X272600Y239700D02*
X328300Y239700D01*
X272600Y239700D02*
X272600Y217000D01*
X200000Y217000D02*
X272600Y217000D01*
D46*
X389202Y246641D02*
D03*
Y236641D02*
D03*
Y226641D02*
D03*
X359069Y246653D02*
D03*
Y236653D02*
D03*
Y226653D02*
D03*
D47*
X363614Y259079D02*
D03*
Y267740D02*
D03*
Y276402D02*
D03*
Y285063D02*
D03*
Y293724D02*
D03*
Y302386D02*
D03*
Y311047D02*
D03*
Y319709D02*
D03*
Y328370D02*
D03*
Y337032D02*
D03*
X349835Y254748D02*
D03*
Y263409D02*
D03*
Y272071D02*
D03*
Y280732D02*
D03*
Y289394D02*
D03*
Y298055D02*
D03*
Y306716D02*
D03*
Y315378D02*
D03*
Y324039D02*
D03*
Y332701D02*
D03*
D49*
X383300Y347400D02*
D03*
Y342400D02*
D03*
Y337400D02*
D03*
X388300Y347400D02*
D03*
Y342400D02*
D03*
Y337400D02*
D03*
X383300Y332400D02*
D03*
X388300D02*
D03*
X383300Y327400D02*
D03*
Y322400D02*
D03*
X388300Y327400D02*
D03*
X383300Y317400D02*
D03*
X388300D02*
D03*
D50*
Y322400D02*
D03*
D51*
X340053Y259863D02*
D03*
X331391D02*
D03*
X322730D02*
D03*
X314069D02*
D03*
X305407D02*
D03*
X296746D02*
D03*
X288084D02*
D03*
X279423D02*
D03*
X270761D02*
D03*
X262100D02*
D03*
X282179Y273643D02*
D03*
X308163D02*
D03*
X256195D02*
D03*
X264856D02*
D03*
X273517D02*
D03*
X290840D02*
D03*
X299502D02*
D03*
X316824D02*
D03*
X325486D02*
D03*
X334147D02*
D03*
D53*
X237000Y333300D02*
D03*
X244524Y342667D02*
D03*
X257000Y346686D02*
D03*
X251472D02*
D03*
X379800Y263500D02*
D03*
Y268700D02*
D03*
X379100Y284900D02*
D03*
X379374Y288118D02*
D03*
X325000Y286600D02*
D03*
X318400Y289100D02*
D03*
X337213Y296670D02*
D03*
X318560Y284840D02*
D03*
X373300Y313363D02*
D03*
X375212Y324667D02*
D03*
X372840Y324664D02*
D03*
X375086Y311721D02*
D03*
X378769Y293266D02*
D03*
X378161Y297400D02*
D03*
X235100Y330365D02*
D03*
X230100D02*
D03*
X259614Y329925D02*
D03*
X367000Y252181D02*
D03*
X299200Y349500D02*
D03*
X301609Y346597D02*
D03*
X301500Y340047D02*
D03*
X346800Y247600D02*
D03*
X357390Y271898D02*
D03*
X344981Y328500D02*
D03*
X342599Y236901D02*
D03*
X346500Y233100D02*
D03*
X239000Y342000D02*
D03*
X244000Y334531D02*
D03*
X309669Y313669D02*
D03*
X314000D02*
D03*
X318331D02*
D03*
X322661D02*
D03*
X326992D02*
D03*
X309669Y318000D02*
D03*
X314000D02*
D03*
X318331D02*
D03*
X322661D02*
D03*
X326992D02*
D03*
X309669Y322331D02*
D03*
X314000D02*
D03*
X318331D02*
D03*
X322661D02*
D03*
X326992D02*
D03*
X309669Y326661D02*
D03*
X314000D02*
D03*
X318331D02*
D03*
X322661D02*
D03*
X326992D02*
D03*
X309669Y330992D02*
D03*
X314000D02*
D03*
X318331D02*
D03*
X322661D02*
D03*
X326992D02*
D03*
D54*
X244900Y318500D02*
D03*
X239200Y319900D02*
D03*
X328900Y286981D02*
D03*
X223400Y228166D02*
D03*
X221500Y349000D02*
D03*
X297000Y307319D02*
D03*
X261500Y307500D02*
D03*
X293800Y339919D02*
D03*
X291847Y325655D02*
D03*
X291935Y329449D02*
D03*
X337500Y299800D02*
D03*
X329500Y299400D02*
D03*
X309271Y288581D02*
D03*
X338819Y342100D02*
D03*
X263000Y334400D02*
D03*
X262300Y327000D02*
D03*
X269300Y251700D02*
D03*
X265319Y233934D02*
D03*
X262000Y233700D02*
D03*
X212100Y268200D02*
D03*
X251600Y223900D02*
D03*
X255300Y233000D02*
D03*
X222965Y323500D02*
D03*
X204500Y318500D02*
D03*
X204636Y346500D02*
D03*
X227000Y284000D02*
D03*
X222500Y268000D02*
D03*
M02*
