G04*
G04 #@! TF.GenerationSoftware,Altium Limited,Altium Designer,21.0.8 (223)*
G04*
G04 Layer_Color=16711935*
%FSLAX25Y25*%
%MOIN*%
G70*
G04*
G04 #@! TF.SameCoordinates,EF4533CB-43BA-4D4A-9F5A-5D0E2D4B1FA1*
G04*
G04*
G04 #@! TF.FilePolarity,Positive*
G04*
G01*
G75*
%ADD10C,0.01000*%
%ADD12C,0.00600*%
D10*
X403500Y224800D02*
X405500Y218800D01*
X407500Y224800D01*
X405500Y352000D02*
X407500Y346000D01*
X403500D02*
X405500Y352000D01*
Y218800D02*
Y268704D01*
Y298896D02*
Y352000D01*
X396000Y218800D02*
X406500D01*
X396000Y352000D02*
X406500D01*
X200000Y205800D02*
X206000Y207800D01*
X200000Y205800D02*
X206000Y203800D01*
X388500D02*
X394500Y205800D01*
X388500Y207800D02*
X394500Y205800D01*
X200000D02*
X280554D01*
X310746D02*
X394500D01*
X200000Y204800D02*
Y217000D01*
X394500Y204800D02*
Y217000D01*
X185100Y264287D02*
X187100Y258287D01*
X189100Y264287D01*
X187100Y352000D02*
X189100Y346000D01*
X185100D02*
X187100Y352000D01*
Y258287D02*
Y288448D01*
Y318639D02*
Y352000D01*
X186100Y258287D02*
X254110D01*
X186100Y352000D02*
X198500D01*
X187000Y258287D02*
X189000Y252287D01*
X185000D02*
X187000Y258287D01*
X185000Y223000D02*
X187000Y217000D01*
X189000Y223000D01*
X187000Y250640D02*
Y258287D01*
Y217000D02*
Y221448D01*
X186000Y258287D02*
X254110D01*
X186000Y217000D02*
X200000D01*
D12*
X404101Y270304D02*
X403101Y271304D01*
Y273303D01*
X404101Y274303D01*
X405100D01*
X406100Y273303D01*
Y272304D01*
Y273303D01*
X407100Y274303D01*
X408099D01*
X409099Y273303D01*
Y271304D01*
X408099Y270304D01*
X404101Y276302D02*
X403101Y277302D01*
Y279302D01*
X404101Y280301D01*
X405100D01*
X406100Y279302D01*
Y278302D01*
Y279302D01*
X407100Y280301D01*
X408099D01*
X409099Y279302D01*
Y277302D01*
X408099Y276302D01*
X409099Y282300D02*
X408099D01*
Y283300D01*
X409099D01*
Y282300D01*
X404101Y287299D02*
X403101Y288299D01*
Y290298D01*
X404101Y291298D01*
X405100D01*
X406100Y290298D01*
X407100Y291298D01*
X408099D01*
X409099Y290298D01*
Y288299D01*
X408099Y287299D01*
X407100D01*
X406100Y288299D01*
X405100Y287299D01*
X404101D01*
X406100Y288299D02*
Y290298D01*
X404101Y293297D02*
X403101Y294297D01*
Y296296D01*
X404101Y297296D01*
X405100D01*
X406100Y296296D01*
Y295296D01*
Y296296D01*
X407100Y297296D01*
X408099D01*
X409099Y296296D01*
Y294297D01*
X408099Y293297D01*
X285153Y202201D02*
Y208199D01*
X282154Y205200D01*
X286153D01*
X288152Y203201D02*
X289152Y202201D01*
X291151D01*
X292151Y203201D01*
Y207199D01*
X291151Y208199D01*
X289152D01*
X288152Y207199D01*
Y206200D01*
X289152Y205200D01*
X292151D01*
X294150Y202201D02*
Y203201D01*
X295150D01*
Y202201D01*
X294150D01*
X302148D02*
Y208199D01*
X299149Y205200D01*
X303148D01*
X305147Y207199D02*
X306147Y208199D01*
X308146D01*
X309146Y207199D01*
Y203201D01*
X308146Y202201D01*
X306147D01*
X305147Y203201D01*
Y207199D01*
X190699Y294047D02*
Y290048D01*
X186700Y294047D01*
X185701D01*
X184701Y293047D01*
Y291048D01*
X185701Y290048D01*
Y296046D02*
X184701Y297046D01*
Y299045D01*
X185701Y300045D01*
X186700D01*
X187700Y299045D01*
Y298045D01*
Y299045D01*
X188700Y300045D01*
X189699D01*
X190699Y299045D01*
Y297046D01*
X189699Y296046D01*
X190699Y302044D02*
X189699D01*
Y303044D01*
X190699D01*
Y302044D01*
X185701Y307043D02*
X184701Y308042D01*
Y310042D01*
X185701Y311041D01*
X186700D01*
X187700Y310042D01*
X188700Y311041D01*
X189699D01*
X190699Y310042D01*
Y308042D01*
X189699Y307043D01*
X188700D01*
X187700Y308042D01*
X186700Y307043D01*
X185701D01*
X187700Y308042D02*
Y310042D01*
X185701Y313041D02*
X184701Y314040D01*
Y316040D01*
X185701Y317039D01*
X189699D01*
X190699Y316040D01*
Y314040D01*
X189699Y313041D01*
X185701D01*
X190599Y223048D02*
Y225047D01*
Y224048D01*
X184601D01*
X185601Y223048D01*
Y228046D02*
X184601Y229046D01*
Y231045D01*
X185601Y232045D01*
X189599D01*
X190599Y231045D01*
Y229046D01*
X189599Y228046D01*
X185601D01*
X190599Y234044D02*
X189599D01*
Y235044D01*
X190599D01*
Y234044D01*
Y242042D02*
X184601D01*
X187600Y239043D01*
Y243041D01*
X189599Y245041D02*
X190599Y246040D01*
Y248040D01*
X189599Y249040D01*
X185601D01*
X184601Y248040D01*
Y246040D01*
X185601Y245041D01*
X186600D01*
X187600Y246040D01*
Y249040D01*
M02*
