G04*
G04 #@! TF.GenerationSoftware,Altium Limited,Altium Designer,21.0.8 (223)*
G04*
G04 Layer_Physical_Order=1*
G04 Layer_Color=255*
%FSLAX25Y25*%
%MOIN*%
G70*
G04*
G04 #@! TF.SameCoordinates,E158979E-E8F5-4E42-ABDF-87379EC9601E*
G04*
G04*
G04 #@! TF.FilePolarity,Positive*
G04*
G01*
G75*
%ADD10C,0.01000*%
%ADD14R,0.07480X0.07480*%
%ADD15R,0.07480X0.07087*%
%ADD16R,0.05315X0.01575*%
%ADD17R,0.06299X0.08268*%
%ADD18R,0.04724X0.04331*%
%ADD33C,0.01500*%
%ADD34C,0.00800*%
%ADD35C,0.02000*%
%ADD36C,0.03000*%
%ADD37O,0.06000X0.07500*%
%ADD38O,0.07874X0.05906*%
%ADD39O,0.10236X0.05512*%
%ADD40C,0.04134*%
%ADD41O,0.05512X0.10236*%
%ADD42C,0.01772*%
%ADD43C,0.02362*%
%ADD44C,0.01968*%
D10*
X238328Y335186D02*
X239100Y334414D01*
X209305Y335186D02*
X238328D01*
X208533Y334414D02*
X209305Y335186D01*
X207772Y336586D02*
X239728D01*
X242114Y334200D01*
X207000Y335814D02*
X207772Y336586D01*
X257000Y343181D02*
Y346686D01*
X251500Y278460D02*
Y346658D01*
X244524Y340257D02*
X245000Y339781D01*
X244524Y340257D02*
Y342667D01*
X251472Y346686D02*
X251500Y346658D01*
X245000Y337500D02*
Y339781D01*
X379800Y268700D02*
X381260Y270160D01*
X384303Y276715D02*
X384500D01*
X381260Y273672D02*
X384303Y276715D01*
X381260Y270160D02*
Y273672D01*
X381744Y279471D02*
X384500Y276715D01*
X374461Y279471D02*
X381744D01*
X384500Y286951D02*
Y296400D01*
Y276715D02*
Y286951D01*
Y296400D02*
Y306636D01*
X381744Y303880D02*
X384500Y306636D01*
X374461Y303880D02*
X381744D01*
X242114Y321286D02*
Y334200D01*
Y321286D02*
X244900Y318500D01*
X239100Y320000D02*
Y334414D01*
Y320000D02*
X239200Y319900D01*
X378166Y289117D02*
X379165Y288118D01*
X373969Y289117D02*
X378166D01*
X379165Y288118D02*
X379374D01*
X378769Y293119D02*
Y293266D01*
X377326Y291676D02*
X378769Y293119D01*
X373969Y291676D02*
X377326D01*
X377555Y296794D02*
X378161Y297400D01*
X373969Y296794D02*
X377555D01*
X223400Y228166D02*
X231100D01*
X215700D02*
X223400D01*
X207000Y245334D02*
Y335814D01*
X213838Y238299D02*
X215503Y236634D01*
X215700D01*
X213838Y238299D02*
Y238496D01*
X207000Y245334D02*
X213838Y238496D01*
X208533Y259001D02*
Y334414D01*
Y259001D02*
X229238Y238296D01*
Y238099D02*
Y238296D01*
X230903Y236434D02*
X231100D01*
X229238Y238099D02*
X230903Y236434D01*
X232445Y328345D02*
X233449Y329349D01*
X233875D01*
X234891Y330365D01*
X235100D01*
X230100Y258200D02*
Y330365D01*
X232445Y263255D02*
X262000Y233700D01*
X232445Y263255D02*
Y328345D01*
X230100Y258200D02*
X255300Y233000D01*
X284400Y330600D02*
X293719Y339919D01*
X293800D01*
X260498Y330600D02*
X284400D01*
X259823Y329925D02*
X260498Y330600D01*
X259614Y329925D02*
X259823D01*
X346908Y261325D02*
X348992Y263409D01*
X343709Y256155D02*
X346908Y259353D01*
X342599Y247213D02*
X343709Y248322D01*
X348992Y263409D02*
X349835D01*
X346908Y259353D02*
Y261325D01*
X343709Y248322D02*
Y256155D01*
X342599Y236901D02*
Y247213D01*
X301500Y346488D02*
X301609Y346597D01*
X301500Y340047D02*
Y346488D01*
X346800Y244719D02*
Y247600D01*
X344964Y273359D02*
X346252Y272071D01*
X335600Y282500D02*
X344741Y273359D01*
X344964D01*
X346252Y272071D02*
X349835D01*
X276500Y282500D02*
X335600D01*
X273517Y279517D02*
X276500Y282500D01*
X273517Y273643D02*
Y279517D01*
X314069Y259863D02*
Y263069D01*
X252900Y277880D02*
Y339081D01*
X252539Y277519D02*
X252900Y277880D01*
X251139Y248114D02*
Y253861D01*
X251139Y278099D02*
X251500Y278460D01*
X251139Y253861D02*
Y278099D01*
X346500Y244419D02*
X346800Y244719D01*
X346500Y233100D02*
Y244419D01*
X251139Y248114D02*
X265319Y233934D01*
X252539Y265424D02*
Y277519D01*
Y265424D02*
X258100Y259863D01*
X252900Y339081D02*
X257000Y343181D01*
X258100Y259863D02*
X262100D01*
X244000Y334531D02*
Y336500D01*
X245000Y337500D01*
D14*
X384500Y296400D02*
D03*
Y286951D02*
D03*
D15*
Y306636D02*
D03*
Y276715D02*
D03*
D16*
X373969Y291676D02*
D03*
Y289117D02*
D03*
Y286558D02*
D03*
Y294235D02*
D03*
Y296794D02*
D03*
D17*
X374461Y279471D02*
D03*
Y303880D02*
D03*
D18*
X215700Y228166D02*
D03*
Y236434D02*
D03*
X231100Y228166D02*
D03*
Y236434D02*
D03*
D33*
X367000Y252181D02*
X369882Y255063D01*
Y333126D01*
X365976Y337032D02*
X369882Y333126D01*
X375876Y286520D02*
X377444Y284952D01*
X379048D01*
X379100Y284900D01*
X373969Y286558D02*
X374006Y286520D01*
X375876D01*
X323000Y289100D02*
X324948Y287152D01*
Y286652D02*
X325000Y286600D01*
X324948Y286652D02*
Y287152D01*
X318400Y289100D02*
X323000D01*
X234500Y346500D02*
X239000Y342000D01*
X204636Y346500D02*
X234500D01*
X212100Y263400D02*
X251600Y223900D01*
X364156Y240756D02*
Y249316D01*
X363614Y249858D02*
X364156Y249316D01*
X363614Y249858D02*
Y259079D01*
X359069Y236653D02*
X360053D01*
X364156Y240756D01*
X357346Y271942D02*
X357390Y271898D01*
X357346Y271942D02*
Y315803D01*
X361252Y319709D01*
X363614D01*
X340053Y259863D02*
Y262225D01*
X363614Y337032D02*
X365976D01*
X212100Y263400D02*
Y268200D01*
D34*
X319650Y284500D02*
X339900D01*
X318560Y284840D02*
X318746Y284654D01*
X319496D02*
X319650Y284500D01*
X318746Y284654D02*
X319496D01*
X339900Y284500D02*
X343900Y288500D01*
X340100Y297139D02*
Y323619D01*
X337213Y296670D02*
X339631D01*
X343900Y288500D02*
Y308173D01*
X339631Y296670D02*
X340100Y297139D01*
X347872Y313416D02*
X349835Y315378D01*
X347872Y312145D02*
Y313416D01*
X343900Y308173D02*
X347872Y312145D01*
X373428Y317097D02*
Y323813D01*
X373300Y313363D02*
X373417D01*
X374372Y314317D02*
Y316153D01*
X375572Y313820D02*
Y316650D01*
X373417Y313363D02*
X374372Y314317D01*
X374628Y317594D02*
Y323821D01*
X373428Y317097D02*
X374372Y316153D01*
X375086Y311721D02*
Y313334D01*
X374628Y317594D02*
X375572Y316650D01*
X375086Y313334D02*
X375572Y313820D01*
X372840Y324401D02*
Y324664D01*
Y324401D02*
X373428Y323813D01*
X374628Y323821D02*
X375212Y324404D01*
Y324667D01*
X299100Y332908D02*
Y349400D01*
X299200Y349500D01*
X291847Y325655D02*
X299100Y332908D01*
X363554Y267800D02*
X363614Y267740D01*
X343800Y267800D02*
X363554D01*
X334800Y280500D02*
X339500Y275800D01*
Y272100D02*
Y275800D01*
X280300Y280500D02*
X334800D01*
X340100Y323619D02*
X344981Y328500D01*
X277600Y277800D02*
X280300Y280500D01*
X339500Y272100D02*
X343800Y267800D01*
X270761Y262225D02*
X277600Y269064D01*
Y277800D01*
X270761Y259863D02*
Y262225D01*
D35*
X328900Y286981D02*
X336981D01*
X342100Y292100D01*
Y318667D02*
X347472Y324039D01*
X342100Y292100D02*
Y318667D01*
X327100Y247100D02*
Y266000D01*
X325575Y267525D02*
Y273554D01*
Y267525D02*
X327100Y266000D01*
X325486Y273643D02*
X325575Y273554D01*
X347472Y324039D02*
X349835D01*
X266600Y254400D02*
Y264600D01*
Y254400D02*
X269300Y251700D01*
X264075Y267125D02*
X266600Y264600D01*
X260351Y267125D02*
X264075D01*
X256195Y271281D02*
Y273643D01*
Y271281D02*
X260351Y267125D01*
D36*
X323700Y243700D02*
X327100Y247100D01*
X273000Y243700D02*
X323700D01*
X268500Y226700D02*
Y239200D01*
X273000Y243700D01*
X206257Y220700D02*
X262500D01*
X204500Y222457D02*
Y318500D01*
X262500Y220700D02*
X268500Y226700D01*
X204500Y222457D02*
X206257Y220700D01*
D37*
X389202Y246641D02*
D03*
Y236641D02*
D03*
Y226641D02*
D03*
D38*
X359069Y246653D02*
D03*
Y236653D02*
D03*
Y226653D02*
D03*
D39*
X363614Y259079D02*
D03*
Y267740D02*
D03*
Y276402D02*
D03*
Y285063D02*
D03*
Y293724D02*
D03*
Y302386D02*
D03*
Y311047D02*
D03*
Y319709D02*
D03*
Y328370D02*
D03*
Y337032D02*
D03*
X349835Y254748D02*
D03*
Y263409D02*
D03*
Y272071D02*
D03*
Y280732D02*
D03*
Y289394D02*
D03*
Y298055D02*
D03*
Y306716D02*
D03*
Y315378D02*
D03*
Y324039D02*
D03*
Y332701D02*
D03*
D40*
X383300Y342400D02*
D03*
X388300D02*
D03*
Y332400D02*
D03*
X383300Y327400D02*
D03*
Y322400D02*
D03*
X388300Y327400D02*
D03*
Y322400D02*
D03*
D41*
X340053Y259863D02*
D03*
X331391D02*
D03*
X322730D02*
D03*
X314069D02*
D03*
X305407D02*
D03*
X296746D02*
D03*
X288084D02*
D03*
X279423D02*
D03*
X270761D02*
D03*
X262100D02*
D03*
X282179Y273643D02*
D03*
X308163D02*
D03*
X256195D02*
D03*
X264856D02*
D03*
X273517D02*
D03*
X290840D02*
D03*
X299502D02*
D03*
X316824D02*
D03*
X325486D02*
D03*
X334147D02*
D03*
D42*
X237000Y333300D02*
D03*
X244524Y342667D02*
D03*
X257000Y346686D02*
D03*
X251472D02*
D03*
X276300Y346400D02*
D03*
X379800Y263500D02*
D03*
Y268700D02*
D03*
X379100Y284900D02*
D03*
X379374Y288118D02*
D03*
X325000Y286600D02*
D03*
X318400Y289100D02*
D03*
X337213Y296670D02*
D03*
X318560Y284840D02*
D03*
X373300Y313363D02*
D03*
X375212Y324667D02*
D03*
X372840Y324664D02*
D03*
X375086Y311721D02*
D03*
X378769Y293266D02*
D03*
X378161Y297400D02*
D03*
X235100Y330365D02*
D03*
X230100D02*
D03*
X259614Y329925D02*
D03*
X367000Y252181D02*
D03*
X299200Y349500D02*
D03*
X301609Y346597D02*
D03*
X301500Y340047D02*
D03*
X346800Y247600D02*
D03*
X357390Y271898D02*
D03*
X344981Y328500D02*
D03*
X342599Y236901D02*
D03*
X346500Y233100D02*
D03*
X239000Y342000D02*
D03*
X244000Y334531D02*
D03*
D43*
X244900Y318500D02*
D03*
X239200Y319900D02*
D03*
X328900Y286981D02*
D03*
X223400Y228166D02*
D03*
X221500Y349000D02*
D03*
X211431Y325069D02*
D03*
X297000Y307319D02*
D03*
X261500Y307500D02*
D03*
X261600Y293500D02*
D03*
X293800Y339919D02*
D03*
X293600Y335200D02*
D03*
X291847Y325655D02*
D03*
X291935Y329449D02*
D03*
X337500Y299800D02*
D03*
X334000Y300400D02*
D03*
X329500Y299400D02*
D03*
X303092Y291031D02*
D03*
X309271Y288581D02*
D03*
X338819Y342100D02*
D03*
Y336700D02*
D03*
X263000Y334400D02*
D03*
X262300Y327000D02*
D03*
X269300Y251700D02*
D03*
X265319Y233934D02*
D03*
X262000Y233700D02*
D03*
X212100Y268200D02*
D03*
X251600Y223900D02*
D03*
X255300Y233000D02*
D03*
X234626Y319500D02*
D03*
X222965Y323500D02*
D03*
X204500Y318500D02*
D03*
X204636Y346500D02*
D03*
X227000Y284000D02*
D03*
X222500Y268000D02*
D03*
D44*
X309669Y313669D02*
D03*
X314000D02*
D03*
X318331D02*
D03*
X322661D02*
D03*
X326992D02*
D03*
X309669Y318000D02*
D03*
X314000D02*
D03*
X318331D02*
D03*
X322661D02*
D03*
X326992D02*
D03*
X309669Y322331D02*
D03*
X314000D02*
D03*
X318331D02*
D03*
X322661D02*
D03*
X326992D02*
D03*
X309669Y326661D02*
D03*
X314000D02*
D03*
X318331D02*
D03*
X322661D02*
D03*
X326992D02*
D03*
X309669Y330992D02*
D03*
X314000D02*
D03*
X318331D02*
D03*
X322661D02*
D03*
X326992D02*
D03*
M02*
