G04*
G04 #@! TF.GenerationSoftware,Altium Limited,Altium Designer,21.0.8 (223)*
G04*
G04 Layer_Physical_Order=1*
G04 Layer_Color=255*
%FSLAX25Y25*%
%MOIN*%
G70*
G04*
G04 #@! TF.SameCoordinates,CF28ABD0-DF4C-4253-A353-1030560CAA2A*
G04*
G04*
G04 #@! TF.FilePolarity,Positive*
G04*
G01*
G75*
%ADD10C,0.01000*%
%ADD13R,0.07480X0.07480*%
%ADD14R,0.07480X0.07087*%
%ADD15R,0.06496X0.01575*%
%ADD16R,0.06299X0.08268*%
%ADD17R,0.04724X0.04331*%
%ADD32C,0.00800*%
%ADD33C,0.02500*%
%ADD34C,0.01500*%
%ADD35C,0.02000*%
%ADD36C,0.03000*%
%ADD37O,0.10236X0.05512*%
%ADD38R,0.06000X0.04400*%
%ADD39O,0.06000X0.04400*%
%ADD40O,0.05512X0.10236*%
%ADD41O,0.06000X0.07500*%
%ADD42O,0.07874X0.05906*%
%ADD43C,0.04134*%
%ADD44C,0.01772*%
%ADD45C,0.02362*%
%ADD46C,0.01968*%
%ADD47C,0.03937*%
D10*
X374356Y296418D02*
X377869D01*
X374068Y296706D02*
X374356Y296418D01*
X374068Y296706D02*
Y298587D01*
X301500Y340047D02*
Y346777D01*
X301609Y346886D01*
X336300Y282500D02*
X345099Y273701D01*
X276500Y282500D02*
X336300D01*
X273517Y279517D02*
X276500Y282500D01*
X258100Y259863D02*
X262100D01*
X345099Y273701D02*
X348205D01*
X349835Y272071D01*
X380300Y269500D02*
X384574D01*
X385160Y270086D02*
Y273296D01*
X384574Y269500D02*
X385160Y270086D01*
X381647Y288741D02*
X383274Y287114D01*
X377869Y288741D02*
X381647D01*
X382718Y293538D02*
X382866Y293686D01*
X382718Y292793D02*
Y293538D01*
X381226Y291300D02*
X382718Y292793D01*
X377869Y291300D02*
X381226D01*
X342599Y236901D02*
Y256029D01*
X348608Y263409D02*
X349835D01*
X347508Y262310D02*
X348608Y263409D01*
X347508Y260938D02*
Y262310D01*
X342599Y256029D02*
X347508Y260938D01*
X346600Y234700D02*
X346700Y234800D01*
Y247500D01*
X346800Y247600D01*
X230100Y258602D02*
Y330365D01*
X251036Y234564D02*
Y237666D01*
X255857Y233743D02*
Y235816D01*
X232445Y259227D02*
X255857Y235816D01*
Y233743D02*
X256261Y233338D01*
X232445Y259227D02*
Y328345D01*
X248500Y245391D02*
X260000Y233891D01*
X248500Y245391D02*
Y275461D01*
X251036Y234564D02*
X251100Y234500D01*
X230100Y258602D02*
X251036Y237666D01*
X312493Y258287D02*
Y261693D01*
X250800Y267163D02*
Y278880D01*
X249400Y344613D02*
X251472Y346686D01*
X252900Y280980D02*
Y339081D01*
X250800Y278880D02*
X252900Y280980D01*
X248500Y275461D02*
X249400Y276361D01*
Y344613D01*
X250800Y267163D02*
X258100Y259863D01*
X238328Y335186D02*
X239100Y334414D01*
X209305Y335186D02*
X238328D01*
X208533Y334414D02*
X209305Y335186D01*
X207772Y336586D02*
X239728D01*
X242114Y334200D01*
X207000Y335814D02*
X207772Y336586D01*
X257000Y343181D02*
Y346686D01*
X244524Y340257D02*
X245000Y339781D01*
X244524Y340257D02*
Y342667D01*
X245000Y337500D02*
Y339781D01*
X388203Y276339D02*
X388400D01*
X385160Y273296D02*
X388203Y276339D01*
X385644Y279095D02*
X388400Y276339D01*
X378361Y279095D02*
X385644D01*
X388400Y286576D02*
Y296024D01*
Y276339D02*
Y286576D01*
Y296024D02*
Y306261D01*
X385644Y303505D02*
X388400Y306261D01*
X378361Y303505D02*
X385644D01*
X242114Y321286D02*
Y334200D01*
Y321286D02*
X244900Y318500D01*
X239100Y320000D02*
Y334414D01*
Y320000D02*
X239200Y319900D01*
X223400Y228166D02*
X231100D01*
X215700D02*
X223400D01*
X207000Y245334D02*
Y335814D01*
X213838Y238299D02*
X215503Y236634D01*
X215700D01*
X213838Y238299D02*
Y238496D01*
X207000Y245334D02*
X213838Y238496D01*
X208533Y259001D02*
Y334414D01*
Y259001D02*
X229238Y238296D01*
Y238099D02*
Y238296D01*
X230903Y236434D02*
X231100D01*
X229238Y238099D02*
X230903Y236434D01*
X232445Y328345D02*
X233449Y329349D01*
X233875D01*
X234891Y330365D01*
X235100D01*
X284400Y330600D02*
X293719Y339919D01*
X293800D01*
X260498Y330600D02*
X284400D01*
X259823Y329925D02*
X260498Y330600D01*
X259614Y329925D02*
X259823D01*
X273517Y273643D02*
Y279517D01*
X252900Y339081D02*
X257000Y343181D01*
X244000Y334531D02*
Y336500D01*
X245000Y337500D01*
D13*
X388400Y296024D02*
D03*
Y286576D02*
D03*
D14*
Y306261D02*
D03*
Y276339D02*
D03*
D15*
X376687Y291300D02*
D03*
Y288741D02*
D03*
Y286182D02*
D03*
Y293859D02*
D03*
Y296418D02*
D03*
D16*
X378361Y279095D02*
D03*
Y303505D02*
D03*
D17*
X215700Y228166D02*
D03*
Y236434D02*
D03*
X231100Y228166D02*
D03*
Y236434D02*
D03*
D32*
X290842Y324942D02*
X299200Y333300D01*
Y349500D01*
X334884Y297990D02*
X335062D01*
X337088Y300015D01*
Y321502D01*
X344686Y329100D01*
X339502Y284102D02*
X343200Y287800D01*
X323867Y284894D02*
X324659Y284102D01*
X339502D01*
X318314Y284894D02*
X323867D01*
X373020Y317504D02*
Y321007D01*
X374220Y320510D02*
X376329Y322619D01*
Y325356D02*
X377136Y326163D01*
X375129Y323116D02*
Y325612D01*
X374514Y326227D02*
Y326490D01*
Y326227D02*
X375129Y325612D01*
X374220Y318001D02*
Y320510D01*
X373020Y321007D02*
X375129Y323116D01*
X377136Y326163D02*
Y326361D01*
X373020Y317504D02*
X374372Y316153D01*
X376329Y322619D02*
Y325356D01*
X374220Y318001D02*
X375572Y316650D01*
X347771Y315378D02*
X349835D01*
X346579Y314186D02*
X347771Y315378D01*
X346579Y313261D02*
Y314186D01*
X343200Y309883D02*
X346579Y313261D01*
X343200Y287800D02*
Y309883D01*
X339500Y275700D02*
Y275800D01*
X346600Y268600D02*
X363490D01*
X339500Y275700D02*
X346600Y268600D01*
X363490D02*
X363614Y268724D01*
X276300Y267764D02*
Y276500D01*
X270761Y262225D02*
X276300Y267764D01*
Y276500D02*
X280300Y280500D01*
X270761Y259863D02*
Y262225D01*
X373300Y313363D02*
X373417D01*
X374372Y314317D02*
Y316153D01*
X375572Y313820D02*
Y316650D01*
X373417Y313363D02*
X374372Y314317D01*
X375086Y311721D02*
Y313334D01*
X375572Y313820D01*
X334800Y280500D02*
X339500Y275800D01*
X280300Y280500D02*
X334800D01*
D33*
X341000Y290183D02*
Y317567D01*
X337000Y286183D02*
X341000Y290183D01*
Y317567D02*
X347472Y324039D01*
X349835D01*
D34*
X323600Y287926D02*
X324926Y286600D01*
X318926Y287926D02*
X323600D01*
X324926Y286600D02*
X325000D01*
X357346Y316787D02*
X360268Y319709D01*
X357346Y271901D02*
X357623Y271624D01*
X360268Y319709D02*
X363614D01*
X357346Y271901D02*
Y316787D01*
X357623Y271550D02*
Y271624D01*
X381613Y285000D02*
X381686D01*
X381368Y285244D02*
X381613Y285000D01*
X380676Y285244D02*
X381368D01*
X379776Y286144D02*
X380676Y285244D01*
X377906Y286144D02*
X379776D01*
X377869Y286182D02*
X377906Y286144D01*
X366961Y337032D02*
X369882Y334110D01*
X369200Y255574D02*
X369882Y256256D01*
X365976Y337032D02*
X366961D01*
X369882Y256256D02*
Y334110D01*
X369200Y255500D02*
Y255574D01*
X363614Y260063D02*
X364156Y259521D01*
Y240756D02*
Y259521D01*
X239417Y236083D02*
X247800D01*
X212100Y263400D02*
X239417Y236083D01*
X212100Y263400D02*
Y268200D01*
X234500Y346500D02*
X239000Y342000D01*
X204636Y346500D02*
X234500D01*
X359069Y236653D02*
X360053D01*
X364156Y240756D01*
D35*
X265299Y253507D02*
X266413Y252393D01*
X266499D01*
X265029Y253507D02*
X265299D01*
X325500Y250726D02*
Y267164D01*
X324582Y268083D02*
X325500Y267164D01*
X324582Y268083D02*
Y272739D01*
X265029Y253507D02*
Y262022D01*
X256241Y269033D02*
X258017D01*
X256195Y269079D02*
X256241Y269033D01*
X258017D02*
X265029Y262022D01*
D36*
X259900Y222700D02*
X266300Y229100D01*
Y244443D01*
X208137Y222700D02*
X259900D01*
X266300Y244443D02*
X268057Y246200D01*
X320974D01*
X204500Y226337D02*
X208137Y222700D01*
X204500Y226337D02*
Y318500D01*
X320974Y246200D02*
X325500Y250726D01*
D37*
X363614Y260063D02*
D03*
Y268724D02*
D03*
Y277386D02*
D03*
Y286047D02*
D03*
Y294709D02*
D03*
Y303370D02*
D03*
Y312032D02*
D03*
Y320693D02*
D03*
Y329354D02*
D03*
Y338016D02*
D03*
X350835Y255732D02*
D03*
Y264394D02*
D03*
Y273055D02*
D03*
Y281716D02*
D03*
Y290378D02*
D03*
X349835Y299039D02*
D03*
Y307701D02*
D03*
Y316362D02*
D03*
Y325024D02*
D03*
Y333685D02*
D03*
D38*
X334000Y293500D02*
D03*
D39*
X324000D02*
D03*
D40*
X332571Y272067D02*
D03*
X323910D02*
D03*
X315248D02*
D03*
X297926D02*
D03*
X289264D02*
D03*
X271941D02*
D03*
X263280D02*
D03*
X254619D02*
D03*
X306587D02*
D03*
X280603D02*
D03*
X260524Y258287D02*
D03*
X269185D02*
D03*
X277847D02*
D03*
X286508D02*
D03*
X295170D02*
D03*
X303831D02*
D03*
X312493D02*
D03*
X321154D02*
D03*
X329815D02*
D03*
X338477D02*
D03*
D41*
X388366Y248994D02*
D03*
Y238994D02*
D03*
Y228994D02*
D03*
D42*
X358234Y249006D02*
D03*
Y239006D02*
D03*
Y229006D02*
D03*
D43*
X383300Y342400D02*
D03*
X388300D02*
D03*
Y332400D02*
D03*
X383300Y327400D02*
D03*
Y322400D02*
D03*
X388300Y327400D02*
D03*
Y322400D02*
D03*
D44*
X374068Y298587D02*
D03*
X334884Y297990D02*
D03*
X301609Y346886D02*
D03*
X344686Y329100D02*
D03*
X318926Y287926D02*
D03*
X325000Y286600D02*
D03*
X377136Y326361D02*
D03*
X374514Y326490D02*
D03*
X357623Y271550D02*
D03*
X380300Y269500D02*
D03*
X383274Y287114D02*
D03*
X382866Y293686D02*
D03*
X381686Y285000D02*
D03*
X369200Y255500D02*
D03*
X342599Y236901D02*
D03*
X346600Y234700D02*
D03*
X318314Y284894D02*
D03*
X237000Y333300D02*
D03*
X244524Y342667D02*
D03*
X257000Y346686D02*
D03*
X251472D02*
D03*
X276300Y346400D02*
D03*
X379800Y263500D02*
D03*
X373300Y313363D02*
D03*
X375086Y311721D02*
D03*
X235100Y330365D02*
D03*
X230100D02*
D03*
X259614Y329925D02*
D03*
X299200Y349500D02*
D03*
X301500Y340047D02*
D03*
X346800Y247600D02*
D03*
X239000Y342000D02*
D03*
X244000Y334531D02*
D03*
D45*
X309000Y289100D02*
D03*
X329228Y298628D02*
D03*
X290500Y328800D02*
D03*
X290842Y324942D02*
D03*
X334000Y300400D02*
D03*
X338069Y297835D02*
D03*
X337000Y286183D02*
D03*
X227100Y283700D02*
D03*
X247800Y236083D02*
D03*
X266499Y252393D02*
D03*
X260000Y233891D02*
D03*
X255857Y233400D02*
D03*
X251036Y234500D02*
D03*
X244900Y318500D02*
D03*
X239200Y319900D02*
D03*
X223400Y228466D02*
D03*
X221500Y349000D02*
D03*
X211431Y325069D02*
D03*
X297000Y307319D02*
D03*
X261500Y307500D02*
D03*
X261600Y293500D02*
D03*
X293800Y339919D02*
D03*
X293000Y335200D02*
D03*
X303092Y289931D02*
D03*
X338819Y342100D02*
D03*
Y336700D02*
D03*
X263000Y334400D02*
D03*
X262300Y327000D02*
D03*
X212100Y268500D02*
D03*
X234626Y319500D02*
D03*
X222965Y323500D02*
D03*
X204500Y319000D02*
D03*
X204636Y346500D02*
D03*
X222500Y268300D02*
D03*
D46*
X309669Y313669D02*
D03*
X314000D02*
D03*
X318331D02*
D03*
X322661D02*
D03*
X326992D02*
D03*
X309669Y318000D02*
D03*
X314000D02*
D03*
X318331D02*
D03*
X322661D02*
D03*
X326992D02*
D03*
X309669Y322331D02*
D03*
X314000D02*
D03*
X318331D02*
D03*
X322661D02*
D03*
X326992D02*
D03*
X309669Y326661D02*
D03*
X314000D02*
D03*
X318331D02*
D03*
X322661D02*
D03*
X326992D02*
D03*
X309669Y330992D02*
D03*
X314000D02*
D03*
X318331D02*
D03*
X322661D02*
D03*
X326992D02*
D03*
D47*
X245524Y280192D02*
D03*
X210400Y249100D02*
D03*
X241800Y229800D02*
D03*
X223100Y234800D02*
D03*
X220800Y241500D02*
D03*
X240500Y279000D02*
D03*
X241400Y270300D02*
D03*
X252200Y260200D02*
D03*
X252100Y247600D02*
D03*
X239700Y244000D02*
D03*
X238100Y260600D02*
D03*
X232900Y249900D02*
D03*
X223700Y259000D02*
D03*
X214100Y245500D02*
D03*
M02*
