G04*
G04 #@! TF.GenerationSoftware,Altium Limited,Altium Designer,21.0.8 (223)*
G04*
G04 Layer_Color=16711935*
%FSLAX25Y25*%
%MOIN*%
G70*
G04*
G04 #@! TF.SameCoordinates,CF28ABD0-DF4C-4253-A353-1030560CAA2A*
G04*
G04*
G04 #@! TF.FilePolarity,Positive*
G04*
G01*
G75*
%ADD11C,0.00787*%
D11*
X258738Y295376D02*
X263462D01*
X258738D02*
Y304824D01*
X263462D01*
Y295376D02*
Y304824D01*
X337362Y334776D02*
Y344224D01*
X332638D02*
X337362D01*
X332638Y334776D02*
Y344224D01*
Y334776D02*
X337362D01*
X294538Y296776D02*
X299262D01*
X294538D02*
Y306224D01*
X299262D01*
Y296776D02*
Y306224D01*
X219434Y338502D02*
X224158D01*
X219434D02*
Y347951D01*
X224158D01*
Y338502D02*
Y347951D01*
X219422Y336975D02*
X224147D01*
Y327526D02*
Y336975D01*
X219422Y327526D02*
X224147D01*
X219422D02*
Y336975D01*
X301776Y296838D02*
X311224D01*
Y301562D01*
X301776D02*
X311224D01*
X301776Y296838D02*
Y301562D01*
X331776Y303138D02*
X341224D01*
Y307862D01*
X331776D02*
X341224D01*
X331776Y303138D02*
Y307862D01*
X302055Y290136D02*
X310945D01*
Y294664D01*
X302055D02*
X310945D01*
X302055Y290136D02*
Y294664D01*
X292338Y324376D02*
Y333824D01*
Y324376D02*
X297062D01*
Y333824D01*
X292338D02*
X297062D01*
X234224Y286538D02*
Y291262D01*
X224776Y286538D02*
X234224D01*
X224776D02*
Y291262D01*
X234224D01*
X244599Y288925D02*
X257001D01*
X244599D02*
Y317075D01*
X257001D01*
Y288925D02*
Y317075D01*
X217201Y301020D02*
X229799D01*
X217201D02*
Y315980D01*
X229799D01*
Y301020D02*
Y315980D01*
X214055Y317236D02*
Y321764D01*
X222945D01*
Y317236D02*
Y321764D01*
X214055Y317236D02*
X222945D01*
X232445D02*
Y321764D01*
X223555Y317236D02*
X232445D01*
X223555D02*
Y321764D01*
X232445D01*
X215276Y286538D02*
Y291262D01*
X224724D01*
Y286538D02*
Y291262D01*
X215276Y286538D02*
X224724D01*
X232799Y288890D02*
X245201D01*
X232799D02*
Y317039D01*
X245201D01*
Y288890D02*
Y317039D01*
X215811Y292563D02*
X231189D01*
Y300437D01*
X215811D02*
X231189D01*
X215811Y292563D02*
Y300437D01*
M02*
