G04*
G04 #@! TF.GenerationSoftware,Altium Limited,Altium Designer,21.0.8 (223)*
G04*
G04 Layer_Color=12632256*
%FSLAX25Y25*%
%MOIN*%
G70*
G04*
G04 #@! TF.SameCoordinates,E158979E-E8F5-4E42-ABDF-87379EC9601E*
G04*
G04*
G04 #@! TF.FilePolarity,Positive*
G04*
G01*
G75*
%ADD37O,0.06000X0.07500*%
%ADD38O,0.07874X0.05906*%
%ADD39O,0.10236X0.05512*%
%ADD40C,0.04134*%
%ADD41O,0.05512X0.10236*%
D37*
X389202Y246641D02*
D03*
Y236641D02*
D03*
Y226641D02*
D03*
D38*
X359069Y246653D02*
D03*
Y236653D02*
D03*
Y226653D02*
D03*
D39*
X363614Y259079D02*
D03*
Y267740D02*
D03*
Y276402D02*
D03*
Y285063D02*
D03*
Y293724D02*
D03*
Y302386D02*
D03*
Y311047D02*
D03*
Y319709D02*
D03*
Y328370D02*
D03*
Y337032D02*
D03*
X349835Y254748D02*
D03*
Y263409D02*
D03*
Y272071D02*
D03*
Y280732D02*
D03*
Y289394D02*
D03*
Y298055D02*
D03*
Y306716D02*
D03*
Y315378D02*
D03*
Y324039D02*
D03*
Y332701D02*
D03*
D40*
X383300Y342400D02*
D03*
X388300D02*
D03*
Y332400D02*
D03*
X383300Y327400D02*
D03*
Y322400D02*
D03*
X388300Y327400D02*
D03*
Y322400D02*
D03*
D41*
X340053Y259863D02*
D03*
X331391D02*
D03*
X322730D02*
D03*
X314069D02*
D03*
X305407D02*
D03*
X296746D02*
D03*
X288084D02*
D03*
X279423D02*
D03*
X270761D02*
D03*
X262100D02*
D03*
X282179Y273643D02*
D03*
X308163D02*
D03*
X256195D02*
D03*
X264856D02*
D03*
X273517D02*
D03*
X290840D02*
D03*
X299502D02*
D03*
X316824D02*
D03*
X325486D02*
D03*
X334147D02*
D03*
M02*
