G04*
G04 #@! TF.GenerationSoftware,Altium Limited,Altium Designer,21.0.8 (223)*
G04*
G04 Layer_Color=65535*
%FSLAX25Y25*%
%MOIN*%
G70*
G04*
G04 #@! TF.SameCoordinates,CF28ABD0-DF4C-4253-A353-1030560CAA2A*
G04*
G04*
G04 #@! TF.FilePolarity,Positive*
G04*
G01*
G75*
%ADD10C,0.01000*%
%ADD11C,0.00787*%
%ADD12C,0.00600*%
D10*
X352100Y222300D02*
G03*
X352100Y222300I-700J0D01*
G01*
X259614Y354016D02*
X370614D01*
Y241016D02*
Y354016D01*
X259614Y241016D02*
X370614D01*
X259614Y354016D02*
X259614Y241016D01*
X392726Y219920D02*
Y257694D01*
X353749D02*
X392726D01*
X353749Y219920D02*
X392726D01*
X353749D02*
Y257694D01*
X210902Y253000D02*
X204904D01*
X206904Y254999D01*
X204904Y256999D01*
X210902D01*
X204904Y258998D02*
X210902D01*
Y262997D01*
Y274993D02*
Y270994D01*
X206904Y274993D01*
X205904D01*
X204904Y273993D01*
Y271994D01*
X205904Y270994D01*
Y276992D02*
X204904Y277992D01*
Y279991D01*
X205904Y280991D01*
X209903D01*
X210902Y279991D01*
Y277992D01*
X209903Y276992D01*
X205904D01*
X210902Y286989D02*
Y282990D01*
X206904Y286989D01*
X205904D01*
X204904Y285989D01*
Y283990D01*
X205904Y282990D01*
X210902Y288988D02*
Y290988D01*
Y289988D01*
X204904D01*
X205904Y288988D01*
X214502Y253000D02*
X220500D01*
Y256999D01*
X214502Y258998D02*
X220500D01*
X218501D01*
X214502Y262997D01*
X217501Y259998D01*
X220500Y262997D01*
Y264996D02*
X216501D01*
X214502Y266996D01*
X216501Y268995D01*
X220500D01*
X217501D01*
Y264996D01*
X215502Y274993D02*
X214502Y273993D01*
Y271994D01*
X215502Y270994D01*
X216501D01*
X217501Y271994D01*
Y273993D01*
X218501Y274993D01*
X219500D01*
X220500Y273993D01*
Y271994D01*
X219500Y270994D01*
X217501Y276992D02*
Y280991D01*
X214502Y286989D02*
Y282990D01*
X220500D01*
Y286989D01*
X217501Y282990D02*
Y284990D01*
X220500Y288988D02*
X214502D01*
Y291987D01*
X215502Y292987D01*
X217501D01*
X218501Y291987D01*
Y288988D01*
X215502Y298985D02*
X214502Y297985D01*
Y295986D01*
X215502Y294986D01*
X216501D01*
X217501Y295986D01*
Y297985D01*
X218501Y298985D01*
X219500D01*
X220500Y297985D01*
Y295986D01*
X219500Y294986D01*
X214502Y306982D02*
X218501D01*
X220500Y308982D01*
X218501Y310981D01*
X214502D01*
X220500Y316979D02*
Y312981D01*
X216501Y316979D01*
X215502D01*
X214502Y315980D01*
Y313980D01*
X215502Y312981D01*
X214502Y318979D02*
Y320978D01*
Y319978D01*
X220500D01*
Y318979D01*
Y320978D01*
Y326976D02*
X214502D01*
X217501Y323977D01*
Y327976D01*
X360614Y352016D02*
Y350016D01*
Y351016D01*
X366612D01*
X365613Y352016D01*
Y347017D02*
X366612Y346018D01*
Y344018D01*
X365613Y343019D01*
X361614D01*
X360614Y344018D01*
Y346018D01*
X361614Y347017D01*
X365613D01*
X346614Y346017D02*
Y350016D01*
X350613Y346017D01*
X351612D01*
X352612Y347017D01*
Y349016D01*
X351612Y350016D01*
Y344018D02*
X352612Y343018D01*
Y341019D01*
X351612Y340019D01*
X347614D01*
X346614Y341019D01*
Y343018D01*
X347614Y344018D01*
X351612D01*
X345900Y251184D02*
Y249185D01*
Y250185D01*
X351898D01*
X350898Y251184D01*
X345900Y246186D02*
Y244186D01*
Y245186D01*
X351898D01*
X350898Y246186D01*
X371400Y261084D02*
Y259085D01*
Y260085D01*
X377398D01*
X376398Y261084D01*
X341900Y251500D02*
X339901D01*
X340900D01*
Y245502D01*
X341900Y246502D01*
X336902D02*
X335902Y245502D01*
X333903D01*
X332903Y246502D01*
Y250500D01*
X333903Y251500D01*
X335902D01*
X336902Y250500D01*
Y246502D01*
X334501Y284600D02*
X338500D01*
X334501Y280601D01*
Y279602D01*
X335501Y278602D01*
X337500D01*
X338500Y279602D01*
X332502D02*
X331502Y278602D01*
X329503D01*
X328503Y279602D01*
Y283600D01*
X329503Y284600D01*
X331502D01*
X332502Y283600D01*
Y279602D01*
X250524Y275287D02*
X248524D01*
X249524D01*
Y269289D01*
X250524Y270289D01*
X245525Y275287D02*
X243526D01*
X244526D01*
Y269289D01*
X245525Y270289D01*
X253524Y261287D02*
X251524D01*
X252524D01*
Y255289D01*
X253524Y256289D01*
D11*
X398912Y275453D02*
Y307147D01*
X393715Y275453D02*
X398912D01*
X393715Y307147D02*
X398912D01*
X213732Y231710D02*
Y232891D01*
X217669Y231710D02*
Y232891D01*
X213732Y231710D02*
X217669D01*
X229132D02*
Y232891D01*
X233068Y231710D02*
Y232891D01*
X229132Y231710D02*
X233068D01*
X378812Y350490D02*
X392788D01*
X378812Y314310D02*
X392788D01*
X378812D02*
Y350490D01*
X392788Y314310D02*
Y350490D01*
D12*
X261287Y348306D02*
Y347106D01*
Y347706D01*
X264286D01*
X264886Y347106D01*
Y346506D01*
X264286Y345906D01*
X264886Y351904D02*
Y349505D01*
X262487Y351904D01*
X261887D01*
X261287Y351305D01*
Y350105D01*
X261887Y349505D01*
X390831Y309331D02*
X392031D01*
X391431D01*
Y312930D01*
X390831Y312330D01*
X380299Y309500D02*
X377900D01*
X380299Y311899D01*
Y312499D01*
X379699Y313099D01*
X378500D01*
X377900Y312499D01*
X385565Y262052D02*
X384965Y262652D01*
X383766D01*
X383166Y262052D01*
Y261453D01*
X383766Y260853D01*
X384965D01*
X385565Y260253D01*
Y259653D01*
X384965Y259053D01*
X383766D01*
X383166Y259653D01*
X386765Y262652D02*
Y259053D01*
X387964Y260253D01*
X389164Y259053D01*
Y262652D01*
X390364Y259053D02*
X391563D01*
X390963D01*
Y262652D01*
X390364Y262052D01*
X373801Y349099D02*
X377399D01*
Y347300D01*
X376800Y346700D01*
X375600D01*
X375000Y347300D01*
Y349099D01*
X373801Y345500D02*
Y344301D01*
Y344901D01*
X377399D01*
X376800Y345500D01*
X234901Y225602D02*
X238499D01*
Y228001D01*
X234901Y231600D02*
Y229201D01*
X238499D01*
Y231600D01*
X236700Y229201D02*
Y230401D01*
X234901Y232800D02*
X238499D01*
Y234599D01*
X237900Y235199D01*
X235500D01*
X234901Y234599D01*
Y232800D01*
X238499Y238798D02*
Y236399D01*
X236100Y238798D01*
X235500D01*
X234901Y238198D01*
Y236999D01*
X235500Y236399D01*
X208001Y226502D02*
X211599D01*
Y228901D01*
X208001Y232500D02*
Y230101D01*
X211599D01*
Y232500D01*
X209800Y230101D02*
Y231300D01*
X208001Y233700D02*
X211599D01*
Y235499D01*
X211000Y236099D01*
X208600D01*
X208001Y235499D01*
Y233700D01*
X211599Y237298D02*
Y238498D01*
Y237898D01*
X208001D01*
X208600Y237298D01*
M02*
