G04*
G04 #@! TF.GenerationSoftware,Altium Limited,Altium Designer,21.0.8 (223)*
G04*
G04 Layer_Physical_Order=2*
G04 Layer_Color=16711680*
%FSLAX25Y25*%
%MOIN*%
G70*
G04*
G04 #@! TF.SameCoordinates,11A2A22B-46B4-42A7-8BC6-B1AC857C9469*
G04*
G04*
G04 #@! TF.FilePolarity,Positive*
G04*
G01*
G75*
%ADD24C,0.06102*%
%ADD25R,0.06102X0.06102*%
G04:AMPARAMS|DCode=26|XSize=94.49mil|YSize=181.1mil|CornerRadius=47.24mil|HoleSize=0mil|Usage=FLASHONLY|Rotation=180.000|XOffset=0mil|YOffset=0mil|HoleType=Round|Shape=RoundedRectangle|*
%AMROUNDEDRECTD26*
21,1,0.09449,0.08661,0,0,180.0*
21,1,0.00000,0.18110,0,0,180.0*
1,1,0.09449,0.00000,0.04331*
1,1,0.09449,0.00000,0.04331*
1,1,0.09449,0.00000,-0.04331*
1,1,0.09449,0.00000,-0.04331*
%
%ADD26ROUNDEDRECTD26*%
%ADD30C,0.05118*%
%ADD31R,0.05118X0.05118*%
%ADD35C,0.07480*%
%ADD36R,0.05906X0.05906*%
%ADD37C,0.05906*%
%ADD38C,0.05000*%
G36*
X495300Y102800D02*
X102400D01*
Y296300D01*
X495300D01*
Y102800D01*
D02*
G37*
%LPC*%
G36*
X464200Y276215D02*
Y272000D01*
X468415D01*
X468318Y272737D01*
X467840Y273890D01*
X467081Y274881D01*
X466090Y275641D01*
X464937Y276118D01*
X464200Y276215D01*
D02*
G37*
G36*
X463200D02*
X462463Y276118D01*
X461309Y275641D01*
X460319Y274881D01*
X459559Y273890D01*
X459082Y272737D01*
X458985Y272000D01*
X463200D01*
Y276215D01*
D02*
G37*
G36*
X302900Y272764D02*
Y269800D01*
X305864D01*
X305810Y270214D01*
X305457Y271065D01*
X304896Y271796D01*
X304165Y272357D01*
X303314Y272710D01*
X302900Y272764D01*
D02*
G37*
G36*
X301900D02*
X301486Y272710D01*
X300635Y272357D01*
X299904Y271796D01*
X299343Y271065D01*
X298990Y270214D01*
X298936Y269800D01*
X301900D01*
Y272764D01*
D02*
G37*
G36*
X468415Y271000D02*
X464200D01*
Y266785D01*
X464937Y266882D01*
X466090Y267359D01*
X467081Y268119D01*
X467840Y269110D01*
X468318Y270263D01*
X468415Y271000D01*
D02*
G37*
G36*
X463200D02*
X458985D01*
X459082Y270263D01*
X459559Y269110D01*
X460319Y268119D01*
X461309Y267359D01*
X462463Y266882D01*
X463200Y266785D01*
Y271000D01*
D02*
G37*
G36*
X305864Y268800D02*
X302900D01*
Y265836D01*
X303314Y265890D01*
X304165Y266243D01*
X304896Y266804D01*
X305457Y267535D01*
X305810Y268386D01*
X305864Y268800D01*
D02*
G37*
G36*
X301900D02*
X298936D01*
X298990Y268386D01*
X299343Y267535D01*
X299904Y266804D01*
X300635Y266243D01*
X301486Y265890D01*
X301900Y265836D01*
Y268800D01*
D02*
G37*
G36*
X228800Y254264D02*
Y251300D01*
X231764D01*
X231710Y251714D01*
X231357Y252565D01*
X230796Y253296D01*
X230065Y253857D01*
X229214Y254210D01*
X228800Y254264D01*
D02*
G37*
G36*
X227800D02*
X227386Y254210D01*
X226535Y253857D01*
X225804Y253296D01*
X225243Y252565D01*
X224890Y251714D01*
X224836Y251300D01*
X227800D01*
Y254264D01*
D02*
G37*
G36*
X231764Y250300D02*
X228800D01*
Y247336D01*
X229214Y247390D01*
X230065Y247743D01*
X230796Y248304D01*
X231357Y249035D01*
X231710Y249886D01*
X231764Y250300D01*
D02*
G37*
G36*
X227800D02*
X224836D01*
X224890Y249886D01*
X225243Y249035D01*
X225804Y248304D01*
X226535Y247743D01*
X227386Y247390D01*
X227800Y247336D01*
Y250300D01*
D02*
G37*
G36*
X463700Y256281D02*
X462463Y256118D01*
X461309Y255641D01*
X460319Y254881D01*
X459559Y253890D01*
X459082Y252737D01*
X458919Y251500D01*
X459082Y250263D01*
X459559Y249110D01*
X460319Y248119D01*
X461309Y247359D01*
X462463Y246882D01*
X463700Y246719D01*
X464937Y246882D01*
X466090Y247359D01*
X467081Y248119D01*
X467840Y249110D01*
X468318Y250263D01*
X468481Y251500D01*
X468318Y252737D01*
X467840Y253890D01*
X467081Y254881D01*
X466090Y255641D01*
X464937Y256118D01*
X463700Y256281D01*
D02*
G37*
G36*
X260700Y233624D02*
Y230600D01*
X263724D01*
X263667Y231029D01*
X263309Y231895D01*
X262738Y232638D01*
X261995Y233209D01*
X261129Y233567D01*
X260700Y233624D01*
D02*
G37*
G36*
X280700D02*
Y230600D01*
X283724D01*
X283667Y231029D01*
X283309Y231895D01*
X282738Y232638D01*
X281995Y233209D01*
X281129Y233567D01*
X280700Y233624D01*
D02*
G37*
G36*
X270700D02*
Y230600D01*
X273724D01*
X273667Y231029D01*
X273309Y231895D01*
X272738Y232638D01*
X271995Y233209D01*
X271129Y233567D01*
X270700Y233624D01*
D02*
G37*
G36*
X250700D02*
Y230600D01*
X253724D01*
X253667Y231029D01*
X253309Y231895D01*
X252738Y232638D01*
X251995Y233209D01*
X251129Y233567D01*
X250700Y233624D01*
D02*
G37*
G36*
X230700D02*
Y230600D01*
X233724D01*
X233667Y231029D01*
X233309Y231895D01*
X232738Y232638D01*
X231995Y233209D01*
X231129Y233567D01*
X230700Y233624D01*
D02*
G37*
G36*
X290700D02*
Y230600D01*
X293724D01*
X293667Y231029D01*
X293309Y231895D01*
X292738Y232638D01*
X291995Y233209D01*
X291129Y233567D01*
X290700Y233624D01*
D02*
G37*
G36*
X240700D02*
Y230600D01*
X243724D01*
X243667Y231029D01*
X243309Y231895D01*
X242738Y232638D01*
X241995Y233209D01*
X241129Y233567D01*
X240700Y233624D01*
D02*
G37*
G36*
X259700D02*
X259271Y233567D01*
X258405Y233209D01*
X257662Y232638D01*
X257091Y231895D01*
X256733Y231029D01*
X256676Y230600D01*
X259700D01*
Y233624D01*
D02*
G37*
G36*
X269700D02*
X269271Y233567D01*
X268405Y233209D01*
X267662Y232638D01*
X267091Y231895D01*
X266733Y231029D01*
X266676Y230600D01*
X269700D01*
Y233624D01*
D02*
G37*
G36*
X249700D02*
X249271Y233567D01*
X248405Y233209D01*
X247662Y232638D01*
X247091Y231895D01*
X246733Y231029D01*
X246676Y230600D01*
X249700D01*
Y233624D01*
D02*
G37*
G36*
X279700D02*
X279271Y233567D01*
X278405Y233209D01*
X277662Y232638D01*
X277091Y231895D01*
X276733Y231029D01*
X276676Y230600D01*
X279700D01*
Y233624D01*
D02*
G37*
G36*
X229700D02*
X229271Y233567D01*
X228405Y233209D01*
X227662Y232638D01*
X227091Y231895D01*
X226733Y231029D01*
X226676Y230600D01*
X229700D01*
Y233624D01*
D02*
G37*
G36*
X289700D02*
X289271Y233567D01*
X288405Y233209D01*
X287662Y232638D01*
X287091Y231895D01*
X286733Y231029D01*
X286676Y230600D01*
X289700D01*
Y233624D01*
D02*
G37*
G36*
X239700D02*
X239271Y233567D01*
X238405Y233209D01*
X237662Y232638D01*
X237091Y231895D01*
X236733Y231029D01*
X236676Y230600D01*
X239700D01*
Y233624D01*
D02*
G37*
G36*
X463700Y236281D02*
X462463Y236118D01*
X461309Y235641D01*
X460319Y234881D01*
X459559Y233891D01*
X459082Y232737D01*
X458919Y231500D01*
X459082Y230263D01*
X459559Y229110D01*
X460319Y228119D01*
X461309Y227360D01*
X462463Y226882D01*
X463700Y226719D01*
X464937Y226882D01*
X466090Y227360D01*
X467081Y228119D01*
X467840Y229110D01*
X468318Y230263D01*
X468481Y231500D01*
X468318Y232737D01*
X467840Y233891D01*
X467081Y234881D01*
X466090Y235641D01*
X464937Y236118D01*
X463700Y236281D01*
D02*
G37*
G36*
X293724Y229600D02*
X290700D01*
Y226576D01*
X291129Y226633D01*
X291995Y226991D01*
X292738Y227562D01*
X293309Y228305D01*
X293667Y229171D01*
X293724Y229600D01*
D02*
G37*
G36*
X283724D02*
X280700D01*
Y226576D01*
X281129Y226633D01*
X281995Y226991D01*
X282738Y227562D01*
X283309Y228305D01*
X283667Y229171D01*
X283724Y229600D01*
D02*
G37*
G36*
X273724D02*
X270700D01*
Y226576D01*
X271129Y226633D01*
X271995Y226991D01*
X272738Y227562D01*
X273309Y228305D01*
X273667Y229171D01*
X273724Y229600D01*
D02*
G37*
G36*
X263724D02*
X260700D01*
Y226576D01*
X261129Y226633D01*
X261995Y226991D01*
X262738Y227562D01*
X263309Y228305D01*
X263667Y229171D01*
X263724Y229600D01*
D02*
G37*
G36*
X253724D02*
X250700D01*
Y226576D01*
X251129Y226633D01*
X251995Y226991D01*
X252738Y227562D01*
X253309Y228305D01*
X253667Y229171D01*
X253724Y229600D01*
D02*
G37*
G36*
X243724D02*
X240700D01*
Y226576D01*
X241129Y226633D01*
X241995Y226991D01*
X242738Y227562D01*
X243309Y228305D01*
X243667Y229171D01*
X243724Y229600D01*
D02*
G37*
G36*
X233724D02*
X230700D01*
Y226576D01*
X231129Y226633D01*
X231995Y226991D01*
X232738Y227562D01*
X233309Y228305D01*
X233667Y229171D01*
X233724Y229600D01*
D02*
G37*
G36*
X289700D02*
X286676D01*
X286733Y229171D01*
X287091Y228305D01*
X287662Y227562D01*
X288405Y226991D01*
X289271Y226633D01*
X289700Y226576D01*
Y229600D01*
D02*
G37*
G36*
X279700D02*
X276676D01*
X276733Y229171D01*
X277091Y228305D01*
X277662Y227562D01*
X278405Y226991D01*
X279271Y226633D01*
X279700Y226576D01*
Y229600D01*
D02*
G37*
G36*
X269700D02*
X266676D01*
X266733Y229171D01*
X267091Y228305D01*
X267662Y227562D01*
X268405Y226991D01*
X269271Y226633D01*
X269700Y226576D01*
Y229600D01*
D02*
G37*
G36*
X259700D02*
X256676D01*
X256733Y229171D01*
X257091Y228305D01*
X257662Y227562D01*
X258405Y226991D01*
X259271Y226633D01*
X259700Y226576D01*
Y229600D01*
D02*
G37*
G36*
X249700D02*
X246676D01*
X246733Y229171D01*
X247091Y228305D01*
X247662Y227562D01*
X248405Y226991D01*
X249271Y226633D01*
X249700Y226576D01*
Y229600D01*
D02*
G37*
G36*
X239700D02*
X236676D01*
X236733Y229171D01*
X237091Y228305D01*
X237662Y227562D01*
X238405Y226991D01*
X239271Y226633D01*
X239700Y226576D01*
Y229600D01*
D02*
G37*
G36*
X229700D02*
X226676D01*
X226733Y229171D01*
X227091Y228305D01*
X227662Y227562D01*
X228405Y226991D01*
X229271Y226633D01*
X229700Y226576D01*
Y229600D01*
D02*
G37*
G36*
X220200Y233690D02*
X219271Y233567D01*
X218405Y233209D01*
X217662Y232638D01*
X217091Y231895D01*
X216733Y231029D01*
X216610Y230100D01*
X216733Y229171D01*
X217091Y228305D01*
X217662Y227562D01*
X218405Y226991D01*
X219271Y226633D01*
X220200Y226510D01*
X221129Y226633D01*
X221995Y226991D01*
X222738Y227562D01*
X223309Y228305D01*
X223667Y229171D01*
X223790Y230100D01*
X223667Y231029D01*
X223309Y231895D01*
X222738Y232638D01*
X221995Y233209D01*
X221129Y233567D01*
X220200Y233690D01*
D02*
G37*
G36*
X293759Y203659D02*
X286641D01*
Y196541D01*
X293759D01*
Y203659D01*
D02*
G37*
G36*
X280200Y203690D02*
X279271Y203567D01*
X278405Y203209D01*
X277662Y202638D01*
X277091Y201895D01*
X276733Y201029D01*
X276610Y200100D01*
X276733Y199171D01*
X277091Y198305D01*
X277662Y197562D01*
X278405Y196991D01*
X279271Y196633D01*
X280200Y196510D01*
X281129Y196633D01*
X281995Y196991D01*
X282738Y197562D01*
X283309Y198305D01*
X283667Y199171D01*
X283790Y200100D01*
X283667Y201029D01*
X283309Y201895D01*
X282738Y202638D01*
X281995Y203209D01*
X281129Y203567D01*
X280200Y203690D01*
D02*
G37*
G36*
X270200D02*
X269271Y203567D01*
X268405Y203209D01*
X267662Y202638D01*
X267091Y201895D01*
X266733Y201029D01*
X266610Y200100D01*
X266733Y199171D01*
X267091Y198305D01*
X267662Y197562D01*
X268405Y196991D01*
X269271Y196633D01*
X270200Y196510D01*
X271129Y196633D01*
X271995Y196991D01*
X272738Y197562D01*
X273309Y198305D01*
X273667Y199171D01*
X273790Y200100D01*
X273667Y201029D01*
X273309Y201895D01*
X272738Y202638D01*
X271995Y203209D01*
X271129Y203567D01*
X270200Y203690D01*
D02*
G37*
G36*
X260200D02*
X259271Y203567D01*
X258405Y203209D01*
X257662Y202638D01*
X257091Y201895D01*
X256733Y201029D01*
X256610Y200100D01*
X256733Y199171D01*
X257091Y198305D01*
X257662Y197562D01*
X258405Y196991D01*
X259271Y196633D01*
X260200Y196510D01*
X261129Y196633D01*
X261995Y196991D01*
X262738Y197562D01*
X263309Y198305D01*
X263667Y199171D01*
X263790Y200100D01*
X263667Y201029D01*
X263309Y201895D01*
X262738Y202638D01*
X261995Y203209D01*
X261129Y203567D01*
X260200Y203690D01*
D02*
G37*
G36*
X250200D02*
X249271Y203567D01*
X248405Y203209D01*
X247662Y202638D01*
X247091Y201895D01*
X246733Y201029D01*
X246610Y200100D01*
X246733Y199171D01*
X247091Y198305D01*
X247662Y197562D01*
X248405Y196991D01*
X249271Y196633D01*
X250200Y196510D01*
X251129Y196633D01*
X251995Y196991D01*
X252738Y197562D01*
X253309Y198305D01*
X253667Y199171D01*
X253790Y200100D01*
X253667Y201029D01*
X253309Y201895D01*
X252738Y202638D01*
X251995Y203209D01*
X251129Y203567D01*
X250200Y203690D01*
D02*
G37*
G36*
X240200D02*
X239271Y203567D01*
X238405Y203209D01*
X237662Y202638D01*
X237091Y201895D01*
X236733Y201029D01*
X236610Y200100D01*
X236733Y199171D01*
X237091Y198305D01*
X237662Y197562D01*
X238405Y196991D01*
X239271Y196633D01*
X240200Y196510D01*
X241129Y196633D01*
X241995Y196991D01*
X242738Y197562D01*
X243309Y198305D01*
X243667Y199171D01*
X243790Y200100D01*
X243667Y201029D01*
X243309Y201895D01*
X242738Y202638D01*
X241995Y203209D01*
X241129Y203567D01*
X240200Y203690D01*
D02*
G37*
G36*
X230200D02*
X229271Y203567D01*
X228405Y203209D01*
X227662Y202638D01*
X227091Y201895D01*
X226733Y201029D01*
X226610Y200100D01*
X226733Y199171D01*
X227091Y198305D01*
X227662Y197562D01*
X228405Y196991D01*
X229271Y196633D01*
X230200Y196510D01*
X231129Y196633D01*
X231995Y196991D01*
X232738Y197562D01*
X233309Y198305D01*
X233667Y199171D01*
X233790Y200100D01*
X233667Y201029D01*
X233309Y201895D01*
X232738Y202638D01*
X231995Y203209D01*
X231129Y203567D01*
X230200Y203690D01*
D02*
G37*
G36*
X220200D02*
X219271Y203567D01*
X218405Y203209D01*
X217662Y202638D01*
X217091Y201895D01*
X216733Y201029D01*
X216610Y200100D01*
X216733Y199171D01*
X217091Y198305D01*
X217662Y197562D01*
X218405Y196991D01*
X219271Y196633D01*
X220200Y196510D01*
X221129Y196633D01*
X221995Y196991D01*
X222738Y197562D01*
X223309Y198305D01*
X223667Y199171D01*
X223790Y200100D01*
X223667Y201029D01*
X223309Y201895D01*
X222738Y202638D01*
X221995Y203209D01*
X221129Y203567D01*
X220200Y203690D01*
D02*
G37*
G36*
X415500Y185308D02*
Y182344D01*
X418464D01*
X418410Y182758D01*
X418057Y183609D01*
X417496Y184340D01*
X416765Y184901D01*
X415914Y185254D01*
X415500Y185308D01*
D02*
G37*
G36*
X414500D02*
X414086Y185254D01*
X413235Y184901D01*
X412504Y184340D01*
X411943Y183609D01*
X411590Y182758D01*
X411536Y182344D01*
X414500D01*
Y185308D01*
D02*
G37*
G36*
X418464Y181344D02*
X415500D01*
Y178380D01*
X415914Y178434D01*
X416765Y178787D01*
X417496Y179348D01*
X418057Y180079D01*
X418410Y180930D01*
X418464Y181344D01*
D02*
G37*
G36*
X414500D02*
X411536D01*
X411590Y180930D01*
X411943Y180079D01*
X412504Y179348D01*
X413235Y178787D01*
X414086Y178434D01*
X414500Y178380D01*
Y181344D01*
D02*
G37*
G36*
X444657Y180479D02*
Y176959D01*
X448178D01*
X448104Y177517D01*
X447696Y178502D01*
X447047Y179348D01*
X446201Y179998D01*
X445215Y180406D01*
X444657Y180479D01*
D02*
G37*
G36*
X443657D02*
X443100Y180406D01*
X442114Y179998D01*
X441268Y179348D01*
X440619Y178502D01*
X440210Y177517D01*
X440137Y176959D01*
X443657D01*
Y180479D01*
D02*
G37*
G36*
X448178Y175959D02*
X444657D01*
Y172439D01*
X445215Y172512D01*
X446201Y172920D01*
X447047Y173570D01*
X447696Y174416D01*
X448104Y175401D01*
X448178Y175959D01*
D02*
G37*
G36*
X443657D02*
X440137D01*
X440210Y175401D01*
X440619Y174416D01*
X441268Y173570D01*
X442114Y172920D01*
X443100Y172512D01*
X443657Y172439D01*
Y175959D01*
D02*
G37*
G36*
X467894Y180510D02*
X459791D01*
Y172408D01*
X467894D01*
Y180510D01*
D02*
G37*
G36*
X454000Y180545D02*
X452942Y180406D01*
X451957Y179998D01*
X451111Y179348D01*
X450461Y178502D01*
X450053Y177517D01*
X449914Y176459D01*
X450053Y175401D01*
X450461Y174416D01*
X451111Y173570D01*
X451957Y172920D01*
X452942Y172512D01*
X454000Y172373D01*
X455058Y172512D01*
X456043Y172920D01*
X456889Y173570D01*
X457539Y174416D01*
X457947Y175401D01*
X458086Y176459D01*
X457947Y177517D01*
X457539Y178502D01*
X456889Y179348D01*
X456043Y179998D01*
X455058Y180406D01*
X454000Y180545D01*
D02*
G37*
G36*
X354558Y162616D02*
Y159195D01*
X357979D01*
X357909Y159727D01*
X357511Y160689D01*
X356877Y161514D01*
X356052Y162148D01*
X355090Y162546D01*
X354558Y162616D01*
D02*
G37*
G36*
X287425D02*
Y159195D01*
X290846D01*
X290776Y159727D01*
X290378Y160689D01*
X289744Y161514D01*
X288918Y162148D01*
X287957Y162546D01*
X287425Y162616D01*
D02*
G37*
G36*
X220292D02*
Y159195D01*
X223713D01*
X223643Y159727D01*
X223244Y160689D01*
X222611Y161514D01*
X221785Y162148D01*
X220824Y162546D01*
X220292Y162616D01*
D02*
G37*
G36*
X153158D02*
Y159195D01*
X156579D01*
X156509Y159727D01*
X156111Y160689D01*
X155477Y161514D01*
X154652Y162148D01*
X153690Y162546D01*
X153158Y162616D01*
D02*
G37*
G36*
X353558D02*
X353026Y162546D01*
X352065Y162148D01*
X351239Y161514D01*
X350606Y160689D01*
X350207Y159727D01*
X350137Y159195D01*
X353558D01*
Y162616D01*
D02*
G37*
G36*
X286425D02*
X285893Y162546D01*
X284932Y162148D01*
X284106Y161514D01*
X283472Y160689D01*
X283074Y159727D01*
X283004Y159195D01*
X286425D01*
Y162616D01*
D02*
G37*
G36*
X219292D02*
X218760Y162546D01*
X217798Y162148D01*
X216972Y161514D01*
X216339Y160689D01*
X215941Y159727D01*
X215871Y159195D01*
X219292D01*
Y162616D01*
D02*
G37*
G36*
X152158D02*
X151626Y162546D01*
X150665Y162148D01*
X149839Y161514D01*
X149206Y160689D01*
X148807Y159727D01*
X148737Y159195D01*
X152158D01*
Y162616D01*
D02*
G37*
G36*
X156579Y158195D02*
X153158D01*
Y154774D01*
X153690Y154844D01*
X154652Y155243D01*
X155477Y155876D01*
X156111Y156702D01*
X156509Y157663D01*
X156579Y158195D01*
D02*
G37*
G36*
X357979D02*
X354558D01*
Y154774D01*
X355090Y154844D01*
X356052Y155243D01*
X356877Y155876D01*
X357511Y156702D01*
X357909Y157663D01*
X357979Y158195D01*
D02*
G37*
G36*
X290846D02*
X287425D01*
Y154774D01*
X287957Y154844D01*
X288918Y155243D01*
X289744Y155876D01*
X290378Y156702D01*
X290776Y157663D01*
X290846Y158195D01*
D02*
G37*
G36*
X223713D02*
X220292D01*
Y154774D01*
X220824Y154844D01*
X221785Y155243D01*
X222611Y155876D01*
X223244Y156702D01*
X223643Y157663D01*
X223713Y158195D01*
D02*
G37*
G36*
X286425D02*
X283004D01*
X283074Y157663D01*
X283472Y156702D01*
X284106Y155876D01*
X284932Y155243D01*
X285893Y154844D01*
X286425Y154774D01*
Y158195D01*
D02*
G37*
G36*
X219292D02*
X215871D01*
X215941Y157663D01*
X216339Y156702D01*
X216972Y155876D01*
X217798Y155243D01*
X218760Y154844D01*
X219292Y154774D01*
Y158195D01*
D02*
G37*
G36*
X152158D02*
X148737D01*
X148807Y157663D01*
X149206Y156702D01*
X149839Y155876D01*
X150665Y155243D01*
X151626Y154844D01*
X152158Y154774D01*
Y158195D01*
D02*
G37*
G36*
X353558D02*
X350137D01*
X350207Y157663D01*
X350606Y156702D01*
X351239Y155876D01*
X352065Y155243D01*
X353026Y154844D01*
X353558Y154774D01*
Y158195D01*
D02*
G37*
G36*
X336342Y162682D02*
X335310Y162546D01*
X334348Y162148D01*
X333523Y161514D01*
X332889Y160689D01*
X332491Y159727D01*
X332355Y158695D01*
X332491Y157663D01*
X332889Y156702D01*
X333523Y155876D01*
X334348Y155243D01*
X335310Y154844D01*
X336342Y154708D01*
X337374Y154844D01*
X338335Y155243D01*
X339161Y155876D01*
X339794Y156702D01*
X340193Y157663D01*
X340329Y158695D01*
X340193Y159727D01*
X339794Y160689D01*
X339161Y161514D01*
X338335Y162148D01*
X337374Y162546D01*
X336342Y162682D01*
D02*
G37*
G36*
X269208D02*
X268177Y162546D01*
X267215Y162148D01*
X266389Y161514D01*
X265756Y160689D01*
X265357Y159727D01*
X265222Y158695D01*
X265357Y157663D01*
X265756Y156702D01*
X266389Y155876D01*
X267215Y155243D01*
X268177Y154844D01*
X269208Y154708D01*
X270240Y154844D01*
X271202Y155243D01*
X272027Y155876D01*
X272661Y156702D01*
X273059Y157663D01*
X273195Y158695D01*
X273059Y159727D01*
X272661Y160689D01*
X272027Y161514D01*
X271202Y162148D01*
X270240Y162546D01*
X269208Y162682D01*
D02*
G37*
G36*
X202075D02*
X201043Y162546D01*
X200082Y162148D01*
X199256Y161514D01*
X198622Y160689D01*
X198224Y159727D01*
X198088Y158695D01*
X198224Y157663D01*
X198622Y156702D01*
X199256Y155876D01*
X200082Y155243D01*
X201043Y154844D01*
X202075Y154708D01*
X203107Y154844D01*
X204068Y155243D01*
X204894Y155876D01*
X205528Y156702D01*
X205926Y157663D01*
X206062Y158695D01*
X205926Y159727D01*
X205528Y160689D01*
X204894Y161514D01*
X204068Y162148D01*
X203107Y162546D01*
X202075Y162682D01*
D02*
G37*
G36*
X134942D02*
X133910Y162546D01*
X132948Y162148D01*
X132123Y161514D01*
X131489Y160689D01*
X131091Y159727D01*
X130955Y158695D01*
X131091Y157663D01*
X131489Y156702D01*
X132123Y155876D01*
X132948Y155243D01*
X133910Y154844D01*
X134942Y154708D01*
X135974Y154844D01*
X136935Y155243D01*
X137761Y155876D01*
X138394Y156702D01*
X138793Y157663D01*
X138929Y158695D01*
X138793Y159727D01*
X138394Y160689D01*
X137761Y161514D01*
X136935Y162148D01*
X135974Y162546D01*
X134942Y162682D01*
D02*
G37*
G36*
X471823Y158939D02*
Y149400D01*
X477097D01*
Y153231D01*
X476900Y154725D01*
X476323Y156118D01*
X475406Y157313D01*
X474210Y158231D01*
X472817Y158808D01*
X471823Y158939D01*
D02*
G37*
G36*
X437177D02*
Y149400D01*
X442451D01*
Y153231D01*
X442254Y154725D01*
X441678Y156118D01*
X440760Y157313D01*
X439564Y158231D01*
X438172Y158808D01*
X437177Y158939D01*
D02*
G37*
G36*
X470823D02*
X469828Y158808D01*
X468436Y158231D01*
X467240Y157313D01*
X466323Y156118D01*
X465746Y154725D01*
X465549Y153231D01*
Y149400D01*
X470823D01*
Y158939D01*
D02*
G37*
G36*
X436177D02*
X435183Y158808D01*
X433790Y158231D01*
X432594Y157313D01*
X431677Y156118D01*
X431100Y154725D01*
X430903Y153231D01*
Y149400D01*
X436177D01*
Y158939D01*
D02*
G37*
G36*
X477097Y148400D02*
X471823D01*
Y138861D01*
X472817Y138992D01*
X474210Y139569D01*
X475406Y140487D01*
X476323Y141682D01*
X476900Y143075D01*
X477097Y144569D01*
Y148400D01*
D02*
G37*
G36*
X442451D02*
X437177D01*
Y138861D01*
X438172Y138992D01*
X439564Y139569D01*
X440760Y140487D01*
X441678Y141682D01*
X442254Y143075D01*
X442451Y144569D01*
Y148400D01*
D02*
G37*
G36*
X470823D02*
X465549D01*
Y144569D01*
X465746Y143075D01*
X466323Y141682D01*
X467240Y140487D01*
X468436Y139569D01*
X469828Y138992D01*
X470823Y138861D01*
Y148400D01*
D02*
G37*
G36*
X436177D02*
X430903D01*
Y144569D01*
X431100Y143075D01*
X431677Y141682D01*
X432594Y140487D01*
X433790Y139569D01*
X435183Y138992D01*
X436177Y138861D01*
Y148400D01*
D02*
G37*
G36*
X340295Y137057D02*
X332389D01*
Y129152D01*
X340295D01*
Y137057D01*
D02*
G37*
G36*
X273161D02*
X265256D01*
Y129152D01*
X273161D01*
Y137057D01*
D02*
G37*
G36*
X206028D02*
X198122D01*
Y129152D01*
X206028D01*
Y137057D01*
D02*
G37*
G36*
X138895D02*
X130989D01*
Y129152D01*
X138895D01*
Y137057D01*
D02*
G37*
G36*
X354058Y137092D02*
X353026Y136956D01*
X352065Y136557D01*
X351239Y135924D01*
X350606Y135098D01*
X350207Y134137D01*
X350071Y133105D01*
X350207Y132073D01*
X350606Y131111D01*
X351239Y130286D01*
X352065Y129652D01*
X353026Y129254D01*
X354058Y129118D01*
X355090Y129254D01*
X356052Y129652D01*
X356877Y130286D01*
X357511Y131111D01*
X357909Y132073D01*
X358045Y133105D01*
X357909Y134137D01*
X357511Y135098D01*
X356877Y135924D01*
X356052Y136557D01*
X355090Y136956D01*
X354058Y137092D01*
D02*
G37*
G36*
X286925D02*
X285893Y136956D01*
X284932Y136557D01*
X284106Y135924D01*
X283472Y135098D01*
X283074Y134137D01*
X282938Y133105D01*
X283074Y132073D01*
X283472Y131111D01*
X284106Y130286D01*
X284932Y129652D01*
X285893Y129254D01*
X286925Y129118D01*
X287957Y129254D01*
X288918Y129652D01*
X289744Y130286D01*
X290378Y131111D01*
X290776Y132073D01*
X290912Y133105D01*
X290776Y134137D01*
X290378Y135098D01*
X289744Y135924D01*
X288918Y136557D01*
X287957Y136956D01*
X286925Y137092D01*
D02*
G37*
G36*
X219792D02*
X218760Y136956D01*
X217798Y136557D01*
X216972Y135924D01*
X216339Y135098D01*
X215941Y134137D01*
X215805Y133105D01*
X215941Y132073D01*
X216339Y131111D01*
X216972Y130286D01*
X217798Y129652D01*
X218760Y129254D01*
X219792Y129118D01*
X220824Y129254D01*
X221785Y129652D01*
X222611Y130286D01*
X223244Y131111D01*
X223643Y132073D01*
X223779Y133105D01*
X223643Y134137D01*
X223244Y135098D01*
X222611Y135924D01*
X221785Y136557D01*
X220824Y136956D01*
X219792Y137092D01*
D02*
G37*
G36*
X152658D02*
X151626Y136956D01*
X150665Y136557D01*
X149839Y135924D01*
X149206Y135098D01*
X148807Y134137D01*
X148671Y133105D01*
X148807Y132073D01*
X149206Y131111D01*
X149839Y130286D01*
X150665Y129652D01*
X151626Y129254D01*
X152658Y129118D01*
X153690Y129254D01*
X154652Y129652D01*
X155477Y130286D01*
X156111Y131111D01*
X156509Y132073D01*
X156645Y133105D01*
X156509Y134137D01*
X156111Y135098D01*
X155477Y135924D01*
X154652Y136557D01*
X153690Y136956D01*
X152658Y137092D01*
D02*
G37*
%LPD*%
D24*
X444157Y176459D02*
D03*
X454000D02*
D03*
D25*
X463843D02*
D03*
D26*
X436677Y148900D02*
D03*
X471323D02*
D03*
D30*
X290200Y230100D02*
D03*
X280200D02*
D03*
X270200D02*
D03*
X260200D02*
D03*
X250200D02*
D03*
X240200D02*
D03*
X230200D02*
D03*
X220200D02*
D03*
Y200100D02*
D03*
X230200D02*
D03*
X240200D02*
D03*
X250200D02*
D03*
X260200D02*
D03*
X270200D02*
D03*
X280200D02*
D03*
D31*
X290200D02*
D03*
D35*
X463700Y271500D02*
D03*
Y251500D02*
D03*
Y231500D02*
D03*
D36*
X134942Y133105D02*
D03*
X202075D02*
D03*
X269208D02*
D03*
X336342D02*
D03*
D37*
X152658D02*
D03*
Y158695D02*
D03*
X134942D02*
D03*
X219792Y133105D02*
D03*
Y158695D02*
D03*
X202075D02*
D03*
X286925Y133105D02*
D03*
Y158695D02*
D03*
X269208D02*
D03*
X354058Y133105D02*
D03*
Y158695D02*
D03*
X336342D02*
D03*
D38*
X228300Y250800D02*
D03*
X415000Y181844D02*
D03*
X302400Y269300D02*
D03*
M02*
