M48
;Layer_Color=9474304
;FILE_FORMAT=2:5
INCH,LZ
;TYPE=PLATED
T1F00S00C0.00787
T2F00S00C0.01200
T3F00S00C0.01968
T4F00S00C0.02756
T5F00S00C0.02795
T6F00S00C0.03504
T7F00S00C0.04331
;TYPE=NON_PLATED
T8F00S00C0.02756
%
T01
X0342599Y0236901
X03466Y02347
X03468Y02476
X03692Y02555
X03798Y02635
X03803Y02695
X0357623Y027155
X0381686Y0285
X0383274Y0287114
X0382866Y0293686
X0374068Y0298587
X0375086Y0311721
X03733Y0313363
X0374514Y032649
X0377136Y0326361
X0344686Y03291
X0326992Y0330992
Y0326661
X0322661
Y0330992
X0318331
Y0326661
Y0322331
Y0318
Y0313669
X0314
X0309669
Y0318
X0314
Y0322331
X0309669
Y0326661
Y0330992
X0314
Y0326661
X0322661Y0322331
X0326992
Y0318
X0322661
Y0313669
X0326992
X0334884Y029799
X0325Y02866
X0318926Y0287926
X0318314Y0284894
X03015Y0340047
X0301609Y0346886
X02992Y03495
X02763Y03464
X0257Y0346686
X0251472
X0244524Y0342667
X0239Y0342
X0244Y0334531
X0259614Y0329925
X02351Y0330365
X0237Y03333
X02301Y0330365
T02
X02234Y0228466
X02225Y02683
X02121Y02685
X02478Y0236083
X0251036Y02345
X0255857Y02334
X026Y0233891
X0266499Y0252393
X02616Y02935
X02615Y03075
X02623Y0327
X0263Y03344
X0293Y03352
X02938Y0339919
X02905Y03288
X0290842Y0324942
X0297Y0307319
X0303092Y0289931
X0309Y02891
X0329228Y0298628
X0334Y03004
X0338069Y0297835
X0337Y0286183
X0338819Y03367
Y03421
X02449Y03185
X02392Y03199
X0234626Y03195
X0222965Y03235
X0211431Y0325069
X02045Y0319
X0204636Y03465
X02215Y0349
X02271Y02837
T03
X02231Y02348
X02208Y02415
X02141Y02455
X02104Y02491
X02237Y0259
X02329Y02499
X02397Y0244
X02521Y02476
X02522Y02602
X02381Y02606
X02414Y02703
X02405Y0279
X0245524Y0280192
X02418Y02298
T04
X03833Y03224
Y03274
X03883
Y03324
Y03424
X03833
X03883Y03224
T05
X0358234Y0229006
Y0239006
Y0249006
X0388366Y0248994
Y0238994
Y0228994
T06
X0324Y02935
X0334
T07
X0260524Y0258287
X0269185
X0277847
X0286508
X029517
X0303831
X0312493
X0321154
X0329815
X0338477
X0349835Y0255732
Y0264394
Y0273055
X0363614Y0277386
Y0268724
Y0260063
X0332571Y0272067
X032391
X0315248
X0306587
X0297926
X0289264
X0280603
X0271941
X026328
X0254619
X0349835Y0281716
Y0290378
Y0299039
Y0307701
Y0316362
Y0325024
Y0333685
X0363614Y0329354
Y0320693
Y0312032
Y030337
Y0294709
Y0286047
Y0338016
T08
X03833Y03174
X03883
Y03374
X03833
Y03324
Y03474
X03883
M30
