M48
;Layer_Color=9474304
;FILE_FORMAT=2:5
INCH,LZ
;TYPE=PLATED
T1F00S00C0.00787
T2F00S00C0.01200
T3F00S00C0.02756
T4F00S00C0.02795
T5F00S00C0.04331
;TYPE=NON_PLATED
T6F00S00C0.02756
%
T01
X0342599Y0236901
X03465Y02331
X03468Y02476
X0367Y0252181
X03798Y02635
Y02687
X035739Y0271898
X03791Y02849
X0379374Y0288118
X0378769Y0293266
X0378161Y02974
X0375086Y0311721
X03733Y0313363
X037284Y0324664
X0375212Y0324667
X0344981Y03285
X0326992Y0326661
X0322661
Y0330992
X0326992
Y0322331
X0322661
Y0318
X0326992
Y0313669
X0322661
X0318331
X0314
X0309669
Y0318
X0314
X0318331
Y0322331
X0314
X0309669
Y0326661
Y0330992
X0314
Y0326661
X0318331
Y0330992
X03015Y0340047
X0301609Y0346597
X02992Y03495
X02763Y03464
X0257Y0346686
X0251472
X0244524Y0342667
X0239Y0342
X0244Y0334531
X0259614Y0329925
X03184Y02891
X031856Y028484
X0325Y02866
X0337213Y029667
X02351Y0330365
X0237Y03333
X02301Y0330365
T02
X02234Y0228166
X02225Y0268
X02121Y02682
X02693Y02517
X0265319Y0233934
X0262Y02337
X02553Y0233
X02516Y02239
X02616Y02935
X02615Y03075
X02623Y0327
X0263Y03344
X02936Y03352
X02938Y0339919
X0291935Y0329449
X0291847Y0325655
X0297Y0307319
X0303092Y0291031
X0309271Y0288581
X03289Y0286981
X03295Y02994
X0334Y03004
X03375Y02998
X0338819Y03367
Y03421
X02449Y03185
X02392Y03199
X0234626Y03195
X0222965Y03235
X0211431Y0325069
X02045Y03185
X0204636Y03465
X02215Y0349
X0227Y0284
T03
X03833Y03224
Y03274
X03883
Y03324
Y03424
X03833
X03883Y03224
T04
X0359069Y0226653
Y0236653
Y0246653
X0389202Y0246641
Y0236641
Y0226641
T05
X02621Y0259863
X0270761
X0279423
X0288084
X0296746
X0305407
X0314069
X032273
X0331391
X0340053
X0349835Y0263409
Y0254748
Y0272071
Y0280732
X0363614Y0276402
Y026774
Y0259079
X0334147Y0273643
X0325486
X0316824
X0308163
X0299502
X029084
X0282179
X0273517
X0264856
X0256195
X0349835Y0289394
Y0298055
Y0306716
Y0315378
Y0324039
Y0332701
X0363614Y032837
Y0319709
Y0311047
Y0302386
Y0293724
Y0285063
Y0337032
T06
X03833Y03174
X03883
Y03374
X03833
Y03324
Y03474
X03883
M30
