M48
;Layer_Color=9474304
;FILE_FORMAT=2:5
INCH,LZ
;TYPE=PLATED
T1F00S00C0.01200
T2F00S00C0.01300
T3F00S00C0.01968
T4F00S00C0.02000
T5F00S00C0.02756
T6F00S00C0.02795
T7F00S00C0.04331
;TYPE=NON_PLATED
T8F00S00C0.09449
%
T01
X02172Y02609
X02227
X02282
X02256Y02647
X022035
X02151
X021325Y02687
X02181
X022295
X02575Y02811
X02688Y03372
X02664Y03485
X02648Y03535
X0268096Y0353963
X02681Y0379419
X02912Y03773
X0291827Y0372881
X0296881Y03726
X0299196Y0368181
X02958Y03638
X029233
X02846Y0369662
X030621Y037071
X030287Y037523
X03171Y0376281
X0322081Y0377702
X0326966Y0375919
X03304Y037578
X03486Y03664
X0352619Y0357931
X03536Y03486
X03486Y03402
X03384Y03338
X03262Y03343
X0320608Y0341592
X0304935Y0337165
X03113Y0352716
X0367154Y03664
X03687Y03355
X02431Y03829
X02195Y03551
X0212469Y0356
X0212365Y0295335
T02
X032415Y0352543
X0328481
Y0356874
Y0361205
X032415
Y0356874
X0332812
Y0361205
Y0352543
T03
X02227Y02269
X02159Y02347
Y02508
X02243Y0243
X023365Y02508
Y02347
X024045Y02269
X02582
X02635Y02292
Y0235
Y02228
X02514Y02347
X02445Y0243
X02514Y02508
X02635Y0248
T04
X02701Y02312
X02641Y03043
X02341Y02888
X02234Y03128
T05
X03338Y03805
Y03855
X03388
Y03805
X03438
Y03855
X03488
Y03805
X03538
X03588
X03638
Y03855
X03588
X03538
T06
X0253833Y0323988
Y0333988
Y0343988
X02237Y0344
Y0334
Y0324
T07
X0279058Y0226772
X0287719
X0296381
X0305042
X0313703
X0322365
X0331026
X0339688
X0348349
X0357011
X035268Y0240552
X0344018
X0335357
X0326696
X0318034
X0309373
X0300711
X029205
X0283388
X0274727
X0278516Y030187
X0287177
X0295839
X03045
X0313162
X0321823
X0330485
X0339146
X0347807
X0356469
X0350563Y031565
X0341902
X033324
X0324579
X0315918
X0307256
X0298595
X0289933
X0281272
X0272611
T08
X0272365Y0263387
X0358979
M30
