M48
;Layer_Color=9474304
;FILE_FORMAT=2:5
INCH,LZ
;TYPE=PLATED
T1F00S00C0.01500
T2F00S00C0.02000
T3F00S00C0.02795
T4F00S00C0.04016
T5F00S00C0.04331
T6F00S00C0.04500
;TYPE=NON_PLATED
T7F00S00C0.09449
%
T01
X02189Y02553
X0223375Y0257
X02057Y02747
X020272Y02723
X02552Y03974
X02065Y03482
X01881Y0348
X01863Y03432
X01854Y0328
X01874Y03229
X01798Y03157
X0205894Y0307706
X02095Y03041
X02248Y02886
X016075Y029595
X0132966Y0295966
X01202Y02938
X0107273Y0297073
X00975Y03128
X00934Y03387
X0146317Y0329776
X01493Y0332
X01525Y03437
X01489Y03472
X01444Y03995
X00625Y03746
X00624Y03415
X00317Y03596
T02
X0161Y0361
X0168
X0175
X0182
X01785Y0368
X01715
X01645
X0168Y0375
X0175
X0182
X01785Y0382
X01715
X01645
X0168Y0389
X0175
X0182
X0161
Y0375
X0224
X0231
X02345Y0382
X02275
X0231Y0389
X0224
X02275Y0368
X02345
X0231Y0361
X0224
X00448Y03948
T03
X02117Y0228324
Y0238324
Y0248324
Y02689
Y02789
X0241832Y0278888
Y0268888
Y0248312
Y0238312
Y0228312
Y0288888
X02117Y02889
T04
X00883Y03268
X00983
X01083
X01183
Y03368
X01083
Y03468
X01183
Y03568
X01083
Y03668
X01183
Y03768
X01083
Y03868
X01183
X01283
X01383
Y03768
Y03668
Y03568
Y03468
Y03368
Y03268
X01283
X00983Y03868
X00883
X00783
X00683
X00583
X00483
X00383
X00283
X00183
X00083
Y03268
X00183
X00283
X00383
X00483
X00583
X00683
X00783
T05
X0272969Y022552
X0281631
X0290292
X0298954
X0307615
X0316276
X0324938
X0333599
X0342261
X0350922
X0346591Y02393
X033793
X0329269
X0320607
X0311946
X0303284
X0294623
X0285961
X02773
X0268639
X0272428Y0300618
X0281089
X0289751
X0298412
X0307074
X0315735
X0324397
X0333058
X0341719
X0350381
X0344475Y0314398
X0335814
X0327152
X0318491
X030983
X0301168
X0292507
X0283845
X0275184
X0266523
T06
X00849Y0339
X0075064Y033905
T07
X0266276Y0262135
X0352891
M30
