M48
;Layer_Color=9474304
;FILE_FORMAT=2:5
INCH,LZ
;TYPE=PLATED
T1F00S00C0.01200
T2F00S00C0.01300
T3F00S00C0.01968
T4F00S00C0.02000
T5F00S00C0.02756
T6F00S00C0.02795
T7F00S00C0.04331
;TYPE=NON_PLATED
T8F00S00C0.02756
T9F00S00C0.09449
%
T01
X02172Y02609
X02227
X02282
X02256Y02647
X022035
X02151
X021325Y02687
X02181Y0268522
X022295Y02687
X02419Y0268
X024675Y0267822
X02516Y0268
X0249Y0264
X024375
X024585Y02602
X025135
X025685
X025425Y0264
X0255457Y0281457
X02688Y03372
X02664Y03485
X02648Y03535
X0268096Y0353963
X02681Y0379419
X0291557Y037864
X0292026Y037378
X0297303Y03753
X029885Y0369597
X0299069Y0364519
X02959
X0287134Y0370381
X03059Y03742
X0309252Y0371289
X0310153Y0368153
X0312592Y0372508
X03322Y0378589
X035311Y0374357
X0362665Y0376598
X0366938Y0378129
X0373819Y03742
X03593Y03871
X03552Y0384179
X0363746Y03342
X03494Y0327
X0336823Y033269
X0334318Y0334074
X0321196Y0337017
X0320284Y0341084
X0317288Y03481
X0328173Y0345876
X0320302Y0328581
X03204Y0322548
X0304523Y0337581
X02431Y03829
X02195Y0355619
X0212143Y0356395
X0212365Y0295335
X0220536Y0286635
X0227899Y0287361
T02
X032837Y0346072
X0332701
X0337032
X0341362
X0345693
Y0350403
X0341362
X0337032
X0332701
X032837
Y0354734
X0332701
X0337032
X0341362
X0345693
Y0359065
Y0363395
X0341362
Y0359065
X0337032
Y0363395
X0332701
Y0359065
X032837
Y0363395
T03
X02227Y02269
X02159Y02347
Y02508
X02243Y0243
X023365Y02508
Y02347
X024045Y02269
X02582
X02635Y02292
Y0235
Y02228
X02514Y02347
X02445Y0243
X02514Y02508
X02635Y0248
T04
X02701Y02312
X0266086Y0304797
X02343Y029
X02234Y03128
T05
X03247Y03811
Y03861
X03347
X03397
X03447
Y03811
X03397
T06
X0253833Y0323988
Y0333988
Y0343988
X02237Y0344
Y0334
Y0324
T07
X0279058Y0226772
X0287719
X0296381
X0305042
X0313703
X0322365
X0331026
X0339688
X0348349
X0357011
X035268Y0240552
X0344018
X0335357
X0326696
X0318034
X0309373
X0300711
X029205
X0283388
X0274727
X0278516Y030187
X0287177
X0295839
X03045
X0313162
X0321823
X0330485
X0339146
X0347807
X0356469
X0350563Y031565
X0341902
X033324
X0324579
X0315918
X0307256
X0298595
X0289933
X0281272
X0272611
T08
X03197Y03811
Y03861
X03297
Y03811
X03347
X03497
Y03861
T09
X0272365Y0263387
X0358979
M30
